<svg width="100" height="100" viewBox="0 0 100 100" fill="none" xmlns="http://www.w3.org/2000/svg">
<g clip-path="url(#clip0_5_255)">
<circle opacity="0.2" cx="50" cy="50" r="35" fill="#FF9649"/>
<path d="M41.5274 86.393L39.8207 72.3296H59.0997L57.8777 86.3156C57.7394 87.8983 56.8744 89.3273 55.5363 90.1837C52.0083 92.4417 47.4337 92.4117 43.9006 90.1503C42.5947 89.3145 41.7137 87.9278 41.5274 86.393Z" fill="#1B1B1D" stroke="#FF6B00"/>
<path d="M34.7953 64.6163L34.7493 64.5068L34.6589 64.4298C31.6942 61.9006 29.4129 58.6667 28.0248 55.0254C26.6366 51.3841 26.1862 47.4523 26.715 43.5914C27.2437 39.7305 28.7346 36.0644 31.0505 32.9304C33.3665 29.7963 36.4333 27.2948 39.9688 25.6558C43.5043 24.0169 47.3951 23.2931 51.2835 23.551C55.1719 23.8089 58.9331 25.0402 62.2212 27.1317C65.5093 29.2232 68.2188 32.1078 70.1006 35.5203C71.9822 38.9324 72.9758 42.7628 72.9902 46.6593C72.9889 50.0243 72.2562 53.3487 70.8428 56.4024C69.4293 59.4563 67.3688 62.1665 64.804 64.3452L64.7129 64.4225L64.6666 64.5327L61.2265 72.7275L61.2258 72.7292C61.1095 73.0092 60.9133 73.2487 60.6616 73.4177C60.4103 73.5865 60.1148 73.6776 59.8121 73.6796H39.6221C39.3193 73.6776 39.0239 73.5865 38.7726 73.4177C38.5209 73.2487 38.3246 73.0092 38.2084 72.7292L38.2075 72.7271L34.7953 64.6163Z" fill="url(#paint0_linear_5_255)" stroke="#FF6B00"/>
<rect x="8.61084" y="64.7071" width="11.1777" height="11.1777" transform="rotate(45 8.61084 64.7071)" fill="url(#paint1_linear_5_255)" stroke="#FF6B00"/>
<rect x="18.8057" y="80.7071" width="7.21028" height="7.21028" transform="rotate(45 18.8057 80.7071)" fill="url(#paint2_linear_5_255)" stroke="#FF6B00"/>
<rect x="89.8057" y="23.7071" width="7.21028" height="7.21028" transform="rotate(45 89.8057 23.7071)" fill="url(#paint3_linear_5_255)" stroke="#FF6B00"/>
<rect x="51.5" y="6.5" width="11" height="4" rx="2" transform="rotate(90 51.5 6.5)" fill="url(#paint4_linear_5_255)" stroke="#FF6B00"/>
<rect x="18.5" y="50.5" width="11" height="4" rx="2" transform="rotate(-180 18.5 50.5)" fill="url(#paint5_linear_5_255)" stroke="#FF6B00"/>
<rect x="90.5" y="50.5" width="11" height="4" rx="2" transform="rotate(-180 90.5 50.5)" fill="url(#paint6_linear_5_255)" stroke="#FF6B00"/>
<rect x="78.9919" y="19.7467" width="11" height="4" rx="2" transform="rotate(133.449 78.9919 19.7467)" fill="url(#paint7_linear_5_255)" stroke="#FF6B00"/>
<rect x="0.706848" y="0.0191404" width="11" height="4" rx="2" transform="matrix(0.687707 0.725988 0.725988 -0.687707 18.5081 19.2472)" fill="url(#paint8_linear_5_255)" stroke="#FF6B00"/>
</g>
<defs>
<linearGradient id="paint0_linear_5_255" x1="57.4791" y1="39.3762" x2="24.7841" y2="66.5839" gradientUnits="userSpaceOnUse">
<stop stop-color="#FF6B00"/>
<stop offset="1" stop-color="#FFB27A"/>
</linearGradient>
<linearGradient id="paint1_linear_5_255" x1="16.6829" y1="67.8966" x2="8.81843" y2="74.9496" gradientUnits="userSpaceOnUse">
<stop stop-color="#FF6B00"/>
<stop offset="1" stop-color="#FFB27A"/>
</linearGradient>
<linearGradient id="paint2_linear_5_255" x1="24.2479" y1="82.6271" x2="18.9456" y2="87.3822" gradientUnits="userSpaceOnUse">
<stop stop-color="#FF6B00"/>
<stop offset="1" stop-color="#FFB27A"/>
</linearGradient>
<linearGradient id="paint3_linear_5_255" x1="95.2479" y1="25.6271" x2="89.9456" y2="30.3822" gradientUnits="userSpaceOnUse">
<stop stop-color="#FF6B00"/>
<stop offset="1" stop-color="#FFB27A"/>
</linearGradient>
<linearGradient id="paint4_linear_5_255" x1="59.9542" y1="7.59987" x2="57.4718" y2="12.9429" gradientUnits="userSpaceOnUse">
<stop stop-color="#FF6B00"/>
<stop offset="1" stop-color="#FFB27A"/>
</linearGradient>
<linearGradient id="paint5_linear_5_255" x1="26.9542" y1="52.5999" x2="24.4718" y2="57.9429" gradientUnits="userSpaceOnUse">
<stop stop-color="#FF6B00"/>
<stop offset="1" stop-color="#FFB27A"/>
</linearGradient>
<linearGradient id="paint6_linear_5_255" x1="98.9542" y1="52.5999" x2="96.4718" y2="57.9429" gradientUnits="userSpaceOnUse">
<stop stop-color="#FF6B00"/>
<stop offset="1" stop-color="#FFB27A"/>
</linearGradient>
<linearGradient id="paint7_linear_5_255" x1="87.653" y1="21.3274" x2="85.1706" y2="26.6705" gradientUnits="userSpaceOnUse">
<stop stop-color="#FF6B00"/>
<stop offset="1" stop-color="#FFB27A"/>
</linearGradient>
<linearGradient id="paint8_linear_5_255" x1="7.95424" y1="1.59987" x2="5.47183" y2="6.94293" gradientUnits="userSpaceOnUse">
<stop stop-color="#FF6B00"/>
<stop offset="1" stop-color="#FFB27A"/>
</linearGradient>
<clipPath id="clip0_5_255">
<rect width="100" height="100" fill="white"/>
</clipPath>
</defs>
</svg>
