<svg width="100" height="100" viewBox="0 0 100 100" fill="none" xmlns="http://www.w3.org/2000/svg">
<g clip-path="url(#clip0_5_243)">
<circle opacity="0.2" cx="50" cy="50" r="35" fill="#FF9649"/>
<rect x="8.61084" y="64.7071" width="11.1777" height="11.1777" transform="rotate(45 8.61084 64.7071)" fill="url(#paint0_linear_5_243)" stroke="#FF6B00"/>
<rect x="18.8057" y="80.7071" width="7.21028" height="7.21028" transform="rotate(45 18.8057 80.7071)" fill="url(#paint1_linear_5_243)" stroke="#FF6B00"/>
<rect x="89.8057" y="23.7071" width="7.21028" height="7.21028" transform="rotate(45 89.8057 23.7071)" fill="url(#paint2_linear_5_243)" stroke="#FF6B00"/>
<rect x="52.9405" y="58.4067" width="7.04384" height="38.0226" rx="3.52192" transform="rotate(-45 52.9405 58.4067)" fill="#1B1B1D" stroke="#FF6B00"/>
<path d="M41.0043 60.5086C52.3285 60.5086 61.5086 51.3285 61.5086 40.0043C61.5086 28.6801 52.3285 19.5 41.0043 19.5C29.6801 19.5 20.5 28.6801 20.5 40.0043C20.5 51.3285 29.6801 60.5086 41.0043 60.5086ZM67.5086 40.0043C67.5086 54.6422 55.6422 66.5086 41.0043 66.5086C26.3664 66.5086 14.5 54.6422 14.5 40.0043C14.5 25.3664 26.3664 13.5 41.0043 13.5C55.6422 13.5 67.5086 25.3664 67.5086 40.0043Z" fill="url(#paint3_linear_5_243)" stroke="#FF6B00"/>
<mask id="path-7-inside-1_5_243" fill="white">
<path fill-rule="evenodd" clip-rule="evenodd" d="M25 40C28.2577 34.6085 34.2042 31 41 31C47.7958 31 53.7423 34.6085 57 40C53.7423 45.3915 47.7958 49 41 49C34.2042 49 28.2577 45.3915 25 40Z"/>
</mask>
<path fill-rule="evenodd" clip-rule="evenodd" d="M25 40C28.2577 34.6085 34.2042 31 41 31C47.7958 31 53.7423 34.6085 57 40C53.7423 45.3915 47.7958 49 41 49C34.2042 49 28.2577 45.3915 25 40Z" fill="url(#paint4_linear_5_243)"/>
<path d="M25 40L24.1441 39.4828L23.8316 40L24.1441 40.5172L25 40ZM57 40L57.8559 40.5172L58.1684 40L57.8559 39.4828L57 40ZM25.8559 40.5172C28.9387 35.415 34.5662 32 41 32V30C33.8421 30 27.5766 33.802 24.1441 39.4828L25.8559 40.5172ZM41 32C47.4338 32 53.0613 35.415 56.1441 40.5172L57.8559 39.4828C54.4234 33.802 48.1579 30 41 30V32ZM56.1441 39.4828C53.0613 44.585 47.4338 48 41 48V50C48.1579 50 54.4234 46.198 57.8559 40.5172L56.1441 39.4828ZM41 48C34.5662 48 28.9387 44.585 25.8559 39.4828L24.1441 40.5172C27.5766 46.198 33.8421 50 41 50V48Z" fill="#FF6B00" mask="url(#path-7-inside-1_5_243)"/>
<circle cx="41" cy="40" r="6" fill="#1B1B1D"/>
</g>
<defs>
<linearGradient id="paint0_linear_5_243" x1="16.6829" y1="67.8966" x2="8.81843" y2="74.9496" gradientUnits="userSpaceOnUse">
<stop stop-color="#FF6B00"/>
<stop offset="1" stop-color="#FFB27A"/>
</linearGradient>
<linearGradient id="paint1_linear_5_243" x1="24.2479" y1="82.6271" x2="18.9456" y2="87.3822" gradientUnits="userSpaceOnUse">
<stop stop-color="#FF6B00"/>
<stop offset="1" stop-color="#FFB27A"/>
</linearGradient>
<linearGradient id="paint2_linear_5_243" x1="95.2479" y1="25.6271" x2="89.9456" y2="30.3822" gradientUnits="userSpaceOnUse">
<stop stop-color="#FF6B00"/>
<stop offset="1" stop-color="#FFB27A"/>
</linearGradient>
<linearGradient id="paint3_linear_5_243" x1="49.7998" y1="30.2814" x2="14.9207" y2="61.5616" gradientUnits="userSpaceOnUse">
<stop stop-color="#FF6B00"/>
<stop offset="1" stop-color="#FFB27A"/>
</linearGradient>
<linearGradient id="paint4_linear_5_243" x1="46.2113" y1="36.7595" x2="35.684" y2="53.5437" gradientUnits="userSpaceOnUse">
<stop stop-color="#FF6B00"/>
<stop offset="1" stop-color="#FFB27A"/>
</linearGradient>
<clipPath id="clip0_5_243">
<rect width="100" height="100" fill="white"/>
</clipPath>
</defs>
</svg>
