<svg width="100" height="100" viewBox="0 0 100 100" fill="none" xmlns="http://www.w3.org/2000/svg">
<g clip-path="url(#clip0_5_243)">
<circle opacity="0.2" cx="50" cy="50" r="35" fill="#FF9649"/>
<rect x="8.61084" y="64.7071" width="11.1777" height="11.1777" transform="rotate(45 8.61084 64.7071)" fill="url(#paint0_linear_5_243)" stroke="#FF6B00"/>
<rect x="18.8057" y="80.7071" width="7.21028" height="7.21028" transform="rotate(45 18.8057 80.7071)" fill="url(#paint1_linear_5_243)" stroke="#FF6B00"/>
<rect x="89.8057" y="23.7071" width="7.21028" height="7.21028" transform="rotate(45 89.8057 23.7071)" fill="url(#paint2_linear_5_243)" stroke="#FF6B00"/>
<path d="M50.6956 64.4456L66.6573 56.7949L78.2091 80.332C78.3909 80.7024 78.0691 81.1172 77.6626 81.0366L68.5592 79.2311C67.8854 79.0975 67.2085 79.4326 66.9133 80.0461L63.1222 87.9241C62.9415 88.2996 62.4027 88.2992 62.2183 87.9234L50.6956 64.4456Z" fill="#1B1B1D" stroke="#FF6B00"/>
<path d="M49.2077 64.4456L33.5859 56.9579L22.0452 80.4726C21.8624 80.845 22.1885 81.2612 22.5965 81.1762L31.4906 79.3221C32.174 79.1796 32.8637 79.5212 33.1574 80.1475L36.7907 87.8958L36.3356 88.1082L36.7907 87.8958C36.9686 88.2751 37.5113 88.2774 37.6968 87.8995L49.2077 64.4456Z" fill="#1B1B1D" stroke="#FF6B00"/>
<circle cx="50" cy="44" r="27.5" fill="url(#paint3_linear_5_243)" stroke="#FF6B00"/>
<circle cx="50.0001" cy="44.0001" r="17.42" fill="#1B1B1D" stroke="#FF6B00"/>
<path d="M38.8206 45.2279L45.3799 51.5587L60.2088 37.1851" stroke="url(#paint4_linear_5_243)" stroke-width="5"/>
</g>
<defs>
<linearGradient id="paint0_linear_5_243" x1="16.6829" y1="67.8966" x2="8.81843" y2="74.9496" gradientUnits="userSpaceOnUse">
<stop stop-color="#FF6B00"/>
<stop offset="1" stop-color="#FFB27A"/>
</linearGradient>
<linearGradient id="paint1_linear_5_243" x1="24.2479" y1="82.6271" x2="18.9456" y2="87.3822" gradientUnits="userSpaceOnUse">
<stop stop-color="#FF6B00"/>
<stop offset="1" stop-color="#FFB27A"/>
</linearGradient>
<linearGradient id="paint2_linear_5_243" x1="95.2479" y1="25.6271" x2="89.9456" y2="30.3822" gradientUnits="userSpaceOnUse">
<stop stop-color="#FF6B00"/>
<stop offset="1" stop-color="#FFB27A"/>
</linearGradient>
<linearGradient id="paint3_linear_5_243" x1="59.1198" y1="33.9186" x2="22.9546" y2="66.3522" gradientUnits="userSpaceOnUse">
<stop stop-color="#FF6B00"/>
<stop offset="1" stop-color="#FFB27A"/>
</linearGradient>
<linearGradient id="paint4_linear_5_243" x1="49.3092" y1="37.8528" x2="50.131" y2="51.2677" gradientUnits="userSpaceOnUse">
<stop stop-color="#FF6C01"/>
<stop offset="1" stop-color="#FF9E58"/>
</linearGradient>
<clipPath id="clip0_5_243">
<rect width="100" height="100" fill="white"/>
</clipPath>
</defs>
</svg>
