<svg width="24" height="24" viewBox="0 0 24 24" fill="none" xmlns="http://www.w3.org/2000/svg">
<path d="M3 3V19C3 19.5304 3.21071 20.0391 3.58579 20.4142C3.96086 20.7893 4.46957 21 5 21H21" stroke="#C0C1C3" stroke-width="2" stroke-linecap="round" stroke-linejoin="round"/>
<path d="M18 5H16C15.4477 5 15 5.44772 15 6V16C15 16.5523 15.4477 17 16 17H18C18.5523 17 19 16.5523 19 16V6C19 5.44772 18.5523 5 18 5Z" stroke="#C0C1C3" stroke-width="2" stroke-linecap="round" stroke-linejoin="round"/>
<path d="M10 8H8C7.44772 8 7 8.44772 7 9V16C7 16.5523 7.44772 17 8 17H10C10.5523 17 11 16.5523 11 16V9C11 8.44772 10.5523 8 10 8Z" stroke="#C0C1C3" stroke-width="2" stroke-linecap="round" stroke-linejoin="round"/>
</svg>
