<svg xmlns="http://www.w3.org/2000/svg" width="24" height="24" viewBox="0 0 24 24" fill="none">
  <path d="M3.9995 13.9997C3.81027 14.0003 3.62474 13.9473 3.46446 13.8467C3.30418 13.746 3.17574 13.602 3.09405 13.4313C3.01237 13.2606 2.9808 13.0703 3.003 12.8823C3.02521 12.6944 3.10028 12.5166 3.2195 12.3697L13.1195 2.16967C13.1938 2.08396 13.295 2.02603 13.4065 2.00541C13.518 1.98478 13.6332 2.00269 13.7332 2.05618C13.8332 2.10967 13.9121 2.19557 13.9568 2.29978C14.0016 2.40399 14.0096 2.52032 13.9795 2.62967L12.0595 8.64967C12.0029 8.8012 11.9839 8.96419 12.0041 9.12468C12.0243 9.28517 12.0832 9.43836 12.1756 9.5711C12.268 9.70385 12.3913 9.81219 12.5348 9.88684C12.6783 9.96148 12.8377 10.0002 12.9995 9.99967H19.9995C20.1887 9.99903 20.3743 10.0521 20.5345 10.1527C20.6948 10.2533 20.8233 10.3973 20.905 10.568C20.9866 10.7387 21.0182 10.9291 20.996 11.117C20.9738 11.3049 20.8987 11.4827 20.7795 11.6297L10.8795 21.8297C10.8052 21.9154 10.704 21.9733 10.5925 21.9939C10.481 22.0146 10.3658 21.9967 10.2658 21.9432C10.1658 21.8897 10.0869 21.8038 10.0422 21.6996C9.99742 21.5954 9.98943 21.479 10.0195 21.3697L11.9395 15.3497C11.9961 15.1982 12.0151 15.0352 11.9949 14.8747C11.9747 14.7142 11.9158 14.561 11.8234 14.4282C11.731 14.2955 11.6077 14.1872 11.4642 14.1125C11.3207 14.0379 11.1613 13.9991 10.9995 13.9997H3.9995Z" stroke="#C0C1C3" stroke-width="2" stroke-linecap="round" stroke-linejoin="round"/>
</svg>