<svg xmlns="http://www.w3.org/2000/svg" width="24" height="24" viewBox="0 0 24 24" fill="none">
  <path d="M12 8C16.9706 8 21 6.65685 21 5C21 3.34315 16.9706 2 12 2C7.02944 2 3 3.34315 3 5C3 6.65685 7.02944 8 12 8Z" stroke="#C0C1C3" stroke-width="2" stroke-linecap="round" stroke-linejoin="round"/>
  <path d="M3 5V19C3 19.7956 3.94821 20.5587 5.63604 21.1213C7.32387 21.6839 9.61305 22 12 22C14.3869 22 16.6761 21.6839 18.364 21.1213C20.0518 20.5587 21 19.7956 21 19V5" stroke="#C0C1C3" stroke-width="2" stroke-linecap="round" stroke-linejoin="round"/>
  <path d="M3 12C3 12.7956 3.94821 13.5587 5.63604 14.1213C7.32387 14.6839 9.61305 15 12 15C14.3869 15 16.6761 14.6839 18.364 14.1213C20.0518 13.5587 21 12.7956 21 12" stroke="#C0C1C3" stroke-width="2" stroke-linecap="round" stroke-linejoin="round"/>
</svg>