<svg xmlns="http://www.w3.org/2000/svg" width="24" height="24" viewBox="0 0 24 24" fill="none">
  <path d="M16 3V7C16 7.55228 16.4477 8 17 8H21C21.5523 8 22 7.55228 22 7V3C22 2.44772 21.5523 2 21 2H17C16.4477 2 16 2.44772 16 3Z" stroke="#C0C1C3" stroke-width="2" stroke-linecap="round" stroke-linejoin="round"/>
  <path d="M16 17V21C16 21.5523 16.4477 22 17 22H21C21.5523 22 22 21.5523 22 21V17C22 16.4477 21.5523 16 21 16H17C16.4477 16 16 16.4477 16 17Z" stroke="#C0C1C3" stroke-width="2" stroke-linecap="round" stroke-linejoin="round"/>
  <path d="M2 10L2 14C2 14.5523 2.44772 15 3 15H7C7.55228 15 8 14.5523 8 14V10C8 9.44772 7.55228 9 7 9H3C2.44772 9 2 9.44772 2 10Z" stroke="#C0C1C3" stroke-width="2" stroke-linecap="round" stroke-linejoin="round"/>
  <path d="M16 19H13C12.7348 19 12.4804 18.8946 12.2929 18.7071C12.1054 18.5196 12 18.2652 12 18V6C12 5.73478 12.1054 5.48043 12.2929 5.29289C12.4804 5.10536 12.7348 5 13 5H16" stroke="#C0C1C3" stroke-width="2" stroke-linecap="round" stroke-linejoin="round"/>
  <path d="M12 12H8" stroke="#C0C1C3" stroke-width="2" stroke-linecap="round" stroke-linejoin="round"/>
</svg>