<svg width="297" height="37" viewBox="0 0 297 37" fill="none" xmlns="http://www.w3.org/2000/svg">
<path d="M0.642046 36V1.09091H9.07955V15.1023H22.8352V1.09091H31.2557V36H22.8352V21.9716H9.07955V36H0.642046ZM34.6862 7.94318V1.09091H64.1919V7.94318H53.6067V36H45.2885V7.94318H34.6862ZM66.4506 7.94318V1.09091H95.9563V7.94318H85.3711V36H77.0529V7.94318H66.4506ZM99.357 36V1.09091H113.777C116.391 1.09091 118.647 1.60227 120.545 2.625C122.454 3.63636 123.925 5.05113 124.959 6.86932C125.993 8.67614 126.51 10.7784 126.51 13.1761C126.51 15.5852 125.982 17.6932 124.925 19.5C123.88 21.2955 122.385 22.6875 120.442 23.6761C118.499 24.6648 116.192 25.1591 113.522 25.1591H104.624V18.5114H111.954C113.226 18.5114 114.289 18.2898 115.141 17.8466C116.005 17.4034 116.658 16.7841 117.101 15.9886C117.545 15.1818 117.766 14.2443 117.766 13.1761C117.766 12.0966 117.545 11.1648 117.101 10.3807C116.658 9.58523 116.005 8.97159 115.141 8.53977C114.277 8.10795 113.215 7.89205 111.954 7.89205H107.795V36H99.357ZM148.819 11.5568C148.705 10.3068 148.2 9.33523 147.302 8.64205C146.415 7.9375 145.148 7.58523 143.501 7.58523C142.41 7.58523 141.501 7.72727 140.773 8.01136C140.046 8.29545 139.501 8.6875 139.137 9.1875C138.773 9.67614 138.586 10.2386 138.575 10.875C138.552 11.3977 138.654 11.858 138.881 12.2557C139.12 12.6534 139.461 13.0057 139.904 13.3125C140.359 13.608 140.904 13.8693 141.54 14.0966C142.177 14.3239 142.893 14.5227 143.688 14.6932L146.688 15.375C148.415 15.75 149.938 16.25 151.256 16.875C152.586 17.5 153.7 18.2443 154.597 19.108C155.506 19.9716 156.194 20.9659 156.66 22.0909C157.126 23.2159 157.364 24.4773 157.376 25.875C157.364 28.0795 156.807 29.9716 155.705 31.5511C154.603 33.1307 153.018 34.3409 150.95 35.1818C148.893 36.0227 146.41 36.4432 143.501 36.4432C140.58 36.4432 138.035 36.0057 135.864 35.1307C133.694 34.2557 132.006 32.9261 130.802 31.142C129.597 29.358 128.978 27.1023 128.944 24.375H137.023C137.092 25.5 137.393 26.4375 137.927 27.1875C138.461 27.9375 139.194 28.5057 140.126 28.892C141.069 29.2784 142.16 29.4716 143.398 29.4716C144.535 29.4716 145.501 29.3182 146.296 29.0114C147.103 28.7045 147.722 28.2784 148.154 27.733C148.586 27.1875 148.807 26.5625 148.819 25.858C148.807 25.1989 148.603 24.6364 148.205 24.1705C147.807 23.6932 147.194 23.2841 146.364 22.9432C145.546 22.5909 144.501 22.267 143.228 21.9716L139.58 21.1193C136.557 20.4261 134.177 19.3068 132.438 17.7614C130.7 16.2045 129.836 14.1023 129.847 11.4545C129.836 9.29545 130.415 7.40341 131.586 5.77841C132.756 4.15341 134.376 2.88636 136.444 1.97727C138.512 1.06818 140.87 0.613635 143.518 0.613635C146.222 0.613635 148.569 1.07386 150.557 1.99432C152.557 2.90341 154.109 4.18182 155.211 5.82955C156.313 7.47727 156.876 9.38636 156.898 11.5568H148.819ZM192.605 13.7386H184.082C183.968 12.8636 183.735 12.0739 183.383 11.3693C183.031 10.6648 182.565 10.0625 181.985 9.5625C181.406 9.0625 180.718 8.68182 179.923 8.42045C179.139 8.14773 178.269 8.01136 177.315 8.01136C175.622 8.01136 174.161 8.42614 172.934 9.25568C171.718 10.0852 170.781 11.2841 170.122 12.8523C169.474 14.4205 169.15 16.3182 169.15 18.5455C169.15 20.8636 169.48 22.8068 170.139 24.375C170.809 25.9318 171.747 27.108 172.951 27.9034C174.167 28.6875 175.605 29.0795 177.264 29.0795C178.195 29.0795 179.042 28.9602 179.803 28.7216C180.576 28.483 181.252 28.1364 181.832 27.6818C182.423 27.2159 182.906 26.6534 183.281 25.9943C183.667 25.3239 183.934 24.5682 184.082 23.7273L192.605 23.7784C192.457 25.3239 192.008 26.8466 191.258 28.3466C190.519 29.8466 189.502 31.2159 188.207 32.4545C186.911 33.6818 185.332 34.6591 183.468 35.3864C181.616 36.1136 179.491 36.4773 177.093 36.4773C173.934 36.4773 171.105 35.7841 168.605 34.3977C166.116 33 164.15 30.9659 162.707 28.2955C161.264 25.625 160.542 22.375 160.542 18.5455C160.542 14.7045 161.275 11.4489 162.741 8.77841C164.207 6.10795 166.19 4.07955 168.69 2.69318C171.19 1.30682 173.991 0.613635 177.093 0.613635C179.207 0.613635 181.161 0.90909 182.957 1.5C184.752 2.07954 186.332 2.93182 187.695 4.05682C189.059 5.17045 190.167 6.53977 191.019 8.16477C191.872 9.78977 192.4 11.6477 192.605 13.7386ZM229.662 18.5455C229.662 22.3864 228.923 25.642 227.446 28.3125C225.968 30.983 223.968 33.0114 221.446 34.3977C218.934 35.7841 216.116 36.4773 212.991 36.4773C209.855 36.4773 207.031 35.7784 204.519 34.3807C202.008 32.983 200.014 30.9545 198.537 28.2955C197.071 25.625 196.338 22.375 196.338 18.5455C196.338 14.7045 197.071 11.4489 198.537 8.77841C200.014 6.10795 202.008 4.07955 204.519 2.69318C207.031 1.30682 209.855 0.613635 212.991 0.613635C216.116 0.613635 218.934 1.30682 221.446 2.69318C223.968 4.07955 225.968 6.10795 227.446 8.77841C228.923 11.4489 229.662 14.7045 229.662 18.5455ZM221.037 18.5455C221.037 16.2727 220.713 14.3523 220.065 12.7841C219.429 11.2159 218.508 10.0284 217.304 9.22159C216.11 8.41477 214.673 8.01136 212.991 8.01136C211.321 8.01136 209.883 8.41477 208.679 9.22159C207.474 10.0284 206.548 11.2159 205.9 12.7841C205.264 14.3523 204.946 16.2727 204.946 18.5455C204.946 20.8182 205.264 22.7386 205.9 24.3068C206.548 25.875 207.474 27.0625 208.679 27.8693C209.883 28.6761 211.321 29.0795 212.991 29.0795C214.673 29.0795 216.11 28.6761 217.304 27.8693C218.508 27.0625 219.429 25.875 220.065 24.3068C220.713 22.7386 221.037 20.8182 221.037 18.5455ZM254.987 1.09091H263.407V23.608C263.407 26.2102 262.788 28.4773 261.549 30.4091C260.311 32.3295 258.584 33.8182 256.368 34.875C254.152 35.9205 251.578 36.4432 248.646 36.4432C245.68 36.4432 243.089 35.9205 240.873 34.875C238.657 33.8182 236.936 32.3295 235.709 30.4091C234.481 28.4773 233.868 26.2102 233.868 23.608V1.09091H242.305V22.875C242.305 24.0795 242.567 25.1534 243.089 26.0966C243.623 27.0398 244.368 27.7784 245.322 28.3125C246.277 28.8466 247.385 29.1136 248.646 29.1136C249.907 29.1136 251.01 28.8466 251.953 28.3125C252.907 27.7784 253.652 27.0398 254.186 26.0966C254.72 25.1534 254.987 24.0795 254.987 22.875V1.09091ZM266.834 7.94318V1.09091H296.339V7.94318H285.754V36H277.436V7.94318H266.834Z" fill="#C0C1C3"/>
</svg>
