<svg width="1231" height="347" viewBox="0 0 1231 347" fill="none" xmlns="http://www.w3.org/2000/svg">
<g clip-path="url(#clip0_8744_199)">
<path d="M307.9 273.47V223.7C307.9 220.85 311.65 219.78 313.14 222.21L338.8 263.85C340.55 267.06 341.42 268.22 344.92 269.1C352.21 270.56 358.04 271.14 365.62 271.14C395.65 271.14 414.6 255.98 414.6 233.53C414.6 213.12 400.31 203.79 378.74 194.75L354.25 184.55C331.22 174.93 309.06 158.6 309.06 127.7C309.06 91.26 339.96 69.1 383.69 69.1C399.43 69.1 415.17 70.56 431.5 74.64V121.18C431.5 123.99 427.85 125.08 426.3 122.74L402.05 86.01C400.3 83.09 398.55 81.93 395.93 81.64C392.14 81.06 388.06 80.76 383.39 80.76C354.53 80.76 338.49 97.09 338.49 117.79C338.49 133.53 347.82 144.61 369.1 153.65L395.92 164.73C423.03 176.1 445.19 188.64 445.19 220.13C445.19 257.16 416.04 282.81 366.19 282.81C346.95 282.81 326.25 279.9 307.88 273.48L307.9 273.47Z" fill="#F0F0EB"/>
<path d="M541.34 151.03C526.76 151.03 515.1 160.65 507.23 175.52V255.69C507.23 258.9 507.81 259.77 510.14 261.52L524.69 273.4C526.75 275.08 525.56 278.43 522.9 278.43H461.15C458.5 278.43 457.3 275.11 459.34 273.42L473.7 261.53C476.32 259.78 476.91 258.9 476.91 255.7V93.59C476.91 90.67 476.62 89.51 474.29 87.47L461.46 76.41C459.73 74.92 460.38 72.11 462.59 71.53L507.24 59.78V159.49C518.32 142.29 531.14 132.08 552.72 132.08C582.75 132.08 600.53 151.61 600.53 191.85C600.53 210.22 599.95 235.58 599.65 255.7C599.65 258.91 600.23 259.78 602.86 261.53L617.22 273.42C619.26 275.11 618.07 278.43 615.41 278.43H553.58C550.93 278.43 549.73 275.11 551.77 273.42L566.13 261.52C569.04 259.48 569.34 258.89 569.34 255.69C569.63 246.65 569.63 209.92 569.63 195.34C569.63 160.65 556.8 151.03 541.35 151.03H541.34Z" fill="#F0F0EB"/>
<path d="M713.85 200.88C713.85 190.97 714.14 181.93 714.14 178.14C714.14 155.11 703.64 143.45 683.53 143.45C680.62 143.45 678.28 143.74 676.83 144.03C674.79 144.32 673.04 145.2 671.87 147.53L652.56 176.74C651.22 178.77 648.12 178.28 647.47 175.94L638.05 141.99C654.67 134.99 669.83 132.08 686.74 132.08C727.56 132.08 743.01 150.45 743.01 182.52C743.01 205.55 741.55 229.75 741.55 248.11C741.55 258.31 745.63 263.85 751.76 263.85C753.58 263.85 755.35 263.4 757.01 262.59C759.35 261.46 761.79 263.89 760.79 266.29C757.92 273.2 751.63 281.64 738.06 281.64C723.48 281.64 713.86 272.02 712.99 256.57C704.3 272.01 686.74 283.9 663.83 281.28C644.65 279.08 629.65 263.02 629.91 243.71C630.28 216.92 654.37 197.98 689.38 197.98C697.25 197.98 706.29 199.14 713.87 200.89L713.85 200.88ZM712.98 240.53C713.27 232.37 713.56 221.87 713.56 211.38C708.02 210.21 702.19 209.63 697.82 209.63C675.08 209.63 660.5 222.46 660.5 240.53C660.5 255.69 670.7 263.85 682.95 263.85C695.2 263.85 706.86 255.98 712.98 240.53Z" fill="#F0F0EB"/>
<path d="M770.35 346.94C767.69 346.94 766.5 343.6 768.56 341.91L783.11 330.02C785.44 328.27 786.02 327.4 786.02 324.19V164.72C786.02 161.81 785.73 160.93 783.69 158.89L766.73 140.31C765.07 138.49 766.36 135.57 768.82 135.57H813.42V161.23C824.21 139.95 841.12 132.08 859.48 132.08C891.26 132.08 917.2 157.44 917.2 202.92C917.2 254.23 884.84 281.93 851.61 281.93C836.74 281.93 824.2 276.39 816.62 268.23V321.29C816.62 325.37 817.2 326.24 820.41 327.7L844.12 341.67C846.6 343.13 845.57 346.94 842.68 346.94H770.34H770.35ZM883.98 205.25C883.98 171.72 869.4 149.85 847.83 149.85C836.17 149.85 824.51 156.27 816.63 172.59V253.06C823.04 262.97 832.37 268.22 843.74 268.22C864.15 268.22 883.97 249.85 883.97 205.25H883.98Z" fill="#F0F0EB"/>
<path d="M969.11 203.5C969.4 247.52 993.01 261.23 1015.46 261.23C1027.59 261.23 1040.88 257.35 1052.33 248.16C1054.64 246.31 1057.85 248.78 1056.69 251.5C1051.53 263.59 1038.09 281.93 1004.09 281.93C967.06 281.93 937.33 257.73 937.33 208.46C937.33 159.19 967.65 132.08 1003.22 132.08C1035.29 132.08 1060.36 149.57 1060.36 196.51V203.51H969.11V203.5ZM969.11 191.84H1030.04C1028.88 161.23 1020.13 144.32 1001.76 144.32C983.39 144.32 970.86 160.36 969.11 191.84Z" fill="#F0F0EB"/>
<path d="M1184.52 278.43V253.36C1176.06 271.14 1159.45 281.93 1139.62 281.93C1109.3 281.93 1080.15 256.57 1080.15 209.05C1080.15 158.9 1112.8 132.08 1147.2 132.08C1159.73 132.08 1171.69 135.87 1181.31 143.74V93.6C1181.31 90.68 1181.31 89.52 1178.98 87.48L1165.57 73.15C1164.05 71.52 1164.91 68.86 1167.1 68.43L1211.92 59.78V250.16C1211.92 253.07 1212.21 253.66 1214.84 256.28L1229.79 273.76C1231.36 275.6 1230.06 278.43 1227.64 278.43H1184.52ZM1181.31 241.99V158.61C1175.19 151.03 1163.82 146.07 1153.61 146.07C1134.66 146.07 1113.38 162.69 1113.38 206.13C1113.38 245.2 1130.29 263.56 1149.82 263.56C1161.48 263.56 1174.89 256.86 1181.31 241.99Z" fill="#F0F0EB"/>
<path d="M229.61 74.38C232.32 74.16 233.04 71.18 230.66 70.15L178.96 48.15L123.12 24.37L68.76 1.24001C67.85 0.860006 66.74 0.930006 65.89 1.44001C43.9 14.82 35.03 31.53 35.22 49.27C35.22 50.24 35.26 51.24 35.34 52.32C35.34 52.39 35.34 52.45 35.34 52.52C36.6 68.68 46.79 96.27 56.97 116.03C57.42 116.91 57.55 117.84 57.26 118.78C52.92 133.79 41.84 150.83 28.9 160.27C27.46 161.33 27.74 163.2 29.4 163.93L78.61 184.88C80.41 185.65 80.57 187.75 78.87 188.73C60.15 199.35 26.88 207.56 3.48 209.46C0.770002 209.68 0.0500016 212.66 2.43 213.69L54.13 235.69L109.97 259.47L164.34 282.62C165.25 283 166.36 282.93 167.21 282.42C189.2 269.04 198.07 252.33 197.88 234.59C197.88 233.62 197.84 232.62 197.76 231.56C197.76 231.49 197.76 231.43 197.76 231.36C196.5 215.2 186.31 187.61 176.13 167.85C175.68 166.97 175.55 166.04 175.84 165.1C180.18 150.09 191.26 133.05 204.2 123.61C205.64 122.55 205.36 120.68 203.7 119.95L154.49 99C152.69 98.23 152.53 96.13 154.23 95.15C172.95 84.53 206.22 76.32 229.62 74.42V74.38H229.61ZM110.54 27.62C113.13 27.29 114.64 29.94 112.7 31.45C98.85 42.38 92.47 54.94 91.24 68.53C91.1 70.13 89 71.11 87.28 70.38L42.87 51.47C41.07 50.7 40.91 48.6 42.61 47.62C59.46 38.08 87.97 30.45 110.51 27.63H110.54V27.62ZM64.11 117.55C67.84 104.59 76.6 90.13 87.27 80.33C88.81 78.93 91.61 79.61 91.94 81.46C94.95 97.9 103.78 121.98 112.83 139.77C113.28 140.65 113.38 141.59 113.12 142.52C109.39 155.48 100.63 169.94 89.96 179.74C88.42 181.14 85.62 180.46 85.29 178.61C82.28 162.18 73.45 138.09 64.4 120.32C63.95 119.44 63.85 118.5 64.11 117.57V117.55ZM89.93 189.69L134.45 208.64C136.25 209.41 136.41 211.51 134.72 212.49C117.87 222.05 89.28 229.64 66.68 232.44C64.09 232.77 62.58 230.12 64.51 228.61C78.39 217.68 84.77 205.11 85.99 191.51C86.13 189.91 88.23 188.93 89.95 189.66L89.92 189.68L89.93 189.69ZM122.54 256.23C119.95 256.56 118.44 253.91 120.38 252.4C134.23 241.47 140.61 228.91 141.84 215.32C141.98 213.72 144.08 212.74 145.8 213.47L190.21 232.38C192.01 233.15 192.17 235.25 190.47 236.23C173.62 245.77 145.11 253.4 122.57 256.22H122.54V256.23ZM168.96 166.27C165.23 179.23 156.47 193.69 145.8 203.49C144.26 204.89 141.46 204.21 141.13 202.36C138.12 185.93 129.29 161.84 120.24 144.07C119.79 143.19 119.69 142.25 119.95 141.32C123.68 128.36 132.44 113.9 143.11 104.1C144.65 102.7 147.45 103.38 147.78 105.23C150.79 121.66 159.62 145.75 168.67 163.54C169.12 164.42 169.22 165.36 168.96 166.29V166.27ZM143.15 94.16L98.63 75.21C96.83 74.44 96.67 72.34 98.37 71.36C115.22 61.8 143.81 54.21 166.41 51.41C169 51.08 170.51 53.73 168.57 55.24C154.7 66.17 148.31 78.74 147.09 92.34C146.95 93.94 144.85 94.92 143.13 94.19L143.16 94.17L143.15 94.16Z" fill="#F0F0EB"/>
</g>
<defs>
<clipPath id="clip0_8744_199">
<rect width="1231" height="347" fill="white"/>
</clipPath>
</defs>
</svg>
