<svg width="355" height="49" viewBox="0 0 355 49" fill="none" xmlns="http://www.w3.org/2000/svg">
<path opacity="0.3" d="M50.0981 17.4854H12.6075C9.55356 17.4854 7.07788 19.9627 7.07788 23.0189V25.6749C7.07788 28.7309 9.55356 31.2084 12.6075 31.2084H50.0981C53.1519 31.2084 55.6277 28.7309 55.6277 25.6749V23.0189C55.6277 19.9627 53.1519 17.4854 50.0981 17.4854Z" fill="#5F2EE5"/>
<path opacity="0.3" d="M58.7245 34.916H21.2339C18.18 34.916 15.7043 37.3935 15.7043 40.4495V43.1057C15.7043 46.1617 18.18 48.6392 21.2339 48.6392H58.7245C61.7784 48.6392 64.2541 46.1617 64.2541 43.1057V40.4495C64.2541 37.3935 61.7784 34.916 58.7245 34.916Z" fill="#5F2EE5"/>
<path d="M43.0201 0H5.52957C2.47568 0 0 2.47742 0 5.53346V8.18954C0 11.2456 2.47568 13.723 5.52957 13.723H43.0201C46.0741 13.723 48.5497 11.2456 48.5497 8.18954V5.53346C48.5497 2.47742 46.0741 0 43.0201 0Z" fill="#5F2EE5"/>
<path d="M33.9517 17.4854H12.6075C9.55356 17.4854 7.07788 19.9627 7.07788 23.0189V25.6749C7.07788 28.7309 9.55356 31.2084 12.6075 31.2084H33.9517C37.0056 31.2084 39.4813 28.7309 39.4813 25.6749V23.0189C39.4813 19.9627 37.0056 17.4854 33.9517 17.4854Z" fill="#5F2EE5"/>
<path d="M26.3765 34.916H21.2339C18.18 34.916 15.7043 37.3935 15.7043 40.4495V43.1057C15.7043 46.1617 18.18 48.6392 21.2339 48.6392H26.3765C29.4304 48.6392 31.9061 46.1617 31.9061 43.1057V40.4495C31.9061 37.3935 29.4304 34.916 26.3765 34.916Z" fill="#5F2EE5"/>
<path d="M108.562 3.15625V11.1914H97.026V45.8749H88.5899V11.1914H77.1047V3.15625H108.511H108.562Z" fill="white"/>
<path d="M130.516 15.3606H138.393V45.874H130.516V42.2633C128.178 45.2129 124.824 46.7385 120.555 46.7385C116.287 46.7385 112.983 45.162 110.087 42.0597C107.19 38.9577 105.716 35.1434 105.716 30.6174C105.716 26.0912 107.19 22.277 110.087 19.1748C112.983 16.0726 116.49 14.4961 120.555 14.4961C124.824 14.4961 128.128 15.9709 130.516 18.9715V15.3606ZM115.982 36.8216C117.557 38.4491 119.59 39.212 122.029 39.212C124.469 39.212 126.501 38.3982 128.077 36.8216C129.703 35.1943 130.465 33.1601 130.465 30.6174C130.465 28.0746 129.652 26.0402 128.077 24.4129C126.451 22.7856 124.469 22.0228 122.029 22.0228C119.59 22.0228 117.557 22.8363 115.982 24.4129C114.406 26.0402 113.593 28.0746 113.593 30.6174C113.593 33.1601 114.406 35.1943 115.982 36.8216Z" fill="white"/>
<path d="M162.653 14.497C166.77 14.497 170.276 16.0736 173.173 19.1758C176.069 22.2779 177.544 26.0922 177.544 30.6182C177.544 35.1444 176.069 38.9585 173.173 42.0608C170.276 45.163 166.77 46.7396 162.653 46.7396C158.537 46.7396 155.081 45.2647 152.794 42.2641V45.8749H144.917V3.15625H152.794V18.9723C155.132 16.0227 158.384 14.497 162.653 14.497ZM155.132 36.8227C156.707 38.45 158.74 39.2128 161.179 39.2128C163.619 39.2128 165.652 38.3992 167.227 36.8227C168.853 35.1953 169.615 33.161 169.615 30.6182C169.615 28.0755 168.802 26.0413 167.227 24.4139C165.601 22.7864 163.619 22.0236 161.179 22.0236C158.74 22.0236 156.707 22.8374 155.132 24.4139C153.556 26.0413 152.743 28.0755 152.743 30.6182C152.743 33.161 153.556 35.1953 155.132 36.8227Z" fill="white"/>
<path d="M182.493 45.8746V3.06836H190.369V45.8746H182.493Z" fill="white"/>
<path d="M203.602 33.872C204.669 37.6863 207.514 39.6187 212.19 39.6187C215.188 39.6187 217.475 38.6016 219 36.5674L225.353 40.2291C222.354 44.6027 217.933 46.7385 212.038 46.7385C207.007 46.7385 202.941 45.2129 199.891 42.1616C196.843 39.1101 195.318 35.2452 195.318 30.6174C195.318 25.9895 196.843 22.1754 199.841 19.1239C202.84 16.0726 206.701 14.4961 211.428 14.4961C215.899 14.4961 219.61 16.0218 222.506 19.1239C225.404 22.2261 226.877 26.0402 226.877 30.6174C226.877 31.6345 226.775 32.7023 226.572 33.872H203.602ZM203.501 27.7694H219.051C218.593 25.6843 217.678 24.1586 216.256 23.1415C214.833 22.1244 213.257 21.6159 211.479 21.6159C209.343 21.6159 207.616 22.1754 206.245 23.2432C204.872 24.3112 203.957 25.8369 203.501 27.7694Z" fill="white"/>
<path d="M257.643 11.1914H240.566V21.3117H253.589V29.3468H240.566V45.8241H232.13V3.15625H257.643V11.1914Z" fill="white"/>
<path d="M262.254 45.8746V3.31738H270.13V45.8746H262.254Z" fill="white"/>
<path d="M303.315 42.0597C300.166 45.162 296.353 46.7385 291.831 46.7385C287.307 46.7385 283.496 45.162 280.396 42.0597C277.297 38.9577 275.721 35.1434 275.721 30.6174C275.721 26.0912 277.297 22.277 280.396 19.1748C283.496 16.0726 287.307 14.4961 291.831 14.4961C296.353 14.4961 300.166 16.0726 303.315 19.1748C306.466 22.277 307.991 26.0912 307.991 30.6174C307.991 35.1434 306.416 38.9577 303.315 42.0597ZM285.987 36.669C287.562 38.2456 289.493 39.0594 291.882 39.0594C294.27 39.0594 296.201 38.2456 297.777 36.669C299.352 35.0926 300.166 33.0584 300.166 30.6174C300.166 28.1763 299.352 26.1421 297.777 24.5655C296.201 22.9889 294.22 22.1752 291.882 22.1752C289.544 22.1752 287.562 22.9889 285.987 24.5655C284.411 26.1421 283.648 28.1763 283.648 30.6174C283.648 33.0584 284.411 35.0926 285.987 36.669Z" fill="white"/>
<path d="M346.665 15.3613H355L345.293 45.8747H337.771L332.182 27.3632L326.591 45.8747H319.07L309.364 15.3613H317.699L322.882 34.0762L328.42 15.3613H335.84L341.381 34.1779L346.564 15.3613H346.665Z" fill="white"/>
</svg>
