<svg width="316" height="38" viewBox="0 0 316 38" fill="none" xmlns="http://www.w3.org/2000/svg">
<path d="M108.342 27.1019H107.678C106.057 33.2865 103.701 36.2308 97.5857 36.2308C91.1043 36.2308 89.8543 35.2755 89.8543 28.0572V19.0737H93.1703C97.5857 19.0737 100.388 20.029 100.754 25.332H101.346L101.199 18.1901L101.346 11.7844H100.754C100.388 16.5696 96.8528 17.8236 92.9472 17.8236H89.8549V1.69222H92.2116C96.1172 1.69222 101.786 1.8396 104.218 5.88857C105.029 7.45874 105.576 9.15201 105.835 10.9001H106.427C106.276 8.69073 106.276 6.62348 106.276 4.41873L106.427 0C100.388 0.736235 93.9782 0.592146 87.939 0.592146L77.7028 0.442136V1.10008C81.7517 1.32312 83.1492 1.83631 83.1492 6.47479V31.516C83.1492 36.0821 81.68 36.5999 77.7028 36.894V37.4861C81.5326 37.3388 85.4342 37.3388 89.2641 37.3388C95.2276 37.3388 101.343 37.2631 107.382 37.9309L107.777 32.5167L108.34 27.1058M74.315 37.4861V36.8999C70.3378 36.6052 68.7883 36.088 68.7883 31.5219V6.47742C68.7883 1.91132 70.2614 1.32575 74.315 1.10271V0.444768L65.3993 0.588857L56.6388 0.442136V1.10008C60.7595 1.32312 62.0852 1.83631 62.0852 6.47479V17.6006L52.5142 17.6762H45.3683V6.47742C45.3683 1.91132 46.8414 1.32575 50.8904 1.10271V0.444768L42.0562 0.592146L33.2918 0.442136V1.10008C37.344 1.32312 38.7422 1.83631 38.7422 6.47479V31.516C38.7422 36.0821 37.269 36.5999 33.2918 36.894V37.4861L42.0582 37.3388L50.8923 37.4861V36.8999C46.9151 36.6052 45.3703 36.088 45.3703 31.5219V18.7789L53.4715 18.7072L62.0865 18.7789V31.5186C62.0865 36.0847 60.7608 36.6025 56.6401 36.8966V37.4888L65.3993 37.3388L74.313 37.4861M31.2995 11.7087L31.2278 4.34372L31.2995 0.0717155C29.3689 0.302805 27.427 0.42625 25.4827 0.441478L18.4881 0.515825H12.8871L5.74448 0.442136C3.82408 0.430356 1.906 0.306673 0 0.0717155L0.0756631 4.34372L0 11.7087H0.517141C1.76723 5.59381 2.87059 1.61656 10.9784 1.61656H12.1568L12.3035 12.2976V31.5186C12.3035 35.5709 10.8304 36.5269 6.11358 36.8966V37.4888L15.6919 37.3414L25.1912 37.4888V36.8999C20.5494 36.5302 18.9329 35.5742 18.9329 31.5219V12.2976L19.0803 1.61656H20.3962C27.7611 1.61656 29.6073 5.96357 30.7107 11.7087H31.2962" fill="#C0C1C3"/>
<path d="M315.054 1.10264V0.444696L308.206 0.592075L300.179 0.444696V1.10264C306.141 1.39739 307.619 3.68242 307.619 10.0164V23.6397C307.619 31.8883 304.893 36.5268 296.867 36.5268C289.426 36.5268 287.44 31.7416 287.44 24.2292V6.40564C287.44 1.91125 288.909 1.32568 292.89 1.10264V0.444696L284.196 0.592075L275.362 0.444696V1.10264C279.339 1.32568 280.808 1.83887 280.808 6.40564V26.3669C280.808 35.7906 288.543 37.9999 295.686 37.9999C304.086 37.9999 309.165 33.8753 309.165 24.301V10.0164C309.165 5.43912 309.449 2.27443 313.218 1.35792L315.054 1.10264ZM266.665 19.5908L266.546 22.8423C265.972 30.0849 263.28 34.8602 256.576 36.0847C255.583 36.2793 254.57 36.3541 253.558 36.3077C249.874 36.232 248.474 34.6122 248.474 30.5632V2.05862C249.563 1.82458 250.673 1.70179 251.787 1.69215C261.387 1.69215 266.064 8.10181 266.611 17.64L266.665 19.5908ZM267.88 33.5016L269.087 32.4666C272.152 29.5316 273.956 25.1484 273.956 18.8539C273.956 5.4457 264.31 0.441406 253.187 0.441406L245.378 0.588785L236.318 0.441406V1.09935C240.37 1.32239 241.771 1.83558 241.771 6.47406V31.5153C241.771 36.0814 240.295 36.5992 236.318 36.8933V37.4854L245.312 37.3387C247.371 37.3387 249.437 37.4861 251.497 37.5578C253.218 37.6588 254.944 37.6095 256.656 37.4104C260.142 37.1613 263.527 36.135 266.565 34.4069L267.886 33.5016M234.409 1.10264V0.444696L228.294 0.592075L220.634 0.444696V1.10264C226.674 1.32568 227.557 5.07989 227.557 10.9V30.3402L202.592 0.515753H192.94V1.18027C194.042 1.16398 195.138 1.33782 196.181 1.69412C199.273 2.94421 199.568 7.29122 199.568 10.3849V27.0307C199.568 31.8159 199.568 36.5301 194.194 36.8998V37.492C196.252 37.4163 198.39 37.269 200.452 37.269C202.956 37.269 205.387 37.4163 207.817 37.492V36.8998C202.073 36.5301 201.04 32.6278 201.04 27.0307V8.90976L225.197 37.9249H229.027V10.9C229.027 6.61749 229.159 2.01191 233.482 1.21054L234.403 1.10264M190.874 37.4867V36.8998C186.897 36.6051 185.348 36.088 185.348 31.5218V6.47735C185.348 1.91124 186.824 1.32568 190.874 1.10264V0.444696L182.108 0.592075L173.274 0.444696V1.10264C177.323 1.32568 178.724 1.83887 178.724 6.47735V31.5186C178.724 36.0847 177.248 36.6025 173.274 36.8966V37.4887L182.108 37.3413L190.874 37.4887M169.958 37.4887V36.8998C166.052 36.6051 164.436 36.088 164.436 31.5218V6.47735C164.436 1.91124 165.981 1.32568 169.958 1.10264V0.444696L161.048 0.592075L152.354 0.444696V1.10264C156.406 1.32568 157.732 1.83887 157.732 6.47735V17.6005L148.229 17.6762H141.095V6.47735C141.095 1.91124 142.496 1.32568 146.545 1.10264V0.444696L137.779 0.592075L128.943 0.442064V1.1C132.991 1.32305 134.389 1.83624 134.389 6.47472V31.5159C134.389 36.082 132.916 36.5998 128.943 36.8939V37.4861L137.777 37.3387L146.543 37.4861V36.8998C142.566 36.6051 141.093 36.088 141.093 31.5218V18.7789L149.194 18.7071L157.737 18.7789V31.5186C157.737 36.0847 156.412 36.6025 152.359 36.8966V37.4887L161.053 37.3413L169.963 37.4887" fill="#C0C1C3"/>
</svg>
