<svg xmlns="http://www.w3.org/2000/svg" width="28" height="28" viewBox="0 0 24 24" fill="none" stroke="#f97316" stroke-width="2" stroke-linecap="round" stroke-linejoin="round" class="lucide lucide-container" aria-hidden="true" style="width:28px;height:28px"><path d="M22 7.7c0-.6-.4-1.2-.8-1.5l-6.3-3.9a1.72 1.72 0 0 0-1.7 0l-10.3 6c-.5.2-.9.8-.9 1.4v6.6c0 .5.4 1.2.8 1.5l6.3 3.9a1.72 1.72 0 0 0 1.7 0l10.3-6c.5-.3.9-1 .9-1.5Z"></path><path d="M10 21.9V14L2.1 9.1"></path><path d="m10 14 11.9-6.9"></path><path d="M14 19.8v-8.1"></path><path d="M18 17.5V9.4"></path></svg>