<svg width="203" height="28" viewBox="0 0 203 28" fill="none" xmlns="http://www.w3.org/2000/svg">
<path opacity="0.3" d="M28.6476 9.99158H7.20932C5.463 9.99158 4.04733 11.4072 4.04733 13.1536V14.6713C4.04733 16.4176 5.463 17.8333 7.20932 17.8333H28.6476C30.3939 17.8333 31.8096 16.4176 31.8096 14.6713V13.1536C31.8096 11.4072 30.3939 9.99158 28.6476 9.99158Z" fill="#5F2EE5"/>
<path opacity="0.3" d="M33.5805 19.9519H12.1422C10.3959 19.9519 8.98024 21.3676 8.98024 23.1139V24.6317C8.98024 26.378 10.3959 27.7937 12.1422 27.7937H33.5805C35.3268 27.7937 36.7425 26.378 36.7425 24.6317V23.1139C36.7425 21.3676 35.3268 19.9519 33.5805 19.9519Z" fill="#5F2EE5"/>
<path d="M24.6002 0H3.16198C1.41567 0 0 1.41567 0 3.16198V4.67974C0 6.42605 1.41567 7.84172 3.16198 7.84172H24.6002C26.3466 7.84172 27.7622 6.42605 27.7622 4.67974V3.16198C27.7622 1.41567 26.3466 0 24.6002 0Z" fill="#5F2EE5"/>
<path d="M19.4146 9.99158H7.20932C5.463 9.99158 4.04733 11.4072 4.04733 13.1536V14.6713C4.04733 16.4176 5.463 17.8333 7.20932 17.8333H19.4146C21.1609 17.8333 22.5766 16.4176 22.5766 14.6713V13.1536C22.5766 11.4072 21.1609 9.99158 19.4146 9.99158Z" fill="#5F2EE5"/>
<path d="M15.0829 19.9519H12.1422C10.3959 19.9519 8.98024 21.3676 8.98024 23.1139V24.6317C8.98024 26.378 10.3959 27.7937 12.1422 27.7937H15.0829C16.8292 27.7937 18.2449 26.378 18.2449 24.6317V23.1139C18.2449 21.3676 16.8292 19.9519 15.0829 19.9519Z" fill="#5F2EE5"/>
<path d="M62.0792 1.80325V6.39479H55.4825V26.2139H50.6585V6.39479H44.0909V1.80325H62.0501H62.0792Z" fill="white"/>
<path d="M74.6332 8.77767H79.1375V26.2139H74.6332V24.1506C73.2964 25.8361 71.3784 26.7079 68.9373 26.7079C66.4963 26.7079 64.6073 25.807 62.9509 24.0343C61.2945 22.2617 60.4517 20.0821 60.4517 17.4958C60.4517 14.9094 61.2945 12.7299 62.9509 10.9572C64.6073 9.18452 66.6125 8.28365 68.9373 8.28365C71.3784 8.28365 73.2673 9.1264 74.6332 10.841V8.77767ZM66.3219 21.0411C67.2228 21.9711 68.3852 22.407 69.7801 22.407C71.175 22.407 72.3374 21.942 73.2383 21.0411C74.1682 20.1112 74.6041 18.9488 74.6041 17.4958C74.6041 16.0428 74.1391 14.8803 73.2383 13.9504C72.3083 13.0205 71.175 12.5846 69.7801 12.5846C68.3852 12.5846 67.2228 13.0495 66.3219 13.9504C65.421 14.8803 64.9561 16.0428 64.9561 17.4958C64.9561 18.9488 65.421 20.1112 66.3219 21.0411Z" fill="white"/>
<path d="M93.0101 8.2837C95.364 8.2837 97.3692 9.18457 99.0256 10.9573C100.682 12.7299 101.525 14.9095 101.525 17.4958C101.525 20.0822 100.682 22.2617 99.0256 24.0344C97.3692 25.8071 95.364 26.708 93.0101 26.708C90.6563 26.708 88.6801 25.8652 87.3724 24.1506V26.2139H82.8681V1.80325H87.3724V10.841C88.7092 9.15551 90.5691 8.2837 93.0101 8.2837ZM88.7092 21.0412C89.6101 21.9711 90.7725 22.407 92.1674 22.407C93.5623 22.407 94.7247 21.9421 95.6256 21.0412C96.5555 20.1113 96.9914 18.9488 96.9914 17.4958C96.9914 16.0428 96.5264 14.8804 95.6256 13.9505C94.6956 13.0205 93.5623 12.5846 92.1674 12.5846C90.7725 12.5846 89.6101 13.0496 88.7092 13.9505C87.8083 14.8804 87.3434 16.0428 87.3434 17.4958C87.3434 18.9488 87.8083 20.1113 88.7092 21.0412Z" fill="white"/>
<path d="M104.355 26.214V1.75327H108.859V26.214H104.355Z" fill="white"/>
<path d="M116.426 19.3556C117.036 21.5352 118.663 22.6394 121.337 22.6394C123.051 22.6394 124.359 22.0582 125.231 20.8958L128.864 22.9882C127.149 25.4874 124.621 26.7079 121.25 26.7079C118.373 26.7079 116.048 25.8361 114.304 24.0925C112.561 22.3488 111.689 20.1403 111.689 17.4958C111.689 14.8513 112.561 12.6718 114.275 10.9281C115.99 9.18451 118.198 8.28364 120.901 8.28364C123.458 8.28364 125.58 9.15545 127.236 10.9281C128.893 12.7008 129.735 14.8803 129.735 17.4958C129.735 18.077 129.677 18.6872 129.561 19.3556H116.426ZM116.368 15.8684H125.26C124.998 14.6769 124.475 13.8051 123.662 13.2239C122.848 12.6427 121.947 12.3521 120.93 12.3521C119.709 12.3521 118.721 12.6718 117.937 13.282C117.152 13.8923 116.629 14.7641 116.368 15.8684Z" fill="white"/>
<path d="M147.328 6.39478H137.563V12.1778H145.01V16.7693H137.563V26.1849H132.739V1.80325H147.328V6.39478Z" fill="white"/>
<path d="M149.965 26.214V1.89559H154.469V26.214H149.965Z" fill="white"/>
<path d="M173.445 24.0343C171.644 25.807 169.464 26.7079 166.878 26.7079C164.291 26.7079 162.112 25.807 160.339 24.0343C158.567 22.2617 157.666 20.0821 157.666 17.4958C157.666 14.9094 158.567 12.7299 160.339 10.9572C162.112 9.18451 164.291 8.28364 166.878 8.28364C169.464 8.28364 171.644 9.18451 173.445 10.9572C175.247 12.7299 176.119 14.9094 176.119 17.4958C176.119 20.0821 175.218 22.2617 173.445 24.0343ZM163.536 20.9539C164.437 21.8548 165.541 22.3198 166.907 22.3198C168.273 22.3198 169.377 21.8548 170.278 20.9539C171.179 20.0531 171.644 18.8907 171.644 17.4958C171.644 16.1009 171.179 14.9385 170.278 14.0376C169.377 13.1367 168.244 12.6717 166.907 12.6717C165.57 12.6717 164.437 13.1367 163.536 14.0376C162.635 14.9385 162.199 16.1009 162.199 17.4958C162.199 18.8907 162.635 20.0531 163.536 20.9539Z" fill="white"/>
<path d="M198.234 8.7778H203L197.449 26.214H193.148L189.952 15.636L186.755 26.214H182.454L176.904 8.7778H181.67L184.634 19.472L187.801 8.7778H192.044L195.212 19.5301L198.176 8.7778H198.234Z" fill="white"/>
</svg>
