<svg
  width="20"
  height="16"
  viewBox="0 0 20 16"
  fill="none"
  xmlns="http://www.w3.org/2000/svg"
>
  <path
    d="M19.7711 1.70873L19.7679 1.7061C19.9108 1.52593 20 1.29945 20 1.04965C20 0.469895 19.5392 0 18.9706 0C18.6333 0 18.3362 0.167852 18.1484 0.423562L18.1466 0.422084L7.16027 10.7353L2.13944 8.09518C2.11222 8.07941 2.08419 8.06529 2.05585 8.05116L2.02959 8.0372L2.0196 8.03326C1.97708 8.01372 1.93343 7.99647 1.88897 7.9812L1.87238 7.97463V7.97512C1.73401 7.92963 1.58679 7.90466 1.43359 7.90466C0.641748 7.90466 0 8.55913 0 9.3664C0 9.82019 0.202796 10.2255 0.520927 10.4937L0.521088 10.4939C0.521249 10.494 0.521572 10.4944 0.522055 10.4945L5.92266 15.088C6.02591 15.1945 6.13883 15.2911 6.26076 15.3754L6.26189 15.3765C6.61932 15.6232 7.05019 15.7676 7.51441 15.7676C8.13006 15.7676 8.68752 15.5138 9.09184 15.1036L9.09667 15.1083L9.16496 15.0226C9.2252 14.9554 9.28158 14.8851 9.33377 14.8107L19.7711 1.70873Z"
    fill="#169E00"
  />
</svg>