<svg width="20" height="20" viewBox="0 0 20 20" fill="none" xmlns="http://www.w3.org/2000/svg">
<g clip-path="url(#clip0_274_35352)">
<path d="M19.6551 16.5517H0.344843C0.154414 16.5517 0 16.3973 0 16.2069V3.79309C0 3.60266 0.154414 3.44824 0.344843 3.44824H19.6552C19.8456 3.44824 20 3.60266 20 3.79309V16.2069C20 16.3973 19.8455 16.5517 19.6551 16.5517Z" fill="#41479B"/>
<path d="M10.1401 4.94864L10.2784 5.36321L10.7153 5.36661C10.7719 5.36704 10.7954 5.43923 10.7499 5.47286L10.3983 5.73247L10.5301 6.14911C10.5472 6.20301 10.4858 6.2477 10.4397 6.21477L10.0842 5.96063L9.7287 6.21477C9.68269 6.24766 9.62124 6.20305 9.63831 6.14911L9.77011 5.73247L9.41855 5.47286C9.37304 5.43923 9.39648 5.36704 9.45308 5.36661L9.89007 5.36321L10.0284 4.94864C10.0462 4.89497 10.1222 4.89497 10.1401 4.94864Z" fill="#FFE15A"/>
<path d="M10.1401 13.8495L10.2784 14.2641L10.7153 14.2675C10.7719 14.2679 10.7954 14.3401 10.7499 14.3737L10.3983 14.6333L10.5301 15.05C10.5472 15.1039 10.4858 15.1486 10.4397 15.1156L10.0842 14.8615L9.7287 15.1156C9.68269 15.1485 9.62124 15.1039 9.63831 15.05L9.77011 14.6333L9.41855 14.3737C9.37304 14.3401 9.39648 14.2679 9.45308 14.2675L9.89007 14.2641L10.0284 13.8495C10.0462 13.7958 10.1222 13.7958 10.1401 13.8495Z" fill="#FFE15A"/>
<path d="M14.5893 9.39902L14.7276 9.81359L15.1646 9.81699C15.2212 9.81742 15.2446 9.8896 15.1991 9.92324L14.8475 10.1828L14.9793 10.5995C14.9964 10.6534 14.935 10.6981 14.8889 10.6651L14.5334 10.411L14.1779 10.6651C14.1319 10.698 14.0705 10.6534 14.0875 10.5995L14.2193 10.1828L13.8678 9.92324C13.8223 9.8896 13.8457 9.81742 13.9023 9.81699L14.3393 9.81359L14.4776 9.39902C14.4954 9.34535 14.5714 9.34535 14.5893 9.39902Z" fill="#FFE15A"/>
<path d="M5.6889 9.39902L5.82718 9.81359L6.26417 9.81699C6.32077 9.81742 6.34421 9.8896 6.2987 9.92324L5.94714 10.1828L6.07894 10.5995C6.09601 10.6534 6.0346 10.6981 5.98854 10.6651L5.63304 10.411L5.27753 10.6651C5.23151 10.698 5.17007 10.6534 5.18714 10.5995L5.31894 10.1828L4.96737 9.92324C4.92187 9.8896 4.9453 9.81742 5.00191 9.81699L5.4389 9.81359L5.57718 9.39902C5.59507 9.34535 5.67105 9.34535 5.6889 9.39902Z" fill="#FFE15A"/>
<path d="M6.35687 7.07498L6.49515 7.48955L6.93214 7.49295C6.98874 7.49338 7.01218 7.56557 6.96667 7.5992L6.61511 7.85881L6.7469 8.27545C6.76397 8.32936 6.70257 8.37404 6.65651 8.34111L6.30101 8.08697L5.9455 8.34111C5.89948 8.374 5.83804 8.32939 5.85511 8.27545L5.98691 7.85881L5.63534 7.5992C5.58984 7.56557 5.61327 7.49338 5.66987 7.49295L6.10687 7.48955L6.24515 7.07498C6.26304 7.02131 6.33894 7.02131 6.35687 7.07498Z" fill="#FFE15A"/>
<path d="M14.0659 11.5254L14.2041 11.94L14.6411 11.9434C14.6977 11.9438 14.7212 12.016 14.6757 12.0496L14.3241 12.3093L14.4559 12.7259C14.473 12.7798 14.4116 12.8245 14.3655 12.7916L14.01 12.5374L13.6545 12.7916C13.6085 12.8244 13.547 12.7798 13.5641 12.7259L13.6959 12.3093L13.3443 12.0496C13.2988 12.016 13.3223 11.9438 13.3789 11.9434L13.8159 11.94L13.9541 11.5254C13.972 11.4718 14.048 11.4718 14.0659 11.5254Z" fill="#FFE15A"/>
<path d="M12.4369 5.44608L12.5752 5.86065L13.0122 5.86404C13.0688 5.86447 13.0923 5.93666 13.0467 5.97029L12.6952 6.2299L12.827 6.64654C12.8441 6.70045 12.7826 6.74514 12.7366 6.71221L12.3811 6.45807L12.0256 6.71221C11.9796 6.7451 11.9181 6.70049 11.9352 6.64654L12.067 6.2299L11.7154 5.97029C11.6699 5.93666 11.6934 5.86447 11.75 5.86404L12.1869 5.86065L12.3252 5.44608C12.3431 5.3924 12.419 5.3924 12.4369 5.44608Z" fill="#FFE15A"/>
<path d="M7.98577 13.1544L8.12405 13.569L8.56104 13.5724C8.61764 13.5728 8.64108 13.645 8.59557 13.6786L8.24401 13.9382L8.37581 14.3549C8.39288 14.4088 8.33147 14.4534 8.28542 14.4205L7.92991 14.1664L7.57441 14.4205C7.52839 14.4534 7.46694 14.4088 7.48401 14.3549L7.61581 13.9382L7.26425 13.6786C7.21874 13.645 7.24218 13.5728 7.29878 13.5724L7.73577 13.569L7.87405 13.1544C7.89194 13.1007 7.96784 13.1007 7.98577 13.1544Z" fill="#FFE15A"/>
<path d="M13.9541 7.07498L13.8159 7.48955L13.3789 7.49295C13.3223 7.49338 13.2988 7.56557 13.3443 7.5992L13.6959 7.85881L13.5641 8.27545C13.547 8.32936 13.6084 8.37404 13.6545 8.34111L14.01 8.08697L14.3655 8.34111C14.4115 8.374 14.473 8.32939 14.4559 8.27545L14.3241 7.85881L14.6757 7.5992C14.7212 7.56557 14.6977 7.49338 14.6411 7.49295L14.2041 7.48955L14.0659 7.07498C14.048 7.02131 13.972 7.02131 13.9541 7.07498Z" fill="#FFE15A"/>
<path d="M6.24515 11.5254L6.10687 11.94L5.66987 11.9434C5.61327 11.9438 5.58984 12.016 5.63534 12.0496L5.98691 12.3093L5.85511 12.7259C5.83804 12.7798 5.89944 12.8245 5.9455 12.7916L6.30101 12.5374L6.65651 12.7916C6.70253 12.8244 6.76397 12.7798 6.7469 12.7259L6.61511 12.3093L6.96667 12.0496C7.01218 12.016 6.98874 11.9438 6.93214 11.9434L6.49515 11.94L6.35687 11.5254C6.33894 11.4718 6.26304 11.4718 6.24515 11.5254Z" fill="#FFE15A"/>
<path d="M7.87405 5.44608L7.73577 5.86065L7.29878 5.86404C7.24218 5.86447 7.21874 5.93666 7.26425 5.97029L7.61581 6.2299L7.48401 6.64654C7.46694 6.70045 7.52835 6.74514 7.57441 6.71221L7.92991 6.45807L8.28542 6.71221C8.33143 6.7451 8.39288 6.70049 8.37581 6.64654L8.24401 6.2299L8.59557 5.97029C8.64108 5.93666 8.61764 5.86447 8.56104 5.86404L8.12405 5.86065L7.98577 5.44608C7.96784 5.3924 7.89194 5.3924 7.87405 5.44608Z" fill="#FFE15A"/>
<path d="M12.3252 13.1544L12.1869 13.569L11.75 13.5724C11.6934 13.5728 11.6699 13.645 11.7154 13.6786L12.067 13.9382L11.9352 14.3549C11.9181 14.4088 11.9795 14.4534 12.0256 14.4205L12.3811 14.1664L12.7366 14.4205C12.7826 14.4534 12.8441 14.4088 12.827 14.3549L12.6952 13.9382L13.0467 13.6786C13.0923 13.645 13.0688 13.5728 13.0122 13.5724L12.5752 13.569L12.4369 13.1544C12.419 13.1007 12.3431 13.1007 12.3252 13.1544Z" fill="#FFE15A"/>
</g>
<defs>
<clipPath id="clip0_274_35352">
<rect width="20" height="20" fill="white"/>
</clipPath>
</defs>
</svg>
