<svg xmlns="http://www.w3.org/2000/svg" width="74" height="40" viewBox="0 0 74 40" fill="none">
  <g clip-path="url(#clip0_5466_11885)">
    <path d="M33.3493 26.886C33.6024 26.7341 33.9062 26.6666 34.21 26.6666C34.4463 26.6666 34.6826 26.7172 34.8851 26.8185C35.1045 26.9197 35.2902 27.0716 35.4421 27.2404L35.9991 26.6834C35.7796 26.4134 35.5096 26.2109 35.2058 26.0758C34.8345 25.9239 34.4463 25.8564 34.0412 25.8733C33.6362 25.8902 33.248 26.0083 32.9104 26.194C32.5391 26.4134 32.2353 26.7172 32.0159 27.1054C31.7965 27.5104 31.6953 27.9493 31.6953 28.405C31.6953 28.8606 31.7965 29.2995 32.0159 29.7045C32.2185 30.0758 32.5223 30.3965 32.8936 30.6159C33.2817 30.8353 33.7206 30.9535 34.1594 30.9366C34.5138 30.9366 34.8683 30.8691 35.2058 30.7341C35.5096 30.599 35.7965 30.3796 35.9991 30.1265L35.4421 29.5695C35.2902 29.7552 35.1045 29.9071 34.8851 30.0083C34.6657 30.1096 34.4294 30.1602 34.1931 30.1602C33.8893 30.1602 33.6024 30.0927 33.3324 29.9408C33.0792 29.7889 32.8767 29.5864 32.7417 29.3332C32.6066 29.0632 32.5223 28.7425 32.5223 28.4387C32.5223 28.1349 32.5898 27.8311 32.7417 27.5442C32.8936 27.2573 33.0961 27.0379 33.3493 26.886ZM32.4885 21.1813H34.8514V23.291H35.6953V18.3628H34.8514V20.3881H32.4885V18.3628H31.6446V23.291H32.4885V21.1813ZM36.7417 23.291H37.5855V18.3628H36.7417V23.291ZM41.1974 18.5822C40.8767 18.4303 40.5223 18.3628 40.1678 18.3796H38.6488V23.291H39.4927V21.8733H40.1678C40.5223 21.8733 40.8767 21.8058 41.1974 21.6708C41.4843 21.5358 41.7206 21.3332 41.8725 21.0632C42.0244 20.7763 42.1088 20.4556 42.1088 20.1349C42.1088 19.8142 42.0244 19.4936 41.8725 19.2066C41.7206 18.9197 41.4843 18.7172 41.1974 18.5822ZM40.9611 20.8438C40.7754 21.0125 40.4885 21.0969 40.1172 21.0969H39.4927V19.1391H40.1172C40.4885 19.1391 40.7754 19.2235 40.9611 19.3923C41.1467 19.5611 41.248 19.7974 41.248 20.118C41.248 20.4387 41.1636 20.675 40.9611 20.8438ZM49.5012 18.3796L47.2227 23.291H48.1847L48.691 22.1602H51.2227L51.729 23.291H52.7079L50.4294 18.3628H49.5012V18.3796ZM49.0117 21.4345L49.9569 19.291L50.902 21.4345H49.0117ZM40.4379 26.194C40.0497 25.9746 39.6109 25.8733 39.1552 25.8733C38.6995 25.8733 38.2775 25.9914 37.8725 26.194C37.5012 26.4134 37.1805 26.7172 36.978 27.1054C36.7585 27.5104 36.6573 27.9493 36.6573 28.405C36.6573 28.8606 36.7754 29.2995 36.978 29.7045C37.1805 30.0758 37.5012 30.3965 37.8725 30.6159C38.2607 30.8353 38.6995 30.9366 39.1552 30.9366C39.6109 30.9366 40.0328 30.8185 40.4379 30.6159C40.8092 30.3965 41.113 30.0927 41.3324 29.7045C41.5518 29.2995 41.6531 28.8606 41.6531 28.405C41.6531 27.9493 41.5349 27.5104 41.3324 27.1054C41.113 26.7172 40.8092 26.4134 40.4379 26.194ZM40.5729 29.2826C40.4379 29.5358 40.2353 29.7552 39.9991 29.9071C39.7459 30.059 39.459 30.1265 39.172 30.1265C38.8851 30.1265 38.5982 30.0421 38.345 29.9071C38.0919 29.7552 37.8893 29.5526 37.7712 29.2826C37.6362 29.0125 37.5518 28.7087 37.5518 28.3881C37.5518 28.0674 37.6193 27.7805 37.7712 27.4936C37.9062 27.2404 38.1088 27.021 38.345 26.8691C38.5982 26.7172 38.8851 26.6497 39.172 26.6497C39.459 26.6497 39.7459 26.7341 39.9991 26.8691C40.2522 27.021 40.4547 27.2235 40.5729 27.4936C40.7079 27.7636 40.7923 28.0674 40.7923 28.3881C40.7923 28.7087 40.7079 29.0125 40.5729 29.2826ZM69.2649 25.9408V26.7172H70.8007V30.8691H71.6615V26.7172H73.1974V25.9408H69.2649ZM67.8978 29.2657L65.3493 25.9408H64.6404V30.8691H65.5012V27.5442L68.0497 30.8691H68.7585V25.9408H67.8978V29.2657ZM46.5982 25.9408L45.1636 28.5569L43.6953 25.9408H42.632V30.8691H43.5434V27.4598L45.1467 30.2952L46.7839 27.4092V30.8522H47.6953V25.9239H46.5982V25.9408ZM51.2564 26.1433C50.9358 25.9914 50.5644 25.9239 50.21 25.9408H48.6742V30.8691H49.5349V29.4514H50.21C50.5644 29.4514 50.9358 29.3839 51.2564 29.2488C51.5434 29.1138 51.7796 28.9113 51.9484 28.6412C52.1003 28.3543 52.1847 28.0336 52.1847 27.713C52.1847 27.3923 52.1003 27.0716 51.9484 26.7847C51.7796 26.4978 51.5434 26.2784 51.2564 26.1433ZM51.0201 28.4218C50.8345 28.5906 50.5476 28.675 50.1594 28.675H49.518V26.7172H50.1594C50.5307 26.7172 50.8176 26.8016 51.0201 26.9704C51.2058 27.1391 51.3071 27.3754 51.3071 27.6961C51.3239 27.9999 51.2227 28.2531 51.0201 28.4218ZM45.6024 22.1602L46.1088 23.291H47.0877L44.8092 18.3628H43.8809L41.6193 23.291H42.5813L43.0877 22.1602H45.6024ZM44.3535 19.291L45.2986 21.4345H43.4083L44.3535 19.291ZM53.8387 25.9408H52.978V30.8691H56.2522V30.0927H53.8387V25.9408ZM56.9611 30.8522H57.8218V25.9239H56.9611V30.8522ZM22.3619 36.405C22.3788 37.5864 22.3957 38.4471 22.4126 38.8691C22.4294 38.9197 22.4294 38.9872 22.4126 39.0379C22.4126 39.1054 22.4126 39.156 22.4126 39.156C22.4126 39.3923 22.4463 39.6286 22.5138 39.848C22.5813 39.6286 22.6151 39.3923 22.6151 39.156C22.6151 39.0716 22.6488 37.8396 22.6995 35.8649C22.6826 35.8817 22.6657 35.8986 22.6657 35.9155C22.5476 36.0674 22.4463 36.2362 22.3619 36.405ZM18.8514 11.7636C19.1214 11.4767 19.3746 11.1391 19.5602 10.7847C19.4252 11.0885 18.902 12.2362 19.4083 12.3374C19.9653 12.4387 20.5898 12.2699 21.7206 10.8353C21.6868 8.99567 21.6531 7.39229 21.6362 6.1771H21.0286C20.9948 6.1771 20.978 6.1771 20.9442 6.1771C20.6066 6.1771 20.0497 6.14335 19.6784 5.58639C19.2733 4.97879 19.2564 4.35432 19.2396 3.89862C19.2227 3.24039 19.0539 2.04208 18.2269 1.36698C17.6531 0.91128 16.1003 0.556848 14.6657 1.13069C14.1931 1.31634 13.248 1.8058 12.3197 2.26149C11.4759 2.68343 10.3957 3.20664 10.0581 3.20664C10.6151 2.95347 11.3577 2.58217 12.1678 2.12647C13.0961 1.62014 14.075 1.08006 14.5645 0.877523C15.5434 0.489338 17.4168 0.371196 18.3788 1.14757C19.2902 1.89018 19.4758 3.17288 19.4927 3.86487C19.5096 4.32056 19.5265 4.87753 19.8809 5.43449C20.2016 5.90706 20.7079 5.90706 21.0117 5.90706H21.0792H21.6193C21.6193 5.75516 21.6193 5.62014 21.6193 5.46824C21.0792 5.502 20.3028 5.53575 19.9653 4.81001C19.5602 3.93238 19.9991 1.68765 18.6488 0.742504C17.2986 -0.202644 15.1383 0.0336433 13.2143 1.14757C11.3071 2.24461 8.77544 3.67921 5.65308 4.92816C2.53071 6.1771 0.589779 6.68343 0.218471 6.73407C-0.135959 6.80158 0.505391 7.03786 1.83873 7.07162C3.17206 7.10537 4.28599 7.00411 4.28599 7.00411L14.075 2.54841C14.075 2.54841 5.6362 6.75094 4.92734 7.20664C4.21848 7.66234 3.64464 7.81423 3.69527 8.23618C3.7459 8.65812 4.28599 8.60748 5.77122 8.57373C7.25645 8.53997 7.57711 8.40495 8.08344 8.25305C8.58977 8.10115 14.075 5.56951 14.075 5.56951C14.075 5.56951 8.2016 8.48934 7.35772 9.16445C6.51384 9.83955 7.42521 10.059 7.99905 10.0758C8.58977 10.0927 10.1594 10.0083 11.037 9.56951C11.9147 9.13069 14.6489 7.37542 14.6489 7.37542C14.6489 7.37542 11.9484 9.31634 11.4252 9.75516C11.0033 10.1096 10.7839 10.4134 10.8851 10.7847C11.037 11.2573 11.8472 11.2066 12.9273 10.8185C12.9273 10.8185 14.0413 10.4303 14.4632 10.059C14.8851 9.67077 16.0666 8.62436 16.0666 8.62436C16.0666 8.62436 14.6657 10.0758 14.3113 10.7003C13.9738 11.3248 13.9062 11.4767 14.075 11.8311C14.3113 12.3374 16.1003 11.8142 16.6066 11.2742C16.978 10.8522 17.3324 10.4134 17.6531 9.94082C17.6531 9.94082 17.113 10.8185 16.9948 11.3248C16.8767 11.8311 16.7417 12.2362 17.2311 12.2868C17.7712 12.3712 18.2775 12.3881 18.8514 11.7636ZM22.1931 23.2573C22.2438 23.2235 22.2944 23.1898 22.345 23.156C22.4463 23.0885 22.5307 23.0379 22.5982 22.9704C22.7332 22.886 22.8682 22.7847 23.0033 22.7003C23.0201 21.7383 23.0539 20.7594 23.0708 19.7974C22.8007 19.6792 22.5138 19.5611 22.21 19.4429C22.1931 19.4429 22.1763 19.426 22.1594 19.426C22.1256 19.4092 22.1088 19.4092 22.075 19.3923C21.8725 19.3248 21.6868 19.2404 21.4674 19.1729C21.2142 19.0716 20.9611 18.9872 20.7079 18.886C19.0201 19.7805 18.6826 20.2024 18.6826 21.0294C18.6826 22.194 19.6784 22.7172 21.3999 23.8142C21.6699 23.6117 21.94 23.4261 22.1931 23.2573ZM20.1172 21.1813C20.1172 21.1813 19.9991 20.4387 21.9062 19.5779C21.9569 19.5611 22.0075 19.5273 22.0581 19.5104C22.075 20.675 22.0919 21.8396 22.1256 23.0041C21.1805 22.3628 20.1172 21.7552 20.1172 21.1813ZM23.0033 35.5104C22.9189 35.6117 22.8345 35.713 22.7501 35.7974C23.2396 36.4556 23.2058 37.0969 22.9358 37.9239C23.1889 37.637 23.6953 36.9113 23.2733 35.9661C23.1889 35.8142 23.1045 35.6623 23.0033 35.5104ZM22.2269 28.5906C22.4126 28.7763 22.632 28.9957 22.8514 29.2151C22.9864 29.3501 23.1214 29.4851 23.2733 29.637C23.2902 29.6539 23.3239 29.6708 23.3577 29.7045C24.5054 28.7087 25.5518 27.7636 25.5518 26.5822C25.5518 25.6539 24.6573 24.81 23.7628 24.1349C23.6784 24.1855 23.594 24.2362 23.5096 24.3037C23.3071 24.4387 23.1214 24.5569 22.9526 24.675C22.9526 24.675 22.9358 24.675 22.9358 24.6919C22.902 24.7256 22.8514 24.7425 22.8176 24.7763C22.5813 24.945 22.3619 25.0969 22.1594 25.2488C22.1931 26.3796 22.21 27.5104 22.2269 28.5906ZM22.9526 24.8606C24.0666 25.6708 24.5054 26.194 24.5054 26.7678C24.5054 27.3585 23.8809 28.0505 22.8682 29.0632C22.8851 27.713 22.9189 26.3121 22.9526 24.8606ZM29.113 8.64124C29.113 8.64124 30.2944 9.68765 30.7164 10.0758C31.1383 10.464 32.2522 10.8353 32.2522 10.8353C33.3324 11.2235 34.1425 11.2741 34.2944 10.8016C34.4126 10.4303 34.1763 10.1096 33.7543 9.77204C33.2311 9.33322 30.5307 7.39229 30.5307 7.39229C30.5307 7.39229 33.2649 9.14757 34.1425 9.58639C35.0201 10.0252 36.5898 10.1096 37.1805 10.0927C37.7712 10.0758 38.6657 9.85643 37.8218 9.18132C36.978 8.50622 31.1045 5.58639 31.1045 5.58639C31.1045 5.58639 36.5729 8.13491 37.0961 8.26993C37.6024 8.42183 37.9231 8.53997 39.4083 8.59061C40.8936 8.62436 41.4168 8.67499 41.4843 8.25305C41.5518 7.84799 40.9611 7.69609 40.2522 7.22352C39.5434 6.76782 31.1045 2.56529 31.1045 2.56529L40.8936 7.02099C40.8936 7.02099 42.0075 7.12225 43.3408 7.0885C44.6742 7.05474 45.3155 6.81845 44.9611 6.75094C44.6066 6.68343 42.6488 6.19398 39.5265 4.94504C36.4041 3.69609 33.8725 2.27837 31.9653 1.16445C30.0581 0.0673982 27.8809 -0.185766 26.5307 0.759382C25.1805 1.70453 25.6193 3.93238 25.2142 4.82689C24.8767 5.55263 24.1003 5.51888 23.5602 5.48512C23.5602 5.62014 23.5602 5.77204 23.5434 5.92394H24.1003H24.1678C24.4716 5.92394 24.978 5.92394 25.2986 5.45136C25.6531 4.91128 25.6699 4.33744 25.6868 3.88174C25.7037 3.18976 25.8893 1.90706 26.8007 1.16445C27.7628 0.388074 29.6362 0.506217 30.6151 0.894403C31.1045 1.08006 32.0834 1.62014 33.0117 2.14335C33.8218 2.59904 34.5645 2.97035 35.1214 3.22352C34.767 3.22352 33.7037 2.70031 32.8598 2.27837C31.9484 1.8058 31.0033 1.33322 30.5138 1.14757C29.0792 0.573728 27.5265 0.928156 26.9526 1.38385C26.1088 2.05896 25.9569 3.25727 25.94 3.9155C25.9231 4.3712 25.9062 5.01255 25.5012 5.60326C25.1467 6.16023 24.5898 6.19398 24.2353 6.19398C24.2016 6.19398 24.1847 6.19398 24.151 6.19398H23.5434C23.5096 7.40917 23.4758 8.99567 23.4421 10.8016C24.5898 12.2699 25.248 12.4556 25.7881 12.3374C26.2944 12.2362 25.7881 11.0885 25.6362 10.7847C25.8387 11.1391 26.075 11.4598 26.345 11.7636C26.902 12.3881 27.4252 12.3712 27.9315 12.3037C28.4379 12.2362 28.286 11.848 28.1678 11.3417C28.0497 10.8353 27.5096 9.95769 27.5096 9.95769C27.8303 10.4134 28.1847 10.8691 28.556 11.291C29.0623 11.8311 30.8514 12.3712 31.0877 11.848C31.2396 11.5104 31.1889 11.3417 30.8514 10.7172C30.5307 10.0927 29.113 8.64124 29.113 8.64124ZM22.6151 3.47668C22.8851 3.47668 23.1552 3.39229 23.3746 3.24039C23.594 3.0885 23.7796 2.86909 23.8809 2.6328C23.9822 2.37963 24.0159 2.10959 23.9653 1.83955C23.9147 1.56951 23.7796 1.33322 23.594 1.13069C23.4083 0.945034 23.1552 0.810015 22.8851 0.759382C22.6151 0.708749 22.345 0.725626 22.0919 0.84377C21.8387 0.945036 21.6193 1.13069 21.4843 1.3501C21.3324 1.56951 21.248 1.83955 21.248 2.10959C21.248 2.29525 21.2818 2.46402 21.3493 2.6328C21.4168 2.80158 21.518 2.95347 21.6531 3.07162C21.7881 3.20664 21.9231 3.3079 22.0919 3.37542C22.2438 3.44293 22.4294 3.47668 22.6151 3.47668ZM27.1045 13.7383C27.1045 13.7383 27.0708 12.7931 25.5349 12.6919C23.9653 12.5906 23.8978 13.2657 23.9315 13.5189C24.0497 13.5189 24.151 13.5526 24.151 13.5864C24.151 13.6201 24.0666 13.6539 23.9653 13.6539C24.0497 13.9071 24.286 14.2109 24.9611 14.5484C25.518 14.8185 25.7881 14.8016 26.1088 14.7509C26.1088 14.7509 26.4801 14.9704 26.4801 15.3248C26.4801 15.6623 25.8893 16.3206 23.1214 17.7045C23.2902 10.2446 23.4421 3.69609 23.4421 3.69609H23.6109C23.6784 3.69609 23.7459 3.66234 23.7965 3.6117C23.8472 3.56107 23.8809 3.49356 23.8809 3.42605V3.34166C23.8809 3.3079 23.8809 3.27415 23.864 3.24039C23.8472 3.20664 23.8303 3.17288 23.7965 3.15601C23.6446 3.32478 23.4758 3.4598 23.2733 3.56107C23.0708 3.66234 22.8514 3.69609 22.632 3.69609C22.4126 3.69609 22.1931 3.64546 21.9906 3.56107C21.7881 3.47668 21.6024 3.32478 21.4674 3.15601C21.4336 3.18976 21.4168 3.20664 21.3999 3.24039C21.383 3.27415 21.383 3.3079 21.383 3.34166V3.42605C21.383 3.49356 21.4168 3.56107 21.4674 3.6117C21.518 3.66234 21.5856 3.69609 21.6531 3.69609H21.8218C21.8218 3.69609 21.94 10.059 22.0581 17.3839C22.2944 17.502 22.5307 17.6201 22.8007 17.7552C22.8345 17.772 22.8851 17.7889 22.9189 17.8058C23.5434 18.1096 24.0666 18.3628 24.5054 18.599C25.9906 18.0252 27.4421 17.367 27.8809 16.4387C28.6573 14.7172 27.1045 13.7383 27.1045 13.7383ZM25.0455 13.3501C24.8767 13.3501 24.7417 13.2657 24.7417 13.1644C24.7417 13.0632 24.8767 12.9788 25.0455 12.9788C25.2142 12.9788 25.3493 13.0632 25.3493 13.1644C25.3493 13.2657 25.2142 13.3501 25.0455 13.3501ZM22.3619 34.7172C22.4969 34.5484 22.6151 34.3796 22.7501 34.2277C22.767 33.2657 22.8007 32.1855 22.8176 31.021C22.6488 30.8522 22.4632 30.6834 22.2607 30.4978C22.1931 30.4471 22.1425 30.3796 22.075 30.329C21.9906 30.2446 21.9062 30.1771 21.8218 30.1096C21.3493 30.5484 20.421 31.5273 20.421 32.3712C20.421 33.367 21.383 34.3796 22.1088 35.1054C22.1763 34.9535 22.2607 34.8353 22.3619 34.7172ZM22.2607 30.7003C22.2944 32.1349 22.3113 33.4514 22.3282 34.5822C21.7712 33.8396 21.1805 33.0801 21.1805 32.5569C21.1805 32.0674 21.4674 31.5104 22.2607 30.7003ZM22.6488 17.9746C19.3577 16.3881 18.6826 15.6623 18.6826 15.3079C18.6826 14.9535 19.0539 14.7341 19.0539 14.7341C19.3746 14.8016 19.6446 14.8016 20.2016 14.5315C20.8767 14.2109 21.113 13.8902 21.1974 13.637C21.0961 13.637 21.0117 13.6033 21.0117 13.5695C21.0117 13.5358 21.113 13.502 21.2311 13.502V13.4851C21.248 13.232 21.1636 12.5737 19.6109 12.675C18.075 12.7763 18.0412 13.7214 18.0412 13.7214C18.0412 13.7214 16.4885 14.7172 17.2986 16.405C18.0075 17.9071 21.3324 18.7003 23.2564 19.5611C25.1636 20.4218 25.0455 21.1644 25.0455 21.1644C25.0455 21.8058 23.7628 22.4809 22.7501 23.1898C21.7374 23.8986 19.594 25.1307 19.594 26.5822C19.594 27.9155 20.9273 28.945 22.2269 30.0927C23.5434 31.2404 23.9653 31.9324 23.9653 32.5737C23.9653 33.4514 22.5138 34.6328 21.7712 36.1012C21.0286 37.5695 22.4969 39.848 22.0412 38.6497C21.5687 37.4514 21.8218 36.6075 22.4294 35.7636C23.172 34.7341 24.7585 33.7214 24.7585 32.3543C24.7585 31.2066 23.0877 29.8564 23.0877 29.8564C21.6024 28.3712 20.6573 27.5273 20.6573 26.7847C20.6573 26.0421 21.3661 25.3839 23.3577 24.0843C25.3324 22.8016 26.4969 22.2952 26.4969 21.0463C26.4969 19.9493 25.94 19.5611 22.6488 17.9746ZM20.1172 12.9957C20.286 12.9957 20.421 13.0801 20.421 13.1813C20.421 13.2826 20.286 13.367 20.1172 13.367C19.9484 13.367 19.8134 13.2826 19.8134 13.1813C19.8134 13.0801 19.9484 12.9957 20.1172 12.9957ZM60.7585 25.9408L58.4801 30.8691H59.4421L59.9484 29.7383H62.4801L62.9864 30.8691H63.9653L61.6868 25.9408H60.7585ZM60.2691 29.0125L61.2142 26.8691L62.1594 29.0125H60.2691Z" fill="white"/>
  </g>
  <defs>
    <clipPath id="clip0_5466_11885">
      <rect width="73.2489" height="40" fill="white"/>
    </clipPath>
  </defs>
</svg>