<svg width="20" height="20" viewBox="0 0 20 20" fill="none" xmlns="http://www.w3.org/2000/svg">
<g clip-path="url(#clip0_274_35357)">
<path d="M20 7.81615H0V3.79315C0 3.60272 0.154414 3.4483 0.344843 3.4483H19.6552C19.8456 3.4483 20 3.60272 20 3.79315L20 7.81615Z" fill="#FAB446"/>
<path d="M19.6551 16.5518H0.344843C0.154414 16.5518 0 16.3973 0 16.2069V12.184H20V16.2069C20 16.3974 19.8455 16.5518 19.6551 16.5518Z" fill="#73AF00"/>
<path d="M20 7.81604H0V12.1836H20V7.81604Z" fill="#F5F5F5"/>
<path d="M9.99992 11.8535C8.97789 11.8535 8.14648 11.0221 8.14648 10.0001C8.14648 8.97807 8.97789 8.14667 9.99992 8.14667C11.0219 8.14667 11.8534 8.97807 11.8534 10.0001C11.8534 11.0221 11.0219 11.8535 9.99992 11.8535ZM9.99992 8.49147C9.16797 8.49147 8.49129 9.16815 8.49129 10.0001C8.49129 10.8321 9.16797 11.5087 9.99992 11.5087C10.8319 11.5087 11.5085 10.8321 11.5085 10.0001C11.5085 9.16815 10.8319 8.49147 9.99992 8.49147Z" fill="#41479B"/>
<path d="M9.99918 10.2103C10.1152 10.2103 10.2093 10.1162 10.2093 10.0002C10.2093 9.88411 10.1152 9.79004 9.99918 9.79004C9.88313 9.79004 9.78906 9.88411 9.78906 10.0002C9.78906 10.1162 9.88313 10.2103 9.99918 10.2103Z" fill="#41479B"/>
<path d="M9.99937 10.0317L9.46539 10.0856L8.31836 10.0317V9.96864L9.46539 9.91473L9.99937 9.96864V10.0317Z" fill="#41479B"/>
<path d="M10 10.0317L10.534 10.0856L11.681 10.0317V9.96864L10.534 9.91473L10 9.96864V10.0317Z" fill="#41479B"/>
<path d="M9.96797 10.0002L9.91406 9.46618L9.96797 8.31915H10.031L10.0849 9.46618L10.031 10.0002H9.96797Z" fill="#41479B"/>
<path d="M9.96797 10.0001L9.91406 10.5341L9.96797 11.6811H10.031L10.0849 10.5341L10.031 10.0001H9.96797Z" fill="#41479B"/>
<path d="M9.97773 10.0224L9.56203 9.68297L8.78906 8.83375L8.83363 8.78918L9.68285 9.56215L10.0223 9.97785L9.97773 10.0224Z" fill="#41479B"/>
<path d="M9.97852 10.0224L10.3179 10.4381L11.1671 11.211L11.2117 11.1665L10.4387 10.3173L10.023 9.97784L9.97852 10.0224Z" fill="#41479B"/>
<path d="M9.97852 9.97785L10.3179 9.56215L11.1671 8.78918L11.2117 8.83375L10.4387 9.68297L10.023 10.0224L9.97852 9.97785Z" fill="#41479B"/>
<path d="M9.97773 9.97784L9.56203 10.3173L8.78906 11.1665L8.83363 11.211L9.68285 10.4381L10.0223 10.0224L9.97773 9.97784Z" fill="#41479B"/>
<path d="M10.0127 10.0293L9.54 10.2834L8.45969 10.6726L8.43555 10.6143L9.47465 10.1256L9.98859 9.97101L10.0127 10.0293Z" fill="#41479B"/>
<path d="M10.0124 10.0293L10.5264 9.87469L11.5655 9.38594L11.5413 9.3277L10.461 9.71684L9.98828 9.97098L10.0124 10.0293Z" fill="#41479B"/>
<path d="M9.9714 10.0122L9.71726 9.53945L9.32812 8.45914L9.38637 8.435L9.87512 9.4741L10.0297 9.98804L9.9714 10.0122Z" fill="#41479B"/>
<path d="M9.9707 10.0122L10.1253 10.5262L10.614 11.5653L10.6723 11.5411L10.2831 10.4608L10.029 9.9881L9.9707 10.0122Z" fill="#41479B"/>
<path d="M9.98859 10.0293L9.47465 9.87469L8.43555 9.38594L8.45969 9.3277L9.54 9.71684L10.0127 9.97098L9.98859 10.0293Z" fill="#41479B"/>
<path d="M9.98828 10.0293L10.461 10.2834L11.5413 10.6726L11.5655 10.6143L10.5264 10.1256L10.0124 9.97101L9.98828 10.0293Z" fill="#41479B"/>
<path d="M9.9707 9.98804L10.1253 9.4741L10.614 8.435L10.6723 8.45914L10.2831 9.53945L10.029 10.0122L9.9707 9.98804Z" fill="#41479B"/>
<path d="M9.9714 9.9881L9.71726 10.4608L9.32812 11.5411L9.38637 11.5653L9.87512 10.5262L10.0297 10.0122L9.9714 9.9881Z" fill="#41479B"/>
<path d="M10.0002 10.2835C10.1568 10.2835 10.2837 10.1566 10.2837 10.0001C10.2837 9.84351 10.1568 9.71661 10.0002 9.71661C9.8437 9.71661 9.7168 9.84351 9.7168 10.0001C9.7168 10.1566 9.8437 10.2835 10.0002 10.2835Z" fill="#F5F5F5"/>
<path d="M10 10.17C10.0939 10.17 10.17 10.0939 10.17 10C10.17 9.90617 10.0939 9.83008 10 9.83008C9.90617 9.83008 9.83008 9.90617 9.83008 10C9.83008 10.0939 9.90617 10.17 10 10.17Z" fill="#41479B"/>
</g>
<defs>
<clipPath id="clip0_274_35357">
<rect width="20" height="20" fill="white"/>
</clipPath>
</defs>
</svg>
