<svg xmlns="http://www.w3.org/2000/svg" width="36" height="36" viewBox="0 0 36 36" fill="none">
  <g clip-path="url(#clip0_5054_51218)">
    <mask id="mask0_5054_51218" style="mask-type:luminance" maskUnits="userSpaceOnUse" x="0" y="0" width="36" height="36">
      <path d="M28.1241 0H7.83066C3.53179 0 0.046875 3.49843 0.046875 7.81395V28.186C0.046875 32.5016 3.53179 36 7.83066 36H28.1241C32.423 36 35.9079 32.5016 35.9079 28.186V7.81395C35.9079 3.49843 32.423 0 28.1241 0Z" fill="white"/>
    </mask>
    <g mask="url(#mask0_5054_51218)">
      <path d="M0.046875 7.81395C0.046875 3.49843 3.5318 0 7.83066 0H28.124C32.4229 0 35.9078 3.49843 35.9078 7.81395V16.1249V28.1859C35.9078 32.5014 32.4229 36 28.124 36H7.83066C3.5318 36 0.046875 32.5014 0.046875 28.186V7.81395Z" fill="#00A05E"/>
      <g filter="url(#filter0_d_5054_51218)">
        <path d="M0.046875 26.4375H35.5343" stroke="#00804B" stroke-width="0.747103" stroke-linecap="round"/>
      </g>
      <path d="M3.78372 13.666H3.78372C4.31149 13.666 4.73932 14.0955 4.73932 14.6253V21.7503C4.73932 22.2801 4.31149 22.7096 3.78372 22.7096H3.78372C3.25596 22.7096 2.82812 22.2801 2.82812 21.7503V14.6253C2.82812 14.0955 3.25596 13.666 3.78372 13.666Z" stroke="#19C77F" stroke-width="0.416988"/>
      <path d="M3.03516 14.6251C3.03516 14.2108 3.36965 13.875 3.78226 13.875C4.19488 13.875 4.52936 14.2108 4.52936 14.6251V21.75C4.52936 22.1643 4.19488 22.5 3.78226 22.5C3.36965 22.5 3.03516 22.1643 3.03516 21.75V14.6251Z" fill="black" fill-opacity="0.5"/>
      <mask id="mask1_5054_51218" style="mask-type:luminance" maskUnits="userSpaceOnUse" x="3" y="13" width="2" height="10">
        <path d="M3.03516 14.6251C3.03516 14.2108 3.36965 13.875 3.78226 13.875C4.19488 13.875 4.52936 14.2108 4.52936 14.6251V21.75C4.52936 22.1643 4.19488 22.5 3.78226 22.5C3.36965 22.5 3.03516 22.1643 3.03516 21.75V14.6251Z" fill="white"/>
      </mask>
      <g mask="url(#mask1_5054_51218)">
        <path d="M2.75586 14.6248C2.75586 14.0565 3.21481 13.5957 3.78096 13.5957C4.3471 13.5957 4.80605 14.0565 4.80605 14.6248H4.25007C4.25007 14.3647 4.04004 14.1539 3.78096 14.1539C3.52188 14.1539 3.31184 14.3647 3.31184 14.6248H2.75586ZM4.80605 21.7498C4.80605 22.3181 4.3471 22.7788 3.78096 22.7788C3.21481 22.7788 2.75586 22.3181 2.75586 21.7498H3.31184C3.31184 22.0099 3.52188 22.2207 3.78096 22.2207C4.04004 22.2207 4.25007 22.0099 4.25007 21.7498H4.80605ZM3.78096 22.7788C3.21481 22.7788 2.75586 22.3181 2.75586 21.7498V14.6248C2.75586 14.0565 3.21481 13.5957 3.78096 13.5957V14.1539C3.52188 14.1539 3.31184 14.3647 3.31184 14.6248V21.7498C3.31184 22.0099 3.52188 22.2207 3.78096 22.2207V22.7788ZM3.78096 13.5957C4.3471 13.5957 4.80605 14.0565 4.80605 14.6248V21.7498C4.80605 22.3181 4.3471 22.7788 3.78096 22.7788V22.2207C4.04004 22.2207 4.25007 22.0099 4.25007 21.7498V14.6248C4.25007 14.3647 4.04004 14.1539 3.78096 14.1539V13.5957Z" fill="#1B271D"/>
      </g>
      <path d="M6.80716 13.666H6.80716C7.33492 13.666 7.76276 14.0955 7.76276 14.6253V21.7503C7.76276 22.2801 7.33492 22.7096 6.80716 22.7096H6.80716C6.2794 22.7096 5.85156 22.2801 5.85156 21.7503V14.6253C5.85156 14.0955 6.2794 13.666 6.80716 13.666Z" stroke="#19C77F" stroke-width="0.416988"/>
      <path d="M6.05859 14.6251C6.05859 14.2108 6.39309 13.875 6.8057 13.875C7.21831 13.875 7.5528 14.2108 7.5528 14.6251V21.75C7.5528 22.1643 7.21831 22.5 6.8057 22.5C6.39309 22.5 6.05859 22.1643 6.05859 21.75V14.6251Z" fill="black" fill-opacity="0.5"/>
      <mask id="mask2_5054_51218" style="mask-type:luminance" maskUnits="userSpaceOnUse" x="6" y="13" width="2" height="10">
        <path d="M6.05859 14.6251C6.05859 14.2108 6.39309 13.875 6.8057 13.875C7.21831 13.875 7.5528 14.2108 7.5528 14.6251V21.75C7.5528 22.1643 7.21831 22.5 6.8057 22.5C6.39309 22.5 6.05859 22.1643 6.05859 21.75V14.6251Z" fill="white"/>
      </mask>
      <g mask="url(#mask2_5054_51218)">
        <path d="M5.7793 14.6248C5.7793 14.0565 6.23825 13.5957 6.80439 13.5957C7.37054 13.5957 7.82949 14.0565 7.82949 14.6248H7.27351C7.27351 14.3647 7.06348 14.1539 6.80439 14.1539C6.5453 14.1539 6.33528 14.3647 6.33528 14.6248H5.7793ZM7.82949 21.7498C7.82949 22.3181 7.37054 22.7788 6.80439 22.7788C6.23825 22.7788 5.7793 22.3181 5.7793 21.7498H6.33528C6.33528 22.0099 6.5453 22.2207 6.80439 22.2207C7.06348 22.2207 7.27351 22.0099 7.27351 21.7498H7.82949ZM6.80439 22.7788C6.23825 22.7788 5.7793 22.3181 5.7793 21.7498V14.6248C5.7793 14.0565 6.23825 13.5957 6.80439 13.5957V14.1539C6.5453 14.1539 6.33528 14.3647 6.33528 14.6248V21.7498C6.33528 22.0099 6.5453 22.2207 6.80439 22.2207V22.7788ZM6.80439 13.5957C7.37054 13.5957 7.82949 14.0565 7.82949 14.6248V21.7498C7.82949 22.3181 7.37054 22.7788 6.80439 22.7788V22.2207C7.06348 22.2207 7.27351 22.0099 7.27351 21.7498V14.6248C7.27351 14.3647 7.06348 14.1539 6.80439 14.1539V13.5957Z" fill="#1B271D"/>
      </g>
      <path d="M9.82864 13.666H9.82865C10.3564 13.666 10.7842 14.0955 10.7842 14.6253V21.7503C10.7842 22.2801 10.3564 22.7096 9.82865 22.7096H9.82864C9.30088 22.7096 8.87305 22.2801 8.87305 21.7503V14.6253C8.87305 14.0955 9.30088 13.666 9.82864 13.666Z" stroke="#19C77F" stroke-width="0.416988"/>
      <path d="M9.08203 14.6251C9.08203 14.2108 9.41653 13.875 9.82914 13.875C10.2417 13.875 10.5762 14.2108 10.5762 14.6251V21.75C10.5762 22.1643 10.2417 22.5 9.82914 22.5C9.41653 22.5 9.08203 22.1643 9.08203 21.75V14.6251Z" fill="black" fill-opacity="0.5"/>
      <mask id="mask3_5054_51218" style="mask-type:luminance" maskUnits="userSpaceOnUse" x="9" y="13" width="2" height="10">
        <path d="M9.08203 14.6251C9.08203 14.2108 9.41653 13.875 9.82914 13.875C10.2417 13.875 10.5762 14.2108 10.5762 14.6251V21.75C10.5762 22.1643 10.2417 22.5 9.82914 22.5C9.41653 22.5 9.08203 22.1643 9.08203 21.75V14.6251Z" fill="white"/>
      </mask>
      <g mask="url(#mask3_5054_51218)">
        <path d="M8.80273 14.6248C8.80273 14.0565 9.26169 13.5957 9.82783 13.5957C10.394 13.5957 10.8529 14.0565 10.8529 14.6248H10.2969C10.2969 14.3647 10.0869 14.1539 9.82783 14.1539C9.56874 14.1539 9.35872 14.3647 9.35872 14.6248H8.80273ZM10.8529 21.7498C10.8529 22.3181 10.394 22.7788 9.82783 22.7788C9.26169 22.7788 8.80273 22.3181 8.80273 21.7498H9.35872C9.35872 22.0099 9.56874 22.2207 9.82783 22.2207C10.0869 22.2207 10.2969 22.0099 10.2969 21.7498H10.8529ZM9.82783 22.7788C9.26169 22.7788 8.80273 22.3181 8.80273 21.7498V14.6248C8.80273 14.0565 9.26169 13.5957 9.82783 13.5957V14.1539C9.56874 14.1539 9.35872 14.3647 9.35872 14.6248V21.7498C9.35872 22.0099 9.56874 22.2207 9.82783 22.2207V22.7788ZM9.82783 13.5957C10.394 13.5957 10.8529 14.0565 10.8529 14.6248V21.7498C10.8529 22.3181 10.394 22.7788 9.82783 22.7788V22.2207C10.0869 22.2207 10.2969 22.0099 10.2969 21.7498V14.6248C10.2969 14.3647 10.0869 14.1539 9.82783 14.1539V13.5957Z" fill="#1B271D"/>
      </g>
      <path d="M12.8521 13.666H12.8521C13.3798 13.666 13.8077 14.0955 13.8077 14.6253V21.7503C13.8077 22.2801 13.3798 22.7096 12.8521 22.7096H12.8521C12.3243 22.7096 11.8965 22.2801 11.8965 21.7503V14.6253C11.8965 14.0955 12.3243 13.666 12.8521 13.666Z" stroke="#19C77F" stroke-width="0.416988"/>
      <path d="M12.1055 14.6251C12.1055 14.2108 12.44 13.875 12.8526 13.875C13.2652 13.875 13.5997 14.2108 13.5997 14.6251V21.75C13.5997 22.1643 13.2652 22.5 12.8526 22.5C12.44 22.5 12.1055 22.1643 12.1055 21.75V14.6251Z" fill="black" fill-opacity="0.5"/>
      <mask id="mask4_5054_51218" style="mask-type:luminance" maskUnits="userSpaceOnUse" x="12" y="13" width="2" height="10">
        <path d="M12.1055 14.6251C12.1055 14.2108 12.44 13.875 12.8526 13.875C13.2652 13.875 13.5997 14.2108 13.5997 14.6251V21.75C13.5997 22.1643 13.2652 22.5 12.8526 22.5C12.44 22.5 12.1055 22.1643 12.1055 21.75V14.6251Z" fill="white"/>
      </mask>
      <g mask="url(#mask4_5054_51218)">
        <path d="M11.8262 14.6248C11.8262 14.0565 12.2851 13.5957 12.8513 13.5957C13.4174 13.5957 13.8764 14.0565 13.8764 14.6248H13.3204C13.3204 14.3647 13.1104 14.1539 12.8513 14.1539C12.5922 14.1539 12.3822 14.3647 12.3822 14.6248H11.8262ZM13.8764 21.7498C13.8764 22.3181 13.4174 22.7788 12.8513 22.7788C12.2851 22.7788 11.8262 22.3181 11.8262 21.7498H12.3822C12.3822 22.0099 12.5922 22.2207 12.8513 22.2207C13.1104 22.2207 13.3204 22.0099 13.3204 21.7498H13.8764ZM12.8513 22.7788C12.2851 22.7788 11.8262 22.3181 11.8262 21.7498V14.6248C11.8262 14.0565 12.2851 13.5957 12.8513 13.5957V14.1539C12.5922 14.1539 12.3822 14.3647 12.3822 14.6248V21.7498C12.3822 22.0099 12.5922 22.2207 12.8513 22.2207V22.7788ZM12.8513 13.5957C13.4174 13.5957 13.8764 14.0565 13.8764 14.6248V21.7498C13.8764 22.3181 13.4174 22.7788 12.8513 22.7788V22.2207C13.1104 22.2207 13.3204 22.0099 13.3204 21.7498V14.6248C13.3204 14.3647 13.1104 14.1539 12.8513 14.1539V13.5957Z" fill="#1B271D"/>
      </g>
      <path d="M31.9846 18.1875C31.9846 16.5306 30.6467 15.1875 28.9962 15.1875C27.3458 15.1875 26.0078 16.5306 26.0078 18.1875C26.0078 19.8443 27.3458 21.1875 28.9962 21.1875C30.6467 21.1875 31.9846 19.8443 31.9846 18.1875Z" fill="#303030" stroke="#19C77F" stroke-width="0.373552"/>
      <path d="M27.3164 18.1874C27.3164 17.2554 28.0691 16.5 28.9974 16.5C29.9258 16.5 30.6784 17.2554 30.6784 18.1874C30.6784 19.1193 29.9258 19.8749 28.9974 19.8749C28.0691 19.8749 27.3164 19.1193 27.3164 18.1874Z" fill="#83FF49"/>
      <mask id="mask5_5054_51218" style="mask-type:luminance" maskUnits="userSpaceOnUse" x="27" y="16" width="4" height="4">
        <path d="M27.3164 18.1874C27.3164 17.2554 28.0691 16.5 28.9974 16.5C29.9258 16.5 30.6784 17.2554 30.6784 18.1874C30.6784 19.1193 29.9258 19.8749 28.9974 19.8749C28.0691 19.8749 27.3164 19.1193 27.3164 18.1874Z" fill="white"/>
      </mask>
      <g mask="url(#mask5_5054_51218)">
        <path d="M27.0371 18.1872C27.0371 17.101 27.9142 16.2207 28.9961 16.2207C30.0781 16.2207 30.9551 17.101 30.9551 18.1872H30.3991C30.3991 17.4094 29.771 16.7788 28.9961 16.7788C28.2212 16.7788 27.5931 17.4094 27.5931 18.1872H27.0371ZM30.9551 18.1872C30.9551 19.2733 30.0781 20.1538 28.9961 20.1538C27.9142 20.1538 27.0371 19.2733 27.0371 18.1872H27.5931C27.5931 18.9651 28.2212 19.5956 28.9961 19.5956C29.771 19.5956 30.3991 18.9651 30.3991 18.1872H30.9551ZM28.9961 20.1538C27.9142 20.1538 27.0371 19.2733 27.0371 18.1872C27.0371 17.101 27.9142 16.2207 28.9961 16.2207V16.7788C28.2212 16.7788 27.5931 17.4094 27.5931 18.1872C27.5931 18.9651 28.2212 19.5956 28.9961 19.5956V20.1538ZM28.9961 16.2207C30.0781 16.2207 30.9551 17.101 30.9551 18.1872C30.9551 19.2733 30.0781 20.1538 28.9961 20.1538V19.5956C29.771 19.5956 30.3991 18.9651 30.3991 18.1872C30.3991 17.4094 29.771 16.7788 28.9961 16.7788V16.2207Z" fill="#00A05E"/>
      </g>
      <g filter="url(#filter1_d_5054_51218)">
        <path d="M0.046875 9.76758H35.5343" stroke="#00804B" stroke-width="0.747103" stroke-linecap="round"/>
      </g>
      <path fill-rule="evenodd" clip-rule="evenodd" d="M0.0664062 25.7969V28.2385C0.0664062 32.554 3.55133 36.0524 7.85019 36.0524H28.1437C32.4425 36.0524 35.9274 32.554 35.9274 28.2385V25.7969C35.9274 30.1124 32.4425 33.6108 28.1437 33.6108H7.85019C3.55133 33.6108 0.0664062 30.1124 0.0664062 25.7969Z" fill="black" fill-opacity="0.2"/>
      <path fill-rule="evenodd" clip-rule="evenodd" d="M7.85019 0.0527344C3.55132 0.0527344 0.0664062 3.55116 0.0664062 7.86668V8.07262C0.486791 4.15526 3.7911 1.10521 7.80503 1.10521H28.1436C32.4425 1.10521 35.9274 4.60363 35.9274 8.91917V7.86668C35.9274 3.55116 32.4425 0.0527344 28.1436 0.0527344H7.85019Z" fill="white" fill-opacity="0.3"/>
    </g>
  </g>
  <defs>
    <filter id="filter0_d_5054_51218" x="-0.326172" y="26.0635" width="36.2344" height="1.16504" filterUnits="userSpaceOnUse" color-interpolation-filters="sRGB">
      <feFlood flood-opacity="0" result="BackgroundImageFix"/>
      <feColorMatrix in="SourceAlpha" type="matrix" values="0 0 0 0 0 0 0 0 0 0 0 0 0 0 0 0 0 0 127 0" result="hardAlpha"/>
      <feOffset dy="0.416988"/>
      <feComposite in2="hardAlpha" operator="out"/>
      <feColorMatrix type="matrix" values="0 0 0 0 0.0980392 0 0 0 0 0.780392 0 0 0 0 0.498039 0 0 0 1 0"/>
      <feBlend mode="normal" in2="BackgroundImageFix" result="effect1_dropShadow_5054_51218"/>
      <feBlend mode="normal" in="SourceGraphic" in2="effect1_dropShadow_5054_51218" result="shape"/>
    </filter>
    <filter id="filter1_d_5054_51218" x="-0.326172" y="9.39355" width="36.2344" height="1.16504" filterUnits="userSpaceOnUse" color-interpolation-filters="sRGB">
      <feFlood flood-opacity="0" result="BackgroundImageFix"/>
      <feColorMatrix in="SourceAlpha" type="matrix" values="0 0 0 0 0 0 0 0 0 0 0 0 0 0 0 0 0 0 127 0" result="hardAlpha"/>
      <feOffset dy="0.416988"/>
      <feComposite in2="hardAlpha" operator="out"/>
      <feColorMatrix type="matrix" values="0 0 0 0 0.0980392 0 0 0 0 0.780392 0 0 0 0 0.498039 0 0 0 1 0"/>
      <feBlend mode="normal" in2="BackgroundImageFix" result="effect1_dropShadow_5054_51218"/>
      <feBlend mode="normal" in="SourceGraphic" in2="effect1_dropShadow_5054_51218" result="shape"/>
    </filter>
    <clipPath id="clip0_5054_51218">
      <rect width="36" height="36" fill="white"/>
    </clipPath>
  </defs>
</svg>