<svg width="48" height="48" viewBox="0 0 48 48" fill="none" xmlns="http://www.w3.org/2000/svg">
	<rect width="48" height="48" fill="black" />
	<g id="Pricing" clip-path="url(#clip0_2510_7624)">
		<rect width="1440" height="8677" transform="translate(-576 -5777)" fill="#0B0C0E" />
		<g id="Group 1538" opacity="0.4">
			<g id="Ellipse 206" opacity="0.08" filter="url(#filter0_d_2510_7624)">
				<circle cx="144" cy="-5748" r="478" fill="url(#paint0_linear_2510_7624)" fill-opacity="0.6" shape-rendering="crispEdges" />
			</g>
		</g>
		<g id="Frame 2014" clip-path="url(#clip1_2510_7624)">
			<rect width="1440" height="6957" transform="translate(-576 -4057)" fill="#0B0C0E" />
		</g>
		<g id="Community-edition card">
			<rect x="-15.5" y="-17.5" width="719" height="83" rx="3.5" fill="#121317" />
			<rect x="-15.5" y="-17.5" width="719" height="83" rx="3.5" stroke="#161922" />
			<g id="Frame 2146">
				<g id="Frame 2">
					<rect width="48" height="48" rx="9.6" fill="url(#paint1_radial_2510_7624)" />
					<g id="Vector" filter="url(#filter1_di_2510_7624)">
						<path fill-rule="evenodd" clip-rule="evenodd" d="M5.28003 23.9718L5.28029 23.9705L5.28086 23.9677L5.28221 23.961L5.2858 23.9441C5.28859 23.9312 5.29221 23.915 5.29676 23.8957C5.30587 23.857 5.31872 23.8058 5.33617 23.7427C5.37107 23.6165 5.42439 23.443 5.50307 23.2281C5.6605 22.798 5.91911 22.2033 6.33394 21.4919C7.16512 20.0666 8.61484 18.1881 11.1096 16.2338C13.6168 14.2696 16.0513 13.2132 17.8685 12.6473C18.7771 12.3644 19.5329 12.2036 20.0689 12.113C20.337 12.0678 20.5505 12.04 20.701 12.0233C20.7763 12.0149 20.8359 12.0094 20.8787 12.0057C20.9001 12.0039 20.9174 12.0026 20.9303 12.0017L20.9465 12.0006L20.9521 12.0002L20.9553 12C20.9553 12 20.9561 12 21.019 13.0643C21.0819 14.1286 21.0826 14.1285 21.0826 14.1285L21.0816 14.1286C21.0773 14.1289 21.0688 14.1296 21.0563 14.1306C21.0312 14.1328 20.9898 14.1366 20.9333 14.1428C20.8201 14.1554 20.6462 14.1778 20.4196 14.216C20.0315 14.2816 19.4899 14.3936 18.8348 14.5824C18.8146 14.5892 18.7943 14.5961 18.7738 14.6031C17.4562 15.0539 15.5743 15.935 13.3743 17.6565C11.1797 19.3738 9.94634 20.993 9.26411 22.1652C8.92261 22.7519 8.71811 23.2286 8.60024 23.5519C8.54128 23.7137 8.50396 23.8372 8.48199 23.9171C8.47172 23.9544 8.4648 23.9823 8.46061 24C8.4648 24.0177 8.47172 24.0456 8.48199 24.0829C8.50396 24.1628 8.54128 24.2863 8.60024 24.4481C8.71811 24.7714 8.92261 25.2481 9.26411 25.8348C9.94634 27.007 11.1797 28.6262 13.3743 30.3435C15.5743 32.065 17.4562 32.9461 18.7738 33.3969C18.7943 33.4039 18.8146 33.4108 18.8348 33.4175C19.4899 33.6064 20.0315 33.7184 20.4196 33.784C20.6462 33.8222 20.8201 33.8446 20.9333 33.8572C20.9898 33.8634 21.0312 33.8672 21.0563 33.8694C21.0688 33.8704 21.0773 33.8711 21.0816 33.8714L21.0826 33.8715C21.0826 33.8715 21.0819 33.8714 21.019 34.9357C20.9561 36 20.9553 36 20.9553 36L20.9543 35.9999L20.9521 35.9998L20.9465 35.9994L20.9303 35.9983C20.9174 35.9974 20.9001 35.9961 20.8787 35.9943C20.8359 35.9906 20.7763 35.9851 20.701 35.9767C20.5505 35.96 20.337 35.9322 20.0689 35.887C19.5329 35.7964 18.7771 35.6356 17.8685 35.3527C16.0513 34.7868 13.6168 33.7304 11.1096 31.7662C8.61484 29.8119 7.16512 27.9334 6.33394 26.5081C5.91911 25.7967 5.6605 25.202 5.50307 24.7719C5.42439 24.557 5.37107 24.3835 5.33617 24.2573C5.31872 24.1942 5.30587 24.143 5.29676 24.1043C5.29221 24.085 5.28859 24.0688 5.2858 24.0559L5.28221 24.039L5.28086 24.0323L5.28029 24.0295L5.28003 24.0282V23.9718Z" fill="white" />
						<path fill-rule="evenodd" clip-rule="evenodd" d="M42.72 23.9718L42.7198 23.9705L42.7192 23.9677L42.7178 23.961L42.7143 23.9441C42.7115 23.9312 42.7079 23.915 42.7033 23.8957C42.6942 23.857 42.6813 23.8058 42.6639 23.7427C42.629 23.6165 42.5757 23.443 42.497 23.2281C42.3396 22.798 42.0809 22.2033 41.6661 21.4919C40.8349 20.0666 39.3852 18.1881 36.8905 16.2338C34.3832 14.2696 31.9487 13.2132 30.1316 12.6473C29.2229 12.3644 28.4671 12.2036 27.9312 12.113C27.6631 12.0678 27.4496 12.04 27.2991 12.0233C27.2238 12.0149 27.1642 12.0094 27.1214 12.0057C27.0999 12.0039 27.0827 12.0026 27.0697 12.0017L27.0536 12.0006L27.0479 12.0002L27.0448 12C27.0448 12 27.044 12 26.9811 13.0643C26.9182 14.1286 26.9175 14.1285 26.9175 14.1285L26.9184 14.1286C26.9227 14.1289 26.9312 14.1296 26.9438 14.1306C26.9689 14.1328 27.0102 14.1366 27.0668 14.1428C27.18 14.1554 27.3539 14.1778 27.5805 14.216C27.9686 14.2816 28.5101 14.3936 29.1652 14.5824C29.1854 14.5892 29.2057 14.5961 29.2262 14.6031C30.5439 15.0539 32.4257 15.935 34.6258 17.6565C36.8203 19.3738 38.0537 20.993 38.7359 22.1652C39.0774 22.7519 39.2819 23.2286 39.3998 23.5519C39.4588 23.7137 39.4961 23.8372 39.5181 23.9171C39.5283 23.9544 39.5353 23.9823 39.5395 24C39.5353 24.0177 39.5283 24.0456 39.5181 24.0829C39.4961 24.1628 39.4588 24.2863 39.3998 24.4481C39.2819 24.7714 39.0774 25.2481 38.7359 25.8348C38.0537 27.007 36.8203 28.6262 34.6258 30.3435C32.4257 32.065 30.5439 32.9461 29.2262 33.3969C29.2057 33.4039 29.1854 33.4108 29.1652 33.4175C28.5101 33.6064 27.9686 33.7184 27.5805 33.784C27.3539 33.8222 27.18 33.8446 27.0668 33.8572C27.0102 33.8634 26.9689 33.8672 26.9438 33.8694C26.9312 33.8704 26.9227 33.8711 26.9184 33.8714L26.9175 33.8715C26.9175 33.8715 26.9182 33.8714 26.9811 34.9357C27.044 36 27.0448 36 27.0448 36L27.0457 35.9999L27.0479 35.9998L27.0536 35.9994L27.0697 35.9983C27.0827 35.9974 27.0999 35.9961 27.1214 35.9943C27.1642 35.9906 27.2238 35.9851 27.2991 35.9767C27.4496 35.96 27.6631 35.9322 27.9312 35.887C28.4671 35.7964 29.2229 35.6356 30.1316 35.3527C31.9487 34.7868 34.3832 33.7304 36.8905 31.7662C39.3852 29.8119 40.8349 27.9334 41.6661 26.5081C42.0809 25.7967 42.3396 25.202 42.497 24.7719C42.5757 24.557 42.629 24.3835 42.6639 24.2573C42.6813 24.1942 42.6942 24.143 42.7033 24.1043C42.7079 24.085 42.7115 24.0688 42.7143 24.0559L42.7178 24.039L42.7192 24.0323L42.7198 24.0295L42.72 24.0282V23.9718Z" fill="white" />
						<path fill-rule="evenodd" clip-rule="evenodd" d="M32.8043 23.999C32.8043 28.725 29.0005 32.5562 24.3084 32.5562C19.6162 32.5562 15.8125 28.725 15.8125 23.999C15.8125 19.273 19.6162 15.4419 24.3084 15.4419C29.0005 15.4419 32.8043 19.273 32.8043 23.999ZM22.1844 19.1856C22.1844 19.1856 21.1636 20.3894 20.8569 21.3249C20.6592 21.9281 20.5914 22.9294 20.5914 22.9294H17.9365C17.9365 22.9294 17.9365 22.1271 18.4675 20.7901C18.9985 19.453 19.5295 19.1856 19.5295 19.1856H22.1844ZM20.8569 26.6731C21.1636 27.6087 22.1844 28.8124 22.1844 28.8124H19.5295C19.5295 28.8124 18.9985 28.545 18.4675 27.2079C17.9365 25.8709 17.9365 25.0687 17.9365 25.0687H20.5914C20.5914 25.0687 20.6592 26.0699 20.8569 26.6731Z" fill="white" />
					</g>
				</g>
			</g>
		</g>
	</g>
	<defs>
    <filter id="filter0_d_2510_7624" x="-6275.99" y="-12157.4" width="1200" height="1200" filterUnits="userSpaceOnUse" color-interpolation-filters="sRGB">
			<feFlood flood-opacity="0" result="BackgroundImageFix" />
			<feColorMatrix in="SourceAlpha" type="matrix" values="0 0 0 0 0 0 0 0 0 0 0 0 0 0 0 0 0 0 127 0" result="hardAlpha" />
			<feMorphology radius="5281.77" operator="dilate" in="SourceAlpha" result="effect1_dropShadow_2510_7624" />
			<feOffset dy="10.5635" />
			<feGaussianBlur stdDeviation="330.11" />
			<feComposite in2="hardAlpha" operator="out" />
			<feColorMatrix type="matrix" values="0 0 0 0 0 0 0 0 0 0 0 0 0 0 0 0 0 0 0.25 0" />
			<feBlend mode="normal" in2="BackgroundImageFix" result="effect1_dropShadow_2510_7624" />
			<feBlend mode="normal" in="SourceGraphic" in2="effect1_dropShadow_2510_7624" result="shape" />
		</filter>
		<filter id="filter1_di_2510_7624" x="2.40003" y="11.04" width="43.1999" height="29.76" filterUnits="userSpaceOnUse" color-interpolation-filters="sRGB">
			<feFlood flood-opacity="0" result="BackgroundImageFix" />
			<feColorMatrix in="SourceAlpha" type="matrix" values="0 0 0 0 0 0 0 0 0 0 0 0 0 0 0 0 0 0 127 0" result="hardAlpha" />
			<feOffset dy="1.92" />
			<feGaussianBlur stdDeviation="1.44" />
			<feComposite in2="hardAlpha" operator="out" />
			<feColorMatrix type="matrix" values="0 0 0 0 0.368384 0 0 0 0 0.0623777 0 0 0 0 0.0623777 0 0 0 0.25 0" />
			<feBlend mode="normal" in2="BackgroundImageFix" result="effect1_dropShadow_2510_7624" />
			<feBlend mode="normal" in="SourceGraphic" in2="effect1_dropShadow_2510_7624" result="shape" />
			<feColorMatrix in="SourceAlpha" type="matrix" values="0 0 0 0 0 0 0 0 0 0 0 0 0 0 0 0 0 0 127 0" result="hardAlpha" />
			<feOffset dy="1.92" />
			<feGaussianBlur stdDeviation="1.44" />
			<feComposite in2="hardAlpha" operator="arithmetic" k2="-1" k3="1" />
			<feColorMatrix type="matrix" values="0 0 0 0 0 0 0 0 0 0 0 0 0 0 0 0 0 0 0.06 0" />
			<feBlend mode="normal" in2="shape" result="effect2_innerShadow_2510_7624" />
		</filter>
		<radialGradient id="paint1_radial_2510_7624" cx="0" cy="0" r="1" gradientUnits="userSpaceOnUse" gradientTransform="translate(24 24) rotate(45.6903) scale(28.1732)">
			<stop offset="0.329632" stop-color="#FF5E19" />
			<stop offset="1" stop-color="#FF2929" />
		</radialGradient>
	</defs>
</svg>
