<svg width="48" height="47" viewBox="0 0 48 47" fill="none" xmlns="http://www.w3.org/2000/svg">
<g clip-path="url(#clip0_4751_3641)">
<path d="M23.9097 0.706389C27.0079 0.706389 30.0212 1.29494 32.8549 2.46284C35.5942 3.59397 38.0502 5.20328 40.1566 7.25403C42.263 9.30475 43.9254 11.7049 45.0779 14.3626C46.2775 17.1215 46.8819 20.0459 46.8819 23.0713C46.8819 25.4255 46.5136 27.7245 45.7768 29.9407L41.1106 27.5773C41.5168 26.1152 41.7151 24.5978 41.7151 23.0713C41.7151 20.7263 41.2429 18.4548 40.317 16.3213C39.4198 14.2615 38.1352 12.4038 36.501 10.8129C34.8669 9.22197 32.9588 7.97132 30.843 7.09768C28.6515 6.19647 26.3183 5.73666 23.9097 5.73666C21.5009 5.73666 19.1678 6.19647 16.9763 7.09768C14.8605 7.97132 12.9524 9.22197 11.3182 10.8129C9.68412 12.4038 8.3995 14.2615 7.50213 16.3213C6.57644 18.4548 6.10415 20.7263 6.10415 23.0713C6.10415 24.6071 6.31192 26.1243 6.70866 27.5866L2.04241 29.9501C1.30563 27.7338 0.937238 25.4255 0.937238 23.0713C0.937238 20.055 1.54178 17.1215 2.7414 14.3626C3.90325 11.6957 5.55628 9.30475 7.66267 7.25403C9.76914 5.20328 12.2345 3.58477 14.9644 2.46284C17.7982 1.29494 20.8114 0.706389 23.9097 0.706389ZM23.9097 0.0810547C10.8648 0.0810547 0.294922 10.3715 0.294922 23.0713C0.294922 25.7933 0.786106 28.4051 1.67402 30.8327L7.46433 27.9085C6.98261 26.3544 6.73704 24.7358 6.73704 23.0806C6.73704 20.8182 7.19043 18.6297 8.0878 16.5789C8.95677 14.5925 10.1942 12.7993 11.7717 11.2635C13.3491 9.72779 15.1911 8.52308 17.2314 7.67703C19.3473 6.80339 21.5953 6.36199 23.9097 6.36199C26.2239 6.36199 28.4814 6.80339 30.5878 7.67703C32.6282 8.52308 34.4701 9.72779 36.0477 11.2635C37.6249 12.7993 38.8623 14.5925 39.7314 16.5789C40.6288 18.6388 41.0822 20.8274 41.0822 23.0806C41.0822 24.7358 40.8367 26.3544 40.3548 27.9085L46.1452 30.8327C47.0426 28.4051 47.5243 25.7933 47.5243 23.0713C47.5243 10.3715 36.9544 0.0810547 23.9097 0.0810547Z" fill="white"/>
<path d="M23.9104 46.0608C34.1592 46.0608 42.8778 39.7063 46.1459 30.8228L40.3558 27.8984C40.1763 28.4686 39.9778 29.0297 39.7322 29.5722C38.8632 31.5586 37.6258 33.3518 36.0483 34.8876C34.471 36.4232 32.6289 37.6279 30.5887 38.4739C28.4727 39.3476 26.2246 39.7891 23.9104 39.7891C21.5961 39.7891 19.3386 39.3476 17.2321 38.4739C15.1918 37.6279 13.3499 36.4232 11.7724 34.8876C10.195 33.3518 8.95755 31.5586 8.08856 29.5722C7.85242 29.0204 7.64459 28.4686 7.4651 27.8984L1.6748 30.8228C4.94308 39.7063 13.6616 46.0608 23.9104 46.0608Z" fill="#414141"/>
<path d="M12.5649 20.4219H11.8848L14.5297 14.4629H15.1343L17.7601 20.4219H17.0706L16.3999 18.8587H13.2356L12.5649 20.4219ZM13.4623 18.2975H16.1638L14.813 15.1342L13.4623 18.2975Z" fill="white"/>
<path d="M18.5264 20.4219V14.4629H19.1497V20.4219H18.5264Z" fill="white"/>
<path d="M25.7609 19.4569C25.657 19.6043 25.5342 19.7513 25.3831 19.8892C25.2318 20.0271 25.0619 20.1467 24.8731 20.2478C24.6839 20.349 24.4668 20.4318 24.2306 20.4962C23.9944 20.5513 23.7395 20.5882 23.4655 20.5882C23.0028 20.5882 22.5775 20.5054 22.1904 20.349C21.7936 20.1927 21.463 19.972 21.1796 19.6961C20.8962 19.4201 20.6791 19.0892 20.5183 18.7029C20.3579 18.326 20.2822 17.9028 20.2822 17.4523C20.2822 17.0016 20.3672 16.5786 20.5278 16.2016C20.6885 15.8245 20.9152 15.4935 21.1985 15.2084C21.4819 14.9326 21.822 14.7118 22.2091 14.5555C22.5966 14.3992 23.0215 14.3164 23.475 14.3164C23.7017 14.3164 23.919 14.3348 24.1361 14.3807C24.3535 14.4267 24.5517 14.4911 24.7502 14.5739C24.9391 14.6567 25.1092 14.7578 25.2696 14.8681C25.4209 14.9877 25.553 15.1164 25.657 15.2636L25.1373 15.6314C25.0713 15.5395 24.9863 15.4383 24.8825 15.3464C24.7784 15.2544 24.6464 15.1624 24.5045 15.0981C24.3629 15.0245 24.2023 14.9693 24.0322 14.9233C23.8622 14.8774 23.6827 14.8589 23.4844 14.8589C23.0876 14.8589 22.7288 14.9326 22.417 15.0705C22.1054 15.2085 21.8408 15.4015 21.6141 15.6406C21.3967 15.8797 21.2269 16.1556 21.1135 16.4683C21.0002 16.7809 20.9434 17.1119 20.9434 17.4615C20.9434 17.8109 21.0002 18.142 21.1229 18.4547C21.2457 18.7674 21.4063 19.0432 21.6331 19.2822C21.8503 19.5215 22.1147 19.7053 22.4359 19.8525C22.7477 19.9903 23.1066 20.0639 23.4938 20.0639C23.8434 20.0639 24.1833 19.9903 24.4951 19.8525C24.8162 19.7145 25.0807 19.4846 25.2886 19.1811L25.7609 19.4569Z" fill="white"/>
<path d="M26.6016 14.4629H28.3302C28.6417 14.4629 28.9252 14.4996 29.1802 14.5641C29.4353 14.6284 29.6526 14.7296 29.8321 14.8583C30.0115 14.9871 30.1532 15.1526 30.2477 15.355C30.3421 15.5572 30.3987 15.787 30.3987 16.0538C30.3987 16.3205 30.3515 16.5596 30.2477 16.7527C30.1436 16.955 30.0019 17.1205 29.8225 17.2493C29.643 17.3781 29.4259 17.4792 29.1613 17.5528C28.9062 17.6171 28.6229 17.6539 28.3112 17.6539H27.2249V20.4219H26.6016V14.4629ZM28.2829 17.139C28.7739 17.139 29.1424 17.047 29.3975 16.8631C29.6526 16.6791 29.7753 16.4124 29.7753 16.0538C29.7753 15.686 29.643 15.4101 29.3786 15.2446C29.1141 15.0698 28.7458 14.9871 28.2733 14.9871H27.2154V17.139H28.2829Z" fill="white"/>
<path d="M30.7396 20.4219H30.0596L32.7044 14.4629H33.3088L35.9349 20.4219H35.2453L34.5747 18.8587H31.4103L30.7396 20.4219ZM31.6371 18.2975H34.3385L32.9877 15.1342L31.6371 18.2975Z" fill="white"/>
<path d="M15.0585 27.2644C14.9357 27.108 14.7657 26.9794 14.5579 26.8872C14.3501 26.7952 14.1518 26.7493 13.9628 26.7493C13.8684 26.7493 13.7645 26.7586 13.6606 26.777C13.5567 26.7952 13.4716 26.8229 13.3866 26.8781C13.3016 26.924 13.2355 26.9885 13.1788 27.062C13.1222 27.1356 13.0938 27.2368 13.0938 27.3563C13.0938 27.4574 13.1127 27.5402 13.1599 27.6047C13.2072 27.6689 13.2639 27.7335 13.3489 27.7794C13.4339 27.8254 13.5283 27.8805 13.6512 27.9173C13.7645 27.9633 13.8967 28.0001 14.0384 28.0461C14.2462 28.1105 14.4635 28.184 14.6902 28.2668C14.9169 28.3494 15.1153 28.4598 15.3041 28.5886C15.4931 28.7266 15.6442 28.8921 15.767 29.0852C15.8897 29.2874 15.9465 29.5358 15.9465 29.8301C15.9465 30.1703 15.8803 30.4646 15.7481 30.7221C15.6159 30.9703 15.4458 31.1819 15.2286 31.3383C15.0113 31.5037 14.7563 31.6233 14.4729 31.6969C14.1896 31.7797 13.8967 31.8163 13.6039 31.8163C13.1694 31.8163 12.7443 31.7429 12.3287 31.5956C11.9225 31.4486 11.5825 31.237 11.3086 30.9612L12.2815 30.0049C12.4326 30.1888 12.631 30.3358 12.8765 30.4554C13.1222 30.5749 13.3678 30.6394 13.6039 30.6394C13.7173 30.6394 13.8211 30.6302 13.9251 30.6025C14.029 30.5842 14.1234 30.5474 14.199 30.4923C14.2745 30.4463 14.3407 30.3726 14.3879 30.2898C14.4351 30.207 14.4541 30.106 14.4541 29.9863C14.4541 29.8761 14.4257 29.7748 14.369 29.7014C14.3124 29.6186 14.2273 29.5541 14.1234 29.4898C14.0195 29.4256 13.8873 29.3702 13.7267 29.3151C13.5661 29.26 13.3866 29.2048 13.1883 29.1403C12.9899 29.076 12.801 29.0024 12.6121 28.9196C12.4232 28.8368 12.2532 28.7266 12.1115 28.5978C11.9603 28.4691 11.847 28.3035 11.7525 28.1195C11.6675 27.9357 11.6202 27.7058 11.6202 27.43C11.6202 27.0988 11.6864 26.8138 11.8281 26.584C11.9698 26.3447 12.1492 26.1517 12.3759 26.0046C12.6027 25.8573 12.8577 25.7379 13.141 25.6733C13.4244 25.5998 13.7078 25.5723 14.0007 25.5723C14.3501 25.5723 14.6996 25.6366 15.0585 25.7561C15.4176 25.8759 15.7386 26.0597 16.0032 26.3079L15.0585 27.2644Z" fill="white"/>
<path d="M23.1164 28.6718C23.1164 29.1406 23.0314 29.5729 22.8614 29.9683C22.6914 30.3546 22.4647 30.6948 22.1624 30.9706C21.8697 31.2467 21.5107 31.4673 21.1045 31.6144C20.6983 31.7615 20.2542 31.8443 19.7726 31.8443C19.2908 31.8443 18.8564 31.7706 18.4406 31.6144C18.0345 31.4673 17.685 31.2467 17.3827 30.9706C17.0899 30.6948 16.8538 30.3546 16.6838 29.9683C16.5137 29.582 16.4287 29.1497 16.4287 28.6718C16.4287 28.1934 16.5137 27.7612 16.6838 27.3751C16.8538 26.9888 17.0805 26.6669 17.3827 26.3909C17.6756 26.1242 18.0345 25.9129 18.4406 25.7656C18.8468 25.6185 19.2908 25.5449 19.7726 25.5449C20.2542 25.5449 20.6983 25.6185 21.1045 25.7656C21.5107 25.9129 21.8697 26.1151 22.1624 26.3909C22.4551 26.6576 22.6914 26.9888 22.8614 27.3751C23.0314 27.7612 23.1164 28.1934 23.1164 28.6718ZM21.5294 28.6718C21.5294 28.4142 21.4823 28.1751 21.3973 27.9451C21.3122 27.7243 21.1895 27.5313 21.0383 27.3657C20.8872 27.2095 20.6983 27.0807 20.481 26.9888C20.2637 26.8968 20.0276 26.8509 19.763 26.8509C19.4987 26.8509 19.2721 26.8968 19.0548 26.9888C18.8375 27.0807 18.6579 27.2095 18.4974 27.3657C18.3462 27.5222 18.2234 27.7153 18.1384 27.9451C18.0534 28.1658 18.0157 28.4142 18.0157 28.6718C18.0157 28.9383 18.0628 29.1866 18.1478 29.4165C18.233 29.6465 18.3557 29.8395 18.5068 30.0051C18.6579 30.1705 18.8468 30.2992 19.0548 30.3913C19.2721 30.4832 19.5081 30.5294 19.763 30.5294C20.0182 30.5294 20.2543 30.4832 20.4716 30.3913C20.6889 30.2992 20.8683 30.1705 21.0289 30.0051C21.18 29.8395 21.3028 29.6465 21.3878 29.4165C21.4823 29.1866 21.5294 28.9383 21.5294 28.6718Z" fill="white"/>
<path d="M28.3214 31.5679C27.9245 31.7427 27.4618 31.8346 26.9423 31.8346C26.4698 31.8346 26.0354 31.7609 25.6293 31.6048C25.2325 31.4574 24.8832 31.2367 24.5902 30.9609C24.2974 30.6851 24.0612 30.3541 23.9006 29.9678C23.7306 29.5815 23.6455 29.1586 23.6455 28.6895C23.6455 28.2112 23.7306 27.7792 23.9006 27.3929C24.0708 27.0065 24.3068 26.6755 24.609 26.3997C24.9113 26.1237 25.2609 25.9216 25.667 25.7744C26.0733 25.6272 26.5077 25.5537 26.9705 25.5537C27.4051 25.5537 27.8301 25.6272 28.2458 25.7744C28.6613 25.9216 29.0015 26.1422 29.266 26.4272L28.2551 27.402C28.1135 27.2181 27.9339 27.0802 27.7072 26.9883C27.4805 26.8963 27.2538 26.8503 27.0177 26.8503C26.7627 26.8503 26.5171 26.8963 26.3 26.9883C26.0826 27.0802 25.8938 27.209 25.7426 27.3746C25.5914 27.54 25.4686 27.7332 25.3836 27.9539C25.2987 28.1746 25.2515 28.4228 25.2515 28.6804C25.2515 28.947 25.2987 29.1954 25.3836 29.4253C25.4686 29.646 25.5914 29.839 25.7426 30.0046C25.8938 30.1608 26.0826 30.2896 26.2904 30.3815C26.5077 30.4735 26.7344 30.5195 26.9895 30.5195C27.2822 30.5195 27.5374 30.4643 27.7545 30.3541C27.9718 30.2436 28.1513 30.0965 28.2835 29.9127L29.3132 30.8598C29.0487 31.1542 28.7182 31.3932 28.3214 31.5679Z" fill="white"/>
<path d="M32.0717 30.4925L34.4616 28.3957C34.6127 28.2578 34.7355 28.1107 34.8206 27.9637C34.915 27.8163 34.9623 27.6601 34.9623 27.4763C34.9623 27.2647 34.896 27.09 34.7544 26.9612C34.6127 26.8324 34.4331 26.7681 34.1971 26.7681C33.9513 26.7681 33.753 26.8509 33.602 27.0163C33.4507 27.1819 33.3563 27.4025 33.328 27.6693L31.9395 27.4853C31.9772 27.1819 32.0623 26.9151 32.1945 26.6762C32.3268 26.437 32.4969 26.2347 32.7046 26.0691C32.9125 25.9035 33.1486 25.7749 33.4225 25.6922C33.687 25.6002 33.9703 25.5635 34.2727 25.5635C34.556 25.5635 34.83 25.6002 35.0945 25.6737C35.3588 25.7474 35.5949 25.8577 35.8028 26.014C36.0107 26.1611 36.1806 26.3544 36.3035 26.5842C36.4263 26.8141 36.4923 27.0807 36.4923 27.3935C36.4923 27.605 36.4642 27.7981 36.4073 27.9728C36.3507 28.1474 36.2656 28.3038 36.1712 28.451C36.0674 28.5981 35.9539 28.736 35.8216 28.8556C35.6895 28.9844 35.5574 29.1038 35.4157 29.2325L33.9986 30.4649H36.5018V31.6972H32.0717V30.4925Z" fill="white"/>
<path d="M35.934 22.9336H11.8848V23.1909H35.934V22.9336Z" fill="white"/>
<path d="M5.01852 22.3541L4.99962 22.584L2.94043 21.5264L2.95932 21.324L5.16964 20.5977L5.15076 20.8366L4.57456 21.0207L4.48954 22.0965L5.01852 22.3541ZM4.28174 21.9953L4.3573 21.0758L3.18602 21.4437L4.28174 21.9953Z" fill="white"/>
<path d="M5.25457 20.1369L5.21678 20.3482L3.11035 20.0356L3.14813 19.8242L5.25457 20.1369Z" fill="white"/>
<path d="M5.39562 17.8664C5.44284 17.9124 5.48062 17.9676 5.51841 18.0228C5.5562 18.0778 5.58453 18.1515 5.60342 18.2158C5.62232 18.2894 5.63178 18.3631 5.64122 18.4459C5.64122 18.5285 5.63178 18.6113 5.61286 18.7032C5.57509 18.8596 5.51841 18.9884 5.4334 19.108C5.34839 19.2274 5.24449 19.3194 5.12169 19.3929C4.99889 19.4666 4.86665 19.5127 4.72496 19.5309C4.58327 19.5492 4.4227 19.5492 4.27157 19.5127C4.12042 19.4757 3.96929 19.4206 3.85593 19.3285C3.73315 19.2459 3.63869 19.1446 3.56311 19.0252C3.48755 18.9056 3.44031 18.7768 3.41198 18.639C3.38365 18.501 3.39309 18.3539 3.43087 18.1975C3.44978 18.1239 3.47811 18.0504 3.50645 17.9859C3.54422 17.9216 3.582 17.8572 3.6198 17.802C3.66703 17.7469 3.71424 17.6917 3.76148 17.655C3.81815 17.6089 3.87484 17.5814 3.93151 17.5537L4.01653 17.756C3.97873 17.7653 3.94095 17.7929 3.89373 17.8205C3.85593 17.848 3.80871 17.8848 3.77094 17.9216C3.73315 17.9676 3.7048 18.0136 3.66702 18.0596C3.63869 18.1147 3.6198 18.1699 3.60092 18.2343C3.57256 18.3631 3.56311 18.4918 3.59146 18.6021C3.6198 18.7217 3.65757 18.8228 3.72371 18.9148C3.78982 19.0067 3.87484 19.0803 3.96929 19.1446C4.0732 19.2091 4.1771 19.2551 4.2999 19.2825C4.4227 19.3101 4.5455 19.3194 4.65884 19.3011C4.78163 19.2825 4.88554 19.2551 4.98945 19.1999C5.09336 19.1446 5.17836 19.0712 5.25393 18.9792C5.3295 18.8873 5.37673 18.7768 5.41451 18.648C5.44284 18.5285 5.44284 18.4182 5.42395 18.2986C5.39562 18.1792 5.33893 18.0778 5.25393 17.9859L5.39562 17.8664Z" fill="white"/>
<path d="M3.79883 17.03L3.99719 16.469C4.03497 16.3679 4.07276 16.2851 4.12943 16.2024C4.17665 16.1287 4.23334 16.0644 4.29945 16.0277C4.36558 15.9816 4.44113 15.9541 4.51671 15.9449C4.59227 15.9356 4.67729 15.9449 4.77175 15.9725C4.8662 16.0001 4.94177 16.046 4.99844 16.1011C5.05513 16.1564 5.09291 16.2208 5.12124 16.2943C5.14959 16.3679 5.15904 16.4507 5.14959 16.5426C5.14012 16.6346 5.12124 16.7265 5.08347 16.8277L4.96066 17.1772L5.90525 17.4898L5.83914 17.6921L3.79883 17.03ZM4.7812 17.1312L4.904 16.7909C4.96066 16.6346 4.9701 16.5058 4.93233 16.3955C4.89455 16.2943 4.81898 16.2208 4.69618 16.1839C4.57338 16.138 4.46003 16.1564 4.37502 16.2208C4.29001 16.2851 4.21445 16.3955 4.16721 16.5518L4.0444 16.8921L4.7812 17.1312Z" fill="white"/>
<path d="M6.29368 16.3766L6.19921 16.5881L4.6123 14.9237L4.6973 14.7305L7.03044 14.7488L6.93598 14.9604L6.322 14.9512L5.87805 15.9352L6.29368 16.3766ZM5.72691 15.7973L6.10475 14.9604L4.87677 14.9328L5.72691 15.7973Z" fill="white"/>
<path d="M6.53849 12.1281C6.46293 12.1373 6.38737 12.1557 6.31176 12.1925C6.23621 12.2292 6.17955 12.2936 6.12284 12.3764C6.09451 12.4224 6.07567 12.4684 6.05677 12.5236C6.03787 12.5787 6.03787 12.6339 6.03787 12.6798C6.04728 12.735 6.05677 12.781 6.08509 12.8362C6.11342 12.8822 6.16064 12.9282 6.21736 12.9649C6.27401 13.0017 6.33067 13.0201 6.37789 13.0201C6.42512 13.0201 6.48183 13.011 6.52906 12.9925C6.57629 12.9741 6.62352 12.9465 6.67076 12.9098C6.71792 12.873 6.76521 12.8362 6.81244 12.7994C6.86909 12.7534 6.93523 12.6983 7.00136 12.6522C7.06743 12.6063 7.13357 12.5695 7.1997 12.5419C7.26584 12.5143 7.34139 12.5051 7.42642 12.5051C7.50198 12.5051 7.58695 12.5419 7.68141 12.597C7.77588 12.6522 7.84201 12.7166 7.88924 12.7902C7.93647 12.8638 7.9648 12.9374 7.9648 13.0201C7.97428 13.1029 7.9648 13.1765 7.94589 13.2593C7.92704 13.342 7.88924 13.4155 7.84201 13.4891C7.8042 13.5443 7.76646 13.5903 7.71922 13.6362C7.672 13.6822 7.62476 13.7282 7.56811 13.7559C7.5114 13.7926 7.45475 13.8201 7.39804 13.8386C7.34139 13.857 7.27525 13.8754 7.20912 13.8754L7.19028 13.6455C7.27525 13.6455 7.36972 13.6271 7.45475 13.581C7.53973 13.5351 7.61534 13.4707 7.672 13.3788C7.70032 13.3327 7.71922 13.2868 7.73813 13.2317C7.75698 13.1765 7.75698 13.1213 7.74755 13.0662C7.73813 13.011 7.72865 12.9558 7.6909 12.9098C7.66252 12.8638 7.61534 12.8178 7.55863 12.781C7.4925 12.7443 7.43585 12.7258 7.37913 12.7258C7.32248 12.7258 7.26584 12.735 7.20912 12.7626C7.15247 12.7902 7.10524 12.8178 7.04859 12.8546C7.00136 12.8914 6.94465 12.9374 6.88799 12.9834C6.83129 13.0293 6.77463 13.0753 6.71792 13.1213C6.66127 13.1672 6.59519 13.1948 6.52906 13.2132C6.46292 13.2317 6.38737 13.2408 6.32124 13.2408C6.24569 13.2317 6.17007 13.2041 6.08509 13.158C6.00006 13.1029 5.93398 13.0385 5.88671 12.9741C5.84894 12.9006 5.82061 12.827 5.81116 12.7443C5.80172 12.6615 5.81116 12.5879 5.8395 12.5051C5.85838 12.4315 5.89616 12.358 5.93398 12.2936C6.00954 12.1741 6.09452 12.0822 6.19845 12.027C6.29291 11.9718 6.38737 11.9349 6.47235 11.9258L6.53849 12.1281Z" fill="white"/>
<path d="M8.55103 11.1337C8.56045 11.1428 8.56994 11.152 8.58883 11.1612C8.59826 11.1704 8.61716 11.1796 8.62658 11.1979L7.92762 12.1176C7.98427 12.1544 8.05041 12.1819 8.11654 12.2004C8.18261 12.2187 8.24875 12.2187 8.31488 12.2095C8.38101 12.2004 8.43767 12.1819 8.5038 12.1452C8.56045 12.1084 8.61716 12.0716 8.65497 12.0073C8.72104 11.9245 8.74937 11.8417 8.75885 11.7497C8.76828 11.6578 8.75885 11.5842 8.73052 11.5106L8.91938 11.4647C8.95719 11.5934 8.95719 11.713 8.93834 11.8141C8.91938 11.9153 8.87222 12.0164 8.79666 12.1084C8.73052 12.1911 8.66439 12.2555 8.57935 12.3014C8.49437 12.3475 8.40934 12.3842 8.31488 12.3935C8.22042 12.4027 8.12596 12.4027 8.0315 12.3751C7.93705 12.3475 7.84259 12.3107 7.75761 12.2463C7.67257 12.1819 7.60644 12.1084 7.54979 12.0349C7.50255 11.9521 7.46474 11.8693 7.44584 11.7773C7.42694 11.6854 7.43642 11.6026 7.45532 11.5106C7.47422 11.4187 7.5214 11.3359 7.57811 11.2623C7.64425 11.1796 7.7198 11.106 7.79535 11.0692C7.88039 11.0233 7.95595 10.9957 8.04093 10.9957C8.12596 10.9864 8.211 10.9957 8.29598 11.0233C8.39043 11.0416 8.46599 11.0784 8.55103 11.1337ZM8.37153 11.2623C8.25823 11.1888 8.14487 11.1612 8.0315 11.1704C7.91814 11.1796 7.81426 11.244 7.7198 11.3635C7.68199 11.4187 7.65366 11.4738 7.63477 11.5382C7.61592 11.6026 7.61592 11.6578 7.62534 11.7221C7.63476 11.7865 7.65366 11.8417 7.68199 11.8876C7.71038 11.9428 7.74812 11.9889 7.79535 12.0256L8.37153 11.2623Z" fill="white"/>
<path d="M8.42909 10.5276C8.38185 10.4908 8.33463 10.454 8.29688 10.4264L8.41966 10.2884C8.44799 10.3068 8.48579 10.3345 8.52355 10.3621C8.56135 10.3896 8.58967 10.4172 8.60858 10.4357C8.57077 10.3529 8.56136 10.2701 8.57077 10.1781C8.58025 10.0862 8.62748 10.0034 8.69356 9.92983C8.71246 9.91146 8.73137 9.893 8.74079 9.87472C8.75969 9.85626 8.76918 9.84703 8.78802 9.83789L8.92028 9.98503C8.91086 9.99426 8.89195 10.0034 8.87306 10.0218C8.85415 10.0402 8.83531 10.0586 8.81635 10.077C8.77859 10.1138 8.75027 10.1598 8.74079 10.2149C8.72194 10.2608 8.72194 10.3161 8.73137 10.3712C8.74079 10.4264 8.75969 10.4816 8.7975 10.546C8.83531 10.6104 8.89196 10.6655 8.95803 10.73L9.50592 11.1897L9.37364 11.346L8.53303 10.6472C8.51412 10.592 8.47631 10.5644 8.42909 10.5276Z" fill="white"/>
<path d="M8.81525 9.06507C8.84364 9.09265 8.86249 9.12945 8.86249 9.16626C8.86249 9.20301 8.85306 9.23985 8.82473 9.26736C8.7964 9.29496 8.76808 9.30419 8.73027 9.31342C8.69247 9.31342 8.65472 9.30419 8.62634 9.27659C8.59801 9.24899 8.5791 9.21224 8.5791 9.17543C8.5791 9.13863 8.58859 9.10188 8.61691 9.0743C8.64524 9.04666 8.67363 9.0375 8.71137 9.02832C8.74918 9.02832 8.78692 9.0375 8.81525 9.06507ZM10.2132 10.3985L10.0715 10.5456L9.04198 9.59847L9.18367 9.45133L10.2132 10.3985Z" fill="white"/>
<path d="M10.9795 9.66357L10.8189 9.81994L9.4209 9.21297L9.59093 9.05662L10.7528 9.59L10.2615 8.4313L10.4222 8.28418L10.9795 9.66357Z" fill="white"/>
<path d="M11.6498 7.70546C11.5931 7.68706 11.5176 7.68706 11.4514 7.69623C11.3759 7.71464 11.3097 7.74222 11.2532 7.78819C11.187 7.8434 11.1398 7.89856 11.1115 7.96294C11.0831 8.02733 11.0642 8.09166 11.0547 8.15604C11.0547 8.22043 11.0642 8.29399 11.0831 8.35837C11.1115 8.42276 11.1492 8.48714 11.1964 8.55146C11.2436 8.61584 11.3003 8.66183 11.3665 8.69863C11.4325 8.73538 11.4987 8.75379 11.5648 8.77219C11.631 8.78143 11.7065 8.78143 11.7727 8.76296C11.8388 8.74461 11.9048 8.70781 11.9709 8.66183C12.0371 8.60668 12.0938 8.54229 12.1126 8.47791C12.141 8.41352 12.1505 8.3492 12.1505 8.28481L12.3394 8.27563C12.3394 8.36754 12.3205 8.4595 12.2827 8.55146C12.2449 8.64343 12.1788 8.71704 12.0844 8.79977C11.9993 8.87333 11.9048 8.91937 11.8104 8.94694C11.7159 8.97452 11.6215 8.98369 11.527 8.97452C11.4326 8.96529 11.3476 8.93771 11.2626 8.89173C11.1776 8.84576 11.102 8.78143 11.0359 8.69863C10.9698 8.61584 10.9225 8.53312 10.8942 8.44115C10.8658 8.34919 10.8564 8.25723 10.8658 8.16527C10.8752 8.07331 10.9036 7.99052 10.9508 7.89856C10.9981 7.81577 11.0642 7.73304 11.1586 7.65948C11.2342 7.60427 11.3192 7.55829 11.4231 7.53071C11.527 7.50314 11.6215 7.49396 11.7254 7.52154L11.6498 7.70546Z" fill="white"/>
<path d="M13.2933 6.96869C13.3027 6.97786 13.3122 6.99626 13.3216 7.00544C13.331 7.01461 13.3405 7.03302 13.3499 7.05141L12.3865 7.69515C12.4243 7.7503 12.481 7.79628 12.5376 7.83309C12.5943 7.86984 12.651 7.88825 12.7171 7.90665C12.7832 7.91588 12.8494 7.91588 12.9154 7.90665C12.9816 7.89748 13.0477 7.86984 13.1044 7.82386C13.1893 7.76871 13.2555 7.69515 13.2933 7.61236C13.331 7.52963 13.3405 7.45602 13.3405 7.37328L13.5389 7.38246C13.5295 7.51123 13.5011 7.63077 13.4444 7.72272C13.3878 7.81469 13.3122 7.89748 13.2178 7.9618C13.1327 8.01702 13.0382 8.063 12.9438 8.0814C12.8494 8.09974 12.7548 8.09974 12.6604 8.0814C12.566 8.063 12.481 8.02618 12.3959 7.98021C12.3109 7.92505 12.2448 7.86067 12.1786 7.77794C12.122 7.69515 12.0747 7.60318 12.0559 7.51123C12.037 7.41926 12.0275 7.3273 12.0465 7.23534C12.0653 7.14338 12.0936 7.06059 12.1409 6.98703C12.1882 6.91348 12.2542 6.83992 12.3393 6.78471C12.4337 6.72038 12.5187 6.68357 12.6131 6.66517C12.7077 6.64677 12.7927 6.64677 12.8777 6.66517C12.9627 6.68357 13.0382 6.72038 13.1138 6.77553C13.1799 6.82151 13.2461 6.8859 13.2933 6.96869ZM13.0855 7.02384C13.0005 6.92265 12.9059 6.85833 12.7927 6.83074C12.6793 6.80311 12.5566 6.83074 12.4337 6.91348C12.377 6.95028 12.3298 6.99626 12.3015 7.05141C12.2637 7.10657 12.2448 7.16179 12.2353 7.21694C12.2258 7.27215 12.2258 7.33648 12.2353 7.39169C12.2448 7.44684 12.2637 7.50205 12.3015 7.55721L13.0855 7.02384Z" fill="white"/>
<path d="M16.1176 5.13936C16.1931 5.28649 16.231 5.42443 16.2404 5.57157C16.2498 5.71872 16.231 5.85667 16.1837 5.98539C16.1365 6.11415 16.0704 6.23369 15.9665 6.34406C15.872 6.45442 15.7492 6.53715 15.6075 6.61071C15.4658 6.6751 15.3241 6.72108 15.173 6.73031C15.0219 6.73948 14.8897 6.72108 14.748 6.6751C14.6157 6.62911 14.4929 6.56473 14.3796 6.46359C14.2662 6.37164 14.1812 6.2521 14.1056 6.10498C14.0301 5.9578 13.9922 5.81987 13.9828 5.67273C13.9734 5.52559 13.9922 5.38765 14.0395 5.25891C14.0868 5.13015 14.1529 5.01061 14.2568 4.90025C14.3512 4.78991 14.4741 4.70715 14.6157 4.63357C14.7574 4.5692 14.8991 4.52323 15.0503 4.51402C15.2014 4.50482 15.3336 4.52323 15.4753 4.5692C15.6075 4.61517 15.7303 4.67955 15.8437 4.7807C15.957 4.88187 16.0514 5.00141 16.1176 5.13936ZM15.9097 5.24052C15.8532 5.13015 15.787 5.03819 15.702 4.95543C15.6169 4.87266 15.5225 4.8083 15.4092 4.77151C15.3053 4.72553 15.1919 4.70715 15.0691 4.71634C14.9463 4.71634 14.8235 4.75311 14.7007 4.80831C14.5779 4.86347 14.4741 4.94625 14.3984 5.029C14.3229 5.12096 14.2662 5.22213 14.2379 5.32329C14.2095 5.43363 14.2001 5.54398 14.2095 5.65434C14.219 5.77388 14.2568 5.88425 14.3135 5.99462C14.3701 6.10498 14.4362 6.19688 14.5213 6.27967C14.6063 6.36241 14.7007 6.41762 14.8046 6.46359C14.9086 6.50041 15.0219 6.52798 15.1447 6.5188C15.2675 6.5188 15.3902 6.482 15.5131 6.42679C15.6359 6.37164 15.7398 6.28885 15.8153 6.20611C15.8909 6.11415 15.9476 6.01302 15.9759 5.91183C16.0043 5.80146 16.0137 5.69112 16.0043 5.58078C16.0043 5.46123 15.9665 5.35087 15.9097 5.24052Z" fill="white"/>
<path d="M16.486 4.83594C16.4671 4.78077 16.4388 4.7348 16.4199 4.68881L16.5994 4.62444C16.6182 4.66122 16.6371 4.69799 16.656 4.7348C16.675 4.78077 16.6844 4.80836 16.7033 4.83594H16.7127C16.7221 4.74399 16.7505 4.66122 16.8072 4.58766C16.8638 4.51409 16.9394 4.45892 17.0339 4.42211C17.0622 4.41292 17.0811 4.40373 17.1 4.40373C17.1189 4.39453 17.1377 4.39453 17.166 4.39453L17.2133 4.57846C17.2039 4.57846 17.185 4.57846 17.1566 4.58766C17.1283 4.59685 17.1 4.60605 17.0716 4.61524C17.0244 4.63364 16.9772 4.66122 16.9394 4.69799C16.9016 4.7348 16.8732 4.78076 16.8544 4.82674C16.8355 4.88193 16.8261 4.9371 16.8261 5.01068C16.8261 5.08424 16.8449 5.15781 16.8828 5.24059L17.1377 5.90268L16.9488 5.97624L16.5427 4.96469C16.5333 4.9371 16.5144 4.89113 16.486 4.83594Z" fill="white"/>
<path d="M18.0162 5.87397C18.0918 5.92918 18.1863 5.96592 18.2902 5.98433C18.394 6.00274 18.5074 6.00274 18.6113 5.96592C18.7057 5.93835 18.7814 5.90154 18.8474 5.85562C18.9042 5.80958 18.9514 5.75443 18.9796 5.69924C19.008 5.64407 19.0174 5.57971 19.0174 5.50613C19.0174 5.44176 19.008 5.36819 18.9892 5.29462L18.9042 5.04634H18.8946C18.8664 5.14748 18.8097 5.23025 18.7341 5.30381C18.6491 5.37739 18.5641 5.42336 18.4601 5.46016C18.3563 5.48774 18.2523 5.50613 18.1579 5.49694C18.0634 5.48774 17.9785 5.46016 17.8934 5.42337C17.8179 5.37739 17.7423 5.32222 17.6856 5.24864C17.6289 5.17507 17.5817 5.09231 17.5534 4.99114C17.5251 4.89918 17.5155 4.80723 17.5251 4.71527C17.5345 4.6233 17.5628 4.54054 17.6006 4.45778C17.6383 4.37501 17.7045 4.31064 17.78 4.24626C17.8556 4.18189 17.9501 4.13591 18.054 4.10831C18.1485 4.08073 18.2523 4.07154 18.3657 4.08993C18.4696 4.10831 18.5641 4.15431 18.6491 4.21867H18.6585L18.5924 3.98878L18.7907 3.93359L19.1875 5.23944C19.2063 5.31302 19.2254 5.38658 19.2254 5.47855C19.2254 5.5613 19.2159 5.65327 19.1781 5.73604C19.1403 5.81881 19.0837 5.90154 19.008 5.96592C18.923 6.03948 18.8097 6.09469 18.6585 6.14067C18.5357 6.17743 18.4035 6.18666 18.2807 6.17743C18.1485 6.15908 18.0351 6.12227 17.9312 6.06712L18.0162 5.87397ZM17.7612 4.91759C17.78 4.99114 17.8179 5.04634 17.8556 5.1015C17.8934 5.15667 17.9501 5.20267 18.0068 5.23944C18.0634 5.27623 18.1296 5.29462 18.2051 5.30381C18.2807 5.31302 18.3563 5.30381 18.4318 5.28542C18.5074 5.26703 18.5735 5.23025 18.6302 5.18428C18.6869 5.13828 18.7341 5.09231 18.7625 5.02793C18.7907 4.96356 18.8191 4.90838 18.8191 4.83482C18.8286 4.76124 18.8191 4.68768 18.7907 4.6141C18.7719 4.54054 18.7341 4.48536 18.6869 4.43019C18.6397 4.37501 18.5924 4.32903 18.5263 4.30144C18.4696 4.26466 18.4035 4.24626 18.3279 4.23706C18.2523 4.22787 18.1863 4.23706 18.1107 4.25547C18.0256 4.28305 17.9595 4.31064 17.9029 4.35661C17.8462 4.40261 17.8084 4.45778 17.78 4.51294C17.7518 4.56814 17.7328 4.6325 17.7328 4.70607C17.7328 4.77963 17.7423 4.85321 17.7612 4.91759Z" fill="white"/>
<path d="M20.2924 4.10899C20.264 3.98945 20.2168 3.91587 20.1412 3.8699C20.0657 3.82391 19.9712 3.81471 19.8484 3.84229C19.7633 3.86071 19.6877 3.88829 19.6216 3.93426C19.5555 3.98024 19.5083 4.02624 19.461 4.0814L19.3193 3.97105C19.3666 3.90668 19.4328 3.84229 19.5179 3.78713C19.6027 3.73196 19.7068 3.69517 19.8294 3.66757C19.905 3.64919 19.9806 3.64919 20.0467 3.65839C20.1129 3.66757 20.179 3.68597 20.2356 3.71355C20.2924 3.74115 20.3397 3.78713 20.3869 3.84229C20.4244 3.89749 20.4529 3.97105 20.4719 4.05382L20.5946 4.64235C20.604 4.69754 20.623 4.74352 20.6324 4.79871C20.6511 4.85388 20.6608 4.89985 20.6797 4.93665L20.5001 4.97342C20.4907 4.94584 20.4719 4.90905 20.4623 4.87226C20.4529 4.83549 20.4435 4.79871 20.434 4.76191H20.4244C20.3773 4.86307 20.3207 4.94584 20.2546 5.00101C20.179 5.05621 20.0939 5.09298 19.9807 5.12056C19.924 5.12976 19.8673 5.13895 19.8106 5.12976C19.7539 5.12976 19.6973 5.11137 19.6406 5.09298C19.5839 5.06539 19.5366 5.03779 19.4989 4.99182C19.461 4.94584 19.4328 4.88147 19.4138 4.8079C19.395 4.70674 19.4044 4.61477 19.4423 4.54122C19.48 4.46763 19.546 4.41247 19.6311 4.36648C19.7162 4.3205 19.82 4.27453 19.9335 4.24693C20.0467 4.21934 20.1696 4.18256 20.2924 4.16417V4.10899ZM20.2734 4.3205C20.1884 4.33889 20.1033 4.35728 20.0279 4.37568C19.9429 4.40328 19.8673 4.43086 19.8106 4.45845C19.7446 4.49522 19.6973 4.53202 19.6596 4.578C19.6216 4.62397 19.6123 4.67916 19.6216 4.74352C19.6311 4.78951 19.6502 4.82629 19.6783 4.86307C19.7068 4.89065 19.735 4.90905 19.7728 4.92745C19.8106 4.94584 19.8484 4.94584 19.8862 4.94584C19.924 4.94584 19.9616 4.94584 20.0089 4.93665C20.0845 4.91826 20.1412 4.89985 20.1884 4.86307C20.2356 4.82629 20.2828 4.78951 20.3112 4.73433C20.3397 4.68835 20.3584 4.63316 20.3679 4.578C20.3773 4.52282 20.3773 4.45845 20.3584 4.40328L20.3397 4.30211L20.2734 4.3205Z" fill="white"/>
<path d="M21.1045 3.48271C21.1139 3.5195 21.1235 3.55627 21.1329 3.60227C21.1423 3.64824 21.1423 3.68502 21.1518 3.71261H21.1612C21.1895 3.62985 21.2462 3.55627 21.3312 3.49191C21.4162 3.42753 21.5108 3.39994 21.6051 3.38155C21.7846 3.36316 21.9263 3.39994 22.0208 3.49191C22.1246 3.58385 22.1815 3.71261 22.2002 3.88734L22.3041 4.72418L22.0964 4.75176L22.0019 3.9977C21.9925 3.92412 21.9829 3.85976 21.9641 3.80457C21.9453 3.7494 21.9169 3.7034 21.8885 3.65743C21.8507 3.62065 21.813 3.59307 21.7562 3.57466C21.709 3.55627 21.643 3.55627 21.5674 3.55627C21.5108 3.56547 21.4635 3.57466 21.4162 3.60227C21.3691 3.62985 21.3218 3.66663 21.2935 3.71261C21.2555 3.75859 21.2368 3.82296 21.218 3.88734C21.199 3.96089 21.199 4.03448 21.2084 4.12644L21.2935 4.82535L21.0857 4.85293L20.9535 3.78617C20.9535 3.7494 20.944 3.7034 20.9344 3.63905C20.925 3.58385 20.9157 3.52868 20.9062 3.48271H21.1045Z" fill="white"/>
<path d="M22.8712 2.79321C22.8712 2.82999 22.8618 2.86679 22.8334 2.89437C22.8052 2.92196 22.7768 2.94035 22.7389 2.94035C22.7013 2.94035 22.6729 2.93115 22.6352 2.90356C22.6067 2.87598 22.5879 2.8484 22.5879 2.80241C22.5879 2.76563 22.5973 2.72884 22.6257 2.70124C22.6541 2.67366 22.6823 2.65527 22.7202 2.65527C22.758 2.65527 22.7862 2.66447 22.824 2.69205C22.8524 2.71966 22.8712 2.75643 22.8712 2.79321ZM22.9469 4.70601L22.7389 4.7152L22.6635 3.33577L22.8712 3.32658L22.9469 4.70601Z" fill="white"/>
<path d="M24.3338 3.4362L23.5025 4.51214L24.381 4.49375V4.66849L23.2285 4.68688V4.54894L24.0503 3.46378L23.2475 3.47299V3.30746L24.3244 3.28906L24.3338 3.4362Z" fill="white"/>
<path d="M25.6479 3.86121C25.6575 3.74165 25.6291 3.6497 25.5725 3.58532C25.5158 3.52096 25.4214 3.48416 25.2985 3.47496C25.2135 3.46577 25.1379 3.47496 25.0625 3.50256C24.9868 3.53014 24.9208 3.55774 24.8736 3.60371L24.7695 3.46577C24.8357 3.4106 24.9112 3.37382 25.0056 3.33702C25.1001 3.30944 25.2135 3.29105 25.3364 3.30024C25.4118 3.30944 25.4875 3.31863 25.5441 3.34622C25.6104 3.37382 25.6669 3.4106 25.7141 3.44737C25.7614 3.49335 25.7992 3.54854 25.818 3.6129C25.8464 3.67728 25.8464 3.75084 25.8464 3.83362L25.7992 4.43137C25.7992 4.48654 25.7898 4.54171 25.7898 4.5969C25.7898 4.65207 25.7898 4.69806 25.7992 4.74404L25.6198 4.73483C25.6198 4.69806 25.6104 4.66126 25.6104 4.62448C25.6104 4.5877 25.6104 4.5509 25.6104 4.50493H25.6008C25.5252 4.5969 25.4496 4.65207 25.3645 4.68886C25.2795 4.72564 25.1851 4.73483 25.0625 4.72564C25.0056 4.72564 24.949 4.70725 24.8924 4.68886C24.8357 4.67045 24.7885 4.64287 24.7413 4.60609C24.694 4.56932 24.6563 4.52332 24.6372 4.46815C24.609 4.41296 24.5996 4.3486 24.609 4.27502C24.6184 4.16469 24.6468 4.09111 24.7129 4.02674C24.7695 3.97156 24.8451 3.92558 24.949 3.90719C25.0434 3.87959 25.1475 3.87039 25.2702 3.87039C25.393 3.87039 25.5158 3.87039 25.6479 3.87959V3.86121ZM25.5725 4.05433C25.4875 4.04513 25.4025 4.04513 25.3174 4.04513C25.2324 4.04513 25.1568 4.05433 25.0812 4.07272C25.0056 4.09111 24.949 4.11869 24.9017 4.14628C24.8545 4.18307 24.8261 4.22905 24.8261 4.29343C24.8261 4.33941 24.8261 4.38538 24.8451 4.42218C24.864 4.45895 24.883 4.48654 24.9208 4.50493C24.949 4.52332 24.9868 4.54171 25.0246 4.56011C25.0625 4.57851 25.1001 4.57851 25.1475 4.57851C25.2229 4.5877 25.2891 4.57851 25.3458 4.5509C25.4025 4.53251 25.4496 4.49573 25.4968 4.45895C25.5347 4.42218 25.5725 4.37618 25.5913 4.32102C25.6198 4.26583 25.6291 4.21066 25.6291 4.14628L25.6385 4.04513L25.5725 4.05433Z" fill="white"/>
<path d="M27.036 3.70346L26.6393 3.64827L26.5258 4.44833C26.5165 4.50352 26.5165 4.54031 26.5258 4.57708C26.5354 4.61388 26.5448 4.64147 26.5542 4.65985C26.5731 4.67824 26.5921 4.69664 26.6204 4.70582C26.6487 4.71503 26.6771 4.72424 26.7053 4.72424C26.7338 4.72424 26.7621 4.72424 26.7998 4.72424C26.8281 4.72424 26.866 4.71503 26.8944 4.70582L26.8754 4.88056C26.8375 4.88977 26.7998 4.89896 26.7621 4.89896C26.7244 4.89896 26.6771 4.89896 26.6298 4.88977C26.5921 4.88056 26.5542 4.87137 26.5165 4.86218C26.4786 4.84377 26.441 4.82538 26.4031 4.7886C26.3748 4.76101 26.3466 4.71503 26.3275 4.66905C26.3087 4.62307 26.3087 4.55869 26.3181 4.48513L26.4314 3.62988L26.1387 3.59311L26.1574 3.42758L26.4504 3.46437L26.507 3.07812L26.7149 3.10571L26.6581 3.49195L27.0549 3.54713L27.036 3.70346Z" fill="white"/>
<path d="M27.3498 4.98225L27.1514 4.94545L27.3971 3.58443L27.5954 3.62121L27.3498 4.98225ZM27.7276 3.11544C27.7182 3.15222 27.6992 3.189 27.6616 3.20739C27.6238 3.22577 27.5954 3.23497 27.5576 3.22577C27.52 3.21659 27.4915 3.19819 27.4631 3.17061C27.4348 3.14302 27.4253 3.10624 27.4348 3.06025C27.4443 3.02347 27.4631 2.98669 27.5009 2.96828C27.5388 2.9499 27.5671 2.9407 27.6048 2.9499C27.6426 2.95909 27.6711 2.9775 27.6992 3.00508C27.7276 3.03266 27.7371 3.06945 27.7276 3.11544Z" fill="white"/>
<path d="M29.3226 4.71588C29.2944 4.81703 29.2566 4.909 29.1999 4.98257C29.1431 5.05613 29.077 5.12051 28.992 5.16649C28.907 5.21246 28.822 5.24006 28.7181 5.25846C28.6143 5.27685 28.5198 5.26764 28.4063 5.24006C28.3025 5.21246 28.2081 5.17568 28.123 5.12051C28.0379 5.06532 27.9813 4.99177 27.9248 4.91819C27.8775 4.83544 27.8397 4.75267 27.8302 4.6607C27.8112 4.56875 27.8206 4.46758 27.8491 4.36643C27.8775 4.26526 27.9152 4.17332 27.9719 4.09974C28.0285 4.02617 28.0946 3.9618 28.1796 3.91582C28.2647 3.86983 28.3497 3.84225 28.4536 3.82386C28.548 3.81466 28.6521 3.81466 28.7653 3.84225C28.8692 3.86983 28.9636 3.90663 29.0486 3.9618C29.1337 4.01697 29.1903 4.09054 29.2472 4.16412C29.2944 4.24688 29.332 4.32965 29.3416 4.4216C29.3604 4.51356 29.351 4.61472 29.3226 4.71588ZM29.1149 4.6607C29.1337 4.58714 29.1431 4.51356 29.1337 4.44C29.1243 4.36643 29.1053 4.30206 29.077 4.24688C29.0486 4.1917 29.0014 4.13652 28.9449 4.09054C28.8882 4.04457 28.822 4.01697 28.737 3.99858C28.6521 3.98019 28.5764 3.98019 28.5102 3.98938C28.4348 3.99858 28.3781 4.02617 28.3213 4.06296C28.2647 4.09974 28.2175 4.14572 28.1702 4.21009C28.1325 4.27446 28.0946 4.33884 28.0852 4.4124C28.0664 4.48598 28.0569 4.55956 28.0664 4.63311C28.0758 4.7067 28.0946 4.77105 28.123 4.82625C28.1514 4.88141 28.1986 4.93658 28.2553 4.98257C28.3119 5.02855 28.3781 5.05613 28.463 5.07453C28.548 5.09292 28.6236 5.09292 28.6897 5.08372C28.7653 5.07453 28.822 5.04693 28.8788 5.01015C28.9353 4.97337 28.9826 4.92739 29.0299 4.86302C29.0676 4.80783 29.0959 4.73428 29.1149 4.6607Z" fill="white"/>
<path d="M30.1164 4.23723C30.1069 4.274 30.0973 4.31079 30.0879 4.35676C30.0785 4.40275 30.0598 4.43953 30.0502 4.46712H30.0598C30.1258 4.40275 30.2108 4.36598 30.3146 4.34757C30.4185 4.32917 30.5129 4.33838 30.6076 4.36598C30.7775 4.42114 30.8909 4.51312 30.9382 4.64186C30.9853 4.77061 30.9853 4.90854 30.9288 5.07407L30.6452 5.87413L30.4469 5.80974L30.702 5.09246C30.7303 5.0281 30.7397 4.96372 30.7493 4.89935C30.7586 4.84416 30.7586 4.78899 30.7397 4.73381C30.7303 4.68784 30.702 4.64186 30.6642 4.60506C30.6264 4.56828 30.5698 4.5407 30.5035 4.51312C30.4563 4.49472 30.3997 4.48551 30.3431 4.49472C30.2865 4.49472 30.2296 4.51312 30.1824 4.5407C30.1258 4.56828 30.0785 4.61425 30.0313 4.66944C29.9841 4.72461 29.9462 4.79819 29.9179 4.88094L29.6818 5.55227L29.4834 5.48789L29.8424 4.46712C29.8519 4.43034 29.8706 4.38437 29.8896 4.32917C29.9085 4.274 29.9179 4.21882 29.9369 4.17285L30.1164 4.23723Z" fill="white"/>
<path d="M33.5362 6.8216C33.4793 6.84918 33.4133 6.87675 33.3472 6.89516C33.2811 6.91357 33.2054 6.92273 33.1299 6.92273C33.0543 6.92273 32.9692 6.91357 32.8938 6.89516C32.8088 6.87675 32.7238 6.84918 32.6388 6.80319C32.4971 6.72964 32.3742 6.63768 32.2797 6.52731C32.1853 6.41695 32.1097 6.29741 32.072 6.1687C32.0248 6.03993 32.0152 5.90199 32.0248 5.75486C32.0343 5.60772 32.0814 5.46977 32.1569 5.32264C32.2325 5.1847 32.327 5.06515 32.4404 4.97319C32.5537 4.88121 32.6765 4.80766 32.8088 4.77087C32.9411 4.72489 33.0827 4.71568 33.2338 4.72489C33.3849 4.73408 33.5266 4.78008 33.6684 4.84444C33.7345 4.88121 33.8005 4.91801 33.8667 4.96398C33.9233 5.00996 33.9799 5.06515 34.0272 5.12032C34.0746 5.17551 34.1122 5.23067 34.1406 5.29503C34.1691 5.35942 34.1878 5.41459 34.1972 5.47897L33.9705 5.51575C33.9705 5.47897 33.9518 5.433 33.9423 5.387C33.9233 5.34102 33.8951 5.29503 33.8667 5.24906C33.8383 5.20309 33.7911 5.1571 33.7532 5.12032C33.706 5.08354 33.6588 5.04675 33.5928 5.00996C33.4699 4.94559 33.3472 4.91801 33.2244 4.90882C33.1015 4.89963 32.9883 4.91801 32.8842 4.96398C32.7804 5.00077 32.6765 5.06515 32.5915 5.14791C32.5065 5.23067 32.4308 5.32264 32.3742 5.433C32.3175 5.54333 32.2797 5.65369 32.2703 5.77322C32.2515 5.89281 32.261 6.00312 32.2891 6.11349C32.3175 6.22385 32.3742 6.32499 32.4498 6.41695C32.5254 6.50891 32.6199 6.58247 32.7425 6.64685C32.8561 6.70206 32.9692 6.72964 33.0921 6.73881C33.215 6.74804 33.3376 6.71124 33.4511 6.65608L33.5362 6.8216Z" fill="white"/>
<path d="M35.1798 7.4457C35.123 7.53766 35.0475 7.60204 34.9719 7.65719C34.8869 7.71241 34.8018 7.74916 34.7169 7.76757C34.6223 7.78596 34.5279 7.78596 34.4334 7.76757C34.339 7.74916 34.2351 7.71241 34.1501 7.64803C34.0556 7.59287 33.98 7.51926 33.9234 7.4457C33.8668 7.36296 33.8289 7.28018 33.8101 7.18822C33.7912 7.09626 33.7912 7.00429 33.8101 6.91234C33.8289 6.82037 33.8668 6.72841 33.9234 6.63645C33.98 6.55366 34.0462 6.4801 34.1313 6.42495C34.2163 6.3698 34.3012 6.33299 34.3862 6.31458C34.4807 6.29618 34.575 6.29618 34.6698 6.31458C34.7642 6.33299 34.8586 6.3698 34.9531 6.42495C35.0475 6.4801 35.123 6.55366 35.1798 6.63645C35.2364 6.71924 35.2742 6.80196 35.2931 6.89393C35.312 6.98589 35.312 7.07785 35.2931 7.16981C35.2742 7.26178 35.2364 7.35373 35.1798 7.4457ZM35.0003 7.32616C35.0475 7.26178 35.0757 7.19739 35.0853 7.12383C35.1042 7.05027 35.1042 6.98589 35.0947 6.9215C35.0853 6.85718 35.0569 6.7928 35.0191 6.72841C34.9813 6.66403 34.9246 6.61804 34.8586 6.57206C34.7924 6.52608 34.7169 6.4985 34.6507 6.48927C34.575 6.48011 34.509 6.4801 34.443 6.4985C34.3768 6.51691 34.3108 6.54449 34.254 6.59047C34.1973 6.63645 34.1407 6.6916 34.1029 6.75599C34.0556 6.82037 34.0272 6.88475 34.0179 6.95831C33.999 7.03187 33.999 7.09626 34.0085 7.16064C34.0179 7.22503 34.0462 7.28935 34.0841 7.34457C34.1219 7.39972 34.1785 7.45493 34.2445 7.50085C34.3108 7.54683 34.3862 7.57447 34.4525 7.58364C34.5279 7.59287 34.5942 7.59287 34.6602 7.57447C34.7263 7.55606 34.7924 7.52849 34.849 7.4825C34.9059 7.4457 34.9531 7.39055 35.0003 7.32616Z" fill="white"/>
<path d="M36.0847 7.24454C36.0657 7.27211 36.0375 7.30892 36.009 7.34573C35.9806 7.38248 35.9619 7.41006 35.943 7.43769H35.9524C36.0375 7.40088 36.1319 7.38248 36.2357 7.40088C36.3396 7.41929 36.434 7.4561 36.5097 7.51125C36.6513 7.62162 36.727 7.74115 36.727 7.8791C36.7364 8.01703 36.6797 8.14575 36.5757 8.28369L36.0375 8.94582L35.8768 8.82629L36.3586 8.22854C36.4059 8.17339 36.4434 8.11818 36.4719 8.06302C36.5003 8.0078 36.5191 7.95265 36.5191 7.90667C36.5191 7.85152 36.5097 7.80554 36.4909 7.75956C36.4624 7.71357 36.4247 7.66759 36.368 7.62162C36.3207 7.5848 36.2736 7.56641 36.2263 7.548C36.1695 7.52965 36.1129 7.52965 36.0563 7.53882C35.9996 7.548 35.9334 7.57564 35.8768 7.61238C35.8107 7.64919 35.7539 7.70434 35.6973 7.7779L35.2533 8.3389L35.0928 8.21931L35.7729 7.37331C35.7917 7.34573 35.8296 7.30892 35.8579 7.25377C35.8956 7.20779 35.924 7.1618 35.9524 7.125L36.0847 7.24454Z" fill="white"/>
<path d="M37.6725 8.76238L37.3798 8.50489L36.8319 9.10259C36.7941 9.1394 36.7754 9.1762 36.7563 9.20378C36.7375 9.23139 36.7375 9.26813 36.7375 9.28659C36.7375 9.31419 36.7469 9.3417 36.7659 9.36016C36.7847 9.37844 36.8035 9.40613 36.8225 9.4245C36.8413 9.44287 36.8697 9.46124 36.898 9.47047C36.9264 9.48884 36.9548 9.49807 36.983 9.50721L36.8697 9.64521C36.8319 9.63598 36.7941 9.61761 36.7659 9.59001C36.7281 9.57164 36.6997 9.54404 36.6618 9.51644C36.6337 9.48884 36.6052 9.46124 36.5864 9.4245C36.5581 9.38767 36.5486 9.35093 36.5391 9.30496C36.5295 9.2589 36.5391 9.21296 36.5486 9.16697C36.5674 9.12099 36.5958 9.06584 36.6524 9.01068L37.2382 8.36696L37.0208 8.1738L37.1342 8.04509L37.3514 8.23819L37.6159 7.95312L37.767 8.09107L37.5026 8.37613L37.7954 8.63361L37.6725 8.76238Z" fill="white"/>
<path d="M37.9279 8.9838C37.9657 8.93781 38.0035 8.90106 38.0413 8.86426L38.1736 9.00219C38.1452 9.02977 38.1264 9.06658 38.0886 9.09416C38.0601 9.13096 38.0317 9.15854 38.013 9.17689C38.098 9.14931 38.1924 9.14014 38.2868 9.15854C38.3813 9.17689 38.4664 9.22293 38.5324 9.29651C38.5514 9.31488 38.5702 9.33334 38.5795 9.35161C38.5891 9.37008 38.6081 9.38845 38.6175 9.40681L38.4569 9.52635C38.4475 9.51712 38.4379 9.49885 38.4191 9.48038C38.4003 9.46201 38.3813 9.43441 38.3625 9.41605C38.3247 9.37921 38.2775 9.35161 38.2303 9.33334C38.183 9.31488 38.1264 9.30564 38.0695 9.30564C38.013 9.30564 37.9563 9.32411 37.8901 9.36085C37.824 9.38845 37.7578 9.44365 37.6917 9.50798L37.1817 10.0046L37.04 9.86669L37.8146 9.10333C37.8524 9.06658 37.8807 9.02977 37.9279 8.9838Z" fill="white"/>
<path d="M39.194 11.1076C39.109 11.1721 39.0239 11.2272 38.9295 11.2548C38.8351 11.2824 38.7405 11.3007 38.6461 11.2916C38.5515 11.2824 38.4571 11.2639 38.3722 11.218C38.2872 11.1721 38.2021 11.1076 38.1265 11.0248C38.051 10.9421 38.0036 10.8593 37.966 10.7674C37.9376 10.6755 37.9188 10.5834 37.9282 10.4915C37.9376 10.3995 37.9565 10.3076 38.0036 10.2248C38.051 10.142 38.1077 10.0593 38.1927 9.99497C38.2776 9.93053 38.3626 9.87533 38.4571 9.84773C38.5515 9.82023 38.6461 9.80177 38.7405 9.811C38.8351 9.82023 38.9295 9.8386 39.0145 9.88457C39.0995 9.93053 39.1844 9.99497 39.2506 10.0685C39.326 10.1512 39.3735 10.234 39.4111 10.326C39.4395 10.4179 39.4583 10.5099 39.4489 10.6019C39.4395 10.6938 39.4207 10.7858 39.3735 10.8685C39.3451 10.9605 39.2788 11.0433 39.194 11.1076ZM39.0522 10.9513C39.109 10.9053 39.1562 10.841 39.194 10.7858C39.2316 10.7214 39.2506 10.657 39.26 10.5927C39.2695 10.5283 39.26 10.4547 39.2412 10.3903C39.2222 10.326 39.1844 10.2615 39.1278 10.1972C39.0711 10.1329 39.0145 10.096 38.9482 10.0593C38.8822 10.0317 38.816 10.0132 38.75 10.0132C38.6838 10.0132 38.6084 10.0225 38.5421 10.0501C38.4761 10.0777 38.4099 10.1145 38.3532 10.1605C38.2966 10.2064 38.2494 10.2708 38.2115 10.326C38.1737 10.3903 38.1549 10.4547 38.1455 10.5191C38.1359 10.5834 38.1455 10.657 38.1644 10.7214C38.1831 10.7858 38.2209 10.8502 38.2776 10.9145C38.3344 10.9789 38.391 11.0248 38.4571 11.0524C38.5232 11.08 38.5893 11.0984 38.6555 11.0984C38.7216 11.0984 38.7972 11.0893 38.8632 11.0617C38.9295 11.0341 38.9955 10.9972 39.0522 10.9513Z" fill="white"/>
<path d="M38.9949 12.0081L38.8721 11.8518L40.6857 10.5L40.8086 10.6564L38.9949 12.0081Z" fill="white"/>
<path d="M39.8459 13.1851L39.7324 13.0012L41.5651 11.916L41.8957 12.4402C41.9522 12.5229 41.9901 12.615 42.0185 12.6977C42.0467 12.7805 42.0561 12.8633 42.0561 12.9368C42.0561 13.0104 42.0279 13.084 41.9807 13.1576C41.9334 13.2219 41.8672 13.2863 41.7821 13.3414C41.7161 13.3782 41.6501 13.4059 41.5744 13.415C41.5082 13.4242 41.4328 13.4242 41.3665 13.4059C41.3005 13.3874 41.2343 13.3599 41.1777 13.3231C41.121 13.2863 41.0644 13.2311 41.0172 13.1667L40.4693 14.2059L40.3277 13.9852L40.8756 12.9828L40.6864 12.6793L39.8459 13.1851ZM40.866 12.5874L41.0644 12.9C41.1589 13.0472 41.2533 13.1391 41.3571 13.1851C41.461 13.2311 41.5651 13.2219 41.6784 13.1576C41.7349 13.1208 41.7821 13.084 41.8105 13.038C41.839 12.992 41.8484 12.946 41.8578 12.8908C41.8578 12.8357 41.8484 12.7805 41.8294 12.7161C41.8105 12.6517 41.7728 12.5874 41.7349 12.5229L41.5367 12.2012L40.866 12.5874Z" fill="white"/>
<path d="M41.8377 15.2173C41.8283 15.2265 41.8093 15.2265 41.7999 15.2357C41.7811 15.2448 41.7715 15.2448 41.7526 15.2541L41.2332 14.2333C41.167 14.2701 41.1198 14.3069 41.0725 14.3529C41.0253 14.3988 40.9969 14.454 40.9781 14.5184C40.9593 14.5827 40.9497 14.6379 40.9497 14.7115C40.9497 14.7759 40.9687 14.8403 41.0065 14.9046C41.0538 14.9965 41.1198 15.0701 41.1954 15.1162C41.2708 15.162 41.3559 15.1897 41.4315 15.1989L41.3937 15.3828C41.2615 15.3552 41.1482 15.3093 41.0631 15.2357C40.9781 15.1713 40.9025 15.0793 40.8552 14.9783C40.808 14.8862 40.7798 14.7942 40.7798 14.7024C40.7704 14.6104 40.7892 14.5184 40.8176 14.4356C40.8458 14.3529 40.8931 14.2701 40.9593 14.1965C41.0253 14.1229 41.101 14.0677 41.2048 14.0218C41.2993 13.9758 41.3937 13.9482 41.4976 13.939C41.5922 13.9298 41.6866 13.939 41.7715 13.9667C41.8566 13.9943 41.9416 14.0402 42.0078 14.0953C42.0832 14.1505 42.14 14.2333 42.1873 14.316C42.2345 14.4172 42.2627 14.5092 42.2627 14.592C42.2627 14.6839 42.2533 14.7667 42.2249 14.8403C42.1967 14.9138 42.1495 14.9874 42.0832 15.0517C41.9982 15.1253 41.9227 15.1713 41.8377 15.2173ZM41.7999 15.0058C41.9133 14.9414 41.9982 14.8586 42.036 14.7483C42.0832 14.6379 42.0644 14.5184 42.0078 14.3988C41.9794 14.3345 41.9416 14.2885 41.8849 14.2517C41.8377 14.2149 41.7811 14.1781 41.7243 14.1598C41.6676 14.1413 41.6016 14.1322 41.5447 14.1322C41.4882 14.1322 41.4221 14.1413 41.3655 14.169L41.7999 15.0058Z" fill="white"/>
<path d="M40.6947 16.2853L40.6191 16.1014L42.6217 15.3564L42.6973 15.5404L42.4706 15.6231V15.6324C42.5744 15.6507 42.6689 15.6967 42.7539 15.7703C42.8294 15.8438 42.8956 15.9266 42.9239 16.0186C42.9616 16.1197 42.9806 16.2209 42.9806 16.3128C42.9806 16.4049 42.9522 16.4968 42.9144 16.5795C42.8766 16.6623 42.8199 16.7359 42.7445 16.8002C42.6689 16.8647 42.5839 16.9106 42.4894 16.9474C42.395 16.9842 42.2911 17.0026 42.1967 17.0026C42.1021 17.0026 42.0075 16.9842 41.9227 16.9474C41.8377 16.9106 41.7621 16.8647 41.696 16.7911C41.6298 16.7267 41.5732 16.6347 41.5353 16.5336C41.4975 16.4416 41.4881 16.3404 41.4975 16.2393C41.507 16.1381 41.5447 16.037 41.6014 15.9542V15.945L40.6947 16.2853ZM42.4138 16.7451C42.4894 16.7174 42.5555 16.6807 42.6122 16.6347C42.6689 16.5888 42.7161 16.5336 42.7445 16.4784C42.7727 16.4232 42.7918 16.3497 42.8012 16.2853C42.8012 16.2118 42.7918 16.1381 42.7634 16.0645C42.7349 15.991 42.6971 15.9358 42.6405 15.8807C42.5933 15.8347 42.5272 15.7887 42.461 15.7703C42.395 15.7427 42.3288 15.7335 42.2534 15.7335C42.1777 15.7335 42.1021 15.7427 42.0266 15.7795C41.951 15.8071 41.8849 15.8438 41.8281 15.899C41.7715 15.945 41.7337 16.0002 41.7055 16.0645C41.677 16.129 41.6582 16.1933 41.6582 16.2669C41.6582 16.3404 41.6676 16.4049 41.696 16.4784C41.7242 16.5519 41.7715 16.6164 41.8187 16.6715C41.8659 16.7174 41.9321 16.7543 41.9888 16.7819C42.0548 16.8095 42.1211 16.8187 42.1967 16.8095C42.2627 16.7819 42.3384 16.7727 42.4138 16.7451Z" fill="white"/>
<path d="M42.9902 18.6571C42.8861 18.6848 42.7823 18.6939 42.6878 18.6848C42.5934 18.6757 42.4989 18.648 42.4233 18.602C42.3382 18.556 42.2722 18.4918 42.2061 18.4181C42.1494 18.3446 42.1022 18.2525 42.074 18.1423C42.0455 18.0411 42.0361 17.9399 42.0455 17.8479C42.0549 17.7469 42.0834 17.6641 42.1305 17.5813C42.1778 17.4986 42.2345 17.4341 42.3195 17.3698C42.3951 17.3146 42.4895 17.2686 42.5934 17.241C42.6973 17.2134 42.8013 17.2042 42.8957 17.2134C42.9902 17.2227 43.0846 17.2503 43.16 17.2962C43.2452 17.3422 43.3113 17.4065 43.3773 17.4801C43.4436 17.5538 43.4812 17.6456 43.5096 17.7469C43.538 17.8479 43.5475 17.9491 43.538 18.0504C43.5286 18.1515 43.5002 18.2343 43.453 18.317C43.4058 18.3998 43.3492 18.4641 43.2642 18.5285C43.1885 18.5837 43.094 18.6297 42.9902 18.6571ZM42.9333 18.455C43.009 18.4364 43.0752 18.3998 43.1412 18.363C43.1979 18.317 43.2548 18.271 43.2829 18.2158C43.3208 18.1606 43.3396 18.0963 43.3585 18.0227C43.3679 17.9491 43.3679 17.8755 43.3396 17.802C43.3208 17.7284 43.2829 17.6548 43.2356 17.6089C43.1885 17.5538 43.1319 17.5169 43.0752 17.4801C43.009 17.4525 42.9429 17.4341 42.8673 17.425C42.7917 17.4158 42.7163 17.425 42.6406 17.4434C42.565 17.4617 42.4989 17.4986 42.4329 17.5353C42.3761 17.5813 42.3195 17.6273 42.2911 17.6824C42.2534 17.7376 42.2345 17.802 42.2156 17.8755C42.2061 17.9491 42.2061 18.0135 42.2345 18.0963C42.2534 18.1697 42.2911 18.2434 42.3382 18.2985C42.3857 18.3539 42.4424 18.3998 42.4989 18.4273C42.565 18.455 42.6312 18.4733 42.7069 18.4824C42.7823 18.4824 42.8579 18.4733 42.9333 18.455Z" fill="white"/>
<path d="M43.6053 18.9236C43.6619 18.9144 43.7185 18.896 43.7658 18.8867L43.8036 19.0708C43.7658 19.08 43.7281 19.0891 43.6808 19.1074C43.6335 19.1168 43.5959 19.1259 43.5675 19.135V19.1443C43.6525 19.1627 43.7376 19.2087 43.8036 19.2822C43.8698 19.3466 43.917 19.4294 43.9358 19.5306C43.9452 19.5582 43.9452 19.5765 43.9452 19.5948C43.9452 19.6134 43.9452 19.6408 43.9452 19.6593L43.747 19.6685C43.747 19.6593 43.747 19.6316 43.747 19.6041C43.747 19.5765 43.7376 19.5488 43.7376 19.5214C43.7281 19.466 43.7091 19.4201 43.6808 19.3741C43.6525 19.3281 43.6147 19.2915 43.5581 19.2639C43.5108 19.2362 43.4447 19.2178 43.3786 19.2087C43.3124 19.1994 43.2275 19.1994 43.1328 19.2178L42.4246 19.3558L42.3867 19.1628L43.473 18.9512C43.5014 18.9512 43.5487 18.942 43.6053 18.9236Z" fill="white"/>
<path d="M43.9069 20.754L43.8503 20.3677L43.0284 20.478C42.9717 20.4872 42.934 20.4965 42.9057 20.5056C42.8772 20.5239 42.849 20.5332 42.83 20.5607C42.8112 20.5792 42.8018 20.6067 42.8018 20.6344C42.8018 20.662 42.8018 20.6895 42.8018 20.7172C42.8018 20.7446 42.8112 20.7723 42.83 20.8C42.8394 20.8274 42.8584 20.8551 42.8772 20.8826L42.6977 20.9193C42.6789 20.8826 42.6601 20.8551 42.6505 20.8183C42.6411 20.7814 42.6317 20.7446 42.6223 20.6986C42.6129 20.662 42.6129 20.6252 42.6223 20.5792C42.6223 20.5332 42.6411 20.4965 42.6601 20.4596C42.6789 20.4228 42.7168 20.386 42.764 20.3585C42.8112 20.3309 42.8678 20.3126 42.9434 20.3032L43.8219 20.1838L43.7841 19.8986L43.9541 19.8711L43.992 20.1561L44.3885 20.101L44.4169 20.3032L44.0202 20.3585L44.077 20.7446L43.9069 20.754Z" fill="white"/>
<path d="M43.8507 21.9023C43.9074 21.8656 43.9546 21.8196 43.9828 21.7552C44.0113 21.6909 44.0303 21.6264 44.0207 21.5436C44.0207 21.5068 44.0113 21.4703 44.0019 21.4426C43.9924 21.4057 43.9734 21.3782 43.9546 21.3505C43.9357 21.3229 43.9074 21.3047 43.879 21.2863C43.8507 21.2677 43.813 21.2677 43.7751 21.2677C43.709 21.277 43.6617 21.3047 43.6335 21.3598C43.6051 21.4149 43.5769 21.4977 43.5673 21.6173C43.5484 21.7828 43.5012 21.9023 43.4446 21.9851C43.3878 22.0679 43.3029 22.1138 43.1895 22.123C43.1044 22.1324 43.0384 22.123 42.9818 22.0955C42.925 22.0679 42.8777 22.031 42.84 21.9851C42.8023 21.9391 42.7739 21.884 42.7551 21.8289C42.736 21.7643 42.7266 21.7092 42.7173 21.6449C42.7079 21.5436 42.7266 21.4426 42.7551 21.3415C42.7927 21.2401 42.8589 21.1575 42.9439 21.0839L43.0762 21.231C43.0193 21.2677 42.9722 21.3229 42.9346 21.3965C42.8967 21.4703 42.8777 21.5436 42.8871 21.6264C42.8871 21.6724 42.8967 21.7092 42.9062 21.7461C42.9156 21.7828 42.9346 21.8196 42.9533 21.8471C42.9722 21.8748 43.0006 21.8931 43.0384 21.9116C43.0762 21.9299 43.1139 21.9299 43.161 21.9299C43.2367 21.9208 43.2839 21.884 43.3217 21.8103C43.3502 21.7368 43.3784 21.6356 43.3974 21.4977C43.4067 21.4517 43.4162 21.4149 43.4256 21.3598C43.435 21.3138 43.454 21.2677 43.4824 21.231C43.5106 21.1942 43.539 21.1575 43.5863 21.1299C43.624 21.1022 43.6807 21.0839 43.7467 21.0747C43.8224 21.0656 43.879 21.0747 43.9357 21.1022C43.9924 21.1299 44.0303 21.1575 44.0679 21.2035C44.1057 21.2495 44.1341 21.2954 44.153 21.3505C44.1719 21.4057 44.1907 21.4703 44.1907 21.5345C44.2002 21.6264 44.1813 21.7275 44.1435 21.8196C44.1057 21.9116 44.049 21.9851 43.9734 22.0403L43.8507 21.9023Z" fill="white"/>
<path d="M15.5125 41.3439C15.5597 41.2334 15.5691 41.1415 15.5408 41.0587C15.5125 40.9761 15.4369 40.9116 15.3235 40.8657C15.248 40.8288 15.1724 40.8106 15.0874 40.8106C15.0119 40.8106 14.9363 40.8197 14.8702 40.8382L14.8229 40.6726C14.8984 40.645 14.993 40.6357 15.0968 40.6357C15.2007 40.645 15.3047 40.6726 15.418 40.7185C15.4841 40.746 15.5502 40.792 15.5974 40.8382C15.6447 40.8841 15.6919 40.9393 15.7202 40.9944C15.7486 41.0496 15.758 41.1141 15.758 41.1875C15.758 41.2519 15.7392 41.3254 15.7014 41.4082L15.4369 41.9509C15.418 41.9968 15.3897 42.052 15.3708 42.1071C15.3518 42.1622 15.333 42.2082 15.3235 42.245L15.1535 42.1716C15.163 42.1348 15.1724 42.1071 15.1912 42.0704C15.2007 42.0335 15.2197 41.9968 15.2385 41.9601H15.2291C15.1346 42.0152 15.0307 42.0429 14.9457 42.052C14.8513 42.052 14.7567 42.0335 14.6528 41.9875C14.6056 41.9692 14.5585 41.9324 14.5111 41.8956C14.4639 41.8588 14.4262 41.8128 14.3978 41.7669C14.3695 41.7208 14.3506 41.6657 14.3506 41.6015C14.3506 41.5369 14.36 41.4727 14.3978 41.4082C14.4451 41.3162 14.5017 41.2429 14.5868 41.2152C14.6623 41.1783 14.7473 41.1692 14.8513 41.1783C14.9457 41.1875 15.0495 41.2152 15.163 41.2611C15.2763 41.3071 15.3897 41.3531 15.503 41.399L15.5125 41.3439ZM15.3708 41.5094C15.2952 41.4727 15.2197 41.445 15.1346 41.4175C15.0495 41.3899 14.974 41.3715 14.9078 41.3622C14.8323 41.3531 14.7757 41.3531 14.7096 41.3715C14.6528 41.3899 14.6056 41.4267 14.5773 41.4818C14.5585 41.5278 14.549 41.5646 14.549 41.6015C14.549 41.6382 14.5679 41.6749 14.5868 41.7025C14.6056 41.7302 14.634 41.7669 14.6623 41.7853C14.6906 41.8128 14.7285 41.8313 14.7662 41.8496C14.8323 41.8773 14.8984 41.8956 14.9551 41.8956C15.0213 41.8956 15.078 41.8864 15.1252 41.868C15.1818 41.8496 15.2291 41.8129 15.2669 41.7762C15.3047 41.7394 15.3424 41.6843 15.3708 41.6289L15.418 41.5369L15.3708 41.5094Z" fill="white"/>
<path d="M16.0141 42.5212L15.8252 42.4477L16.3541 41.1694L16.5431 41.2431L16.0141 42.5212ZM16.7887 40.7648C16.7698 40.8017 16.7414 40.8291 16.7036 40.8385C16.6658 40.8476 16.6281 40.8568 16.5997 40.8385C16.5619 40.8291 16.5431 40.8017 16.5242 40.7648C16.5053 40.728 16.5053 40.6912 16.5242 40.6544C16.5431 40.6177 16.5714 40.5901 16.6092 40.581C16.647 40.5717 16.6848 40.5625 16.7131 40.581C16.7509 40.5901 16.7698 40.6177 16.7887 40.6544C16.7981 40.6912 16.7981 40.728 16.7887 40.7648Z" fill="white"/>
<path d="M17.8745 42.0341C17.8556 41.9698 17.8273 41.9146 17.7801 41.8594C17.7328 41.8042 17.6667 41.7674 17.5911 41.7399C17.5155 41.7122 17.44 41.7031 17.3644 41.7122C17.2888 41.7214 17.2227 41.7399 17.1661 41.7674C17.1 41.8042 17.0528 41.841 17.0055 41.9055C16.9583 41.9606 16.9205 42.0249 16.9016 42.0985C16.8733 42.1722 16.8639 42.2456 16.8639 42.3192C16.8639 42.3927 16.8827 42.4571 16.911 42.5215C16.9394 42.5859 16.9771 42.6411 17.0339 42.6871C17.0906 42.733 17.1567 42.7699 17.2322 42.7975C17.3173 42.825 17.3928 42.8341 17.4684 42.825C17.5345 42.8158 17.6007 42.7882 17.6572 42.7515L17.7706 42.9078C17.6856 42.9538 17.6007 42.9906 17.5061 42.9997C17.4117 43.0089 17.2983 42.9997 17.185 42.9629C17.0716 42.9261 16.9866 42.8801 16.911 42.8158C16.8354 42.7515 16.7788 42.6779 16.7316 42.5951C16.6937 42.5123 16.6655 42.4204 16.6655 42.3284C16.6561 42.2364 16.6749 42.1354 16.7127 42.0341C16.7505 41.933 16.7978 41.8502 16.8639 41.7766C16.9299 41.7031 16.996 41.648 17.0811 41.6111C17.1661 41.5743 17.2605 41.5467 17.355 41.5375C17.459 41.5283 17.5628 41.5467 17.6667 41.5834C17.7612 41.6111 17.8368 41.6662 17.9217 41.7308C17.9974 41.795 18.054 41.8778 18.0917 41.9698L17.8745 42.0341Z" fill="white"/>
<path d="M18.1477 43.956L17.9492 43.9099L18.4593 41.8867L18.6577 41.9327L18.601 42.1625H18.6105C18.6861 42.0892 18.7805 42.0432 18.8844 42.0155C18.9883 41.9971 19.0923 41.9971 19.1868 42.0155C19.2905 42.0432 19.3851 42.0798 19.4701 42.1351C19.5455 42.1902 19.6118 42.2639 19.659 42.3373C19.7062 42.4109 19.7346 42.5029 19.744 42.5948C19.7535 42.6868 19.7535 42.7879 19.725 42.8892C19.6968 42.9903 19.659 43.0731 19.6024 43.1559C19.5455 43.2293 19.4795 43.2938 19.4039 43.349C19.3285 43.3949 19.2434 43.4318 19.1395 43.4409C19.0449 43.4592 18.9411 43.45 18.8372 43.4225C18.7427 43.3949 18.6483 43.3581 18.5632 43.2846C18.4782 43.2202 18.4216 43.1374 18.3838 43.0362H18.3743L18.1477 43.956ZM19.5173 42.8432C19.5362 42.7696 19.5455 42.6959 19.5362 42.6225C19.5268 42.5488 19.5079 42.4846 19.4795 42.4293C19.4512 42.3741 19.4039 42.319 19.3472 42.273C19.2905 42.2271 19.2244 42.1994 19.1395 42.1811C19.0639 42.1625 18.9883 42.1625 18.9128 42.1718C18.8372 42.1811 18.771 42.2086 18.7144 42.2453C18.6577 42.2822 18.601 42.3281 18.5632 42.3925C18.516 42.4478 18.4876 42.5212 18.4688 42.5948C18.4499 42.6685 18.4405 42.742 18.4593 42.8156C18.4782 42.8892 18.4876 42.9535 18.5255 43.0086C18.5632 43.0639 18.6105 43.119 18.6672 43.165C18.7238 43.211 18.79 43.2385 18.8656 43.257C18.9505 43.2753 19.0261 43.2846 19.0923 43.2662C19.1678 43.257 19.2244 43.2293 19.2812 43.1925C19.3378 43.1559 19.3851 43.1099 19.4228 43.0455C19.4701 42.9811 19.4983 42.9167 19.5173 42.8432Z" fill="white"/>
<path d="M21.1323 42.9069C21.1513 42.7873 21.1323 42.6953 21.0756 42.6311C21.019 42.5666 20.934 42.5206 20.8111 42.5023C20.726 42.4931 20.6506 42.4931 20.575 42.5114C20.4994 42.5299 20.4333 42.5574 20.3767 42.6034L20.2823 42.4563C20.3483 42.4103 20.4333 42.3735 20.5371 42.3552C20.6412 42.3367 20.7451 42.3276 20.8677 42.346C20.9434 42.3552 21.0096 42.3735 21.0756 42.4103C21.1417 42.438 21.1891 42.4839 21.2363 42.5299C21.2835 42.5759 21.3118 42.6311 21.3307 42.7046C21.3495 42.7689 21.3495 42.8426 21.3401 42.9254L21.2457 43.523C21.2363 43.5782 21.2268 43.6333 21.2268 43.6886C21.2173 43.7438 21.2173 43.7897 21.2268 43.8357L21.0472 43.808C21.0472 43.7714 21.0472 43.7346 21.0472 43.6978C21.0472 43.661 21.0568 43.6241 21.0568 43.5874H21.0472C20.9718 43.6702 20.8868 43.7254 20.8017 43.7529C20.7167 43.7806 20.6128 43.7897 20.4994 43.7714C20.4427 43.762 20.3955 43.7438 20.3389 43.7254C20.2823 43.6978 20.235 43.6702 20.1972 43.6333C20.1594 43.5966 20.1216 43.5414 20.1027 43.4862C20.0837 43.4311 20.0744 43.3666 20.0837 43.284C20.1027 43.1827 20.1406 43.0999 20.2067 43.0448C20.2727 42.9897 20.3483 42.9529 20.4521 42.9437C20.5467 42.9254 20.66 42.9254 20.7733 42.9345C20.8961 42.9437 21.019 42.9529 21.1417 42.9805L21.1323 42.9069ZM21.0378 43.0999C20.9528 43.0908 20.8677 43.0816 20.7829 43.0725C20.6979 43.0633 20.6223 43.0725 20.5467 43.0816C20.4711 43.0908 20.4146 43.1092 20.3673 43.1461C20.3199 43.1827 20.2917 43.2287 20.2727 43.2932C20.2633 43.3392 20.2727 43.3851 20.2823 43.422C20.2917 43.4588 20.3199 43.4862 20.3483 43.5138C20.3767 43.5414 20.4146 43.5599 20.4521 43.569C20.49 43.5874 20.5277 43.5966 20.5656 43.5966C20.6412 43.6058 20.7073 43.6058 20.7639 43.5874C20.8205 43.569 20.8773 43.5414 20.9246 43.5138C20.9718 43.4771 21.0096 43.4311 21.0378 43.3851C21.0662 43.33 21.0851 43.2746 21.0945 43.2195L21.1134 43.1185L21.0378 43.0999Z" fill="white"/>
<path d="M22.0493 43.7625C22.0493 43.7994 22.0305 43.8362 21.9926 43.8729C21.9548 43.9004 21.917 43.9189 21.8698 43.9098C21.8225 43.9004 21.7849 43.8822 21.7565 43.8545C21.7282 43.8178 21.7188 43.781 21.7188 43.7442C21.7188 43.7074 21.7378 43.6706 21.7753 43.6338C21.8132 43.5971 21.8509 43.5878 21.8982 43.5971C21.9455 43.5971 21.9832 43.6246 22.0116 43.6522C22.0398 43.6797 22.0589 43.7166 22.0493 43.7625Z" fill="white"/>
<path d="M23.9672 43.3029C23.9672 43.4041 23.9388 43.5051 23.901 43.5878C23.8633 43.6706 23.8065 43.7534 23.7405 43.8086C23.6743 43.8731 23.5894 43.919 23.4948 43.9559C23.4004 43.9925 23.2964 44.0018 23.1832 44.0018C23.0698 44.0018 22.9753 43.9742 22.8809 43.9374C22.7864 43.9006 22.7108 43.8455 22.6448 43.7811C22.5786 43.7167 22.5313 43.6339 22.4936 43.5419C22.4559 43.45 22.4463 43.3581 22.4463 43.2478C22.4463 43.1465 22.4747 43.0454 22.5126 42.9626C22.5503 42.8798 22.607 42.7971 22.673 42.7418C22.7393 42.6776 22.8243 42.6316 22.9187 42.5948C23.0131 42.558 23.117 42.5488 23.2208 42.5488C23.3343 42.5488 23.4287 42.5765 23.5231 42.6132C23.6177 42.6499 23.6933 42.7051 23.7594 42.7695C23.8255 42.8338 23.8727 42.9166 23.9106 43.0085C23.9578 43.1005 23.9767 43.1925 23.9672 43.3029ZM23.75 43.2938C23.75 43.2201 23.7405 43.1465 23.7214 43.073C23.7027 43.0085 23.6648 42.9443 23.6177 42.8892C23.5704 42.8338 23.5137 42.7971 23.4476 42.7604C23.3815 42.7327 23.3059 42.7143 23.2208 42.7051C23.136 42.7051 23.0604 42.7143 22.9941 42.7418C22.9281 42.7695 22.8715 42.8064 22.8243 42.8523C22.777 42.8983 22.7393 42.9626 22.7108 43.0271C22.6826 43.0913 22.6636 43.165 22.6636 43.2385C22.6636 43.312 22.673 43.3857 22.692 43.4592C22.7108 43.5236 22.7486 43.5879 22.7959 43.6432C22.843 43.6983 22.8997 43.7352 22.9565 43.7627C23.0132 43.7903 23.0982 43.8086 23.1736 43.8086C23.2587 43.8086 23.3343 43.7994 23.4004 43.7718C23.4666 43.7443 23.5232 43.7075 23.5704 43.6615C23.6177 43.6156 23.6554 43.5513 23.6839 43.4869C23.7405 43.4408 23.75 43.3672 23.75 43.2938Z" fill="white"/>
<path d="M24.4106 42.75C24.4106 42.6947 24.4012 42.6396 24.3916 42.5935L24.5902 42.5844C24.5996 42.6212 24.5996 42.6672 24.5996 42.704C24.5996 42.75 24.6089 42.7867 24.6089 42.8143H24.6183C24.6562 42.7315 24.7128 42.6672 24.7884 42.6121C24.864 42.5568 24.9585 42.5293 25.053 42.5293C25.0811 42.5293 25.1002 42.5293 25.1286 42.5293C25.1474 42.5293 25.1758 42.5293 25.1947 42.5384L25.1758 42.7315C25.1662 42.7315 25.1474 42.7223 25.119 42.7223C25.0907 42.7223 25.0624 42.7223 25.034 42.7223C24.9773 42.7223 24.9301 42.7315 24.8734 42.7591C24.8262 42.7775 24.779 42.8143 24.7412 42.8603C24.7034 42.9062 24.6752 42.9614 24.6562 43.0259C24.6373 43.0902 24.6279 43.173 24.6279 43.2649L24.6562 43.973L24.4485 43.9821L24.4106 42.9062C24.4106 42.8603 24.4106 42.8143 24.4106 42.75Z" fill="white"/>
<path d="M25.7233 44.1854C25.7893 44.2496 25.8744 44.3049 25.9783 44.3416C26.0823 44.3784 26.1862 44.397 26.2994 44.3784C26.4034 44.3693 26.4789 44.3416 26.5546 44.3049C26.6206 44.2682 26.6773 44.2222 26.7153 44.1668C26.7528 44.1117 26.7813 44.0566 26.7907 43.983C26.8 43.9186 26.8096 43.8451 26.8 43.7716L26.7718 43.514H26.7624C26.7152 43.6061 26.649 43.6796 26.5546 43.7348C26.46 43.7899 26.3657 43.8268 26.2618 43.8359C26.1483 43.8451 26.0539 43.8451 25.9594 43.8175C25.865 43.7899 25.7799 43.7531 25.7139 43.698C25.6476 43.6428 25.5816 43.5784 25.5439 43.4956C25.4966 43.413 25.4682 43.3208 25.4588 43.2198C25.4494 43.1187 25.4588 43.0267 25.4776 42.9347C25.506 42.8428 25.5439 42.7691 25.6005 42.6955C25.657 42.6221 25.7233 42.5668 25.8083 42.5208C25.8934 42.4748 25.9879 42.4473 26.1011 42.4288C26.205 42.4196 26.309 42.4288 26.4129 42.4656C26.5167 42.5024 26.6017 42.5576 26.668 42.6404H26.6773L26.649 42.4014L26.8569 42.3828L27.008 43.744C27.0173 43.8175 27.0173 43.9002 27.008 43.983C26.9986 44.0658 26.9701 44.1486 26.9135 44.2314C26.8663 44.3049 26.7907 44.3784 26.6962 44.4335C26.6017 44.4889 26.4789 44.5257 26.3184 44.544C26.1862 44.5624 26.0633 44.544 25.9406 44.5072C25.8178 44.4704 25.7043 44.4152 25.6099 44.3416L25.7233 44.1854ZM25.6476 43.2105C25.657 43.2842 25.6762 43.3485 25.7043 43.413C25.7327 43.4773 25.7799 43.5233 25.8272 43.5692C25.8744 43.6152 25.9406 43.6428 26.0066 43.6703C26.0727 43.6888 26.1483 43.698 26.2334 43.6888C26.309 43.6796 26.3844 43.6612 26.4413 43.6244C26.5073 43.5875 26.5546 43.5509 26.6017 43.4956C26.649 43.4405 26.6773 43.3853 26.6962 43.3117C26.7152 43.2475 26.7246 43.1737 26.7153 43.091C26.7057 43.0175 26.6867 42.9531 26.649 42.8888C26.6111 42.8243 26.5734 42.7784 26.5167 42.7324C26.46 42.6863 26.4034 42.6589 26.3278 42.6312C26.2618 42.6129 26.1862 42.6036 26.1106 42.6128C26.0255 42.6221 25.95 42.6404 25.8934 42.6772C25.8272 42.714 25.7799 42.76 25.7422 42.8151C25.7043 42.8703 25.6762 42.9256 25.657 42.9991C25.6476 43.0635 25.6383 43.137 25.6476 43.2105Z" fill="white"/>
<path d="M27.5757 43.7253L27.3965 43.6978L27.8876 41.4355L28.067 41.4632L27.5757 43.7253Z" fill="white"/>
<path d="M29.1433 42.2632C29.096 42.2171 29.0394 42.1804 28.9732 42.1618C28.9072 42.1434 28.8316 42.1434 28.7559 42.1618C28.7183 42.1711 28.6899 42.1804 28.6521 42.1986C28.6142 42.2171 28.586 42.2355 28.567 42.2537C28.5482 42.2814 28.5292 42.309 28.5198 42.3365C28.5104 42.3641 28.5104 42.401 28.5198 42.4378C28.5388 42.5021 28.5764 42.539 28.6332 42.5664C28.6899 42.5849 28.7844 42.5941 28.9072 42.5941C29.0771 42.5849 29.2093 42.6032 29.3037 42.6492C29.3982 42.6952 29.455 42.7688 29.4832 42.8699C29.5023 42.9436 29.5023 43.0171 29.4832 43.0723C29.4644 43.1274 29.436 43.1825 29.3982 43.2285C29.3606 43.2745 29.3037 43.3113 29.2471 43.339C29.1905 43.3665 29.1243 43.3941 29.0677 43.4033C28.9637 43.4309 28.86 43.4309 28.7464 43.4127C28.6427 43.3941 28.5388 43.3481 28.4537 43.2745L28.586 43.1183C28.6332 43.1734 28.6993 43.2102 28.7749 43.2285C28.8504 43.2562 28.9354 43.2562 29.0204 43.2379C29.0677 43.2285 29.1054 43.2102 29.1433 43.2011C29.1811 43.1825 29.2093 43.1643 29.2377 43.1366C29.2661 43.1092 29.2756 43.0815 29.2944 43.0446C29.3037 43.0078 29.3037 42.9712 29.2944 42.9253C29.2756 42.8515 29.2283 42.8056 29.1527 42.7871C29.0771 42.7688 28.9637 42.7597 28.8221 42.7597C28.7749 42.7597 28.7277 42.7597 28.6804 42.7597C28.6332 42.7597 28.586 42.7411 28.5388 42.7228C28.4916 42.7045 28.4537 42.6769 28.4159 42.6401C28.3781 42.6032 28.3497 42.5573 28.3403 42.4929C28.3215 42.4285 28.3215 42.3641 28.3403 42.309C28.3593 42.2537 28.3781 42.2078 28.4159 42.1618C28.4537 42.1158 28.501 42.0792 28.5576 42.0516C28.6143 42.0239 28.6708 41.9964 28.7371 41.9871C28.8316 41.9688 28.9354 41.9596 29.0298 41.9871C29.1339 42.0055 29.2093 42.0516 29.2756 42.1158L29.1433 42.2632Z" fill="white"/>
<path d="M31.1926 42.024C31.2303 42.1252 31.2398 42.2172 31.2303 42.3182C31.2207 42.4103 31.202 42.5022 31.1547 42.585C31.117 42.6678 31.051 42.7412 30.9753 42.8056C30.8997 42.87 30.8051 42.9159 30.7014 42.9528C30.5974 42.9896 30.4936 42.9987 30.399 42.9987C30.2951 42.9896 30.2101 42.9712 30.125 42.9253C30.0402 42.8884 29.9646 42.824 29.8984 42.7597C29.8323 42.6861 29.785 42.6033 29.7473 42.5022C29.7094 42.401 29.7 42.3091 29.7094 42.2078C29.719 42.1159 29.7379 42.024 29.785 41.9412C29.8229 41.8585 29.889 41.7849 29.9646 41.7204C30.0402 41.6561 30.1346 41.6101 30.2386 41.5733C30.3423 41.5366 30.4462 41.5273 30.5503 41.5273C30.6541 41.5366 30.7391 41.555 30.8242 41.601C30.9093 41.6378 30.9847 41.7021 31.051 41.7664C31.117 41.8401 31.1641 41.9229 31.1926 42.024ZM30.9941 42.0884C30.9658 42.0147 30.9374 41.9505 30.8902 41.8952C30.843 41.8401 30.7957 41.7941 30.7297 41.7573C30.6729 41.7204 30.6069 41.7021 30.5313 41.6929C30.4558 41.6838 30.3802 41.6929 30.3046 41.7204C30.2291 41.7481 30.1629 41.7849 30.1063 41.8309C30.0496 41.8768 30.0118 41.9319 29.9834 41.9965C29.9552 42.0607 29.9362 42.1252 29.9362 42.1987C29.9362 42.2723 29.9458 42.3459 29.974 42.4194C30.0023 42.493 30.0306 42.5573 30.0778 42.6126C30.125 42.6678 30.1723 42.7138 30.2386 42.7506C30.2951 42.7872 30.3614 42.8056 30.4368 42.8149C30.5124 42.824 30.5785 42.8149 30.6635 42.7872C30.7391 42.7597 30.8051 42.7228 30.862 42.6769C30.9187 42.631 30.9564 42.5758 30.9847 42.5113C31.013 42.447 31.0224 42.3826 31.0318 42.3091C31.0224 42.2354 31.013 42.1619 30.9941 42.0884Z" fill="white"/>
<path d="M32.4394 41.1051C32.3828 41.0683 32.3262 41.0497 32.2506 41.0406C32.1749 41.0315 32.0995 41.0497 32.0333 41.0774C31.9578 41.1051 31.8916 41.1511 31.8443 41.2062C31.7972 41.2613 31.7593 41.3165 31.7311 41.3809C31.7121 41.4453 31.7026 41.5097 31.7026 41.5831C31.7026 41.6568 31.7217 41.7304 31.7593 41.8039C31.7877 41.8775 31.8349 41.9418 31.8822 41.9878C31.9293 42.0431 31.986 42.0797 32.0522 42.1074C32.1183 42.135 32.1845 42.1534 32.2599 42.1534C32.3356 42.1534 32.4112 42.135 32.4867 42.1074C32.5717 42.0706 32.638 42.0246 32.6756 41.9694C32.7227 41.9143 32.7512 41.8592 32.7606 41.7947L32.9494 41.8406C32.9213 41.9327 32.8834 42.0154 32.8173 42.089C32.7512 42.1625 32.6661 42.2269 32.5529 42.2729C32.4489 42.319 32.345 42.3372 32.2412 42.3464C32.1372 42.3464 32.0522 42.3372 31.9578 42.3004C31.8728 42.2638 31.7972 42.2178 31.7217 42.1442C31.6555 42.0797 31.5988 41.9971 31.5516 41.8958C31.5138 41.8039 31.4854 41.7027 31.4854 41.6108C31.4854 41.5188 31.4949 41.4269 31.5326 41.3441C31.5704 41.2613 31.6176 41.1785 31.6933 41.1143C31.7593 41.0406 31.8538 40.9855 31.9578 40.9487C32.0428 40.9118 32.1372 40.8936 32.2506 40.8936C32.364 40.8936 32.4489 40.921 32.5435 40.9669L32.4394 41.1051Z" fill="white"/>
</g>
<defs>
<clipPath id="clip0_4751_3641">
<rect width="48" height="46.1538" fill="white"/>
</clipPath>
</defs>
</svg>
