<svg
  xmlns="http://www.w3.org/2000/svg"
  width="16"
  height="16"
  viewBox="0 0 16 16"
  fill="none"
  className="mr-2"
>
  <path
    d="M11.2333 12.3867C12.3263 11.6875 13.1631 10.6529 13.6184 9.43795C14.0737 8.22303 14.1229 6.89325 13.7587 5.64799C13.3945 4.40273 12.6364 3.30909 11.5982 2.53102C10.5599 1.75296 9.29744 1.3324 8 1.3324C6.70256 1.3324 5.44008 1.75296 4.40184 2.53102C3.36359 3.30909 2.60552 4.40273 2.24129 5.64799C1.87705 6.89325 1.92628 8.22303 2.38158 9.43795C2.83689 10.6529 3.67374 11.6875 4.76667 12.3867"
    stroke="#0B0C0E"
    strokeWidth="1.33333"
    strokeLinecap="round"
    strokeLinejoin="round"
  />
  <path
    d="M5.33329 9.33333C4.96187 8.8381 4.73569 8.24922 4.6801 7.63269C4.6245 7.01615 4.74169 6.39631 5.01854 5.84262C5.29538 5.28894 5.72094 4.82328 6.24752 4.49783C6.77411 4.17238 7.38092 4 7.99996 4C8.619 4 9.22581 4.17238 9.7524 4.49783C10.279 4.82328 10.7045 5.28894 10.9814 5.84262C11.2582 6.39631 11.3754 7.01615 11.3198 7.63269C11.2642 8.24922 11.0381 8.8381 10.6666 9.33333"
    stroke="#0B0C0E"
    strokeWidth="1.33333"
    strokeLinecap="round"
    strokeLinejoin="round"
  />
  <path
    d="M8.00004 7.99999C8.36823 7.99999 8.66671 7.70151 8.66671 7.33332C8.66671 6.96513 8.36823 6.66666 8.00004 6.66666C7.63185 6.66666 7.33337 6.96513 7.33337 7.33332C7.33337 7.70151 7.63185 7.99999 8.00004 7.99999Z"
    stroke="#0B0C0E"
    strokeWidth="1.33333"
    strokeLinecap="round"
    strokeLinejoin="round"
  />
  <path
    d="M8.66671 11.3333C8.66671 11.1565 8.59647 10.9869 8.47145 10.8619C8.34642 10.7369 8.17685 10.6667 8.00004 10.6667C7.82323 10.6667 7.65366 10.7369 7.52864 10.8619C7.40361 10.9869 7.33337 11.1565 7.33337 11.3333L7.66671 14.3333C7.66671 14.4217 7.70183 14.5065 7.76434 14.569C7.82685 14.6315 7.91164 14.6667 8.00004 14.6667C8.08845 14.6667 8.17323 14.6315 8.23574 14.569C8.29826 14.5065 8.33337 14.4217 8.33337 14.3333L8.66671 11.3333Z"
    stroke="#0B0C0E"
    strokeWidth="1.33333"
    strokeLinecap="round"
    strokeLinejoin="round"
  />
</svg>