<svg width="20" height="20" viewBox="0 0 20 20" fill="none" xmlns="http://www.w3.org/2000/svg">
<g clip-path="url(#clip0_274_35347)">
<path d="M19.6551 16.5518H0.344843C0.154414 16.5518 0 16.3973 0 16.2069V3.79315C0 3.60272 0.154414 3.4483 0.344843 3.4483H19.6552C19.8456 3.4483 20 3.60272 20 3.79315V16.2069C20 16.3974 19.8455 16.5518 19.6551 16.5518Z" fill="#F5F5F5"/>
<path d="M20 4.45631H0V3.79315C0 3.60272 0.154414 3.4483 0.344843 3.4483H19.6552C19.8456 3.4483 20 3.60272 20 3.79315L20 4.45631Z" fill="#FF4B55"/>
<path d="M20 7.48016H0V8.48813H20V7.48016Z" fill="#FF4B55"/>
<path d="M20 5.46417H0V6.47214H20V5.46417Z" fill="#FF4B55"/>
<path d="M20 10.504H0.344843C0.154414 10.504 0 10.3496 0 10.1592V9.49603H20V10.504Z" fill="#FF4B55"/>
<path d="M20 13.5282H0V14.5362H20V13.5282Z" fill="#FF4B55"/>
<path d="M19.6551 16.5518H0.344843C0.154414 16.5518 0 16.3974 0 16.2069V15.5438H20V16.207C20 16.3974 19.8455 16.5518 19.6551 16.5518Z" fill="#FF4B55"/>
<path d="M20 11.5121H0V12.5201H20V11.5121Z" fill="#FF4B55"/>
<path d="M8.96549 3.44836H0.344843C0.154414 3.44836 0 3.60274 0 3.79317V10.1592C0 10.3496 0.154414 10.504 0.344843 10.504H8.96553C9.15596 10.504 9.31037 10.3496 9.31037 10.1592V3.79317C9.31033 3.60274 9.15592 3.44836 8.96549 3.44836Z" fill="#41479B"/>
<path d="M0.968216 4.23982L1.04454 4.46873L1.28583 4.47056C1.31708 4.47084 1.33001 4.51068 1.3049 4.52923L1.11079 4.67259L1.18361 4.90263C1.19306 4.9324 1.15911 4.95709 1.13368 4.93888L0.937396 4.79861L0.741107 4.93892C0.715678 4.95709 0.681811 4.93244 0.691186 4.90267L0.763998 4.67263L0.569897 4.52927C0.54478 4.51068 0.557709 4.47088 0.588959 4.4706L0.830248 4.46877L0.906576 4.23986C0.916419 4.21017 0.958294 4.21017 0.968216 4.23982Z" fill="#F5F5F5"/>
<path d="M0.968216 5.43718L1.04454 5.66609L1.28583 5.66792C1.31708 5.6682 1.33001 5.70804 1.3049 5.72659L1.11079 5.86995L1.18361 6.09999C1.19306 6.12976 1.15911 6.15444 1.13368 6.13624L0.937396 5.99597L0.741107 6.13628C0.715678 6.15444 0.681811 6.1298 0.691186 6.10003L0.763998 5.86999L0.569897 5.72663C0.54478 5.70804 0.557709 5.66823 0.588959 5.66796L0.830248 5.66612L0.906576 5.43722C0.91642 5.40757 0.958294 5.40757 0.968216 5.43718Z" fill="#F5F5F5"/>
<path d="M0.968216 6.63463L1.04454 6.86353L1.28583 6.86537C1.31708 6.86564 1.33001 6.90549 1.3049 6.92404L1.11079 7.0674L1.18361 7.29744C1.19306 7.3272 1.15911 7.35189 1.13368 7.33369L0.937396 7.19342L0.741107 7.33373C0.715678 7.35189 0.681811 7.32724 0.691186 7.29748L0.763998 7.06744L0.569897 6.92408C0.54478 6.90549 0.557709 6.86568 0.588959 6.86541L0.830248 6.86357L0.906576 6.63467C0.91642 6.60502 0.958294 6.60502 0.968216 6.63463Z" fill="#F5F5F5"/>
<path d="M0.968216 7.83211L1.04454 8.06101L1.28583 8.06285C1.31708 8.06312 1.33001 8.10297 1.3049 8.12152L1.11079 8.26488L1.18361 8.49492C1.19306 8.52468 1.15911 8.54937 1.13368 8.53117L0.937396 8.39089L0.741107 8.53121C0.715678 8.54937 0.681811 8.52472 0.691186 8.49496L0.763998 8.26492L0.569897 8.12156C0.54478 8.10297 0.557709 8.06316 0.588959 8.06289L0.830248 8.06105L0.906576 7.83215C0.91642 7.80246 0.958294 7.80246 0.968216 7.83211Z" fill="#F5F5F5"/>
<path d="M0.968216 9.02946L1.04454 9.25837L1.28583 9.2602C1.31708 9.26048 1.33001 9.30032 1.3049 9.31888L1.11079 9.46223L1.18361 9.69227C1.19306 9.72204 1.15911 9.74673 1.13368 9.72852L0.937396 9.58825L0.741107 9.72856C0.715678 9.74673 0.681811 9.72208 0.691186 9.69231L0.763998 9.46227L0.569897 9.31892C0.54478 9.30032 0.557709 9.26052 0.588959 9.26024L0.830248 9.25841L0.906576 9.0295C0.91642 8.99978 0.958294 8.99978 0.968216 9.02946Z" fill="#F5F5F5"/>
<path d="M1.8979 4.82683L1.97423 5.05574L2.21552 5.05758C2.24677 5.05785 2.2597 5.09769 2.23458 5.11625L2.04048 5.25961L2.11329 5.48965C2.12275 5.51941 2.0888 5.5441 2.06337 5.52589L1.86708 5.38558L1.67079 5.52589C1.64537 5.54406 1.6115 5.51941 1.62087 5.48965L1.69369 5.25961L1.49958 5.11625C1.47447 5.09765 1.4874 5.05785 1.51865 5.05758L1.75994 5.05574L1.83626 4.82683C1.84607 4.79722 1.88802 4.79722 1.8979 4.82683Z" fill="#F5F5F5"/>
<path d="M1.8979 6.02431L1.97423 6.25322L2.21552 6.25505C2.24677 6.25533 2.2597 6.29517 2.23458 6.31372L2.04048 6.45708L2.11329 6.68712C2.12275 6.71689 2.0888 6.74157 2.06337 6.72337L1.86708 6.58306L1.67079 6.72337C1.64537 6.74154 1.6115 6.71693 1.62087 6.68712L1.69369 6.45708L1.49958 6.31372C1.47447 6.29513 1.4874 6.25533 1.51865 6.25505L1.75994 6.25322L1.83626 6.02431C1.84607 5.99466 1.88802 5.99466 1.8979 6.02431Z" fill="#F5F5F5"/>
<path d="M1.8979 7.2217L1.97423 7.4506L2.21552 7.45244C2.24677 7.45271 2.2597 7.49256 2.23458 7.51111L2.04048 7.65447L2.11329 7.88451C2.12275 7.91428 2.0888 7.93896 2.06337 7.92076L1.86708 7.78045L1.67079 7.92076C1.64537 7.93892 1.6115 7.91428 1.62087 7.88451L1.69369 7.65447L1.49958 7.51111C1.47447 7.49252 1.4874 7.45271 1.51865 7.45244L1.75994 7.4506L1.83626 7.2217C1.84607 7.19205 1.88802 7.19205 1.8979 7.2217Z" fill="#F5F5F5"/>
<path d="M1.8979 8.41912L1.97423 8.64802L2.21552 8.64986C2.24677 8.65013 2.2597 8.68998 2.23458 8.70853L2.04048 8.85189L2.11329 9.08193C2.12275 9.1117 2.0888 9.13638 2.06337 9.11818L1.86708 8.97787L1.67079 9.11818C1.64537 9.13634 1.6115 9.1117 1.62087 9.08193L1.69369 8.85189L1.49958 8.70853C1.47447 8.68994 1.4874 8.65013 1.51865 8.64986L1.75994 8.64802L1.83626 8.41912C1.84607 8.38951 1.88802 8.38951 1.8979 8.41912Z" fill="#F5F5F5"/>
<path d="M2.82759 4.23977L2.90392 4.46867L3.14521 4.47051C3.17646 4.47078 3.18939 4.51062 3.16427 4.52918L2.97017 4.67254L3.04298 4.90258C3.05243 4.93234 3.01849 4.95703 2.99306 4.93883L2.79677 4.79851L2.60048 4.93883C2.57505 4.95699 2.54119 4.93234 2.55056 4.90258L2.62337 4.67254L2.42927 4.52918C2.40415 4.51058 2.41708 4.47078 2.44833 4.47051L2.68962 4.46867L2.76595 4.23977C2.77579 4.21012 2.81771 4.21012 2.82759 4.23977Z" fill="#F5F5F5"/>
<path d="M2.82759 5.43719L2.90392 5.66609L3.14521 5.66793C3.17646 5.6682 3.18939 5.70804 3.16427 5.7266L2.97017 5.86996L3.04298 6.1C3.05243 6.12976 3.01849 6.15445 2.99306 6.13625L2.79677 5.99593L2.60048 6.13625C2.57505 6.15441 2.54119 6.12976 2.55056 6.1L2.62337 5.86996L2.42927 5.7266C2.40415 5.708 2.41708 5.6682 2.44833 5.66793L2.68962 5.66609L2.76595 5.43719C2.77579 5.40758 2.81771 5.40758 2.82759 5.43719Z" fill="#F5F5F5"/>
<path d="M2.82759 6.63463L2.90392 6.86354L3.14521 6.86538C3.17646 6.86565 3.18939 6.90549 3.16427 6.92405L2.97017 7.06741L3.04298 7.29745C3.05243 7.32721 3.01849 7.3519 2.99306 7.3337L2.79677 7.19338L2.60048 7.3337C2.57505 7.35186 2.54119 7.32721 2.55056 7.29745L2.62337 7.06741L2.42927 6.92405C2.40415 6.90545 2.41708 6.86565 2.44833 6.86538L2.68962 6.86354L2.76595 6.63463C2.77579 6.60502 2.81771 6.60502 2.82759 6.63463Z" fill="#F5F5F5"/>
<path d="M2.82759 7.83205L2.90392 8.06096L3.14521 8.06279C3.17646 8.06307 3.18939 8.10291 3.16427 8.12146L2.97017 8.26482L3.04298 8.49486C3.05243 8.52463 3.01849 8.54931 2.99306 8.53111L2.79677 8.3908L2.60048 8.53111C2.57505 8.54928 2.54119 8.52463 2.55056 8.49486L2.62337 8.26482L2.42927 8.12146C2.40415 8.10287 2.41708 8.06307 2.44833 8.06279L2.68962 8.06096L2.76595 7.83205C2.77579 7.8024 2.81771 7.8024 2.82759 7.83205Z" fill="#F5F5F5"/>
<path d="M2.82759 9.02947L2.90392 9.25837L3.14521 9.26021C3.17646 9.26048 3.18939 9.30033 3.16427 9.31888L2.97017 9.46224L3.04298 9.69228C3.05243 9.72204 3.01849 9.74673 2.99306 9.72853L2.79677 9.58822L2.60048 9.72853C2.57505 9.74669 2.54119 9.72204 2.55056 9.69228L2.62337 9.46224L2.42927 9.31888C2.40415 9.30029 2.41708 9.26048 2.44833 9.26021L2.68962 9.25837L2.76595 9.02947C2.77579 8.99978 2.81771 8.99978 2.82759 9.02947Z" fill="#F5F5F5"/>
<path d="M3.75728 4.82683L3.83361 5.05574L4.0749 5.05758C4.10615 5.05785 4.11907 5.09769 4.09396 5.11625L3.89986 5.25961L3.97267 5.48965C3.98212 5.51941 3.94818 5.5441 3.92275 5.52589L3.72646 5.38558L3.53017 5.52589C3.50474 5.54406 3.47087 5.51941 3.48025 5.48965L3.55306 5.25961L3.35896 5.11625C3.33384 5.09765 3.34677 5.05785 3.37802 5.05758L3.61931 5.05574L3.69564 4.82683C3.70544 4.79722 3.7474 4.79722 3.75728 4.82683Z" fill="#F5F5F5"/>
<path d="M3.75728 6.02431L3.83361 6.25322L4.0749 6.25505C4.10615 6.25533 4.11907 6.29517 4.09396 6.31372L3.89986 6.45708L3.97267 6.68712C3.98212 6.71689 3.94818 6.74157 3.92275 6.72337L3.72646 6.58306L3.53017 6.72337C3.50474 6.74154 3.47087 6.71693 3.48025 6.68712L3.55306 6.45708L3.35896 6.31372C3.33384 6.29513 3.34677 6.25533 3.37802 6.25505L3.61931 6.25322L3.69564 6.02431C3.70544 5.99466 3.7474 5.99466 3.75728 6.02431Z" fill="#F5F5F5"/>
<path d="M3.75728 7.2217L3.83361 7.4506L4.0749 7.45244C4.10615 7.45271 4.11907 7.49256 4.09396 7.51111L3.89986 7.65447L3.97267 7.88451C3.98212 7.91428 3.94818 7.93896 3.92275 7.92076L3.72646 7.78045L3.53017 7.92076C3.50474 7.93892 3.47087 7.91428 3.48025 7.88451L3.55306 7.65447L3.35896 7.51111C3.33384 7.49252 3.34677 7.45271 3.37802 7.45244L3.61931 7.4506L3.69564 7.2217C3.70544 7.19205 3.7474 7.19205 3.75728 7.2217Z" fill="#F5F5F5"/>
<path d="M3.75728 8.41912L3.83361 8.64802L4.0749 8.64986C4.10615 8.65013 4.11907 8.68998 4.09396 8.70853L3.89986 8.85189L3.97267 9.08193C3.98212 9.1117 3.94818 9.13638 3.92275 9.11818L3.72646 8.97787L3.53017 9.11818C3.50474 9.13634 3.47087 9.1117 3.48025 9.08193L3.55306 8.85189L3.35896 8.70853C3.33384 8.68994 3.34677 8.65013 3.37802 8.64986L3.61931 8.64802L3.69564 8.41912C3.70544 8.38951 3.7474 8.38951 3.75728 8.41912Z" fill="#F5F5F5"/>
<path d="M4.68701 4.23977L4.76333 4.46867L5.00462 4.47051C5.03587 4.47078 5.0488 4.51062 5.02368 4.52918L4.82958 4.67254L4.9024 4.90258C4.91185 4.93234 4.8779 4.95703 4.85247 4.93883L4.65615 4.79851L4.45986 4.93883C4.43443 4.95699 4.40056 4.93234 4.40994 4.90258L4.48275 4.67254L4.28865 4.52918C4.26353 4.51058 4.27646 4.47078 4.30771 4.47051L4.549 4.46867L4.62533 4.23977C4.63521 4.21012 4.67712 4.21012 4.68701 4.23977Z" fill="#F5F5F5"/>
<path d="M4.68701 5.43719L4.76333 5.66609L5.00462 5.66793C5.03587 5.6682 5.0488 5.70804 5.02368 5.7266L4.82958 5.86996L4.9024 6.1C4.91185 6.12976 4.8779 6.15445 4.85247 6.13625L4.65615 5.99593L4.45986 6.13625C4.43443 6.15441 4.40056 6.12976 4.40994 6.1L4.48275 5.86996L4.28865 5.7266C4.26353 5.708 4.27646 5.6682 4.30771 5.66793L4.549 5.66609L4.62533 5.43719C4.63521 5.40758 4.67712 5.40758 4.68701 5.43719Z" fill="#F5F5F5"/>
<path d="M4.68701 6.63463L4.76333 6.86354L5.00462 6.86538C5.03587 6.86565 5.0488 6.90549 5.02368 6.92405L4.82958 7.06741L4.9024 7.29745C4.91185 7.32721 4.8779 7.3519 4.85247 7.3337L4.65615 7.19338L4.45986 7.3337C4.43443 7.35186 4.40056 7.32721 4.40994 7.29745L4.48275 7.06741L4.28865 6.92405C4.26353 6.90545 4.27646 6.86565 4.30771 6.86538L4.549 6.86354L4.62533 6.63463C4.63521 6.60502 4.67712 6.60502 4.68701 6.63463Z" fill="#F5F5F5"/>
<path d="M4.68701 7.83205L4.76333 8.06096L5.00462 8.06279C5.03587 8.06307 5.0488 8.10291 5.02368 8.12146L4.82958 8.26482L4.9024 8.49486C4.91185 8.52463 4.8779 8.54931 4.85247 8.53111L4.65615 8.3908L4.45986 8.53111C4.43443 8.54928 4.40056 8.52463 4.40994 8.49486L4.48275 8.26482L4.28865 8.12146C4.26353 8.10287 4.27646 8.06307 4.30771 8.06279L4.549 8.06096L4.62533 7.83205C4.63521 7.8024 4.67712 7.8024 4.68701 7.83205Z" fill="#F5F5F5"/>
<path d="M4.68701 9.02947L4.76333 9.25837L5.00462 9.26021C5.03587 9.26048 5.0488 9.30033 5.02368 9.31888L4.82958 9.46224L4.9024 9.69228C4.91185 9.72204 4.8779 9.74673 4.85247 9.72853L4.65615 9.58822L4.45986 9.72853C4.43443 9.74669 4.40056 9.72204 4.40994 9.69228L4.48275 9.46224L4.28865 9.31888C4.26353 9.30029 4.27646 9.26048 4.30771 9.26021L4.549 9.25837L4.62533 9.02947C4.63521 8.99978 4.67712 8.99978 4.68701 9.02947Z" fill="#F5F5F5"/>
<path d="M5.6147 4.82683L5.69103 5.05574L5.93232 5.05758C5.96357 5.05785 5.9765 5.09769 5.95138 5.11625L5.75728 5.25961L5.83009 5.48965C5.83954 5.51941 5.8056 5.5441 5.78017 5.52589L5.58388 5.38558L5.38759 5.52589C5.36216 5.54406 5.32829 5.51941 5.33767 5.48965L5.41048 5.25961L5.21638 5.11625C5.19126 5.09765 5.20419 5.05785 5.23544 5.05758L5.47673 5.05574L5.55306 4.82683C5.56294 4.79722 5.60482 4.79722 5.6147 4.82683Z" fill="#F5F5F5"/>
<path d="M5.6147 6.02431L5.69103 6.25322L5.93232 6.25505C5.96357 6.25533 5.9765 6.29517 5.95138 6.31372L5.75728 6.45708L5.83009 6.68712C5.83954 6.71689 5.8056 6.74157 5.78017 6.72337L5.58388 6.58306L5.38759 6.72337C5.36216 6.74154 5.32829 6.71693 5.33767 6.68712L5.41048 6.45708L5.21638 6.31372C5.19126 6.29513 5.20419 6.25533 5.23544 6.25505L5.47673 6.25322L5.55306 6.02431C5.56294 5.99466 5.60482 5.99466 5.6147 6.02431Z" fill="#F5F5F5"/>
<path d="M5.6147 7.2217L5.69103 7.4506L5.93232 7.45244C5.96357 7.45271 5.9765 7.49256 5.95138 7.51111L5.75728 7.65447L5.83009 7.88451C5.83954 7.91428 5.8056 7.93896 5.78017 7.92076L5.58388 7.78045L5.38759 7.92076C5.36216 7.93892 5.32829 7.91428 5.33767 7.88451L5.41048 7.65447L5.21638 7.51111C5.19126 7.49252 5.20419 7.45271 5.23544 7.45244L5.47673 7.4506L5.55306 7.2217C5.56294 7.19205 5.60482 7.19205 5.6147 7.2217Z" fill="#F5F5F5"/>
<path d="M5.6147 8.41912L5.69103 8.64802L5.93232 8.64986C5.96357 8.65013 5.9765 8.68998 5.95138 8.70853L5.75728 8.85189L5.83009 9.08193C5.83954 9.1117 5.8056 9.13638 5.78017 9.11818L5.58388 8.97787L5.38759 9.11818C5.36216 9.13634 5.32829 9.1117 5.33767 9.08193L5.41048 8.85189L5.21638 8.70853C5.19126 8.68994 5.20419 8.65013 5.23544 8.64986L5.47673 8.64802L5.55306 8.41912C5.56294 8.38951 5.60482 8.38951 5.6147 8.41912Z" fill="#F5F5F5"/>
<path d="M6.54439 4.23977L6.62072 4.46867L6.86201 4.47051C6.89326 4.47078 6.90619 4.51062 6.88107 4.52918L6.68697 4.67254L6.75978 4.90258C6.76923 4.93234 6.73529 4.95703 6.70986 4.93883L6.51357 4.79851L6.31728 4.93883C6.29185 4.95699 6.25798 4.93234 6.26736 4.90258L6.34017 4.67254L6.14607 4.52918C6.12095 4.51058 6.13388 4.47078 6.16513 4.47051L6.40642 4.46867L6.48275 4.23977C6.49255 4.21012 6.53451 4.21012 6.54439 4.23977Z" fill="#F5F5F5"/>
<path d="M6.54439 5.43719L6.62072 5.66609L6.86201 5.66793C6.89326 5.6682 6.90619 5.70804 6.88107 5.7266L6.68697 5.86996L6.75978 6.1C6.76923 6.12976 6.73529 6.15445 6.70986 6.13625L6.51357 5.99593L6.31728 6.13625C6.29185 6.15441 6.25798 6.12976 6.26736 6.1L6.34017 5.86996L6.14607 5.7266C6.12095 5.708 6.13388 5.6682 6.16513 5.66793L6.40642 5.66609L6.48275 5.43719C6.49255 5.40758 6.53451 5.40758 6.54439 5.43719Z" fill="#F5F5F5"/>
<path d="M6.54439 6.63463L6.62072 6.86354L6.86201 6.86538C6.89326 6.86565 6.90619 6.90549 6.88107 6.92405L6.68697 7.06741L6.75978 7.29745C6.76923 7.32721 6.73529 7.3519 6.70986 7.3337L6.51357 7.19338L6.31728 7.3337C6.29185 7.35186 6.25798 7.32721 6.26736 7.29745L6.34017 7.06741L6.14607 6.92405C6.12095 6.90545 6.13388 6.86565 6.16513 6.86538L6.40642 6.86354L6.48275 6.63463C6.49255 6.60502 6.53451 6.60502 6.54439 6.63463Z" fill="#F5F5F5"/>
<path d="M6.54439 7.83205L6.62072 8.06096L6.86201 8.06279C6.89326 8.06307 6.90619 8.10291 6.88107 8.12146L6.68697 8.26482L6.75978 8.49486C6.76923 8.52463 6.73529 8.54931 6.70986 8.53111L6.51357 8.3908L6.31728 8.53111C6.29185 8.54928 6.25798 8.52463 6.26736 8.49486L6.34017 8.26482L6.14607 8.12146C6.12095 8.10287 6.13388 8.06307 6.16513 8.06279L6.40642 8.06096L6.48275 7.83205C6.49255 7.8024 6.53451 7.8024 6.54439 7.83205Z" fill="#F5F5F5"/>
<path d="M6.54439 9.02947L6.62072 9.25837L6.86201 9.26021C6.89326 9.26048 6.90619 9.30033 6.88107 9.31888L6.68697 9.46224L6.75978 9.69228C6.76923 9.72204 6.73529 9.74673 6.70986 9.72853L6.51357 9.58822L6.31728 9.72853C6.29185 9.74669 6.25798 9.72204 6.26736 9.69228L6.34017 9.46224L6.14607 9.31888C6.12095 9.30029 6.13388 9.26048 6.16513 9.26021L6.40642 9.25837L6.48275 9.02947C6.49255 8.99978 6.53451 8.99978 6.54439 9.02947Z" fill="#F5F5F5"/>
<path d="M7.47408 4.82683L7.5504 5.05574L7.79169 5.05758C7.82294 5.05785 7.83587 5.09769 7.81075 5.11625L7.61665 5.25961L7.68947 5.48965C7.69892 5.51941 7.66497 5.5441 7.63954 5.52589L7.44325 5.38558L7.24697 5.52589C7.22154 5.54406 7.18767 5.51941 7.19704 5.48965L7.26986 5.25961L7.07576 5.11625C7.05064 5.09765 7.06357 5.05785 7.09482 5.05758L7.33611 5.05574L7.41244 4.82683C7.42228 4.79722 7.46423 4.79722 7.47408 4.82683Z" fill="#F5F5F5"/>
<path d="M7.47408 6.02431L7.5504 6.25322L7.79169 6.25505C7.82294 6.25533 7.83587 6.29517 7.81075 6.31372L7.61665 6.45708L7.68947 6.68712C7.69892 6.71689 7.66497 6.74157 7.63954 6.72337L7.44325 6.58306L7.24697 6.72337C7.22154 6.74154 7.18767 6.71693 7.19704 6.68712L7.26986 6.45708L7.07576 6.31372C7.05064 6.29513 7.06357 6.25533 7.09482 6.25505L7.33611 6.25322L7.41244 6.02431C7.42228 5.99466 7.46423 5.99466 7.47408 6.02431Z" fill="#F5F5F5"/>
<path d="M7.47408 7.2217L7.5504 7.4506L7.79169 7.45244C7.82294 7.45271 7.83587 7.49256 7.81075 7.51111L7.61665 7.65447L7.68947 7.88451C7.69892 7.91428 7.66497 7.93896 7.63954 7.92076L7.44325 7.78045L7.24697 7.92076C7.22154 7.93892 7.18767 7.91428 7.19704 7.88451L7.26986 7.65447L7.07576 7.51111C7.05064 7.49252 7.06357 7.45271 7.09482 7.45244L7.33611 7.4506L7.41244 7.2217C7.42228 7.19205 7.46423 7.19205 7.47408 7.2217Z" fill="#F5F5F5"/>
<path d="M7.47408 8.41912L7.5504 8.64802L7.79169 8.64986C7.82294 8.65013 7.83587 8.68998 7.81075 8.70853L7.61665 8.85189L7.68947 9.08193C7.69892 9.1117 7.66497 9.13638 7.63954 9.11818L7.44325 8.97787L7.24697 9.11818C7.22154 9.13634 7.18767 9.1117 7.19704 9.08193L7.26986 8.85189L7.07576 8.70853C7.05064 8.68994 7.06357 8.65013 7.09482 8.64986L7.33611 8.64802L7.41244 8.41912C7.42228 8.38951 7.46423 8.38951 7.47408 8.41912Z" fill="#F5F5F5"/>
<path d="M8.40376 4.23977L8.48009 4.46867L8.72138 4.47051C8.75263 4.47078 8.76556 4.51062 8.74044 4.52918L8.54634 4.67254L8.61915 4.90258C8.62861 4.93234 8.59466 4.95703 8.56923 4.93883L8.37294 4.79851L8.17665 4.93883C8.15123 4.95699 8.11736 4.93234 8.12673 4.90258L8.19955 4.67254L8.00544 4.52918C7.98033 4.51058 7.99326 4.47078 8.02451 4.47051L8.2658 4.46867L8.34212 4.23977C8.35197 4.21012 8.39384 4.21012 8.40376 4.23977Z" fill="#F5F5F5"/>
<path d="M8.40376 5.43719L8.48009 5.66609L8.72138 5.66793C8.75263 5.6682 8.76556 5.70804 8.74044 5.7266L8.54634 5.86996L8.61915 6.1C8.62861 6.12976 8.59466 6.15445 8.56923 6.13625L8.37294 5.99593L8.17665 6.13625C8.15123 6.15441 8.11736 6.12976 8.12673 6.1L8.19955 5.86996L8.00544 5.7266C7.98033 5.708 7.99326 5.6682 8.02451 5.66793L8.2658 5.66609L8.34212 5.43719C8.35197 5.40758 8.39384 5.40758 8.40376 5.43719Z" fill="#F5F5F5"/>
<path d="M8.40376 6.63463L8.48009 6.86354L8.72138 6.86538C8.75263 6.86565 8.76556 6.90549 8.74044 6.92405L8.54634 7.06741L8.61915 7.29745C8.62861 7.32721 8.59466 7.3519 8.56923 7.3337L8.37294 7.19338L8.17665 7.3337C8.15123 7.35186 8.11736 7.32721 8.12673 7.29745L8.19955 7.06741L8.00544 6.92405C7.98033 6.90545 7.99326 6.86565 8.02451 6.86538L8.2658 6.86354L8.34212 6.63463C8.35197 6.60502 8.39384 6.60502 8.40376 6.63463Z" fill="#F5F5F5"/>
<path d="M8.40376 7.83205L8.48009 8.06096L8.72138 8.06279C8.75263 8.06307 8.76556 8.10291 8.74044 8.12146L8.54634 8.26482L8.61915 8.49486C8.62861 8.52463 8.59466 8.54931 8.56923 8.53111L8.37294 8.3908L8.17665 8.53111C8.15123 8.54928 8.11736 8.52463 8.12673 8.49486L8.19955 8.26482L8.00544 8.12146C7.98033 8.10287 7.99326 8.06307 8.02451 8.06279L8.2658 8.06096L8.34212 7.83205C8.35197 7.8024 8.39384 7.8024 8.40376 7.83205Z" fill="#F5F5F5"/>
<path d="M8.40376 9.02947L8.48009 9.25837L8.72138 9.26021C8.75263 9.26048 8.76556 9.30033 8.74044 9.31888L8.54634 9.46224L8.61915 9.69228C8.62861 9.72204 8.59466 9.74673 8.56923 9.72853L8.37294 9.58822L8.17665 9.72853C8.15123 9.74669 8.11736 9.72204 8.12673 9.69228L8.19955 9.46224L8.00544 9.31888C7.98033 9.30029 7.99326 9.26048 8.02451 9.26021L8.2658 9.25837L8.34212 9.02947C8.35197 8.99978 8.39384 8.99978 8.40376 9.02947Z" fill="#F5F5F5"/>
</g>
<defs>
<clipPath id="clip0_274_35347">
<rect width="20" height="20" fill="white"/>
</clipPath>
</defs>
</svg>
