<svg xmlns="http://www.w3.org/2000/svg" width="16" height="16" viewBox="0 0 16 16" fill="none">
    <path d="M3.33337 11.3347H2.66671C2.31309 11.3347 1.97395 11.1942 1.7239 10.9442C1.47385 10.6941 1.33337 10.355 1.33337 10.0013V3.33468C1.33337 2.98105 1.47385 2.64192 1.7239 2.39187C1.97395 2.14182 2.31309 2.00134 2.66671 2.00134H13.3334C13.687 2.00134 14.0261 2.14182 14.2762 2.39187C14.5262 2.64192 14.6667 2.98105 14.6667 3.33468V10.0013C14.6667 10.355 14.5262 10.6941 14.2762 10.9442C14.0261 11.1942 13.687 11.3347 13.3334 11.3347H12.6667" stroke="white" stroke-width="1.33333" stroke-linecap="round" stroke-linejoin="round"/>
    <path d="M8.00008 10.0013L11.3334 14.0013H4.66675L8.00008 10.0013Z" stroke="white" stroke-width="1.33333" stroke-linecap="round" stroke-linejoin="round"/>
  </svg>