<svg width="46" height="45" viewBox="0 0 46 45" fill="none" xmlns="http://www.w3.org/2000/svg">
<g filter="url(#filter0_d_7134_2272)">
<rect x="2" y="1" width="42" height="42" rx="9.37864" fill="#ECE3CA"/>
</g>
<g clip-path="url(#clip0_7134_2272)">
<path d="M34.9487 2.07037H11.0728C6.68133 2.07037 3.12134 5.63036 3.12134 10.0218V33.8978C3.12134 38.2892 6.68133 41.8492 11.0728 41.8492H34.9487C39.3402 41.8492 42.9002 38.2892 42.9002 33.8978V10.0218C42.9002 5.63036 39.3402 2.07037 34.9487 2.07037Z" fill="black"/>
<path d="M11.0317 5.26583H34.9684C37.6005 5.26583 39.7342 7.39954 39.7342 10.0316V33.9683C39.7342 36.6004 37.6005 38.7341 34.9684 38.7341H11.0317C8.39967 38.7341 6.26596 36.6004 6.26596 33.9683V10.0316C6.26596 7.39954 8.39967 5.26583 11.0317 5.26583Z" fill="url(#paint0_radial_7134_2272)" stroke="black" stroke-width="0.0509709"/>
<path d="M39.7693 6.68874H6.23047V8.14695H39.7693V6.68874Z" fill="black" fill-opacity="0.25"/>
<path d="M39.7693 9.60518H6.23047V11.0634H39.7693V9.60518Z" fill="black" fill-opacity="0.25"/>
<path d="M39.7693 12.5216H6.23047V13.9798H39.7693V12.5216Z" fill="black" fill-opacity="0.25"/>
<path d="M39.7693 15.438H6.23047V16.8963H39.7693V15.438Z" fill="black" fill-opacity="0.25"/>
<path d="M39.7693 18.3544H6.23047V19.8126H39.7693V18.3544Z" fill="black" fill-opacity="0.25"/>
<path d="M39.7693 21.2708H6.23047V22.729H39.7693V21.2708Z" fill="black" fill-opacity="0.25"/>
<path d="M39.7693 24.1873H6.23047V25.6455H39.7693V24.1873Z" fill="black" fill-opacity="0.25"/>
<path d="M39.7693 27.1037H6.23047V28.5619H39.7693V27.1037Z" fill="black" fill-opacity="0.25"/>
<path d="M39.7693 30.0202H6.23047V31.4784H39.7693V30.0202Z" fill="black" fill-opacity="0.25"/>
<path d="M39.7693 32.9365H6.23047V34.3947H39.7693V32.9365Z" fill="black" fill-opacity="0.25"/>
<path d="M39.7693 35.8529H6.23047V37.3111H39.7693V35.8529Z" fill="black" fill-opacity="0.25"/>
<g clip-path="url(#clip1_7134_2272)">
<path d="M22.1998 31.8434L18.8784 27.5023L21.2863 26.8125L21.8875 28.1504C22.1275 28.3713 22.5119 28.3755 22.7519 28.5964C22.8749 28.7102 22.9455 28.8707 22.9803 29.0349C23.0522 29.3749 23.0048 29.7868 23.2712 30.0125C23.5851 30.278 24.1088 30.2015 24.2549 30.6671C24.3872 31.0935 22.6111 32.3605 22.1998 31.8434Z" fill="#C62828"/>
<path d="M22.3324 32.9844L22.2015 33.0887C21.6843 33.5 20.9327 33.4149 20.5214 32.8978L16.7888 28.2054L19.3423 27.3073C19.5251 27.536 19.5902 27.6207 19.7745 27.8489C19.9427 28.0562 20.1004 28.1331 20.1133 28.4109C20.1252 28.6855 20.1618 28.9903 20.3757 29.1868C20.6157 29.4077 21.0001 29.4119 21.2401 29.6328C21.3631 29.7466 21.4337 29.907 21.4685 30.0713C21.5404 30.4113 21.4929 30.8232 21.7594 31.0489C22.0733 31.3144 22.597 31.2379 22.7431 31.7035C22.877 32.1294 22.6801 32.7086 22.3324 32.9844Z" fill="#F44336"/>
<path d="M22.7434 31.7026C22.7682 32.4456 22.3254 32.8625 21.7901 33.0914C21.272 33.3142 20.8001 33.1466 20.8001 33.1466C21.9623 34.0226 23.6625 32.6252 23.982 32.2693C24.4701 31.7253 24.4524 31.3539 24.2691 30.7072C24.2584 30.6668 24.1455 30.5566 24.0568 30.7007C23.9214 30.9177 23.7272 31.0478 23.5056 31.1804C23.2329 31.3434 23.0698 31.3814 22.9532 31.4312C22.8026 31.4947 22.7378 31.5563 22.7434 31.7026Z" fill="#A12524"/>
<path d="M21.5378 30.5769C21.5643 30.8428 21.722 30.8244 21.8707 30.7757C22.2336 30.6586 22.6571 30.3473 22.8541 30.1598C22.9298 30.0891 22.9948 30.008 23.0497 29.9234C23.0908 29.8595 23.1059 29.7819 23.0857 29.7096C23.0244 29.5 23.0261 29.2541 22.9793 29.0358C22.96 28.9456 22.9285 28.856 22.8845 28.7762C22.8498 28.7126 22.7591 28.7056 22.711 28.7596C22.5895 28.8958 22.3696 29.1285 22.2033 29.2276C21.8738 29.4246 21.6533 29.4951 21.5005 29.5524C21.3864 29.5943 21.3312 29.7284 21.3867 29.8359C21.4253 29.9106 21.4519 29.9912 21.4695 30.0715C21.5032 30.2326 21.5209 30.4081 21.5378 30.5769Z" fill="#A12524"/>
<path d="M16.7888 28.2054L17.7819 29.4585C17.7819 29.4585 17.8471 28.6855 19.0837 28.3883C19.9217 28.1871 20.263 28.3847 20.263 28.3847L19.8906 27.1604L16.7888 28.2054Z" fill="#C62828"/>
<path d="M31.739 27.7763C31.739 27.7763 25.0458 25.7125 20.5891 27.1475C18.6724 27.7651 17.2933 28.2449 16.9619 28.3614C15.9226 28.7287 14.2012 27.6733 13.2864 25.0722C12.3716 22.4711 13.107 20.241 14.1468 19.8753C14.3007 19.8212 15.9795 19.3402 17.9481 18.5843C22.5792 16.8073 25.984 11.4127 25.984 11.4127L31.739 27.7763Z" fill="#E0E0E0"/>
<path d="M26.0698 23.2082C26.0039 23.5879 26.2548 24.3114 26.5372 24.9638C26.7402 25.4306 26.386 25.954 25.8765 25.9356C22.4044 25.8191 19.9351 26.8075 19.9351 26.8075L20.2311 27.2628C20.3485 27.225 20.4674 27.1868 20.5879 27.1479C23.2798 26.2806 26.7877 26.6898 29.1438 27.1511C29.1438 27.1511 28.2358 26.4964 27.5115 25.4205C26.7585 24.2983 26.0698 23.2082 26.0698 23.2082Z" fill="#BDBDBD"/>
<path d="M20.2569 27.7129L20.211 27.9585L21.0614 28.7659C21.1646 28.8637 21.3197 28.8832 21.4428 28.8117L22.2337 28.3412C22.2337 28.3412 22.3521 27.9202 22.3706 27.8272C22.3891 27.7342 22.3558 27.6948 22.3558 27.6948L21.4536 28.2203C21.452 28.2208 20.2917 27.7113 20.2569 27.7129Z" fill="#353738"/>
<path d="M21.1525 28.2026L20.249 27.7209L21.4236 27.3025L22.2921 27.6447C22.402 27.7013 22.3872 27.8248 22.2792 27.8839L21.6545 28.2201C21.4969 28.3038 21.3062 28.2985 21.1525 28.2026Z" fill="#616161"/>
<path d="M18.0401 23.4005C17.5181 21.9162 17.4178 20.0806 17.6184 18.7093C15.7959 19.3926 14.2924 19.8243 14.1464 19.8756C13.1068 20.2413 12.3717 22.4713 13.2865 25.0724C14.2013 27.6734 15.9219 28.7274 16.9631 28.3612C17.2944 28.2447 18.6733 27.765 20.5897 27.1475C20.6007 27.1437 20.6138 27.1408 20.6248 27.1369C19.4771 26.1215 18.5605 24.8801 18.0401 23.4005Z" fill="#F44336"/>
<path d="M31.739 27.7762C33.5468 27.1404 33.724 22.9619 32.1349 18.4433C30.5457 13.9246 27.7918 10.7769 25.984 11.4127C24.1762 12.0485 23.999 16.227 25.5882 20.7457C27.1774 25.2644 29.9312 28.412 31.739 27.7762Z" fill="#2F7889"/>
<path d="M24.8907 18.3013C25.0643 19.091 25.2969 19.9128 25.5902 20.7469C27.1795 25.2658 29.9332 28.4133 31.741 27.7774C33.5489 27.1416 33.7262 22.9633 32.1369 18.4444C31.8436 17.6104 31.511 16.8255 31.1515 16.0994L24.8907 18.3013Z" fill="url(#paint1_linear_7134_2272)"/>
<path d="M31.9047 28.2475C29.7701 28.9983 26.8521 25.8451 25.1169 20.9115C23.3818 15.9779 23.6837 11.6923 25.8183 10.9416C27.9529 10.1909 30.4003 13.5113 32.1348 18.4433C33.8699 23.3769 34.0393 27.4968 31.9047 28.2475ZM26.1497 11.884C24.8241 12.3502 24.4612 16.036 26.0594 20.5801C27.6575 25.1241 30.2476 27.7713 31.5733 27.3051C32.8989 26.8389 33.2617 23.1531 31.6636 18.6091C30.0655 14.065 27.4754 11.4178 26.1497 11.884Z" fill="#E0E0E0"/>
<path d="M24.775 14.7998C24.7684 15.2327 24.5568 16.2618 25.3044 19.14C25.3297 19.237 25.4236 19.6698 25.1928 19.751C25.0389 19.8051 24.9116 19.5887 24.7989 19.2684C24.3598 18.0199 24.0828 16.5697 24.0866 15.0402C24.0898 14.1761 24.7857 14.2031 24.775 14.7998Z" fill="white"/>
<path d="M25.4845 18.6539L28.5741 17.9555L29.6732 21.0806L26.9137 22.6476C25.8502 20.2458 25.4845 18.6539 25.4845 18.6539Z" fill="url(#paint2_radial_7134_2272)"/>
<path d="M29.6741 21.0821C30.0834 20.9381 30.1693 20.1218 29.8658 19.2589C29.5623 18.3959 28.9844 17.813 28.575 17.957C28.1656 18.101 28.0798 18.9173 28.3833 19.7802C28.6868 20.6432 29.2647 21.2261 29.6741 21.0821Z" fill="#E0E0E0"/>
<path d="M20.5303 18.8146C21.4797 18.3324 22.3564 17.6835 23.0055 16.8394C22.9782 18.3225 23.3014 19.9841 23.9708 21.3104C23.4252 21.2446 22.8749 21.1805 22.3267 21.2074C21.8689 21.2308 21.4175 21.3172 20.971 21.4178C19.8461 21.6669 18.84 21.9978 17.7618 22.4C17.7932 22.3889 17.6217 21.6251 17.5614 21.0322C17.5011 20.4393 17.5247 20.0746 17.5247 20.0746C17.5247 20.0746 19.6305 19.2722 20.5303 18.8146Z" fill="white"/>
<path d="M17.0774 20.1562C15.5701 20.7375 13.8765 21.3561 13.8765 21.3561C13.8765 21.3561 13.3438 22.2952 13.7258 23.8178C13.7258 23.8178 15.5397 23.1799 17.1975 22.6304C16.9404 21.5279 17.0071 20.6239 17.0774 20.1562Z" fill="#FF7555"/>
</g>
<g filter="url(#filter1_i_7134_2272)">
<path d="M11.0315 5.26583H34.9682C37.6003 5.26583 39.734 7.39954 39.734 10.0316V33.9683C39.734 36.6004 37.6003 38.7341 34.9682 38.7341H11.0315C8.39943 38.7341 6.26572 36.6004 6.26572 33.9683V10.0316C6.26572 7.39954 8.39943 5.26583 11.0315 5.26583Z" stroke="black" stroke-width="0.0509709"/>
</g>
</g>
<g filter="url(#filter2_d_7134_2272)">
<path fill-rule="evenodd" clip-rule="evenodd" d="M11.0621 2.11061H34.938C39.3294 2.11061 42.8894 5.6706 42.8894 10.0621V33.938C42.8894 38.3295 39.3294 41.8895 34.938 41.8895H11.0621C6.67058 41.8895 3.1106 38.3295 3.1106 33.938V10.0621C3.1106 5.6706 6.67058 2.11061 11.0621 2.11061ZM11.0219 5.28156H34.9586C37.6047 5.28156 39.7498 7.42668 39.7498 10.0728V34.0095C39.7498 36.6556 37.6047 38.8008 34.9586 38.8008H11.0219C8.37575 38.8008 6.23062 36.6556 6.23062 34.0095V10.0728C6.23062 7.42668 8.37575 5.28156 11.0219 5.28156Z" fill="url(#paint3_linear_7134_2272)"/>
</g>
<path fill-rule="evenodd" clip-rule="evenodd" d="M11.1238 1H34.8762C39.9151 1 44 5.08486 44 10.1238V33.8762C44 38.9151 39.9151 43 34.8762 43H11.1238C6.08486 43 2 38.9151 2 33.8762V10.1238C2 5.08486 6.08486 1 11.1238 1ZM11.062 2.1106H34.9379C39.3294 2.1106 42.8894 5.67059 42.8894 10.0621V33.938C42.8894 38.3295 39.3294 41.8894 34.9379 41.8894H11.062C6.67054 41.8894 3.11055 38.3295 3.11055 33.938V10.0621C3.11055 5.67059 6.67054 2.1106 11.062 2.1106Z" fill="#C3C3C3"/>
<circle opacity="0.1" cx="22.9999" cy="22" r="18.0947" stroke="white" stroke-width="0.101942"/>
<defs>
<filter id="filter0_d_7134_2272" x="0.878641" y="0.43932" width="44.2427" height="44.2427" filterUnits="userSpaceOnUse" color-interpolation-filters="sRGB">
<feFlood flood-opacity="0" result="BackgroundImageFix"/>
<feColorMatrix in="SourceAlpha" type="matrix" values="0 0 0 0 0 0 0 0 0 0 0 0 0 0 0 0 0 0 127 0" result="hardAlpha"/>
<feOffset dy="0.56068"/>
<feGaussianBlur stdDeviation="0.56068"/>
<feComposite in2="hardAlpha" operator="out"/>
<feColorMatrix type="matrix" values="0 0 0 0 0 0 0 0 0 0 0 0 0 0 0 0 0 0 0.28 0"/>
<feBlend mode="normal" in2="BackgroundImageFix" result="effect1_dropShadow_7134_2272"/>
<feBlend mode="normal" in="SourceGraphic" in2="effect1_dropShadow_7134_2272" result="shape"/>
</filter>
<filter id="filter1_i_7134_2272" x="6.24023" y="5.24034" width="33.5193" height="33.7231" filterUnits="userSpaceOnUse" color-interpolation-filters="sRGB">
<feFlood flood-opacity="0" result="BackgroundImageFix"/>
<feBlend mode="normal" in="SourceGraphic" in2="BackgroundImageFix" result="shape"/>
<feColorMatrix in="SourceAlpha" type="matrix" values="0 0 0 0 0 0 0 0 0 0 0 0 0 0 0 0 0 0 127 0" result="hardAlpha"/>
<feOffset dy="5.70874"/>
<feGaussianBlur stdDeviation="0.101942"/>
<feComposite in2="hardAlpha" operator="arithmetic" k2="-1" k3="1"/>
<feColorMatrix type="matrix" values="0 0 0 0 0 0 0 0 0 0 0 0 0 0 0 0 0 0 0.25 0"/>
<feBlend mode="normal" in2="shape" result="effect1_innerShadow_7134_2272"/>
</filter>
<filter id="filter2_d_7134_2272" x="1.98924" y="1.54993" width="42.0215" height="42.0216" filterUnits="userSpaceOnUse" color-interpolation-filters="sRGB">
<feFlood flood-opacity="0" result="BackgroundImageFix"/>
<feColorMatrix in="SourceAlpha" type="matrix" values="0 0 0 0 0 0 0 0 0 0 0 0 0 0 0 0 0 0 127 0" result="hardAlpha"/>
<feOffset dy="0.56068"/>
<feGaussianBlur stdDeviation="0.56068"/>
<feComposite in2="hardAlpha" operator="out"/>
<feColorMatrix type="matrix" values="0 0 0 0 0 0 0 0 0 0 0 0 0 0 0 0 0 0 0.28 0"/>
<feBlend mode="normal" in2="BackgroundImageFix" result="effect1_dropShadow_7134_2272"/>
<feBlend mode="normal" in="SourceGraphic" in2="effect1_dropShadow_7134_2272" result="shape"/>
</filter>
<radialGradient id="paint0_radial_7134_2272" cx="0" cy="0" r="1" gradientUnits="userSpaceOnUse" gradientTransform="translate(23.0001 21.9999) rotate(90) scale(16.7596)">
<stop stop-color="#461027"/>
<stop offset="1" stop-color="#46102A" stop-opacity="0.5"/>
</radialGradient>
<linearGradient id="paint1_linear_7134_2272" x1="31.3632" y1="26.706" x2="28.1258" y2="17.5009" gradientUnits="userSpaceOnUse">
<stop stop-color="#353738"/>
<stop offset="1" stop-color="#353738" stop-opacity="0"/>
</linearGradient>
<radialGradient id="paint2_radial_7134_2272" cx="0" cy="0" r="1" gradientUnits="userSpaceOnUse" gradientTransform="translate(28.6481 19.969) rotate(-19.3765) scale(3.48217 5.92492)">
<stop offset="0.4156" stop-color="#82AEC0"/>
<stop offset="1" stop-color="#7FA9BB" stop-opacity="0"/>
</radialGradient>
<linearGradient id="paint3_linear_7134_2272" x1="23" y1="2.11061" x2="23" y2="41.8895" gradientUnits="userSpaceOnUse">
<stop stop-color="#D6D6D6"/>
<stop offset="1" stop-color="#E0E0E0"/>
</linearGradient>
<clipPath id="clip0_7134_2272">
<rect width="33.5388" height="33.5388" fill="white" transform="translate(6.23047 5.23058)"/>
</clipPath>
<clipPath id="clip1_7134_2272">
<rect width="23.9731" height="23.9731" fill="white" transform="translate(7.70874 15.274) rotate(-19.3765)"/>
</clipPath>
</defs>
</svg>
