<svg width="24" height="24" viewBox="0 0 24 24" fill="none" xmlns="http://www.w3.org/2000/svg">
<g id="Frame">
<path id="Vector" d="M19.0702 4.9298C17.5131 3.37102 15.4848 2.37012 13.3004 2.0826C11.1159 1.79508 8.89767 2.23703 6.99023 3.3398" stroke="#C0C1C3" stroke-width="2" stroke-linecap="round" stroke-linejoin="round"/>
<path id="Vector_2" d="M4 6H4.01" stroke="#C0C1C3" stroke-width="2" stroke-linecap="round" stroke-linejoin="round"/>
<path id="Vector_3" d="M2.28986 9.6201C1.91496 11.1472 1.90544 12.7411 2.26209 14.2725C2.61874 15.804 3.3315 17.2297 4.3425 18.434C5.3535 19.6383 6.63425 20.5872 8.08076 21.2037C9.52728 21.8202 11.0988 22.0869 12.6677 21.9822C14.2366 21.8774 15.7587 21.4041 17.1104 20.6008C18.4621 19.7975 19.6054 18.6867 20.4473 17.3587C21.2892 16.0306 21.8061 14.5228 21.9559 12.9575C22.1058 11.3923 21.8845 9.81376 21.3099 8.3501" stroke="#C0C1C3" stroke-width="2" stroke-linecap="round" stroke-linejoin="round"/>
<path id="Vector_4" d="M16.2398 7.75992C15.6643 7.18108 14.9768 6.72575 14.2192 6.42179C13.4617 6.11783 12.6501 5.97163 11.8342 5.99213C11.0182 6.01263 10.215 6.1994 9.47366 6.54103C8.73236 6.88265 8.06855 7.37193 7.52286 7.97894C6.97717 8.58594 6.56106 9.29791 6.30001 10.0713C6.03895 10.8446 5.93844 11.6631 6.00462 12.4767C6.07079 13.2902 6.30226 14.0817 6.68487 14.8027C7.06748 15.5237 7.59318 16.1591 8.2298 16.6699" stroke="#C0C1C3" stroke-width="2" stroke-linecap="round" stroke-linejoin="round"/>
<path id="Vector_5" d="M12 18H12.01" stroke="#C0C1C3" stroke-width="2" stroke-linecap="round" stroke-linejoin="round"/>
<path id="Vector_6" d="M17.99 11.6602C18.0444 12.6115 17.8714 13.5622 17.4854 14.4334C17.0993 15.3046 16.5113 16.0714 15.77 16.6702" stroke="#C0C1C3" stroke-width="2" stroke-linecap="round" stroke-linejoin="round"/>
<path id="Vector_7" d="M12 14C13.1046 14 14 13.1046 14 12C14 10.8954 13.1046 10 12 10C10.8954 10 10 10.8954 10 12C10 13.1046 10.8954 14 12 14Z" stroke="#C0C1C3" stroke-width="2" stroke-linecap="round" stroke-linejoin="round"/>
<path id="Vector_8" d="M13.4102 10.5902L19.0702 4.93018" stroke="#C0C1C3" stroke-width="2" stroke-linecap="round" stroke-linejoin="round"/>
</g>
</svg>
