<svg width="25" height="24" viewBox="0 0 25 24" fill="none" xmlns="http://www.w3.org/2000/svg">
<g id="concierge-bell">
<path id="Vector" d="M2.49951 18C2.49951 17.4696 2.71023 16.9609 3.0853 16.5858C3.46037 16.2107 3.96908 16 4.49951 16H20.4995C21.0299 16 21.5386 16.2107 21.9137 16.5858C22.2888 16.9609 22.4995 17.4696 22.4995 18V20H2.49951V18Z" stroke="#F56C87" stroke-width="2" stroke-linecap="round" stroke-linejoin="round"/>
<path id="Vector_2" d="M20.5 16C20.5 13.8783 19.6571 11.8434 18.1569 10.3431C16.6566 8.84285 14.6217 7.99999 12.5 7.99999C10.3783 7.99999 8.34344 8.84285 6.84315 10.3431C5.34285 11.8434 4.5 13.8783 4.5 16" stroke="#F56C87" stroke-width="2" stroke-linecap="round" stroke-linejoin="round"/>
<path id="Vector_3" d="M12.5005 3.99997V7.99997" stroke="#F56C87" stroke-width="2" stroke-linecap="round" stroke-linejoin="round"/>
<path id="Vector_4" d="M10.5 3.99997H14.5" stroke="#F56C87" stroke-width="2" stroke-linecap="round" stroke-linejoin="round"/>
</g>
</svg>
