<svg width="46" height="45" viewBox="0 0 46 45" fill="none" xmlns="http://www.w3.org/2000/svg">
<g filter="url(#filter0_d_7134_2236)">
<rect x="2" y="1" width="42" height="42" rx="9.37864" fill="#ECE3CA"/>
</g>
<g clip-path="url(#clip0_7134_2236)">
<path d="M34.9487 2.07037H11.0728C6.68133 2.07037 3.12134 5.63036 3.12134 10.0218V33.8978C3.12134 38.2892 6.68133 41.8492 11.0728 41.8492H34.9487C39.3402 41.8492 42.9002 38.2892 42.9002 33.8978V10.0218C42.9002 5.63036 39.3402 2.07037 34.9487 2.07037Z" fill="black"/>
<path d="M11.0317 5.26583H34.9684C37.6005 5.26583 39.7342 7.39954 39.7342 10.0316V33.9683C39.7342 36.6004 37.6005 38.7341 34.9684 38.7341H11.0317C8.39967 38.7341 6.26596 36.6004 6.26596 33.9683V10.0316C6.26596 7.39954 8.39967 5.26583 11.0317 5.26583Z" fill="url(#paint0_radial_7134_2236)" stroke="black" stroke-width="0.0509709"/>
<path d="M39.7693 6.68874H6.23047V8.14695H39.7693V6.68874Z" fill="black" fill-opacity="0.25"/>
<path d="M39.7693 9.60518H6.23047V11.0634H39.7693V9.60518Z" fill="black" fill-opacity="0.25"/>
<path d="M39.7693 12.5216H6.23047V13.9798H39.7693V12.5216Z" fill="black" fill-opacity="0.25"/>
<path d="M39.7693 15.438H6.23047V16.8963H39.7693V15.438Z" fill="black" fill-opacity="0.25"/>
<path d="M39.7693 18.3544H6.23047V19.8126H39.7693V18.3544Z" fill="black" fill-opacity="0.25"/>
<path d="M39.7693 21.2708H6.23047V22.729H39.7693V21.2708Z" fill="black" fill-opacity="0.25"/>
<path d="M39.7693 24.1873H6.23047V25.6455H39.7693V24.1873Z" fill="black" fill-opacity="0.25"/>
<path d="M39.7693 27.1037H6.23047V28.5619H39.7693V27.1037Z" fill="black" fill-opacity="0.25"/>
<path d="M39.7693 30.0202H6.23047V31.4784H39.7693V30.0202Z" fill="black" fill-opacity="0.25"/>
<path d="M39.7693 32.9365H6.23047V34.3947H39.7693V32.9365Z" fill="black" fill-opacity="0.25"/>
<path d="M39.7693 35.8529H6.23047V37.3111H39.7693V35.8529Z" fill="black" fill-opacity="0.25"/>
<path d="M8.11646 9.76697C8.11646 8.64095 9.02927 7.72813 10.1553 7.72813H16.2718C17.3978 7.72813 18.3106 8.64095 18.3106 9.76697V19.3495C18.3106 20.2503 17.5804 20.9806 16.6796 20.9806H9.74752C8.84671 20.9806 8.11646 20.2503 8.11646 19.3495V9.76697Z" fill="#B83A3E"/>
<rect x="8.11646" y="7.72813" width="10.1942" height="11.2136" rx="2.03884" fill="#E5484D"/>
<path d="M19.9417 9.76697C19.9417 8.64095 20.8545 7.72813 21.9805 7.72813H35.6916C36.8177 7.72813 37.7305 8.64095 37.7305 9.76697V19.3495C37.7305 20.2503 37.0002 20.9806 36.0994 20.9806H21.5727C20.6719 20.9806 19.9417 20.2503 19.9417 19.3495V9.76697Z" fill="#B83A3E"/>
<rect x="19.9417" y="7.72813" width="17.7888" height="11.2136" rx="2.03884" fill="#E5484D"/>
<path d="M37.7346 24.0388C37.7346 22.9128 36.8218 22 35.6958 22H29.5793C28.4533 22 27.5404 22.9128 27.5404 24.0388V34.6408C27.5404 35.5416 28.2707 36.2718 29.1715 36.2718H36.1036C37.0044 36.2718 37.7346 35.5416 37.7346 34.6408V24.0388Z" fill="#8A6646"/>
<rect width="10.1942" height="12.0762" rx="2.03884" transform="matrix(-1 0 0 1 37.7346 22)" fill="#AD7F58"/>
<path d="M25.9094 24.0388C25.9094 22.9128 24.9966 22 23.8706 22H10.1553C9.02933 22 8.11651 22.9128 8.11651 24.0388V34.6408C8.11651 35.5416 8.84677 36.2718 9.74758 36.2718H24.2784C25.1792 36.2718 25.9094 35.5416 25.9094 34.6408V24.0388Z" fill="#8A6646"/>
<rect width="17.7929" height="12.0762" rx="2.03884" transform="matrix(-1 0 0 1 25.9094 22)" fill="#AD7F58"/>
<g filter="url(#filter1_i_7134_2236)">
<path d="M11.0315 5.26583H34.9682C37.6003 5.26583 39.734 7.39954 39.734 10.0316V33.9683C39.734 36.6004 37.6003 38.7341 34.9682 38.7341H11.0315C8.39943 38.7341 6.26572 36.6004 6.26572 33.9683V10.0316C6.26572 7.39954 8.39943 5.26583 11.0315 5.26583Z" stroke="black" stroke-width="0.0509709"/>
</g>
</g>
<g filter="url(#filter2_d_7134_2236)">
<path fill-rule="evenodd" clip-rule="evenodd" d="M11.0621 2.11061H34.938C39.3294 2.11061 42.8894 5.6706 42.8894 10.0621V33.938C42.8894 38.3295 39.3294 41.8895 34.938 41.8895H11.0621C6.67058 41.8895 3.1106 38.3295 3.1106 33.938V10.0621C3.1106 5.6706 6.67058 2.11061 11.0621 2.11061ZM11.0219 5.28156H34.9586C37.6047 5.28156 39.7498 7.42668 39.7498 10.0728V34.0095C39.7498 36.6556 37.6047 38.8008 34.9586 38.8008H11.0219C8.37575 38.8008 6.23062 36.6556 6.23062 34.0095V10.0728C6.23062 7.42668 8.37575 5.28156 11.0219 5.28156Z" fill="url(#paint1_linear_7134_2236)"/>
</g>
<path fill-rule="evenodd" clip-rule="evenodd" d="M11.1238 1H34.8762C39.9151 1 44 5.08486 44 10.1238V33.8762C44 38.9151 39.9151 43 34.8762 43H11.1238C6.08486 43 2 38.9151 2 33.8762V10.1238C2 5.08486 6.08486 1 11.1238 1ZM11.062 2.1106H34.9379C39.3294 2.1106 42.8894 5.67059 42.8894 10.0621V33.938C42.8894 38.3295 39.3294 41.8894 34.9379 41.8894H11.062C6.67054 41.8894 3.11055 38.3295 3.11055 33.938V10.0621C3.11055 5.67059 6.67054 2.1106 11.062 2.1106Z" fill="#C3C3C3"/>
<defs>
<filter id="filter0_d_7134_2236" x="0.878641" y="0.43932" width="44.2427" height="44.2427" filterUnits="userSpaceOnUse" color-interpolation-filters="sRGB">
<feFlood flood-opacity="0" result="BackgroundImageFix"/>
<feColorMatrix in="SourceAlpha" type="matrix" values="0 0 0 0 0 0 0 0 0 0 0 0 0 0 0 0 0 0 127 0" result="hardAlpha"/>
<feOffset dy="0.56068"/>
<feGaussianBlur stdDeviation="0.56068"/>
<feComposite in2="hardAlpha" operator="out"/>
<feColorMatrix type="matrix" values="0 0 0 0 0 0 0 0 0 0 0 0 0 0 0 0 0 0 0.28 0"/>
<feBlend mode="normal" in2="BackgroundImageFix" result="effect1_dropShadow_7134_2236"/>
<feBlend mode="normal" in="SourceGraphic" in2="effect1_dropShadow_7134_2236" result="shape"/>
</filter>
<filter id="filter1_i_7134_2236" x="6.24023" y="5.24034" width="33.5193" height="33.7231" filterUnits="userSpaceOnUse" color-interpolation-filters="sRGB">
<feFlood flood-opacity="0" result="BackgroundImageFix"/>
<feBlend mode="normal" in="SourceGraphic" in2="BackgroundImageFix" result="shape"/>
<feColorMatrix in="SourceAlpha" type="matrix" values="0 0 0 0 0 0 0 0 0 0 0 0 0 0 0 0 0 0 127 0" result="hardAlpha"/>
<feOffset dy="5.70874"/>
<feGaussianBlur stdDeviation="0.101942"/>
<feComposite in2="hardAlpha" operator="arithmetic" k2="-1" k3="1"/>
<feColorMatrix type="matrix" values="0 0 0 0 0 0 0 0 0 0 0 0 0 0 0 0 0 0 0.25 0"/>
<feBlend mode="normal" in2="shape" result="effect1_innerShadow_7134_2236"/>
</filter>
<filter id="filter2_d_7134_2236" x="1.98924" y="1.54993" width="42.0215" height="42.0216" filterUnits="userSpaceOnUse" color-interpolation-filters="sRGB">
<feFlood flood-opacity="0" result="BackgroundImageFix"/>
<feColorMatrix in="SourceAlpha" type="matrix" values="0 0 0 0 0 0 0 0 0 0 0 0 0 0 0 0 0 0 127 0" result="hardAlpha"/>
<feOffset dy="0.56068"/>
<feGaussianBlur stdDeviation="0.56068"/>
<feComposite in2="hardAlpha" operator="out"/>
<feColorMatrix type="matrix" values="0 0 0 0 0 0 0 0 0 0 0 0 0 0 0 0 0 0 0.28 0"/>
<feBlend mode="normal" in2="BackgroundImageFix" result="effect1_dropShadow_7134_2236"/>
<feBlend mode="normal" in="SourceGraphic" in2="effect1_dropShadow_7134_2236" result="shape"/>
</filter>
<radialGradient id="paint0_radial_7134_2236" cx="0" cy="0" r="1" gradientUnits="userSpaceOnUse" gradientTransform="translate(23.0001 21.9999) rotate(90) scale(16.7596)">
<stop stop-color="#461027"/>
<stop offset="1" stop-color="#46102A" stop-opacity="0.5"/>
</radialGradient>
<linearGradient id="paint1_linear_7134_2236" x1="23" y1="2.11061" x2="23" y2="41.8895" gradientUnits="userSpaceOnUse">
<stop stop-color="#D6D6D6"/>
<stop offset="1" stop-color="#E0E0E0"/>
</linearGradient>
<clipPath id="clip0_7134_2236">
<rect width="33.5388" height="33.5388" fill="white" transform="translate(6.23047 5.23058)"/>
</clipPath>
</defs>
</svg>
