<svg width="46" height="45" viewBox="0 0 46 45" fill="none" xmlns="http://www.w3.org/2000/svg">
<g filter="url(#filter0_d_7134_2181)">
<rect x="2" y="1" width="42" height="42" rx="9.37864" fill="#ECE3CA"/>
</g>
<g clip-path="url(#clip0_7134_2181)">
<path d="M34.9487 2.07037H11.0728C6.68133 2.07037 3.12134 5.63036 3.12134 10.0218V33.8978C3.12134 38.2892 6.68133 41.8492 11.0728 41.8492H34.9487C39.3402 41.8492 42.9002 38.2892 42.9002 33.8978V10.0218C42.9002 5.63036 39.3402 2.07037 34.9487 2.07037Z" fill="black"/>
<path d="M11.0317 5.26584H34.9684C37.6005 5.26584 39.7342 7.39955 39.7342 10.0316V33.9683C39.7342 36.6004 37.6005 38.7341 34.9684 38.7341H11.0317C8.39967 38.7341 6.26596 36.6004 6.26596 33.9683V10.0316C6.26596 7.39955 8.39967 5.26584 11.0317 5.26584Z" fill="url(#paint0_radial_7134_2181)" stroke="black" stroke-width="0.0509709"/>
<path d="M39.7693 6.68875H6.23047V8.14696H39.7693V6.68875Z" fill="black" fill-opacity="0.25"/>
<path d="M39.7693 9.60519H6.23047V11.0634H39.7693V9.60519Z" fill="black" fill-opacity="0.25"/>
<path d="M39.7693 12.5216H6.23047V13.9798H39.7693V12.5216Z" fill="black" fill-opacity="0.25"/>
<path d="M39.7693 15.4381H6.23047V16.8963H39.7693V15.4381Z" fill="black" fill-opacity="0.25"/>
<path d="M39.7693 18.3544H6.23047V19.8126H39.7693V18.3544Z" fill="black" fill-opacity="0.25"/>
<path d="M39.7693 21.2708H6.23047V22.729H39.7693V21.2708Z" fill="black" fill-opacity="0.25"/>
<path d="M39.7693 24.1873H6.23047V25.6455H39.7693V24.1873Z" fill="black" fill-opacity="0.25"/>
<path d="M39.7693 27.1037H6.23047V28.5619H39.7693V27.1037Z" fill="black" fill-opacity="0.25"/>
<path d="M39.7693 30.0202H6.23047V31.4784H39.7693V30.0202Z" fill="black" fill-opacity="0.25"/>
<path d="M39.7693 32.9366H6.23047V34.3948H39.7693V32.9366Z" fill="black" fill-opacity="0.25"/>
<path d="M39.7693 35.8529H6.23047V37.3111H39.7693V35.8529Z" fill="black" fill-opacity="0.25"/>
<g filter="url(#filter1_i_7134_2181)">
<path d="M11.0315 5.26584H34.9682C37.6003 5.26584 39.734 7.39955 39.734 10.0316V33.9683C39.734 36.6004 37.6003 38.7341 34.9682 38.7341H11.0315C8.39943 38.7341 6.26572 36.6004 6.26572 33.9683V10.0316C6.26572 7.39955 8.39943 5.26584 11.0315 5.26584Z" stroke="black" stroke-width="0.0509709"/>
</g>
</g>
<g filter="url(#filter2_d_7134_2181)">
<path fill-rule="evenodd" clip-rule="evenodd" d="M11.0621 2.1106H34.938C39.3294 2.1106 42.8894 5.67058 42.8894 10.0621V33.938C42.8894 38.3294 39.3294 41.8894 34.938 41.8894H11.0621C6.67058 41.8894 3.1106 38.3294 3.1106 33.938V10.0621C3.1106 5.67058 6.67058 2.1106 11.0621 2.1106ZM11.0219 5.28154H34.9586C37.6047 5.28154 39.7498 7.42666 39.7498 10.0728V34.0095C39.7498 36.6556 37.6047 38.8008 34.9586 38.8008H11.0219C8.37575 38.8008 6.23062 36.6556 6.23062 34.0095V10.0728C6.23062 7.42666 8.37575 5.28154 11.0219 5.28154Z" fill="url(#paint1_linear_7134_2181)"/>
</g>
<path fill-rule="evenodd" clip-rule="evenodd" d="M11.1238 1H34.8762C39.9151 1 44 5.08486 44 10.1238V33.8762C44 38.9151 39.9151 43 34.8762 43H11.1238C6.08486 43 2 38.9151 2 33.8762V10.1238C2 5.08486 6.08486 1 11.1238 1ZM11.062 2.1106H34.9379C39.3294 2.1106 42.8894 5.67059 42.8894 10.0621V33.938C42.8894 38.3295 39.3294 41.8894 34.9379 41.8894H11.062C6.67054 41.8894 3.11055 38.3295 3.11055 33.938V10.0621C3.11055 5.67059 6.67054 2.1106 11.062 2.1106Z" fill="#C3C3C3"/>
<circle opacity="0.1" cx="22.9999" cy="22" r="18.0947" stroke="white" stroke-width="0.101942"/>
<circle opacity="0.1" cx="23" cy="22" r="11.6214" stroke="white" stroke-width="0.101942"/>
<circle opacity="0.1" cx="23.0001" cy="22" r="10.9078" stroke="white" stroke-width="0.101942"/>
<circle opacity="0.1" cx="23.0001" cy="22" r="5.19903" stroke="white" stroke-width="0.101942"/>
<circle opacity="0.1" cx="23.0001" cy="22" r="3.56796" stroke="white" stroke-width="0.101942"/>
<rect opacity="0.1" x="22.949" y="1" width="0.101942" height="42" fill="white"/>
<rect opacity="0.1" x="44" y="21.949" width="0.101942" height="42" transform="rotate(90 44 21.949)" fill="white"/>
<rect opacity="0.1" x="36.915" y="1" width="0.101942" height="42" fill="white"/>
<rect opacity="0.1" x="15.9661" y="1" width="0.101942" height="42" fill="white"/>
<rect opacity="0.1" x="29.9321" y="1" width="0.101942" height="42" fill="white"/>
<rect opacity="0.1" x="8.98291" y="1" width="0.101942" height="42" fill="white"/>
<rect opacity="0.1" x="44" y="35.915" width="0.101942" height="42" transform="rotate(90 44 35.915)" fill="white"/>
<rect opacity="0.1" x="44" y="14.966" width="0.101942" height="42" transform="rotate(90 44 14.966)" fill="white"/>
<rect opacity="0.1" x="44" y="28.932" width="0.101942" height="42" transform="rotate(90 44 28.932)" fill="white"/>
<rect opacity="0.1" x="44" y="7.983" width="0.101942" height="42" transform="rotate(90 44 7.983)" fill="white"/>
<path d="M30.2722 22.0015C30.2722 22.0015 31.7437 21.9925 31.7782 22.2824C31.8017 22.4745 31.4465 26.262 31.4465 26.262C31.4465 26.262 32.5665 26.831 32.7984 26.976C33.0703 27.1464 33.2062 27.3838 33.1047 27.5885C33.0032 27.7933 32.7984 27.8441 32.5175 27.7154C32.2366 27.5885 30.4516 27.0268 30.3737 26.8474C30.2958 26.6679 30.3991 23.6579 30.3991 23.6579L30.2722 22.0015Z" fill="#696E72"/>
<path d="M28.1462 17.9277C28.1462 17.9277 28.7153 17.317 28.9201 17.3659C29.2009 17.4348 30.0001 18.6164 30.2049 18.9734C30.4097 19.3304 30.8935 20.1731 30.8935 20.1731C30.8935 20.1731 32.2201 19.9175 32.5517 19.8668C32.8833 19.816 33.2403 19.9429 33.2657 20.2745C33.2911 20.6062 32.7819 20.7584 32.3469 20.8363C31.9138 20.9124 30.6126 21.2187 30.484 21.1172C30.3571 21.0139 28.1462 17.9277 28.1462 17.9277Z" fill="#696E72"/>
<path d="M17.3365 25.8271L17.6935 26.9488L17.2604 27.5106C17.2604 27.5106 18.9185 29.6798 18.8932 29.9335C18.8678 30.1891 17.1335 31.9741 16.9795 32.1027C16.8273 32.2296 16.4394 32.4054 16.2908 32.1789C16.0951 31.8817 16.3416 31.541 16.5464 31.3108C16.7511 31.0807 17.7714 29.9335 17.7714 29.9335C17.7714 29.9335 16.1223 27.989 16.0371 27.4327C15.9846 27.1029 17.3365 25.8271 17.3365 25.8271Z" fill="#696E72"/>
<path d="M16.9793 20.9541C16.9793 20.9541 15.814 20.5282 15.4987 20.7239C15.1381 20.9468 15.303 25.3251 15.303 25.3251C15.303 25.3251 13.8405 26.2348 13.6611 26.3363C13.4817 26.4378 13.3549 26.6679 13.4817 26.8727C13.6086 27.0775 13.9148 27.025 14.2972 26.8727C14.6796 26.7205 15.8648 26.2348 16.0569 26.0572C16.3794 25.76 16.2526 22.248 16.2526 22.248L16.8216 22.1284L16.9793 20.9541Z" fill="#696E72"/>
<path d="M21.7003 19.2452L26.267 16.2605C26.267 16.2605 27.2366 13.9644 27.2366 13.7596C27.2366 13.5549 25.8593 12.0507 25.8593 12.0507C25.8593 12.0507 26.3939 11.4636 26.0876 11.2606C25.7814 11.0558 24.8807 12.0091 24.9133 12.2809C24.9332 12.4331 26.2145 13.9644 26.2145 13.9644L25.2196 15.9542C25.2196 15.9542 24.0199 15.8781 23.8423 15.7494C23.6647 15.6208 23.7318 15.0952 23.3313 14.856C23.0159 14.6676 22.668 14.6259 22.668 14.6259C22.668 14.6259 22.5919 14.142 22.8474 13.7578C23.1029 13.3736 24.1522 12.2591 23.9021 11.768C23.6121 11.199 23.1663 11.4128 23.0775 11.6829C22.9924 11.9384 23.2823 12.2265 23.2823 12.2265C23.2823 12.2265 22.4143 13.2214 22.2113 13.6799C22.0084 14.1384 22.0845 14.7509 22.0845 14.7509C22.0845 14.7509 20.8594 14.4881 20.1708 14.6911C19.4821 14.8959 18.8189 15.8727 18.8189 15.8727C18.8189 15.8727 18.2571 15.2601 17.9001 15.0825C17.5431 14.905 17.2876 15.0064 16.7512 14.7509C16.2147 14.4954 16.0879 14.2924 16.0879 14.2924C16.0879 14.2924 16.1404 14.046 16.0371 13.8593C15.9338 13.6708 15.6113 13.5875 15.3829 13.7325C15.2017 13.8466 15.1836 14.1692 15.2742 14.3613C15.3757 14.5751 15.6566 14.6005 15.6566 14.6005C15.6566 14.6005 16.0299 15.059 16.5663 15.2384C17.1353 15.4287 17.264 15.3906 17.6464 15.5447C18.0288 15.6987 18.2082 16.1064 18.2082 16.1064C18.2082 16.1064 17.9526 16.4381 17.9273 16.7951C17.9037 17.134 18.0034 18.1724 18.0034 18.1724L17.0592 19.2434C17.0592 19.2434 15.546 18.4098 15.4772 18.2648C15.4083 18.1198 15.6983 16.0629 15.4518 15.8237C15.1528 15.5356 13.9712 14.7781 13.8697 15.262C13.7683 15.7458 14.7378 16.1807 14.7378 16.1807C14.7378 16.1807 14.475 18.3826 14.6109 18.707C14.7469 19.0295 16.9577 20.4666 16.9577 20.4666L21.7003 19.2452Z" fill="#696E72"/>
<path d="M21.7763 18.0981L16.7746 19.9338C16.7746 19.9338 15.8305 22.2553 16.9269 25.8017C17.9073 28.9695 21.6658 32.197 26.3666 30.827C31.2396 29.4062 31.265 21.8203 29.7337 19.3467C28.264 16.9691 26.2651 16.2605 26.2651 16.2605L21.7763 18.0981Z" fill="#FE1D1E"/>
<path d="M22.8236 15.1296C22.8476 14.8604 22.59 14.6174 22.2481 14.5869C21.9061 14.5563 21.6094 14.7497 21.5853 15.0188C21.5613 15.288 21.8189 15.531 22.1609 15.5615C22.5028 15.5921 22.7995 15.3987 22.8236 15.1296Z" fill="#2F2F2F"/>
<path d="M19.1111 16.6063C19.3875 16.4027 19.4817 16.0613 19.3214 15.8437C19.1612 15.6261 18.8072 15.6147 18.5308 15.8183C18.2544 16.0219 18.1602 16.3633 18.3204 16.5809C18.4807 16.7985 18.8347 16.8099 19.1111 16.6063Z" fill="#2F2F2F"/>
<path d="M22.2095 20.0027C22.2095 20.0027 24.183 24.8594 24.3696 25.4121C24.5545 25.9576 26.0115 30.2688 26.0876 30.4972C26.1637 30.7255 26.2072 30.9049 26.4609 30.8197C26.7418 30.7255 26.6222 30.4718 26.5461 30.267C26.47 30.0622 25.234 25.7836 25.0492 25.2164C24.6487 23.9913 23.025 19.5279 23.025 19.5279L22.2095 20.0027Z" fill="#D62F34"/>
<path d="M21.0097 16.0304C19.5037 16.5414 18.6375 17.6631 18.4327 18.0455C18.2279 18.4279 17.6172 18.3264 17.6172 18.3264C17.6172 18.3264 17.2348 18.6417 16.9884 19.0912C16.7963 19.4409 16.751 19.9592 16.751 19.9592C16.751 19.9592 18.7408 19.7472 19.8118 19.8487C20.8828 19.9501 22.7965 20.2908 22.7965 20.2908C22.7965 20.2908 23.8766 18.7432 24.6594 17.944C25.1523 17.4402 26.4626 16.3276 26.4626 16.3276C26.4626 16.3276 25.9443 15.9452 25.5619 15.8691C25.2593 15.8093 24.6014 15.7241 24.2861 15.9035C24.2589 15.9035 22.57 15.503 21.0097 16.0304Z" fill="#2F2F2F"/>
<path d="M18.6215 18.658C19.0238 18.243 18.5019 17.433 18.0941 17.4511C17.6864 17.4674 17.7027 17.7411 17.6012 17.9785C17.4997 18.2159 17.3276 18.3119 17.3638 18.5729C17.3964 18.8284 18.009 19.2887 18.6215 18.658Z" fill="#FFEBC1"/>
<path d="M23.5198 16.4979C24.2338 16.9401 24.7267 16.2605 24.7611 15.9198C24.7956 15.5791 24.2338 15.5284 24.0634 15.4269C23.8931 15.3254 23.6212 14.9503 23.3657 15.3417C23.112 15.7331 23.1138 16.2478 23.5198 16.4979Z" fill="#FFEBC1"/>
<path d="M21.3433 25.3034C22.3021 25.3034 23.0794 24.5472 23.0794 23.6144C23.0794 22.6816 22.3021 21.9254 21.3433 21.9254C20.3845 21.9254 19.6072 22.6816 19.6072 23.6144C19.6072 24.5472 20.3845 25.3034 21.3433 25.3034Z" fill="#2F2F2F"/>
<path d="M26.1167 23.7703C26.9854 23.7703 27.6897 23.0603 27.6897 22.1846C27.6897 21.3088 26.9854 20.5989 26.1167 20.5989C25.248 20.5989 24.5437 21.3088 24.5437 22.1846C24.5437 23.0603 25.248 23.7703 26.1167 23.7703Z" fill="#2F2F2F"/>
<path d="M28.6244 20.6452C29.141 20.2924 29.2398 19.538 28.8453 18.9603C28.4507 18.3826 27.7121 18.2003 27.1956 18.5531C26.679 18.9059 26.5801 19.6602 26.9747 20.2379C27.3692 20.8156 28.1078 20.998 28.6244 20.6452Z" fill="#2F2F2F"/>
<path d="M17.8584 23.9261C18.498 23.9261 19.0164 23.3427 19.0164 22.6231C19.0164 21.9035 18.498 21.3202 17.8584 21.3202C17.2189 21.3202 16.7004 21.9035 16.7004 22.6231C16.7004 23.3427 17.2189 23.9261 17.8584 23.9261Z" fill="#2F2F2F"/>
<path d="M22.3479 28.9574C23.1356 28.8781 23.7064 28.1413 23.6229 27.3118C23.5393 26.4823 22.8331 25.8741 22.0454 25.9534C21.2577 26.0328 20.6869 26.7695 20.7704 27.599C20.8539 28.4286 21.5602 29.0367 22.3479 28.9574Z" fill="#2F2F2F"/>
<path d="M28.8569 25.676C28.8907 24.874 28.3084 24.1983 27.5564 24.1667C26.8044 24.1351 26.1675 24.7596 26.1338 25.5615C26.1001 26.3635 26.6824 27.0393 27.4343 27.0709C28.1863 27.1025 28.8232 26.478 28.8569 25.676Z" fill="#2F2F2F"/>
<defs>
<filter id="filter0_d_7134_2181" x="0.878641" y="0.43932" width="44.2427" height="44.2427" filterUnits="userSpaceOnUse" color-interpolation-filters="sRGB">
<feFlood flood-opacity="0" result="BackgroundImageFix"/>
<feColorMatrix in="SourceAlpha" type="matrix" values="0 0 0 0 0 0 0 0 0 0 0 0 0 0 0 0 0 0 127 0" result="hardAlpha"/>
<feOffset dy="0.56068"/>
<feGaussianBlur stdDeviation="0.56068"/>
<feComposite in2="hardAlpha" operator="out"/>
<feColorMatrix type="matrix" values="0 0 0 0 0 0 0 0 0 0 0 0 0 0 0 0 0 0 0.28 0"/>
<feBlend mode="normal" in2="BackgroundImageFix" result="effect1_dropShadow_7134_2181"/>
<feBlend mode="normal" in="SourceGraphic" in2="effect1_dropShadow_7134_2181" result="shape"/>
</filter>
<filter id="filter1_i_7134_2181" x="6.24023" y="5.24036" width="33.5193" height="33.7231" filterUnits="userSpaceOnUse" color-interpolation-filters="sRGB">
<feFlood flood-opacity="0" result="BackgroundImageFix"/>
<feBlend mode="normal" in="SourceGraphic" in2="BackgroundImageFix" result="shape"/>
<feColorMatrix in="SourceAlpha" type="matrix" values="0 0 0 0 0 0 0 0 0 0 0 0 0 0 0 0 0 0 127 0" result="hardAlpha"/>
<feOffset dy="5.70874"/>
<feGaussianBlur stdDeviation="0.101942"/>
<feComposite in2="hardAlpha" operator="arithmetic" k2="-1" k3="1"/>
<feColorMatrix type="matrix" values="0 0 0 0 0 0 0 0 0 0 0 0 0 0 0 0 0 0 0.25 0"/>
<feBlend mode="normal" in2="shape" result="effect1_innerShadow_7134_2181"/>
</filter>
<filter id="filter2_d_7134_2181" x="1.98924" y="1.54992" width="42.0215" height="42.0216" filterUnits="userSpaceOnUse" color-interpolation-filters="sRGB">
<feFlood flood-opacity="0" result="BackgroundImageFix"/>
<feColorMatrix in="SourceAlpha" type="matrix" values="0 0 0 0 0 0 0 0 0 0 0 0 0 0 0 0 0 0 127 0" result="hardAlpha"/>
<feOffset dy="0.56068"/>
<feGaussianBlur stdDeviation="0.56068"/>
<feComposite in2="hardAlpha" operator="out"/>
<feColorMatrix type="matrix" values="0 0 0 0 0 0 0 0 0 0 0 0 0 0 0 0 0 0 0.28 0"/>
<feBlend mode="normal" in2="BackgroundImageFix" result="effect1_dropShadow_7134_2181"/>
<feBlend mode="normal" in="SourceGraphic" in2="effect1_dropShadow_7134_2181" result="shape"/>
</filter>
<radialGradient id="paint0_radial_7134_2181" cx="0" cy="0" r="1" gradientUnits="userSpaceOnUse" gradientTransform="translate(23.0001 22) rotate(90) scale(16.7596)">
<stop stop-color="#461310"/>
<stop offset="1" stop-color="#461010" stop-opacity="0.5"/>
</radialGradient>
<linearGradient id="paint1_linear_7134_2181" x1="23" y1="2.1106" x2="23" y2="41.8894" gradientUnits="userSpaceOnUse">
<stop stop-color="#D6D6D6"/>
<stop offset="1" stop-color="#E0E0E0"/>
</linearGradient>
<clipPath id="clip0_7134_2181">
<rect width="33.5388" height="33.5388" fill="white" transform="translate(6.23047 5.23059)"/>
</clipPath>
</defs>
</svg>
