<svg width="24" height="24" viewBox="0 0 24 24" fill="none" xmlns="http://www.w3.org/2000/svg">
<g id="Frame">
<path id="Vector" d="M18 8C18 9 15 10 12 10C9 10 6 9 6 8C6 6.4087 6.63214 4.88258 7.75736 3.75736C8.88258 2.63214 10.4087 2 12 2C13.5913 2 15.1174 2.63214 16.2426 3.75736C17.3679 4.88258 18 6.4087 18 8Z" stroke="#C0C1C3" stroke-width="2" stroke-linecap="round" stroke-linejoin="round"/>
<path id="Vector_2" d="M7 13H7.01" stroke="#C0C1C3" stroke-width="2" stroke-linecap="round" stroke-linejoin="round"/>
<path id="Vector_3" d="M12 14H12.01" stroke="#C0C1C3" stroke-width="2" stroke-linecap="round" stroke-linejoin="round"/>
<path id="Vector_4" d="M17 13H17.01" stroke="#C0C1C3" stroke-width="2" stroke-linecap="round" stroke-linejoin="round"/>
<path id="Vector_5" d="M6 8.1001C3.6 9.1001 2 10.7001 2 12.5001C2 15.5001 6.5 18.0001 12 18.0001C17.5 18.0001 22 15.5001 22 12.5001C22 10.7001 20.4 9.1001 18 8.1001" stroke="#C0C1C3" stroke-width="2" stroke-linecap="round" stroke-linejoin="round"/>
<path id="Vector_6" d="M7 22L9 18" stroke="#C0C1C3" stroke-width="2" stroke-linecap="round" stroke-linejoin="round"/>
<path id="Vector_7" d="M17 22L15 18" stroke="#C0C1C3" stroke-width="2" stroke-linecap="round" stroke-linejoin="round"/>
</g>
</svg>
