<svg width="46" height="45" viewBox="0 0 46 45" fill="none" xmlns="http://www.w3.org/2000/svg">
<g filter="url(#filter0_d_7134_2370)">
<rect x="2" y="1" width="42" height="42" rx="9.37864" fill="#ECE3CA"/>
</g>
<g clip-path="url(#clip0_7134_2370)">
<path d="M34.9488 2.0704H11.0729C6.68145 2.0704 3.12146 5.63039 3.12146 10.0219V33.8978C3.12146 38.2893 6.68145 41.8492 11.0729 41.8492H34.9488C39.3403 41.8492 42.9003 38.2893 42.9003 33.8978V10.0219C42.9003 5.63039 39.3403 2.0704 34.9488 2.0704Z" fill="black"/>
<path d="M11.0317 5.26587H34.9684C37.6005 5.26587 39.7342 7.39958 39.7342 10.0316V33.9683C39.7342 36.6004 37.6005 38.7341 34.9684 38.7341H11.0317C8.39967 38.7341 6.26596 36.6004 6.26596 33.9683V10.0316C6.26596 7.39958 8.39967 5.26587 11.0317 5.26587Z" fill="url(#paint0_radial_7134_2370)" stroke="black" stroke-width="0.0509709"/>
<path d="M39.7695 6.68875H6.23071V8.14696H39.7695V6.68875Z" fill="black" fill-opacity="0.25"/>
<path d="M39.7697 9.60519H6.23083V11.0634H39.7697V9.60519Z" fill="black" fill-opacity="0.25"/>
<path d="M39.7697 12.5216H6.23083V13.9798H39.7697V12.5216Z" fill="black" fill-opacity="0.25"/>
<path d="M39.7697 15.4381H6.23083V16.8963H39.7697V15.4381Z" fill="black" fill-opacity="0.25"/>
<path d="M39.7697 18.3545H6.23083V19.8127H39.7697V18.3545Z" fill="black" fill-opacity="0.25"/>
<path d="M39.7697 21.2708H6.23083V22.7291H39.7697V21.2708Z" fill="black" fill-opacity="0.25"/>
<path d="M39.7697 24.1873H6.23083V25.6455H39.7697V24.1873Z" fill="black" fill-opacity="0.25"/>
<path d="M39.7697 27.1037H6.23083V28.5619H39.7697V27.1037Z" fill="black" fill-opacity="0.25"/>
<path d="M39.7697 30.0202H6.23083V31.4784H39.7697V30.0202Z" fill="black" fill-opacity="0.25"/>
<path d="M39.7697 32.9366H6.23083V34.3948H39.7697V32.9366Z" fill="black" fill-opacity="0.25"/>
<path d="M39.7697 35.8529H6.23083V37.3111H39.7697V35.8529Z" fill="black" fill-opacity="0.25"/>
<g filter="url(#filter1_i_7134_2370)">
<path d="M11.0317 5.26587H34.9684C37.6005 5.26587 39.7342 7.39958 39.7342 10.0316V33.9683C39.7342 36.6004 37.6005 38.7341 34.9684 38.7341H11.0317C8.39967 38.7341 6.26596 36.6004 6.26596 33.9683V10.0316C6.26596 7.39958 8.39967 5.26587 11.0317 5.26587Z" stroke="black" stroke-width="0.0509709"/>
</g>
</g>
<g filter="url(#filter2_d_7134_2370)">
<path fill-rule="evenodd" clip-rule="evenodd" d="M11.0621 2.1106H34.938C39.3294 2.1106 42.8894 5.67058 42.8894 10.0621V33.938C42.8894 38.3294 39.3294 41.8894 34.938 41.8894H11.0621C6.67058 41.8894 3.1106 38.3294 3.1106 33.938V10.0621C3.1106 5.67058 6.67058 2.1106 11.0621 2.1106ZM11.0219 5.28154H34.9586C37.6047 5.28154 39.7498 7.42666 39.7498 10.0728V34.0095C39.7498 36.6556 37.6047 38.8008 34.9586 38.8008H11.0219C8.37575 38.8008 6.23062 36.6556 6.23062 34.0095V10.0728C6.23062 7.42666 8.37575 5.28154 11.0219 5.28154Z" fill="url(#paint1_linear_7134_2370)"/>
</g>
<path fill-rule="evenodd" clip-rule="evenodd" d="M11.1238 1H34.8762C39.9151 1 44 5.08486 44 10.1238V33.8762C44 38.9151 39.9151 43 34.8762 43H11.1238C6.08486 43 2 38.9151 2 33.8762V10.1238C2 5.08486 6.08486 1 11.1238 1ZM11.062 2.1106H34.9379C39.3294 2.1106 42.8894 5.67059 42.8894 10.0621V33.938C42.8894 38.3295 39.3294 41.8894 34.9379 41.8894H11.062C6.67054 41.8894 3.11055 38.3295 3.11055 33.938V10.0621C3.11055 5.67059 6.67054 2.1106 11.062 2.1106Z" fill="#C3C3C3"/>
<circle opacity="0.1" cx="23.0001" cy="22" r="18.0947" stroke="white" stroke-width="0.101942"/>
<circle opacity="0.1" cx="23" cy="22" r="11.6214" stroke="white" stroke-width="0.101942"/>
<circle opacity="0.1" cx="23.0001" cy="22" r="10.9078" stroke="white" stroke-width="0.101942"/>
<circle opacity="0.1" cx="23.0001" cy="22" r="5.19903" stroke="white" stroke-width="0.101942"/>
<circle opacity="0.1" cx="23" cy="22" r="3.56796" stroke="white" stroke-width="0.101942"/>
<rect opacity="0.1" x="22.949" y="1" width="0.101942" height="42" fill="white"/>
<rect opacity="0.1" x="44" y="21.949" width="0.101942" height="42" transform="rotate(90 44 21.949)" fill="white"/>
<rect opacity="0.1" x="36.915" y="1" width="0.101942" height="42" fill="white"/>
<rect opacity="0.1" x="15.9661" y="1" width="0.101942" height="42" fill="white"/>
<rect opacity="0.1" x="29.932" y="1" width="0.101942" height="42" fill="white"/>
<rect opacity="0.1" x="8.98303" y="1" width="0.101942" height="42" fill="white"/>
<rect opacity="0.1" x="44" y="35.915" width="0.101942" height="42" transform="rotate(90 44 35.915)" fill="white"/>
<rect opacity="0.1" x="44" y="14.966" width="0.101942" height="42" transform="rotate(90 44 14.966)" fill="white"/>
<rect opacity="0.1" x="44" y="28.932" width="0.101942" height="42" transform="rotate(90 44 28.932)" fill="white"/>
<rect opacity="0.1" x="44" y="7.983" width="0.101942" height="42" transform="rotate(90 44 7.983)" fill="white"/>
<g clip-path="url(#clip1_7134_2370)">
<path d="M14.0291 24.2192C14.0291 28.1321 16.1302 29.5687 22.2194 32.9992C22.4981 33.1493 22.7661 33.2136 22.9377 33.2136C23.1092 33.2136 23.3879 33.1493 23.6559 32.9992C29.7558 29.5794 31.8463 28.1321 31.8463 24.2192V16.0181C31.8463 14.8925 31.3638 14.5387 30.4526 14.1528C29.1876 13.6275 25.1032 12.1588 23.8382 11.7193C23.5487 11.6228 23.2378 11.5585 22.9377 11.5585C22.6375 11.5585 22.3266 11.6442 22.0479 11.7193C20.7829 12.0838 16.6877 13.6382 15.4227 14.1528C14.5222 14.528 14.0291 14.8925 14.0291 16.0181V24.2192ZM15.7336 23.8225V22.0965H22.9377V13.2844C23.0556 13.2844 23.1949 13.3166 23.3664 13.3809C24.9853 14.0242 28.1263 15.1605 29.788 15.7287C30.0774 15.8359 30.1417 15.986 30.1417 16.3505V22.0965H22.9377V31.2732C22.7661 31.2732 22.5946 31.2089 22.273 31.0159C17.3202 28.0142 15.7336 27.1351 15.7336 23.8225Z" fill="#F24769"/>
</g>
<defs>
<filter id="filter0_d_7134_2370" x="0.878641" y="0.43932" width="44.2427" height="44.2427" filterUnits="userSpaceOnUse" color-interpolation-filters="sRGB">
<feFlood flood-opacity="0" result="BackgroundImageFix"/>
<feColorMatrix in="SourceAlpha" type="matrix" values="0 0 0 0 0 0 0 0 0 0 0 0 0 0 0 0 0 0 127 0" result="hardAlpha"/>
<feOffset dy="0.56068"/>
<feGaussianBlur stdDeviation="0.56068"/>
<feComposite in2="hardAlpha" operator="out"/>
<feColorMatrix type="matrix" values="0 0 0 0 0 0 0 0 0 0 0 0 0 0 0 0 0 0 0.28 0"/>
<feBlend mode="normal" in2="BackgroundImageFix" result="effect1_dropShadow_7134_2370"/>
<feBlend mode="normal" in="SourceGraphic" in2="effect1_dropShadow_7134_2370" result="shape"/>
</filter>
<filter id="filter1_i_7134_2370" x="6.24048" y="5.24039" width="33.5192" height="33.7231" filterUnits="userSpaceOnUse" color-interpolation-filters="sRGB">
<feFlood flood-opacity="0" result="BackgroundImageFix"/>
<feBlend mode="normal" in="SourceGraphic" in2="BackgroundImageFix" result="shape"/>
<feColorMatrix in="SourceAlpha" type="matrix" values="0 0 0 0 0 0 0 0 0 0 0 0 0 0 0 0 0 0 127 0" result="hardAlpha"/>
<feOffset dy="5.70874"/>
<feGaussianBlur stdDeviation="0.101942"/>
<feComposite in2="hardAlpha" operator="arithmetic" k2="-1" k3="1"/>
<feColorMatrix type="matrix" values="0 0 0 0 0 0 0 0 0 0 0 0 0 0 0 0 0 0 0.25 0"/>
<feBlend mode="normal" in2="shape" result="effect1_innerShadow_7134_2370"/>
</filter>
<filter id="filter2_d_7134_2370" x="1.98924" y="1.54992" width="42.0215" height="42.0216" filterUnits="userSpaceOnUse" color-interpolation-filters="sRGB">
<feFlood flood-opacity="0" result="BackgroundImageFix"/>
<feColorMatrix in="SourceAlpha" type="matrix" values="0 0 0 0 0 0 0 0 0 0 0 0 0 0 0 0 0 0 127 0" result="hardAlpha"/>
<feOffset dy="0.56068"/>
<feGaussianBlur stdDeviation="0.56068"/>
<feComposite in2="hardAlpha" operator="out"/>
<feColorMatrix type="matrix" values="0 0 0 0 0 0 0 0 0 0 0 0 0 0 0 0 0 0 0.28 0"/>
<feBlend mode="normal" in2="BackgroundImageFix" result="effect1_dropShadow_7134_2370"/>
<feBlend mode="normal" in="SourceGraphic" in2="effect1_dropShadow_7134_2370" result="shape"/>
</filter>
<radialGradient id="paint0_radial_7134_2370" cx="0" cy="0" r="1" gradientUnits="userSpaceOnUse" gradientTransform="translate(23.0001 22) rotate(90) scale(16.7596)">
<stop stop-color="#461027"/>
<stop offset="1" stop-color="#46102A" stop-opacity="0.5"/>
</radialGradient>
<linearGradient id="paint1_linear_7134_2370" x1="23" y1="2.1106" x2="23" y2="41.8894" gradientUnits="userSpaceOnUse">
<stop stop-color="#D6D6D6"/>
<stop offset="1" stop-color="#E0E0E0"/>
</linearGradient>
<clipPath id="clip0_7134_2370">
<rect width="33.5388" height="33.5388" fill="white" transform="translate(6.23059 5.23059)"/>
</clipPath>
<clipPath id="clip1_7134_2370">
<rect width="17.8172" height="22.2233" fill="white" transform="translate(14.0292 10.9903)"/>
</clipPath>
</defs>
</svg>
