<svg xmlns="http://www.w3.org/2000/svg" fill="none" viewBox="0 0 25 24"><path stroke="#7190F9" stroke-width="2" d="M5.5 5.5V19"/><ellipse cx="11.499" cy="5.5" stroke="#7190F9" stroke-width="2" rx="6" ry="2.5"/><ellipse cx="11.499" cy="5.425" fill="#7190F9" rx="1.5" ry=".625"/><path stroke="#7190F9" stroke-width="2" d="M17.5 19c0 1.105-2.687 2-6 2s-6-.895-6-2"/><path stroke="#7190F9" stroke-linecap="round" stroke-width="2" d="M9.5 11v1.915a.1.1 0 0 0 .083.099l2.833.472a.1.1 0 0 1 .083.099V17"/><path stroke="#7190F9" stroke-width="2" d="M17.5 5.5v5.32a.1.1 0 0 0 .153.084l3.73-2.331a.1.1 0 0 1 .15.06l.454 1.815a.1.1 0 0 1-.023.091l-4.438 4.933a.1.1 0 0 0-.026.066V19"/></svg>