<svg width="46" height="45" viewBox="0 0 46 45" fill="none" xmlns="http://www.w3.org/2000/svg">
<g filter="url(#filter0_d_7134_2126)">
<rect x="2" y="1" width="42" height="42" rx="9.37864" fill="#ECE3CA"/>
</g>
<g clip-path="url(#clip0_7134_2126)">
<path d="M34.9488 2.07037H11.0729C6.68145 2.07037 3.12146 5.63036 3.12146 10.0218V33.8978C3.12146 38.2892 6.68145 41.8492 11.0729 41.8492H34.9488C39.3403 41.8492 42.9003 38.2892 42.9003 33.8978V10.0218C42.9003 5.63036 39.3403 2.07037 34.9488 2.07037Z" fill="black"/>
<path d="M11.0317 5.26584H34.9684C37.6005 5.26584 39.7342 7.39955 39.7342 10.0316V33.9683C39.7342 36.6004 37.6005 38.7341 34.9684 38.7341H11.0317C8.39967 38.7341 6.26596 36.6004 6.26596 33.9683V10.0316C6.26596 7.39955 8.39967 5.26584 11.0317 5.26584Z" fill="url(#paint0_radial_7134_2126)" stroke="black" stroke-width="0.0509709"/>
<path d="M39.7695 6.68875H6.23071V8.14696H39.7695V6.68875Z" fill="black" fill-opacity="0.25"/>
<path d="M39.7697 9.60519H6.23083V11.0634H39.7697V9.60519Z" fill="black" fill-opacity="0.25"/>
<path d="M39.7697 12.5216H6.23083V13.9798H39.7697V12.5216Z" fill="black" fill-opacity="0.25"/>
<path d="M39.7697 15.4381H6.23083V16.8963H39.7697V15.4381Z" fill="black" fill-opacity="0.25"/>
<path d="M39.7697 18.3545H6.23083V19.8127H39.7697V18.3545Z" fill="black" fill-opacity="0.25"/>
<path d="M39.7697 21.2708H6.23083V22.7291H39.7697V21.2708Z" fill="black" fill-opacity="0.25"/>
<path d="M39.7697 24.1873H6.23083V25.6455H39.7697V24.1873Z" fill="black" fill-opacity="0.25"/>
<path d="M39.7697 27.1037H6.23083V28.5619H39.7697V27.1037Z" fill="black" fill-opacity="0.25"/>
<path d="M39.7697 30.0202H6.23083V31.4784H39.7697V30.0202Z" fill="black" fill-opacity="0.25"/>
<path d="M39.7697 32.9366H6.23083V34.3948H39.7697V32.9366Z" fill="black" fill-opacity="0.25"/>
<path d="M39.7697 35.8529H6.23083V37.3111H39.7697V35.8529Z" fill="black" fill-opacity="0.25"/>
</g>
<g filter="url(#filter1_d_7134_2126)">
<path fill-rule="evenodd" clip-rule="evenodd" d="M11.0621 2.1106H34.938C39.3294 2.1106 42.8894 5.67058 42.8894 10.0621V33.938C42.8894 38.3294 39.3294 41.8894 34.938 41.8894H11.0621C6.67058 41.8894 3.1106 38.3294 3.1106 33.938V10.0621C3.1106 5.67058 6.67058 2.1106 11.0621 2.1106ZM11.0219 5.28154H34.9586C37.6047 5.28154 39.7498 7.42666 39.7498 10.0728V34.0095C39.7498 36.6556 37.6047 38.8008 34.9586 38.8008H11.0219C8.37575 38.8008 6.23062 36.6556 6.23062 34.0095V10.0728C6.23062 7.42666 8.37575 5.28154 11.0219 5.28154Z" fill="url(#paint1_linear_7134_2126)"/>
</g>
<path fill-rule="evenodd" clip-rule="evenodd" d="M11.1238 1H34.8762C39.9151 1 44 5.08486 44 10.1238V33.8762C44 38.9151 39.9151 43 34.8762 43H11.1238C6.08486 43 2 38.9151 2 33.8762V10.1238C2 5.08486 6.08486 1 11.1238 1ZM11.062 2.1106H34.9379C39.3294 2.1106 42.8894 5.67059 42.8894 10.0621V33.938C42.8894 38.3295 39.3294 41.8894 34.9379 41.8894H11.062C6.67054 41.8894 3.11055 38.3295 3.11055 33.938V10.0621C3.11055 5.67059 6.67054 2.1106 11.062 2.1106Z" fill="#C3C3C3"/>
<circle opacity="0.1" cx="23.0001" cy="22" r="18.0947" stroke="white" stroke-width="0.101942"/>
<circle opacity="0.1" cx="23" cy="22" r="11.6214" stroke="white" stroke-width="0.101942"/>
<circle opacity="0.1" cx="23.0001" cy="22" r="10.9078" stroke="white" stroke-width="0.101942"/>
<circle opacity="0.1" cx="23.0001" cy="22" r="5.19903" stroke="white" stroke-width="0.101942"/>
<circle opacity="0.1" cx="23" cy="22" r="3.56796" stroke="white" stroke-width="0.101942"/>
<rect opacity="0.1" x="22.949" y="1" width="0.101942" height="42" fill="white"/>
<rect opacity="0.1" x="44" y="21.949" width="0.101942" height="42" transform="rotate(90 44 21.949)" fill="white"/>
<rect opacity="0.1" x="36.915" y="1" width="0.101942" height="42" fill="white"/>
<rect opacity="0.1" x="15.9661" y="1" width="0.101942" height="42" fill="white"/>
<rect opacity="0.1" x="29.932" y="1" width="0.101942" height="42" fill="white"/>
<rect opacity="0.1" x="8.98303" y="1" width="0.101942" height="42" fill="white"/>
<rect opacity="0.1" x="44" y="35.915" width="0.101942" height="42" transform="rotate(90 44 35.915)" fill="white"/>
<rect opacity="0.1" x="44" y="14.966" width="0.101942" height="42" transform="rotate(90 44 14.966)" fill="white"/>
<rect opacity="0.1" x="44" y="28.932" width="0.101942" height="42" transform="rotate(90 44 28.932)" fill="white"/>
<rect opacity="0.1" x="44" y="7.983" width="0.101942" height="42" transform="rotate(90 44 7.983)" fill="white"/>
<g filter="url(#filter2_d_7134_2126)">
<path d="M14.5485 28.6558L12.8268 28.9045L14.0721 25.4449L15.1856 28.0167L14.5485 28.6558Z" fill="#502921"/>
<path d="M31.0721 16.5161C30.8855 17.0344 29.8321 20.2355 29.8321 20.2355C29.8321 20.2355 29.7544 20.5913 29.9793 20.7692C30.127 20.8863 30.5375 20.8984 31.1114 20.7095C31.1882 20.6848 31.2713 20.707 31.3229 20.7682C31.4575 20.933 31.7541 21.2666 31.7665 21.9591C31.7801 22.7239 31.5282 23.2729 31.4022 23.4989C31.3595 23.5746 31.2952 23.6348 31.2278 23.6765C30.6255 24.0412 27.5764 25.9637 26.9648 27.6626C26.9648 27.6626 26.1066 30.1547 25.5815 31.6134C25.1028 32.9433 22.4568 33.245 19.3782 32.4276L17.8768 31.3696L15.8306 31.0227C15.2537 30.7084 14.7309 30.3729 14.2776 30.0276L14.2941 25.9589L12.8268 28.9044C12.8268 28.9044 12.2193 27.5712 12.4639 26.8916C12.9933 25.4209 17.5412 11.6553 17.5412 11.6553L31.0721 16.5161Z" fill="#6A3E2B"/>
<path d="M29.9798 20.7675C29.9543 20.7467 29.9335 20.7237 29.915 20.6996C29.9385 20.7313 29.9634 20.7538 29.9798 20.7675Z" fill="url(#paint2_linear_7134_2126)"/>
<path d="M21.0131 15.9251C20.613 16.8589 20.1731 17.7686 19.727 18.6742L19.059 20.029C18.84 20.4813 18.6074 20.9229 18.4586 21.3792C18.2919 21.8425 18.1437 22.3242 17.9978 22.8048L17.5499 24.2485C17.2494 25.2123 16.9439 26.1743 16.593 27.1277C16.7231 26.12 16.9163 25.1254 17.1383 24.1372C17.3626 23.1479 17.6113 22.1713 17.9432 21.1956C18.1195 20.695 18.3646 20.2404 18.5996 19.792C18.845 19.3472 19.0898 18.9042 19.3522 18.4714C19.8724 17.6023 20.416 16.7492 21.0131 15.9251Z" fill="#A05E39"/>
<path d="M17.0526 19.9271C17.0557 20.0639 17.0139 20.1962 16.9825 20.3264C16.9454 20.4564 16.9082 20.5865 16.866 20.7148C16.7814 20.9712 16.6934 21.2264 16.5986 21.4792C16.4123 21.9859 16.2112 22.4853 16.0015 22.9817C15.7935 23.4787 15.5776 23.9708 15.3548 24.4605C15.1372 24.9521 14.9024 25.4375 14.671 25.9241L14.6881 25.8604L14.6099 26.8422L14.5185 27.8231C14.4516 28.4775 14.3779 29.1294 14.2804 29.7824C14.2615 29.1243 14.2662 28.465 14.2778 27.8082L14.3029 26.8228L14.3418 25.8424L14.3431 25.8118L14.3583 25.7805C14.5822 25.2931 14.7998 24.8016 15.0295 24.3143C15.2533 23.827 15.483 23.3397 15.7138 22.8548L16.4095 21.4014L16.755 20.6729C16.8121 20.5519 16.8682 20.4287 16.9218 20.3065C16.9704 20.1824 17.0332 20.0616 17.0526 19.9271Z" fill="#A05E39"/>
<path d="M19.2494 27.0177L17.7051 31.3079L18.9544 32.1453C18.9544 32.1453 19.023 29.2623 19.2494 27.0177Z" fill="#A05E39"/>
<path d="M25.4477 25.9536C27.2224 24.0821 31.5181 22.9185 31.5181 22.9185L31.6459 22.8811C31.556 23.19 31.4615 23.4041 31.3908 23.5143C31.3597 23.5632 31.2887 23.6365 31.2495 23.6592C30.7742 23.9456 27.5942 25.914 26.9654 27.661C26.9654 27.661 26.1071 30.1531 25.5821 31.6117C25.3467 32.2655 24.3023 32.9053 22.5725 32.8642L25.0503 28.1347L22.9499 29.1232C22.9493 29.1249 24.2003 27.2705 25.4477 25.9536Z" fill="#49281B"/>
<path d="M29.8723 20.124C29.6667 20.8351 30.2075 20.8514 30.2075 20.8514C29.5576 20.9121 28.6985 20.7677 28.3436 20.289C27.9523 19.7605 28.3504 17.8898 28.3504 17.8898L29.0642 16.9837L31.0258 16.6178L29.8723 20.124Z" fill="#49281B"/>
<path d="M24.9173 11.2613C21.4482 10.1018 18.2821 10.319 17.7527 11.7897C17.2048 13.3118 19.6872 15.5972 23.2961 16.8962C26.905 18.1953 30.275 18.0146 30.8223 16.4942C31.3492 15.0304 29.0724 12.8578 25.6838 11.5392" fill="#FFCC80"/>
<path d="M24.9174 11.2613C23.6517 10.9163 22.3549 10.6685 21.0584 10.6786C20.4139 10.6812 19.7652 10.7385 19.1711 10.9297C18.878 11.0278 18.594 11.1543 18.371 11.3376C18.1441 11.5157 17.9931 11.7521 17.9453 12.014C17.8982 12.2743 17.9531 12.5577 18.072 12.8253C18.1908 13.093 18.3571 13.3525 18.5546 13.5902C18.9505 14.0681 19.4391 14.4824 19.9583 14.8496C21.0017 15.5857 22.1685 16.1569 23.3807 16.5913C24.5893 17.0302 25.8523 17.3395 27.126 17.4413C27.7594 17.491 28.4022 17.4878 29.0117 17.3776C29.3165 17.3226 29.6128 17.2373 29.8766 17.1074C30.1409 16.9816 30.373 16.8054 30.5094 16.5773C30.6544 16.3523 30.6887 16.0739 30.6423 15.7935C30.5924 15.512 30.4629 15.2308 30.3019 14.9674C29.9753 14.4369 29.5125 13.9777 29.0205 13.5621C28.0331 12.724 26.8772 12.085 25.6838 11.5392C25.9946 11.6452 26.3028 11.7581 26.6097 11.8802C26.9131 12.0068 27.2144 12.1444 27.5086 12.291C28.0975 12.5883 28.6734 12.9216 29.2115 13.3169C29.7437 13.7178 30.2516 14.17 30.6483 14.7373C30.8464 15.0219 31.0107 15.3408 31.0898 15.7026C31.1678 16.0622 31.1353 16.4808 30.9368 16.8223C30.7463 17.1685 30.4342 17.4109 30.1181 17.5782C29.7974 17.7477 29.4586 17.8487 29.1188 17.9202C28.4405 18.0598 27.7565 18.0753 27.0835 18.0385C25.7357 17.9488 24.425 17.6321 23.1652 17.1844C21.9128 16.722 20.6998 16.1283 19.6081 15.3322C19.0667 14.9299 18.5531 14.4775 18.1223 13.9348C17.9084 13.662 17.7177 13.3627 17.5815 13.0248C17.4498 12.6905 17.3778 12.2982 17.4619 11.9137C17.5051 11.7238 17.5844 11.5411 17.6944 11.381C17.8026 11.2203 17.9424 11.0903 18.0893 10.9784C18.3848 10.7553 18.7185 10.6253 19.0518 10.534C19.7211 10.3601 20.3984 10.3364 21.0645 10.3707C21.7299 10.4125 22.3855 10.5244 23.0298 10.673C23.3511 10.7499 23.6692 10.8353 23.9848 10.9334C24.3003 11.0315 24.6109 11.1433 24.9174 11.2613Z" fill="#A05E39"/>
<path d="M17.815 11.2984C17.3808 12.5048 19.4878 14.3681 22.5235 15.4609C25.5592 16.5536 28.3705 16.4606 28.8047 15.2542C29.239 14.0478 28.6674 12.27 24.0968 11.09C20.9729 10.2854 18.2499 10.0903 17.815 11.2984Z" fill="url(#paint3_radial_7134_2126)"/>
<g opacity="0.66">
<path opacity="0.66" d="M19.3287 12.0313C19.2411 12.2692 19.3046 12.5344 19.4129 12.7614C19.5269 12.9885 19.6865 13.1913 19.8621 13.3767C20.2162 13.7445 20.6319 14.0492 21.0621 14.3242C21.9314 14.8601 22.8705 15.2776 23.8324 15.6102C24.7943 15.9429 25.7899 16.1927 26.7964 16.2992C27.2983 16.348 27.8068 16.3624 28.2993 16.2974C28.5436 16.2651 28.7844 16.2045 28.9984 16.1109C29.2084 16.0121 29.3901 15.8681 29.4529 15.6775C29.5185 15.4898 29.4667 15.2676 29.3625 15.0615C29.2544 14.8559 29.1049 14.6625 28.9337 14.4865C28.5919 14.1328 28.1866 13.8318 27.765 13.5599C27.3417 13.2873 26.8968 13.0477 26.4422 12.8298C25.9888 12.6085 25.5204 12.4127 25.0462 12.2382C24.0963 11.8885 23.1214 11.5918 22.1179 11.4341C21.6165 11.3622 21.107 11.3184 20.6016 11.3652C20.3501 11.391 20.0997 11.4404 19.8655 11.5364C19.6381 11.6348 19.4186 11.7923 19.3287 12.0313ZM19.291 12.0177C19.3789 11.7625 19.6057 11.5902 19.8391 11.4804C20.0776 11.3724 20.3308 11.3045 20.5884 11.2674C21.102 11.1867 21.6236 11.1864 22.1413 11.2235C23.1756 11.3012 24.2001 11.5246 25.1803 11.8658C25.67 12.0401 26.1516 12.2368 26.6217 12.4602C27.0905 12.6871 27.5448 12.9437 27.9816 13.2327C28.4148 13.5263 28.8311 13.8506 29.195 14.2452C29.3761 14.4422 29.54 14.6602 29.6661 14.913C29.7248 15.0407 29.774 15.1786 29.7964 15.3263C29.8189 15.4739 29.8093 15.6352 29.7538 15.7839C29.6984 15.9326 29.6019 16.0607 29.4894 16.1578C29.3769 16.2549 29.2517 16.3281 29.1245 16.3851C28.8681 16.4944 28.6031 16.5521 28.3387 16.581C27.8112 16.6412 27.2874 16.6154 26.7708 16.5535C25.7394 16.4246 24.7363 16.1527 23.7674 15.7962C22.804 15.43 21.8687 14.9751 21.0177 14.3935C20.5931 14.1031 20.1854 13.7818 19.8349 13.4037C19.6582 13.216 19.5028 13.007 19.3843 12.7763C19.2715 12.5457 19.2013 12.2723 19.291 12.0177Z" fill="#7F441C"/>
</g>
<path opacity="0.82" d="M20.5529 12.2548C20.3237 12.8915 21.7955 14.0047 23.8394 14.7404C25.8832 15.4761 27.7269 15.5563 27.956 14.9196C28.1852 14.283 26.7134 13.1697 24.6696 12.434C22.6257 11.6983 20.7821 11.6182 20.5529 12.2548ZM21.1844 12.4821C21.3562 12.0051 22.8034 12.0879 24.4182 12.6692C26.033 13.2505 27.2011 14.109 27.0294 14.5861C26.8576 15.0631 25.4104 14.9803 23.7956 14.399C22.1807 13.8177 21.0127 12.9592 21.1844 12.4821Z" fill="#B5772C"/>
<path opacity="0.74" d="M24.4991 14.001C25.3037 14.2906 26.0179 14.3533 26.0944 14.141C26.1708 13.9287 25.5804 13.5218 24.7758 13.2322C23.9711 12.9425 23.2569 12.8798 23.1805 13.0921C23.1041 13.3044 23.6944 13.7113 24.4991 14.001Z" fill="url(#paint4_linear_7134_2126)"/>
</g>
<defs>
<filter id="filter0_d_7134_2126" x="0.878641" y="0.43932" width="44.2427" height="44.2427" filterUnits="userSpaceOnUse" color-interpolation-filters="sRGB">
<feFlood flood-opacity="0" result="BackgroundImageFix"/>
<feColorMatrix in="SourceAlpha" type="matrix" values="0 0 0 0 0 0 0 0 0 0 0 0 0 0 0 0 0 0 127 0" result="hardAlpha"/>
<feOffset dy="0.56068"/>
<feGaussianBlur stdDeviation="0.56068"/>
<feComposite in2="hardAlpha" operator="out"/>
<feColorMatrix type="matrix" values="0 0 0 0 0 0 0 0 0 0 0 0 0 0 0 0 0 0 0.28 0"/>
<feBlend mode="normal" in2="BackgroundImageFix" result="effect1_dropShadow_7134_2126"/>
<feBlend mode="normal" in="SourceGraphic" in2="effect1_dropShadow_7134_2126" result="shape"/>
</filter>
<filter id="filter1_d_7134_2126" x="1.98924" y="1.54992" width="42.0215" height="42.0216" filterUnits="userSpaceOnUse" color-interpolation-filters="sRGB">
<feFlood flood-opacity="0" result="BackgroundImageFix"/>
<feColorMatrix in="SourceAlpha" type="matrix" values="0 0 0 0 0 0 0 0 0 0 0 0 0 0 0 0 0 0 127 0" result="hardAlpha"/>
<feOffset dy="0.56068"/>
<feGaussianBlur stdDeviation="0.56068"/>
<feComposite in2="hardAlpha" operator="out"/>
<feColorMatrix type="matrix" values="0 0 0 0 0 0 0 0 0 0 0 0 0 0 0 0 0 0 0.28 0"/>
<feBlend mode="normal" in2="BackgroundImageFix" result="effect1_dropShadow_7134_2126"/>
<feBlend mode="normal" in="SourceGraphic" in2="effect1_dropShadow_7134_2126" result="shape"/>
</filter>
<filter id="filter2_d_7134_2126" x="9.01686" y="8.09795" width="26.1393" height="29.3007" filterUnits="userSpaceOnUse" color-interpolation-filters="sRGB">
<feFlood flood-opacity="0" result="BackgroundImageFix"/>
<feColorMatrix in="SourceAlpha" type="matrix" values="0 0 0 0 0 0 0 0 0 0 0 0 0 0 0 0 0 0 127 0" result="hardAlpha"/>
<feOffset dy="1.12968"/>
<feGaussianBlur stdDeviation="1.69451"/>
<feComposite in2="hardAlpha" operator="out"/>
<feColorMatrix type="matrix" values="0 0 0 0 0 0 0 0 0 0 0 0 0 0 0 0 0 0 0.6 0"/>
<feBlend mode="normal" in2="BackgroundImageFix" result="effect1_dropShadow_7134_2126"/>
<feBlend mode="normal" in="SourceGraphic" in2="effect1_dropShadow_7134_2126" result="shape"/>
</filter>
<radialGradient id="paint0_radial_7134_2126" cx="0" cy="0" r="1" gradientUnits="userSpaceOnUse" gradientTransform="translate(23.0001 22) rotate(90) scale(16.7596)">
<stop stop-color="#463110"/>
<stop offset="1" stop-color="#462A10" stop-opacity="0.5"/>
</radialGradient>
<linearGradient id="paint1_linear_7134_2126" x1="23" y1="2.1106" x2="23" y2="41.8894" gradientUnits="userSpaceOnUse">
<stop stop-color="#D6D6D6"/>
<stop offset="1" stop-color="#E0E0E0"/>
</linearGradient>
<linearGradient id="paint2_linear_7134_2126" x1="29.9517" y1="20.7298" x2="29.9446" y2="20.7397" gradientUnits="userSpaceOnUse">
<stop stop-color="#CE8963"/>
<stop offset="1" stop-color="#D08A61" stop-opacity="0"/>
</linearGradient>
<radialGradient id="paint3_radial_7134_2126" cx="0" cy="0" r="1" gradientUnits="userSpaceOnUse" gradientTransform="translate(24.5701 13.1038) rotate(-160.203) scale(4.65841 3.71946)">
<stop offset="0.0561" stop-color="#FF9B26"/>
<stop offset="0.135" stop-color="#FFA726"/>
<stop offset="1" stop-color="#FFA726" stop-opacity="0.1"/>
</radialGradient>
<linearGradient id="paint4_linear_7134_2126" x1="26.0945" y1="14.1408" x2="23.179" y2="13.0913" gradientUnits="userSpaceOnUse">
<stop offset="0.000358545" stop-color="#8A5140"/>
<stop offset="1" stop-color="#8A5140"/>
</linearGradient>
<clipPath id="clip0_7134_2126">
<rect width="33.5388" height="33.5388" fill="white" transform="translate(6.23059 5.23059)"/>
</clipPath>
</defs>
</svg>
