<svg width="24" height="24" viewBox="0 0 24 24" fill="none" xmlns="http://www.w3.org/2000/svg">
<path d="M20 12.9999C20 17.9999 16.5 20.4999 12.34 21.9499C12.1222 22.0237 11.8855 22.0202 11.67 21.9399C7.5 20.4999 4 17.9999 4 12.9999V5.99996C4 5.73475 4.10536 5.48039 4.29289 5.29286C4.48043 5.10532 4.73478 4.99996 5 4.99996C7 4.99996 9.5 3.79996 11.24 2.27996C11.4519 2.09896 11.7214 1.99951 12 1.99951C12.2786 1.99951 12.5481 2.09896 12.76 2.27996C14.51 3.80996 17 4.99996 19 4.99996C19.2652 4.99996 19.5196 5.10532 19.7071 5.29286C19.8946 5.48039 20 5.73475 20 5.99996V12.9999Z" stroke="#F56C87" stroke-width="2" stroke-linecap="round" stroke-linejoin="round"/>
<path d="M9 12H15" stroke="#F56C87" stroke-width="2" stroke-linecap="round" stroke-linejoin="round"/>
<path d="M12 9V15" stroke="#F56C87" stroke-width="2" stroke-linecap="round" stroke-linejoin="round"/>
</svg>
