<svg width="46" height="45" viewBox="0 0 46 45" fill="none" xmlns="http://www.w3.org/2000/svg">
<g filter="url(#filter0_d_7134_2315)">
<rect x="2" y="1" width="42" height="42" rx="9.37864" fill="#ECE3CA"/>
</g>
<g clip-path="url(#clip0_7134_2315)">
<path d="M34.9488 2.07039H11.0729C6.68145 2.07039 3.12146 5.63038 3.12146 10.0218V33.8978C3.12146 38.2892 6.68145 41.8492 11.0729 41.8492H34.9488C39.3403 41.8492 42.9003 38.2892 42.9003 33.8978V10.0218C42.9003 5.63038 39.3403 2.07039 34.9488 2.07039Z" fill="black"/>
<path d="M11.0317 5.26586H34.9684C37.6005 5.26586 39.7342 7.39957 39.7342 10.0316V33.9683C39.7342 36.6004 37.6005 38.7341 34.9684 38.7341H11.0317C8.39967 38.7341 6.26596 36.6004 6.26596 33.9683V10.0316C6.26596 7.39957 8.39967 5.26586 11.0317 5.26586Z" fill="url(#paint0_radial_7134_2315)" stroke="black" stroke-width="0.0509709"/>
<path d="M39.7695 6.68875H6.23071V8.14696H39.7695V6.68875Z" fill="black" fill-opacity="0.25"/>
<path d="M39.7697 9.60521H6.23083V11.0634H39.7697V9.60521Z" fill="black" fill-opacity="0.25"/>
<path d="M39.7697 12.5216H6.23083V13.9798H39.7697V12.5216Z" fill="black" fill-opacity="0.25"/>
<path d="M39.7697 15.4381H6.23083V16.8963H39.7697V15.4381Z" fill="black" fill-opacity="0.25"/>
<path d="M39.7697 18.3545H6.23083V19.8127H39.7697V18.3545Z" fill="black" fill-opacity="0.25"/>
<path d="M39.7697 21.2708H6.23083V22.7291H39.7697V21.2708Z" fill="black" fill-opacity="0.25"/>
<path d="M39.7697 24.1873H6.23083V25.6455H39.7697V24.1873Z" fill="black" fill-opacity="0.25"/>
<path d="M39.7697 27.1037H6.23083V28.5619H39.7697V27.1037Z" fill="black" fill-opacity="0.25"/>
<path d="M39.7697 30.0202H6.23083V31.4784H39.7697V30.0202Z" fill="black" fill-opacity="0.25"/>
<path d="M39.7697 32.9366H6.23083V34.3948H39.7697V32.9366Z" fill="black" fill-opacity="0.25"/>
<path d="M39.7697 35.853H6.23083V37.3112H39.7697V35.853Z" fill="black" fill-opacity="0.25"/>
<g filter="url(#filter1_i_7134_2315)">
<path d="M11.0317 5.26584H34.9684C37.6005 5.26584 39.7342 7.39955 39.7342 10.0316V33.9683C39.7342 36.6004 37.6005 38.7341 34.9684 38.7341H11.0317C8.39967 38.7341 6.26596 36.6004 6.26596 33.9683V10.0316C6.26596 7.39955 8.39967 5.26584 11.0317 5.26584Z" stroke="black" stroke-width="0.0509709"/>
</g>
</g>
<g clip-path="url(#clip1_7134_2315)">
<path d="M5.16016 21.7961H39.9223" stroke="#C0C1C3" stroke-width="0.407767"/>
<line x1="22.7961" y1="21.5922" x2="22.7961" y2="-12.2524" stroke="#C0C1C3" stroke-width="0.407767"/>
<line y1="-0.203883" x2="24.6564" y2="-0.203883" transform="matrix(0.694595 0.719401 0.719401 -0.694595 22.5923 21.1845)" stroke="#C0C1C3" stroke-width="0.407767"/>
<path d="M10.767 16.7003L12.5584 14.8641M10.767 16.7003V24.2244M10.767 16.7003L22.5905 21.582M12.5584 14.8641V25.568M12.5584 14.8641L22.5905 21.582M12.5584 25.568L10.767 24.2244M12.5584 25.568L22.5905 21.582M10.767 24.2244L22.6353 21.582" stroke="#E5484D" stroke-width="0.358289"/>
<path d="M38.2913 13.9922L35.9524 11.1942M38.2913 13.9922V25.4575M38.2913 13.9922L22.8546 21.431M35.9524 11.1942V27.5048M35.9524 11.1942L22.8546 21.431M35.9524 27.5048L38.2913 25.4575M35.9524 27.5048L22.8546 21.431M38.2913 25.4575L22.7961 21.431" stroke="#FFCD56" stroke-width="0.358289"/>
<path d="M32.1748 11.0688L30.7284 7.1165M32.1748 11.0688V27.2634M32.1748 11.0688L22.6284 21.576M30.7284 7.1165V30.1553M30.7284 7.1165L22.6284 21.576M30.7284 30.1553L32.1748 27.2634M30.7284 30.1553L22.6284 21.576M32.1748 27.2634L22.5923 21.576" stroke="#4E74F8" stroke-width="0.358289"/>
<path d="M8.72803 34.6408V32.1942" stroke="#C0C1C3" stroke-width="0.407767" stroke-linecap="round"/>
<path d="M9.54358 34.6408V32.1942" stroke="#C0C1C3" stroke-width="0.407767" stroke-linecap="round"/>
<path d="M10.3591 34.6408V32.1942" stroke="#C0C1C3" stroke-width="0.407767" stroke-linecap="round"/>
<path d="M13.2135 34.6408V32.1942" stroke="#C0C1C3" stroke-width="0.407767" stroke-linecap="round"/>
<path d="M16.0679 34.6408V32.1942" stroke="#C0C1C3" stroke-width="0.407767" stroke-linecap="round"/>
<path d="M16.8834 34.6408V32.1942" stroke="#C0C1C3" stroke-width="0.407767" stroke-linecap="round"/>
<path d="M19.7378 34.6408V32.1942" stroke="#C0C1C3" stroke-width="0.407767" stroke-linecap="round"/>
<path d="M24.631 34.6408V32.1942" stroke="#C0C1C3" stroke-width="0.407767" stroke-linecap="round"/>
<path d="M29.5242 34.6408V32.1942" stroke="#C0C1C3" stroke-width="0.407767" stroke-linecap="round"/>
<path d="M36.4562 34.6408V32.1942" stroke="#C0C1C3" stroke-width="0.407767" stroke-linecap="round"/>
<path d="M37.2717 34.6408V32.1942" stroke="#C0C1C3" stroke-width="0.407767" stroke-linecap="round"/>
</g>
<g filter="url(#filter2_d_7134_2315)">
<path fill-rule="evenodd" clip-rule="evenodd" d="M11.0621 2.11061H34.938C39.3294 2.11061 42.8894 5.6706 42.8894 10.0621V33.938C42.8894 38.3295 39.3294 41.8895 34.938 41.8895H11.0621C6.67058 41.8895 3.1106 38.3295 3.1106 33.938V10.0621C3.1106 5.6706 6.67058 2.11061 11.0621 2.11061ZM11.0219 5.28156H34.9586C37.6047 5.28156 39.7498 7.42668 39.7498 10.0728V34.0095C39.7498 36.6556 37.6047 38.8008 34.9586 38.8008H11.0219C8.37575 38.8008 6.23062 36.6556 6.23062 34.0095V10.0728C6.23062 7.42668 8.37575 5.28156 11.0219 5.28156Z" fill="url(#paint1_linear_7134_2315)"/>
</g>
<path fill-rule="evenodd" clip-rule="evenodd" d="M11.1238 1H34.8762C39.9151 1 44 5.08486 44 10.1238V33.8762C44 38.9151 39.9151 43 34.8762 43H11.1238C6.08486 43 2 38.9151 2 33.8762V10.1238C2 5.08486 6.08486 1 11.1238 1ZM11.062 2.1106H34.9379C39.3294 2.1106 42.8894 5.67059 42.8894 10.0621V33.938C42.8894 38.3295 39.3294 41.8894 34.9379 41.8894H11.062C6.67054 41.8894 3.11055 38.3295 3.11055 33.938V10.0621C3.11055 5.67059 6.67054 2.1106 11.062 2.1106Z" fill="#C3C3C3"/>
<circle opacity="0.1" cx="23.0001" cy="22" r="18.0947" stroke="white" stroke-width="0.101942"/>
<circle opacity="0.1" cx="23" cy="22" r="11.6214" stroke="white" stroke-width="0.101942"/>
<circle opacity="0.1" cx="23.0001" cy="22" r="10.9078" stroke="white" stroke-width="0.101942"/>
<circle opacity="0.1" cx="23.0001" cy="22" r="5.19903" stroke="white" stroke-width="0.101942"/>
<circle opacity="0.1" cx="23" cy="22" r="3.56796" stroke="white" stroke-width="0.101942"/>
<rect opacity="0.1" x="22.949" y="1" width="0.101942" height="42" fill="white"/>
<rect opacity="0.1" x="44" y="21.949" width="0.101942" height="42" transform="rotate(90 44 21.949)" fill="white"/>
<rect opacity="0.1" x="36.915" y="1" width="0.101942" height="42" fill="white"/>
<rect opacity="0.1" x="15.9661" y="1" width="0.101942" height="42" fill="white"/>
<rect opacity="0.1" x="29.932" y="1" width="0.101942" height="42" fill="white"/>
<rect opacity="0.1" x="8.98303" y="1" width="0.101942" height="42" fill="white"/>
<rect opacity="0.1" x="44" y="35.915" width="0.101942" height="42" transform="rotate(90 44 35.915)" fill="white"/>
<rect opacity="0.1" x="44" y="14.966" width="0.101942" height="42" transform="rotate(90 44 14.966)" fill="white"/>
<rect opacity="0.1" x="44" y="28.932" width="0.101942" height="42" transform="rotate(90 44 28.932)" fill="white"/>
<rect opacity="0.1" x="44" y="7.98302" width="0.101942" height="42" transform="rotate(90 44 7.98302)" fill="white"/>
<defs>
<filter id="filter0_d_7134_2315" x="0.878641" y="0.43932" width="44.2427" height="44.2427" filterUnits="userSpaceOnUse" color-interpolation-filters="sRGB">
<feFlood flood-opacity="0" result="BackgroundImageFix"/>
<feColorMatrix in="SourceAlpha" type="matrix" values="0 0 0 0 0 0 0 0 0 0 0 0 0 0 0 0 0 0 127 0" result="hardAlpha"/>
<feOffset dy="0.56068"/>
<feGaussianBlur stdDeviation="0.56068"/>
<feComposite in2="hardAlpha" operator="out"/>
<feColorMatrix type="matrix" values="0 0 0 0 0 0 0 0 0 0 0 0 0 0 0 0 0 0 0.28 0"/>
<feBlend mode="normal" in2="BackgroundImageFix" result="effect1_dropShadow_7134_2315"/>
<feBlend mode="normal" in="SourceGraphic" in2="effect1_dropShadow_7134_2315" result="shape"/>
</filter>
<filter id="filter1_i_7134_2315" x="6.24048" y="5.24036" width="33.5192" height="33.7231" filterUnits="userSpaceOnUse" color-interpolation-filters="sRGB">
<feFlood flood-opacity="0" result="BackgroundImageFix"/>
<feBlend mode="normal" in="SourceGraphic" in2="BackgroundImageFix" result="shape"/>
<feColorMatrix in="SourceAlpha" type="matrix" values="0 0 0 0 0 0 0 0 0 0 0 0 0 0 0 0 0 0 127 0" result="hardAlpha"/>
<feOffset dy="5.70874"/>
<feGaussianBlur stdDeviation="0.101942"/>
<feComposite in2="hardAlpha" operator="arithmetic" k2="-1" k3="1"/>
<feColorMatrix type="matrix" values="0 0 0 0 0 0 0 0 0 0 0 0 0 0 0 0 0 0 0.25 0"/>
<feBlend mode="normal" in2="shape" result="effect1_innerShadow_7134_2315"/>
</filter>
<filter id="filter2_d_7134_2315" x="1.98924" y="1.54993" width="42.0215" height="42.0216" filterUnits="userSpaceOnUse" color-interpolation-filters="sRGB">
<feFlood flood-opacity="0" result="BackgroundImageFix"/>
<feColorMatrix in="SourceAlpha" type="matrix" values="0 0 0 0 0 0 0 0 0 0 0 0 0 0 0 0 0 0 127 0" result="hardAlpha"/>
<feOffset dy="0.56068"/>
<feGaussianBlur stdDeviation="0.56068"/>
<feComposite in2="hardAlpha" operator="out"/>
<feColorMatrix type="matrix" values="0 0 0 0 0 0 0 0 0 0 0 0 0 0 0 0 0 0 0.28 0"/>
<feBlend mode="normal" in2="BackgroundImageFix" result="effect1_dropShadow_7134_2315"/>
<feBlend mode="normal" in="SourceGraphic" in2="effect1_dropShadow_7134_2315" result="shape"/>
</filter>
<radialGradient id="paint0_radial_7134_2315" cx="0" cy="0" r="1" gradientUnits="userSpaceOnUse" gradientTransform="translate(23.0001 22) rotate(90) scale(16.7596)">
<stop stop-color="#232323"/>
<stop offset="1" stop-color="#2A2A2A" stop-opacity="0.5"/>
</radialGradient>
<linearGradient id="paint1_linear_7134_2315" x1="23" y1="2.11061" x2="23" y2="41.8895" gradientUnits="userSpaceOnUse">
<stop stop-color="#D6D6D6"/>
<stop offset="1" stop-color="#E0E0E0"/>
</linearGradient>
<clipPath id="clip0_7134_2315">
<rect width="33.5388" height="33.5388" fill="white" transform="translate(6.23059 5.23058)"/>
</clipPath>
<clipPath id="clip1_7134_2315">
<rect width="33.4369" height="33.4369" fill="white" transform="translate(6.28149 5.28156)"/>
</clipPath>
</defs>
</svg>
