<svg width="32" height="32" viewBox="0 0 32 32" fill="none" xmlns="http://www.w3.org/2000/svg">
<path d="M9.01998 15.374C9.01998 15.768 9.05997 16.088 9.13597 16.324C9.21997 16.558 9.32797 16.814 9.47597 17.092C9.5232 17.1655 9.54884 17.2507 9.54997 17.338C9.54997 17.444 9.48597 17.552 9.34997 17.658L8.67798 18.106C8.59731 18.1643 8.50137 18.1976 8.40198 18.202C8.29398 18.202 8.18797 18.15 8.08197 18.054C7.93823 17.8993 7.80964 17.7312 7.69797 17.552C7.579 17.3469 7.46889 17.1367 7.36797 16.922C6.53797 17.904 5.49597 18.396 4.23997 18.396C3.34597 18.396 2.63197 18.138 2.11197 17.626C1.58997 17.114 1.32397 16.43 1.32397 15.576C1.32397 14.668 1.64397 13.932 2.29197 13.376C2.94197 12.82 3.80397 12.544 4.89997 12.544C5.25997 12.544 5.63397 12.576 6.02797 12.628C6.42197 12.682 6.82797 12.768 7.25197 12.864V12.084C7.25197 11.272 7.08197 10.706 6.75197 10.376C6.41197 10.044 5.83597 9.88402 5.01597 9.88402C4.64397 9.88402 4.26197 9.92803 3.86797 10.024C3.47652 10.1172 3.09221 10.2382 2.71797 10.386C2.59715 10.4407 2.47289 10.4875 2.34597 10.526C2.29098 10.5442 2.23381 10.555 2.17597 10.558C2.02597 10.558 1.95197 10.45 1.95197 10.226V9.70202C1.95197 9.53202 1.97197 9.40202 2.02597 9.33002C2.10657 9.2319 2.20942 9.15442 2.32597 9.10402C2.69597 8.91202 3.14397 8.75202 3.66597 8.62402C4.18597 8.48402 4.73997 8.42202 5.32597 8.42202C6.59198 8.42202 7.51797 8.71003 8.11398 9.28603C8.69998 9.86203 8.99797 10.738 8.99797 11.914V15.374H9.01797H9.01998ZM4.69797 16.996C5.04797 16.996 5.40998 16.932 5.79397 16.804C6.17597 16.676 6.51797 16.44 6.80397 16.12C6.97547 15.9235 7.09935 15.6902 7.16597 15.438C7.22997 15.18 7.27397 14.872 7.27397 14.508V14.06C6.95094 13.9817 6.62376 13.9216 6.29397 13.88C5.96235 13.8371 5.62836 13.8151 5.29397 13.814C4.57997 13.814 4.05797 13.954 3.70797 14.242C3.35597 14.53 3.18797 14.936 3.18797 15.47C3.18797 15.97 3.31397 16.344 3.57997 16.602C3.83597 16.868 4.20797 16.996 4.69797 16.996ZM13.244 18.15C13.052 18.15 12.924 18.118 12.84 18.042C12.754 17.978 12.68 17.83 12.616 17.626L10.116 9.37202C10.0667 9.23369 10.0338 9.09004 10.018 8.94403C10.018 8.77403 10.104 8.67803 10.274 8.67803H11.318C11.518 8.67803 11.658 8.71003 11.732 8.78403C11.818 8.84803 11.882 8.99802 11.946 9.20002L13.734 16.27L15.394 9.20002C15.446 8.98802 15.51 8.84803 15.594 8.78403C15.7223 8.70542 15.8718 8.6684 16.022 8.67803H16.872C17.076 8.67803 17.212 8.71003 17.298 8.78403C17.384 8.84803 17.458 8.99802 17.5 9.20002L19.182 16.356L21.022 9.20002C21.0561 9.04517 21.1298 8.90183 21.236 8.78403C21.3599 8.70549 21.5056 8.66837 21.652 8.67803H22.642C22.812 8.67803 22.908 8.76403 22.908 8.94403C22.908 8.99803 22.896 9.05202 22.888 9.11602C22.8708 9.20682 22.8453 9.29585 22.812 9.38202L20.246 17.636C20.182 17.85 20.108 17.99 20.024 18.054C19.9032 18.1313 19.7611 18.1684 19.618 18.16H18.704C18.502 18.16 18.364 18.128 18.278 18.054C18.192 17.978 18.118 17.84 18.076 17.626L16.426 10.74L14.786 17.618C14.734 17.832 14.67 17.97 14.586 18.044C14.5 18.12 14.35 18.152 14.16 18.152H13.244V18.15ZM26.92 18.438C26.3677 18.4388 25.8172 18.3743 25.28 18.246C24.748 18.118 24.334 17.978 24.056 17.818C23.886 17.722 23.77 17.616 23.726 17.518C23.6853 17.4239 23.6642 17.3225 23.664 17.22V16.676C23.664 16.452 23.748 16.344 23.908 16.344C23.9733 16.3442 24.0381 16.355 24.1 16.376C24.164 16.398 24.26 16.44 24.366 16.484C24.726 16.644 25.122 16.772 25.536 16.858C25.962 16.942 26.376 16.986 26.802 16.986C27.474 16.986 27.994 16.868 28.356 16.634C28.5299 16.5288 28.6728 16.3793 28.7701 16.2008C28.8674 16.0223 28.9157 15.8212 28.91 15.618C28.9136 15.4808 28.89 15.3443 28.8405 15.2162C28.7911 15.0882 28.7168 14.9712 28.622 14.872C28.432 14.668 28.07 14.486 27.548 14.316L26.004 13.836C25.228 13.59 24.652 13.226 24.302 12.746C23.9593 12.3025 23.7724 11.7585 23.77 11.198C23.77 10.75 23.866 10.354 24.056 10.012C24.248 9.67202 24.504 9.37202 24.824 9.13602C25.144 8.89202 25.504 8.71002 25.93 8.58202C26.356 8.45402 26.802 8.40002 27.27 8.40002C27.506 8.40002 27.75 8.41003 27.984 8.44203C28.228 8.47403 28.452 8.51803 28.676 8.56203C28.888 8.61403 29.092 8.66603 29.282 8.73203C29.474 8.79603 29.622 8.86002 29.73 8.92402C29.8556 8.98709 29.965 9.07808 30.05 9.19002C30.1184 9.29416 30.1514 9.41763 30.144 9.54202V10.044C30.144 10.268 30.06 10.386 29.9 10.386C29.7583 10.3698 29.6211 10.3264 29.496 10.258C28.8528 9.97287 28.1554 9.83093 27.452 9.84202C26.846 9.84202 26.366 9.93802 26.036 10.142C25.706 10.342 25.536 10.654 25.536 11.092C25.536 11.39 25.642 11.646 25.856 11.85C26.068 12.052 26.462 12.254 27.026 12.436L28.538 12.916C29.304 13.162 29.858 13.504 30.188 13.942C30.518 14.38 30.676 14.882 30.676 15.438C30.676 15.898 30.582 16.312 30.4 16.676C30.2115 17.0413 29.9469 17.3618 29.624 17.616C29.294 17.882 28.9 18.076 28.442 18.214C27.962 18.364 27.462 18.438 26.92 18.438Z" fill="white"/>
<path fill-rule="evenodd" clip-rule="evenodd" d="M28.9301 23.626C25.4301 26.22 20.3421 27.598 15.9681 27.598C9.83811 27.598 4.3141 25.324 0.142105 21.544C-0.187895 21.244 0.110105 20.838 0.502105 21.074C5.0161 23.7 10.5821 25.292 16.3421 25.292C20.2241 25.292 24.4921 24.48 28.4201 22.814C29.0061 22.548 29.5061 23.198 28.9301 23.626Z" fill="#FF9900"/>
<path fill-rule="evenodd" clip-rule="evenodd" d="M30.3881 21.96C29.9421 21.386 27.4301 21.684 26.2921 21.822C25.9521 21.866 25.8981 21.566 26.2061 21.342C28.2061 19.932 31.4961 20.338 31.8781 20.808C32.2621 21.288 31.7721 24.588 29.8981 26.168C29.6121 26.414 29.3361 26.288 29.4621 25.968C29.8881 24.908 30.8361 22.528 30.3881 21.962V21.96Z" fill="#FF9900"/>
</svg>
