<svg width="32" height="32" viewBox="0 0 32 32" fill="none" xmlns="http://www.w3.org/2000/svg">
<path d="M24.6839 9.072L24.9839 8.618L25.5079 8.936L25.7399 9.102C26.2999 9.534 27.4779 10.638 27.7319 12.47C28.1779 12.39 28.6279 12.35 29.0779 12.35C30.1459 12.35 30.8639 12.598 31.2719 12.804L31.4819 12.918L31.6179 13.008L31.9999 13.32L31.8679 13.72C31.6628 14.2684 31.3422 14.7663 30.9279 15.18C30.3479 15.778 29.3279 16.484 27.7099 16.576L27.3539 16.586H27.0579C26.3179 18.54 25.3239 20.742 23.6539 22.718C22.663 23.8922 21.4877 24.8973 20.1739 25.694C18.5989 26.6284 16.8742 27.2834 15.0759 27.63C13.7879 27.88 12.4799 28.004 11.1699 28C8.26992 28 5.70992 27.424 4.13592 26.416C2.72992 25.518 1.64992 24.052 0.923922 22.062C0.288574 20.2436 -0.0234708 18.328 0.0019222 16.402C-0.00136849 16.1551 0.0840035 15.9151 0.242537 15.7258C0.40107 15.5364 0.622252 15.4102 0.865922 15.37L1.00192 15.36H22.0819L22.2659 15.346L22.5639 15.314C23.0759 15.246 23.8559 15.094 24.4039 14.774C23.7479 13.688 23.5619 12.418 23.8679 11.066C23.9961 10.502 24.1978 9.95738 24.4679 9.446L24.6839 9.072ZM5.77992 11.568L5.85992 11.582C5.89646 11.5957 5.92936 11.6176 5.95607 11.646C5.98278 11.6745 6.00257 11.7087 6.01392 11.746L6.02592 11.826V14.456L6.01392 14.538C6.00237 14.5755 5.98227 14.6099 5.9552 14.6383C5.92813 14.6668 5.89483 14.6886 5.85792 14.702L5.77992 14.714H2.95592C2.90329 14.7133 2.85224 14.6959 2.81018 14.6642C2.76811 14.6326 2.7372 14.5884 2.72192 14.538L2.70792 14.458V11.824L2.72192 11.744C2.73321 11.7061 2.75319 11.6714 2.78027 11.6425C2.80735 11.6137 2.84079 11.5916 2.87792 11.578L2.95592 11.566L5.77992 11.568ZM9.67392 11.568L9.75192 11.582C9.78883 11.5954 9.82213 11.6172 9.8492 11.6457C9.87627 11.6741 9.89637 11.7085 9.90792 11.746L9.91992 11.826V14.456L9.90592 14.538C9.89437 14.5755 9.87427 14.6099 9.8472 14.6383C9.82013 14.6668 9.78683 14.6886 9.74992 14.702L9.67192 14.714H6.84792C6.79537 14.713 6.74447 14.6954 6.70246 14.6638C6.66045 14.6322 6.62947 14.5882 6.61392 14.538L6.59992 14.46V11.826C6.5995 11.7725 6.61559 11.7201 6.64602 11.6761C6.67644 11.6321 6.71971 11.5985 6.76992 11.58L6.84792 11.566L9.67392 11.568ZM13.6259 11.568L13.7039 11.582C13.7405 11.5957 13.7734 11.6176 13.8001 11.646C13.8268 11.6745 13.8466 11.7087 13.8579 11.746L13.8719 11.826V14.456L13.8579 14.538C13.8464 14.5755 13.8263 14.6099 13.7992 14.6383C13.7721 14.6668 13.7388 14.6886 13.7019 14.702L13.6239 14.714H10.7999C10.7473 14.7133 10.6962 14.6959 10.6542 14.6642C10.6121 14.6326 10.5812 14.5884 10.5659 14.538L10.5539 14.458V11.824L10.5659 11.744C10.5772 11.7061 10.5972 11.6714 10.6243 11.6425C10.6514 11.6137 10.6848 11.5916 10.7219 11.578L10.7999 11.566L13.6259 11.568ZM17.5299 11.568L17.6079 11.582C17.6448 11.5954 17.6781 11.6172 17.7052 11.6457C17.7323 11.6741 17.7524 11.7085 17.7639 11.746L17.7779 11.826V14.456C17.7783 14.5095 17.7622 14.5619 17.7318 14.6059C17.7014 14.6499 17.6581 14.6835 17.6079 14.702L17.5279 14.714H14.7059C14.6533 14.7133 14.6022 14.6959 14.5602 14.6642C14.5181 14.6326 14.4872 14.5884 14.4719 14.538L14.4599 14.458V11.824L14.4719 11.744C14.4832 11.7061 14.5032 11.6714 14.5303 11.6425C14.5574 11.6137 14.5908 11.5916 14.6279 11.578L14.7079 11.566H17.5319L17.5299 11.568ZM21.4699 11.568L21.5479 11.582C21.5848 11.5954 21.6181 11.6172 21.6452 11.6457C21.6723 11.6741 21.6924 11.7085 21.7039 11.746L21.7159 11.826V14.456C21.7163 14.5095 21.7002 14.5619 21.6698 14.6059C21.6394 14.6499 21.5961 14.6835 21.5459 14.702L21.4679 14.714H18.6439C18.5913 14.7133 18.5402 14.6959 18.4982 14.6642C18.4561 14.6326 18.4252 14.5884 18.4099 14.538L18.3979 14.458V11.824L18.4099 11.744C18.4212 11.7061 18.4412 11.6714 18.4683 11.6425C18.4954 11.6137 18.5288 11.5916 18.5659 11.578L18.6459 11.566H21.4679L21.4699 11.568ZM9.66992 7.784L9.74992 7.798C9.78625 7.81147 9.81901 7.83307 9.8457 7.86115C9.87239 7.88923 9.89231 7.92304 9.90392 7.96L9.91792 8.042V10.672C9.91835 10.7255 9.90225 10.7779 9.87183 10.8219C9.8414 10.8659 9.79813 10.8995 9.74792 10.918L9.66992 10.932H6.84792C6.79486 10.9307 6.74359 10.9126 6.70152 10.8802C6.65945 10.8479 6.62877 10.803 6.61392 10.752L6.59992 10.672V8.042C6.59991 7.98883 6.6162 7.93692 6.64659 7.8933C6.67699 7.84967 6.72004 7.81641 6.76992 7.798L6.84792 7.784H9.66992ZM13.6219 7.784L13.7019 7.798C13.7382 7.81147 13.771 7.83307 13.7977 7.86115C13.8244 7.88923 13.8443 7.92304 13.8559 7.96L13.8699 8.042V10.672C13.8703 10.7255 13.8542 10.7779 13.8238 10.8219C13.7934 10.8659 13.7501 10.8995 13.6999 10.918L13.6219 10.932H10.7999C10.7469 10.9307 10.6956 10.9126 10.6535 10.8802C10.6114 10.8479 10.5808 10.803 10.5659 10.752L10.5539 10.672V8.042L10.5659 7.962C10.5775 7.92446 10.5976 7.89012 10.6246 7.86166C10.6517 7.83321 10.685 7.81141 10.7219 7.798L10.7999 7.784H13.6219ZM17.5279 7.784C17.6359 7.784 17.7279 7.858 17.7619 7.96L17.7759 8.042V10.672C17.7763 10.7255 17.7603 10.7779 17.7298 10.8219C17.6994 10.8659 17.6561 10.8995 17.6059 10.918L17.5259 10.932H14.7059C14.6529 10.9307 14.6016 10.9126 14.5595 10.8802C14.5174 10.8479 14.4868 10.803 14.4719 10.752L14.4599 10.672V8.042L14.4719 7.962C14.4835 7.92446 14.5036 7.89012 14.5306 7.86166C14.5577 7.83321 14.591 7.81141 14.6279 7.798L14.7079 7.784H17.5319H17.5279ZM17.5279 4C17.6359 4 17.7279 4.074 17.7619 4.176L17.7759 4.256V6.888C17.7763 6.94151 17.7603 6.99386 17.7298 7.03788C17.6994 7.08191 17.6561 7.11548 17.6059 7.134L17.5259 7.146H14.7059C14.6533 7.14529 14.6022 7.12786 14.5602 7.09622C14.5181 7.06458 14.4872 7.02037 14.4719 6.97L14.4599 6.89V4.256L14.4719 4.176C14.4835 4.13846 14.5036 4.10412 14.5306 4.07566C14.5577 4.04721 14.591 4.02542 14.6279 4.012L14.7059 4H17.5299H17.5279Z" fill="#2396ED"/>
</svg>
