<svg width="32" height="32" viewBox="0 0 32 32" fill="none" xmlns="http://www.w3.org/2000/svg">
<path d="M2.44 2.92672C1.70533 2.92139 1.06667 3.16939 0.566667 3.76005C-0.572 5.09739 0.04 8.18005 2.38267 11.8894L2.40933 11.9267C2.49457 12.0602 2.58214 12.1923 2.672 12.3227C4.98267 15.7614 8.33733 18.5587 7.66267 22.4374C7.53637 23.1783 7.26495 23.887 6.864 24.5227C4.82 27.7294 0.004 28.0627 0.004 28.0627L0.06 28.0641L0 28.0707C0 28.0707 5.80667 29.8627 11.3773 28.6547C12.1747 28.4814 12.9667 28.2481 13.736 27.9387C13.7462 27.9343 13.7564 27.9298 13.7667 27.9254C14.224 27.7414 14.656 27.5467 15.0667 27.3427C15.1928 27.2799 15.3182 27.2154 15.4427 27.1494C15.8227 26.9494 16.184 26.7414 16.528 26.5267C16.5959 26.485 16.6634 26.4428 16.7307 26.4001C17.152 26.1281 17.544 25.8454 17.9147 25.5534C17.9799 25.5023 18.0448 25.4508 18.1093 25.3987C18.328 25.2201 18.54 25.0387 18.744 24.8561C18.799 24.8097 18.8536 24.7631 18.908 24.7161L18.956 24.6627C18.9667 24.6521 18.976 24.6414 18.988 24.6321C19.389 24.256 19.7717 23.8609 20.1347 23.4481C20.2013 23.3734 20.268 23.2987 20.332 23.2227C20.4107 23.1321 20.4893 23.0427 20.5653 22.9521L20.6987 22.7881C20.868 22.5827 21.032 22.3747 21.1947 22.1681L21.2373 22.1121C22.1427 20.9387 22.944 19.7401 23.8147 18.5934L24.1027 18.2227C24.4947 17.7241 24.9027 17.2361 25.3453 16.7681L25.3853 16.7267C25.5293 16.5747 25.6787 16.4254 25.8307 16.2774L25.924 16.1881C26.0396 16.0781 26.1569 15.9701 26.276 15.8641C26.324 15.8214 26.372 15.7774 26.4213 15.7361C26.5813 15.598 26.7477 15.4676 26.92 15.3454C26.936 15.3321 26.9533 15.3214 26.9707 15.3094C27.3267 15.0596 27.7063 14.8453 28.104 14.6694L28.0173 14.7094L28.0467 14.6961L28.1267 14.6601C28.8195 14.3691 29.5521 14.1839 30.3 14.1107C30.5362 14.0879 30.7747 14.0764 31.012 14.0761H31.1053C31.1565 14.0764 31.2076 14.0773 31.2587 14.0787L31.8293 14.0747C31.8695 14.0764 31.9096 14.0691 31.9467 14.0534C32.0293 14.0134 32.0093 13.9174 31.9307 13.8054C31.7878 13.6214 31.6114 13.4662 31.4107 13.3481C31.3668 13.3256 31.3232 13.3025 31.28 13.2787C31.2639 13.269 31.2479 13.2593 31.232 13.2494C31.1153 13.1825 31.0015 13.1109 30.8907 13.0347C30.8325 12.9932 30.7751 12.9506 30.7187 12.9067C30.6307 12.8429 30.5449 12.7762 30.4613 12.7067C30.188 12.4401 29.8853 11.7294 29.764 11.5227C29.6722 11.3658 29.565 11.2184 29.444 11.0827C29.0813 10.6747 28.5573 10.3721 27.708 10.2627C26.52 10.1094 25.4053 10.3587 24.288 10.7067L24.4213 10.6601C22.864 11.1321 21.3093 11.8201 19.548 11.9134H19.4947C19.1978 11.9268 18.9004 11.9224 18.604 11.9001L18.524 11.8947C17.9987 11.8474 17.4801 11.7432 16.9773 11.5841C15.228 11.0347 12.772 9.07739 10.248 7.16272C9.95945 6.9439 9.67012 6.72612 9.38 6.50939C9.03179 6.24828 8.68111 5.9905 8.328 5.73605L8.032 5.52939L7.71733 5.30805L7.60267 5.22805C6.91059 4.74671 6.19311 4.30295 5.45333 3.89872L5.428 3.88539C5.2666 3.79938 5.10346 3.7167 4.93867 3.63739C4.88667 3.61205 4.83467 3.59072 4.78267 3.56672C4.54313 3.45517 4.2994 3.35287 4.052 3.26005L3.98533 3.23739C3.84641 3.18787 3.70589 3.14296 3.564 3.10272L3.52933 3.09339C3.17588 2.98886 2.80854 2.93279 2.44 2.92672ZM27.4667 11.5214C27.555 11.5212 27.6426 11.5383 27.7242 11.5718C27.8059 11.6052 27.8802 11.6543 27.9427 11.7162C28.0052 11.7781 28.0549 11.8517 28.0887 11.9326C28.1226 12.0136 28.14 12.1004 28.14 12.1881C28.14 12.2757 28.1226 12.3625 28.0887 12.4435C28.0549 12.5245 28.0052 12.598 27.9427 12.6599C27.8802 12.7218 27.8059 12.7709 27.7242 12.8044C27.6426 12.8378 27.555 12.8549 27.4667 12.8547C27.2884 12.8547 27.1175 12.7845 26.9915 12.6595C26.8655 12.5344 26.7947 12.3649 26.7947 12.1881C26.7947 12.0112 26.8655 11.8417 26.9915 11.7167C27.1175 11.5916 27.2884 11.5214 27.4667 11.5214Z" fill="white"/>
</svg>
