<svg width="32" height="32" viewBox="0 0 32 32" fill="none" xmlns="http://www.w3.org/2000/svg">
<path d="M31.9112 10.1035C31.177 9.99936 29.555 9.96464 26.345 10.6413C25.9649 10.7332 25.5746 10.774 25.184 10.7628C24.7603 10.7137 24.3427 10.6206 23.9376 10.4852C22.179 9.87789 20.7277 10.0687 19.874 10.5199C19.371 10.7966 18.9384 11.1887 18.6105 11.665C18.0812 12.3938 16.9714 14.6146 15.4519 15.2045C14.5982 15.7598 13.6762 16.3323 12.8737 17.1478C12.3614 17.6857 12.2248 18.9523 10.8761 20.1841C9.55044 22.1688 7.85702 23.872 5.89041 25.1985C3.3464 27.003 1.21216 27.5582 1.21216 27.5582C1.21216 27.5582 6.86362 29.1371 13.0615 26.1875C17.7739 23.9319 20.2155 19.5422 20.7789 18.5706L23.8522 13.2613C24.1254 12.7755 24.6206 12.1508 25.0816 11.9079C25.2352 11.8211 25.3718 11.7691 25.406 11.7344C25.7475 11.5609 26.106 11.4221 26.4645 11.2833C28.6159 10.5025 30.8526 10.4331 31.8941 10.3117C32.0307 10.277 32.0136 10.1208 31.9112 10.1035Z" fill="url(#paint0_linear_1_7102)"/>
<path d="M31.9113 10.1034C31.1772 9.99925 29.5551 9.96453 26.3452 10.6412C25.9651 10.733 25.5748 10.7738 25.1842 10.7627C24.7605 10.7136 24.3429 10.6205 23.9378 10.4851C22.128 9.87778 20.745 10.0339 19.8742 10.5197C19.3712 10.7965 18.9386 11.1886 18.6107 11.6649C18.0814 12.3936 16.9716 14.6145 15.452 15.2044C13.7446 13.5735 12.2421 12.2028 10.7908 10.9882C9.97127 10.3289 9.16879 9.70429 8.48583 9.25314C6.81636 8.06325 5.05808 7.00747 3.22707 6.09534C2.44166 5.731 1.62211 5.40132 0.717191 5.0543C0.324487 4.93285 0.102527 5.1237 0.0342309 5.43602C7.99256e-05 5.54012 -0.0340652 5.81775 0.136672 6.30356C0.601408 7.53212 1.1609 8.72143 1.80992 9.86042C2.06603 10.3289 2.35629 10.8147 2.66362 11.3006C4.0942 13.5887 5.77217 15.7071 7.66628 17.6162C8.05899 17.9979 8.43463 18.3449 8.84441 18.6745C9.33469 19.0911 9.84775 19.4792 10.3811 19.8371C10.4323 19.8717 10.6884 20.0279 10.8592 20.132C11.2006 20.3229 11.6616 20.5484 11.9519 20.6698C13.1352 21.2208 14.4237 21.4993 15.7252 21.4853C17.6204 21.5374 19.1571 20.9301 19.9084 19.9064C20.2241 19.4728 20.5149 19.021 20.7791 18.5531L23.8525 13.2438C24.1256 12.758 24.6208 12.1333 25.0817 11.8905C25.2354 11.8037 25.372 11.7516 25.4062 11.7169C25.7306 11.5608 25.7306 11.6128 26.0721 11.474C28.2575 10.6933 30.8699 10.4157 31.9113 10.2942C31.9343 10.2914 31.9555 10.2801 31.9708 10.2625C31.9861 10.245 31.9946 10.2222 31.9946 10.1988C31.9946 10.1753 31.9861 10.1526 31.9708 10.135C31.9555 10.1174 31.9343 10.1062 31.9113 10.1034Z" fill="url(#paint1_linear_1_7102)"/>
<path opacity="0.8" d="M0 5.62696C0 5.57492 0.0170725 5.52286 0 5.48816C0.0172197 5.53277 0.0172197 5.58236 0 5.62696Z" fill="url(#paint2_linear_1_7102)"/>
<path opacity="0.8" d="M1.43425 5.29739C1.40803 5.28338 1.37838 5.27735 1.34888 5.28004C1.4001 5.29739 1.45132 5.33209 1.50254 5.34945C1.50254 5.33209 1.4684 5.31474 1.43425 5.29739Z" fill="url(#paint3_linear_1_7102)"/>
<path opacity="0.8" d="M1.96307 5.52297C1.946 5.52297 1.91185 5.50562 1.89478 5.50562C1.93841 5.52774 1.98418 5.54518 2.03137 5.55767C1.99722 5.54032 1.98014 5.52297 1.96307 5.52297Z" fill="url(#paint4_linear_1_7102)"/>
<path d="M11.9859 15.5168C13.1461 15.6942 14.3315 15.5749 15.4349 15.1698C14.4104 14.1981 13.4372 13.3132 12.5323 12.5151C12.0713 12.116 11.6274 11.7169 11.2006 11.3526C11.1835 11.3352 11.1493 11.3179 11.1493 11.3006C11.0298 11.1965 10.9274 11.1097 10.8249 11.0229C10.7908 11.0056 10.7737 10.9709 10.7566 10.9709C9.93703 10.3116 9.1346 9.70432 8.48578 9.23581C6.74422 8.03862 5.00265 6.92823 3.24406 6.07801C3.09039 5.99127 2.93672 5.93924 2.76599 5.85244C2.72235 5.83037 2.67658 5.81289 2.62939 5.80042C9.42486 9.53077 11.5933 12.9141 11.9859 15.5168Z" fill="url(#paint5_linear_1_7102)"/>
<path opacity="0.8" d="M0.255488 6.63336C0.204265 6.52925 0.17012 6.40784 0.118896 6.28638C0.17012 6.39048 0.204265 6.51189 0.255488 6.63336Z" fill="url(#paint6_linear_1_7102)"/>
<path opacity="0.3" d="M0 5.67911C0 5.66176 3.39815e-08 5.66176 0.0170726 5.64441C0.0170726 5.66176 0.0170725 5.66176 0 5.67911Z" fill="url(#paint7_linear_1_7102)"/>
<path opacity="0.3" d="M0.733887 5.03711C0.955847 5.12386 1.16074 5.19327 1.36562 5.28002C1.14366 5.19327 0.938775 5.10651 0.733887 5.03711Z" fill="url(#paint8_linear_1_7102)"/>
<path opacity="0.3" d="M2.52689 5.76584L2.62933 5.81786C2.44151 5.73111 2.23663 5.64437 2.03174 5.55762C2.10003 5.59232 2.15126 5.60967 2.21955 5.64437C2.32475 5.67727 2.42746 5.71787 2.52689 5.76584Z" fill="url(#paint9_linear_1_7102)"/>
<path d="M4.54142 11.8733C2.71452 10.3812 0.990043 8.2991 0.255859 6.65076C1.96326 11.0405 6.40251 17.2693 10.3637 19.8373C10.4319 19.8893 10.671 20.0281 10.8588 20.1322C11.371 19.3341 12.3101 17.6858 11.9857 15.5169C9.54412 15.1873 6.91474 13.8339 4.54142 11.8733Z" fill="url(#paint10_linear_1_7102)"/>
<path opacity="0.3" d="M1.89542 5.5054L1.53687 5.34924C1.55394 5.34924 1.57101 5.36659 1.58808 5.36659C1.67346 5.4013 1.7759 5.45335 1.89542 5.5054Z" fill="url(#paint11_linear_1_7102)"/>
<path opacity="0.8" d="M4.54118 11.8733C6.9145 13.8339 9.54389 15.1699 11.9855 15.4995C11.5928 12.9143 9.42436 9.51361 2.62892 5.81791C2.59314 5.80408 2.55881 5.78667 2.52648 5.76583C2.42403 5.71381 2.32159 5.6791 2.23622 5.62705C2.16792 5.59235 2.11671 5.575 2.04841 5.54029C2.00478 5.51818 1.959 5.50073 1.91182 5.48825C1.80772 5.43739 1.69909 5.39673 1.58741 5.36679C1.57034 5.36679 1.55326 5.34944 1.53619 5.34944C1.48497 5.33209 1.43375 5.29739 1.38252 5.28004C1.17763 5.21064 0.972746 5.10653 0.750785 5.03713C0.358082 4.91567 0.136121 5.10653 0.0507524 5.40149C0.0421308 5.43563 0.0364166 5.47046 0.03368 5.50559C0.0166016 5.54029 0.03368 5.59235 0.03368 5.6444C0.03368 5.66175 0.03368 5.66175 0.0166016 5.6791C0.0258411 5.88653 0.0661419 6.09127 0.136121 6.28636C0.17415 6.4106 0.219771 6.5323 0.272713 6.65071C0.989818 8.29905 2.73137 10.3811 4.54118 11.8733Z" fill="url(#paint12_linear_1_7102)"/>
<path d="M4.54118 11.8733C6.9145 13.8339 9.54389 15.1699 11.9855 15.4995C11.5928 12.9143 9.42436 9.51361 2.62892 5.81791C2.59314 5.80408 2.55881 5.78667 2.52648 5.76583C2.42403 5.71381 2.32159 5.6791 2.23622 5.62705C2.16792 5.59235 2.11671 5.575 2.04841 5.54029C2.00478 5.51818 1.959 5.50073 1.91182 5.48825C1.80772 5.43739 1.69909 5.39673 1.58741 5.36679C1.57034 5.36679 1.55326 5.34944 1.53619 5.34944C1.48497 5.33209 1.43375 5.29739 1.38252 5.28004C1.17763 5.21064 0.972746 5.10653 0.750785 5.03713C0.358082 4.91567 0.136121 5.10653 0.0507524 5.40149C0.0421308 5.43563 0.0364166 5.47046 0.03368 5.50559C0.0166016 5.54029 0.03368 5.59235 0.03368 5.6444C0.03368 5.66175 0.03368 5.66175 0.0166016 5.6791C0.0258411 5.88653 0.0661419 6.09127 0.136121 6.28636C0.17415 6.4106 0.219771 6.5323 0.272713 6.65071C0.989818 8.29905 2.73137 10.3811 4.54118 11.8733Z" fill="url(#paint13_linear_1_7102)"/>
<path d="M31.9112 10.1035C31.1771 9.99936 29.555 9.96464 26.3451 10.6413C25.965 10.7332 25.5746 10.774 25.1841 10.7628C24.7604 10.7137 24.3428 10.6206 23.9377 10.4852C23.1067 10.1807 22.2249 10.0451 21.3425 10.0861C20.7378 10.1288 20.1549 10.3322 19.6521 10.676C19.2498 10.941 18.9019 11.2828 18.6277 11.6824C18.0984 12.4111 16.9886 14.632 15.469 15.2219C16.6642 16.367 18.5082 17.3213 20.2326 16.7487C21.8888 16.1936 22.9132 14.7014 23.2377 14.2155C23.5687 13.7049 23.9338 13.218 24.3304 12.7581C24.89 12.1625 25.589 11.7208 26.3622 11.4742C28.3086 10.8149 31.2453 10.4158 31.9454 10.3463C32.0308 10.277 32.0137 10.1208 31.9112 10.1035Z" fill="url(#paint14_linear_1_7102)"/>
<path d="M22.3599 12.5191C22.6428 12.5191 22.8721 12.286 22.8721 11.9986C22.8721 11.7111 22.6428 11.478 22.3599 11.478C22.077 11.478 21.8477 11.7111 21.8477 11.9986C21.8477 12.286 22.077 12.5191 22.3599 12.5191Z" fill="#282E38"/>
<defs>
<linearGradient id="paint0_linear_1_7102" x1="32.5718" y1="17.492" x2="0.614142" y2="20.031" gradientUnits="userSpaceOnUse">
<stop offset="0.2986" stop-color="#0097CE"/>
<stop offset="0.3791" stop-color="#0999C5"/>
<stop offset="0.5119" stop-color="#229DAD"/>
<stop offset="0.6469" stop-color="#42A38F"/>
<stop offset="0.7352" stop-color="#5DAD82"/>
<stop offset="0.9239" stop-color="#A1C661"/>
<stop offset="1" stop-color="#BED153"/>
</linearGradient>
<linearGradient id="paint1_linear_1_7102" x1="-0.944877" y1="9.04823" x2="30.0395" y2="17.4377" gradientUnits="userSpaceOnUse">
<stop offset="0.08199" stop-color="#3D65AF"/>
<stop offset="0.2305" stop-color="#2372B8"/>
<stop offset="0.5058" stop-color="#00B8BB"/>
</linearGradient>
<linearGradient id="paint2_linear_1_7102" x1="-0.0124646" y1="5.55408" x2="16.8187" y2="10.1114" gradientUnits="userSpaceOnUse">
<stop offset="0.1297"/>
<stop offset="0.3277" stop-color="#00334B"/>
<stop offset="0.5276" stop-color="#006190"/>
<stop offset="0.6723" stop-color="#007FBB"/>
<stop offset="0.7457" stop-color="#008ACC"/>
</linearGradient>
<linearGradient id="paint3_linear_1_7102" x1="4.20882" y1="36.9924" x2="19.8843" y2="36.9924" gradientUnits="userSpaceOnUse">
<stop offset="0.1297"/>
<stop offset="0.3277" stop-color="#00334B"/>
<stop offset="0.5276" stop-color="#006190"/>
<stop offset="0.6723" stop-color="#007FBB"/>
<stop offset="0.7457" stop-color="#008ACC"/>
</linearGradient>
<linearGradient id="paint4_linear_1_7102" x1="4.43691" y1="29.099" x2="18.3708" y2="29.099" gradientUnits="userSpaceOnUse">
<stop offset="0.1297"/>
<stop offset="0.3277" stop-color="#00334B"/>
<stop offset="0.5276" stop-color="#006190"/>
<stop offset="0.6723" stop-color="#007FBB"/>
<stop offset="0.7457" stop-color="#008ACC"/>
</linearGradient>
<linearGradient id="paint5_linear_1_7102" x1="1.73613" y1="9.09946" x2="16.0305" y2="12.9699" gradientUnits="userSpaceOnUse">
<stop offset="0.1297" stop-color="#2483C5"/>
<stop offset="0.1672" stop-color="#2486C7"/>
<stop offset="0.676" stop-color="#29B1DF"/>
<stop offset="0.9352" stop-color="#2BC2E8"/>
</linearGradient>
<linearGradient id="paint6_linear_1_7102" x1="2.66104" y1="166.324" x2="16.5948" y2="166.324" gradientUnits="userSpaceOnUse">
<stop offset="0.1297"/>
<stop offset="0.3277" stop-color="#00334B"/>
<stop offset="0.5276" stop-color="#006190"/>
<stop offset="0.6723" stop-color="#007FBB"/>
<stop offset="0.7457" stop-color="#008ACC"/>
</linearGradient>
<linearGradient id="paint7_linear_1_7102" x1="0.0105107" y1="5.66231" x2="0.0105284" y2="5.66232" gradientUnits="userSpaceOnUse">
<stop stop-color="#682C90"/>
<stop offset="0.496" stop-color="#817CB9"/>
<stop offset="1" stop-color="white"/>
</linearGradient>
<linearGradient id="paint8_linear_1_7102" x1="67.3036" y1="114.982" x2="34.6624" y2="114.982" gradientUnits="userSpaceOnUse">
<stop stop-color="#682C90"/>
<stop offset="0.496" stop-color="#817CB9"/>
<stop offset="1" stop-color="white"/>
</linearGradient>
<linearGradient id="paint9_linear_1_7102" x1="65.0033" y1="123.603" x2="34.1263" y2="123.603" gradientUnits="userSpaceOnUse">
<stop stop-color="#682C90"/>
<stop offset="0.496" stop-color="#817CB9"/>
<stop offset="1" stop-color="white"/>
</linearGradient>
<linearGradient id="paint10_linear_1_7102" x1="-1.06771" y1="11.5391" x2="12.586" y2="15.236" gradientUnits="userSpaceOnUse">
<stop offset="0.1297" stop-color="#3B67AD"/>
<stop offset="0.5697" stop-color="#227CAA"/>
<stop offset="0.9352" stop-color="#118AA8"/>
</linearGradient>
<linearGradient id="paint11_linear_1_7102" x1="39.3198" y1="76.0992" x2="20.7936" y2="76.0992" gradientUnits="userSpaceOnUse">
<stop stop-color="#682C90"/>
<stop offset="0.496" stop-color="#817CB9"/>
<stop offset="1" stop-color="white"/>
</linearGradient>
<linearGradient id="paint12_linear_1_7102" x1="222.722" y1="4971.53" x2="1443.67" y2="4971.53" gradientUnits="userSpaceOnUse">
<stop offset="0.1297"/>
<stop offset="0.3277" stop-color="#00334B"/>
<stop offset="0.5276" stop-color="#006190"/>
<stop offset="0.6723" stop-color="#007FBB"/>
<stop offset="0.7457" stop-color="#008ACC"/>
</linearGradient>
<linearGradient id="paint13_linear_1_7102" x1="-0.763621" y1="8.32389" x2="12.9307" y2="12.0318" gradientUnits="userSpaceOnUse">
<stop offset="0.1297" stop-color="#3A67B0"/>
<stop offset="0.5622" stop-color="#357FBD"/>
<stop offset="0.9352" stop-color="#3290C6"/>
</linearGradient>
<linearGradient id="paint14_linear_1_7102" x1="16.5636" y1="11.078" x2="30.7273" y2="14.9131" gradientUnits="userSpaceOnUse">
<stop offset="0.1724" stop-color="#4E5CA8"/>
<stop offset="0.9937" stop-color="#1FC3F3"/>
</linearGradient>
</defs>
</svg>
