<svg width="32" height="32" viewBox="0 0 32 32" fill="none" xmlns="http://www.w3.org/2000/svg">
<path d="M20.626 10.752L24.4 7.75201L23.736 6.92401C22.2293 5.61046 20.4154 4.69866 18.4623 4.27316C16.5093 3.84766 14.4805 3.92225 12.564 4.49001C10.6548 5.0667 8.92338 6.11864 7.53185 7.54726C6.14031 8.97587 5.13425 10.7344 4.60795 12.658C4.54795 12.884 5.23195 12.462 5.53395 12.546L10.75 11.69C10.75 11.69 11.004 11.442 11.152 11.28C13.472 8.74801 17.404 8.41601 20.082 10.572L20.626 10.752Z" fill="#EA4335"/>
<path d="M27.274 12.6C26.6732 10.403 25.4426 8.42997 23.734 6.92395L20.074 10.564C20.8351 11.1814 21.4455 11.964 21.8589 12.8526C22.2723 13.7411 22.4779 14.7121 22.46 15.692V16.3379C24.26 16.3379 25.72 17.7879 25.72 19.5779C25.72 21.3639 24.26 22.816 22.46 22.816L15.946 22.8099L15.296 22.8799V27.8939L15.946 28H22.46C24.2755 28.0178 26.0487 27.4516 27.5179 26.3849C28.9871 25.3183 30.0747 23.8077 30.62 22.076C31.1584 20.3466 31.1233 18.4896 30.52 16.7819C29.9166 15.0741 28.7773 13.6072 27.272 12.6H27.274Z" fill="#4285F4"/>
<path d="M9.42203 27.998H15.94V22.81H9.42003C8.95603 22.81 8.49803 22.678 8.07603 22.488L7.16003 22.768L4.53403 25.362L4.30603 26.256C5.77642 27.3762 7.57161 27.987 9.42003 27.996L9.42203 27.998Z" fill="#34A853"/>
<path d="M9.42196 11.144C7.66046 11.1513 5.94508 11.7078 4.51473 12.736C3.08438 13.7641 2.01026 15.2127 1.44196 16.88C0.879658 18.5463 0.853723 20.3469 1.3678 22.0287C1.88188 23.7105 2.91013 25.1889 4.30796 26.256L8.08796 22.488C7.4457 22.2016 6.91428 21.7137 6.57423 21.0982C6.23419 20.4826 6.10405 19.773 6.20353 19.0768C6.30301 18.3807 6.6267 17.7359 7.12554 17.2403C7.62438 16.7446 8.27119 16.4251 8.96796 16.33C9.66488 16.23 10.3754 16.3584 10.9933 16.6958C11.6113 17.0332 12.1033 17.5617 12.396 18.202L16.176 14.446C15.3796 13.4132 14.3557 12.5779 13.184 12.0052C12.0122 11.4325 10.7262 11.1378 9.42196 11.144Z" fill="#FBBC05"/>
</svg>
