<svg width="32" height="32" viewBox="0 0 32 32" fill="none" xmlns="http://www.w3.org/2000/svg">
<path fill-rule="evenodd" clip-rule="evenodd" d="M27.2568 0H4.21562C2.62554 0 1.33337 1.28862 1.33337 2.88225V29.1204C1.33337 30.7114 2.62554 32 4.21562 32H27.2568C28.8473 32 30.1355 30.7114 30.1355 29.1204V2.88225C30.1355 1.28862 28.8473 0 27.2568 0ZM28.5352 29.1204C28.5352 29.8269 27.9629 30.3988 27.2568 30.3988H4.21562C3.51 30.3988 2.93364 29.8269 2.93364 29.1204V2.88225C2.93364 2.17309 3.51 1.60027 4.21562 1.60027H27.2568C27.9629 1.60027 28.5352 2.17309 28.5352 2.88225V29.1204ZM8.53386 27.2018L12.1363 24.0004L8.53386 20.7999V27.2018ZM21.5437 14.2297C20.8961 13.5785 19.7137 12.8008 17.7363 12.8008C15.5667 12.8008 13.3321 13.366 11.7349 13.8835V4.80164H8.53395V18.6781L10.796 17.6533C10.8336 17.6365 14.4804 16.0017 17.7363 16.0017C19.3604 16.0017 19.7203 16.8959 19.7376 17.6432V27.2018H22.935V17.602C22.9386 17.3966 22.9182 15.621 21.5437 14.2297ZM17.3351 10.0005H20.5361C21.9823 8.3622 22.7193 6.61806 22.9354 4.80133H19.7375C19.3811 6.61452 18.5927 8.34847 17.3351 10.0005Z" fill="#6762A6"/>
</svg>
