<svg width="32" height="32" viewBox="0 0 32 32" fill="none" xmlns="http://www.w3.org/2000/svg">
<path d="M9 29.138C9.428 29.694 10.078 30 10.748 30H21.25C21.92 30 22.57 29.67 23 29.132L29.516 20.776C29.944 20.22 30.092 19.51 29.944 18.82L27.614 8.40601C27.5427 8.07216 27.3966 7.75884 27.1867 7.48966C26.9767 7.22048 26.7084 7.00245 26.402 6.85201L16.974 2.23201C16.6737 2.07878 16.3412 1.99925 16.004 2.00001C15.668 2.00001 15.334 2.07601 15.034 2.23001L5.604 6.87001C5.29803 7.02081 5.0302 7.23898 4.82064 7.50813C4.61107 7.77727 4.4652 8.09041 4.394 8.42401L2.064 18.84C1.896 19.53 2.064 20.24 2.492 20.796L9 29.136V29.138Z" fill="#326DE6"/>
<path fill-rule="evenodd" clip-rule="evenodd" d="M25.4821 18.256C25.6781 18.26 25.8741 18.276 26.0681 18.304L26.1841 18.33L26.2461 18.346C26.3305 18.3573 26.4116 18.386 26.4843 18.4302C26.5571 18.4745 26.6199 18.5333 26.6687 18.603C26.7176 18.6728 26.7515 18.7519 26.7682 18.8353C26.785 18.9188 26.7843 19.0048 26.7661 19.088C26.7473 19.1716 26.7112 19.2503 26.6601 19.3191C26.6089 19.3878 26.5439 19.4451 26.4693 19.4871C26.3946 19.5292 26.312 19.5551 26.2267 19.5632C26.1414 19.5712 26.0553 19.5613 25.9741 19.534H25.9661L25.9601 19.532L25.9541 19.528C25.9341 19.5238 25.9141 19.5198 25.8941 19.516L25.7941 19.496C25.6075 19.4359 25.4245 19.3652 25.2461 19.284C24.9018 19.1451 24.5448 19.0399 24.1801 18.97C24.0537 18.9664 23.931 19.0123 23.8381 19.098C23.751 19.0814 23.6636 19.0661 23.5761 19.052C22.9831 20.9098 21.7274 22.4845 20.0481 23.476C20.0781 23.56 20.1121 23.642 20.1501 23.722C20.088 23.8313 20.0715 23.9606 20.1041 24.082C20.2521 24.422 20.4341 24.746 20.6461 25.05C20.7661 25.206 20.8741 25.37 20.9741 25.538L21.0301 25.652L21.0541 25.702C21.1209 25.8127 21.1509 25.9416 21.1399 26.0704C21.1288 26.1991 21.0773 26.3211 20.9927 26.4188C20.9081 26.5165 20.7948 26.5849 20.6689 26.6142C20.5431 26.6436 20.4111 26.6323 20.2921 26.582C20.2129 26.5493 20.1413 26.5003 20.0821 26.4383C20.0229 26.3763 19.9772 26.3027 19.9481 26.222L19.9281 26.182C19.9086 26.1437 19.89 26.1051 19.8721 26.066C19.802 25.8829 19.7426 25.696 19.6941 25.506C19.5878 25.1518 19.4471 24.8089 19.2741 24.482C19.1989 24.3804 19.0869 24.3122 18.9621 24.292L18.9021 24.186L18.8321 24.058C17.0119 24.7452 15.0028 24.7403 13.1861 24.044L13.0461 24.294C12.9473 24.3093 12.8553 24.3539 12.7821 24.422C12.5734 24.7633 12.4138 25.1322 12.3081 25.518C12.2604 25.708 12.2016 25.8949 12.1321 26.078C12.1162 26.1117 12.0995 26.1451 12.0821 26.178L12.0561 26.232C12.0273 26.3129 11.9818 26.3888 11.9225 26.4509C11.8633 26.5131 11.7916 26.562 11.7122 26.5947C11.6328 26.6273 11.5474 26.6429 11.4616 26.6403C11.3758 26.6378 11.2914 26.6173 11.2141 26.58C11.0981 26.5246 11.0024 26.4342 10.9403 26.3216C10.8783 26.2089 10.853 26.0797 10.8681 25.952C10.8784 25.8672 10.9063 25.7854 10.9501 25.712L10.9781 25.652L11.0301 25.548C11.1301 25.378 11.2381 25.216 11.3581 25.06C11.5741 24.748 11.7581 24.416 11.9121 24.068C11.928 23.9497 11.9085 23.8293 11.8561 23.722L11.9681 23.456C10.295 22.4722 9.04007 20.9098 8.44009 19.064L8.17209 19.11C8.06862 19.0367 7.94669 18.9937 7.82009 18.986C7.45551 19.0553 7.0985 19.1598 6.75409 19.298C6.57409 19.378 6.39209 19.448 6.20609 19.508C6.17294 19.5162 6.1396 19.5235 6.10609 19.53L6.04609 19.544H6.04009L6.03609 19.548H6.02609C5.92468 19.5806 5.81657 19.5862 5.71231 19.5645C5.60805 19.5428 5.5112 19.4944 5.43121 19.4241C5.35123 19.3538 5.29084 19.2639 5.25594 19.1633C5.22104 19.0627 5.21282 18.9548 5.23209 18.85C5.25664 18.7239 5.32027 18.6087 5.41396 18.5207C5.50765 18.4328 5.62665 18.3766 5.75409 18.36L5.76409 18.358H5.76809L5.78009 18.354C5.82809 18.342 5.88809 18.326 5.93209 18.318C6.12609 18.292 6.32209 18.276 6.51809 18.272C6.89009 18.246 7.25809 18.186 7.61609 18.092C7.72218 18.024 7.81171 17.9331 7.87809 17.826L8.13409 17.752C7.85649 15.8259 8.30177 13.8653 9.38409 12.248L9.18809 12.074C9.1806 11.9474 9.13763 11.8254 9.06409 11.722C8.78223 11.4803 8.47745 11.2666 8.15409 11.084C7.97922 10.9952 7.80961 10.8963 7.64609 10.788L7.55009 10.712L7.52009 10.686L7.51209 10.68C7.37271 10.5807 7.27843 10.4302 7.24993 10.2615C7.22144 10.0927 7.26105 9.91958 7.36009 9.78002C7.41894 9.70857 7.49378 9.65197 7.57855 9.61479C7.66333 9.57762 7.75566 9.56091 7.84809 9.56602C8.00351 9.5726 8.15276 9.62866 8.27409 9.72602L8.31809 9.76002C8.35009 9.78602 8.38609 9.81202 8.41009 9.83402C8.55409 9.96802 8.68809 10.112 8.81409 10.26C9.06409 10.534 9.34009 10.784 9.63809 11.004C9.75009 11.064 9.88009 11.076 10.0021 11.04L10.2221 11.196C11.5613 9.7757 13.3802 8.9033 15.3261 8.74802L15.3421 8.49002C15.4369 8.40577 15.5056 8.29611 15.5401 8.17402C15.5535 7.80402 15.5307 7.4336 15.4721 7.06802C15.433 6.87645 15.405 6.6828 15.3881 6.48802V6.32402V6.31402C15.3794 6.2286 15.3888 6.1423 15.4156 6.06074C15.4424 5.97918 15.4861 5.90418 15.5439 5.84061C15.6016 5.77704 15.672 5.72633 15.7506 5.69177C15.8292 5.65721 15.9142 5.63958 16.0001 5.64002C16.0858 5.6402 16.1705 5.65825 16.2488 5.69301C16.3271 5.72778 16.3973 5.77849 16.4549 5.84192C16.5125 5.90536 16.5562 5.9801 16.5833 6.06139C16.6103 6.14268 16.6202 6.22873 16.6121 6.31402V6.48802C16.596 6.68278 16.5686 6.87644 16.5301 7.06802C16.4709 7.43354 16.4474 7.80396 16.4601 8.17402C16.4842 8.29825 16.556 8.40809 16.6601 8.48002V8.49402L16.6741 8.75202C18.6081 8.92802 20.4141 9.79602 21.7541 11.198L21.9861 11.034C22.1114 11.0557 22.2403 11.0419 22.3581 10.994C22.6561 10.774 22.9321 10.522 23.1821 10.248C23.3081 10.098 23.4421 9.95602 23.5861 9.82202L23.6881 9.74202L23.7221 9.71402C23.7833 9.65336 23.8566 9.60625 23.9372 9.57577C24.0177 9.54529 24.1039 9.53211 24.1899 9.5371C24.2759 9.54208 24.3599 9.56512 24.4365 9.60471C24.513 9.64429 24.5803 9.69955 24.6341 9.76688C24.6879 9.8342 24.7269 9.91209 24.7486 9.99549C24.7703 10.0789 24.7742 10.1659 24.76 10.2509C24.7459 10.3359 24.714 10.417 24.6665 10.4888C24.6189 10.5607 24.5568 10.6217 24.4841 10.668L24.4361 10.708C24.4061 10.732 24.3761 10.758 24.3501 10.776C24.1866 10.8844 24.017 10.9833 23.8421 11.072C23.5187 11.2554 23.214 11.4697 22.9321 11.712C22.8501 11.8072 22.8084 11.9306 22.8161 12.056L22.7161 12.144L22.6001 12.25C23.6841 13.862 24.1401 15.816 23.8741 17.74L24.1201 17.812C24.1821 17.922 24.2741 18.014 24.3861 18.076C24.7441 18.172 25.1121 18.232 25.4821 18.256ZM14.5821 10.48C14.7961 10.432 15.0141 10.394 15.2341 10.368L15.0541 13.568L15.0381 13.576C15.0352 13.6488 15.0174 13.7202 14.986 13.7859C14.9545 13.8515 14.91 13.9101 14.8552 13.958C14.8004 14.006 14.7363 14.0422 14.667 14.0645C14.5977 14.0869 14.5246 14.0949 14.4521 14.088C14.3547 14.0797 14.2614 14.0452 14.1821 13.988L14.1781 13.99L11.5461 12.13C12.3841 11.31 13.4361 10.738 14.5821 10.48ZM17.8181 13.98L20.4341 12.132C19.438 11.1587 18.1502 10.5391 16.7681 10.368L16.9481 13.564H16.9521C16.955 13.637 16.9728 13.7085 17.0044 13.7744C17.0359 13.8402 17.0806 13.8989 17.1357 13.9468C17.1907 13.9948 17.255 14.031 17.3245 14.0532C17.3941 14.0754 17.4674 14.0832 17.5401 14.076C17.6375 14.0677 17.7308 14.0332 17.8101 13.976L17.8181 13.98ZM22.3141 17.292L19.2181 16.4L19.2141 16.388C19.1439 16.3686 19.0784 16.3352 19.0215 16.2898C18.9645 16.2444 18.9174 16.188 18.8828 16.1239C18.8482 16.0598 18.827 15.9894 18.8203 15.9169C18.8137 15.8444 18.8218 15.7713 18.8441 15.702C18.8747 15.609 18.93 15.526 19.0041 15.462L19.0001 15.46L21.3901 13.326C22.1221 14.514 22.4441 15.906 22.3101 17.292H22.3141ZM18.1921 19L19.4281 21.98C20.61 21.228 21.5073 20.1034 21.9781 18.784L18.7921 18.246L18.7881 18.252C18.6754 18.2303 18.5586 18.2465 18.4561 18.298C18.3319 18.3587 18.2357 18.4647 18.1874 18.5942C18.139 18.7237 18.1421 18.8668 18.1961 18.994L18.1921 19ZM17.4221 22.81C16.2761 23.07 15.0821 23.01 13.9681 22.634L15.5221 19.834C15.5682 19.7483 15.6386 19.6766 15.7222 19.6266C15.8057 19.5766 15.9011 19.5501 15.9985 19.5499C16.0958 19.5497 16.1914 19.5758 16.2751 19.6255C16.3589 19.6751 16.4276 19.7465 16.4741 19.832H16.4861L18.0441 22.636C17.8397 22.7042 17.6321 22.7623 17.4221 22.81ZM12.5861 21.966L13.8081 19.018L13.8001 19.006C13.8391 18.9164 13.8528 18.8179 13.8399 18.7211C13.8269 18.6242 13.7878 18.5328 13.7266 18.4566C13.6655 18.3804 13.5846 18.3224 13.4929 18.2888C13.4012 18.2552 13.302 18.2473 13.2061 18.266L13.2001 18.26L10.0421 18.794C10.5175 20.1027 11.4118 21.2178 12.5861 21.966ZM10.5921 13.326L12.9941 15.468L12.9921 15.482C13.0653 15.546 13.1198 15.6287 13.1498 15.7212C13.1798 15.8137 13.1842 15.9126 13.1624 16.0074C13.1407 16.1022 13.0936 16.1893 13.0263 16.2595C12.959 16.3297 12.8739 16.3803 12.7801 16.406L12.7781 16.416L9.69809 17.302C9.5449 15.9141 9.85953 14.5148 10.5921 13.326ZM16.4921 15.634H15.5081L14.8941 16.394L15.1141 17.346L16.0001 17.772L16.8841 17.348L17.1041 16.396L16.4921 15.634Z" fill="white"/>
</svg>
