<svg width="32" height="32" viewBox="0 0 32 32" fill="none" xmlns="http://www.w3.org/2000/svg">
<path d="M15.9481 2H16.0131C16.3462 2.15866 16.6707 2.33491 16.9851 2.528C20.6044 4.60933 24.2237 6.69133 27.8431 8.774C27.9831 8.84874 28.0974 8.96383 28.1713 9.10434C28.2451 9.24484 28.275 9.40429 28.2571 9.562C28.2491 13.951 28.2571 18.339 28.2521 22.726C28.205 22.9354 28.077 23.1176 27.8961 23.233C24.0474 25.449 20.1984 27.6637 16.3491 29.877C16.2558 29.9481 16.1434 29.9896 16.0263 29.9962C15.9091 30.0028 15.7928 29.9742 15.6921 29.914C11.8387 27.7047 7.98908 25.4913 4.14308 23.274C4.01809 23.2149 3.91339 23.1201 3.84221 23.0016C3.77102 22.8831 3.73653 22.7461 3.74308 22.608C3.74308 18.22 3.74308 13.8323 3.74308 9.445C3.73365 9.3075 3.76543 9.17031 3.83437 9.05096C3.9033 8.93162 4.00626 8.83553 4.13008 8.775C7.74475 6.69633 11.3594 4.61633 14.9741 2.535C15.2961 2.351 15.6121 2.156 15.9481 2Z" fill="#019639"/>
<path d="M8.767 10.5379C8.767 14.1573 8.767 17.7769 8.767 21.3969C8.76238 21.5974 8.79777 21.7968 8.87108 21.9834C8.9444 22.1701 9.05418 22.3402 9.194 22.4839C9.46202 22.7487 9.81271 22.9136 10.1876 22.9511C10.5625 22.9886 10.9389 22.8964 11.254 22.6899C11.4649 22.5466 11.6376 22.3539 11.757 22.1285C11.8764 21.9031 11.9389 21.652 11.939 21.3969C11.939 18.7769 11.934 16.1569 11.939 13.5369C14.3277 16.3969 16.7213 19.2529 19.12 22.1049C19.4533 22.4426 19.8659 22.6911 20.3202 22.8277C20.7745 22.9643 21.2558 22.9847 21.72 22.8869C22.0478 22.8224 22.3462 22.6543 22.5714 22.4076C22.7966 22.1608 22.9366 21.8483 22.971 21.5159C22.9763 17.8219 22.9763 14.1283 22.971 10.4349C22.9366 10.0407 22.7556 9.67369 22.4639 9.40631C22.1721 9.13892 21.7907 8.9906 21.395 8.9906C20.9993 8.9906 20.6179 9.13892 20.3261 9.40631C20.0344 9.67369 19.8534 10.0407 19.819 10.4349C19.819 13.0969 19.803 15.7559 19.819 18.4169C17.473 15.6509 15.156 12.8609 12.819 10.0849C12.5109 9.68987 12.103 9.38412 11.6374 9.1992C11.1717 9.01428 10.6652 8.95689 10.17 9.03295C9.79487 9.07471 9.4471 9.24947 9.18972 9.52556C8.93234 9.80165 8.78237 10.1608 8.767 10.5379Z" fill="white"/>
</svg>
