<svg width="32" height="32" viewBox="0 0 32 32" fill="none" xmlns="http://www.w3.org/2000/svg">
<path d="M30.7462 23.3679C29.0385 24.2581 20.192 27.8955 18.3086 28.8772C16.4253 29.8593 15.379 29.8498 13.8912 29.1385C12.4034 28.4272 2.98909 24.6245 1.29329 23.814C0.445639 23.4088 0 23.0669 0 22.7439V19.5095C0 19.5095 12.2561 16.8412 14.2348 16.1315C16.2134 15.4216 16.8999 15.3959 18.5837 16.0127C20.2676 16.6296 30.3358 18.4462 32 19.0557C32 19.0557 31.9993 21.9445 31.9993 22.2444C31.9995 22.5642 31.6155 22.9149 30.7462 23.3679Z" fill="#912626"/>
<path d="M30.7456 20.1525C29.038 21.0422 20.1917 24.6797 18.3084 25.6615C16.4251 26.6436 15.3789 26.634 13.8911 25.9227C12.4033 25.212 2.98939 21.4086 1.29364 20.5985C-0.402105 19.7878 -0.43773 19.23 1.22814 18.5777C2.89389 17.9252 12.2561 14.2521 14.235 13.5422C16.2135 12.8326 16.8999 12.8067 18.5836 13.4237C20.2675 14.0405 29.061 17.5406 30.725 18.15C32.3894 18.7601 32.4532 19.2623 30.7456 20.1525Z" fill="#C6302B"/>
<path d="M30.7462 18.1343C29.0385 19.0244 20.192 22.6618 18.3086 23.6439C16.4253 24.6256 15.379 24.6161 13.8912 23.9048C12.4033 23.1939 2.98909 19.3908 1.29329 18.5803C0.445639 18.1751 0 17.8336 0 17.5106V14.2758C0 14.2758 12.2561 11.6077 14.2348 10.8978C16.2134 10.188 16.8999 10.1623 18.5837 10.779C20.2676 11.3959 30.3358 13.2121 32 13.8218C32 13.8218 31.9993 16.7106 31.9993 17.0108C31.9995 17.3305 31.6155 17.6812 30.7462 18.1343Z" fill="#912626"/>
<path d="M30.7456 14.9189C29.038 15.8089 20.1917 19.4461 18.3084 20.4282C16.4251 21.41 15.3789 21.4004 13.8911 20.6891C12.4033 19.9784 2.98939 16.1751 1.29364 15.3649C-0.402105 14.5545 -0.43773 13.9965 1.22814 13.344C2.89389 12.6919 12.2561 9.01851 14.235 8.30876C16.2135 7.59901 16.8999 7.57326 18.5836 8.19013C20.2675 8.80688 29.061 12.3068 30.725 12.9164C32.3894 13.5263 32.4532 14.0289 30.7456 14.9189Z" fill="#C6302B"/>
<path d="M30.7462 12.7066C29.0385 13.5967 20.192 17.2342 18.3086 18.2164C16.4253 19.1981 15.379 19.1885 13.8912 18.4772C12.4033 17.7663 2.98909 13.9631 1.29329 13.1528C0.445639 12.7476 0 12.4059 0 12.0832V8.84819C0 8.84819 12.2561 6.18023 14.2348 5.47046C16.2134 4.76056 16.8999 4.73494 18.5837 5.35171C20.2676 5.9686 30.3358 7.78478 32 8.39443C32 8.39443 31.9993 11.2833 31.9993 11.5834C31.9995 11.9028 31.6155 12.2535 30.7462 12.7066Z" fill="#912626"/>
<path d="M30.7456 9.49112C29.038 10.3811 20.1917 14.0186 18.3084 15.0005C16.4251 15.9822 15.3789 15.9726 13.8911 15.2616C12.4034 14.5506 2.98939 10.7476 1.29364 9.93724C-0.402105 9.12687 -0.43773 8.56874 1.22814 7.91637C2.89389 7.26412 12.2561 3.59112 14.235 2.88112C16.2135 2.17125 16.8999 2.14575 18.5836 2.76262C20.2675 3.3795 29.061 6.87937 30.725 7.48899C32.3894 8.09849 32.4532 8.60112 30.7456 9.49112Z" fill="#C6302B"/>
<path d="M19.9103 6.34459L17.1592 6.63023L16.5432 8.11215L15.5484 6.45845L12.3716 6.17293L14.7421 5.31811L14.0309 4.00586L16.2502 4.87383L18.3424 4.18881L17.777 5.5457L19.9103 6.34459Z" fill="white"/>
<path d="M16.379 13.5343L11.2444 11.4047L18.602 10.2754L16.379 13.5343Z" fill="white"/>
<path d="M9.26016 7.16833C11.4321 7.16833 13.1927 7.85088 13.1927 8.69268C13.1927 9.5346 11.4321 10.217 9.26016 10.217C7.08838 10.217 5.32764 9.5346 5.32764 8.69268C5.32764 7.85088 7.08838 7.16833 9.26016 7.16833Z" fill="white"/>
<path d="M23.1619 6.74976L27.5163 8.47056L23.1656 10.1896L23.1619 6.74976Z" fill="#621B1C"/>
<path d="M18.3445 8.65537L23.162 6.74976L23.1657 10.1896L22.6934 10.3744L18.3445 8.65537Z" fill="#9A2928"/>
</svg>
