<svg width="100" height="100" viewBox="0 0 100 100" fill="none" xmlns="http://www.w3.org/2000/svg">
<g clip-path="url(#clip0_5_232)">
<circle opacity="0.2" cx="50" cy="50" r="35" fill="#FF9649"/>
<rect x="8.61084" y="64.7071" width="11.1777" height="11.1777" transform="rotate(45 8.61084 64.7071)" fill="url(#paint0_linear_5_232)" stroke="#FF6B00"/>
<rect x="18.8057" y="80.7071" width="7.21028" height="7.21028" transform="rotate(45 18.8057 80.7071)" fill="url(#paint1_linear_5_232)" stroke="#FF6B00"/>
<rect x="89.8057" y="23.7071" width="7.21028" height="7.21028" transform="rotate(45 89.8057 23.7071)" fill="url(#paint2_linear_5_232)" stroke="#FF6B00"/>
<path d="M29.3506 29.001C29.3506 19.8877 36.7383 12.5 45.8516 12.5H52.62C61.774 12.5 69.121 18.9268 69.121 28.001V30.0966C69.121 31.581 67.9177 32.7843 66.4333 32.7843C64.9489 32.7843 63.7455 31.581 63.7455 30.0966V28.001C63.7455 21.7934 58.6968 17.8755 52.62 17.8755H45.8516C39.7071 17.8755 34.7261 22.8565 34.7261 29.001V55.2366C34.7261 63.9801 41.8141 71.0681 50.5576 71.0681H66.4333C67.9177 71.0681 69.121 72.2714 69.121 73.7558C69.121 75.2402 67.9177 76.4436 66.4333 76.4436H50.5576C38.8453 76.4436 29.3506 66.9489 29.3506 55.2366V29.001Z" fill="#1B1B1D" stroke="#FF6B00"/>
<path d="M49.5835 85.6879C36.1812 85.6879 25.5 75.4342 25.5 62.6594C25.5 50.0135 36.1831 39.6309 49.5835 39.6309H65.0165C69.8095 39.6309 73.5304 43.344 73.5304 47.758V62.6594C73.5304 75.436 62.8473 85.6879 49.5835 85.6879Z" fill="url(#paint3_linear_5_232)" stroke="#FF6B00"/>
<path d="M49.4468 85.6879C62.849 85.6879 73.5303 75.4342 73.5303 62.6594C73.5303 50.0135 62.8472 39.6309 49.4468 39.6309H34.0138C29.2208 39.6309 25.4998 43.344 25.4998 47.758V62.6594C25.4998 75.436 36.1829 85.6879 49.4468 85.6879Z" fill="url(#paint4_linear_5_232)" stroke="#FF6B00"/>
<circle cx="49.5812" cy="66.711" r="4.97276" fill="#1B1B1D"/>
<path d="M47.7856 70.1646H51.3771L52.7584 88.1879H46.4043L47.7856 70.1646Z" fill="#1B1B1D"/>
</g>
<defs>
<linearGradient id="paint0_linear_5_232" x1="16.6829" y1="67.8966" x2="8.81843" y2="74.9496" gradientUnits="userSpaceOnUse">
<stop stop-color="#FF6B00"/>
<stop offset="1" stop-color="#FFB27A"/>
</linearGradient>
<linearGradient id="paint1_linear_5_232" x1="24.2479" y1="82.6271" x2="18.9456" y2="87.3822" gradientUnits="userSpaceOnUse">
<stop stop-color="#FF6B00"/>
<stop offset="1" stop-color="#FFB27A"/>
</linearGradient>
<linearGradient id="paint2_linear_5_232" x1="95.2479" y1="25.6271" x2="89.9456" y2="30.3822" gradientUnits="userSpaceOnUse">
<stop stop-color="#FF6B00"/>
<stop offset="1" stop-color="#FFB27A"/>
</linearGradient>
<linearGradient id="paint3_linear_5_232" x1="57.5" y1="54.1879" x2="27" y2="82.6879" gradientUnits="userSpaceOnUse">
<stop stop-color="#FF6B00"/>
<stop offset="1" stop-color="#FFB27A"/>
</linearGradient>
<linearGradient id="paint4_linear_5_232" x1="41.5303" y1="54.1879" x2="72.0303" y2="82.6879" gradientUnits="userSpaceOnUse">
<stop stop-color="#FF6B00"/>
<stop offset="1" stop-color="#FFB27A"/>
</linearGradient>
<clipPath id="clip0_5_232">
<rect width="100" height="100" fill="white"/>
</clipPath>
</defs>
</svg>
