<svg width="180" height="180" viewBox="0 0 180 180" fill="none" xmlns="http://www.w3.org/2000/svg">
<g clip-path="url(#clip0_112_1896)">
<path opacity="0.4" d="M0 3H181L132.371 172H48.6294L0 3Z" fill="url(#paint0_linear_112_1896)"/>
<path d="M40.5 173C40.5 172.724 40.7239 172.5 41 172.5H139C139.276 172.5 139.5 172.724 139.5 173V179C139.5 179.276 139.276 179.5 139 179.5H41C40.7239 179.5 40.5 179.276 40.5 179V173Z" fill="white" fill-opacity="0.9" stroke="#FF6B00"/>
<mask id="path-3-inside-1_112_1896" fill="white">
<path fill-rule="evenodd" clip-rule="evenodd" d="M22 49.6025C22 48.0499 22.8983 46.6377 24.3045 45.9796L88.8045 15.7931C89.8789 15.2903 91.1211 15.2903 92.1955 15.7931L156.696 45.9796C158.102 46.6377 159 48.0499 159 49.6024V125.549C159 127.001 158.213 128.339 156.944 129.045L92.4442 164.918C91.2353 165.591 89.7647 165.591 88.5558 164.918L24.0558 129.045C22.7868 128.339 22 127.001 22 125.549V49.6025ZM57 94.5817L64.6091 85.3025L83.1673 100.521L118.676 57.2182L127.955 64.8273L92.4464 108.13L86.7396 115.089L84.8373 117.409L57 94.5817Z"/>
</mask>
<path fill-rule="evenodd" clip-rule="evenodd" d="M22 49.6025C22 48.0499 22.8983 46.6377 24.3045 45.9796L88.8045 15.7931C89.8789 15.2903 91.1211 15.2903 92.1955 15.7931L156.696 45.9796C158.102 46.6377 159 48.0499 159 49.6024V125.549C159 127.001 158.213 128.339 156.944 129.045L92.4442 164.918C91.2353 165.591 89.7647 165.591 88.5558 164.918L24.0558 129.045C22.7868 128.339 22 127.001 22 125.549V49.6025ZM57 94.5817L64.6091 85.3025L83.1673 100.521L118.676 57.2182L127.955 64.8273L92.4464 108.13L86.7396 115.089L84.8373 117.409L57 94.5817Z" fill="url(#paint1_linear_112_1896)"/>
<path d="M24.3045 45.9796L24.7284 46.8853H24.7284L24.3045 45.9796ZM88.8045 15.7931L88.3806 14.8874V14.8874L88.8045 15.7931ZM92.1955 15.7931L91.7716 16.6989V16.6989L92.1955 15.7931ZM156.696 45.9796L157.119 45.0739L156.696 45.9796ZM156.944 129.045L157.43 129.918L156.944 129.045ZM92.4442 164.918L92.9303 165.792H92.9303L92.4442 164.918ZM88.5558 164.918L88.0697 165.792H88.0697L88.5558 164.918ZM24.0558 129.045L24.5418 128.171H24.5418L24.0558 129.045ZM64.6091 85.3025L65.2432 84.5293L64.4699 83.8952L63.8358 84.6685L64.6091 85.3025ZM57 94.5817L56.2267 93.9476L55.5927 94.7208L56.3659 95.3549L57 94.5817ZM83.1673 100.521L82.5332 101.294L83.3065 101.928L83.9406 101.155L83.1673 100.521ZM118.676 57.2182L119.31 56.4449L118.537 55.8108L117.903 56.5841L118.676 57.2182ZM127.955 64.8273L128.729 65.4613L129.363 64.6881L128.59 64.054L127.955 64.8273ZM92.4464 108.13L93.2197 108.764L92.4464 108.13ZM86.7396 115.089L87.5129 115.723L86.7396 115.089ZM84.8373 117.409L84.2032 118.182L84.9765 118.816L85.6106 118.043L84.8373 117.409ZM23.8806 45.0739C22.1229 45.8965 21 47.6618 21 49.6025H23C23 48.4381 23.6738 47.3789 24.7284 46.8853L23.8806 45.0739ZM88.3806 14.8874L23.8806 45.0739L24.7284 46.8853L89.2284 16.6989L88.3806 14.8874ZM92.6194 14.8874C91.2764 14.2589 89.7236 14.2589 88.3806 14.8874L89.2284 16.6989C90.0342 16.3217 90.9658 16.3217 91.7716 16.6989L92.6194 14.8874ZM157.119 45.0739L92.6194 14.8874L91.7716 16.6989L156.272 46.8853L157.119 45.0739ZM160 49.6024C160 47.6618 158.877 45.8965 157.119 45.0739L156.272 46.8853C157.326 47.3789 158 48.4381 158 49.6024H160ZM160 125.549V49.6024H158V125.549H160ZM157.43 129.918C159.016 129.036 160 127.364 160 125.549H158C158 126.638 157.41 127.641 156.458 128.171L157.43 129.918ZM92.9303 165.792L157.43 129.918L156.458 128.171L91.9582 164.044L92.9303 165.792ZM88.0697 165.792C89.5809 166.633 91.4191 166.633 92.9303 165.792L91.9582 164.044C91.0515 164.549 89.9485 164.549 89.0418 164.044L88.0697 165.792ZM23.5697 129.918L88.0697 165.792L89.0418 164.044L24.5418 128.171L23.5697 129.918ZM21 125.549C21 127.364 21.9835 129.036 23.5697 129.918L24.5418 128.171C23.5901 127.641 23 126.638 23 125.549H21ZM21 49.6025V125.549H23V49.6025H21ZM63.8358 84.6685L56.2267 93.9476L57.7733 95.2157L65.3823 85.9366L63.8358 84.6685ZM83.8014 99.7474L65.2432 84.5293L63.975 86.0758L82.5332 101.294L83.8014 99.7474ZM83.9406 101.155L119.45 57.8523L117.903 56.5841L82.394 99.8866L83.9406 101.155ZM118.042 57.9914L127.321 65.6005L128.59 64.054L119.31 56.4449L118.042 57.9914ZM127.182 64.1932L91.6732 107.496L93.2197 108.764L128.729 65.4613L127.182 64.1932ZM87.5129 115.723L93.2197 108.764L91.6732 107.496L85.9664 114.455L87.5129 115.723ZM85.6106 118.043L87.5129 115.723L85.9664 114.455L84.0641 116.775L85.6106 118.043ZM56.3659 95.3549L84.2032 118.182L85.4714 116.636L57.6341 93.8084L56.3659 95.3549Z" fill="#FF6B00" mask="url(#path-3-inside-1_112_1896)"/>
<rect y="0.707107" width="21.0086" height="21.0086" rx="0.5" transform="matrix(-0.707107 0.707107 0.707107 0.707107 157.734 76.3057)" fill="white" fill-opacity="0.9" stroke="#FF6B00"/>
<rect y="0.707107" width="13.8383" height="13.8383" rx="0.5" transform="matrix(-0.707107 0.707107 0.707107 0.707107 138.309 126.222)" fill="white" fill-opacity="0.9" stroke="#FF6B00"/>
<rect y="0.707107" width="13.8383" height="13.8383" rx="0.5" transform="matrix(-0.707107 0.707107 0.707107 0.707107 21.9922 53.2071)" fill="white" fill-opacity="0.9" stroke="#FF6B00"/>
</g>
<defs>
<linearGradient id="paint0_linear_112_1896" x1="89.5" y1="6.5" x2="90.5" y2="172" gradientUnits="userSpaceOnUse">
<stop stop-color="#FF6C01" stop-opacity="0"/>
<stop offset="1" stop-color="#FF740F"/>
</linearGradient>
<linearGradient id="paint1_linear_112_1896" x1="112.811" y1="63.3162" x2="16.7644" y2="141.466" gradientUnits="userSpaceOnUse">
<stop stop-color="#FF6B00"/>
<stop offset="1" stop-color="#FFB27A"/>
</linearGradient>
<clipPath id="clip0_112_1896">
<rect width="180" height="180" fill="white"/>
</clipPath>
</defs>
</svg>
