<svg width="180" height="180" viewBox="0 0 180 180" fill="none" xmlns="http://www.w3.org/2000/svg">
<mask id="path-1-inside-1_159_172" fill="white">
<path d="M41.2237 17.9747C41.2237 17.1898 40.5869 16.5494 39.8034 16.5936C35.3136 16.8468 30.9635 18.2966 27.2102 20.8046C23.0621 23.5762 19.8292 27.5156 17.92 32.1246C16.0109 36.7336 15.5114 41.8053 16.4847 46.6982C17.4579 51.5911 19.8603 56.0855 23.3878 59.6131C26.9154 63.1407 31.4099 65.543 36.3028 66.5163C41.1957 67.4896 46.2673 66.9901 50.8764 65.0809C55.4854 63.1718 59.4248 59.9388 62.1964 55.7908C64.7043 52.0374 66.1542 47.6874 66.4074 43.1976C66.4515 42.414 65.8111 41.7773 65.0263 41.7773L42.6447 41.7773C41.8599 41.7773 41.2237 41.1411 41.2237 40.3562L41.2237 17.9747Z"/>
</mask>
<path d="M41.2237 17.9747C41.2237 17.1898 40.5869 16.5494 39.8034 16.5936C35.3136 16.8468 30.9635 18.2966 27.2102 20.8046C23.0621 23.5762 19.8292 27.5156 17.92 32.1246C16.0109 36.7336 15.5114 41.8053 16.4847 46.6982C17.4579 51.5911 19.8603 56.0855 23.3878 59.6131C26.9154 63.1407 31.4099 65.543 36.3028 66.5163C41.1957 67.4896 46.2673 66.9901 50.8764 65.0809C55.4854 63.1718 59.4248 59.9388 62.1964 55.7908C64.7043 52.0374 66.1542 47.6874 66.4074 43.1976C66.4515 42.414 65.8111 41.7773 65.0263 41.7773L42.6447 41.7773C41.8599 41.7773 41.2237 41.1411 41.2237 40.3562L41.2237 17.9747Z" fill="url(#paint0_linear_159_172)" stroke="#FF6B00" stroke-width="0.794447" mask="url(#path-1-inside-1_159_172)"/>
<mask id="path-2-inside-2_159_172" fill="white">
<path d="M67.5801 37.2236C69.4689 37.2236 71.0239 35.6855 70.7686 33.814C70.4766 31.6738 69.9103 29.5752 69.0801 27.5709C67.8125 24.5106 65.9545 21.73 63.6123 19.3877C61.27 17.0455 58.4894 15.1875 55.4291 13.9199C53.4248 13.0897 51.3262 12.5234 49.186 12.2314C47.3145 11.9761 45.7764 13.5311 45.7764 15.4199L45.7764 33.8036C45.7764 35.6924 47.3076 37.2236 49.1964 37.2236L67.5801 37.2236Z"/>
</mask>
<path d="M67.5801 37.2236C69.4689 37.2236 71.0239 35.6855 70.7686 33.814C70.4766 31.6738 69.9103 29.5752 69.0801 27.5709C67.8125 24.5106 65.9545 21.73 63.6123 19.3877C61.27 17.0455 58.4894 15.1875 55.4291 13.9199C53.4248 13.0897 51.3262 12.5234 49.186 12.2314C47.3145 11.9761 45.7764 13.5311 45.7764 15.4199L45.7764 33.8036C45.7764 35.6924 47.3076 37.2236 49.1964 37.2236L67.5801 37.2236Z" fill="white" fill-opacity="0.9" stroke="#FF6B00" stroke-width="2" mask="url(#path-2-inside-2_159_172)"/>
<rect x="2.5" y="77.5" width="25" height="95" rx="3.5" fill="url(#paint1_linear_159_172)" stroke="#FF6B00"/>
<rect x="38.5" y="109.5" width="25" height="63" rx="3.5" fill="url(#paint2_linear_159_172)" stroke="#FF6B00"/>
<rect x="74.5" y="136.5" width="25" height="36" rx="3.5" fill="url(#paint3_linear_159_172)" stroke="#FF6B00"/>
<path d="M42.5 66.4194C42.5 62.7322 44.6336 59.378 47.9731 57.815L105.201 31.0318C108.559 29.4604 112.441 29.4604 115.799 31.0318L173.027 57.815C176.366 59.378 178.5 62.7322 178.5 66.4194V99.7358C178.5 124.964 164.829 148.211 142.781 160.474L119.978 173.156C114.085 176.434 106.915 176.434 101.022 173.156L78.2187 160.474C56.1712 148.211 42.5 124.964 42.5 99.7358V66.4194Z" fill="white" fill-opacity="0.9" stroke="#FF6B00"/>
<path d="M87.02 79.4784C87.02 69.0136 95.5034 60.5303 105.968 60.5303H113.711C124.216 60.5303 132.659 67.9087 132.659 78.3344V103.61C132.659 105.348 131.25 106.757 129.512 106.757C127.775 106.757 126.366 105.348 126.366 103.61V78.3344C126.366 71.2822 120.632 66.8234 113.711 66.8234H105.968C98.979 66.8234 93.3132 72.4892 93.3132 79.4784V109.49C93.3132 119.453 101.389 127.529 111.351 127.529H129.512C131.25 127.529 132.659 128.937 132.659 130.675C132.659 132.413 131.25 133.822 129.512 133.822H111.351C97.9136 133.822 87.02 122.928 87.02 109.49V79.4784Z" fill="white" stroke="#FF6B00"/>
<path d="M110.237 144.397C94.8687 144.397 82.6147 132.638 82.6147 117.982C82.6147 103.473 94.8705 91.5664 110.237 91.5664H127.891C133.412 91.5664 137.703 95.844 137.703 100.935V117.982C137.703 132.64 125.447 144.397 110.237 144.397Z" fill="url(#paint4_linear_159_172)" stroke="#FF6B00"/>
<path d="M110.081 144.397C125.449 144.397 137.703 132.638 137.703 117.982C137.703 103.473 125.447 91.5664 110.081 91.5664H92.4262C86.9058 91.5664 82.6148 95.844 82.6148 100.935V117.982C82.6148 132.64 94.8706 144.397 110.081 144.397Z" fill="url(#paint5_linear_159_172)" stroke="#FF6B00"/>
<circle cx="110.234" cy="122.616" r="5.68854" fill="white"/>
<path d="M108.181 126.567H112.289L113.869 147.185H106.601L108.181 126.567Z" fill="white"/>
<defs>
<linearGradient id="paint0_linear_159_172" x1="32.1419" y1="33.5618" x2="61.3595" y2="66.141" gradientUnits="userSpaceOnUse">
<stop stop-color="#FF6B00"/>
<stop offset="1" stop-color="#FFB27A"/>
</linearGradient>
<linearGradient id="paint1_linear_159_172" x1="19.2342" y1="107.718" x2="-9.37376" y2="114.666" gradientUnits="userSpaceOnUse">
<stop stop-color="#FF6B00"/>
<stop offset="1" stop-color="#FFB27A"/>
</linearGradient>
<linearGradient id="paint2_linear_159_172" x1="55.2342" y1="129.478" x2="28.4887" y2="139.223" gradientUnits="userSpaceOnUse">
<stop stop-color="#FF6B00"/>
<stop offset="1" stop-color="#FFB27A"/>
</linearGradient>
<linearGradient id="paint3_linear_159_172" x1="91.2342" y1="147.839" x2="69.5502" y2="161.504" gradientUnits="userSpaceOnUse">
<stop stop-color="#FF6B00"/>
<stop offset="1" stop-color="#FFB27A"/>
</linearGradient>
<linearGradient id="paint4_linear_159_172" x1="119.293" y1="108.291" x2="84.4026" y2="140.893" gradientUnits="userSpaceOnUse">
<stop stop-color="#FF6B00"/>
<stop offset="1" stop-color="#FFB27A"/>
</linearGradient>
<linearGradient id="paint5_linear_159_172" x1="101.025" y1="108.291" x2="135.915" y2="140.893" gradientUnits="userSpaceOnUse">
<stop stop-color="#FF6B00"/>
<stop offset="1" stop-color="#FFB27A"/>
</linearGradient>
</defs>
</svg>
