<svg width="180" height="180" viewBox="0 0 180 180" fill="none" xmlns="http://www.w3.org/2000/svg">
<mask id="path-1-inside-1_43_50" fill="white">
<path d="M41.2237 17.9737C41.2237 17.1889 40.5869 16.5485 39.8034 16.5926C35.3136 16.8458 30.9635 18.2957 27.2102 20.8036C23.0621 23.5752 19.8292 27.5146 17.92 32.1236C16.0109 36.7327 15.5114 41.8043 16.4847 46.6972C17.4579 51.5901 19.8603 56.0846 23.3878 59.6122C26.9154 63.1397 31.4099 65.5421 36.3028 66.5153C41.1957 67.4886 46.2673 66.9891 50.8764 65.08C55.4854 63.1708 59.4248 59.9379 62.1964 55.7898C64.7043 52.0365 66.1542 47.6864 66.4074 43.1966C66.4515 42.4131 65.8111 41.7763 65.0263 41.7763L42.6447 41.7763C41.8599 41.7763 41.2237 41.1401 41.2237 40.3553L41.2237 17.9737Z"/>
</mask>
<path d="M41.2237 17.9737C41.2237 17.1889 40.5869 16.5485 39.8034 16.5926C35.3136 16.8458 30.9635 18.2957 27.2102 20.8036C23.0621 23.5752 19.8292 27.5146 17.92 32.1236C16.0109 36.7327 15.5114 41.8043 16.4847 46.6972C17.4579 51.5901 19.8603 56.0846 23.3878 59.6122C26.9154 63.1397 31.4099 65.5421 36.3028 66.5153C41.1957 67.4886 46.2673 66.9891 50.8764 65.08C55.4854 63.1708 59.4248 59.9379 62.1964 55.7898C64.7043 52.0365 66.1542 47.6864 66.4074 43.1966C66.4515 42.4131 65.8111 41.7763 65.0263 41.7763L42.6447 41.7763C41.8599 41.7763 41.2237 41.1401 41.2237 40.3553L41.2237 17.9737Z" fill="url(#paint0_linear_43_50)" stroke="#FF6B00" stroke-width="0.794447" mask="url(#path-1-inside-1_43_50)"/>
<mask id="path-2-inside-2_43_50" fill="white">
<path d="M67.5801 37.2231C69.4689 37.2231 71.0239 35.685 70.7686 33.8135C70.4766 31.6733 69.9103 29.5747 69.0801 27.5704C67.8125 24.5101 65.9545 21.7295 63.6123 19.3873C61.27 17.045 58.4894 15.1871 55.4291 13.9194C53.4248 13.0892 51.3262 12.5229 49.186 12.2309C47.3145 11.9756 45.7764 13.5306 45.7764 15.4194L45.7764 33.8031C45.7764 35.6919 47.3076 37.2231 49.1964 37.2231L67.5801 37.2231Z"/>
</mask>
<path d="M67.5801 37.2231C69.4689 37.2231 71.0239 35.685 70.7686 33.8135C70.4766 31.6733 69.9103 29.5747 69.0801 27.5704C67.8125 24.5101 65.9545 21.7295 63.6123 19.3873C61.27 17.045 58.4894 15.1871 55.4291 13.9194C53.4248 13.0892 51.3262 12.5229 49.186 12.2309C47.3145 11.9756 45.7764 13.5306 45.7764 15.4194L45.7764 33.8031C45.7764 35.6919 47.3076 37.2231 49.1964 37.2231L67.5801 37.2231Z" fill="#1B1B1D" fill-opacity="0.9" stroke="#FF6B00" stroke-width="2" mask="url(#path-2-inside-2_43_50)"/>
<rect x="2.5" y="77.5" width="25" height="95" rx="3.5" fill="url(#paint1_linear_43_50)" stroke="#FF6B00"/>
<rect x="38.5" y="109.5" width="25" height="63" rx="3.5" fill="url(#paint2_linear_43_50)" stroke="#FF6B00"/>
<rect x="74.5" y="136.5" width="25" height="36" rx="3.5" fill="url(#paint3_linear_43_50)" stroke="#FF6B00"/>
<path d="M42.5 66.4194C42.5 62.7322 44.6336 59.378 47.9731 57.815L105.201 31.0318C108.559 29.4604 112.441 29.4604 115.799 31.0318L173.027 57.815C176.366 59.378 178.5 62.7322 178.5 66.4194V99.7358C178.5 124.964 164.829 148.211 142.781 160.474L119.978 173.156C114.085 176.434 106.915 176.434 101.022 173.156L78.2187 160.474C56.1712 148.211 42.5 124.964 42.5 99.7358V66.4194Z" fill="#1B1B1D" fill-opacity="0.9" stroke="#FF6B00"/>
<path d="M87.02 79.4784C87.02 69.0136 95.5034 60.5303 105.968 60.5303H113.711C124.216 60.5303 132.659 67.9087 132.659 78.3344V103.61C132.659 105.348 131.25 106.757 129.512 106.757C127.775 106.757 126.366 105.348 126.366 103.61V78.3344C126.366 71.2822 120.632 66.8234 113.711 66.8234H105.968C98.979 66.8234 93.3132 72.4892 93.3132 79.4784V109.49C93.3132 119.453 101.389 127.529 111.351 127.529H129.512C131.25 127.529 132.659 128.937 132.659 130.675C132.659 132.413 131.25 133.822 129.512 133.822H111.351C97.9136 133.822 87.02 122.928 87.02 109.49V79.4784Z" fill="#1B1B1D" stroke="#FF6B00"/>
<path d="M110.237 144.396C94.8687 144.396 82.6147 132.637 82.6147 117.981C82.6147 103.473 94.8705 91.5659 110.237 91.5659H127.891C133.412 91.5659 137.703 95.8435 137.703 100.935V117.981C137.703 132.639 125.447 144.396 110.237 144.396Z" fill="url(#paint4_linear_43_50)" stroke="#FF6B00"/>
<path d="M110.081 144.396C125.449 144.396 137.703 132.637 137.703 117.981C137.703 103.473 125.447 91.5659 110.081 91.5659H92.4262C86.9058 91.5659 82.6148 95.8435 82.6148 100.935V117.981C82.6148 132.639 94.8706 144.396 110.081 144.396Z" fill="url(#paint5_linear_43_50)" stroke="#FF6B00"/>
<circle cx="110.234" cy="122.616" r="5.68854" fill="#1B1B1D"/>
<path d="M108.181 126.567H112.289L113.869 147.185H106.601L108.181 126.567Z" fill="#1B1B1D"/>
<defs>
<linearGradient id="paint0_linear_43_50" x1="32.1419" y1="33.5608" x2="61.3595" y2="66.14" gradientUnits="userSpaceOnUse">
<stop stop-color="#FF6B00"/>
<stop offset="1" stop-color="#FFB27A"/>
</linearGradient>
<linearGradient id="paint1_linear_43_50" x1="19.2342" y1="107.718" x2="-9.37376" y2="114.666" gradientUnits="userSpaceOnUse">
<stop stop-color="#FF6B00"/>
<stop offset="1" stop-color="#FFB27A"/>
</linearGradient>
<linearGradient id="paint2_linear_43_50" x1="55.2342" y1="129.478" x2="28.4887" y2="139.223" gradientUnits="userSpaceOnUse">
<stop stop-color="#FF6B00"/>
<stop offset="1" stop-color="#FFB27A"/>
</linearGradient>
<linearGradient id="paint3_linear_43_50" x1="91.2342" y1="147.839" x2="69.5502" y2="161.504" gradientUnits="userSpaceOnUse">
<stop stop-color="#FF6B00"/>
<stop offset="1" stop-color="#FFB27A"/>
</linearGradient>
<linearGradient id="paint4_linear_43_50" x1="119.293" y1="108.29" x2="84.4026" y2="140.893" gradientUnits="userSpaceOnUse">
<stop stop-color="#FF6B00"/>
<stop offset="1" stop-color="#FFB27A"/>
</linearGradient>
<linearGradient id="paint5_linear_43_50" x1="101.025" y1="108.29" x2="135.915" y2="140.893" gradientUnits="userSpaceOnUse">
<stop stop-color="#FF6B00"/>
<stop offset="1" stop-color="#FFB27A"/>
</linearGradient>
</defs>
</svg>
