<svg
  width="1440"
  height="373"
  viewBox="0 0 1440 373"
  fill="none"
  xmlns="http://www.w3.org/2000/svg"
>
  <path
    opacity="0.4"
    d="M1565 -0.500061L1484.98 204.241C1479.08 219.354 1460.18 224.372 1447.56 214.181L1378.21 158.219C1366.76 148.983 1349.78 152.12 1342.39 164.836L1229.88 358.389C1220.48 374.571 1196.99 374.236 1188.05 357.792L1111.21 216.465C1103.04 201.446 1082.24 199.537 1071.47 212.82L1023.55 271.969C1012.51 285.595 991.055 283.164 983.345 267.412L942.97 184.935C938.18 175.149 927.399 169.818 916.715 171.951L796.729 195.906C787.901 197.669 780.802 204.223 778.341 212.883L736.295 360.873C732.939 372.686 716.108 372.429 713.114 360.518L680.942 232.512C676.848 216.22 657.713 209.067 643.935 218.679L628.73 229.286C623.693 232.799 617.5 234.249 611.427 233.334L537.495 222.207C531.966 221.375 526.901 218.638 523.175 214.471L475.137 160.741C465.573 150.043 448.82 150.074 439.295 160.808L415.225 187.932C409.306 194.601 400.179 197.439 391.522 195.302L369.26 189.807C357.876 186.997 346.129 192.824 341.477 203.588L329.676 230.896C322.454 247.61 299.979 250.509 288.751 236.175L270.239 212.54C259.835 199.255 239.332 200.573 230.712 215.079L221.314 230.896C211.704 247.069 188.068 246.4 179.389 229.709L125.618 126.306C116.382 108.544 90.741 109.231 82.4692 127.461L53.9055 190.414C47.113 205.384 27.6209 209.248 15.6309 198.002L-16 168.332"
    stroke="url(#paint0_linear_437_3)"
    stroke-opacity="0.4"
    stroke-width="5"
  />
  <defs>
    <linearGradient
      id="paint0_linear_437_3"
      x1="775.043"
      y1="-75.3415"
      x2="775.043"
      y2="421.819"
      gradientUnits="userSpaceOnUse"
    >
      <stop stop-color="#FAFAFA" />
      <stop offset="0.357292" stop-color="#FFF3F0" />
      <stop offset="1" stop-color="#975B23" stop-opacity="0.02" />
    </linearGradient>
  </defs>
</svg>
