<svg width="272" height="404" viewBox="0 0 272 404" fill="none" xmlns="http://www.w3.org/2000/svg">
<g clip-path="url(#clip0_7619_54128)">
<rect width="272" height="404" fill="#0B0C0E"/>
<line x1="15.5" x2="15.5" y2="404" stroke="#242834"/>
<line x1="49.5" x2="49.5" y2="404" stroke="#242834"/>
<path d="M136 0V141" stroke="#242834"/>
<path d="M136 243L136 404" stroke="#242834"/>
<path d="M16 323.5H224.5" stroke="#242834"/>
<path d="M16 59.5L224.5 59.5" stroke="#242834"/>
<path d="M16 51.5L224.5 51.5" stroke="#242834"/>
<path d="M16 343.5H224.5" stroke="#242834"/>
<path d="M16 351.5H224.5" stroke="#242834"/>
<path d="M16 79.5H224.5" stroke="#242834"/>
<path d="M180 324V404" stroke="#242834"/>
<path d="M180 0V80" stroke="#242834"/>
<g clip-path="url(#clip1_7619_54128)">
<mask id="path-13-inside-1_7619_54128" fill="white">
<path d="M223 404L223 0H272V404H223Z"/>
</mask>
<path d="M223 404L223 0H272V404H223Z" fill="#0B0C0E"/>
<line x1="272.558" y1="449.294" x2="221.646" y2="398.382" stroke="#242834"/>
<line x1="272.558" y1="442.382" x2="221.646" y2="391.471" stroke="#242834"/>
<line x1="272.558" y1="435.471" x2="221.646" y2="384.559" stroke="#242834"/>
<line x1="272.558" y1="428.559" x2="221.646" y2="377.647" stroke="#242834"/>
<line x1="272.558" y1="421.647" x2="221.646" y2="370.735" stroke="#242834"/>
<line x1="272.558" y1="414.735" x2="221.646" y2="363.824" stroke="#242834"/>
<line x1="272.558" y1="407.824" x2="221.646" y2="356.912" stroke="#242834"/>
<line x1="272.558" y1="400.912" x2="221.646" y2="350" stroke="#242834"/>
<line x1="272.558" y1="394.001" x2="221.646" y2="343.089" stroke="#242834"/>
<line x1="272.558" y1="387.089" x2="221.646" y2="336.177" stroke="#242834"/>
<line x1="272.558" y1="380.177" x2="221.646" y2="329.266" stroke="#242834"/>
<line x1="272.558" y1="373.265" x2="221.646" y2="322.353" stroke="#242834"/>
<line x1="272.558" y1="366.354" x2="221.646" y2="315.442" stroke="#242834"/>
<line x1="272.558" y1="359.442" x2="221.646" y2="308.53" stroke="#242834"/>
<line x1="272.558" y1="352.53" x2="221.646" y2="301.619" stroke="#242834"/>
<line x1="272.558" y1="345.619" x2="221.646" y2="294.707" stroke="#242834"/>
<line x1="272.558" y1="338.707" x2="221.646" y2="287.795" stroke="#242834"/>
<line x1="272.558" y1="331.795" x2="221.646" y2="280.884" stroke="#242834"/>
<line x1="272.558" y1="324.884" x2="221.646" y2="273.972" stroke="#242834"/>
<line x1="272.558" y1="317.972" x2="221.646" y2="267.06" stroke="#242834"/>
<line x1="272.558" y1="311.06" x2="221.646" y2="260.148" stroke="#242834"/>
<line x1="272.558" y1="304.148" x2="221.646" y2="253.237" stroke="#242834"/>
<line x1="272.558" y1="297.237" x2="221.646" y2="246.325" stroke="#242834"/>
<line x1="272.558" y1="290.325" x2="221.646" y2="239.414" stroke="#242834"/>
<line x1="272.558" y1="283.414" x2="221.646" y2="232.502" stroke="#242834"/>
<line x1="272.558" y1="276.502" x2="221.646" y2="225.59" stroke="#242834"/>
<line x1="272.558" y1="269.59" x2="221.646" y2="218.679" stroke="#242834"/>
<line x1="272.558" y1="262.678" x2="221.646" y2="211.767" stroke="#242834"/>
<line x1="272.558" y1="255.767" x2="221.646" y2="204.855" stroke="#242834"/>
<line x1="272.558" y1="248.855" x2="221.646" y2="197.943" stroke="#242834"/>
<line x1="272.558" y1="241.943" x2="221.646" y2="191.032" stroke="#242834"/>
<line x1="272.558" y1="235.032" x2="221.646" y2="184.12" stroke="#242834"/>
<line x1="272.558" y1="228.12" x2="221.646" y2="177.208" stroke="#242834"/>
<line x1="272.558" y1="221.209" x2="221.646" y2="170.297" stroke="#242834"/>
<line x1="272.558" y1="214.297" x2="221.646" y2="163.385" stroke="#242834"/>
<line x1="272.558" y1="207.385" x2="221.646" y2="156.473" stroke="#242834"/>
<line x1="272.558" y1="200.473" x2="221.646" y2="149.561" stroke="#242834"/>
<line x1="272.558" y1="193.562" x2="221.646" y2="142.65" stroke="#242834"/>
<line x1="272.558" y1="186.65" x2="221.646" y2="135.738" stroke="#242834"/>
<line x1="272.558" y1="179.738" x2="221.646" y2="128.827" stroke="#242834"/>
<line x1="272.558" y1="172.827" x2="221.646" y2="121.915" stroke="#242834"/>
<line x1="272.558" y1="165.915" x2="221.646" y2="115.003" stroke="#242834"/>
<line x1="272.558" y1="159.003" x2="221.646" y2="108.091" stroke="#242834"/>
<line x1="272.558" y1="152.091" x2="221.646" y2="101.18" stroke="#242834"/>
<line x1="272.558" y1="145.18" x2="221.646" y2="94.268" stroke="#242834"/>
<line x1="272.558" y1="138.268" x2="221.646" y2="87.3564" stroke="#242834"/>
<line x1="272.558" y1="131.356" x2="221.646" y2="80.4448" stroke="#242834"/>
<line x1="272.558" y1="124.445" x2="221.646" y2="73.5332" stroke="#242834"/>
<line x1="272.558" y1="117.533" x2="221.646" y2="66.6216" stroke="#242834"/>
<line x1="272.558" y1="110.622" x2="221.646" y2="59.7099" stroke="#242834"/>
<line x1="272.558" y1="103.71" x2="221.646" y2="52.7983" stroke="#242834"/>
<line x1="272.558" y1="96.7979" x2="221.646" y2="45.8862" stroke="#242834"/>
<line x1="272.558" y1="89.8863" x2="221.646" y2="38.9746" stroke="#242834"/>
<line x1="272.558" y1="82.9746" x2="221.646" y2="32.063" stroke="#242834"/>
<line x1="272.558" y1="76.063" x2="221.646" y2="25.1513" stroke="#242834"/>
<line x1="272.558" y1="69.1514" x2="221.646" y2="18.2397" stroke="#242834"/>
<line x1="272.558" y1="62.2398" x2="221.646" y2="11.3281" stroke="#242834"/>
<line x1="272.558" y1="55.3282" x2="221.646" y2="4.41648" stroke="#242834"/>
<line x1="272.558" y1="48.4161" x2="221.646" y2="-2.49563" stroke="#242834"/>
<line x1="272.558" y1="41.5044" x2="221.646" y2="-9.40726" stroke="#242834"/>
<line x1="272.558" y1="34.5928" x2="221.646" y2="-16.3189" stroke="#242834"/>
<line x1="272.558" y1="27.6812" x2="221.646" y2="-23.2305" stroke="#242834"/>
<line x1="272.558" y1="20.7696" x2="221.646" y2="-30.1421" stroke="#242834"/>
<line x1="272.558" y1="13.8579" x2="221.646" y2="-37.0537" stroke="#242834"/>
<line x1="272.558" y1="6.94633" x2="221.646" y2="-43.9654" stroke="#242834"/>
<line x1="272.558" y1="0.0347057" x2="221.646" y2="-50.877" stroke="#242834"/>
</g>
<path d="M224 404L224 0H222L222 404H224Z" fill="#242834" mask="url(#path-13-inside-1_7619_54128)"/>
<mask id="mask0_7619_54128" style="mask-type:alpha" maskUnits="userSpaceOnUse" x="84" y="140" width="104" height="60">
<path d="M136 140L187.962 200H84.0385L136 140Z" fill="#D9D9D9"/>
</mask>
<g mask="url(#mask0_7619_54128)">
<path d="M85.1329 199.5L136 140.764L186.867 199.5H85.1329Z" fill="#0B0C0E" stroke="#242834"/>
<line x1="88" y1="220" x2="88" y2="140" stroke="#242834"/>
<line x1="94" y1="220" x2="94" y2="140" stroke="#242834"/>
<line x1="100" y1="220" x2="100" y2="140" stroke="#242834"/>
<line x1="106" y1="220" x2="106" y2="140" stroke="#242834"/>
<line x1="112" y1="220" x2="112" y2="140" stroke="#242834"/>
<line x1="118" y1="220" x2="118" y2="140" stroke="#242834"/>
<line x1="124" y1="220" x2="124" y2="140" stroke="#242834"/>
<line x1="130" y1="220" x2="130" y2="140" stroke="#242834"/>
<line x1="136" y1="220" x2="136" y2="140" stroke="#242834"/>
<line x1="142" y1="220" x2="142" y2="140" stroke="#242834"/>
<line x1="148" y1="220" x2="148" y2="140" stroke="#242834"/>
<line x1="154" y1="220" x2="154" y2="140" stroke="#242834"/>
<line x1="160" y1="220" x2="160" y2="140" stroke="#242834"/>
<line x1="166" y1="220" x2="166" y2="140" stroke="#242834"/>
<line x1="172" y1="220" x2="172" y2="140" stroke="#242834"/>
<line x1="178" y1="220" x2="178" y2="140" stroke="#242834"/>
<line x1="184" y1="220" x2="184" y2="140" stroke="#242834"/>
</g>
<path d="M85.1329 243.5L136 184.764L186.867 243.5H85.1329Z" fill="#0B0C0E" stroke="#242834"/>
<path d="M136 224L143.5 233H128.5L136 224Z" fill="#E5484D"/>
<rect x="273" y="343" width="61" height="273" transform="rotate(90 273 343)" fill="url(#paint0_linear_7619_54128)"/>
<rect width="61" height="273" transform="matrix(0 -1 -1 0 273 61)" fill="url(#paint1_linear_7619_54128)"/>
</g>
<defs>
<linearGradient id="paint0_linear_7619_54128" x1="321.8" y1="479.5" x2="296.696" y2="479.5" gradientUnits="userSpaceOnUse">
<stop stop-color="#0B0C0E"/>
<stop offset="1" stop-color="#0B0C0E" stop-opacity="0.1"/>
</linearGradient>
<linearGradient id="paint1_linear_7619_54128" x1="48.8" y1="136.5" x2="23.6962" y2="136.5" gradientUnits="userSpaceOnUse">
<stop stop-color="#0B0C0E"/>
<stop offset="1" stop-color="#0B0C0E" stop-opacity="0.1"/>
</linearGradient>
<clipPath id="clip0_7619_54128">
<rect width="272" height="404" fill="white"/>
</clipPath>
<clipPath id="clip1_7619_54128">
<path d="M223 404L223 0H272V404H223Z" fill="white"/>
</clipPath>
</defs>
</svg>
