<svg width="580" height="360" viewBox="0 0 580 360" fill="none" xmlns="http://www.w3.org/2000/svg">
<g clip-path="url(#clip0_7619_40012)">
<rect width="580" height="360" fill="#0B0C0E"/>
<g opacity="0.3">
<circle cx="13" cy="10" r="1" fill="#2C3140" fill-opacity="0.6"/>
<circle cx="27" cy="10" r="1" fill="#2C3140" fill-opacity="0.6"/>
<circle cx="41" cy="10" r="1" fill="#2C3140" fill-opacity="0.6"/>
<circle cx="55" cy="10" r="1" fill="#2C3140" fill-opacity="0.6"/>
<circle cx="69" cy="10" r="1" fill="#2C3140" fill-opacity="0.6"/>
<circle cx="83" cy="10" r="1" fill="#2C3140" fill-opacity="0.6"/>
<circle cx="97" cy="10" r="1" fill="#2C3140" fill-opacity="0.6"/>
<circle cx="111" cy="10" r="1" fill="#2C3140" fill-opacity="0.6"/>
<circle cx="125" cy="10" r="1" fill="#2C3140" fill-opacity="0.6"/>
<circle cx="139" cy="10" r="1" fill="#2C3140" fill-opacity="0.6"/>
<circle cx="153" cy="10" r="1" fill="#2C3140" fill-opacity="0.6"/>
<circle cx="167" cy="10" r="1" fill="#2C3140" fill-opacity="0.6"/>
<circle cx="181" cy="10" r="1" fill="#2C3140" fill-opacity="0.6"/>
<circle cx="195" cy="10" r="1" fill="#2C3140" fill-opacity="0.6"/>
<circle cx="13" cy="20" r="1" fill="#2C3140" fill-opacity="0.6"/>
<circle cx="27" cy="20" r="1" fill="#2C3140" fill-opacity="0.6"/>
<circle cx="41" cy="20" r="1" fill="#2C3140" fill-opacity="0.6"/>
<circle cx="55" cy="20" r="1" fill="#2C3140" fill-opacity="0.6"/>
<circle cx="69" cy="20" r="1" fill="#2C3140" fill-opacity="0.6"/>
<circle cx="83" cy="20" r="1" fill="#2C3140" fill-opacity="0.6"/>
<circle cx="97" cy="20" r="1" fill="#2C3140" fill-opacity="0.6"/>
<circle cx="111" cy="20" r="1" fill="#2C3140" fill-opacity="0.6"/>
<circle cx="125" cy="20" r="1" fill="#2C3140" fill-opacity="0.6"/>
<circle cx="139" cy="20" r="1" fill="#2C3140" fill-opacity="0.6"/>
<circle cx="153" cy="20" r="1" fill="#2C3140" fill-opacity="0.6"/>
<circle cx="167" cy="20" r="1" fill="#2C3140" fill-opacity="0.6"/>
<circle cx="181" cy="20" r="1" fill="#2C3140" fill-opacity="0.6"/>
<circle cx="195" cy="20" r="1" fill="#2C3140" fill-opacity="0.6"/>
<circle cx="13" cy="30" r="1" fill="#2C3140" fill-opacity="0.6"/>
<circle cx="27" cy="30" r="1" fill="#2C3140" fill-opacity="0.6"/>
<circle cx="41" cy="30" r="1" fill="#2C3140" fill-opacity="0.6"/>
<circle cx="55" cy="30" r="1" fill="#2C3140" fill-opacity="0.6"/>
<circle cx="69" cy="30" r="1" fill="#2C3140" fill-opacity="0.6"/>
<circle cx="83" cy="30" r="1" fill="#2C3140" fill-opacity="0.6"/>
<circle cx="97" cy="30" r="1" fill="#2C3140" fill-opacity="0.6"/>
<circle cx="111" cy="30" r="1" fill="#2C3140" fill-opacity="0.6"/>
<circle cx="125" cy="30" r="1" fill="#2C3140" fill-opacity="0.6"/>
<circle cx="139" cy="30" r="1" fill="#2C3140" fill-opacity="0.6"/>
<circle cx="153" cy="30" r="1" fill="#2C3140" fill-opacity="0.6"/>
<circle cx="167" cy="30" r="1" fill="#2C3140" fill-opacity="0.6"/>
<circle cx="181" cy="30" r="1" fill="#2C3140" fill-opacity="0.6"/>
<circle cx="195" cy="30" r="1" fill="#2C3140" fill-opacity="0.6"/>
<circle cx="13" cy="40" r="1" fill="#2C3140" fill-opacity="0.6"/>
<circle cx="27" cy="40" r="1" fill="#2C3140" fill-opacity="0.6"/>
<circle cx="41" cy="40" r="1" fill="#2C3140" fill-opacity="0.6"/>
<circle cx="55" cy="40" r="1" fill="#2C3140" fill-opacity="0.6"/>
<circle cx="69" cy="40" r="1" fill="#2C3140" fill-opacity="0.6"/>
<circle cx="83" cy="40" r="1" fill="#2C3140" fill-opacity="0.6"/>
<circle cx="97" cy="40" r="1" fill="#2C3140" fill-opacity="0.6"/>
<circle cx="111" cy="40" r="1" fill="#2C3140" fill-opacity="0.6"/>
<circle cx="125" cy="40" r="1" fill="#2C3140" fill-opacity="0.6"/>
<circle cx="139" cy="40" r="1" fill="#2C3140" fill-opacity="0.6"/>
<circle cx="153" cy="40" r="1" fill="#2C3140" fill-opacity="0.6"/>
<circle cx="167" cy="40" r="1" fill="#2C3140" fill-opacity="0.6"/>
<circle cx="181" cy="40" r="1" fill="#2C3140" fill-opacity="0.6"/>
<circle cx="195" cy="40" r="1" fill="#2C3140" fill-opacity="0.6"/>
<circle cx="13" cy="50" r="1" fill="#2C3140" fill-opacity="0.6"/>
<circle cx="27" cy="50" r="1" fill="#2C3140" fill-opacity="0.6"/>
<circle cx="41" cy="50" r="1" fill="#2C3140" fill-opacity="0.6"/>
<circle cx="55" cy="50" r="1" fill="#2C3140" fill-opacity="0.6"/>
<circle cx="69" cy="50" r="1" fill="#2C3140" fill-opacity="0.6"/>
<circle cx="83" cy="50" r="1" fill="#2C3140" fill-opacity="0.6"/>
<circle cx="97" cy="50" r="1" fill="#2C3140" fill-opacity="0.6"/>
<circle cx="111" cy="50" r="1" fill="#2C3140" fill-opacity="0.6"/>
<circle cx="125" cy="50" r="1" fill="#2C3140" fill-opacity="0.6"/>
<circle cx="139" cy="50" r="1" fill="#2C3140" fill-opacity="0.6"/>
<circle cx="153" cy="50" r="1" fill="#2C3140" fill-opacity="0.6"/>
<circle cx="167" cy="50" r="1" fill="#2C3140" fill-opacity="0.6"/>
<circle cx="181" cy="50" r="1" fill="#2C3140" fill-opacity="0.6"/>
<circle cx="195" cy="50" r="1" fill="#2C3140" fill-opacity="0.6"/>
<circle cx="13" cy="60" r="1" fill="#2C3140" fill-opacity="0.6"/>
<circle cx="27" cy="60" r="1" fill="#2C3140" fill-opacity="0.6"/>
<circle cx="41" cy="60" r="1" fill="#2C3140" fill-opacity="0.6"/>
<circle cx="55" cy="60" r="1" fill="#2C3140" fill-opacity="0.6"/>
<circle cx="69" cy="60" r="1" fill="#2C3140" fill-opacity="0.6"/>
<circle cx="83" cy="60" r="1" fill="#2C3140" fill-opacity="0.6"/>
<circle cx="97" cy="60" r="1" fill="#2C3140" fill-opacity="0.6"/>
<circle cx="111" cy="60" r="1" fill="#2C3140" fill-opacity="0.6"/>
<circle cx="125" cy="60" r="1" fill="#2C3140" fill-opacity="0.6"/>
<circle cx="139" cy="60" r="1" fill="#2C3140" fill-opacity="0.6"/>
<circle cx="153" cy="60" r="1" fill="#2C3140" fill-opacity="0.6"/>
<circle cx="167" cy="60" r="1" fill="#2C3140" fill-opacity="0.6"/>
<circle cx="181" cy="60" r="1" fill="#2C3140" fill-opacity="0.6"/>
<circle cx="195" cy="60" r="1" fill="#2C3140" fill-opacity="0.6"/>
<circle cx="13" cy="70" r="1" fill="#2C3140" fill-opacity="0.6"/>
<circle cx="27" cy="70" r="1" fill="#2C3140" fill-opacity="0.6"/>
<circle cx="41" cy="70" r="1" fill="#2C3140" fill-opacity="0.6"/>
<circle cx="55" cy="70" r="1" fill="#2C3140" fill-opacity="0.6"/>
<circle cx="69" cy="70" r="1" fill="#2C3140" fill-opacity="0.6"/>
<circle cx="83" cy="70" r="1" fill="#2C3140" fill-opacity="0.6"/>
<circle cx="97" cy="70" r="1" fill="#2C3140" fill-opacity="0.6"/>
<circle cx="111" cy="70" r="1" fill="#2C3140" fill-opacity="0.6"/>
<circle cx="125" cy="70" r="1" fill="#2C3140" fill-opacity="0.6"/>
<circle cx="139" cy="70" r="1" fill="#2C3140" fill-opacity="0.6"/>
<circle cx="153" cy="70" r="1" fill="#2C3140" fill-opacity="0.6"/>
<circle cx="167" cy="70" r="1" fill="#2C3140" fill-opacity="0.6"/>
<circle cx="181" cy="70" r="1" fill="#2C3140" fill-opacity="0.6"/>
<circle cx="195" cy="70" r="1" fill="#2C3140" fill-opacity="0.6"/>
<circle cx="13" cy="80" r="1" fill="#2C3140" fill-opacity="0.6"/>
<circle cx="27" cy="80" r="1" fill="#2C3140" fill-opacity="0.6"/>
<circle cx="41" cy="80" r="1" fill="#2C3140" fill-opacity="0.6"/>
<circle cx="55" cy="80" r="1" fill="#2C3140" fill-opacity="0.6"/>
<circle cx="69" cy="80" r="1" fill="#2C3140" fill-opacity="0.6"/>
<circle cx="83" cy="80" r="1" fill="#2C3140" fill-opacity="0.6"/>
<circle cx="97" cy="80" r="1" fill="#2C3140" fill-opacity="0.6"/>
<circle cx="111" cy="80" r="1" fill="#2C3140" fill-opacity="0.6"/>
<circle cx="125" cy="80" r="1" fill="#2C3140" fill-opacity="0.6"/>
<circle cx="139" cy="80" r="1" fill="#2C3140" fill-opacity="0.6"/>
<circle cx="153" cy="80" r="1" fill="#2C3140" fill-opacity="0.6"/>
<circle cx="167" cy="80" r="1" fill="#2C3140" fill-opacity="0.6"/>
<circle cx="181" cy="80" r="1" fill="#2C3140" fill-opacity="0.6"/>
<circle cx="195" cy="80" r="1" fill="#2C3140" fill-opacity="0.6"/>
<circle cx="13" cy="90" r="1" fill="#2C3140" fill-opacity="0.6"/>
<circle cx="27" cy="90" r="1" fill="#2C3140" fill-opacity="0.6"/>
<circle cx="41" cy="90" r="1" fill="#2C3140" fill-opacity="0.6"/>
<circle cx="55" cy="90" r="1" fill="#2C3140" fill-opacity="0.6"/>
<circle cx="69" cy="90" r="1" fill="#2C3140" fill-opacity="0.6"/>
<circle cx="83" cy="90" r="1" fill="#2C3140" fill-opacity="0.6"/>
<circle cx="97" cy="90" r="1" fill="#2C3140" fill-opacity="0.6"/>
<circle cx="111" cy="90" r="1" fill="#2C3140" fill-opacity="0.6"/>
<circle cx="125" cy="90" r="1" fill="#2C3140" fill-opacity="0.6"/>
<circle cx="139" cy="90" r="1" fill="#2C3140" fill-opacity="0.6"/>
<circle cx="153" cy="90" r="1" fill="#2C3140" fill-opacity="0.6"/>
<circle cx="167" cy="90" r="1" fill="#2C3140" fill-opacity="0.6"/>
<circle cx="181" cy="90" r="1" fill="#2C3140" fill-opacity="0.6"/>
<circle cx="195" cy="90" r="1" fill="#2C3140" fill-opacity="0.6"/>
<circle cx="13" cy="100" r="1" fill="#2C3140" fill-opacity="0.6"/>
<circle cx="27" cy="100" r="1" fill="#2C3140" fill-opacity="0.6"/>
<circle cx="41" cy="100" r="1" fill="#2C3140" fill-opacity="0.6"/>
<circle cx="55" cy="100" r="1" fill="#2C3140" fill-opacity="0.6"/>
<circle cx="69" cy="100" r="1" fill="#2C3140" fill-opacity="0.6"/>
<circle cx="83" cy="100" r="1" fill="#2C3140" fill-opacity="0.6"/>
<circle cx="97" cy="100" r="1" fill="#2C3140" fill-opacity="0.6"/>
<circle cx="111" cy="100" r="1" fill="#2C3140" fill-opacity="0.6"/>
<circle cx="125" cy="100" r="1" fill="#2C3140" fill-opacity="0.6"/>
<circle cx="139" cy="100" r="1" fill="#2C3140" fill-opacity="0.6"/>
<circle cx="153" cy="100" r="1" fill="#2C3140" fill-opacity="0.6"/>
<circle cx="167" cy="100" r="1" fill="#2C3140" fill-opacity="0.6"/>
<circle cx="181" cy="100" r="1" fill="#2C3140" fill-opacity="0.6"/>
<circle cx="195" cy="100" r="1" fill="#2C3140" fill-opacity="0.6"/>
<circle cx="13" cy="110" r="1" fill="#2C3140" fill-opacity="0.6"/>
<circle cx="27" cy="110" r="1" fill="#2C3140" fill-opacity="0.6"/>
<circle cx="41" cy="110" r="1" fill="#2C3140" fill-opacity="0.6"/>
<circle cx="55" cy="110" r="1" fill="#2C3140" fill-opacity="0.6"/>
<circle cx="69" cy="110" r="1" fill="#2C3140" fill-opacity="0.6"/>
<circle cx="83" cy="110" r="1" fill="#2C3140" fill-opacity="0.6"/>
<circle cx="97" cy="110" r="1" fill="#2C3140" fill-opacity="0.6"/>
<circle cx="111" cy="110" r="1" fill="#2C3140" fill-opacity="0.6"/>
<circle cx="125" cy="110" r="1" fill="#2C3140" fill-opacity="0.6"/>
<circle cx="139" cy="110" r="1" fill="#2C3140" fill-opacity="0.6"/>
<circle cx="153" cy="110" r="1" fill="#2C3140" fill-opacity="0.6"/>
<circle cx="167" cy="110" r="1" fill="#2C3140" fill-opacity="0.6"/>
<circle cx="181" cy="110" r="1" fill="#2C3140" fill-opacity="0.6"/>
<circle cx="195" cy="110" r="1" fill="#2C3140" fill-opacity="0.6"/>
<circle cx="13" cy="120" r="1" fill="#2C3140" fill-opacity="0.6"/>
<circle cx="27" cy="120" r="1" fill="#2C3140" fill-opacity="0.6"/>
<circle cx="41" cy="120" r="1" fill="#2C3140" fill-opacity="0.6"/>
<circle cx="55" cy="120" r="1" fill="#2C3140" fill-opacity="0.6"/>
<circle cx="69" cy="120" r="1" fill="#2C3140" fill-opacity="0.6"/>
<circle cx="83" cy="120" r="1" fill="#2C3140" fill-opacity="0.6"/>
<circle cx="97" cy="120" r="1" fill="#2C3140" fill-opacity="0.6"/>
<circle cx="111" cy="120" r="1" fill="#2C3140" fill-opacity="0.6"/>
<circle cx="125" cy="120" r="1" fill="#2C3140" fill-opacity="0.6"/>
<circle cx="139" cy="120" r="1" fill="#2C3140" fill-opacity="0.6"/>
<circle cx="153" cy="120" r="1" fill="#2C3140" fill-opacity="0.6"/>
<circle cx="167" cy="120" r="1" fill="#2C3140" fill-opacity="0.6"/>
<circle cx="181" cy="120" r="1" fill="#2C3140" fill-opacity="0.6"/>
<circle cx="195" cy="120" r="1" fill="#2C3140" fill-opacity="0.6"/>
<circle cx="13" cy="130" r="1" fill="#2C3140" fill-opacity="0.6"/>
<circle cx="27" cy="130" r="1" fill="#2C3140" fill-opacity="0.6"/>
<circle cx="41" cy="130" r="1" fill="#2C3140" fill-opacity="0.6"/>
<circle cx="55" cy="130" r="1" fill="#2C3140" fill-opacity="0.6"/>
<circle cx="69" cy="130" r="1" fill="#2C3140" fill-opacity="0.6"/>
<circle cx="83" cy="130" r="1" fill="#2C3140" fill-opacity="0.6"/>
<circle cx="97" cy="130" r="1" fill="#2C3140" fill-opacity="0.6"/>
<circle cx="111" cy="130" r="1" fill="#2C3140" fill-opacity="0.6"/>
<circle cx="125" cy="130" r="1" fill="#2C3140" fill-opacity="0.6"/>
<circle cx="139" cy="130" r="1" fill="#2C3140" fill-opacity="0.6"/>
<circle cx="153" cy="130" r="1" fill="#2C3140" fill-opacity="0.6"/>
<circle cx="167" cy="130" r="1" fill="#2C3140" fill-opacity="0.6"/>
<circle cx="181" cy="130" r="1" fill="#2C3140" fill-opacity="0.6"/>
<circle cx="195" cy="130" r="1" fill="#2C3140" fill-opacity="0.6"/>
<circle cx="13" cy="140" r="1" fill="#2C3140" fill-opacity="0.6"/>
<circle cx="27" cy="140" r="1" fill="#2C3140" fill-opacity="0.6"/>
<circle cx="41" cy="140" r="1" fill="#2C3140" fill-opacity="0.6"/>
<circle cx="55" cy="140" r="1" fill="#2C3140" fill-opacity="0.6"/>
<circle cx="69" cy="140" r="1" fill="#2C3140" fill-opacity="0.6"/>
<circle cx="83" cy="140" r="1" fill="#2C3140" fill-opacity="0.6"/>
<circle cx="97" cy="140" r="1" fill="#2C3140" fill-opacity="0.6"/>
<circle cx="111" cy="140" r="1" fill="#2C3140" fill-opacity="0.6"/>
<circle cx="125" cy="140" r="1" fill="#2C3140" fill-opacity="0.6"/>
<circle cx="139" cy="140" r="1" fill="#2C3140" fill-opacity="0.6"/>
<circle cx="153" cy="140" r="1" fill="#2C3140" fill-opacity="0.6"/>
<circle cx="167" cy="140" r="1" fill="#2C3140" fill-opacity="0.6"/>
<circle cx="181" cy="140" r="1" fill="#2C3140" fill-opacity="0.6"/>
<circle cx="195" cy="140" r="1" fill="#2C3140" fill-opacity="0.6"/>
<circle cx="13" cy="150" r="1" fill="#2C3140" fill-opacity="0.6"/>
<circle cx="27" cy="150" r="1" fill="#2C3140" fill-opacity="0.6"/>
<circle cx="41" cy="150" r="1" fill="#2C3140" fill-opacity="0.6"/>
<circle cx="55" cy="150" r="1" fill="#2C3140" fill-opacity="0.6"/>
<circle cx="69" cy="150" r="1" fill="#2C3140" fill-opacity="0.6"/>
<circle cx="83" cy="150" r="1" fill="#2C3140" fill-opacity="0.6"/>
<circle cx="97" cy="150" r="1" fill="#2C3140" fill-opacity="0.6"/>
<circle cx="111" cy="150" r="1" fill="#2C3140" fill-opacity="0.6"/>
<circle cx="125" cy="150" r="1" fill="#2C3140" fill-opacity="0.6"/>
<circle cx="139" cy="150" r="1" fill="#2C3140" fill-opacity="0.6"/>
<circle cx="153" cy="150" r="1" fill="#2C3140" fill-opacity="0.6"/>
<circle cx="167" cy="150" r="1" fill="#2C3140" fill-opacity="0.6"/>
<circle cx="181" cy="150" r="1" fill="#2C3140" fill-opacity="0.6"/>
<circle cx="195" cy="150" r="1" fill="#2C3140" fill-opacity="0.6"/>
<circle cx="13" cy="160" r="1" fill="#2C3140" fill-opacity="0.6"/>
<circle cx="27" cy="160" r="1" fill="#2C3140" fill-opacity="0.6"/>
<circle cx="41" cy="160" r="1" fill="#2C3140" fill-opacity="0.6"/>
<circle cx="55" cy="160" r="1" fill="#2C3140" fill-opacity="0.6"/>
<circle cx="69" cy="160" r="1" fill="#2C3140" fill-opacity="0.6"/>
<circle cx="83" cy="160" r="1" fill="#2C3140" fill-opacity="0.6"/>
<circle cx="97" cy="160" r="1" fill="#2C3140" fill-opacity="0.6"/>
<circle cx="111" cy="160" r="1" fill="#2C3140" fill-opacity="0.6"/>
<circle cx="125" cy="160" r="1" fill="#2C3140" fill-opacity="0.6"/>
<circle cx="139" cy="160" r="1" fill="#2C3140" fill-opacity="0.6"/>
<circle cx="153" cy="160" r="1" fill="#2C3140" fill-opacity="0.6"/>
<circle cx="167" cy="160" r="1" fill="#2C3140" fill-opacity="0.6"/>
<circle cx="181" cy="160" r="1" fill="#2C3140" fill-opacity="0.6"/>
<circle cx="195" cy="160" r="1" fill="#2C3140" fill-opacity="0.6"/>
<circle cx="13" cy="170" r="1" fill="#2C3140" fill-opacity="0.6"/>
<circle cx="27" cy="170" r="1" fill="#2C3140" fill-opacity="0.6"/>
<circle cx="41" cy="170" r="1" fill="#2C3140" fill-opacity="0.6"/>
<circle cx="55" cy="170" r="1" fill="#2C3140" fill-opacity="0.6"/>
<circle cx="69" cy="170" r="1" fill="#2C3140" fill-opacity="0.6"/>
<circle cx="83" cy="170" r="1" fill="#2C3140" fill-opacity="0.6"/>
<circle cx="97" cy="170" r="1" fill="#2C3140" fill-opacity="0.6"/>
<circle cx="111" cy="170" r="1" fill="#2C3140" fill-opacity="0.6"/>
<circle cx="125" cy="170" r="1" fill="#2C3140" fill-opacity="0.6"/>
<circle cx="139" cy="170" r="1" fill="#2C3140" fill-opacity="0.6"/>
<circle cx="153" cy="170" r="1" fill="#2C3140" fill-opacity="0.6"/>
<circle cx="167" cy="170" r="1" fill="#2C3140" fill-opacity="0.6"/>
<circle cx="181" cy="170" r="1" fill="#2C3140" fill-opacity="0.6"/>
<circle cx="195" cy="170" r="1" fill="#2C3140" fill-opacity="0.6"/>
<circle cx="13" cy="180" r="1" fill="#2C3140" fill-opacity="0.6"/>
<circle cx="27" cy="180" r="1" fill="#2C3140" fill-opacity="0.6"/>
<circle cx="41" cy="180" r="1" fill="#2C3140" fill-opacity="0.6"/>
<circle cx="55" cy="180" r="1" fill="#2C3140" fill-opacity="0.6"/>
<circle cx="69" cy="180" r="1" fill="#2C3140" fill-opacity="0.6"/>
<circle cx="83" cy="180" r="1" fill="#2C3140" fill-opacity="0.6"/>
<circle cx="97" cy="180" r="1" fill="#2C3140" fill-opacity="0.6"/>
<circle cx="111" cy="180" r="1" fill="#2C3140" fill-opacity="0.6"/>
<circle cx="125" cy="180" r="1" fill="#2C3140" fill-opacity="0.6"/>
<circle cx="139" cy="180" r="1" fill="#2C3140" fill-opacity="0.6"/>
<circle cx="153" cy="180" r="1" fill="#2C3140" fill-opacity="0.6"/>
<circle cx="167" cy="180" r="1" fill="#2C3140" fill-opacity="0.6"/>
<circle cx="181" cy="180" r="1" fill="#2C3140" fill-opacity="0.6"/>
<circle cx="195" cy="180" r="1" fill="#2C3140" fill-opacity="0.6"/>
<circle cx="13" cy="190" r="1" fill="#2C3140" fill-opacity="0.6"/>
<circle cx="27" cy="190" r="1" fill="#2C3140" fill-opacity="0.6"/>
<circle cx="41" cy="190" r="1" fill="#2C3140" fill-opacity="0.6"/>
<circle cx="55" cy="190" r="1" fill="#2C3140" fill-opacity="0.6"/>
<circle cx="69" cy="190" r="1" fill="#2C3140" fill-opacity="0.6"/>
<circle cx="83" cy="190" r="1" fill="#2C3140" fill-opacity="0.6"/>
<circle cx="97" cy="190" r="1" fill="#2C3140" fill-opacity="0.6"/>
<circle cx="111" cy="190" r="1" fill="#2C3140" fill-opacity="0.6"/>
<circle cx="125" cy="190" r="1" fill="#2C3140" fill-opacity="0.6"/>
<circle cx="139" cy="190" r="1" fill="#2C3140" fill-opacity="0.6"/>
<circle cx="153" cy="190" r="1" fill="#2C3140" fill-opacity="0.6"/>
<circle cx="167" cy="190" r="1" fill="#2C3140" fill-opacity="0.6"/>
<circle cx="181" cy="190" r="1" fill="#2C3140" fill-opacity="0.6"/>
<circle cx="195" cy="190" r="1" fill="#2C3140" fill-opacity="0.6"/>
<circle cx="13" cy="200" r="1" fill="#2C3140" fill-opacity="0.6"/>
<circle cx="27" cy="200" r="1" fill="#2C3140" fill-opacity="0.6"/>
<circle cx="41" cy="200" r="1" fill="#2C3140" fill-opacity="0.6"/>
<circle cx="55" cy="200" r="1" fill="#2C3140" fill-opacity="0.6"/>
<circle cx="69" cy="200" r="1" fill="#2C3140" fill-opacity="0.6"/>
<circle cx="83" cy="200" r="1" fill="#2C3140" fill-opacity="0.6"/>
<circle cx="97" cy="200" r="1" fill="#2C3140" fill-opacity="0.6"/>
<circle cx="111" cy="200" r="1" fill="#2C3140" fill-opacity="0.6"/>
<circle cx="125" cy="200" r="1" fill="#2C3140" fill-opacity="0.6"/>
<circle cx="139" cy="200" r="1" fill="#2C3140" fill-opacity="0.6"/>
<circle cx="153" cy="200" r="1" fill="#2C3140" fill-opacity="0.6"/>
<circle cx="167" cy="200" r="1" fill="#2C3140" fill-opacity="0.6"/>
<circle cx="181" cy="200" r="1" fill="#2C3140" fill-opacity="0.6"/>
<circle cx="195" cy="200" r="1" fill="#2C3140" fill-opacity="0.6"/>
<circle cx="13" cy="210" r="1" fill="#2C3140" fill-opacity="0.6"/>
<circle cx="27" cy="210" r="1" fill="#2C3140" fill-opacity="0.6"/>
<circle cx="41" cy="210" r="1" fill="#2C3140" fill-opacity="0.6"/>
<circle cx="55" cy="210" r="1" fill="#2C3140" fill-opacity="0.6"/>
<circle cx="69" cy="210" r="1" fill="#2C3140" fill-opacity="0.6"/>
<circle cx="83" cy="210" r="1" fill="#2C3140" fill-opacity="0.6"/>
<circle cx="97" cy="210" r="1" fill="#2C3140" fill-opacity="0.6"/>
<circle cx="111" cy="210" r="1" fill="#2C3140" fill-opacity="0.6"/>
<circle cx="125" cy="210" r="1" fill="#2C3140" fill-opacity="0.6"/>
<circle cx="139" cy="210" r="1" fill="#2C3140" fill-opacity="0.6"/>
<circle cx="153" cy="210" r="1" fill="#2C3140" fill-opacity="0.6"/>
<circle cx="167" cy="210" r="1" fill="#2C3140" fill-opacity="0.6"/>
<circle cx="181" cy="210" r="1" fill="#2C3140" fill-opacity="0.6"/>
<circle cx="195" cy="210" r="1" fill="#2C3140" fill-opacity="0.6"/>
<circle cx="13" cy="220" r="1" fill="#2C3140" fill-opacity="0.6"/>
<circle cx="27" cy="220" r="1" fill="#2C3140" fill-opacity="0.6"/>
<circle cx="41" cy="220" r="1" fill="#2C3140" fill-opacity="0.6"/>
<circle cx="55" cy="220" r="1" fill="#2C3140" fill-opacity="0.6"/>
<circle cx="69" cy="220" r="1" fill="#2C3140" fill-opacity="0.6"/>
<circle cx="83" cy="220" r="1" fill="#2C3140" fill-opacity="0.6"/>
<circle cx="97" cy="220" r="1" fill="#2C3140" fill-opacity="0.6"/>
<circle cx="111" cy="220" r="1" fill="#2C3140" fill-opacity="0.6"/>
<circle cx="125" cy="220" r="1" fill="#2C3140" fill-opacity="0.6"/>
<circle cx="139" cy="220" r="1" fill="#2C3140" fill-opacity="0.6"/>
<circle cx="153" cy="220" r="1" fill="#2C3140" fill-opacity="0.6"/>
<circle cx="167" cy="220" r="1" fill="#2C3140" fill-opacity="0.6"/>
<circle cx="181" cy="220" r="1" fill="#2C3140" fill-opacity="0.6"/>
<circle cx="195" cy="220" r="1" fill="#2C3140" fill-opacity="0.6"/>
<circle cx="13" cy="230" r="1" fill="#2C3140" fill-opacity="0.6"/>
<circle cx="27" cy="230" r="1" fill="#2C3140" fill-opacity="0.6"/>
<circle cx="41" cy="230" r="1" fill="#2C3140" fill-opacity="0.6"/>
<circle cx="55" cy="230" r="1" fill="#2C3140" fill-opacity="0.6"/>
<circle cx="69" cy="230" r="1" fill="#2C3140" fill-opacity="0.6"/>
<circle cx="83" cy="230" r="1" fill="#2C3140" fill-opacity="0.6"/>
<circle cx="97" cy="230" r="1" fill="#2C3140" fill-opacity="0.6"/>
<circle cx="111" cy="230" r="1" fill="#2C3140" fill-opacity="0.6"/>
<circle cx="125" cy="230" r="1" fill="#2C3140" fill-opacity="0.6"/>
<circle cx="139" cy="230" r="1" fill="#2C3140" fill-opacity="0.6"/>
<circle cx="153" cy="230" r="1" fill="#2C3140" fill-opacity="0.6"/>
<circle cx="167" cy="230" r="1" fill="#2C3140" fill-opacity="0.6"/>
<circle cx="181" cy="230" r="1" fill="#2C3140" fill-opacity="0.6"/>
<circle cx="195" cy="230" r="1" fill="#2C3140" fill-opacity="0.6"/>
<circle cx="13" cy="240" r="1" fill="#2C3140" fill-opacity="0.6"/>
<circle cx="27" cy="240" r="1" fill="#2C3140" fill-opacity="0.6"/>
<circle cx="41" cy="240" r="1" fill="#2C3140" fill-opacity="0.6"/>
<circle cx="55" cy="240" r="1" fill="#2C3140" fill-opacity="0.6"/>
<circle cx="69" cy="240" r="1" fill="#2C3140" fill-opacity="0.6"/>
<circle cx="83" cy="240" r="1" fill="#2C3140" fill-opacity="0.6"/>
<circle cx="97" cy="240" r="1" fill="#2C3140" fill-opacity="0.6"/>
<circle cx="111" cy="240" r="1" fill="#2C3140" fill-opacity="0.6"/>
<circle cx="125" cy="240" r="1" fill="#2C3140" fill-opacity="0.6"/>
<circle cx="139" cy="240" r="1" fill="#2C3140" fill-opacity="0.6"/>
<circle cx="153" cy="240" r="1" fill="#2C3140" fill-opacity="0.6"/>
<circle cx="167" cy="240" r="1" fill="#2C3140" fill-opacity="0.6"/>
<circle cx="181" cy="240" r="1" fill="#2C3140" fill-opacity="0.6"/>
<circle cx="195" cy="240" r="1" fill="#2C3140" fill-opacity="0.6"/>
<circle cx="13" cy="250" r="1" fill="#2C3140" fill-opacity="0.6"/>
<circle cx="27" cy="250" r="1" fill="#2C3140" fill-opacity="0.6"/>
<circle cx="41" cy="250" r="1" fill="#2C3140" fill-opacity="0.6"/>
<circle cx="55" cy="250" r="1" fill="#2C3140" fill-opacity="0.6"/>
<circle cx="69" cy="250" r="1" fill="#2C3140" fill-opacity="0.6"/>
<circle cx="83" cy="250" r="1" fill="#2C3140" fill-opacity="0.6"/>
<circle cx="97" cy="250" r="1" fill="#2C3140" fill-opacity="0.6"/>
<circle cx="111" cy="250" r="1" fill="#2C3140" fill-opacity="0.6"/>
<circle cx="125" cy="250" r="1" fill="#2C3140" fill-opacity="0.6"/>
<circle cx="139" cy="250" r="1" fill="#2C3140" fill-opacity="0.6"/>
<circle cx="153" cy="250" r="1" fill="#2C3140" fill-opacity="0.6"/>
<circle cx="167" cy="250" r="1" fill="#2C3140" fill-opacity="0.6"/>
<circle cx="181" cy="250" r="1" fill="#2C3140" fill-opacity="0.6"/>
<circle cx="195" cy="250" r="1" fill="#2C3140" fill-opacity="0.6"/>
<circle cx="13" cy="260" r="1" fill="#2C3140" fill-opacity="0.6"/>
<circle cx="27" cy="260" r="1" fill="#2C3140" fill-opacity="0.6"/>
<circle cx="41" cy="260" r="1" fill="#2C3140" fill-opacity="0.6"/>
<circle cx="55" cy="260" r="1" fill="#2C3140" fill-opacity="0.6"/>
<circle cx="69" cy="260" r="1" fill="#2C3140" fill-opacity="0.6"/>
<circle cx="83" cy="260" r="1" fill="#2C3140" fill-opacity="0.6"/>
<circle cx="97" cy="260" r="1" fill="#2C3140" fill-opacity="0.6"/>
<circle cx="111" cy="260" r="1" fill="#2C3140" fill-opacity="0.6"/>
<circle cx="125" cy="260" r="1" fill="#2C3140" fill-opacity="0.6"/>
<circle cx="139" cy="260" r="1" fill="#2C3140" fill-opacity="0.6"/>
<circle cx="153" cy="260" r="1" fill="#2C3140" fill-opacity="0.6"/>
<circle cx="167" cy="260" r="1" fill="#2C3140" fill-opacity="0.6"/>
<circle cx="181" cy="260" r="1" fill="#2C3140" fill-opacity="0.6"/>
<circle cx="195" cy="260" r="1" fill="#2C3140" fill-opacity="0.6"/>
<circle cx="13" cy="270" r="1" fill="#2C3140" fill-opacity="0.6"/>
<circle cx="27" cy="270" r="1" fill="#2C3140" fill-opacity="0.6"/>
<circle cx="41" cy="270" r="1" fill="#2C3140" fill-opacity="0.6"/>
<circle cx="55" cy="270" r="1" fill="#2C3140" fill-opacity="0.6"/>
<circle cx="69" cy="270" r="1" fill="#2C3140" fill-opacity="0.6"/>
<circle cx="83" cy="270" r="1" fill="#2C3140" fill-opacity="0.6"/>
<circle cx="97" cy="270" r="1" fill="#2C3140" fill-opacity="0.6"/>
<circle cx="111" cy="270" r="1" fill="#2C3140" fill-opacity="0.6"/>
<circle cx="125" cy="270" r="1" fill="#2C3140" fill-opacity="0.6"/>
<circle cx="139" cy="270" r="1" fill="#2C3140" fill-opacity="0.6"/>
<circle cx="153" cy="270" r="1" fill="#2C3140" fill-opacity="0.6"/>
<circle cx="167" cy="270" r="1" fill="#2C3140" fill-opacity="0.6"/>
<circle cx="181" cy="270" r="1" fill="#2C3140" fill-opacity="0.6"/>
<circle cx="195" cy="270" r="1" fill="#2C3140" fill-opacity="0.6"/>
<circle cx="13" cy="280" r="1" fill="#2C3140" fill-opacity="0.6"/>
<circle cx="27" cy="280" r="1" fill="#2C3140" fill-opacity="0.6"/>
<circle cx="41" cy="280" r="1" fill="#2C3140" fill-opacity="0.6"/>
<circle cx="55" cy="280" r="1" fill="#2C3140" fill-opacity="0.6"/>
<circle cx="69" cy="280" r="1" fill="#2C3140" fill-opacity="0.6"/>
<circle cx="83" cy="280" r="1" fill="#2C3140" fill-opacity="0.6"/>
<circle cx="97" cy="280" r="1" fill="#2C3140" fill-opacity="0.6"/>
<circle cx="111" cy="280" r="1" fill="#2C3140" fill-opacity="0.6"/>
<circle cx="125" cy="280" r="1" fill="#2C3140" fill-opacity="0.6"/>
<circle cx="139" cy="280" r="1" fill="#2C3140" fill-opacity="0.6"/>
<circle cx="153" cy="280" r="1" fill="#2C3140" fill-opacity="0.6"/>
<circle cx="167" cy="280" r="1" fill="#2C3140" fill-opacity="0.6"/>
<circle cx="181" cy="280" r="1" fill="#2C3140" fill-opacity="0.6"/>
<circle cx="195" cy="280" r="1" fill="#2C3140" fill-opacity="0.6"/>
<circle cx="13" cy="290" r="1" fill="#2C3140" fill-opacity="0.6"/>
<circle cx="27" cy="290" r="1" fill="#2C3140" fill-opacity="0.6"/>
<circle cx="41" cy="290" r="1" fill="#2C3140" fill-opacity="0.6"/>
<circle cx="55" cy="290" r="1" fill="#2C3140" fill-opacity="0.6"/>
<circle cx="69" cy="290" r="1" fill="#2C3140" fill-opacity="0.6"/>
<circle cx="83" cy="290" r="1" fill="#2C3140" fill-opacity="0.6"/>
<circle cx="97" cy="290" r="1" fill="#2C3140" fill-opacity="0.6"/>
<circle cx="111" cy="290" r="1" fill="#2C3140" fill-opacity="0.6"/>
<circle cx="125" cy="290" r="1" fill="#2C3140" fill-opacity="0.6"/>
<circle cx="139" cy="290" r="1" fill="#2C3140" fill-opacity="0.6"/>
<circle cx="153" cy="290" r="1" fill="#2C3140" fill-opacity="0.6"/>
<circle cx="167" cy="290" r="1" fill="#2C3140" fill-opacity="0.6"/>
<circle cx="181" cy="290" r="1" fill="#2C3140" fill-opacity="0.6"/>
<circle cx="195" cy="290" r="1" fill="#2C3140" fill-opacity="0.6"/>
<circle cx="13" cy="300" r="1" fill="#2C3140" fill-opacity="0.6"/>
<circle cx="27" cy="300" r="1" fill="#2C3140" fill-opacity="0.6"/>
<circle cx="41" cy="300" r="1" fill="#2C3140" fill-opacity="0.6"/>
<circle cx="55" cy="300" r="1" fill="#2C3140" fill-opacity="0.6"/>
<circle cx="69" cy="300" r="1" fill="#2C3140" fill-opacity="0.6"/>
<circle cx="83" cy="300" r="1" fill="#2C3140" fill-opacity="0.6"/>
<circle cx="97" cy="300" r="1" fill="#2C3140" fill-opacity="0.6"/>
<circle cx="111" cy="300" r="1" fill="#2C3140" fill-opacity="0.6"/>
<circle cx="125" cy="300" r="1" fill="#2C3140" fill-opacity="0.6"/>
<circle cx="139" cy="300" r="1" fill="#2C3140" fill-opacity="0.6"/>
<circle cx="153" cy="300" r="1" fill="#2C3140" fill-opacity="0.6"/>
<circle cx="167" cy="300" r="1" fill="#2C3140" fill-opacity="0.6"/>
<circle cx="181" cy="300" r="1" fill="#2C3140" fill-opacity="0.6"/>
<circle cx="195" cy="300" r="1" fill="#2C3140" fill-opacity="0.6"/>
<circle cx="13" cy="310" r="1" fill="#2C3140" fill-opacity="0.6"/>
<circle cx="27" cy="310" r="1" fill="#2C3140" fill-opacity="0.6"/>
<circle cx="41" cy="310" r="1" fill="#2C3140" fill-opacity="0.6"/>
<circle cx="55" cy="310" r="1" fill="#2C3140" fill-opacity="0.6"/>
<circle cx="69" cy="310" r="1" fill="#2C3140" fill-opacity="0.6"/>
<circle cx="83" cy="310" r="1" fill="#2C3140" fill-opacity="0.6"/>
<circle cx="97" cy="310" r="1" fill="#2C3140" fill-opacity="0.6"/>
<circle cx="111" cy="310" r="1" fill="#2C3140" fill-opacity="0.6"/>
<circle cx="125" cy="310" r="1" fill="#2C3140" fill-opacity="0.6"/>
<circle cx="139" cy="310" r="1" fill="#2C3140" fill-opacity="0.6"/>
<circle cx="153" cy="310" r="1" fill="#2C3140" fill-opacity="0.6"/>
<circle cx="167" cy="310" r="1" fill="#2C3140" fill-opacity="0.6"/>
<circle cx="181" cy="310" r="1" fill="#2C3140" fill-opacity="0.6"/>
<circle cx="195" cy="310" r="1" fill="#2C3140" fill-opacity="0.6"/>
<circle cx="13" cy="320" r="1" fill="#2C3140" fill-opacity="0.6"/>
<circle cx="27" cy="320" r="1" fill="#2C3140" fill-opacity="0.6"/>
<circle cx="41" cy="320" r="1" fill="#2C3140" fill-opacity="0.6"/>
<circle cx="55" cy="320" r="1" fill="#2C3140" fill-opacity="0.6"/>
<circle cx="69" cy="320" r="1" fill="#2C3140" fill-opacity="0.6"/>
<circle cx="83" cy="320" r="1" fill="#2C3140" fill-opacity="0.6"/>
<circle cx="97" cy="320" r="1" fill="#2C3140" fill-opacity="0.6"/>
<circle cx="111" cy="320" r="1" fill="#2C3140" fill-opacity="0.6"/>
<circle cx="125" cy="320" r="1" fill="#2C3140" fill-opacity="0.6"/>
<circle cx="139" cy="320" r="1" fill="#2C3140" fill-opacity="0.6"/>
<circle cx="153" cy="320" r="1" fill="#2C3140" fill-opacity="0.6"/>
<circle cx="167" cy="320" r="1" fill="#2C3140" fill-opacity="0.6"/>
<circle cx="181" cy="320" r="1" fill="#2C3140" fill-opacity="0.6"/>
<circle cx="195" cy="320" r="1" fill="#2C3140" fill-opacity="0.6"/>
<circle cx="13" cy="330" r="1" fill="#2C3140" fill-opacity="0.6"/>
<circle cx="27" cy="330" r="1" fill="#2C3140" fill-opacity="0.6"/>
<circle cx="41" cy="330" r="1" fill="#2C3140" fill-opacity="0.6"/>
<circle cx="55" cy="330" r="1" fill="#2C3140" fill-opacity="0.6"/>
<circle cx="69" cy="330" r="1" fill="#2C3140" fill-opacity="0.6"/>
<circle cx="83" cy="330" r="1" fill="#2C3140" fill-opacity="0.6"/>
<circle cx="97" cy="330" r="1" fill="#2C3140" fill-opacity="0.6"/>
<circle cx="111" cy="330" r="1" fill="#2C3140" fill-opacity="0.6"/>
<circle cx="125" cy="330" r="1" fill="#2C3140" fill-opacity="0.6"/>
<circle cx="139" cy="330" r="1" fill="#2C3140" fill-opacity="0.6"/>
<circle cx="153" cy="330" r="1" fill="#2C3140" fill-opacity="0.6"/>
<circle cx="167" cy="330" r="1" fill="#2C3140" fill-opacity="0.6"/>
<circle cx="181" cy="330" r="1" fill="#2C3140" fill-opacity="0.6"/>
<circle cx="195" cy="330" r="1" fill="#2C3140" fill-opacity="0.6"/>
<circle cx="13" cy="340" r="1" fill="#2C3140" fill-opacity="0.6"/>
<circle cx="27" cy="340" r="1" fill="#2C3140" fill-opacity="0.6"/>
<circle cx="41" cy="340" r="1" fill="#2C3140" fill-opacity="0.6"/>
<circle cx="55" cy="340" r="1" fill="#2C3140" fill-opacity="0.6"/>
<circle cx="69" cy="340" r="1" fill="#2C3140" fill-opacity="0.6"/>
<circle cx="83" cy="340" r="1" fill="#2C3140" fill-opacity="0.6"/>
<circle cx="97" cy="340" r="1" fill="#2C3140" fill-opacity="0.6"/>
<circle cx="111" cy="340" r="1" fill="#2C3140" fill-opacity="0.6"/>
<circle cx="125" cy="340" r="1" fill="#2C3140" fill-opacity="0.6"/>
<circle cx="139" cy="340" r="1" fill="#2C3140" fill-opacity="0.6"/>
<circle cx="153" cy="340" r="1" fill="#2C3140" fill-opacity="0.6"/>
<circle cx="167" cy="340" r="1" fill="#2C3140" fill-opacity="0.6"/>
<circle cx="181" cy="340" r="1" fill="#2C3140" fill-opacity="0.6"/>
<circle cx="195" cy="340" r="1" fill="#2C3140" fill-opacity="0.6"/>
<circle cx="13" cy="350" r="1" fill="#2C3140" fill-opacity="0.6"/>
<circle cx="27" cy="350" r="1" fill="#2C3140" fill-opacity="0.6"/>
<circle cx="41" cy="350" r="1" fill="#2C3140" fill-opacity="0.6"/>
<circle cx="55" cy="350" r="1" fill="#2C3140" fill-opacity="0.6"/>
<circle cx="69" cy="350" r="1" fill="#2C3140" fill-opacity="0.6"/>
<circle cx="83" cy="350" r="1" fill="#2C3140" fill-opacity="0.6"/>
<circle cx="97" cy="350" r="1" fill="#2C3140" fill-opacity="0.6"/>
<circle cx="111" cy="350" r="1" fill="#2C3140" fill-opacity="0.6"/>
<circle cx="125" cy="350" r="1" fill="#2C3140" fill-opacity="0.6"/>
<circle cx="139" cy="350" r="1" fill="#2C3140" fill-opacity="0.6"/>
<circle cx="153" cy="350" r="1" fill="#2C3140" fill-opacity="0.6"/>
<circle cx="167" cy="350" r="1" fill="#2C3140" fill-opacity="0.6"/>
<circle cx="181" cy="350" r="1" fill="#2C3140" fill-opacity="0.6"/>
<circle cx="195" cy="350" r="1" fill="#2C3140" fill-opacity="0.6"/>
</g>
<path d="M-485 78H-113.35C-106.311 78 -99.7895 81.7007 -96.1798 87.744L-63.3202 142.756C-59.7105 148.799 -53.1894 152.5 -46.1501 152.5H155" stroke="#AD7F58" stroke-opacity="0.1" stroke-width="12"/>
<path d="M-485 78H-113.35C-106.311 78 -99.7895 81.7007 -96.1798 87.744L-63.3202 142.756C-59.7105 148.799 -53.1894 152.5 -46.1501 152.5H155" stroke="#AD7F58" stroke-width="2"/>
<path d="M-485 280.5H-113.35C-106.311 280.5 -99.7895 276.799 -96.1798 270.756L-63.3202 215.744C-59.7105 209.701 -53.1894 206 -46.1501 206H155" stroke="#4E74F8" stroke-opacity="0.1" stroke-width="12"/>
<path d="M-485 280.5H-113.35C-106.311 280.5 -99.7895 276.799 -96.1798 270.756L-63.3202 215.744C-59.7105 209.701 -53.1894 206 -46.1501 206H155" stroke="#4E74F8" stroke-width="2"/>
<path d="M-425 180H231" stroke="#E5484D" stroke-opacity="0.1" stroke-width="12"/>
<path d="M-425 180H231" stroke="#E5484D" stroke-width="2"/>
<rect x="212.5" y="0.5" width="367" height="359" rx="3.5" fill="#0B0C0E"/>
<rect x="212.5" y="0.5" width="367" height="359" rx="3.5" stroke="#242834"/>
<path opacity="0.6" d="M357.192 340.268C357.192 342.068 356.004 343.328 354.276 343.472L354.204 342.392C355.476 342.224 356.184 341.444 356.184 340.244C356.184 339.056 355.716 338.408 354.888 338.408C354.072 338.408 353.628 338.816 353.064 340.796C352.56 342.572 351.984 343.268 350.712 343.268C349.284 343.268 348.288 342.188 348.288 340.436C348.288 338.684 349.44 337.676 351 337.484L351.072 338.564C350.04 338.708 349.296 339.308 349.296 340.46C349.296 341.516 349.848 342.188 350.664 342.188C351.468 342.188 351.744 341.756 352.2 340.148C352.788 338.072 353.496 337.328 354.912 337.328C356.256 337.328 357.192 338.528 357.192 340.268ZM357.192 332.725C357.192 334.741 355.596 335.869 352.752 335.869C349.884 335.869 348.288 334.741 348.288 332.725C348.288 330.709 349.884 329.581 352.752 329.581C355.596 329.581 357.192 330.709 357.192 332.725ZM356.184 332.725C356.184 331.405 354.984 330.661 352.752 330.661C350.52 330.661 349.296 331.405 349.296 332.725C349.296 334.045 350.52 334.789 352.752 334.789C354.984 334.789 356.184 334.045 356.184 332.725ZM357.192 325.025C357.192 327.065 355.476 328.193 352.752 328.193C350.004 328.193 348.288 327.065 348.288 325.025C348.288 323.525 349.32 322.409 351.084 322.049L351.156 323.153C349.932 323.429 349.296 324.137 349.296 325.025C349.296 326.381 350.544 327.113 352.752 327.113C354.948 327.113 356.184 326.381 356.184 325.025C356.184 324.041 355.488 323.309 354.132 323.069L354.192 321.977C356.064 322.289 357.192 323.417 357.192 325.025ZM357 312.699C355.2 312.699 354.012 311.991 352.656 309.435C352.032 308.259 351.648 307.791 350.784 307.791C349.908 307.791 349.296 308.367 349.296 309.495C349.296 310.695 349.944 311.391 351.096 311.571L351.024 312.651C349.356 312.459 348.288 311.343 348.288 309.495C348.288 307.743 349.296 306.711 350.76 306.711C352.056 306.711 352.704 307.287 353.64 309.051C354.456 310.587 355.344 311.379 355.992 311.427V306.699H357V312.699ZM357.192 294.324C357.192 296.364 355.476 297.492 352.752 297.492C350.004 297.492 348.288 296.364 348.288 294.324C348.288 292.824 349.32 291.708 351.084 291.348L351.156 292.452C349.932 292.728 349.296 293.436 349.296 294.324C349.296 295.68 350.544 296.412 352.752 296.412C354.948 296.412 356.184 295.68 356.184 294.324C356.184 293.34 355.488 292.608 354.132 292.368L354.192 291.276C356.064 291.588 357.192 292.716 357.192 294.324ZM357.192 286.673C357.192 288.689 355.596 289.817 352.752 289.817C349.884 289.817 348.288 288.689 348.288 286.673C348.288 284.657 349.884 283.529 352.752 283.529C355.596 283.529 357.192 284.657 357.192 286.673ZM356.184 286.673C356.184 285.353 354.984 284.609 352.752 284.609C350.52 284.609 349.296 285.353 349.296 286.673C349.296 287.993 350.52 288.737 352.752 288.737C354.984 288.737 356.184 287.993 356.184 286.673ZM356.04 279.453L349.86 280.845H357V281.877H348.48V280.317L354.408 278.997L348.48 277.677V276.117H357V277.149H349.86L356.04 278.541V279.453ZM357 273.842H348.48V271.25C348.48 269.474 349.428 268.322 351.06 268.322C352.692 268.322 353.64 269.474 353.64 271.25V272.81H357V273.842ZM352.656 271.37C352.656 270.026 352.092 269.402 351.06 269.402C350.028 269.402 349.464 270.026 349.464 271.37V272.81H352.656V271.37ZM357 266.047H348.48V265.015H356.016V260.767H357V266.047ZM357 258.612H356.016V256.488H349.464V258.612H348.48V253.332H349.464V255.456H356.016V253.332H357V258.612ZM357 251.584L348.48 248.992V247.6L357 245.008V246.064L354.624 246.76V249.832L357 250.528V251.584ZM353.64 249.544V247.048L349.416 248.296L353.64 249.544ZM357 243.381H348.48V241.941L355.632 238.893H348.48V237.861H357V239.301L349.848 242.349H357V243.381ZM357 233.462H349.464V236.066H348.48V229.826H349.464V232.43H357V233.462ZM358.08 216.671C355.032 219.683 350.808 219.683 347.76 216.671V215.807C350.928 218.543 354.912 218.543 358.08 215.807V216.671ZM357 212.56H356.016V210.436H349.464V212.56H348.48V207.28H349.464V209.404H356.016V207.28H357V212.56ZM358.08 204.032C354.912 201.296 350.928 201.296 347.76 204.032V203.168C350.808 200.156 355.032 200.156 358.08 203.168V204.032Z" fill="#C0C1C3"/>
<circle cx="352.5" cy="190.5" r="1" transform="rotate(-90 352.5 190.5)" fill="#C0C1C3"/>
<path opacity="0.6" d="M357.192 179.268C357.192 181.068 356.004 182.328 354.276 182.472L354.204 181.392C355.476 181.224 356.184 180.444 356.184 179.244C356.184 178.056 355.716 177.408 354.888 177.408C354.072 177.408 353.628 177.816 353.064 179.796C352.56 181.572 351.984 182.268 350.712 182.268C349.284 182.268 348.288 181.188 348.288 179.436C348.288 177.684 349.44 176.676 351 176.484L351.072 177.564C350.04 177.708 349.296 178.308 349.296 179.46C349.296 180.516 349.848 181.188 350.664 181.188C351.468 181.188 351.744 180.756 352.2 179.148C352.788 177.072 353.496 176.328 354.912 176.328C356.256 176.328 357.192 177.528 357.192 179.268ZM357.192 171.593C357.192 173.393 356.004 174.653 354.276 174.797L354.204 173.717C355.476 173.549 356.184 172.769 356.184 171.569C356.184 170.381 355.716 169.733 354.888 169.733C354.072 169.733 353.628 170.141 353.064 172.121C352.56 173.897 351.984 174.593 350.712 174.593C349.284 174.593 348.288 173.513 348.288 171.761C348.288 170.009 349.44 169.001 351 168.809L351.072 169.889C350.04 170.033 349.296 170.633 349.296 171.785C349.296 172.841 349.848 173.513 350.664 173.513C351.468 173.513 351.744 173.081 352.2 171.473C352.788 169.397 353.496 168.653 354.912 168.653C356.256 168.653 357.192 169.853 357.192 171.593ZM357.192 164.049C357.192 166.065 355.596 167.193 352.752 167.193C349.884 167.193 348.288 166.065 348.288 164.049C348.288 162.033 349.884 160.905 352.752 160.905C355.596 160.905 357.192 162.033 357.192 164.049ZM356.184 164.049C356.184 162.729 354.984 161.985 352.752 161.985C350.52 161.985 349.296 162.729 349.296 164.049C349.296 165.369 350.52 166.113 352.752 166.113C354.984 166.113 356.184 165.369 356.184 164.049ZM357.144 148.927C357.144 150.715 356.304 151.939 354.744 151.939C353.472 151.939 353.04 151.279 352.284 150.271C351.552 150.823 350.868 151.075 350.256 151.075C349.008 151.075 348.192 150.043 348.288 148.975C348.396 147.811 349.488 146.863 350.712 147.271C351.348 147.475 351.984 148.015 352.5 148.843L355.008 146.875C354.612 146.587 353.844 146.479 353.184 146.527L353.28 145.471C354.24 145.471 355.2 145.783 355.764 146.239L357 145.219V146.443L356.46 146.875C356.904 147.355 357.144 148.099 357.144 148.927ZM356.208 148.927C356.208 148.339 356.016 147.823 355.704 147.571L353.076 149.647C353.436 150.187 353.952 150.895 354.744 150.895C355.644 150.895 356.208 150.127 356.208 148.927ZM351.732 149.443C351.372 148.663 350.82 148.183 350.292 148.183C349.74 148.183 349.332 148.507 349.296 149.035C349.26 149.611 349.728 150.055 350.292 150.043C350.676 150.043 351.144 149.863 351.732 149.443ZM357.192 133.216C357.192 135.016 356.004 136.276 354.276 136.42L354.204 135.34C355.476 135.172 356.184 134.392 356.184 133.192C356.184 132.004 355.716 131.356 354.888 131.356C354.072 131.356 353.628 131.764 353.064 133.744C352.56 135.52 351.984 136.216 350.712 136.216C349.284 136.216 348.288 135.136 348.288 133.384C348.288 131.632 349.44 130.624 351 130.432L351.072 131.512C350.04 131.656 349.296 132.256 349.296 133.408C349.296 134.464 349.848 135.136 350.664 135.136C351.468 135.136 351.744 134.704 352.2 133.096C352.788 131.02 353.496 130.276 354.912 130.276C356.256 130.276 357.192 131.476 357.192 133.216ZM357 128.961L348.48 126.369V124.977L357 122.385V123.441L354.624 124.137V127.209L357 127.905V128.961ZM353.64 126.921V124.425L349.416 125.673L353.64 126.921ZM356.04 118.453L349.86 119.845H357V120.877H348.48V119.317L354.408 117.997L348.48 116.677V115.117H357V116.149H349.86L356.04 117.541V118.453ZM357 112.722H348.48V111.69H356.016V107.442H357V112.722Z" fill="#C0C1C3"/>
<g clip-path="url(#clip1_7619_40012)">
<path d="M531 360V0H576C578.209 0 580 1.79086 580 4V356C580 358.209 578.209 360 576 360H531Z" fill="#121317"/>
<line x1="580.559" y1="410.015" x2="529.647" y2="359.103" stroke="#242834"/>
<line x1="580.559" y1="403.103" x2="529.647" y2="352.191" stroke="#242834"/>
<line x1="580.559" y1="396.191" x2="529.647" y2="345.28" stroke="#242834"/>
<line x1="580.559" y1="389.28" x2="529.647" y2="338.368" stroke="#242834"/>
<line x1="580.559" y1="382.368" x2="529.647" y2="331.456" stroke="#242834"/>
<line x1="580.559" y1="375.456" x2="529.647" y2="324.545" stroke="#242834"/>
<line x1="580.559" y1="368.544" x2="529.647" y2="317.633" stroke="#242834"/>
<line x1="580.559" y1="361.633" x2="529.647" y2="310.721" stroke="#242834"/>
<line x1="580.559" y1="354.721" x2="529.647" y2="303.81" stroke="#242834"/>
<line x1="580.559" y1="347.81" x2="529.647" y2="296.898" stroke="#242834"/>
<line x1="580.559" y1="340.898" x2="529.647" y2="289.986" stroke="#242834"/>
<line x1="580.559" y1="333.986" x2="529.647" y2="283.074" stroke="#242834"/>
<line x1="580.559" y1="327.075" x2="529.647" y2="276.163" stroke="#242834"/>
<line x1="580.559" y1="320.163" x2="529.647" y2="269.251" stroke="#242834"/>
<line x1="580.559" y1="313.251" x2="529.647" y2="262.339" stroke="#242834"/>
<line x1="580.559" y1="306.339" x2="529.647" y2="255.428" stroke="#242834"/>
<line x1="580.559" y1="299.428" x2="529.647" y2="248.516" stroke="#242834"/>
<line x1="580.559" y1="292.516" x2="529.647" y2="241.604" stroke="#242834"/>
<line x1="580.559" y1="285.604" x2="529.647" y2="234.693" stroke="#242834"/>
<line x1="580.559" y1="278.693" x2="529.647" y2="227.781" stroke="#242834"/>
<line x1="580.559" y1="271.781" x2="529.647" y2="220.869" stroke="#242834"/>
<line x1="580.559" y1="264.869" x2="529.647" y2="213.958" stroke="#242834"/>
<line x1="580.559" y1="257.958" x2="529.647" y2="207.046" stroke="#242834"/>
<line x1="580.559" y1="251.046" x2="529.647" y2="200.134" stroke="#242834"/>
<line x1="580.559" y1="244.134" x2="529.647" y2="193.223" stroke="#242834"/>
<line x1="580.559" y1="237.223" x2="529.647" y2="186.311" stroke="#242834"/>
<line x1="580.559" y1="230.311" x2="529.647" y2="179.399" stroke="#242834"/>
<line x1="580.559" y1="223.399" x2="529.647" y2="172.488" stroke="#242834"/>
<line x1="580.559" y1="216.488" x2="529.647" y2="165.576" stroke="#242834"/>
<line x1="580.559" y1="209.576" x2="529.647" y2="158.664" stroke="#242834"/>
<line x1="580.559" y1="202.664" x2="529.647" y2="151.752" stroke="#242834"/>
<line x1="580.559" y1="195.752" x2="529.647" y2="144.841" stroke="#242834"/>
<line x1="580.559" y1="188.841" x2="529.647" y2="137.929" stroke="#242834"/>
<line x1="580.559" y1="181.929" x2="529.647" y2="131.018" stroke="#242834"/>
<line x1="580.559" y1="175.017" x2="529.647" y2="124.106" stroke="#242834"/>
<line x1="580.559" y1="168.106" x2="529.647" y2="117.194" stroke="#242834"/>
<line x1="580.559" y1="161.194" x2="529.647" y2="110.282" stroke="#242834"/>
<line x1="580.559" y1="154.283" x2="529.647" y2="103.371" stroke="#242834"/>
<line x1="580.559" y1="147.371" x2="529.647" y2="96.459" stroke="#242834"/>
<line x1="580.559" y1="140.459" x2="529.647" y2="89.5473" stroke="#242834"/>
<line x1="580.559" y1="133.547" x2="529.647" y2="82.6357" stroke="#242834"/>
<line x1="580.559" y1="126.636" x2="529.647" y2="75.7241" stroke="#242834"/>
<line x1="580.559" y1="119.724" x2="529.647" y2="68.8122" stroke="#242834"/>
<line x1="580.559" y1="112.812" x2="529.647" y2="61.9006" stroke="#242834"/>
<line x1="580.559" y1="105.901" x2="529.647" y2="54.989" stroke="#242834"/>
<line x1="580.559" y1="98.9888" x2="529.647" y2="48.0771" stroke="#242834"/>
<line x1="580.559" y1="92.0772" x2="529.647" y2="41.1655" stroke="#242834"/>
<line x1="580.559" y1="85.1656" x2="529.647" y2="34.2539" stroke="#242834"/>
<line x1="580.559" y1="78.2539" x2="529.647" y2="27.3423" stroke="#242834"/>
<line x1="580.559" y1="71.3423" x2="529.647" y2="20.4306" stroke="#242834"/>
<line x1="580.559" y1="64.4305" x2="529.647" y2="13.5188" stroke="#242834"/>
<line x1="580.559" y1="57.5188" x2="529.647" y2="6.60715" stroke="#242834"/>
<line x1="580.559" y1="50.6072" x2="529.647" y2="-0.304472" stroke="#242834"/>
<line x1="580.559" y1="43.6954" x2="529.647" y2="-7.21634" stroke="#242834"/>
<line x1="580.559" y1="36.7837" x2="529.647" y2="-14.128" stroke="#242834"/>
<line x1="580.559" y1="29.8721" x2="529.647" y2="-21.0396" stroke="#242834"/>
<line x1="580.559" y1="22.9605" x2="529.647" y2="-27.9512" stroke="#242834"/>
<line x1="580.559" y1="16.0489" x2="529.647" y2="-34.8628" stroke="#242834"/>
<line x1="580.559" y1="9.137" x2="529.647" y2="-41.7747" stroke="#242834"/>
<line x1="580.559" y1="2.22538" x2="529.647" y2="-48.6863" stroke="#242834"/>
</g>
<path d="M531.5 359.5V0.5H576C577.933 0.5 579.5 2.06702 579.5 4V356C579.5 357.933 577.933 359.5 576 359.5H531.5Z" stroke="#242834"/>
<rect x="347" y="13" width="12" height="12" rx="1" fill="#23262E"/>
<rect x="372.5" y="0.5" width="159" height="359" fill="#121317"/>
<rect x="372.5" y="0.5" width="159" height="359" stroke="#242834"/>
<path opacity="0.6" d="M383.08 24V15.48H385.096C387.304 15.48 388.744 17.016 388.744 19.752C388.744 22.488 387.304 24 385.096 24H383.08ZM385.036 23.016C386.692 23.016 387.664 21.912 387.664 19.752C387.664 17.592 386.692 16.464 385.036 16.464H384.112V23.016H385.036ZM389.987 24L392.579 15.48H393.971L396.563 24H395.507L394.811 21.624H391.739L391.043 24H389.987ZM392.027 20.64H394.523L393.275 16.416L392.027 20.64ZM401.083 24.192C399.283 24.192 398.023 23.004 397.879 21.276L398.959 21.204C399.127 22.476 399.907 23.184 401.107 23.184C402.295 23.184 402.943 22.716 402.943 21.888C402.943 21.072 402.535 20.628 400.555 20.064C398.779 19.56 398.083 18.984 398.083 17.712C398.083 16.284 399.163 15.288 400.915 15.288C402.667 15.288 403.675 16.44 403.867 18L402.787 18.072C402.643 17.04 402.043 16.296 400.891 16.296C399.835 16.296 399.163 16.848 399.163 17.664C399.163 18.468 399.595 18.744 401.203 19.2C403.279 19.788 404.023 20.496 404.023 21.912C404.023 23.256 402.823 24.192 401.083 24.192ZM405.842 24V15.48H406.874V19.224H410.378V15.48H411.41V24H410.378V20.208H406.874V24H405.842ZM413.781 24V15.48H416.181C418.053 15.48 419.013 16.368 419.013 17.808C419.013 18.732 418.401 19.44 417.489 19.608C418.665 19.764 419.373 20.52 419.373 21.624C419.373 23.1 418.281 24 416.481 24H413.781ZM416.493 23.016C417.669 23.016 418.293 22.488 418.293 21.624C418.293 20.712 417.669 20.16 416.493 20.16H414.813V23.016H416.493ZM416.229 19.176C417.405 19.176 417.933 18.684 417.933 17.832C417.933 16.968 417.405 16.464 416.229 16.464H414.813V19.176H416.229ZM423.977 24.192C421.961 24.192 420.833 22.596 420.833 19.752C420.833 16.884 421.961 15.288 423.977 15.288C425.993 15.288 427.121 16.884 427.121 19.752C427.121 22.596 425.993 24.192 423.977 24.192ZM423.977 23.184C425.297 23.184 426.041 21.984 426.041 19.752C426.041 17.52 425.297 16.296 423.977 16.296C422.657 16.296 421.913 17.52 421.913 19.752C421.913 21.984 422.657 23.184 423.977 23.184ZM428.364 24L430.956 15.48H432.348L434.94 24H433.884L433.188 21.624H430.116L429.42 24H428.364ZM430.404 20.64H432.9L431.652 16.416L430.404 20.64ZM436.567 24V15.48H439.159C440.947 15.48 442.063 16.44 442.063 18.024C442.063 19.02 441.415 19.764 440.683 20.04C441.487 20.196 441.835 20.652 441.919 21.552L442.135 24H441.091L440.887 21.684C440.815 20.892 440.383 20.544 439.375 20.544H437.599V24H436.567ZM439.159 19.56C440.323 19.56 440.983 19.008 440.983 18.024C440.983 17.04 440.323 16.464 439.159 16.464H437.599V19.56H439.159ZM444.483 24V15.48H446.499C448.707 15.48 450.147 17.016 450.147 19.752C450.147 22.488 448.707 24 446.499 24H444.483ZM446.439 23.016C448.095 23.016 449.067 21.912 449.067 19.752C449.067 17.592 448.095 16.464 446.439 16.464H445.515V23.016H446.439ZM454.81 24.192C453.01 24.192 451.75 23.004 451.606 21.276L452.686 21.204C452.854 22.476 453.634 23.184 454.834 23.184C456.022 23.184 456.67 22.716 456.67 21.888C456.67 21.072 456.262 20.628 454.282 20.064C452.506 19.56 451.81 18.984 451.81 17.712C451.81 16.284 452.89 15.288 454.642 15.288C456.394 15.288 457.402 16.44 457.594 18L456.514 18.072C456.37 17.04 455.77 16.296 454.618 16.296C453.562 16.296 452.89 16.848 452.89 17.664C452.89 18.468 453.322 18.744 454.93 19.2C457.006 19.788 457.75 20.496 457.75 21.912C457.75 23.256 456.55 24.192 454.81 24.192Z" fill="#C0C1C3"/>
<path opacity="0.6" d="M382.312 52L384.904 43.48H386.296L388.888 52H387.832L387.136 49.624H384.064L383.368 52H382.312ZM384.352 48.64H386.848L385.6 44.416L384.352 48.64ZM390.875 52V43.48H391.907V51.016H396.155V52H390.875ZM398.431 52V43.48H403.615V44.464H399.463V47.224H403.471V48.208H399.463V51.016H403.711V52H398.431ZM405.866 52V43.48H408.458C410.246 43.48 411.362 44.44 411.362 46.024C411.362 47.02 410.714 47.764 409.982 48.04C410.786 48.196 411.134 48.652 411.218 49.552L411.434 52H410.39L410.186 49.684C410.114 48.892 409.682 48.544 408.674 48.544H406.898V52H405.866ZM408.458 47.56C409.622 47.56 410.282 47.008 410.282 46.024C410.282 45.04 409.622 44.464 408.458 44.464H406.898V47.56H408.458ZM415.785 52V44.464H413.181V43.48H419.421V44.464H416.817V52H415.785ZM424.109 52.192C422.309 52.192 421.049 51.004 420.905 49.276L421.985 49.204C422.153 50.476 422.933 51.184 424.133 51.184C425.321 51.184 425.969 50.716 425.969 49.888C425.969 49.072 425.561 48.628 423.581 48.064C421.805 47.56 421.109 46.984 421.109 45.712C421.109 44.284 422.189 43.288 423.941 43.288C425.693 43.288 426.701 44.44 426.893 46L425.813 46.072C425.669 45.04 425.069 44.296 423.917 44.296C422.861 44.296 422.189 44.848 422.189 45.664C422.189 46.468 422.621 46.744 424.229 47.2C426.305 47.788 427.049 48.496 427.049 49.912C427.049 51.256 425.849 52.192 424.109 52.192Z" fill="#C0C1C3"/>
<path opacity="0.6" d="M383.08 80V71.48H388.264V72.464H384.112V75.224H388.12V76.208H384.112V79.016H388.36V80H383.08ZM390.275 80L392.627 75.716L390.323 71.48H391.523L393.287 74.924L395.051 71.48H396.227L393.923 75.728L396.275 80H395.075L393.263 76.508L391.451 80H390.275ZM400.975 80.192C398.935 80.192 397.807 78.476 397.807 75.752C397.807 73.004 398.935 71.288 400.975 71.288C402.475 71.288 403.591 72.32 403.951 74.084L402.847 74.156C402.571 72.932 401.863 72.296 400.975 72.296C399.619 72.296 398.887 73.544 398.887 75.752C398.887 77.948 399.619 79.184 400.975 79.184C401.959 79.184 402.691 78.488 402.931 77.132L404.023 77.192C403.711 79.064 402.583 80.192 400.975 80.192ZM406.106 80V71.48H411.29V72.464H407.138V75.224H411.146V76.208H407.138V79.016H411.386V80H406.106ZM413.781 80V71.48H416.373C418.149 71.48 419.301 72.428 419.301 74.06C419.301 75.692 418.149 76.64 416.373 76.64H414.813V80H413.781ZM416.253 75.656C417.597 75.656 418.221 75.092 418.221 74.06C418.221 73.028 417.597 72.464 416.253 72.464H414.813V75.656H416.253ZM423.461 80V72.464H420.857V71.48H427.097V72.464H424.493V80H423.461ZM429.012 80V79.016H431.136V72.464H429.012V71.48H434.292V72.464H432.168V79.016H434.292V80H429.012ZM439.327 80.192C437.311 80.192 436.183 78.596 436.183 75.752C436.183 72.884 437.311 71.288 439.327 71.288C441.343 71.288 442.471 72.884 442.471 75.752C442.471 78.596 441.343 80.192 439.327 80.192ZM439.327 79.184C440.647 79.184 441.391 77.984 441.391 75.752C441.391 73.52 440.647 72.296 439.327 72.296C438.007 72.296 437.263 73.52 437.263 75.752C437.263 77.984 438.007 79.184 439.327 79.184ZM444.243 80V71.48H445.683L448.731 78.632V71.48H449.763V80H448.323L445.275 72.848V80H444.243ZM454.81 80.192C453.01 80.192 451.75 79.004 451.606 77.276L452.686 77.204C452.854 78.476 453.634 79.184 454.834 79.184C456.022 79.184 456.67 78.716 456.67 77.888C456.67 77.072 456.262 76.628 454.282 76.064C452.506 75.56 451.81 74.984 451.81 73.712C451.81 72.284 452.89 71.288 454.642 71.288C456.394 71.288 457.402 72.44 457.594 74L456.514 74.072C456.37 73.04 455.77 72.296 454.618 72.296C453.562 72.296 452.89 72.848 452.89 73.664C452.89 74.468 453.322 74.744 454.93 75.2C457.006 75.788 457.75 76.496 457.75 77.912C457.75 79.256 456.55 80.192 454.81 80.192Z" fill="#C0C1C3"/>
<rect x="372.5" y="180.5" width="159" height="179" fill="#0B0C0E"/>
<rect x="372.5" y="180.5" width="159" height="179" stroke="#242834"/>
<path opacity="0.6" d="M383.2 288V279.48H384.232V287.016H388.48V288H383.2ZM393.275 288.192C391.259 288.192 390.131 286.596 390.131 283.752C390.131 280.884 391.259 279.288 393.275 279.288C395.291 279.288 396.419 280.884 396.419 283.752C396.419 286.596 395.291 288.192 393.275 288.192ZM393.275 287.184C394.595 287.184 395.339 285.984 395.339 283.752C395.339 281.52 394.595 280.296 393.275 280.296C391.955 280.296 391.211 281.52 391.211 283.752C391.211 285.984 391.955 287.184 393.275 287.184ZM400.927 288.192C399.127 288.192 397.807 286.68 397.807 283.752C397.807 281.004 398.983 279.288 400.975 279.288C402.535 279.288 403.591 280.416 403.963 282.024L402.883 282.096C402.607 281.04 401.983 280.296 400.975 280.296C399.643 280.296 398.887 281.544 398.887 283.752C398.887 285.948 399.667 287.184 401.023 287.184C402.199 287.184 402.991 286.104 403.039 284.688H400.999V283.704H403.999V288H403.039L403.015 286.908C402.607 287.688 401.959 288.192 400.927 288.192ZM408.758 288.192C406.958 288.192 405.698 287.004 405.554 285.276L406.634 285.204C406.802 286.476 407.582 287.184 408.782 287.184C409.97 287.184 410.618 286.716 410.618 285.888C410.618 285.072 410.21 284.628 408.23 284.064C406.454 283.56 405.758 282.984 405.758 281.712C405.758 280.284 406.838 279.288 408.59 279.288C410.342 279.288 411.35 280.44 411.542 282L410.462 282.072C410.318 281.04 409.718 280.296 408.566 280.296C407.51 280.296 406.838 280.848 406.838 281.664C406.838 282.468 407.27 282.744 408.878 283.2C410.954 283.788 411.698 284.496 411.698 285.912C411.698 287.256 410.498 288.192 408.758 288.192Z" fill="#C0C1C3"/>
<path opacity="0.6" d="M385.144 315.04L383.752 308.86V316H382.72V307.48H384.28L385.6 313.408L386.92 307.48H388.48V316H387.448V308.86L386.056 315.04H385.144ZM390.755 316V307.48H395.939V308.464H391.787V311.224H395.795V312.208H391.787V315.016H396.035V316H390.755ZM400.435 316V308.464H397.831V307.48H404.071V308.464H401.467V316H400.435ZM405.866 316V307.48H408.458C410.246 307.48 411.362 308.44 411.362 310.024C411.362 311.02 410.714 311.764 409.982 312.04C410.786 312.196 411.134 312.652 411.218 313.552L411.434 316H410.39L410.186 313.684C410.114 312.892 409.682 312.544 408.674 312.544H406.898V316H405.866ZM408.458 311.56C409.622 311.56 410.282 311.008 410.282 310.024C410.282 309.04 409.622 308.464 408.458 308.464H406.898V311.56H408.458ZM413.661 316V315.016H415.785V308.464H413.661V307.48H418.941V308.464H416.817V315.016H418.941V316H413.661ZM424.001 316.192C421.961 316.192 420.833 314.476 420.833 311.752C420.833 309.004 421.961 307.288 424.001 307.288C425.501 307.288 426.617 308.32 426.977 310.084L425.873 310.156C425.597 308.932 424.889 308.296 424.001 308.296C422.645 308.296 421.913 309.544 421.913 311.752C421.913 313.948 422.645 315.184 424.001 315.184C424.985 315.184 425.717 314.488 425.957 313.132L427.049 313.192C426.737 315.064 425.609 316.192 424.001 316.192ZM431.784 316.192C429.984 316.192 428.724 315.004 428.58 313.276L429.66 313.204C429.828 314.476 430.608 315.184 431.808 315.184C432.996 315.184 433.644 314.716 433.644 313.888C433.644 313.072 433.236 312.628 431.256 312.064C429.48 311.56 428.784 310.984 428.784 309.712C428.784 308.284 429.864 307.288 431.616 307.288C433.368 307.288 434.376 308.44 434.568 310L433.488 310.072C433.344 309.04 432.744 308.296 431.592 308.296C430.536 308.296 429.864 308.848 429.864 309.664C429.864 310.468 430.296 310.744 431.904 311.2C433.98 311.788 434.724 312.496 434.724 313.912C434.724 315.256 433.524 316.192 431.784 316.192Z" fill="#C0C1C3"/>
<path opacity="0.6" d="M385.084 344V336.464H382.48V335.48H388.72V336.464H386.116V344H385.084ZM390.515 344V335.48H393.107C394.895 335.48 396.011 336.44 396.011 338.024C396.011 339.02 395.363 339.764 394.631 340.04C395.435 340.196 395.783 340.652 395.867 341.552L396.083 344H395.039L394.835 341.684C394.763 340.892 394.331 340.544 393.323 340.544H391.547V344H390.515ZM393.107 339.56C394.271 339.56 394.931 339.008 394.931 338.024C394.931 337.04 394.271 336.464 393.107 336.464H391.547V339.56H393.107ZM397.663 344L400.255 335.48H401.647L404.239 344H403.183L402.487 341.624H399.415L398.719 344H397.663ZM399.703 340.64H402.199L400.951 336.416L399.703 340.64ZM408.65 344.192C406.61 344.192 405.482 342.476 405.482 339.752C405.482 337.004 406.61 335.288 408.65 335.288C410.15 335.288 411.266 336.32 411.626 338.084L410.522 338.156C410.246 336.932 409.538 336.296 408.65 336.296C407.294 336.296 406.562 337.544 406.562 339.752C406.562 341.948 407.294 343.184 408.65 343.184C409.634 343.184 410.366 342.488 410.606 341.132L411.698 341.192C411.386 343.064 410.258 344.192 408.65 344.192ZM413.781 344V335.48H418.965V336.464H414.813V339.224H418.821V340.208H414.813V343.016H419.061V344H413.781ZM424.109 344.192C422.309 344.192 421.049 343.004 420.905 341.276L421.985 341.204C422.153 342.476 422.933 343.184 424.133 343.184C425.321 343.184 425.969 342.716 425.969 341.888C425.969 341.072 425.561 340.628 423.581 340.064C421.805 339.56 421.109 338.984 421.109 337.712C421.109 336.284 422.189 335.288 423.941 335.288C425.693 335.288 426.701 336.44 426.893 338L425.813 338.072C425.669 337.04 425.069 336.296 423.917 336.296C422.861 336.296 422.189 336.848 422.189 337.664C422.189 338.468 422.621 338.744 424.229 339.2C426.305 339.788 427.049 340.496 427.049 341.912C427.049 343.256 425.849 344.192 424.109 344.192Z" fill="#C0C1C3"/>
<path d="M388 190L393.196 199H382.804L388 190Z" fill="#E5484D"/>
<mask id="mask0_7619_40012" style="mask-type:alpha" maskUnits="userSpaceOnUse" x="55" y="-1" width="277" height="349">
<rect x="55" y="-1" width="277" height="349" fill="#808080"/>
</mask>
<g mask="url(#mask0_7619_40012)">
<circle cx="140" cy="251" r="0.5" fill="#F24769"/>
<circle cx="331" cy="88" r="0.5" fill="#F24769"/>
<circle cx="107" cy="283" r="0.5" fill="#F24769"/>
<circle cx="292" cy="277" r="0.5" fill="#F24769"/>
<circle cx="145" cy="25" r="0.5" fill="#F24769"/>
<circle cx="274" cy="134" r="0.5" fill="#F24769"/>
<circle cx="183" cy="330" r="0.5" fill="#F24769"/>
<circle cx="181" cy="163" r="0.5" fill="#F24769"/>
<circle cx="142" cy="17" r="0.5" fill="#F24769"/>
<circle cx="298" cy="225" r="0.5" fill="#F24769"/>
<circle cx="321" cy="74" r="0.5" fill="#F24769"/>
<circle cx="112" cy="323" r="0.5" fill="#F24769"/>
<circle cx="124" cy="83" r="0.5" fill="#F24769"/>
<circle cx="145" cy="9" r="0.5" fill="#F24769"/>
<circle cx="161" cy="142" r="0.5" fill="#F24769"/>
<circle cx="204" cy="330" r="0.5" fill="#F24769"/>
<circle cx="190" cy="108" r="0.5" fill="#F24769"/>
<circle cx="95" cy="176" r="0.5" fill="#F24769"/>
<circle cx="274" cy="189" r="0.5" fill="#F24769"/>
<circle cx="74" cy="283" r="0.5" fill="#F24769"/>
<circle cx="251" cy="200" r="0.5" fill="#F24769"/>
<circle cx="299" cy="326" r="0.5" fill="#F24769"/>
<circle cx="260" cy="251" r="0.5" fill="#F24769"/>
<circle cx="320" cy="268" r="0.5" fill="#F24769"/>
<circle cx="177" cy="91" r="0.5" fill="#F24769"/>
<circle cx="319" cy="264" r="0.5" fill="#F24769"/>
<circle cx="231" cy="83" r="0.5" fill="#F24769"/>
<circle cx="252" cy="303" r="0.5" fill="#F24769"/>
<circle cx="100" cy="204" r="0.5" fill="#F24769"/>
<circle cx="243" cy="170" r="0.5" fill="#F24769"/>
<circle cx="111" cy="222" r="0.5" fill="#F24769"/>
<circle cx="325" cy="59" r="0.5" fill="#F24769"/>
<circle cx="67" cy="137" r="0.5" fill="#F24769"/>
<circle cx="298" cy="14" r="0.5" fill="#F24769"/>
<circle cx="100" cy="58" r="0.5" fill="#F24769"/>
<circle cx="211" cy="44" r="0.5" fill="#F24769"/>
<circle cx="224" cy="314" r="0.5" fill="#F24769"/>
<circle cx="174" cy="335" r="0.5" fill="#F24769"/>
<circle cx="103" cy="40" r="0.5" fill="#F24769"/>
<circle cx="111" cy="276" r="0.5" fill="#F24769"/>
<circle cx="155" cy="194" r="0.5" fill="#F24769"/>
<circle cx="169" cy="115" r="0.5" fill="#F24769"/>
<circle cx="206" cy="111" r="0.5" fill="#F24769"/>
<circle cx="132" cy="114" r="0.5" fill="#F24769"/>
<circle cx="185" cy="182" r="0.5" fill="#F24769"/>
<circle cx="104" cy="207" r="0.5" fill="#F24769"/>
<circle cx="326" cy="158" r="0.5" fill="#F24769"/>
<circle cx="328" cy="250" r="0.5" fill="#F24769"/>
<circle cx="298" cy="197" r="0.5" fill="#F24769"/>
<circle cx="71" cy="155" r="0.5" fill="#F24769"/>
<circle cx="65" cy="179" r="0.5" fill="#F24769"/>
<circle cx="263" cy="152" r="0.5" fill="#F24769"/>
<circle cx="264" cy="157" r="0.5" fill="#F24769"/>
<circle cx="203" cy="97" r="0.5" fill="#F24769"/>
<circle cx="216" cy="157" r="0.5" fill="#F24769"/>
<circle cx="258" cy="331" r="0.5" fill="#F24769"/>
<circle cx="320" cy="198" r="0.5" fill="#F24769"/>
<circle cx="227" cy="91" r="0.5" fill="#F24769"/>
<circle cx="232" cy="309" r="0.5" fill="#F24769"/>
<circle cx="169" cy="335" r="0.5" fill="#F24769"/>
</g>
<mask id="mask1_7619_40012" style="mask-type:alpha" maskUnits="userSpaceOnUse" x="27" y="35" width="349" height="277">
<rect x="27" y="312" width="277" height="349" transform="rotate(-90 27 312)" fill="#808080"/>
</mask>
<g mask="url(#mask1_7619_40012)">
<circle cx="279" cy="227" r="0.5" transform="rotate(-90 279 227)" fill="#F24769"/>
<circle cx="116" cy="36" r="0.5" transform="rotate(-90 116 36)" fill="#F24769"/>
<circle cx="311" cy="260" r="0.5" transform="rotate(-90 311 260)" fill="#F24769"/>
<circle cx="305" cy="75" r="0.5" transform="rotate(-90 305 75)" fill="#F24769"/>
<circle cx="53" cy="222" r="0.5" transform="rotate(-90 53 222)" fill="#F24769"/>
<circle cx="162" cy="93" r="0.5" transform="rotate(-90 162 93)" fill="#F24769"/>
<circle cx="358" cy="184" r="0.5" transform="rotate(-90 358 184)" fill="#F24769"/>
<circle cx="191" cy="186" r="0.5" transform="rotate(-90 191 186)" fill="#F24769"/>
<circle cx="45" cy="225" r="0.5" transform="rotate(-90 45 225)" fill="#F24769"/>
<circle cx="253" cy="69" r="0.5" transform="rotate(-90 253 69)" fill="#F24769"/>
<circle cx="102" cy="46" r="0.5" transform="rotate(-90 102 46)" fill="#F24769"/>
<circle cx="351" cy="255" r="0.5" transform="rotate(-90 351 255)" fill="#F24769"/>
<circle cx="111" cy="243" r="0.5" transform="rotate(-90 111 243)" fill="#F24769"/>
<circle cx="37" cy="222" r="0.5" transform="rotate(-90 37 222)" fill="#F24769"/>
<circle cx="170" cy="206" r="0.5" transform="rotate(-90 170 206)" fill="#F24769"/>
<circle cx="358" cy="163" r="0.5" transform="rotate(-90 358 163)" fill="#F24769"/>
<circle cx="136" cy="177" r="0.5" transform="rotate(-90 136 177)" fill="#F24769"/>
<circle cx="204" cy="272" r="0.5" transform="rotate(-90 204 272)" fill="#F24769"/>
<circle cx="217" cy="93" r="0.5" transform="rotate(-90 217 93)" fill="#F24769"/>
<circle cx="311" cy="293" r="0.5" transform="rotate(-90 311 293)" fill="#F24769"/>
<circle cx="228" cy="116" r="0.5" transform="rotate(-90 228 116)" fill="#F24769"/>
<circle cx="354" cy="68" r="0.5" transform="rotate(-90 354 68)" fill="#F24769"/>
<circle cx="279" cy="107" r="0.5" transform="rotate(-90 279 107)" fill="#F24769"/>
<circle cx="296" cy="47" r="0.5" transform="rotate(-90 296 47)" fill="#F24769"/>
<circle cx="119" cy="190" r="0.5" transform="rotate(-90 119 190)" fill="#F24769"/>
<circle cx="292" cy="48" r="0.5" transform="rotate(-90 292 48)" fill="#F24769"/>
<circle cx="111" cy="136" r="0.5" transform="rotate(-90 111 136)" fill="#F24769"/>
<circle cx="331" cy="115" r="0.5" transform="rotate(-90 331 115)" fill="#F24769"/>
<circle cx="232" cy="267" r="0.5" transform="rotate(-90 232 267)" fill="#F24769"/>
<circle cx="198" cy="124" r="0.5" transform="rotate(-90 198 124)" fill="#F24769"/>
<circle cx="250" cy="256" r="0.5" transform="rotate(-90 250 256)" fill="#F24769"/>
<circle cx="87" cy="42" r="0.5" transform="rotate(-90 87 42)" fill="#F24769"/>
<circle cx="165" cy="300" r="0.5" transform="rotate(-90 165 300)" fill="#F24769"/>
<circle cx="42" cy="69" r="0.5" transform="rotate(-90 42 69)" fill="#F24769"/>
<circle cx="86" cy="267" r="0.5" transform="rotate(-90 86 267)" fill="#F24769"/>
<circle cx="72" cy="156" r="0.5" transform="rotate(-90 72 156)" fill="#F24769"/>
<circle cx="342" cy="143" r="0.5" transform="rotate(-90 342 143)" fill="#F24769"/>
<circle cx="363" cy="193" r="0.5" transform="rotate(-90 363 193)" fill="#F24769"/>
<circle cx="68" cy="264" r="0.5" transform="rotate(-90 68 264)" fill="#F24769"/>
<circle cx="304" cy="256" r="0.5" transform="rotate(-90 304 256)" fill="#F24769"/>
<circle cx="222" cy="212" r="0.5" transform="rotate(-90 222 212)" fill="#F24769"/>
<circle cx="143" cy="198" r="0.5" transform="rotate(-90 143 198)" fill="#F24769"/>
<circle cx="139" cy="161" r="0.5" transform="rotate(-90 139 161)" fill="#F24769"/>
<circle cx="142" cy="235" r="0.5" transform="rotate(-90 142 235)" fill="#F24769"/>
<circle cx="210" cy="182" r="0.5" transform="rotate(-90 210 182)" fill="#F24769"/>
<circle cx="235" cy="263" r="0.5" transform="rotate(-90 235 263)" fill="#F24769"/>
<circle cx="186" cy="41" r="0.5" transform="rotate(-90 186 41)" fill="#F24769"/>
<circle cx="278" cy="39" r="0.5" transform="rotate(-90 278 39)" fill="#F24769"/>
<circle cx="225" cy="69" r="0.5" transform="rotate(-90 225 69)" fill="#F24769"/>
<circle cx="183" cy="296" r="0.5" transform="rotate(-90 183 296)" fill="#F24769"/>
<circle cx="207" cy="302" r="0.5" transform="rotate(-90 207 302)" fill="#F24769"/>
<circle cx="180" cy="104" r="0.5" transform="rotate(-90 180 104)" fill="#F24769"/>
<circle cx="185" cy="103" r="0.5" transform="rotate(-90 185 103)" fill="#F24769"/>
<circle cx="125" cy="164" r="0.5" transform="rotate(-90 125 164)" fill="#F24769"/>
<circle cx="185" cy="151" r="0.5" transform="rotate(-90 185 151)" fill="#F24769"/>
<circle cx="359" cy="109" r="0.5" transform="rotate(-90 359 109)" fill="#F24769"/>
<circle cx="226" cy="47" r="0.5" transform="rotate(-90 226 47)" fill="#F24769"/>
<circle cx="119" cy="140" r="0.5" transform="rotate(-90 119 140)" fill="#F24769"/>
<circle cx="337" cy="135" r="0.5" transform="rotate(-90 337 135)" fill="#F24769"/>
<circle cx="363" cy="198" r="0.5" transform="rotate(-90 363 198)" fill="#F24769"/>
</g>
<g filter="url(#filter0_d_7619_40012)">
<rect x="148" y="91" width="128" height="178" rx="10" fill="#121317"/>
<path d="M156.5 103C156.5 101.067 158.067 99.5 160 99.5H264C265.933 99.5 267.5 101.067 267.5 103V210.5H156.5V103Z" fill="#0B0C0E"/>
<path d="M156.5 103C156.5 101.067 158.067 99.5 160 99.5H264C265.933 99.5 267.5 101.067 267.5 103V210.5H156.5V103Z" stroke="#242834"/>
<path opacity="0.6" d="M169.732 155.192C167.932 155.192 166.672 154.004 166.528 152.276L167.608 152.204C167.776 153.476 168.556 154.184 169.756 154.184C170.944 154.184 171.592 153.716 171.592 152.888C171.592 152.072 171.184 151.628 169.204 151.064C167.428 150.56 166.732 149.984 166.732 148.712C166.732 147.284 167.812 146.288 169.564 146.288C171.316 146.288 172.324 147.44 172.516 149L171.436 149.072C171.292 148.04 170.692 147.296 169.54 147.296C168.484 147.296 167.812 147.848 167.812 148.664C167.812 149.468 168.244 149.744 169.852 150.2C171.928 150.788 172.672 151.496 172.672 152.912C172.672 154.256 171.472 155.192 169.732 155.192ZM174.635 155V154.016H176.759V147.464H174.635V146.48H179.915V147.464H177.791V154.016H179.915V155H174.635ZM184.927 155.192C183.127 155.192 181.807 153.68 181.807 150.752C181.807 148.004 182.983 146.288 184.975 146.288C186.535 146.288 187.591 147.416 187.963 149.024L186.883 149.096C186.607 148.04 185.983 147.296 184.975 147.296C183.643 147.296 182.887 148.544 182.887 150.752C182.887 152.948 183.667 154.184 185.023 154.184C186.199 154.184 186.991 153.104 187.039 151.688H184.999V150.704H187.999V155H187.039L187.015 153.908C186.607 154.688 185.959 155.192 184.927 155.192ZM189.866 155V146.48H191.306L194.354 153.632V146.48H195.386V155H193.946L190.898 147.848V155H189.866ZM200.301 155.192C198.285 155.192 197.157 153.596 197.157 150.752C197.157 147.884 198.285 146.288 200.301 146.288C202.317 146.288 203.445 147.884 203.445 150.752C203.445 153.596 202.317 155.192 200.301 155.192ZM200.301 154.184C201.621 154.184 202.365 152.984 202.365 150.752C202.365 148.52 201.621 147.296 200.301 147.296C198.981 147.296 198.237 148.52 198.237 150.752C198.237 152.984 198.981 154.184 200.301 154.184ZM204.977 155V153.968L209.729 147.464H205.193V146.48H210.881V147.512L206.129 154.016H210.977V155H204.977ZM166.96 175V174.016H169.084V167.464H166.96V166.48H172.24V167.464H170.116V174.016H172.24V175H166.96ZM174.515 175V166.48H175.955L179.003 173.632V166.48H180.035V175H178.595L175.547 167.848V175H174.515ZM184.927 175.192C183.127 175.192 181.807 173.68 181.807 170.752C181.807 168.004 182.983 166.288 184.975 166.288C186.535 166.288 187.591 167.416 187.963 169.024L186.883 169.096C186.607 168.04 185.983 167.296 184.975 167.296C183.643 167.296 182.887 168.544 182.887 170.752C182.887 172.948 183.667 174.184 185.023 174.184C186.199 174.184 186.991 173.104 187.039 171.688H184.999V170.704H187.999V175H187.039L187.015 173.908C186.607 174.688 185.959 175.192 184.927 175.192ZM190.106 175V166.48H195.29V167.464H191.138V170.224H195.146V171.208H191.138V174.016H195.386V175H190.106ZM200.433 175.192C198.633 175.192 197.373 174.004 197.229 172.276L198.309 172.204C198.477 173.476 199.257 174.184 200.457 174.184C201.645 174.184 202.293 173.716 202.293 172.888C202.293 172.072 201.885 171.628 199.905 171.064C198.129 170.56 197.433 169.984 197.433 168.712C197.433 167.284 198.513 166.288 200.265 166.288C202.017 166.288 203.025 167.44 203.217 169L202.137 169.072C201.993 168.04 201.393 167.296 200.241 167.296C199.185 167.296 198.513 167.848 198.513 168.664C198.513 169.468 198.945 169.744 200.553 170.2C202.629 170.788 203.373 171.496 203.373 172.912C203.373 174.256 202.173 175.192 200.433 175.192ZM207.461 175V167.464H204.857V166.48H211.097V167.464H208.493V175H207.461ZM213.012 175V174.016H215.136V167.464H213.012V166.48H218.292V167.464H216.168V174.016H218.292V175H213.012ZM223.327 175.192C221.311 175.192 220.183 173.596 220.183 170.752C220.183 167.884 221.311 166.288 223.327 166.288C225.343 166.288 226.471 167.884 226.471 170.752C226.471 173.596 225.343 175.192 223.327 175.192ZM223.327 174.184C224.647 174.184 225.391 172.984 225.391 170.752C225.391 168.52 224.647 167.296 223.327 167.296C222.007 167.296 221.263 168.52 221.263 170.752C221.263 172.984 222.007 174.184 223.327 174.184ZM228.243 175V166.48H229.683L232.731 173.632V166.48H233.763V175H232.323L229.275 167.848V175H228.243ZM167.08 195V186.48H172.264V187.464H168.112V190.224H172.12V191.208H168.112V194.016H172.36V195H167.08ZM174.515 195V186.48H175.955L179.003 193.632V186.48H180.035V195H178.595L175.547 187.848V195H174.515ZM184.927 195.192C183.127 195.192 181.807 193.68 181.807 190.752C181.807 188.004 182.983 186.288 184.975 186.288C186.535 186.288 187.591 187.416 187.963 189.024L186.883 189.096C186.607 188.04 185.983 187.296 184.975 187.296C183.643 187.296 182.887 188.544 182.887 190.752C182.887 192.948 183.667 194.184 185.023 194.184C186.199 194.184 186.991 193.104 187.039 191.688H184.999V190.704H187.999V195H187.039L187.015 193.908C186.607 194.688 185.959 195.192 184.927 195.192ZM189.986 195V194.016H192.11V187.464H189.986V186.48H195.266V187.464H193.142V194.016H195.266V195H189.986ZM197.541 195V186.48H198.981L202.029 193.632V186.48H203.061V195H201.621L198.573 187.848V195H197.541ZM205.457 195V186.48H210.641V187.464H206.489V190.224H210.497V191.208H206.489V194.016H210.737V195H205.457Z" fill="#C0C1C3"/>
<rect x="166" y="109" width="12" height="12" rx="2.4" fill="url(#paint0_radial_7619_40012)"/>
<g filter="url(#filter1_d_7619_40012)">
<path fill-rule="evenodd" clip-rule="evenodd" d="M167.784 115.179C167.784 115.179 167.784 115.179 167.784 115.179L167.883 115.198L167.785 115.221C167.785 115.221 167.785 115.221 167.785 115.221C167.804 115.217 167.834 115.21 167.883 115.198C167.833 115.189 167.802 115.183 167.784 115.179ZM168.566 115.895C168.716 115.994 168.887 116.092 169.076 116.181L168.854 116.661C168.329 116.414 167.935 116.108 167.672 115.862C167.541 115.739 167.441 115.631 167.374 115.552C167.34 115.513 167.314 115.48 167.297 115.458C167.288 115.446 167.281 115.437 167.276 115.43L167.27 115.422L167.268 115.42L167.267 115.419L167.267 115.418L167.267 115.418C167.267 115.418 167.267 115.418 167.48 115.264C167.222 115.212 167.222 115.212 167.222 115.212L167.223 115.212L167.223 115.211L167.223 115.209L167.224 115.205L167.227 115.193C167.229 115.183 167.232 115.171 167.236 115.155C167.245 115.124 167.258 115.081 167.278 115.027C167.317 114.92 167.381 114.773 167.484 114.596C167.691 114.242 168.051 113.776 168.671 113.291C169.294 112.803 169.9 112.541 170.351 112.401C170.577 112.33 170.765 112.291 170.898 112.268C170.965 112.257 171.018 112.25 171.055 112.246C171.074 112.244 171.089 112.242 171.099 112.241L171.112 112.24L171.116 112.24L171.118 112.24L171.118 112.24L171.118 112.24C171.118 112.24 171.119 112.24 171.134 112.504C171.15 112.768 171.15 112.768 171.15 112.768L171.15 112.768L171.143 112.769C171.137 112.769 171.127 112.77 171.113 112.772C171.085 112.775 171.042 112.781 170.985 112.79C170.889 112.806 170.754 112.834 170.59 112.881C170.586 112.883 170.581 112.885 170.576 112.886C170.248 112.998 169.781 113.217 169.234 113.644C168.689 114.07 168.382 114.472 168.212 114.763C168.128 114.909 168.077 115.027 168.047 115.108C168.033 115.146 168.024 115.176 168.019 115.196C168.024 115.21 168.031 115.231 168.041 115.255C168.067 115.315 168.11 115.402 168.181 115.502C168.264 115.62 168.387 115.758 168.566 115.895ZM167.48 115.264L167.267 115.418L167.2 115.325L167.222 115.212L167.48 115.264Z" fill="white"/>
<path fill-rule="evenodd" clip-rule="evenodd" d="M173.408 117.12C173.414 117.118 173.419 117.116 173.424 117.114C173.752 117.002 174.219 116.784 174.766 116.356C175.312 115.93 175.618 115.528 175.788 115.237C175.873 115.091 175.923 114.973 175.953 114.893C175.967 114.854 175.976 114.825 175.981 114.805C175.976 114.79 175.969 114.77 175.959 114.745C175.934 114.685 175.89 114.599 175.82 114.499C175.736 114.38 175.612 114.241 175.432 114.103C175.282 114.005 175.113 113.908 174.925 113.82L175.147 113.34C175.672 113.586 176.065 113.893 176.328 114.139C176.46 114.262 176.559 114.37 176.627 114.448C176.66 114.488 176.686 114.52 176.704 114.543C176.713 114.554 176.72 114.563 176.725 114.57L176.731 114.578L176.733 114.581L176.733 114.582L176.734 114.582L176.734 114.582C176.734 114.582 176.734 114.582 176.52 114.737C176.778 114.788 176.778 114.788 176.778 114.789L176.778 114.789L176.778 114.79L176.778 114.791L176.777 114.795L176.774 114.807C176.772 114.817 176.769 114.83 176.764 114.845C176.755 114.877 176.742 114.92 176.723 114.973C176.684 115.08 176.619 115.228 176.516 115.404C176.31 115.758 175.949 116.224 175.329 116.709C174.706 117.197 174.101 117.459 173.649 117.6C173.424 117.67 173.236 117.71 173.103 117.732C173.036 117.744 172.983 117.75 172.945 117.755C172.927 117.757 172.912 117.758 172.901 117.759L172.888 117.76L172.884 117.76L172.883 117.76L172.882 117.76L172.882 117.76C172.882 117.76 172.882 117.76 172.866 117.496C172.851 117.232 172.851 117.232 172.851 117.232L172.851 117.232L172.857 117.231C172.863 117.231 172.874 117.23 172.888 117.228C172.916 117.225 172.959 117.22 173.015 117.21C173.112 117.194 173.246 117.166 173.408 117.12ZM176.217 114.822C176.217 114.822 176.217 114.822 176.217 114.822L176.118 114.802L176.216 114.779C176.216 114.779 176.216 114.779 176.216 114.779C176.197 114.784 176.167 114.791 176.118 114.802C176.168 114.812 176.198 114.818 176.217 114.822ZM176.52 114.737L176.734 114.582L176.8 114.676L176.778 114.788L176.52 114.737Z" fill="white"/>
<path fill-rule="evenodd" clip-rule="evenodd" d="M174.045 115.027C174.045 116.2 173.1 117.151 171.934 117.151C170.768 117.151 169.822 116.2 169.822 115.027C169.822 113.853 170.768 112.902 171.934 112.902C173.1 112.902 174.045 113.853 174.045 115.027ZM171.406 113.832C171.406 113.832 171.152 114.13 171.076 114.363C171.027 114.512 171.01 114.761 171.01 114.761H170.35C170.35 114.761 170.35 114.562 170.482 114.23C170.614 113.898 170.746 113.832 170.746 113.832H171.406ZM171.076 115.69C171.152 115.923 171.406 116.221 171.406 116.221H170.746C170.746 116.221 170.614 116.155 170.482 115.823C170.35 115.491 170.35 115.292 170.35 115.292H171.01C171.01 115.292 171.027 115.541 171.076 115.69Z" fill="white"/>
</g>
<g clip-path="url(#clip2_7619_40012)">
<path d="M156 210H268V257C268 259.209 266.209 261 264 261H160C157.791 261 156 259.209 156 257V210Z" fill="#121317"/>
<line x1="109.852" y1="260.558" x2="160.763" y2="209.646" stroke="#242834"/>
<line x1="116.763" y1="260.558" x2="167.675" y2="209.646" stroke="#242834"/>
<line x1="123.675" y1="260.558" x2="174.586" y2="209.646" stroke="#242834"/>
<line x1="130.587" y1="260.558" x2="181.499" y2="209.646" stroke="#242834"/>
<line x1="137.498" y1="260.558" x2="188.41" y2="209.646" stroke="#242834"/>
<line x1="144.41" y1="260.558" x2="195.322" y2="209.646" stroke="#242834"/>
<line x1="151.322" y1="260.558" x2="202.233" y2="209.646" stroke="#242834"/>
<line x1="158.233" y1="260.558" x2="209.145" y2="209.646" stroke="#242834"/>
<line x1="165.145" y1="260.558" x2="216.057" y2="209.646" stroke="#242834"/>
<line x1="172.057" y1="260.558" x2="222.968" y2="209.646" stroke="#242834"/>
<line x1="178.968" y1="260.558" x2="229.88" y2="209.646" stroke="#242834"/>
<line x1="185.88" y1="260.558" x2="236.792" y2="209.646" stroke="#242834"/>
<line x1="192.792" y1="260.558" x2="243.704" y2="209.646" stroke="#242834"/>
<line x1="199.704" y1="260.558" x2="250.615" y2="209.646" stroke="#242834"/>
<line x1="206.615" y1="260.558" x2="257.527" y2="209.646" stroke="#242834"/>
<line x1="213.527" y1="260.558" x2="264.439" y2="209.646" stroke="#242834"/>
<line x1="220.438" y1="260.558" x2="271.35" y2="209.646" stroke="#242834"/>
<line x1="227.35" y1="260.558" x2="278.262" y2="209.646" stroke="#242834"/>
<line x1="234.262" y1="260.558" x2="285.173" y2="209.646" stroke="#242834"/>
<line x1="241.174" y1="260.558" x2="292.085" y2="209.646" stroke="#242834"/>
<line x1="248.085" y1="260.558" x2="298.997" y2="209.646" stroke="#242834"/>
<line x1="254.997" y1="260.558" x2="305.909" y2="209.646" stroke="#242834"/>
<line x1="261.909" y1="260.558" x2="312.82" y2="209.646" stroke="#242834"/>
</g>
<path d="M156.5 210.5H267.5V257C267.5 258.933 265.933 260.5 264 260.5H160C158.067 260.5 156.5 258.933 156.5 257V210.5Z" stroke="#242834"/>
</g>
<rect width="138" height="358" transform="matrix(-1 0 0 1 138 2)" fill="url(#paint1_linear_7619_40012)"/>
</g>
<defs>
<filter id="filter0_d_7619_40012" x="80" y="23" width="264" height="314" filterUnits="userSpaceOnUse" color-interpolation-filters="sRGB">
<feFlood flood-opacity="0" result="BackgroundImageFix"/>
<feColorMatrix in="SourceAlpha" type="matrix" values="0 0 0 0 0 0 0 0 0 0 0 0 0 0 0 0 0 0 127 0" result="hardAlpha"/>
<feMorphology radius="8" operator="dilate" in="SourceAlpha" result="effect1_dropShadow_7619_40012"/>
<feOffset/>
<feGaussianBlur stdDeviation="30"/>
<feComposite in2="hardAlpha" operator="out"/>
<feColorMatrix type="matrix" values="0 0 0 0 0.898039 0 0 0 0 0.282353 0 0 0 0 0.301961 0 0 0 0.1 0"/>
<feBlend mode="normal" in2="BackgroundImageFix" result="effect1_dropShadow_7619_40012"/>
<feBlend mode="normal" in="SourceGraphic" in2="effect1_dropShadow_7619_40012" result="shape"/>
</filter>
<filter id="filter1_d_7619_40012" x="166.24" y="111.76" width="11.5206" height="7.44051" filterUnits="userSpaceOnUse" color-interpolation-filters="sRGB">
<feFlood flood-opacity="0" result="BackgroundImageFix"/>
<feColorMatrix in="SourceAlpha" type="matrix" values="0 0 0 0 0 0 0 0 0 0 0 0 0 0 0 0 0 0 127 0" result="hardAlpha"/>
<feOffset dy="0.48"/>
<feGaussianBlur stdDeviation="0.48"/>
<feComposite in2="hardAlpha" operator="out"/>
<feColorMatrix type="matrix" values="0 0 0 0 0.152604 0 0 0 0 0.0457812 0 0 0 0 0 0 0 0 0.2 0"/>
<feBlend mode="normal" in2="BackgroundImageFix" result="effect1_dropShadow_7619_40012"/>
<feBlend mode="normal" in="SourceGraphic" in2="effect1_dropShadow_7619_40012" result="shape"/>
</filter>
<radialGradient id="paint0_radial_7619_40012" cx="0" cy="0" r="1" gradientUnits="userSpaceOnUse" gradientTransform="translate(172 115) rotate(45.6903) scale(7.04329)">
<stop offset="0.329632" stop-color="#FF5E19"/>
<stop offset="1" stop-color="#FF2929"/>
</radialGradient>
<linearGradient id="paint1_linear_7619_40012" x1="110.4" y1="179" x2="53.6077" y2="179" gradientUnits="userSpaceOnUse">
<stop stop-color="#0B0C0E"/>
<stop offset="0.5" stop-color="#0B0C0E" stop-opacity="0.3"/>
<stop offset="1" stop-color="#0B0C0E" stop-opacity="0"/>
</linearGradient>
<clipPath id="clip0_7619_40012">
<rect width="580" height="360" fill="white"/>
</clipPath>
<clipPath id="clip1_7619_40012">
<path d="M531 360V0H576C578.209 0 580 1.79086 580 4V356C580 358.209 578.209 360 576 360H531Z" fill="white"/>
</clipPath>
<clipPath id="clip2_7619_40012">
<path d="M156 210H268V257C268 259.209 266.209 261 264 261H160C157.791 261 156 259.209 156 257V210Z" fill="white"/>
</clipPath>
</defs>
</svg>
