<svg version="1.1" xmlns="http://www.w3.org/2000/svg" viewBox="0 0 1461.0205078125 970.913176334705" width="1461.0205078125" height="970.913176334705">
  <!-- svg-source:excalidraw -->
  
  <defs>
    <style class="style-fonts">
      @font-face {
        font-family: "Virgil";
        src: url("https://excalidraw.com/Virgil.woff2");
      }
      @font-face {
        font-family: "Cascadia";
        src: url("https://excalidraw.com/Cascadia.woff2");
      }
      @font-face {
        font-family: "Assistant";
        src: url("https://app.excalidraw.com//dist/excalidraw-assets/Assistant-Regular.woff2");
      }
    </style>
    
  </defs>
  <rect x="0" y="0" width="1461.0205078125" height="970.913176334705" fill="#ffffff"></rect><g transform="translate(270.67229798693586 314.1120876031225) rotate(0 35.21116260114984 14.327465287908922)"><text x="0" y="20.081375347533132" font-family="Virgil, Segoe UI Emoji" font-size="22.923944460654262px" fill="#1e1e1e" text-anchor="start" style="white-space: pre;" direction="ltr" dominant-baseline="alphabetic">Topic </text></g><g stroke-linecap="round"><g transform="translate(260.57794744318187 354.6207570382337) rotate(0 582.2186333659931 0)"><path d="M0 0 C194.07 0, 970.36 0, 1164.44 0 M0 0 C194.07 0, 970.36 0, 1164.44 0" stroke="#1e1e1e" stroke-width="2" fill="none"></path></g></g><mask></mask><g transform="translate(453.31696108779477 314.50945089821676) rotate(0 49.825161891433 14.327465287908922)"><text x="0" y="20.08137534753314" font-family="Virgil, Segoe UI Emoji" font-size="22.92394446065427px" fill="#1e1e1e" text-anchor="start" style="white-space: pre;" direction="ltr" dominant-baseline="alphabetic">Partition</text></g><g stroke-linecap="round"><g transform="translate(407.08187667817856 320.285210342405) rotate(0 -2.842170943040401e-14 199.99406575421142)"><path d="M0 0 C0 66.66, 0 333.32, 0 399.99" stroke="#1e1e1e" stroke-width="2.5" fill="none" stroke-dasharray="1.5 8"></path></g></g><mask></mask><g stroke-linecap="round"><g transform="translate(590.8433211156967 317.6489262021603) rotate(0 -5.684341886080802e-14 199.99406575421142)"><path d="M0 0 C0 66.66, 0 333.32, 0 399.99" stroke="#1e1e1e" stroke-width="2.5" fill="none" stroke-dasharray="1.5 8"></path></g></g><mask></mask><g transform="translate(628.2382090322704 258.4059256910991) rotate(0 81.77834336079172 42.982395863726765)"><text x="0" y="20.08137534753314" font-family="Virgil, Segoe UI Emoji" font-size="22.923944460654265px" fill="#1e1e1e" text-anchor="start" style="white-space: pre;" direction="ltr" dominant-baseline="alphabetic">p99 latency</text><text x="0" y="48.73630592335097" font-family="Virgil, Segoe UI Emoji" font-size="22.923944460654265px" fill="#1e1e1e" text-anchor="start" style="white-space: pre;" direction="ltr" dominant-baseline="alphabetic">in messaging </text><text x="0" y="77.3912364991688" font-family="Virgil, Segoe UI Emoji" font-size="22.923944460654265px" fill="#1e1e1e" text-anchor="start" style="white-space: pre;" direction="ltr" dominant-baseline="alphabetic">queue</text></g><g stroke-linecap="round"><g transform="translate(781.6377397249033 313.7775596050117) rotate(0 -5.684341886080802e-14 199.99406575421142)"><path d="M0 0 C0 66.66, 0 333.32, 0 399.99" stroke="#1e1e1e" stroke-width="2.5" fill="none" stroke-dasharray="1.5 8"></path></g></g><mask></mask><g transform="translate(809.4230733951761 311.32494787133396) rotate(0 28.162052302935876 14.327465287908922)"><text x="0" y="20.081375347533132" font-family="Virgil, Segoe UI Emoji" font-size="22.923944460654262px" fill="#1e1e1e" text-anchor="start" style="white-space: pre;" direction="ltr" dominant-baseline="alphabetic">Rate</text></g><g stroke-linecap="round"><g transform="translate(914.324517865307 315.9704351515634) rotate(0 -5.684341886080802e-14 199.99406575421142)"><path d="M0 0 C0 66.66, 0 333.32, 0 399.99" stroke="#1e1e1e" stroke-width="2.5" fill="none" stroke-dasharray="1.5 8"></path></g></g><mask></mask><g transform="translate(1107.6785109121502 311.1214327394034) rotate(0 40.18564779301914 14.327465287908922)"><text x="0" y="20.08137534753314" font-family="Virgil, Segoe UI Emoji" font-size="22.92394446065427px" fill="#1e1e1e" text-anchor="start" style="white-space: pre;" direction="ltr" dominant-baseline="alphabetic">Actions</text></g><g stroke-linecap="round" transform="translate(946.787725347375 379.4879257495288) rotate(0 71.98330216382624 17.985649784360135)"><path d="M8.99 0 C42.84 0, 76.69 0, 134.97 0 C140.97 0, 143.97 3, 143.97 8.99 C143.97 13.37, 143.97 17.75, 143.97 26.98 C143.97 32.97, 140.97 35.97, 134.97 35.97 C86.88 35.97, 38.79 35.97, 8.99 35.97 C3 35.97, 0 32.97, 0 26.98 C0 22.27, 0 17.56, 0 8.99 C0 3, 3 0, 8.99 0" stroke="none" stroke-width="0" fill="#a5d8ff"></path><path d="M8.99 0 C57.54 0, 106.08 0, 134.97 0 M8.99 0 C49.68 0, 90.36 0, 134.97 0 M134.97 0 C140.97 0, 143.97 3, 143.97 8.99 M134.97 0 C140.97 0, 143.97 3, 143.97 8.99 M143.97 8.99 C143.97 14.13, 143.97 19.27, 143.97 26.98 M143.97 8.99 C143.97 14.28, 143.97 19.57, 143.97 26.98 M143.97 26.98 C143.97 32.97, 140.97 35.97, 134.97 35.97 M143.97 26.98 C143.97 32.97, 140.97 35.97, 134.97 35.97 M134.97 35.97 C99.33 35.97, 63.68 35.97, 8.99 35.97 M134.97 35.97 C105.37 35.97, 75.76 35.97, 8.99 35.97 M8.99 35.97 C3 35.97, 0 32.97, 0 26.98 M8.99 35.97 C3 35.97, 0 32.97, 0 26.98 M0 26.98 C0 22.97, 0 18.96, 0 8.99 M0 26.98 C0 19.9, 0 12.83, 0 8.99 M0 8.99 C0 3, 3 0, 8.99 0 M0 8.99 C0 3, 3 0, 8.99 0" stroke="#1971c2" stroke-width="1" fill="none"></path></g><g transform="translate(954.9507252389183 384.90142825888097) rotate(0 62.58504293211104 10.393431472868087)"><text x="0" y="14.567433552371838" font-family="Virgil, Segoe UI Emoji" font-size="16.629490356588853px" fill="#1971c2" text-anchor="start" style="white-space: pre;" direction="ltr" dominant-baseline="alphabetic"> P1 hostmetrics</text></g><g stroke-linecap="round" transform="translate(1112.5304487915946 380.0163927761839) rotate(0 71.98330216382624 17.985649784360135)"><path d="M8.99 0 C58.33 0, 107.67 0, 134.97 0 C140.97 0, 143.97 3, 143.97 8.99 C143.97 15.78, 143.97 22.58, 143.97 26.98 C143.97 32.97, 140.97 35.97, 134.97 35.97 C88 35.97, 41.03 35.97, 8.99 35.97 C3 35.97, 0 32.97, 0 26.98 C0 20.22, 0 13.46, 0 8.99 C0 3, 3 0, 8.99 0" stroke="none" stroke-width="0" fill="#a5d8ff"></path><path d="M8.99 0 C52.6 0, 96.22 0, 134.97 0 M8.99 0 C39.38 0, 69.77 0, 134.97 0 M134.97 0 C140.97 0, 143.97 3, 143.97 8.99 M134.97 0 C140.97 0, 143.97 3, 143.97 8.99 M143.97 8.99 C143.97 15.05, 143.97 21.1, 143.97 26.98 M143.97 8.99 C143.97 14.8, 143.97 20.61, 143.97 26.98 M143.97 26.98 C143.97 32.97, 140.97 35.97, 134.97 35.97 M143.97 26.98 C143.97 32.97, 140.97 35.97, 134.97 35.97 M134.97 35.97 C90.55 35.97, 46.13 35.97, 8.99 35.97 M134.97 35.97 C100.07 35.97, 65.17 35.97, 8.99 35.97 M8.99 35.97 C3 35.97, 0 32.97, 0 26.98 M8.99 35.97 C3 35.97, 0 32.97, 0 26.98 M0 26.98 C0 22.92, 0 18.86, 0 8.99 M0 26.98 C0 21.64, 0 16.29, 0 8.99 M0 8.99 C0 3, 3 0, 8.99 0 M0 8.99 C0 3, 3 0, 8.99 0" stroke="#1971c2" stroke-width="1" fill="none"></path></g><g transform="translate(1120.6934486831378 385.42989528553585) rotate(0 65.91428715304335 20.78686294573606)"><text x="0" y="14.567433552371831" font-family="Virgil, Segoe UI Emoji" font-size="16.62949035658885px" fill="#1971c2" text-anchor="start" style="white-space: pre;" direction="ltr" dominant-baseline="alphabetic">Consumer group </text><text x="0" y="35.35429649810789" font-family="Virgil, Segoe UI Emoji" font-size="16.62949035658885px" fill="#1971c2" text-anchor="start" style="white-space: pre;" direction="ltr" dominant-baseline="alphabetic">details</text></g><g stroke-linecap="round" transform="translate(1275.0271058815215 379.4879257495288) rotate(0 71.98330216382624 17.985649784360135)"><path d="M8.99 0 C50.5 0, 92 0, 134.97 0 C140.97 0, 143.97 3, 143.97 8.99 C143.97 14.66, 143.97 20.33, 143.97 26.98 C143.97 32.97, 140.97 35.97, 134.97 35.97 C95.33 35.97, 55.69 35.97, 8.99 35.97 C3 35.97, 0 32.97, 0 26.98 C0 22.98, 0 18.97, 0 8.99 C0 3, 3 0, 8.99 0" stroke="none" stroke-width="0" fill="#a5d8ff"></path><path d="M8.99 0 C45.05 0, 81.11 0, 134.97 0 M8.99 0 C40.82 0, 72.64 0, 134.97 0 M134.97 0 C140.97 0, 143.97 3, 143.97 8.99 M134.97 0 C140.97 0, 143.97 3, 143.97 8.99 M143.97 8.99 C143.97 15.28, 143.97 21.56, 143.97 26.98 M143.97 8.99 C143.97 15.86, 143.97 22.73, 143.97 26.98 M143.97 26.98 C143.97 32.97, 140.97 35.97, 134.97 35.97 M143.97 26.98 C143.97 32.97, 140.97 35.97, 134.97 35.97 M134.97 35.97 C88.65 35.97, 42.32 35.97, 8.99 35.97 M134.97 35.97 C100.54 35.97, 66.11 35.97, 8.99 35.97 M8.99 35.97 C3 35.97, 0 32.97, 0 26.98 M8.99 35.97 C3 35.97, 0 32.97, 0 26.98 M0 26.98 C0 21.89, 0 16.8, 0 8.99 M0 26.98 C0 20.85, 0 14.72, 0 8.99 M0 8.99 C0 3, 3 0, 8.99 0 M0 8.99 C0 3, 3 0, 8.99 0" stroke="#1971c2" stroke-width="1" fill="none"></path></g><g transform="translate(1283.1901057730647 384.90142825888074) rotate(0 67.59288254489456 10.393431472867974)"><text x="0" y="14.567433552371838" font-family="Virgil, Segoe UI Emoji" font-size="16.629490356588853px" fill="#1971c2" text-anchor="start" style="white-space: pre;" direction="ltr" dominant-baseline="alphabetic">Producer details</text></g><g transform="translate(303.95974175332265 386.6923614198697) rotate(0 12.321617961403959 14.327465287908922)"><text x="0" y="20.08137534753314" font-family="Virgil, Segoe UI Emoji" font-size="22.923944460654265px" fill="#1e1e1e" text-anchor="start" style="white-space: pre;" direction="ltr" dominant-baseline="alphabetic">T1</text></g><g transform="translate(475.76335152776215 386.6923614198697) rotate(0 10.68254902408242 14.327465287908922)"><text x="0" y="20.08137534753314" font-family="Virgil, Segoe UI Emoji" font-size="22.923944460654265px" fill="#1e1e1e" text-anchor="start" style="white-space: pre;" direction="ltr" dominant-baseline="alphabetic">P1</text></g><g transform="translate(657.1571607427197 386.80429474243147) rotate(0 32.357125219549005 14.327465287908922)"><text x="0" y="20.08137534753314" font-family="Virgil, Segoe UI Emoji" font-size="22.92394446065427px" fill="#1e1e1e" text-anchor="start" style="white-space: pre;" direction="ltr" dominant-baseline="alphabetic">100ms</text></g><g transform="translate(805.0513924717658 386.80429474243147) rotate(0 14.969322003485615 14.327465287908922)"><text x="0" y="20.08137534753314" font-family="Virgil, Segoe UI Emoji" font-size="22.923944460654265px" fill="#1e1e1e" text-anchor="start" style="white-space: pre;" direction="ltr" dominant-baseline="alphabetic">50</text></g><g stroke-linecap="round" transform="translate(946.787725347375 451.9564479744756) rotate(0 71.98330216382624 17.985649784360135)"><path d="M8.99 0 C50.85 0, 92.71 0, 134.97 0 C140.97 0, 143.97 3, 143.97 8.99 C143.97 14.14, 143.97 19.28, 143.97 26.98 C143.97 32.97, 140.97 35.97, 134.97 35.97 C91.95 35.97, 48.93 35.97, 8.99 35.97 C3 35.97, 0 32.97, 0 26.98 C0 20.68, 0 14.38, 0 8.99 C0 3, 3 0, 8.99 0" stroke="none" stroke-width="0" fill="#a5d8ff"></path><path d="M8.99 0 C46.08 0, 83.17 0, 134.97 0 M8.99 0 C53.5 0, 98 0, 134.97 0 M134.97 0 C140.97 0, 143.97 3, 143.97 8.99 M134.97 0 C140.97 0, 143.97 3, 143.97 8.99 M143.97 8.99 C143.97 13.84, 143.97 18.68, 143.97 26.98 M143.97 8.99 C143.97 14.42, 143.97 19.85, 143.97 26.98 M143.97 26.98 C143.97 32.97, 140.97 35.97, 134.97 35.97 M143.97 26.98 C143.97 32.97, 140.97 35.97, 134.97 35.97 M134.97 35.97 C98.13 35.97, 61.29 35.97, 8.99 35.97 M134.97 35.97 C97.02 35.97, 59.07 35.97, 8.99 35.97 M8.99 35.97 C3 35.97, 0 32.97, 0 26.98 M8.99 35.97 C3 35.97, 0 32.97, 0 26.98 M0 26.98 C0 20.01, 0 13.05, 0 8.99 M0 26.98 C0 21.99, 0 17, 0 8.99 M0 8.99 C0 3, 3 0, 8.99 0 M0 8.99 C0 3, 3 0, 8.99 0" stroke="#1971c2" stroke-width="1" fill="none"></path></g><g transform="translate(954.9507252389183 457.36995048382755) rotate(0 62.58504293211104 10.393431472867974)"><text x="0" y="14.567433552371838" font-family="Virgil, Segoe UI Emoji" font-size="16.629490356588853px" fill="#1971c2" text-anchor="start" style="white-space: pre;" direction="ltr" dominant-baseline="alphabetic"> P1 hostmetrics</text></g><g stroke-linecap="round" transform="translate(1112.5304487915946 452.4849150011303) rotate(0 71.98330216382624 17.985649784360135)"><path d="M8.99 0 C43.05 0, 77.12 0, 134.97 0 C140.97 0, 143.97 3, 143.97 8.99 C143.97 14.11, 143.97 19.24, 143.97 26.98 C143.97 32.97, 140.97 35.97, 134.97 35.97 C94.16 35.97, 53.35 35.97, 8.99 35.97 C3 35.97, 0 32.97, 0 26.98 C0 21.07, 0 15.16, 0 8.99 C0 3, 3 0, 8.99 0" stroke="none" stroke-width="0" fill="#a5d8ff"></path><path d="M8.99 0 C47.38 0, 85.76 0, 134.97 0 M8.99 0 C53.61 0, 98.22 0, 134.97 0 M134.97 0 C140.97 0, 143.97 3, 143.97 8.99 M134.97 0 C140.97 0, 143.97 3, 143.97 8.99 M143.97 8.99 C143.97 15.83, 143.97 22.67, 143.97 26.98 M143.97 8.99 C143.97 13.53, 143.97 18.07, 143.97 26.98 M143.97 26.98 C143.97 32.97, 140.97 35.97, 134.97 35.97 M143.97 26.98 C143.97 32.97, 140.97 35.97, 134.97 35.97 M134.97 35.97 C92.57 35.97, 50.17 35.97, 8.99 35.97 M134.97 35.97 C92.45 35.97, 49.92 35.97, 8.99 35.97 M8.99 35.97 C3 35.97, 0 32.97, 0 26.98 M8.99 35.97 C3 35.97, 0 32.97, 0 26.98 M0 26.98 C0 23.24, 0 19.5, 0 8.99 M0 26.98 C0 22.36, 0 17.75, 0 8.99 M0 8.99 C0 3, 3 0, 8.99 0 M0 8.99 C0 3, 3 0, 8.99 0" stroke="#1971c2" stroke-width="1" fill="none"></path></g><g transform="translate(1120.6934486831378 457.8984175104822) rotate(0 65.91428715304335 20.78686294573606)"><text x="0" y="14.567433552371831" font-family="Virgil, Segoe UI Emoji" font-size="16.62949035658885px" fill="#1971c2" text-anchor="start" style="white-space: pre;" direction="ltr" dominant-baseline="alphabetic">Consumer group </text><text x="0" y="35.35429649810789" font-family="Virgil, Segoe UI Emoji" font-size="16.62949035658885px" fill="#1971c2" text-anchor="start" style="white-space: pre;" direction="ltr" dominant-baseline="alphabetic">details</text></g><g stroke-linecap="round" transform="translate(1275.0271058815215 451.9564479744756) rotate(0 71.98330216382624 17.985649784360135)"><path d="M8.99 0 C38.53 0, 68.06 0, 134.97 0 C140.97 0, 143.97 3, 143.97 8.99 C143.97 14.75, 143.97 20.51, 143.97 26.98 C143.97 32.97, 140.97 35.97, 134.97 35.97 C95.08 35.97, 55.19 35.97, 8.99 35.97 C3 35.97, 0 32.97, 0 26.98 C0 20.69, 0 14.4, 0 8.99 C0 3, 3 0, 8.99 0" stroke="none" stroke-width="0" fill="#a5d8ff"></path><path d="M8.99 0 C35.64 0, 62.29 0, 134.97 0 M8.99 0 C55.1 0, 101.21 0, 134.97 0 M134.97 0 C140.97 0, 143.97 3, 143.97 8.99 M134.97 0 C140.97 0, 143.97 3, 143.97 8.99 M143.97 8.99 C143.97 12.93, 143.97 16.86, 143.97 26.98 M143.97 8.99 C143.97 14.88, 143.97 20.77, 143.97 26.98 M143.97 26.98 C143.97 32.97, 140.97 35.97, 134.97 35.97 M143.97 26.98 C143.97 32.97, 140.97 35.97, 134.97 35.97 M134.97 35.97 C98.39 35.97, 61.8 35.97, 8.99 35.97 M134.97 35.97 C103.6 35.97, 72.22 35.97, 8.99 35.97 M8.99 35.97 C3 35.97, 0 32.97, 0 26.98 M8.99 35.97 C3 35.97, 0 32.97, 0 26.98 M0 26.98 C0 19.86, 0 12.74, 0 8.99 M0 26.98 C0 20.26, 0 13.55, 0 8.99 M0 8.99 C0 3, 3 0, 8.99 0 M0 8.99 C0 3, 3 0, 8.99 0" stroke="#1971c2" stroke-width="1" fill="none"></path></g><g transform="translate(1283.1901057730647 457.36995048382755) rotate(0 67.59288254489456 10.393431472867974)"><text x="0" y="14.567433552371838" font-family="Virgil, Segoe UI Emoji" font-size="16.629490356588853px" fill="#1971c2" text-anchor="start" style="white-space: pre;" direction="ltr" dominant-baseline="alphabetic">Producer details</text></g><g transform="translate(303.95974175332265 459.2728169673778) rotate(0 12.321617961403959 14.327465287908922)"><text x="0" y="20.08137534753314" font-family="Virgil, Segoe UI Emoji" font-size="22.923944460654265px" fill="#1e1e1e" text-anchor="start" style="white-space: pre;" direction="ltr" dominant-baseline="alphabetic">T1</text></g><g transform="translate(475.76335152776215 459.2728169673778) rotate(0 15.737278602760881 14.327465287908922)"><text x="0" y="20.08137534753314" font-family="Virgil, Segoe UI Emoji" font-size="22.923944460654265px" fill="#1e1e1e" text-anchor="start" style="white-space: pre;" direction="ltr" dominant-baseline="alphabetic">P2</text></g><g transform="translate(657.1571607427197 459.2728169673778) rotate(0 24.471291473208623 14.327465287908922)"><text x="0" y="20.08137534753314" font-family="Virgil, Segoe UI Emoji" font-size="22.923944460654265px" fill="#1e1e1e" text-anchor="start" style="white-space: pre;" direction="ltr" dominant-baseline="alphabetic">10ms</text></g><g transform="translate(805.0513924717658 459.2728169673778) rotate(0 16.04675675006257 14.327465287908922)"><text x="0" y="20.08137534753314" font-family="Virgil, Segoe UI Emoji" font-size="22.923944460654265px" fill="#1e1e1e" text-anchor="start" style="white-space: pre;" direction="ltr" dominant-baseline="alphabetic">20</text></g><g stroke-linecap="round" transform="translate(946.6350889984272 517.5341113607888) rotate(0 71.9833021638263 17.985649784360135)"><path d="M8.99 0 C57.97 0, 106.95 0, 134.97 0 C140.97 0, 143.97 3, 143.97 8.99 C143.97 14.01, 143.97 19.03, 143.97 26.98 C143.97 32.97, 140.97 35.97, 134.97 35.97 C102.27 35.97, 69.57 35.97, 8.99 35.97 C3 35.97, 0 32.97, 0 26.98 C0 20.6, 0 14.23, 0 8.99 C0 3, 3 0, 8.99 0" stroke="none" stroke-width="0" fill="#a5d8ff"></path><path d="M8.99 0 C38 0, 67.02 0, 134.97 0 M8.99 0 C42.84 0, 76.68 0, 134.97 0 M134.97 0 C140.97 0, 143.97 3, 143.97 8.99 M134.97 0 C140.97 0, 143.97 3, 143.97 8.99 M143.97 8.99 C143.97 12.89, 143.97 16.8, 143.97 26.98 M143.97 8.99 C143.97 15.39, 143.97 21.78, 143.97 26.98 M143.97 26.98 C143.97 32.97, 140.97 35.97, 134.97 35.97 M143.97 26.98 C143.97 32.97, 140.97 35.97, 134.97 35.97 M134.97 35.97 C106.91 35.97, 78.85 35.97, 8.99 35.97 M134.97 35.97 C104.47 35.97, 73.97 35.97, 8.99 35.97 M8.99 35.97 C3 35.97, 0 32.97, 0 26.98 M8.99 35.97 C3 35.97, 0 32.97, 0 26.98 M0 26.98 C0 20.25, 0 13.53, 0 8.99 M0 26.98 C0 23.24, 0 19.5, 0 8.99 M0 8.99 C0 3, 3 0, 8.99 0 M0 8.99 C0 3, 3 0, 8.99 0" stroke="#1971c2" stroke-width="1" fill="none"></path></g><g transform="translate(954.7980888899705 522.9476138701405) rotate(0 62.58504293211098 10.393431472867974)"><text x="0" y="14.567433552371838" font-family="Virgil, Segoe UI Emoji" font-size="16.629490356588853px" fill="#1971c2" text-anchor="start" style="white-space: pre;" direction="ltr" dominant-baseline="alphabetic"> P1 hostmetrics</text></g><g stroke-linecap="round" transform="translate(1112.3778124426467 518.0625783874439) rotate(0 71.98330216382624 17.985649784360135)"><path d="M8.99 0 C34.66 0, 60.32 0, 134.97 0 C140.97 0, 143.97 3, 143.97 8.99 C143.97 12.65, 143.97 16.3, 143.97 26.98 C143.97 32.97, 140.97 35.97, 134.97 35.97 C92.49 35.97, 50 35.97, 8.99 35.97 C3 35.97, 0 32.97, 0 26.98 C0 22.64, 0 18.31, 0 8.99 C0 3, 3 0, 8.99 0" stroke="none" stroke-width="0" fill="#a5d8ff"></path><path d="M8.99 0 C44.64 0, 80.28 0, 134.97 0 M8.99 0 C38.6 0, 68.21 0, 134.97 0 M134.97 0 C140.97 0, 143.97 3, 143.97 8.99 M134.97 0 C140.97 0, 143.97 3, 143.97 8.99 M143.97 8.99 C143.97 13, 143.97 17.01, 143.97 26.98 M143.97 8.99 C143.97 16.07, 143.97 23.14, 143.97 26.98 M143.97 26.98 C143.97 32.97, 140.97 35.97, 134.97 35.97 M143.97 26.98 C143.97 32.97, 140.97 35.97, 134.97 35.97 M134.97 35.97 C101.13 35.97, 67.28 35.97, 8.99 35.97 M134.97 35.97 C88.21 35.97, 41.44 35.97, 8.99 35.97 M8.99 35.97 C3 35.97, 0 32.97, 0 26.98 M8.99 35.97 C3 35.97, 0 32.97, 0 26.98 M0 26.98 C0 20.11, 0 13.25, 0 8.99 M0 26.98 C0 20.79, 0 14.6, 0 8.99 M0 8.99 C0 3, 3 0, 8.99 0 M0 8.99 C0 3, 3 0, 8.99 0" stroke="#1971c2" stroke-width="1" fill="none"></path></g><g transform="translate(1120.54081233419 523.4760808967956) rotate(0 65.91428715304335 20.78686294573606)"><text x="0" y="14.567433552371831" font-family="Virgil, Segoe UI Emoji" font-size="16.62949035658885px" fill="#1971c2" text-anchor="start" style="white-space: pre;" direction="ltr" dominant-baseline="alphabetic">Consumer group </text><text x="0" y="35.35429649810789" font-family="Virgil, Segoe UI Emoji" font-size="16.62949035658885px" fill="#1971c2" text-anchor="start" style="white-space: pre;" direction="ltr" dominant-baseline="alphabetic">details</text></g><g stroke-linecap="round" transform="translate(1274.8744695325736 517.5341113607888) rotate(0 71.98330216382624 17.985649784360135)"><path d="M8.99 0 C41.6 0, 74.21 0, 134.97 0 C140.97 0, 143.97 3, 143.97 8.99 C143.97 15.18, 143.97 21.37, 143.97 26.98 C143.97 32.97, 140.97 35.97, 134.97 35.97 C86.12 35.97, 37.26 35.97, 8.99 35.97 C3 35.97, 0 32.97, 0 26.98 C0 21.09, 0 15.21, 0 8.99 C0 3, 3 0, 8.99 0" stroke="none" stroke-width="0" fill="#a5d8ff"></path><path d="M8.99 0 C53.41 0, 97.83 0, 134.97 0 M8.99 0 C43.89 0, 78.8 0, 134.97 0 M134.97 0 C140.97 0, 143.97 3, 143.97 8.99 M134.97 0 C140.97 0, 143.97 3, 143.97 8.99 M143.97 8.99 C143.97 13.05, 143.97 17.11, 143.97 26.98 M143.97 8.99 C143.97 14.34, 143.97 19.68, 143.97 26.98 M143.97 26.98 C143.97 32.97, 140.97 35.97, 134.97 35.97 M143.97 26.98 C143.97 32.97, 140.97 35.97, 134.97 35.97 M134.97 35.97 C85.64 35.97, 36.3 35.97, 8.99 35.97 M134.97 35.97 C104.32 35.97, 73.66 35.97, 8.99 35.97 M8.99 35.97 C3 35.97, 0 32.97, 0 26.98 M8.99 35.97 C3 35.97, 0 32.97, 0 26.98 M0 26.98 C0 20.27, 0 13.57, 0 8.99 M0 26.98 C0 22.27, 0 17.56, 0 8.99 M0 8.99 C0 3, 3 0, 8.99 0 M0 8.99 C0 3, 3 0, 8.99 0" stroke="#1971c2" stroke-width="1" fill="none"></path></g><g transform="translate(1283.0374694241168 522.9476138701405) rotate(0 67.59288254489456 10.393431472867974)"><text x="0" y="14.567433552371838" font-family="Virgil, Segoe UI Emoji" font-size="16.629490356588853px" fill="#1971c2" text-anchor="start" style="white-space: pre;" direction="ltr" dominant-baseline="alphabetic">Producer details</text></g><g transform="translate(303.80710540437485 524.850480353691) rotate(0 17.376347540082406 14.327465287908922)"><text x="0" y="20.08137534753314" font-family="Virgil, Segoe UI Emoji" font-size="22.923944460654265px" fill="#1e1e1e" text-anchor="start" style="white-space: pre;" direction="ltr" dominant-baseline="alphabetic">T2</text></g><g transform="translate(475.6107151788144 524.850480353691) rotate(0 10.68254902408242 14.327465287908922)"><text x="0" y="20.08137534753314" font-family="Virgil, Segoe UI Emoji" font-size="22.923944460654265px" fill="#1e1e1e" text-anchor="start" style="white-space: pre;" direction="ltr" dominant-baseline="alphabetic">P1</text></g><g transform="translate(657.004524393772 525.0031167026386) rotate(0 28.700753279741548 14.327465287908922)"><text x="0" y="20.08137534753314" font-family="Virgil, Segoe UI Emoji" font-size="22.92394446065427px" fill="#1e1e1e" text-anchor="start" style="white-space: pre;" direction="ltr" dominant-baseline="alphabetic">40ms</text></g><g transform="translate(804.898756122818 524.850480353691) rotate(0 23.577267783200455 14.327465287908922)"><text x="0" y="20.08137534753314" font-family="Virgil, Segoe UI Emoji" font-size="22.923944460654265px" fill="#1e1e1e" text-anchor="start" style="white-space: pre;" direction="ltr" dominant-baseline="alphabetic">300</text></g><g stroke-linecap="round" transform="translate(948.5837463866619 585.2334199974773) rotate(0 71.98330216382624 17.985649784360135)"><path d="M8.99 0 C56.59 0, 104.19 0, 134.97 0 C140.97 0, 143.97 3, 143.97 8.99 C143.97 16.11, 143.97 23.24, 143.97 26.98 C143.97 32.97, 140.97 35.97, 134.97 35.97 C98.88 35.97, 62.79 35.97, 8.99 35.97 C3 35.97, 0 32.97, 0 26.98 C0 20.47, 0 13.95, 0 8.99 C0 3, 3 0, 8.99 0" stroke="none" stroke-width="0" fill="#a5d8ff"></path><path d="M8.99 0 C57.98 0, 106.97 0, 134.97 0 M8.99 0 C53.36 0, 97.72 0, 134.97 0 M134.97 0 C140.97 0, 143.97 3, 143.97 8.99 M134.97 0 C140.97 0, 143.97 3, 143.97 8.99 M143.97 8.99 C143.97 15.03, 143.97 21.06, 143.97 26.98 M143.97 8.99 C143.97 15.33, 143.97 21.67, 143.97 26.98 M143.97 26.98 C143.97 32.97, 140.97 35.97, 134.97 35.97 M143.97 26.98 C143.97 32.97, 140.97 35.97, 134.97 35.97 M134.97 35.97 C104.54 35.97, 74.1 35.97, 8.99 35.97 M134.97 35.97 C107.4 35.97, 79.82 35.97, 8.99 35.97 M8.99 35.97 C3 35.97, 0 32.97, 0 26.98 M8.99 35.97 C3 35.97, 0 32.97, 0 26.98 M0 26.98 C0 22.28, 0 17.58, 0 8.99 M0 26.98 C0 22.3, 0 17.62, 0 8.99 M0 8.99 C0 3, 3 0, 8.99 0 M0 8.99 C0 3, 3 0, 8.99 0" stroke="#1971c2" stroke-width="1" fill="none"></path></g><g transform="translate(956.7467462782051 590.646922506829) rotate(0 62.58504293211104 10.393431472868087)"><text x="0" y="14.567433552371838" font-family="Virgil, Segoe UI Emoji" font-size="16.629490356588853px" fill="#1971c2" text-anchor="start" style="white-space: pre;" direction="ltr" dominant-baseline="alphabetic"> P1 hostmetrics</text></g><g stroke-linecap="round" transform="translate(1114.3264698308813 585.7618870241326) rotate(0 71.98330216382624 17.985649784360135)"><path d="M8.99 0 C52.7 0, 96.4 0, 134.97 0 C140.97 0, 143.97 3, 143.97 8.99 C143.97 13.32, 143.97 17.65, 143.97 26.98 C143.97 32.97, 140.97 35.97, 134.97 35.97 C99.84 35.97, 64.71 35.97, 8.99 35.97 C3 35.97, 0 32.97, 0 26.98 C0 22.75, 0 18.52, 0 8.99 C0 3, 3 0, 8.99 0" stroke="none" stroke-width="0" fill="#a5d8ff"></path><path d="M8.99 0 C45.83 0, 82.67 0, 134.97 0 M8.99 0 C46.94 0, 84.89 0, 134.97 0 M134.97 0 C140.97 0, 143.97 3, 143.97 8.99 M134.97 0 C140.97 0, 143.97 3, 143.97 8.99 M143.97 8.99 C143.97 15.96, 143.97 22.93, 143.97 26.98 M143.97 8.99 C143.97 13.98, 143.97 18.97, 143.97 26.98 M143.97 26.98 C143.97 32.97, 140.97 35.97, 134.97 35.97 M143.97 26.98 C143.97 32.97, 140.97 35.97, 134.97 35.97 M134.97 35.97 C93.12 35.97, 51.26 35.97, 8.99 35.97 M134.97 35.97 C100.5 35.97, 66.03 35.97, 8.99 35.97 M8.99 35.97 C3 35.97, 0 32.97, 0 26.98 M8.99 35.97 C3 35.97, 0 32.97, 0 26.98 M0 26.98 C0 20.84, 0 14.69, 0 8.99 M0 26.98 C0 22.15, 0 17.31, 0 8.99 M0 8.99 C0 3, 3 0, 8.99 0 M0 8.99 C0 3, 3 0, 8.99 0" stroke="#1971c2" stroke-width="1" fill="none"></path></g><g transform="translate(1122.4894697224247 591.1753895334843) rotate(0 65.91428715304335 20.78686294573606)"><text x="0" y="14.567433552371831" font-family="Virgil, Segoe UI Emoji" font-size="16.62949035658885px" fill="#1971c2" text-anchor="start" style="white-space: pre;" direction="ltr" dominant-baseline="alphabetic">Consumer group </text><text x="0" y="35.35429649810789" font-family="Virgil, Segoe UI Emoji" font-size="16.62949035658885px" fill="#1971c2" text-anchor="start" style="white-space: pre;" direction="ltr" dominant-baseline="alphabetic">details</text></g><g stroke-linecap="round" transform="translate(1276.8231269208081 585.2334199974773) rotate(0 71.98330216382624 17.985649784360135)"><path d="M8.99 0 C56.05 0, 103.1 0, 134.97 0 C140.97 0, 143.97 3, 143.97 8.99 C143.97 13.13, 143.97 17.26, 143.97 26.98 C143.97 32.97, 140.97 35.97, 134.97 35.97 C95.93 35.97, 56.89 35.97, 8.99 35.97 C3 35.97, 0 32.97, 0 26.98 C0 21.38, 0 15.78, 0 8.99 C0 3, 3 0, 8.99 0" stroke="none" stroke-width="0" fill="#a5d8ff"></path><path d="M8.99 0 C51.39 0, 93.8 0, 134.97 0 M8.99 0 C51.52 0, 94.04 0, 134.97 0 M134.97 0 C140.97 0, 143.97 3, 143.97 8.99 M134.97 0 C140.97 0, 143.97 3, 143.97 8.99 M143.97 8.99 C143.97 12.73, 143.97 16.47, 143.97 26.98 M143.97 8.99 C143.97 13.61, 143.97 18.23, 143.97 26.98 M143.97 26.98 C143.97 32.97, 140.97 35.97, 134.97 35.97 M143.97 26.98 C143.97 32.97, 140.97 35.97, 134.97 35.97 M134.97 35.97 C100.91 35.97, 66.85 35.97, 8.99 35.97 M134.97 35.97 C98.94 35.97, 62.9 35.97, 8.99 35.97 M8.99 35.97 C3 35.97, 0 32.97, 0 26.98 M8.99 35.97 C3 35.97, 0 32.97, 0 26.98 M0 26.98 C0 21.15, 0 15.32, 0 8.99 M0 26.98 C0 20.68, 0 14.38, 0 8.99 M0 8.99 C0 3, 3 0, 8.99 0 M0 8.99 C0 3, 3 0, 8.99 0" stroke="#1971c2" stroke-width="1" fill="none"></path></g><g transform="translate(1284.9861268123514 590.646922506829) rotate(0 67.59288254489456 10.393431472868087)"><text x="0" y="14.567433552371838" font-family="Virgil, Segoe UI Emoji" font-size="16.629490356588853px" fill="#1971c2" text-anchor="start" style="white-space: pre;" direction="ltr" dominant-baseline="alphabetic">Producer details</text></g><g transform="translate(305.7557627926095 592.5497889903795) rotate(0 17.02102482687991 14.327465287908922)"><text x="0" y="20.08137534753314" font-family="Virgil, Segoe UI Emoji" font-size="22.923944460654265px" fill="#1e1e1e" text-anchor="start" style="white-space: pre;" direction="ltr" dominant-baseline="alphabetic">T3</text></g><g transform="translate(477.5593725670491 592.5497889903795) rotate(0 15.462189345379045 14.327465287908922)"><text x="0" y="20.08137534753314" font-family="Virgil, Segoe UI Emoji" font-size="22.923944460654265px" fill="#1e1e1e" text-anchor="start" style="white-space: pre;" direction="ltr" dominant-baseline="alphabetic">P0</text></g><g transform="translate(658.9531817820066 592.7024253393276) rotate(0 28.700753279741548 14.327465287908922)"><text x="0" y="20.08137534753314" font-family="Virgil, Segoe UI Emoji" font-size="22.92394446065427px" fill="#1e1e1e" text-anchor="start" style="white-space: pre;" direction="ltr" dominant-baseline="alphabetic">40ms</text></g><g transform="translate(806.8474135110527 592.5497889903795) rotate(0 23.577267783200455 14.327465287908922)"><text x="0" y="20.08137534753314" font-family="Virgil, Segoe UI Emoji" font-size="22.923944460654265px" fill="#1e1e1e" text-anchor="start" style="white-space: pre;" direction="ltr" dominant-baseline="alphabetic">300</text></g><g stroke-linecap="round" transform="translate(10.094006147541506 60.913176334704985) rotate(0 720 450)"><path d="M0 0 C476.52 3.27, 953.04 4.26, 1440 0 M0 0 C292.05 1.06, 583.35 0.94, 1440 0 M1440 0 C1442.06 201.85, 1441.13 403.07, 1440 900 M1440 0 C1442.84 327.33, 1442.18 654.01, 1440 900 M1440 900 C924.94 899.25, 410.5 898.18, 0 900 M1440 900 C1116.73 896.8, 793.92 896.62, 0 900 M0 900 C2.99 586.07, 2.37 271.66, 0 0 M0 900 C3.26 618.17, 3.4 336.42, 0 0" stroke="#000000" stroke-width="1" fill="none"></path></g><g stroke-linecap="round"><g transform="translate(217.96875 57.75739941269012) rotate(0 -2.842170943040401e-14 451.39404296875)"><path d="M0 0 C0 150.46, 0 752.32, 0 902.79 M0 0 C0 150.46, 0 752.32, 0 902.79" stroke="#1e1e1e" stroke-width="1" fill="none"></path></g></g><mask></mask><g stroke-linecap="round"><g transform="translate(10 132.29353222519012) rotate(0 720.51025390625 0)"><path d="M0 0 C240.17 0, 1200.85 0, 1441.02 0 M0 0 C240.17 0, 1200.85 0, 1441.02 0" stroke="#1e1e1e" stroke-width="1" fill="none"></path></g></g><mask></mask><g transform="translate(593.2892984864109 10) rotate(0 157.0519256591797 17.5)"><text x="0" y="24.528" font-family="Virgil, Segoe UI Emoji" font-size="28px" fill="#2f9e44" text-anchor="start" style="white-space: pre;" direction="ltr" dominant-baseline="alphabetic">Partition Wise Latency</text></g></svg>