<svg xmlns="http://www.w3.org/2000/svg" viewBox="0 0 1461.021 970.913" width="1461" height="970"><defs><style>@font-face{font-family:&quot;Virgil&quot;;src:url(https://excalidraw.com/Virgil.woff2)}@font-face{font-family:&quot;Cascadia&quot;;src:url(https://excalidraw.com/Cascadia.woff2)}@font-face{font-family:&quot;Assistant&quot;;src:url(https://app.excalidraw.com//dist/excalidraw-assets/Assistant-Regular.woff2)}</style></defs><path fill="#fff" d="M0 0h1461.021v970.913H0z"/><text y="20.081" font-family="Virgil, Segoe UI Emoji" font-size="22.924" fill="#1e1e1e" style="white-space:pre" dominant-baseline="alphabetic" transform="translate(270.672 314.112)">Topic </text><path d="M260.578 354.62h1164.44m-1164.44 0h1164.44" stroke="#1e1e1e" stroke-width="2" fill="none" stroke-linecap="round"/><text y="20.081" font-family="Virgil, Segoe UI Emoji" font-size="22.924" fill="#1e1e1e" style="white-space:pre" dominant-baseline="alphabetic" transform="translate(453.317 314.51)">Partition</text><path d="M407.082 320.285v399.99M590.843 317.649v399.99" stroke="#1e1e1e" stroke-width="2.5" fill="none" stroke-dasharray="1.5 8" stroke-linecap="round"/><g font-family="Virgil, Segoe UI Emoji" font-size="22.924" fill="#1e1e1e" dominant-baseline="alphabetic"><text y="20.081" style="white-space:pre" transform="translate(628.238 258.406)">p99
      latency</text><text y="48.736" style="white-space:pre" transform="translate(628.238 258.406)">in messaging </text><text y="77.391" style="white-space:pre" transform="translate(628.238 258.406)">queue</text></g><path d="M781.638 313.778v399.99" stroke="#1e1e1e" stroke-width="2.5" fill="none" stroke-dasharray="1.5 8" stroke-linecap="round"/><text y="20.081" font-family="Virgil, Segoe UI Emoji" font-size="22.924" fill="#1e1e1e" style="white-space:pre" dominant-baseline="alphabetic" transform="translate(809.423 311.325)">Rate</text><path d="M914.325 315.97v399.99" stroke="#1e1e1e" stroke-width="2.5" fill="none" stroke-dasharray="1.5 8" stroke-linecap="round"/><text y="20.081" font-family="Virgil, Segoe UI Emoji" font-size="22.924" fill="#1e1e1e" style="white-space:pre" dominant-baseline="alphabetic" transform="translate(1107.679 311.121)">Actions</text><g stroke-linecap="round"><path d="M955.778 379.488h125.98c6 0 9 3 9 8.99v17.99c0 5.99-3 8.99-9 8.99h-125.98c-5.99 0-8.99-3-8.99-8.99v-17.99c0-5.99 3-8.99 8.99-8.99" stroke-width="0" fill="#a5d8ff"/><path d="M955.778 379.488h125.98m-125.98 0h125.98m0 0c6 0 9 3 9 8.99m-9-8.99c6 0 9 3 9 8.99m0 0v17.99m0-17.99v17.99m0 0c0 5.99-3 8.99-9 8.99m9-8.99c0 5.99-3 8.99-9 8.99m0 0h-125.98m125.98 0h-125.98m0 0c-5.99 0-8.99-3-8.99-8.99m8.99 8.99c-5.99 0-8.99-3-8.99-8.99m0 0v-17.99m0 17.99v-17.99m0 0c0-5.99 3-8.99 8.99-8.99m-8.99 8.99c0-5.99 3-8.99 8.99-8.99" stroke="#1971c2" fill="none"/></g><text y="14.567" font-family="Virgil, Segoe UI Emoji" font-size="16.629" fill="#1971c2" style="white-space:pre" dominant-baseline="alphabetic" transform="translate(954.95 384.901)"> P1
      hostmetrics</text><g stroke-linecap="round"><path d="M1121.52 380.016h125.98c6 0 9 3 9 8.99v17.99c0 5.99-3 8.99-9 8.99h-125.98c-5.99 0-8.99-3-8.99-8.99v-17.99c0-5.99 3-8.99 8.99-8.99" stroke-width="0" fill="#a5d8ff"/><path d="M1121.52 380.016h125.98m-125.98 0h125.98m0 0c6 0 9 3 9 8.99m-9-8.99c6 0 9 3 9 8.99m0 0v17.99m0-17.99v17.99m0 0c0 5.99-3 8.99-9 8.99m9-8.99c0 5.99-3 8.99-9 8.99m0 0h-125.98m125.98 0h-125.98m0 0c-5.99 0-8.99-3-8.99-8.99m8.99 8.99c-5.99 0-8.99-3-8.99-8.99m0 0v-17.99m0 17.99v-17.99m0 0c0-5.99 3-8.99 8.99-8.99m-8.99 8.99c0-5.99 3-8.99 8.99-8.99" stroke="#1971c2" fill="none"/></g><g font-family="Virgil, Segoe UI Emoji" font-size="16.629" fill="#1971c2" dominant-baseline="alphabetic"><text y="14.567" style="white-space:pre" transform="translate(1120.693 385.43)">Consumer group
    </text><text y="35.354" style="white-space:pre" transform="translate(1120.693 385.43)">details</text></g><g stroke-linecap="round"><path d="M1284.017 379.488h125.98c6 0 9 3 9 8.99v17.99c0 5.99-3 8.99-9 8.99h-125.98c-5.99 0-8.99-3-8.99-8.99v-17.99c0-5.99 3-8.99 8.99-8.99" stroke-width="0" fill="#a5d8ff"/><path d="M1284.017 379.488h125.98m-125.98 0h125.98m0 0c6 0 9 3 9 8.99m-9-8.99c6 0 9 3 9 8.99m0 0v17.99m0-17.99v17.99m0 0c0 5.99-3 8.99-9 8.99m9-8.99c0 5.99-3 8.99-9 8.99m0 0h-125.98m125.98 0h-125.98m0 0c-5.99 0-8.99-3-8.99-8.99m8.99 8.99c-5.99 0-8.99-3-8.99-8.99m0 0v-17.99m0 17.99v-17.99m0 0c0-5.99 3-8.99 8.99-8.99m-8.99 8.99c0-5.99 3-8.99 8.99-8.99" stroke="#1971c2" fill="none"/></g><text y="14.567" font-family="Virgil, Segoe UI Emoji" font-size="16.629" fill="#1971c2" style="white-space:pre" dominant-baseline="alphabetic" transform="translate(1283.19 384.901)">Producer
      details</text><text y="20.081" font-family="Virgil, Segoe UI Emoji" font-size="22.924" fill="#1e1e1e" style="white-space:pre" dominant-baseline="alphabetic" transform="translate(303.96 386.692)">T1</text><text y="20.081" font-family="Virgil, Segoe UI Emoji" font-size="22.924" fill="#1e1e1e" style="white-space:pre" dominant-baseline="alphabetic" transform="translate(475.763 386.692)">P1</text><text y="20.081" font-family="Virgil, Segoe UI Emoji" font-size="22.924" fill="#1e1e1e" style="white-space:pre" dominant-baseline="alphabetic" transform="translate(657.157 386.804)">100ms</text><text y="20.081" font-family="Virgil, Segoe UI Emoji" font-size="22.924" fill="#1e1e1e" style="white-space:pre" dominant-baseline="alphabetic" transform="translate(805.051 386.804)">50</text><g stroke-linecap="round"><path d="M955.778 451.956h125.98c6 0 9 3 9 8.99v17.99c0 5.99-3 8.99-9 8.99h-125.98c-5.99 0-8.99-3-8.99-8.99v-17.99c0-5.99 3-8.99 8.99-8.99" stroke-width="0" fill="#a5d8ff"/><path d="M955.778 451.956h125.98m-125.98 0h125.98m0 0c6 0 9 3 9 8.99m-9-8.99c6 0 9 3 9 8.99m0 0v17.99m0-17.99v17.99m0 0c0 5.99-3 8.99-9 8.99m9-8.99c0 5.99-3 8.99-9 8.99m0 0h-125.98m125.98 0h-125.98m0 0c-5.99 0-8.99-3-8.99-8.99m8.99 8.99c-5.99 0-8.99-3-8.99-8.99m0 0v-17.99m0 17.99v-17.99m0 0c0-5.99 3-8.99 8.99-8.99m-8.99 8.99c0-5.99 3-8.99 8.99-8.99" stroke="#1971c2" fill="none"/></g><text y="14.567" font-family="Virgil, Segoe UI Emoji" font-size="16.629" fill="#1971c2" style="white-space:pre" dominant-baseline="alphabetic" transform="translate(954.95 457.37)"> P1
      hostmetrics</text><g stroke-linecap="round"><path d="M1121.52 452.485h125.98c6 0 9 3 9 8.99v17.99c0 5.99-3 8.99-9 8.99h-125.98c-5.99 0-8.99-3-8.99-8.99v-17.99c0-5.99 3-8.99 8.99-8.99" stroke-width="0" fill="#a5d8ff"/><path d="M1121.52 452.485h125.98m-125.98 0h125.98m0 0c6 0 9 3 9 8.99m-9-8.99c6 0 9 3 9 8.99m0 0v17.99m0-17.99v17.99m0 0c0 5.99-3 8.99-9 8.99m9-8.99c0 5.99-3 8.99-9 8.99m0 0h-125.98m125.98 0h-125.98m0 0c-5.99 0-8.99-3-8.99-8.99m8.99 8.99c-5.99 0-8.99-3-8.99-8.99m0 0v-17.99m0 17.99v-17.99m0 0c0-5.99 3-8.99 8.99-8.99m-8.99 8.99c0-5.99 3-8.99 8.99-8.99" stroke="#1971c2" fill="none"/></g><g font-family="Virgil, Segoe UI Emoji" font-size="16.629" fill="#1971c2" dominant-baseline="alphabetic"><text y="14.567" style="white-space:pre" transform="translate(1120.693 457.898)">Consumer group
    </text><text y="35.354" style="white-space:pre" transform="translate(1120.693 457.898)">details</text></g><g stroke-linecap="round"><path d="M1284.017 451.956h125.98c6 0 9 3 9 8.99v17.99c0 5.99-3 8.99-9 8.99h-125.98c-5.99 0-8.99-3-8.99-8.99v-17.99c0-5.99 3-8.99 8.99-8.99" stroke-width="0" fill="#a5d8ff"/><path d="M1284.017 451.956h125.98m-125.98 0h125.98m0 0c6 0 9 3 9 8.99m-9-8.99c6 0 9 3 9 8.99m0 0v17.99m0-17.99v17.99m0 0c0 5.99-3 8.99-9 8.99m9-8.99c0 5.99-3 8.99-9 8.99m0 0h-125.98m125.98 0h-125.98m0 0c-5.99 0-8.99-3-8.99-8.99m8.99 8.99c-5.99 0-8.99-3-8.99-8.99m0 0v-17.99m0 17.99v-17.99m0 0c0-5.99 3-8.99 8.99-8.99m-8.99 8.99c0-5.99 3-8.99 8.99-8.99" stroke="#1971c2" fill="none"/></g><text y="14.567" font-family="Virgil, Segoe UI Emoji" font-size="16.629" fill="#1971c2" style="white-space:pre" dominant-baseline="alphabetic" transform="translate(1283.19 457.37)">Producer
      details</text><text y="20.081" font-family="Virgil, Segoe UI Emoji" font-size="22.924" fill="#1e1e1e" style="white-space:pre" dominant-baseline="alphabetic" transform="translate(303.96 459.273)">T1</text><text y="20.081" font-family="Virgil, Segoe UI Emoji" font-size="22.924" fill="#1e1e1e" style="white-space:pre" dominant-baseline="alphabetic" transform="translate(475.763 459.273)">P2</text><text y="20.081" font-family="Virgil, Segoe UI Emoji" font-size="22.924" fill="#1e1e1e" style="white-space:pre" dominant-baseline="alphabetic" transform="translate(657.157 459.273)">10ms</text><text y="20.081" font-family="Virgil, Segoe UI Emoji" font-size="22.924" fill="#1e1e1e" style="white-space:pre" dominant-baseline="alphabetic" transform="translate(805.051 459.273)">20</text><g stroke-linecap="round"><path d="M955.625 517.534h125.98c6 0 9 3 9 8.99v17.99c0 5.99-3 8.99-9 8.99h-125.98c-5.99 0-8.99-3-8.99-8.99v-17.99c0-5.99 3-8.99 8.99-8.99" stroke-width="0" fill="#a5d8ff"/><path d="M955.625 517.534h125.98m-125.98 0h125.98m0 0c6 0 9 3 9 8.99m-9-8.99c6 0 9 3 9 8.99m0 0v17.99m0-17.99v17.99m0 0c0 5.99-3 8.99-9 8.99m9-8.99c0 5.99-3 8.99-9 8.99m0 0h-125.98m125.98 0h-125.98m0 0c-5.99 0-8.99-3-8.99-8.99m8.99 8.99c-5.99 0-8.99-3-8.99-8.99m0 0v-17.99m0 17.99v-17.99m0 0c0-5.99 3-8.99 8.99-8.99m-8.99 8.99c0-5.99 3-8.99 8.99-8.99" stroke="#1971c2" fill="none"/></g><text y="14.567" font-family="Virgil, Segoe UI Emoji" font-size="16.629" fill="#1971c2" style="white-space:pre" dominant-baseline="alphabetic" transform="translate(954.798 522.948)"> P1
      hostmetrics</text><g stroke-linecap="round"><path d="M1121.368 518.063h125.98c6 0 9 3 9 8.99v17.99c0 5.99-3 8.99-9 8.99h-125.98c-5.99 0-8.99-3-8.99-8.99v-17.99c0-5.99 3-8.99 8.99-8.99" stroke-width="0" fill="#a5d8ff"/><path d="M1121.368 518.063h125.98m-125.98 0h125.98m0 0c6 0 9 3 9 8.99m-9-8.99c6 0 9 3 9 8.99m0 0v17.99m0-17.99v17.99m0 0c0 5.99-3 8.99-9 8.99m9-8.99c0 5.99-3 8.99-9 8.99m0 0h-125.98m125.98 0h-125.98m0 0c-5.99 0-8.99-3-8.99-8.99m8.99 8.99c-5.99 0-8.99-3-8.99-8.99m0 0v-17.99m0 17.99v-17.99m0 0c0-5.99 3-8.99 8.99-8.99m-8.99 8.99c0-5.99 3-8.99 8.99-8.99" stroke="#1971c2" fill="none"/></g><g font-family="Virgil, Segoe UI Emoji" font-size="16.629" fill="#1971c2" dominant-baseline="alphabetic"><text y="14.567" style="white-space:pre" transform="translate(1120.54 523.476)">Consumer group
    </text><text y="35.354" style="white-space:pre" transform="translate(1120.54 523.476)">details</text></g><g stroke-linecap="round"><path d="M1283.864 517.534h125.98c6 0 9 3 9 8.99v17.99c0 5.99-3 8.99-9 8.99h-125.98c-5.99 0-8.99-3-8.99-8.99v-17.99c0-5.99 3-8.99 8.99-8.99" stroke-width="0" fill="#a5d8ff"/><path d="M1283.864 517.534h125.98m-125.98 0h125.98m0 0c6 0 9 3 9 8.99m-9-8.99c6 0 9 3 9 8.99m0 0v17.99m0-17.99v17.99m0 0c0 5.99-3 8.99-9 8.99m9-8.99c0 5.99-3 8.99-9 8.99m0 0h-125.98m125.98 0h-125.98m0 0c-5.99 0-8.99-3-8.99-8.99m8.99 8.99c-5.99 0-8.99-3-8.99-8.99m0 0v-17.99m0 17.99v-17.99m0 0c0-5.99 3-8.99 8.99-8.99m-8.99 8.99c0-5.99 3-8.99 8.99-8.99" stroke="#1971c2" fill="none"/></g><text y="14.567" font-family="Virgil, Segoe UI Emoji" font-size="16.629" fill="#1971c2" style="white-space:pre" dominant-baseline="alphabetic" transform="translate(1283.037 522.948)">Producer
      details</text><text y="20.081" font-family="Virgil, Segoe UI Emoji" font-size="22.924" fill="#1e1e1e" style="white-space:pre" dominant-baseline="alphabetic" transform="translate(303.807 524.85)">T2</text><text y="20.081" font-family="Virgil, Segoe UI Emoji" font-size="22.924" fill="#1e1e1e" style="white-space:pre" dominant-baseline="alphabetic" transform="translate(475.61 524.85)">P1</text><text y="20.081" font-family="Virgil, Segoe UI Emoji" font-size="22.924" fill="#1e1e1e" style="white-space:pre" dominant-baseline="alphabetic" transform="translate(657.005 525.003)">40ms</text><text y="20.081" font-family="Virgil, Segoe UI Emoji" font-size="22.924" fill="#1e1e1e" style="white-space:pre" dominant-baseline="alphabetic" transform="translate(804.899 524.85)">300</text><g stroke-linecap="round"><path d="M957.574 585.233h125.98c6 0 9 3 9 8.99v17.99c0 5.99-3 8.99-9 8.99h-125.98c-5.99 0-8.99-3-8.99-8.99v-17.99c0-5.99 3-8.99 8.99-8.99" stroke-width="0" fill="#a5d8ff"/><path d="M957.574 585.233h125.98m-125.98 0h125.98m0 0c6 0 9 3 9 8.99m-9-8.99c6 0 9 3 9 8.99m0 0v17.99m0-17.99v17.99m0 0c0 5.99-3 8.99-9 8.99m9-8.99c0 5.99-3 8.99-9 8.99m0 0h-125.98m125.98 0h-125.98m0 0c-5.99 0-8.99-3-8.99-8.99m8.99 8.99c-5.99 0-8.99-3-8.99-8.99m0 0v-17.99m0 17.99v-17.99m0 0c0-5.99 3-8.99 8.99-8.99m-8.99 8.99c0-5.99 3-8.99 8.99-8.99" stroke="#1971c2" fill="none"/></g><text y="14.567" font-family="Virgil, Segoe UI Emoji" font-size="16.629" fill="#1971c2" style="white-space:pre" dominant-baseline="alphabetic" transform="translate(956.747 590.647)"> P1
      hostmetrics</text><g stroke-linecap="round"><path d="M1123.316 585.762h125.98c6 0 9 3 9 8.99v17.99c0 5.99-3 8.99-9 8.99h-125.98c-5.99 0-8.99-3-8.99-8.99v-17.99c0-5.99 3-8.99 8.99-8.99" stroke-width="0" fill="#a5d8ff"/><path d="M1123.316 585.762h125.98m-125.98 0h125.98m0 0c6 0 9 3 9 8.99m-9-8.99c6 0 9 3 9 8.99m0 0v17.99m0-17.99v17.99m0 0c0 5.99-3 8.99-9 8.99m9-8.99c0 5.99-3 8.99-9 8.99m0 0h-125.98m125.98 0h-125.98m0 0c-5.99 0-8.99-3-8.99-8.99m8.99 8.99c-5.99 0-8.99-3-8.99-8.99m0 0v-17.99m0 17.99v-17.99m0 0c0-5.99 3-8.99 8.99-8.99m-8.99 8.99c0-5.99 3-8.99 8.99-8.99" stroke="#1971c2" fill="none"/></g><g font-family="Virgil, Segoe UI Emoji" font-size="16.629" fill="#1971c2" dominant-baseline="alphabetic"><text y="14.567" style="white-space:pre" transform="translate(1122.49 591.175)">Consumer group
    </text><text y="35.354" style="white-space:pre" transform="translate(1122.49 591.175)">details</text></g><g stroke-linecap="round"><path d="M1285.813 585.233h125.98c6 0 9 3 9 8.99v17.99c0 5.99-3 8.99-9 8.99h-125.98c-5.99 0-8.99-3-8.99-8.99v-17.99c0-5.99 3-8.99 8.99-8.99" stroke-width="0" fill="#a5d8ff"/><path d="M1285.813 585.233h125.98m-125.98 0h125.98m0 0c6 0 9 3 9 8.99m-9-8.99c6 0 9 3 9 8.99m0 0v17.99m0-17.99v17.99m0 0c0 5.99-3 8.99-9 8.99m9-8.99c0 5.99-3 8.99-9 8.99m0 0h-125.98m125.98 0h-125.98m0 0c-5.99 0-8.99-3-8.99-8.99m8.99 8.99c-5.99 0-8.99-3-8.99-8.99m0 0v-17.99m0 17.99v-17.99m0 0c0-5.99 3-8.99 8.99-8.99m-8.99 8.99c0-5.99 3-8.99 8.99-8.99" stroke="#1971c2" fill="none"/></g><text y="14.567" font-family="Virgil, Segoe UI Emoji" font-size="16.629" fill="#1971c2" style="white-space:pre" dominant-baseline="alphabetic" transform="translate(1284.986 590.647)">Producer
      details</text><text y="20.081" font-family="Virgil, Segoe UI Emoji" font-size="22.924" fill="#1e1e1e" style="white-space:pre" dominant-baseline="alphabetic" transform="translate(305.756 592.55)">T3</text><text y="20.081" font-family="Virgil, Segoe UI Emoji" font-size="22.924" fill="#1e1e1e" style="white-space:pre" dominant-baseline="alphabetic" transform="translate(477.56 592.55)">P0</text><text y="20.081" font-family="Virgil, Segoe UI Emoji" font-size="22.924" fill="#1e1e1e" style="white-space:pre" dominant-baseline="alphabetic" transform="translate(658.953 592.702)">40ms</text><text y="20.081" font-family="Virgil, Segoe UI Emoji" font-size="22.924" fill="#1e1e1e" style="white-space:pre" dominant-baseline="alphabetic" transform="translate(806.847 592.55)">300</text><path d="M10.094 60.913c476.52 3.27 953.04 4.26 1440 0m-1440 0c292.05 1.06 583.35.94 1440 0m0 0c2.06 201.85 1.13 403.07 0 900m0-900c2.84 327.33 2.18 654.01 0 900m0 0c-515.06-.75-1029.5-1.82-1440 0m1440 0c-323.27-3.2-646.08-3.38-1440 0m0 0c2.99-313.93 2.37-628.34 0-900m0 900c3.26-281.83 3.4-563.58 0-900" stroke="#000" fill="none" stroke-linecap="round"/><path d="M217.969 57.757v902.79m0-902.79v902.79M10 132.294h1441.02m-1441.02 0h1441.02" stroke="#1e1e1e" fill="none" stroke-linecap="round"/><text y="24.528" font-family="Virgil, Segoe UI Emoji" font-size="28" fill="#2f9e44" style="white-space:pre" dominant-baseline="alphabetic" transform="translate(593.29 10)">Partition Wise Latency</text></svg>