<svg version="1.1" xmlns="http://www.w3.org/2000/svg" viewBox="0 0 1461.0205078125 923.1557769220149" width="1461.0205078125" height="923.1557769220149">
  <!-- svg-source:excalidraw -->
  
  <defs>
    <style class="style-fonts">
      @font-face {
        font-family: "Virgil";
        src: url("https://excalidraw.com/Virgil.woff2");
      }
      @font-face {
        font-family: "Cascadia";
        src: url("https://excalidraw.com/Cascadia.woff2");
      }
      @font-face {
        font-family: "Assistant";
        src: url("https://app.excalidraw.com//dist/excalidraw-assets/Assistant-Regular.woff2");
      }
    </style>
    
  </defs>
  <rect x="0" y="0" width="1461.0205078125" height="923.1557769220149" fill="#ffffff"></rect><g transform="translate(270.67229798693586 266.3546881904324) rotate(0 35.21116260114982 14.327465287908922)"><text x="0" y="20.081375347533132" font-family="Virgil, Segoe UI Emoji" font-size="22.923944460654262px" fill="#1e1e1e" text-anchor="start" style="white-space: pre;" direction="ltr" dominant-baseline="alphabetic">Topic </text></g><g stroke-linecap="round"><g transform="translate(260.57794744318187 306.8633576255436) rotate(0 436.7824897270697 0)"><path d="M0 0 C145.59 0, 727.97 0, 873.56 0 M0 0 C145.59 0, 727.97 0, 873.56 0" stroke="#1e1e1e" stroke-width="2" fill="none"></path></g></g><mask></mask><g transform="translate(380.0189700163661 235.91918318195508) rotate(0 54.56102752685547 28.654930575817843)"><text x="0" y="20.08137534753314" font-family="Virgil, Segoe UI Emoji" font-size="22.92394446065427px" fill="#1e1e1e" text-anchor="start" style="white-space: pre;" direction="ltr" dominant-baseline="alphabetic">Producer </text><text x="0" y="48.736305923350976" font-family="Virgil, Segoe UI Emoji" font-size="22.92394446065427px" fill="#1e1e1e" text-anchor="start" style="white-space: pre;" direction="ltr" dominant-baseline="alphabetic">Service</text></g><g stroke-linecap="round"><g transform="translate(352.51644699067856 271.10202967971486) rotate(0 -2.842170943040401e-14 199.99406575421142)"><path d="M0 0 C0 66.66, 0 333.32, 0 399.99" stroke="#1e1e1e" stroke-width="2.5" fill="none" stroke-dasharray="1.5 8"></path></g></g><mask></mask><g stroke-linecap="round"><g transform="translate(515.8433211156967 270.04289397697016) rotate(0 -5.684341886080802e-14 199.99406575421142)"><path d="M0 0 C0 66.66, 0 333.32, 0 399.99" stroke="#1e1e1e" stroke-width="2.5" fill="none" stroke-dasharray="1.5 8"></path></g></g><mask></mask><g transform="translate(848.0135996572703 268.544034090909) rotate(0 81.77834336079167 14.327465287908922)"><text x="0" y="20.08137534753314" font-family="Virgil, Segoe UI Emoji" font-size="22.923944460654265px" fill="#1e1e1e" text-anchor="start" style="white-space: pre;" direction="ltr" dominant-baseline="alphabetic">p99 latency</text></g><g stroke-linecap="round"><g transform="translate(682.9853959749034 268.68617581732155) rotate(0 -5.684341886080802e-14 199.99406575421142)"><path d="M0 0 C0 66.66, 0 333.32, 0 399.99" stroke="#1e1e1e" stroke-width="2.5" fill="none" stroke-dasharray="1.5 8"></path></g></g><mask></mask><g transform="translate(536.9914327701761 231.97575158364384) rotate(0 50.515647888183594 28.654930575817843)"><text x="0" y="20.081375347533132" font-family="Virgil, Segoe UI Emoji" font-size="22.923944460654262px" fill="#1e1e1e" text-anchor="start" style="white-space: pre;" direction="ltr" dominant-baseline="alphabetic">Ingestion</text><text x="0" y="48.73630592335096" font-family="Virgil, Segoe UI Emoji" font-size="22.923944460654262px" fill="#1e1e1e" text-anchor="start" style="white-space: pre;" direction="ltr" dominant-baseline="alphabetic">Rate</text></g><g stroke-linecap="round"><g transform="translate(822.9231506778069 268.36440292637326) rotate(0 -5.684341886080802e-14 199.99406575421142)"><path d="M0 0 C0 66.66, 0 333.32, 0 399.99" stroke="#1e1e1e" stroke-width="2.5" fill="none" stroke-dasharray="1.5 8"></path></g></g><mask></mask><g transform="translate(264.3336256818942 339.3841807571796) rotate(0 12.321617961403973 14.327465287908922)"><text x="0" y="20.08137534753314" font-family="Virgil, Segoe UI Emoji" font-size="22.923944460654265px" fill="#1e1e1e" text-anchor="start" style="white-space: pre;" direction="ltr" dominant-baseline="alphabetic">T1</text></g><g transform="translate(371.13723545633366 339.3841807571796) rotate(0 54.35474395751953 14.327465287908922)"><text x="0" y="20.08137534753314" font-family="Virgil, Segoe UI Emoji" font-size="22.923944460654265px" fill="#1e1e1e" text-anchor="start" style="white-space: pre;" direction="ltr" dominant-baseline="alphabetic">Pservice 1</text></g><g transform="translate(852.5310446712913 339.49611407974135) rotate(0 32.357125219549005 14.327465287908922)"><text x="0" y="20.08137534753314" font-family="Virgil, Segoe UI Emoji" font-size="22.92394446065427px" fill="#1e1e1e" text-anchor="start" style="white-space: pre;" direction="ltr" dominant-baseline="alphabetic">100ms</text></g><g transform="translate(540.4252764003372 339.49611407974135) rotate(0 51.86792755126953 14.327465287908922)"><text x="0" y="20.08137534753314" font-family="Virgil, Segoe UI Emoji" font-size="22.923944460654265px" fill="#1e1e1e" text-anchor="start" style="white-space: pre;" direction="ltr" dominant-baseline="alphabetic">50 msg/s</text></g><g transform="translate(263.80837456582265 412.0964722421877) rotate(0 12.321617961403973 14.327465287908922)"><text x="0" y="20.08137534753314" font-family="Virgil, Segoe UI Emoji" font-size="22.923944460654265px" fill="#1e1e1e" text-anchor="start" style="white-space: pre;" direction="ltr" dominant-baseline="alphabetic">T1</text></g><g transform="translate(370.6119843402621 412.0964722421877) rotate(0 59.408599853515625 14.327465287908922)"><text x="0" y="20.08137534753314" font-family="Virgil, Segoe UI Emoji" font-size="22.923944460654265px" fill="#1e1e1e" text-anchor="start" style="white-space: pre;" direction="ltr" dominant-baseline="alphabetic">Pservice 2</text></g><g transform="translate(857.0057935552197 412.0964722421877) rotate(0 24.471291473208623 14.327465287908922)"><text x="0" y="20.08137534753314" font-family="Virgil, Segoe UI Emoji" font-size="22.923944460654265px" fill="#1e1e1e" text-anchor="start" style="white-space: pre;" direction="ltr" dominant-baseline="alphabetic">10ms</text></g><g transform="translate(539.9000252842657 412.0964722421877) rotate(0 52.945167541503906 14.327465287908922)"><text x="0" y="20.08137534753314" font-family="Virgil, Segoe UI Emoji" font-size="22.923944460654265px" fill="#1e1e1e" text-anchor="start" style="white-space: pre;" direction="ltr" dominant-baseline="alphabetic">20 msg/s</text></g><g transform="translate(263.80710540437485 477.38604969100084) rotate(0 17.376347540082406 14.327465287908922)"><text x="0" y="20.08137534753314" font-family="Virgil, Segoe UI Emoji" font-size="22.923944460654265px" fill="#1e1e1e" text-anchor="start" style="white-space: pre;" direction="ltr" dominant-baseline="alphabetic">T2</text></g><g transform="translate(370.6107151788144 477.54229969100084) rotate(0 55.099639892578125 14.327465287908922)"><text x="0" y="20.08137534753314" font-family="Virgil, Segoe UI Emoji" font-size="22.923944460654265px" fill="#1e1e1e" text-anchor="start" style="white-space: pre;" direction="ltr" dominant-baseline="alphabetic">PService 1</text></g><g transform="translate(857.004524393772 477.5386860399485) rotate(0 28.700753279741548 14.327465287908922)"><text x="0" y="20.08137534753314" font-family="Virgil, Segoe UI Emoji" font-size="22.92394446065427px" fill="#1e1e1e" text-anchor="start" style="white-space: pre;" direction="ltr" dominant-baseline="alphabetic">40ms</text></g><g transform="translate(544.898756122818 477.38604969100084) rotate(0 60.474388122558594 14.327465287908922)"><text x="0" y="20.08137534753314" font-family="Virgil, Segoe UI Emoji" font-size="22.923944460654265px" fill="#1e1e1e" text-anchor="start" style="white-space: pre;" direction="ltr" dominant-baseline="alphabetic">300 msg/s</text></g><g stroke-linecap="round" transform="translate(10.09400614754145 13.155776922014866) rotate(0 720 450)"><path d="M0 0 C523.63 2.31, 1047.28 2.04, 1440 0 M0 0 C296.09 -5.76, 592.02 -5.99, 1440 0 M1440 0 C1439.34 249.37, 1440.05 500.21, 1440 900 M1440 0 C1438.86 359.09, 1438.85 717.91, 1440 900 M1440 900 C1137.95 904.55, 835.38 905.28, 0 900 M1440 900 C1062.45 903, 684.74 903.35, 0 900 M0 900 C2.76 693.49, 2.23 487.84, 0 0 M0 900 C-0.37 663.01, -0.12 425.74, 0 0" stroke="#000000" stroke-width="1" fill="none"></path></g><g stroke-linecap="round"><g transform="translate(217.96875 10) rotate(0 -2.842170943040401e-14 451.39404296875)"><path d="M0 0 C0 150.46, 0 752.32, 0 902.79 M0 0 C0 150.46, 0 752.32, 0 902.79" stroke="#1e1e1e" stroke-width="1" fill="none"></path></g></g><mask></mask><g stroke-linecap="round"><g transform="translate(10 84.5361328125) rotate(0 720.51025390625 0)"><path d="M0 0 C240.17 0, 1200.85 0, 1441.02 0 M0 0 C240.17 0, 1200.85 0, 1441.02 0" stroke="#1e1e1e" stroke-width="1" fill="none"></path></g></g><mask></mask><g stroke-linecap="round" transform="translate(286.6240931919639 137.79468533600834) rotate(0 249.8967633928571 22.5)"><path d="M0 0 L499.79 0 L499.79 45 L0 45" stroke="none" stroke-width="0" fill="#a5d8ff"></path><path d="M0 0 C132.43 0, 264.87 0, 499.79 0 M0 0 C99.99 0, 199.98 0, 499.79 0 M499.79 0 C499.79 17.7, 499.79 35.39, 499.79 45 M499.79 0 C499.79 16.25, 499.79 32.51, 499.79 45 M499.79 45 C334.87 45, 169.94 45, 0 45 M499.79 45 C354.18 45, 208.57 45, 0 45 M0 45 C0 27.22, 0 9.45, 0 0 M0 45 C0 31.46, 0 17.92, 0 0" stroke="#1971c2" stroke-width="4" fill="none"></path></g><g transform="translate(469.264882768903 142.79468533600834) rotate(0 67.25597381591797 17.5)"><text x="67.25597381591797" y="24.528" font-family="Virgil, Segoe UI Emoji" font-size="28px" fill="#1971c2" text-anchor="middle" style="white-space: pre;" direction="ltr" dominant-baseline="alphabetic">Producers</text></g><g stroke-linecap="round" transform="translate(879.151994977678 139.46460721100834) rotate(0 248.5770089285715 22.5)"><path d="M0 0 L497.15 0 L497.15 45 L0 45" stroke="none" stroke-width="0" fill="#ffffff"></path><path d="M0 0 C160.52 0, 321.04 0, 497.15 0 M0 0 C120.23 0, 240.46 0, 497.15 0 M497.15 0 C497.15 17.15, 497.15 34.3, 497.15 45 M497.15 0 C497.15 12.8, 497.15 25.6, 497.15 45 M497.15 45 C328.27 45, 159.39 45, 0 45 M497.15 45 C303.05 45, 108.95 45, 0 45 M0 45 C0 33.1, 0 21.19, 0 0 M0 45 C0 27.6, 0 10.19, 0 0" stroke="#1e1e1e" stroke-width="2" fill="none"></path></g><g transform="translate(1058.7230300903316 144.46460721100834) rotate(0 69.00597381591797 17.5)"><text x="69.00597381591797" y="24.528" font-family="Virgil, Segoe UI Emoji" font-size="28px" fill="#1e1e1e" text-anchor="middle" style="white-space: pre;" direction="ltr" dominant-baseline="alphabetic">Consumers</text></g><g stroke-linecap="round"><g transform="translate(1167.6567663887909 69.97241971100834) rotate(0 -33.17606813761813 27.86272321428578)"><path d="M0 0 C-18.41 15.46, -36.82 30.93, -66.35 55.73 M0 0 C-26.45 22.22, -52.91 44.44, -66.35 55.73" stroke="#2f9e44" stroke-width="1" fill="none"></path></g><g transform="translate(1167.6567663887909 69.97241971100834) rotate(0 -33.17606813761813 27.86272321428578)"><path d="M-66.35 55.73 L-60.02 42.13 L-51.86 51.84 L-66.35 55.73" stroke="none" stroke-width="0" fill="#2f9e44" fill-rule="evenodd"></path><path d="M-66.35 55.73 C-64.59 51.95, -62.84 48.18, -60.02 42.13 M-66.35 55.73 C-63.83 50.3, -61.3 44.88, -60.02 42.13 M-60.02 42.13 C-58.31 44.16, -56.6 46.2, -51.86 51.84 M-60.02 42.13 C-57.88 44.67, -55.74 47.22, -51.86 51.84 M-51.86 51.84 C-55.19 52.73, -58.51 53.62, -66.35 55.73 M-51.86 51.84 C-55.68 52.86, -59.5 53.89, -66.35 55.73 M-66.35 55.73 C-66.35 55.73, -66.35 55.73, -66.35 55.73 M-66.35 55.73 C-66.35 55.73, -66.35 55.73, -66.35 55.73" stroke="#2f9e44" stroke-width="1" fill="none"></path></g></g><mask></mask><g transform="translate(1148.8115931919633 23.228558103865453) rotate(0 119.9039306640625 20)"><text x="0" y="14.016" font-family="Virgil, Segoe UI Emoji" font-size="16px" fill="#2f9e44" text-anchor="start" style="white-space: pre;" direction="ltr" dominant-baseline="alphabetic">At a time, either producer or </text><text x="0" y="34.016" font-family="Virgil, Segoe UI Emoji" font-size="16px" fill="#2f9e44" text-anchor="start" style="white-space: pre;" direction="ltr" dominant-baseline="alphabetic">consumer tab is selected</text></g><g transform="translate(701.3033196585516 341.325757994528) rotate(0 45.725372314453125 14.327465287908922)"><text x="0" y="20.08137534753314" font-family="Virgil, Segoe UI Emoji" font-size="22.923944460654265px" fill="#1e1e1e" text-anchor="start" style="white-space: pre;" direction="ltr" dominant-baseline="alphabetic">50 mb/s</text></g><g transform="translate(701.957593645368 412.800367369528) rotate(0 48.785194396972656 14.327465287908922)"><text x="0" y="20.08137534753314" font-family="Virgil, Segoe UI Emoji" font-size="22.923944460654265px" fill="#1e1e1e" text-anchor="start" style="white-space: pre;" direction="ltr" dominant-baseline="alphabetic">5.3 mb/s</text></g><g transform="translate(701.2268731253484 476.667554869528) rotate(0 49.942649841308594 14.327465287908922)"><text x="0" y="20.08137534753314" font-family="Virgil, Segoe UI Emoji" font-size="22.923944460654265px" fill="#1e1e1e" text-anchor="start" style="white-space: pre;" direction="ltr" dominant-baseline="alphabetic">0.2 mb/s</text></g><g transform="translate(702.9014489310125 542.443922057028) rotate(0 45.16383361816406 14.327465287908922)"><text x="0" y="20.08137534753314" font-family="Virgil, Segoe UI Emoji" font-size="22.923944460654265px" fill="#1971c2" text-anchor="start" style="white-space: pre;" direction="ltr" dominant-baseline="alphabetic">1.2 mb/s</text></g><g transform="translate(703.8177086966373 236.26098801911894) rotate(0 28.157203674316406 28.654930575817843)"><text x="0" y="20.081375347533132" font-family="Virgil, Segoe UI Emoji" font-size="22.923944460654262px" fill="#1e1e1e" text-anchor="start" style="white-space: pre;" direction="ltr" dominant-baseline="alphabetic">Byte</text><text x="0" y="48.73630592335096" font-family="Virgil, Segoe UI Emoji" font-size="22.923944460654262px" fill="#1e1e1e" text-anchor="start" style="white-space: pre;" direction="ltr" dominant-baseline="alphabetic">Rate</text></g><g stroke-linecap="round"><g transform="translate(988.5472237723209 266.4794700282255) rotate(0 -5.684341886080802e-14 199.99406575421142)"><path d="M0 0 C0 66.66, 0 333.32, 0 399.99" stroke="#1e1e1e" stroke-width="2.5" fill="none" stroke-dasharray="1.5 8"></path></g></g><mask></mask><g transform="translate(1016.0394341605048 238.23364426911894) rotate(0 28.85626220703125 28.654930575817843)"><text x="0" y="20.081375347533132" font-family="Virgil, Segoe UI Emoji" font-size="22.923944460654262px" fill="#1e1e1e" text-anchor="start" style="white-space: pre;" direction="ltr" dominant-baseline="alphabetic">Error</text><text x="0" y="48.73630592335096" font-family="Virgil, Segoe UI Emoji" font-size="22.923944460654262px" fill="#1e1e1e" text-anchor="start" style="white-space: pre;" direction="ltr" dominant-baseline="alphabetic">Rate</text></g><g transform="translate(1011.3608605521064 339.49611407974135) rotate(0 33.050621032714844 14.327465287908922)"><text x="0" y="20.08137534753314" font-family="Virgil, Segoe UI Emoji" font-size="22.923944460654265px" fill="#1e1e1e" text-anchor="start" style="white-space: pre;" direction="ltr" dominant-baseline="alphabetic">10.2%</text></g><g transform="translate(1011.3608605521064 412.0964722421877) rotate(0 33.050621032714844 14.327465287908922)"><text x="0" y="20.08137534753314" font-family="Virgil, Segoe UI Emoji" font-size="22.923944460654265px" fill="#1e1e1e" text-anchor="start" style="white-space: pre;" direction="ltr" dominant-baseline="alphabetic">0.2%</text></g><g transform="translate(1011.3608605521064 477.54229969100084) rotate(0 33.050621032714844 14.327465287908922)"><text x="0" y="20.08137534753314" font-family="Virgil, Segoe UI Emoji" font-size="22.923944460654265px" fill="#1e1e1e" text-anchor="start" style="white-space: pre;" direction="ltr" dominant-baseline="alphabetic">22%</text></g><g transform="translate(265.7557627926095 544.9388739526894) rotate(0 17.02102482687991 14.327465287908922)"><text x="0" y="20.08137534753314" font-family="Virgil, Segoe UI Emoji" font-size="22.923944460654265px" fill="#1971c2" text-anchor="start" style="white-space: pre;" direction="ltr" dominant-baseline="alphabetic">T3</text></g><g transform="translate(367.5593725670491 544.9388739526894) rotate(0 59.798240661621094 14.327465287908922)"><text x="0" y="20.08137534753314" font-family="Virgil, Segoe UI Emoji" font-size="22.923944460654265px" fill="#1971c2" text-anchor="start" style="white-space: pre;" direction="ltr" dominant-baseline="alphabetic">PService 3</text></g><g transform="translate(863.9531817820066 545.0915103016375) rotate(0 28.700753279741548 14.327465287908922)"><text x="0" y="20.08137534753314" font-family="Virgil, Segoe UI Emoji" font-size="22.92394446065427px" fill="#1971c2" text-anchor="start" style="white-space: pre;" direction="ltr" dominant-baseline="alphabetic">40ms</text></g><g transform="translate(541.8474135110528 544.9388739526894) rotate(0 60.474388122558594 14.327465287908922)"><text x="0" y="20.08137534753314" font-family="Virgil, Segoe UI Emoji" font-size="22.923944460654265px" fill="#1971c2" text-anchor="start" style="white-space: pre;" direction="ltr" dominant-baseline="alphabetic">300 msg/s</text></g><g transform="translate(1011.3608605521064 545.0915103016375) rotate(0 33.050621032714844 14.327465287908922)"><text x="0" y="20.08137534753314" font-family="Virgil, Segoe UI Emoji" font-size="22.923944460654265px" fill="#1971c2" text-anchor="start" style="white-space: pre;" direction="ltr" dominant-baseline="alphabetic">0.5%</text></g><g stroke-linecap="round"><g transform="translate(333.278669084821 715.0868170324368) rotate(0 41.6748046875 -66.20849609375)"><path d="M0 0 C32.92 -52.31, 65.85 -104.61, 83.35 -132.42 M0 0 C25.08 -39.85, 50.17 -79.7, 83.35 -132.42" stroke="#2f9e44" stroke-width="1" fill="none"></path></g><g transform="translate(333.278669084821 715.0868170324368) rotate(0 41.6748046875 -66.20849609375)"><path d="M83.35 -132.42 L81.47 -117.53 L70.74 -124.29 L83.35 -132.42" stroke="none" stroke-width="0" fill="#2f9e44" fill-rule="evenodd"></path><path d="M83.35 -132.42 C82.61 -126.54, 81.87 -120.66, 81.47 -117.53 M83.35 -132.42 C82.78 -127.94, 82.22 -123.46, 81.47 -117.53 M81.47 -117.53 C79.19 -118.97, 76.9 -120.41, 70.74 -124.29 M81.47 -117.53 C79.17 -118.98, 76.88 -120.43, 70.74 -124.29 M70.74 -124.29 C75.49 -127.35, 80.25 -130.42, 83.35 -132.42 M70.74 -124.29 C74.6 -126.78, 78.47 -129.27, 83.35 -132.42 M83.35 -132.42 C83.35 -132.42, 83.35 -132.42, 83.35 -132.42 M83.35 -132.42 C83.35 -132.42, 83.35 -132.42, 83.35 -132.42" stroke="#2f9e44" stroke-width="1" fill="none"></path></g></g><mask></mask><g transform="translate(318.581403459821 733.0702154699368) rotate(0 203.40786743164062 10)"><text x="0" y="14.016" font-family="Virgil, Segoe UI Emoji" font-size="16px" fill="#2f9e44" text-anchor="start" style="white-space: pre;" direction="ltr" dominant-baseline="alphabetic">Each row is clickable which will open up a side panel</text></g><g stroke-linecap="round" transform="translate(246.349958147321 533.8416998449368) rotate(0 423.1445312500001 25.95703125)"><path d="M0 0 C223.85 0, 447.71 0, 846.29 0 M846.29 0 C846.29 20.08, 846.29 40.16, 846.29 51.91 M846.29 51.91 C675.74 51.91, 505.19 51.91, 0 51.91 M0 51.91 C0 34.32, 0 16.72, 0 0" stroke="#1971c2" stroke-width="1.5" fill="none" stroke-dasharray="8 9"></path></g><g stroke-linecap="round" transform="translate(818.45947265625 210.65015408600743) rotate(0 315.43945312500006 348.75732421875)"><path d="M0 0 L630.88 0 L630.88 697.51 L0 697.51" stroke="none" stroke-width="0" fill="#ffffff"></path><path d="M0 0 C177.97 0, 355.94 0, 630.88 0 M0 0 C173.05 0, 346.11 0, 630.88 0 M630.88 0 C630.88 191.13, 630.88 382.25, 630.88 697.51 M630.88 0 C630.88 238.89, 630.88 477.78, 630.88 697.51 M630.88 697.51 C439.18 697.51, 247.48 697.51, 0 697.51 M630.88 697.51 C472.67 697.51, 314.46 697.51, 0 697.51 M0 697.51 C0 466.72, 0 235.92, 0 0 M0 697.51 C0 461.09, 0 224.66, 0 0" stroke="#1e1e1e" stroke-width="1" fill="none"></path></g><g stroke-linecap="round"><g transform="translate(266.4582170758931 187.34937283600743) rotate(0 564.8186383928569 0)"><path d="M0 0 C242.24 0, 484.47 0, 1129.64 0 M0 0 C285.94 0, 571.88 0, 1129.64 0" stroke="#1e1e1e" stroke-width="2" fill="none"></path></g></g><mask></mask><g stroke-linecap="round"><g transform="translate(848.6494268046999 341.7182149620419) rotate(0 283.72392283945493 0)"><path d="M0 0 C118.96 0, 237.91 0, 567.45 0 M0 0 C191.57 0, 383.15 0, 567.45 0" stroke="#1e1e1e" stroke-width="1" fill="none"></path></g></g><mask></mask><g transform="translate(983.3227349808035 297.35305393081285) rotate(0 64.51441761407335 14.170282250773198)"><text x="0" y="19.86106760268364" font-family="Virgil, Segoe UI Emoji" font-size="22.672451601237032px" fill="#1e1e1e" text-anchor="start" style="white-space: pre;" direction="ltr" dominant-baseline="alphabetic">p99 latency</text></g><g transform="translate(831.5889382460487 366.35594129888955) rotate(0 58.01249694824219 14.170282250773198)"><text x="0" y="19.86106760268364" font-family="Virgil, Segoe UI Emoji" font-size="22.672451601237032px" fill="#1971c2" text-anchor="start" style="white-space: pre;" direction="ltr" dominant-baseline="alphabetic">Partition 1</text></g><g transform="translate(829.5812680302115 440.49391703962806) rotate(0 63.01123046875 14.170282250773198)"><text x="0" y="19.86106760268364" font-family="Virgil, Segoe UI Emoji" font-size="22.672451601237032px" fill="#1971c2" text-anchor="start" style="white-space: pre;" direction="ltr" dominant-baseline="alphabetic">Partition 2</text></g><g transform="translate(834.2410326749593 516.1705135149266) rotate(0 62.65984344482422 14.170282250773198)"><text x="0" y="19.86106760268364" font-family="Virgil, Segoe UI Emoji" font-size="22.672451601237032px" fill="#1971c2" text-anchor="start" style="white-space: pre;" direction="ltr" dominant-baseline="alphabetic">Partition 3</text></g><g transform="translate(995.3621146262909 363.33567357418247) rotate(0 37.993193046437796 14.29176022318427)"><text x="0" y="20.031331128815133" font-family="Virgil, Segoe UI Emoji" font-size="22.866816357094898px" fill="#1971c2" text-anchor="start" style="white-space: pre;" direction="ltr" dominant-baseline="alphabetic">100 ms</text></g><g transform="translate(1024.2038358188793 397.2902347684965) rotate(0 12.799822228938524 9.87641255266658)"><text x="0" y="13.84277983381746" font-family="Virgil, Segoe UI Emoji" font-size="15.802260084266504px" fill="#e03131" text-anchor="start" style="white-space: pre;" direction="ltr" dominant-baseline="alphabetic">3%</text></g><g stroke-linecap="round"><g transform="translate(1057.1140324240423 413.24629289236213) rotate(0 0.16677386838921393 -5.954377797475331)"><path d="M0 0 C0.09 -3.33, 0.19 -6.66, 0.33 -11.91 M0 0 C0.13 -4.75, 0.27 -9.51, 0.33 -11.91" stroke="#e03131" stroke-width="1" fill="none"></path></g><g transform="translate(1057.1140324240423 413.24629289236213) rotate(0 0.16677386838921393 -5.954377797475331)"><path d="M2.21 -6.26 C1.69 -7.84, 1.16 -9.42, 0.33 -11.91 M2.21 -6.26 C1.46 -8.51, 0.71 -10.77, 0.33 -11.91" stroke="#e03131" stroke-width="1" fill="none"></path></g><g transform="translate(1057.1140324240423 413.24629289236213) rotate(0 0.16677386838921393 -5.954377797475331)"><path d="M-1.86 -6.37 C-1.25 -7.92, -0.63 -9.47, 0.33 -11.91 M-1.86 -6.37 C-0.98 -8.58, -0.11 -10.79, 0.33 -11.91" stroke="#e03131" stroke-width="1" fill="none"></path></g></g><mask></mask><g transform="translate(1162.0673807944067 363.33567357418247) rotate(0 32.459432036559065 14.29176022318427)"><text x="0" y="20.031331128815133" font-family="Virgil, Segoe UI Emoji" font-size="22.866816357094898px" fill="#1971c2" text-anchor="start" style="white-space: pre;" direction="ltr" dominant-baseline="alphabetic"> 20%</text></g><g transform="translate(1190.9091019869952 397.2902347684965) rotate(0 13.036618918366344 9.87641255266658)"><text x="0" y="13.84277983381746" font-family="Virgil, Segoe UI Emoji" font-size="15.802260084266504px" fill="#e03131" text-anchor="start" style="white-space: pre;" direction="ltr" dominant-baseline="alphabetic">2%</text></g><g stroke-linecap="round"><g transform="translate(1222.4655403836946 415.1945388930196) rotate(0 0.34375926192797124 -8.051854903523235)"><path d="M0 0 C0.24 -5.69, 0.49 -11.38, 0.69 -16.1 M0 0 C0.24 -5.52, 0.47 -11.04, 0.69 -16.1" stroke="#e03131" stroke-width="1" fill="none"></path></g><g transform="translate(1222.4655403836946 415.1945388930196) rotate(0 0.34375926192797124 -8.051854903523235)"><path d="M3.12 -8.42 C2.26 -11.14, 1.4 -13.85, 0.69 -16.1 M3.12 -8.42 C2.29 -11.05, 1.45 -13.69, 0.69 -16.1" stroke="#e03131" stroke-width="1" fill="none"></path></g><g transform="translate(1222.4655403836946 415.1945388930196) rotate(0 0.34375926192797124 -8.051854903523235)"><path d="M-2.39 -8.66 C-1.3 -11.29, -0.21 -13.92, 0.69 -16.1 M-2.39 -8.66 C-1.33 -11.21, -0.28 -13.76, 0.69 -16.1" stroke="#e03131" stroke-width="1" fill="none"></path></g></g><mask></mask><g transform="translate(1286.2397449463092 363.33567357418247) rotate(0 67.05977630615234 14.29176022318427)"><text x="0" y="20.031331128815133" font-family="Virgil, Segoe UI Emoji" font-size="22.866816357094898px" fill="#1e1e1e" text-anchor="start" style="white-space: pre;" direction="ltr" dominant-baseline="alphabetic">  100 msg/s</text></g><g transform="translate(995.3621146262909 521.4107841769198) rotate(0 34.053997396358795 14.170282250773198)"><text x="0" y="19.86106760268364" font-family="Virgil, Segoe UI Emoji" font-size="22.672451601237032px" fill="#1971c2" text-anchor="start" style="white-space: pre;" direction="ltr" dominant-baseline="alphabetic">40 ms</text></g><g transform="translate(1174.7262663544916 520.7573371838932) rotate(0 32.5413115751154 14.574224983798558)"><text x="0" y="20.427233737292035" font-family="Virgil, Segoe UI Emoji" font-size="23.31875997407767px" fill="#1971c2" text-anchor="start" style="white-space: pre;" direction="ltr" dominant-baseline="alphabetic"> 24%</text></g><g transform="translate(1204.1380201914249 555.3829820550716) rotate(0 13.29427685444216 10.071611636883745)"><text x="0" y="14.116370870256183" font-family="Virgil, Segoe UI Emoji" font-size="16.114578619013905px" fill="#e03131" text-anchor="start" style="white-space: pre;" direction="ltr" dominant-baseline="alphabetic">2%</text></g><g stroke-linecap="round"><g transform="translate(1237.6589792453779 567.9793420402045) rotate(0 0.3514412795574344 -6.6684267480175095)"><path d="M0 0 C0.19 -3.53, 0.37 -7.05, 0.7 -13.34 M0 0 C0.18 -3.35, 0.35 -6.7, 0.7 -13.34" stroke="#e03131" stroke-width="1" fill="none"></path></g><g transform="translate(1237.6589792453779 567.9793420402045) rotate(0 0.3514412795574344 -6.6684267480175095)"><path d="M2.65 -6.95 C2.14 -8.64, 1.62 -10.33, 0.7 -13.34 M2.65 -6.95 C2.16 -8.55, 1.67 -10.16, 0.7 -13.34" stroke="#e03131" stroke-width="1" fill="none"></path></g><g transform="translate(1237.6589792453779 567.9793420402045) rotate(0 0.3514412795574344 -6.6684267480175095)"><path d="M-1.91 -7.19 C-1.22 -8.82, -0.53 -10.44, 0.7 -13.34 M-1.91 -7.19 C-1.25 -8.73, -0.6 -10.28, 0.7 -13.34" stroke="#e03131" stroke-width="1" fill="none"></path></g></g><mask></mask><g transform="translate(1286.7987424068406 521.8447534992472) rotate(0 68.55403137207031 14.170282250773198)"><text x="0" y="19.86106760268364" font-family="Virgil, Segoe UI Emoji" font-size="22.672451601237032px" fill="#1e1e1e" text-anchor="start" style="white-space: pre;" direction="ltr" dominant-baseline="alphabetic">   40 msg/s</text></g><g transform="translate(1158.3661113373946 298.65819987952887) rotate(0 62.0657973385438 14.170282250773198)"><text x="0" y="19.86106760268364" font-family="Virgil, Segoe UI Emoji" font-size="22.672451601237032px" fill="#1e1e1e" text-anchor="start" style="white-space: pre;" direction="ltr" dominant-baseline="alphabetic">Error Rate</text></g><g transform="translate(1308.587059809608 297.6093722933854) rotate(0 62.013755798339844 14.170282250773198)"><text x="0" y="19.86106760268364" font-family="Virgil, Segoe UI Emoji" font-size="22.672451601237032px" fill="#1e1e1e" text-anchor="start" style="white-space: pre;" direction="ltr" dominant-baseline="alphabetic">Throughput</text></g><g stroke-linecap="round"><g transform="translate(1094.566732557431 656.478052281547) rotate(0 -14.021919773921013 -51.874776532932856)"><path d="M-0.82 0.75 C-5.35 -16.59, -23.52 -86.99, -28.09 -104.5 M0.95 0.1 C-3.64 -17.05, -24 -86.04, -28.99 -103.25" stroke="#2f9e44" stroke-width="1" fill="none"></path></g><g transform="translate(1094.566732557431 656.478052281547) rotate(0 -14.021919773921013 -51.874776532932856)"><path d="M-28.72 -104.25 L-17.35 -92.11 L-31.61 -87.48 L-27.73 -103.24" stroke="none" stroke-width="0" fill="#2f9e44" fill-rule="evenodd"></path><path d="M-28.99 -103.25 C-25.9 -100.58, -25.34 -98.26, -19.09 -91.99 M-28.99 -103.25 C-26.9 -100.64, -23.19 -96.45, -19.09 -91.99 M-19.09 -91.99 C-23.44 -91.95, -27.65 -90.73, -31.26 -88.43 M-19.09 -91.99 C-22.23 -90.62, -24.49 -90.53, -31.26 -88.43 M-31.26 -88.43 C-31.93 -91.76, -29.2 -93.79, -28.99 -103.25 M-31.26 -88.43 C-29.94 -92.68, -29.65 -97.59, -28.99 -103.25 M-28.99 -103.25 C-28.99 -103.25, -28.99 -103.25, -28.99 -103.25 M-28.99 -103.25 C-28.99 -103.25, -28.99 -103.25, -28.99 -103.25" stroke="#2f9e44" stroke-width="1" fill="none"></path></g></g><mask></mask><g transform="translate(1041.2024512853432 663.0603082109762) rotate(0 90.48750145899908 70.10197417563393)"><text x="0" y="16.37582116742809" font-family="Virgil, Segoe UI Emoji" font-size="18.693859780169053px" fill="#2f9e44" text-anchor="start" style="white-space: pre;" direction="ltr" dominant-baseline="alphabetic">Click these to see </text><text x="0" y="39.743145892639404" font-family="Virgil, Segoe UI Emoji" font-size="18.693859780169053px" fill="#2f9e44" text-anchor="start" style="white-space: pre;" direction="ltr" dominant-baseline="alphabetic">high latency spans </text><text x="0" y="63.11047061785072" font-family="Virgil, Segoe UI Emoji" font-size="18.693859780169053px" fill="#2f9e44" text-anchor="start" style="white-space: pre;" direction="ltr" dominant-baseline="alphabetic">in trace filter page</text><text x="0" y="86.47779534306203" font-family="Virgil, Segoe UI Emoji" font-size="18.693859780169053px" fill="#2f9e44" text-anchor="start" style="white-space: pre;" direction="ltr" dominant-baseline="alphabetic">for that topic, </text><text x="0" y="109.84512006827335" font-family="Virgil, Segoe UI Emoji" font-size="18.693859780169053px" fill="#2f9e44" text-anchor="start" style="white-space: pre;" direction="ltr" dominant-baseline="alphabetic">partition and </text><text x="0" y="133.21244479348468" font-family="Virgil, Segoe UI Emoji" font-size="18.693859780169053px" fill="#2f9e44" text-anchor="start" style="white-space: pre;" direction="ltr" dominant-baseline="alphabetic">producer service</text></g><g stroke-linecap="round"><g transform="translate(1279.9296568437649 649.0119788010786) rotate(0 -18.431681125233922 -36.40380874344203)"><path d="M-0.04 -0.36 C-6.14 -12.01, -30.03 -58.62, -36.49 -70.45 M-1.52 -1.59 C-7.68 -13.58, -30.99 -60.99, -36.82 -72.45" stroke="#2f9e44" stroke-width="1" fill="none"></path></g><g transform="translate(1279.9296568437649 649.0119788010786) rotate(0 -18.431681125233922 -36.40380874344203)"><path d="M-37.17 -71.5 L-23.82 -63.1 L-34.5 -56.08 L-34.94 -73.34" stroke="none" stroke-width="0" fill="#2f9e44" fill-rule="evenodd"></path><path d="M-36.82 -72.45 C-33.69 -68.1, -29.35 -68.1, -25.08 -63.12 M-36.82 -72.45 C-33.86 -69.63, -31.14 -68.38, -25.08 -63.12 M-25.08 -63.12 C-28.3 -62.57, -30.73 -60.99, -36.42 -57.46 M-25.08 -63.12 C-29.97 -61.07, -33.71 -59.28, -36.42 -57.46 M-36.42 -57.46 C-36.37 -62.57, -36.78 -65.05, -36.82 -72.45 M-36.42 -57.46 C-36.97 -62.26, -36.09 -67.79, -36.82 -72.45 M-36.82 -72.45 C-36.82 -72.45, -36.82 -72.45, -36.82 -72.45 M-36.82 -72.45 C-36.82 -72.45, -36.82 -72.45, -36.82 -72.45" stroke="#2f9e44" stroke-width="1" fill="none"></path></g></g><mask></mask><g transform="translate(1267.7034053638927 674.9579605159267) rotate(0 79.6396270439941 81.7856365382396)"><text x="0" y="16.37582116742809" font-family="Virgil, Segoe UI Emoji" font-size="18.693859780169053px" fill="#2f9e44" text-anchor="start" style="white-space: pre;" direction="ltr" dominant-baseline="alphabetic">Click these to </text><text x="0" y="39.743145892639404" font-family="Virgil, Segoe UI Emoji" font-size="18.693859780169053px" fill="#2f9e44" text-anchor="start" style="white-space: pre;" direction="ltr" dominant-baseline="alphabetic">see spans with </text><text x="0" y="63.11047061785072" font-family="Virgil, Segoe UI Emoji" font-size="18.693859780169053px" fill="#2f9e44" text-anchor="start" style="white-space: pre;" direction="ltr" dominant-baseline="alphabetic">erros in trace </text><text x="0" y="86.47779534306203" font-family="Virgil, Segoe UI Emoji" font-size="18.693859780169053px" fill="#2f9e44" text-anchor="start" style="white-space: pre;" direction="ltr" dominant-baseline="alphabetic">filter page for </text><text x="0" y="109.84512006827335" font-family="Virgil, Segoe UI Emoji" font-size="18.693859780169053px" fill="#2f9e44" text-anchor="start" style="white-space: pre;" direction="ltr" dominant-baseline="alphabetic">that topic, </text><text x="0" y="133.21244479348468" font-family="Virgil, Segoe UI Emoji" font-size="18.693859780169053px" fill="#2f9e44" text-anchor="start" style="white-space: pre;" direction="ltr" dominant-baseline="alphabetic">partition and </text><text x="0" y="156.57976951869597" font-family="Virgil, Segoe UI Emoji" font-size="18.693859780169053px" fill="#2f9e44" text-anchor="start" style="white-space: pre;" direction="ltr" dominant-baseline="alphabetic">producer service</text></g><g transform="translate(995.3621146262909 441.0686687944642) rotate(0 30.595827765136733 14.51415903907207)"><text x="0" y="20.343045309163433" font-family="Virgil, Segoe UI Emoji" font-size="23.222654462515333px" fill="#1971c2" text-anchor="start" style="white-space: pre;" direction="ltr" dominant-baseline="alphabetic">10 ms</text></g><g transform="translate(1024.6526513980125 475.5516081651283) rotate(0 12.999004503398396 10.030102680588584)"><text x="0" y="14.058191917112971" font-family="Virgil, Segoe UI Emoji" font-size="16.04816428894175px" fill="#e03131" text-anchor="start" style="white-space: pre;" direction="ltr" dominant-baseline="alphabetic">3%</text></g><g stroke-linecap="round"><g transform="translate(1055.1785142789727 489.60465531911245) rotate(0 0.5129420554766284 -6.56249714382011)"><path d="M0 0 C0.35 -4.53, 0.71 -9.06, 1.03 -13.12 M0 0 C0.21 -2.74, 0.43 -5.47, 1.03 -13.12" stroke="#e03131" stroke-width="1" fill="none"></path></g><g transform="translate(1055.1785142789727 489.60465531911245) rotate(0 0.5129420554766284 -6.56249714382011)"><path d="M2.79 -6.78 C2.18 -8.97, 1.57 -11.16, 1.03 -13.12 M2.79 -6.78 C2.42 -8.11, 2.05 -9.43, 1.03 -13.12" stroke="#e03131" stroke-width="1" fill="none"></path></g><g transform="translate(1055.1785142789727 489.60465531911245) rotate(0 0.5129420554766284 -6.56249714382011)"><path d="M-1.7 -7.13 C-0.76 -9.2, 0.18 -11.27, 1.03 -13.12 M-1.7 -7.13 C-1.13 -8.38, -0.56 -9.63, 1.03 -13.12" stroke="#e03131" stroke-width="1" fill="none"></path></g></g><mask></mask><g transform="translate(1163.0839779405023 448.48261313839043) rotate(0 33.417147810772576 14.413889550955332)"><text x="0" y="20.20250759461905" font-family="Virgil, Segoe UI Emoji" font-size="23.062223281528595px" fill="#1971c2" text-anchor="start" style="white-space: pre;" direction="ltr" dominant-baseline="alphabetic">  10%</text></g><g transform="translate(1192.172164226683 482.7273308752599) rotate(0 9.636033547398029 9.960810807815733)"><text x="0" y="13.961072428234509" font-family="Virgil, Segoe UI Emoji" font-size="15.937297292505148px" fill="#e03131" text-anchor="start" style="white-space: pre;" direction="ltr" dominant-baseline="alphabetic">1%</text></g><g stroke-linecap="round"><g transform="translate(1219.5682920665104 497.1872811985602) rotate(0 0.0029522108447963546 -6.1213425487733275)"><path d="M0 0 C0 -2.67, 0 -5.35, 0.01 -12.24 M0 0 C0 -4.74, 0 -9.47, 0.01 -12.24" stroke="#e03131" stroke-width="1" fill="none"></path></g><g transform="translate(1219.5682920665104 497.1872811985602) rotate(0 0.0029522108447963546 -6.1213425487733275)"><path d="M2.1 -6.49 C1.64 -7.75, 1.18 -9, 0.01 -12.24 M2.1 -6.49 C1.29 -8.71, 0.48 -10.94, 0.01 -12.24" stroke="#e03131" stroke-width="1" fill="none"></path></g><g transform="translate(1219.5682920665104 497.1872811985602) rotate(0 0.0029522108447963546 -6.1213425487733275)"><path d="M-2.09 -6.49 C-1.63 -7.75, -1.17 -9, 0.01 -12.24 M-2.09 -6.49 C-1.28 -8.72, -0.47 -10.94, 0.01 -12.24" stroke="#e03131" stroke-width="1" fill="none"></path></g></g><mask></mask><g transform="translate(1291.625436821952 447.33313355153655) rotate(0 65.68639373779297 14.413889550955332)"><text x="0" y="20.20250759461905" font-family="Virgil, Segoe UI Emoji" font-size="23.062223281528595px" fill="#1e1e1e" text-anchor="start" style="white-space: pre;" direction="ltr" dominant-baseline="alphabetic">  28 msg/s</text></g><g transform="translate(1334.3970959231842 476.7229291625124) rotate(0 9.636033547398029 9.960810807815733)"><text x="0" y="13.961072428234509" font-family="Virgil, Segoe UI Emoji" font-size="15.937297292505148px" fill="#e03131" text-anchor="start" style="white-space: pre;" direction="ltr" dominant-baseline="alphabetic">1%</text></g><g stroke-linecap="round"><g transform="translate(1361.7932237630112 491.1828794858127) rotate(0 0.0029522108447963546 -6.121342548772077)"><path d="M0 0 C0 -3.42, 0 -6.84, 0.01 -12.24 M0 0 C0 -2.72, 0 -5.43, 0.01 -12.24" stroke="#e03131" stroke-width="1" fill="none"></path></g><g transform="translate(1361.7932237630112 491.1828794858127) rotate(0 0.0029522108447963546 -6.121342548772077)"><path d="M2.1 -6.49 C1.51 -8.1, 0.93 -9.7, 0.01 -12.24 M2.1 -6.49 C1.63 -7.77, 1.17 -9.04, 0.01 -12.24" stroke="#e03131" stroke-width="1" fill="none"></path></g><g transform="translate(1361.7932237630112 491.1828794858127) rotate(0 0.0029522108447963546 -6.121342548772077)"><path d="M-2.09 -6.49 C-1.51 -8.1, -0.92 -9.7, 0.01 -12.24 M-2.09 -6.49 C-1.63 -7.77, -1.16 -9.04, 0.01 -12.24" stroke="#e03131" stroke-width="1" fill="none"></path></g></g><mask></mask><g stroke-linecap="round"><g transform="translate(971.84814453125 300.24976346100743) rotate(0 0 172.50244140625)"><path d="M0 0 C0 79.3, 0 158.6, 0 345" stroke="#1e1e1e" stroke-width="1.5" fill="none" stroke-dasharray="8 9"></path></g></g><mask></mask><g transform="translate(832.02880859375 232.92554471100743) rotate(0 212.9758911132813 10)"><text x="0" y="14.016" font-family="Virgil, Segoe UI Emoji" font-size="16px" fill="#1e1e1e" text-anchor="start" style="white-space: pre;" direction="ltr" dominant-baseline="alphabetic">Metrics for Topic T3 , Producer Service - PService 3</text></g></svg>