<svg version="1.1" xmlns="http://www.w3.org/2000/svg" viewBox="0 0 1461.0205078125 923.1557769220149" width="1461.0205078125" height="923.1557769220149">
  <!-- svg-source:excalidraw -->
  
  <defs>
    <style class="style-fonts">
      @font-face {
        font-family: "Virgil";
        src: url("https://excalidraw.com/Virgil.woff2");
      }
      @font-face {
        font-family: "Cascadia";
        src: url("https://excalidraw.com/Cascadia.woff2");
      }
      @font-face {
        font-family: "Assistant";
        src: url("https://app.excalidraw.com//dist/excalidraw-assets/Assistant-Regular.woff2");
      }
    </style>
    
  </defs>
  <rect x="0" y="0" width="1461.0205078125" height="923.1557769220149" fill="#ffffff"></rect><g stroke-linecap="round" transform="translate(10.094006147541506 13.155776922014866) rotate(0 720 450)"><path d="M0 0 C339.48 0.37, 677.75 0.05, 1440 0 M0 0 C467.25 -3.24, 935.53 -3.24, 1440 0 M1440 0 C1440.56 270.02, 1439.04 540.6, 1440 900 M1440 0 C1440.45 342.66, 1439.81 685.8, 1440 900 M1440 900 C1034.8 901.19, 628.6 901.26, 0 900 M1440 900 C1098.11 903.88, 756 903.99, 0 900 M0 900 C2.02 602.81, 2.09 306.85, 0 0 M0 900 C1.09 713.93, 1.56 527.51, 0 0" stroke="#000000" stroke-width="1" fill="none"></path></g><g stroke-linecap="round"><g transform="translate(217.96875 10) rotate(0 -2.842170943040401e-14 451.39404296875)"><path d="M0 0 C0 150.46, 0 752.32, 0 902.79 M0 0 C0 150.46, 0 752.32, 0 902.79" stroke="#1e1e1e" stroke-width="1" fill="none"></path></g></g><mask></mask><g stroke-linecap="round"><g transform="translate(10 84.5361328125) rotate(0 720.51025390625 0)"><path d="M0 0 C240.17 0, 1200.85 0, 1441.02 0 M0 0 C240.17 0, 1200.85 0, 1441.02 0" stroke="#1e1e1e" stroke-width="1" fill="none"></path></g></g><mask></mask><g stroke-linecap="round" transform="translate(1125.406526831807 138.27308978563917) rotate(0 50.64390564587154 10)"><path d="M0 0 C23.31 0.22, 49.71 -1.91, 101.29 0 M0 0 C27.14 1.19, 53.42 0.91, 101.29 0 M101.29 0 C102.69 5.53, 99.88 11.58, 101.29 20 M101.29 0 C100.74 3.58, 102.1 9.54, 101.29 20 M101.29 20 C59.72 19.95, 22.56 18.15, 0 20 M101.29 20 C67.23 18.61, 32.03 19.05, 0 20 M0 20 C-0.46 12.43, -0.55 4.96, 0 0 M0 20 C0.19 15.44, -0.87 9.09, 0 0" stroke="#000000" stroke-width="1" fill="none"></path></g><g transform="translate(1132.405836115736 139.0164507588189) rotate(0 22.675697326660156 8.704487946465127)"><text x="0" y="12.191259404821203" font-family="Virgil, Segoe UI Emoji" font-size="13.951113604569658px" fill="#000000" text-anchor="start" style="white-space: pre;" direction="ltr" dominant-baseline="alphabetic">15 mins</text></g><g stroke-linecap="round" transform="translate(1204.4139921132626 139.40226252419336) rotate(0 10.075221058503644 9.510301591805444)"><path d="M0 0 C5.96 0.68, 12.09 0.54, 20.15 0 M0 0 C7.31 0.08, 14.57 0.3, 20.15 0 M20.15 0 C19.27 5.16, 19.48 9.99, 20.15 19.02 M20.15 0 C20.69 4.1, 19.81 8.38, 20.15 19.02 M20.15 19.02 C13.71 19.17, 5.66 19.97, 0 19.02 M20.15 19.02 C15.83 18.77, 10.36 18.86, 0 19.02 M0 19.02 C-0.31 13.66, -0.91 8.21, 0 0 M0 19.02 C-0.15 11.45, 0.46 5.11, 0 0" stroke="#000000" stroke-width="1" fill="none"></path></g><g stroke-linecap="round"><g transform="translate(1210.2293795928524 146.5637117386051) rotate(0 4.413845229027174 2.3938554139225863)"><path d="M0 0 C0.79 1.08, 1.97 1.98, 4.45 4.79 M0 0 C1.48 1.68, 2.96 3.13, 4.45 4.79 M4.45 4.79 C5.54 3.36, 6.74 2.33, 8.83 0.04 M4.45 4.79 C6.07 2.84, 7.94 1.12, 8.83 0.04" stroke="#000000" stroke-width="1" fill="none"></path></g></g><mask></mask><g transform="translate(958.81494140625 138.16382596100743) rotate(0 77.39196014404297 10)"><text x="0" y="14.016" font-family="Virgil, Segoe UI Emoji" font-size="16px" fill="#1e1e1e" text-anchor="start" style="white-space: pre;" direction="ltr" dominant-baseline="alphabetic">Evaluation Interval</text></g><g stroke-linecap="round"><g transform="translate(307.85791015625 245.17163846100743) rotate(0 292.822265625 0)"><path d="M0 0 C181.24 0, 362.48 0, 585.64 0 M0 0 C221.1 0, 442.2 0, 585.64 0" stroke="#1e1e1e" stroke-width="1" fill="none"></path></g></g><mask></mask><g transform="translate(329.63916015625 217.25366971100743) rotate(0 65.09596252441406 10)"><text x="0" y="14.016" font-family="Virgil, Segoe UI Emoji" font-size="16px" fill="#1e1e1e" text-anchor="start" style="white-space: pre;" direction="ltr" dominant-baseline="alphabetic">Producer Service</text></g><g transform="translate(529.9221038818359 218.33179471100743) rotate(0 66.09596252441406 10)"><text x="0" y="14.016" font-family="Virgil, Segoe UI Emoji" font-size="16px" fill="#1e1e1e" text-anchor="start" style="white-space: pre;" direction="ltr" dominant-baseline="alphabetic">Consumer Service</text></g><g transform="translate(746.7150726318359 217.62866971100743) rotate(0 41.71197509765625 10)"><text x="0" y="14.016" font-family="Virgil, Segoe UI Emoji" font-size="16px" fill="#1e1e1e" text-anchor="start" style="white-space: pre;" direction="ltr" dominant-baseline="alphabetic">Drop Rate</text></g><g stroke-linecap="round"><g transform="translate(498.85009765625 216.51538846100743) rotate(0 0 160.255859375)"><path d="M0 0 C0 84.4, 0 168.81, 0 320.51" stroke="#1e1e1e" stroke-width="1.5" fill="none" stroke-dasharray="8 9"></path></g></g><mask></mask><g stroke-linecap="round"><g transform="translate(697.79931640625 217.77515408600743) rotate(0 0 160.255859375)"><path d="M0 0 C0 104.97, 0 209.94, 0 320.51" stroke="#1e1e1e" stroke-width="1.5" fill="none" stroke-dasharray="8 9"></path></g></g><mask></mask><g transform="translate(345.27978515625 268.17945096100743) rotate(0 38.46398162841797 10)"><text x="0" y="14.016" font-family="Virgil, Segoe UI Emoji" font-size="16px" fill="#1e1e1e" text-anchor="start" style="white-space: pre;" direction="ltr" dominant-baseline="alphabetic">PService 1</text></g><g transform="translate(549.835334777832 268.17945096100743) rotate(0 38.327980041503906 10)"><text x="0" y="14.016" font-family="Virgil, Segoe UI Emoji" font-size="16px" fill="#1e1e1e" text-anchor="start" style="white-space: pre;" direction="ltr" dominant-baseline="alphabetic">CService 1</text></g><g transform="translate(769.8580551147461 268.17945096100743) rotate(0 13.983985900878906 10)"><text x="0" y="14.016" font-family="Virgil, Segoe UI Emoji" font-size="16px" fill="#1971c2" text-anchor="start" style="white-space: pre;" direction="ltr" dominant-baseline="alphabetic">17%</text></g><g transform="translate(345.38916015625 310.89820096100743) rotate(0 38.46398162841797 10)"><text x="0" y="14.016" font-family="Virgil, Segoe UI Emoji" font-size="16px" fill="#1e1e1e" text-anchor="start" style="white-space: pre;" direction="ltr" dominant-baseline="alphabetic">PService 1</text></g><g transform="translate(549.944709777832 310.89820096100743) rotate(0 41.855979919433594 10)"><text x="0" y="14.016" font-family="Virgil, Segoe UI Emoji" font-size="16px" fill="#1e1e1e" text-anchor="start" style="white-space: pre;" direction="ltr" dominant-baseline="alphabetic">CService 2</text></g><g transform="translate(769.9674301147461 310.89820096100743) rotate(0 9.67999267578125 10)"><text x="0" y="14.016" font-family="Virgil, Segoe UI Emoji" font-size="16px" fill="#1971c2" text-anchor="start" style="white-space: pre;" direction="ltr" dominant-baseline="alphabetic">1%</text></g><g transform="translate(345.27978515625 361.05445096100743) rotate(0 41.991981506347656 10)"><text x="0" y="14.016" font-family="Virgil, Segoe UI Emoji" font-size="16px" fill="#1e1e1e" text-anchor="start" style="white-space: pre;" direction="ltr" dominant-baseline="alphabetic">PService 2</text></g><g transform="translate(549.835334777832 361.05445096100743) rotate(0 38.327980041503906 10)"><text x="0" y="14.016" font-family="Virgil, Segoe UI Emoji" font-size="16px" fill="#1e1e1e" text-anchor="start" style="white-space: pre;" direction="ltr" dominant-baseline="alphabetic">CService 1</text></g><g transform="translate(769.8580551147461 361.05445096100743) rotate(0 15.79998779296875 10)"><text x="0" y="14.016" font-family="Virgil, Segoe UI Emoji" font-size="16px" fill="#1971c2" text-anchor="start" style="white-space: pre;" direction="ltr" dominant-baseline="alphabetic">18%</text></g><g transform="translate(345.27978515625 405.71460721100743) rotate(0 41.743980407714844 10)"><text x="0" y="14.016" font-family="Virgil, Segoe UI Emoji" font-size="16px" fill="#1e1e1e" text-anchor="start" style="white-space: pre;" direction="ltr" dominant-baseline="alphabetic">PService 3</text></g><g transform="translate(550.753303527832 405.24976346100743) rotate(0 41.60797882080078 10)"><text x="0" y="14.016" font-family="Virgil, Segoe UI Emoji" font-size="16px" fill="#1e1e1e" text-anchor="start" style="white-space: pre;" direction="ltr" dominant-baseline="alphabetic">CService 3</text></g><g transform="translate(769.8580551147461 405.71460721100743) rotate(0 17.959983825683594 10)"><text x="0" y="14.016" font-family="Virgil, Segoe UI Emoji" font-size="16px" fill="#1971c2" text-anchor="start" style="white-space: pre;" direction="ltr" dominant-baseline="alphabetic">50%</text></g><g stroke-linecap="round"><g transform="translate(976.53369140625 320.67554471100743) rotate(0 -74.697265625 -22.10546875)"><path d="M0 0 C-47.39 -14.03, -94.79 -28.05, -149.39 -44.21 M0 0 C-37.6 -11.13, -75.2 -22.25, -149.39 -44.21" stroke="#2f9e44" stroke-width="1" fill="none"></path></g><g transform="translate(976.53369140625 320.67554471100743) rotate(0 -74.697265625 -22.10546875)"><path d="M-149.39 -44.21 L-134.56 -46.43 L-138.16 -34.27 L-149.39 -44.21" stroke="none" stroke-width="0" fill="#2f9e44" fill-rule="evenodd"></path><path d="M-149.39 -44.21 C-144.69 -44.92, -139.98 -45.62, -134.56 -46.43 M-149.39 -44.21 C-145.66 -44.77, -141.93 -45.33, -134.56 -46.43 M-134.56 -46.43 C-135.93 -41.8, -137.3 -37.16, -138.16 -34.27 M-134.56 -46.43 C-135.73 -42.49, -136.89 -38.55, -138.16 -34.27 M-138.16 -34.27 C-141.64 -37.36, -145.13 -40.44, -149.39 -44.21 M-138.16 -34.27 C-141.38 -37.13, -144.61 -39.98, -149.39 -44.21 M-149.39 -44.21 C-149.39 -44.21, -149.39 -44.21, -149.39 -44.21 M-149.39 -44.21 C-149.39 -44.21, -149.39 -44.21, -149.39 -44.21" stroke="#2f9e44" stroke-width="1" fill="none"></path></g></g><mask></mask><g transform="translate(999.95556640625 315.72241971100743) rotate(0 148.5839385986328 40)"><text x="0" y="14.016" font-family="Virgil, Segoe UI Emoji" font-size="16px" fill="#2f9e44" text-anchor="start" style="white-space: pre;" direction="ltr" dominant-baseline="alphabetic">Clicking Drop rate takes user to list</text><text x="0" y="34.016" font-family="Virgil, Segoe UI Emoji" font-size="16px" fill="#2f9e44" text-anchor="start" style="white-space: pre;" direction="ltr" dominant-baseline="alphabetic">of traces for which there is no span</text><text x="0" y="54.016" font-family="Virgil, Segoe UI Emoji" font-size="16px" fill="#2f9e44" text-anchor="start" style="white-space: pre;" direction="ltr" dominant-baseline="alphabetic"> in consumer service in the evaluation</text><text x="0" y="74.016" font-family="Virgil, Segoe UI Emoji" font-size="16px" fill="#2f9e44" text-anchor="start" style="white-space: pre;" direction="ltr" dominant-baseline="alphabetic"> time interval</text></g></svg>