<svg version="1.1" xmlns="http://www.w3.org/2000/svg" viewBox="0 0 1461.0205078125 923.1557769220144" width="1461.0205078125" height="923.1557769220144">
  <!-- svg-source:excalidraw -->
  
  <defs>
    <style class="style-fonts">
      @font-face {
        font-family: "Virgil";
        src: url("https://excalidraw.com/Virgil.woff2");
      }
      @font-face {
        font-family: "Cascadia";
        src: url("https://excalidraw.com/Cascadia.woff2");
      }
      @font-face {
        font-family: "Assistant";
        src: url("https://app.excalidraw.com//dist/excalidraw-assets/Assistant-Regular.woff2");
      }
    </style>
    
  </defs>
  <rect x="0" y="0" width="1461.0205078125" height="923.1557769220144" fill="#ffffff"></rect><g transform="translate(270.67229798693586 266.19843819043217) rotate(0 35.21116260114982 14.327465287908808)"><text x="0" y="20.081375347533132" font-family="Virgil, Segoe UI Emoji" font-size="22.923944460654262px" fill="#1e1e1e" text-anchor="start" style="white-space: pre;" direction="ltr" dominant-baseline="alphabetic">Topic </text></g><g stroke-linecap="round"><g transform="translate(260.57794744318187 306.70710762554336) rotate(0 436.7824897270696 0)"><path d="M0 0 C145.59 0, 727.97 0, 873.56 0 M0 0 C145.59 0, 727.97 0, 873.56 0" stroke="#1e1e1e" stroke-width="2" fill="none"></path></g></g><mask></mask><g transform="translate(380.0189700163661 235.7629331819544) rotate(0 50.263526916503906 28.654930575817843)"><text x="0" y="20.08137534753314" font-family="Virgil, Segoe UI Emoji" font-size="22.92394446065427px" fill="#1e1e1e" text-anchor="start" style="white-space: pre;" direction="ltr" dominant-baseline="alphabetic">Consumer</text><text x="0" y="48.736305923350976" font-family="Virgil, Segoe UI Emoji" font-size="22.92394446065427px" fill="#1e1e1e" text-anchor="start" style="white-space: pre;" direction="ltr" dominant-baseline="alphabetic">Service</text></g><g stroke-linecap="round"><g transform="translate(352.51644699067856 270.9457796797142) rotate(0 -2.842170943040401e-14 199.9940657542113)"><path d="M0 0 C0 66.66, 0 333.32, 0 399.99" stroke="#1e1e1e" stroke-width="2.5" fill="none" stroke-dasharray="1.5 8"></path></g></g><mask></mask><g stroke-linecap="round"><g transform="translate(515.8433211156967 269.88664397696994) rotate(0 -5.684341886080802e-14 199.9940657542113)"><path d="M0 0 C0 66.66, 0 333.32, 0 399.99" stroke="#1e1e1e" stroke-width="2.5" fill="none" stroke-dasharray="1.5 8"></path></g></g><mask></mask><g transform="translate(848.0135996572703 268.387784090909) rotate(0 81.77834336079172 14.327465287908808)"><text x="0" y="20.08137534753314" font-family="Virgil, Segoe UI Emoji" font-size="22.923944460654265px" fill="#1e1e1e" text-anchor="start" style="white-space: pre;" direction="ltr" dominant-baseline="alphabetic">p99 latency</text></g><g stroke-linecap="round"><g transform="translate(682.9853959749034 268.5299258173209) rotate(0 -5.684341886080802e-14 199.9940657542113)"><path d="M0 0 C0 66.66, 0 333.32, 0 399.99" stroke="#1e1e1e" stroke-width="2.5" fill="none" stroke-dasharray="1.5 8"></path></g></g><mask></mask><g transform="translate(536.9914327701761 231.8195015836436) rotate(0 50.515647888183594 28.654930575817843)"><text x="0" y="20.081375347533132" font-family="Virgil, Segoe UI Emoji" font-size="22.923944460654262px" fill="#1e1e1e" text-anchor="start" style="white-space: pre;" direction="ltr" dominant-baseline="alphabetic">Ingestion</text><text x="0" y="48.73630592335096" font-family="Virgil, Segoe UI Emoji" font-size="22.923944460654262px" fill="#1e1e1e" text-anchor="start" style="white-space: pre;" direction="ltr" dominant-baseline="alphabetic">Rate</text></g><g stroke-linecap="round"><g transform="translate(822.9231506778069 268.20815292637326) rotate(0 -5.684341886080802e-14 199.9940657542113)"><path d="M0 0 C0 66.66, 0 333.32, 0 399.99" stroke="#1e1e1e" stroke-width="2.5" fill="none" stroke-dasharray="1.5 8"></path></g></g><mask></mask><g transform="translate(264.3336256818942 339.2279307571789) rotate(0 12.321617961403973 14.327465287908808)"><text x="0" y="20.08137534753314" font-family="Virgil, Segoe UI Emoji" font-size="22.923944460654265px" fill="#1e1e1e" text-anchor="start" style="white-space: pre;" direction="ltr" dominant-baseline="alphabetic">T1</text></g><g transform="translate(371.13723545633366 339.2279307571789) rotate(0 54.15991973876953 14.327465287908808)"><text x="0" y="20.08137534753314" font-family="Virgil, Segoe UI Emoji" font-size="22.923944460654265px" fill="#1e1e1e" text-anchor="start" style="white-space: pre;" direction="ltr" dominant-baseline="alphabetic">Cservice 1</text></g><g transform="translate(852.5310446712913 339.33986407974135) rotate(0 32.357125219549005 14.327465287908808)"><text x="0" y="20.08137534753314" font-family="Virgil, Segoe UI Emoji" font-size="22.92394446065427px" fill="#1e1e1e" text-anchor="start" style="white-space: pre;" direction="ltr" dominant-baseline="alphabetic">100ms</text></g><g transform="translate(540.4252764003372 339.33986407974135) rotate(0 51.86792755126953 14.327465287908808)"><text x="0" y="20.08137534753314" font-family="Virgil, Segoe UI Emoji" font-size="22.923944460654265px" fill="#1e1e1e" text-anchor="start" style="white-space: pre;" direction="ltr" dominant-baseline="alphabetic">50 msg/s</text></g><g transform="translate(263.96462456582265 411.9402222421877) rotate(0 12.321617961403973 14.327465287908808)"><text x="0" y="20.08137534753314" font-family="Virgil, Segoe UI Emoji" font-size="22.923944460654265px" fill="#1e1e1e" text-anchor="start" style="white-space: pre;" direction="ltr" dominant-baseline="alphabetic">T1</text></g><g transform="translate(370.7682343402621 411.9402222421877) rotate(0 59.213775634765625 14.327465287908808)"><text x="0" y="20.08137534753314" font-family="Virgil, Segoe UI Emoji" font-size="22.923944460654265px" fill="#1e1e1e" text-anchor="start" style="white-space: pre;" direction="ltr" dominant-baseline="alphabetic">Cservice 2</text></g><g transform="translate(857.1620435552197 411.9402222421877) rotate(0 24.471291473208623 14.327465287908808)"><text x="0" y="20.08137534753314" font-family="Virgil, Segoe UI Emoji" font-size="22.923944460654265px" fill="#1e1e1e" text-anchor="start" style="white-space: pre;" direction="ltr" dominant-baseline="alphabetic">10ms</text></g><g transform="translate(540.0562752842657 411.9402222421877) rotate(0 52.945167541503906 14.327465287908808)"><text x="0" y="20.08137534753314" font-family="Virgil, Segoe UI Emoji" font-size="22.923944460654265px" fill="#1e1e1e" text-anchor="start" style="white-space: pre;" direction="ltr" dominant-baseline="alphabetic">20 msg/s</text></g><g transform="translate(263.95847259187485 477.22979969100015) rotate(0 17.376347540082406 14.327465287908808)"><text x="0" y="20.08137534753314" font-family="Virgil, Segoe UI Emoji" font-size="22.923944460654265px" fill="#1e1e1e" text-anchor="start" style="white-space: pre;" direction="ltr" dominant-baseline="alphabetic">T2</text></g><g transform="translate(370.7620823663144 477.38604969100015) rotate(0 54.904815673828125 14.327465287908808)"><text x="0" y="20.08137534753314" font-family="Virgil, Segoe UI Emoji" font-size="22.923944460654265px" fill="#1e1e1e" text-anchor="start" style="white-space: pre;" direction="ltr" dominant-baseline="alphabetic">CService 1</text></g><g transform="translate(857.155891581272 477.3824360399485) rotate(0 28.700753279741548 14.327465287908808)"><text x="0" y="20.08137534753314" font-family="Virgil, Segoe UI Emoji" font-size="22.92394446065427px" fill="#1e1e1e" text-anchor="start" style="white-space: pre;" direction="ltr" dominant-baseline="alphabetic">40ms</text></g><g transform="translate(545.050123310318 477.22979969100015) rotate(0 60.474388122558594 14.327465287908808)"><text x="0" y="20.08137534753314" font-family="Virgil, Segoe UI Emoji" font-size="22.923944460654265px" fill="#1e1e1e" text-anchor="start" style="white-space: pre;" direction="ltr" dominant-baseline="alphabetic">300 msg/s</text></g><g stroke-linecap="round" transform="translate(10.09400614754145 13.155776922014411) rotate(0 720 450)"><path d="M0 0 C354.47 -1.79, 706.89 -3.24, 1440 0 M0 0 C411.48 -1.76, 822.66 -2.07, 1440 0 M1440 0 C1440.81 195.94, 1441.23 391.56, 1440 900 M1440 0 C1437.61 239.09, 1436.87 478.35, 1440 900 M1440 900 C952.74 898.51, 466.54 899.97, 0 900 M1440 900 C1151.3 897.85, 862.3 897.79, 0 900 M0 900 C-0.06 663.53, -0.38 427.56, 0 0 M0 900 C-0.21 638.78, -0.34 377.98, 0 0" stroke="#000000" stroke-width="1" fill="none"></path></g><g stroke-linecap="round"><g transform="translate(217.96875 10) rotate(0 -2.842170943040401e-14 451.39404296875)"><path d="M0 0 C0 150.46, 0 752.32, 0 902.79 M0 0 C0 150.46, 0 752.32, 0 902.79" stroke="#1e1e1e" stroke-width="1" fill="none"></path></g></g><mask></mask><g stroke-linecap="round"><g transform="translate(10 84.5361328125) rotate(0 720.51025390625 0)"><path d="M0 0 C240.17 0, 1200.85 0, 1441.02 0 M0 0 C240.17 0, 1200.85 0, 1441.02 0" stroke="#1e1e1e" stroke-width="1" fill="none"></path></g></g><mask></mask><g stroke-linecap="round" transform="translate(286.6240931919639 137.93628689850811) rotate(0 249.89676339285717 22.5)"><path d="M0 0 C108.37 0, 216.74 0, 499.79 0 M0 0 C116.92 0, 233.85 0, 499.79 0 M499.79 0 C499.79 10.28, 499.79 20.56, 499.79 45 M499.79 0 C499.79 15.13, 499.79 30.25, 499.79 45 M499.79 45 C300.93 45, 102.08 45, 0 45 M499.79 45 C366.62 45, 233.45 45, 0 45 M0 45 C0 29.53, 0 14.07, 0 0 M0 45 C0 29.01, 0 13.03, 0 0" stroke="#1e1e1e" stroke-width="1" fill="none"></path></g><g transform="translate(469.264882768903 142.93628689850811) rotate(0 67.25597381591797 17.5)"><text x="67.25597381591797" y="24.528" font-family="Virgil, Segoe UI Emoji" font-size="28px" fill="#1e1e1e" text-anchor="middle" style="white-space: pre;" direction="ltr" dominant-baseline="alphabetic">Producers</text></g><g stroke-linecap="round" transform="translate(879.151994977678 139.30835721100811) rotate(0 248.57700892857156 22.5)"><path d="M0 0 L497.15 0 L497.15 45 L0 45" stroke="none" stroke-width="0" fill="#a5d8ff"></path><path d="M0 0 C164.94 0, 329.87 0, 497.15 0 M0 0 C164.78 0, 329.56 0, 497.15 0 M497.15 0 C497.15 17.58, 497.15 35.16, 497.15 45 M497.15 0 C497.15 12.51, 497.15 25.01, 497.15 45 M497.15 45 C319.31 45, 141.46 45, 0 45 M497.15 45 C322.75 45, 148.35 45, 0 45 M0 45 C0 32.73, 0 20.45, 0 0 M0 45 C0 30.51, 0 16.02, 0 0" stroke="#1971c2" stroke-width="4" fill="none"></path></g><g transform="translate(1058.7230300903316 144.30835721100811) rotate(0 69.00597381591797 17.5)"><text x="69.00597381591797" y="24.528" font-family="Virgil, Segoe UI Emoji" font-size="28px" fill="#1971c2" text-anchor="middle" style="white-space: pre;" direction="ltr" dominant-baseline="alphabetic">Consumers</text></g><g stroke-linecap="round"><g transform="translate(1167.5831614993608 69.97241971100811) rotate(0 -33.11930957929928 27.78459821428578)"><path d="M0 0 C-14.43 12.11, -28.86 24.21, -66.24 55.57 M0 0 C-17.6 14.76, -35.2 29.53, -66.24 55.57" stroke="#2f9e44" stroke-width="1" fill="none"></path></g><g transform="translate(1167.5831614993608 69.97241971100811) rotate(0 -33.11930957929928 27.78459821428578)"><path d="M-66.24 55.57 L-59.9 41.98 L-51.75 51.69 L-66.24 55.57" stroke="none" stroke-width="0" fill="#2f9e44" fill-rule="evenodd"></path><path d="M-66.24 55.57 C-64.86 52.61, -63.48 49.65, -59.9 41.98 M-66.24 55.57 C-64.55 51.96, -62.87 48.35, -59.9 41.98 M-59.9 41.98 C-57.14 45.26, -54.39 48.55, -51.75 51.69 M-59.9 41.98 C-58.26 43.92, -56.63 45.87, -51.75 51.69 M-51.75 51.69 C-55.56 52.71, -59.36 53.73, -66.24 55.57 M-51.75 51.69 C-55.95 52.81, -60.16 53.94, -66.24 55.57 M-66.24 55.57 C-66.24 55.57, -66.24 55.57, -66.24 55.57 M-66.24 55.57 C-66.24 55.57, -66.24 55.57, -66.24 55.57" stroke="#2f9e44" stroke-width="1" fill="none"></path></g></g><mask></mask><g transform="translate(1148.8115931919633 23.228558103864998) rotate(0 119.9039306640625 20)"><text x="0" y="14.016" font-family="Virgil, Segoe UI Emoji" font-size="16px" fill="#2f9e44" text-anchor="start" style="white-space: pre;" direction="ltr" dominant-baseline="alphabetic">At a time, either producer or </text><text x="0" y="34.016" font-family="Virgil, Segoe UI Emoji" font-size="16px" fill="#2f9e44" text-anchor="start" style="white-space: pre;" direction="ltr" dominant-baseline="alphabetic">consumer tab is selected</text></g><g transform="translate(701.3033196585516 341.1695079945275) rotate(0 45.725372314453125 14.327465287908808)"><text x="0" y="20.08137534753314" font-family="Virgil, Segoe UI Emoji" font-size="22.923944460654265px" fill="#1e1e1e" text-anchor="start" style="white-space: pre;" direction="ltr" dominant-baseline="alphabetic">50 mb/s</text></g><g transform="translate(701.957593645368 412.6441173695275) rotate(0 48.785194396972656 14.327465287908808)"><text x="0" y="20.08137534753314" font-family="Virgil, Segoe UI Emoji" font-size="22.923944460654265px" fill="#1e1e1e" text-anchor="start" style="white-space: pre;" direction="ltr" dominant-baseline="alphabetic">5.3 mb/s</text></g><g transform="translate(701.2268731253484 476.5113048695275) rotate(0 49.942649841308594 14.327465287908808)"><text x="0" y="20.08137534753314" font-family="Virgil, Segoe UI Emoji" font-size="22.923944460654265px" fill="#1e1e1e" text-anchor="start" style="white-space: pre;" direction="ltr" dominant-baseline="alphabetic">0.2 mb/s</text></g><g transform="translate(702.9014489310125 542.2876720570275) rotate(0 45.16383361816406 14.327465287908808)"><text x="0" y="20.08137534753314" font-family="Virgil, Segoe UI Emoji" font-size="22.923944460654265px" fill="#1971c2" text-anchor="start" style="white-space: pre;" direction="ltr" dominant-baseline="alphabetic">1.2 mb/s</text></g><g transform="translate(703.8177086966373 236.10473801911849) rotate(0 28.157203674316406 28.654930575817843)"><text x="0" y="20.081375347533132" font-family="Virgil, Segoe UI Emoji" font-size="22.923944460654262px" fill="#1e1e1e" text-anchor="start" style="white-space: pre;" direction="ltr" dominant-baseline="alphabetic">Byte</text><text x="0" y="48.73630592335096" font-family="Virgil, Segoe UI Emoji" font-size="22.923944460654262px" fill="#1e1e1e" text-anchor="start" style="white-space: pre;" direction="ltr" dominant-baseline="alphabetic">Rate</text></g><g stroke-linecap="round"><g transform="translate(988.5472237723209 266.3232200282255) rotate(0 0 199.9940657542113)"><path d="M0 0 C0 66.66, 0 333.32, 0 399.99" stroke="#1e1e1e" stroke-width="2.5" fill="none" stroke-dasharray="1.5 8"></path></g></g><mask></mask><g transform="translate(1016.0394341605047 238.07739426911849) rotate(0 28.85626220703125 28.654930575817843)"><text x="0" y="20.081375347533132" font-family="Virgil, Segoe UI Emoji" font-size="22.923944460654262px" fill="#1e1e1e" text-anchor="start" style="white-space: pre;" direction="ltr" dominant-baseline="alphabetic">Error</text><text x="0" y="48.73630592335096" font-family="Virgil, Segoe UI Emoji" font-size="22.923944460654262px" fill="#1e1e1e" text-anchor="start" style="white-space: pre;" direction="ltr" dominant-baseline="alphabetic">Rate</text></g><g transform="translate(1011.3608605521063 339.33986407974135) rotate(0 33.050621032714844 14.327465287908808)"><text x="0" y="20.08137534753314" font-family="Virgil, Segoe UI Emoji" font-size="22.923944460654265px" fill="#1e1e1e" text-anchor="start" style="white-space: pre;" direction="ltr" dominant-baseline="alphabetic">10.2%</text></g><g transform="translate(1011.3608605521063 411.9402222421877) rotate(0 33.050621032714844 14.327465287908808)"><text x="0" y="20.08137534753314" font-family="Virgil, Segoe UI Emoji" font-size="22.923944460654265px" fill="#1e1e1e" text-anchor="start" style="white-space: pre;" direction="ltr" dominant-baseline="alphabetic">0.2%</text></g><g transform="translate(1011.3608605521063 477.38604969100015) rotate(0 33.050621032714844 14.327465287908808)"><text x="0" y="20.08137534753314" font-family="Virgil, Segoe UI Emoji" font-size="22.923944460654265px" fill="#1e1e1e" text-anchor="start" style="white-space: pre;" direction="ltr" dominant-baseline="alphabetic">22%</text></g><g transform="translate(265.7557627926095 544.7826239526894) rotate(0 17.02102482687991 14.327465287908808)"><text x="0" y="20.08137534753314" font-family="Virgil, Segoe UI Emoji" font-size="22.923944460654265px" fill="#1971c2" text-anchor="start" style="white-space: pre;" direction="ltr" dominant-baseline="alphabetic">T3</text></g><g transform="translate(367.5593725670491 544.7826239526894) rotate(0 59.603416442871094 14.327465287908808)"><text x="0" y="20.08137534753314" font-family="Virgil, Segoe UI Emoji" font-size="22.923944460654265px" fill="#1971c2" text-anchor="start" style="white-space: pre;" direction="ltr" dominant-baseline="alphabetic">CService 3</text></g><g transform="translate(863.9531817820066 544.9352603016368) rotate(0 28.700753279741548 14.327465287908808)"><text x="0" y="20.08137534753314" font-family="Virgil, Segoe UI Emoji" font-size="22.92394446065427px" fill="#1971c2" text-anchor="start" style="white-space: pre;" direction="ltr" dominant-baseline="alphabetic">40ms</text></g><g transform="translate(541.8474135110528 544.7826239526894) rotate(0 60.474388122558594 14.327465287908808)"><text x="0" y="20.08137534753314" font-family="Virgil, Segoe UI Emoji" font-size="22.923944460654265px" fill="#1971c2" text-anchor="start" style="white-space: pre;" direction="ltr" dominant-baseline="alphabetic">300 msg/s</text></g><g transform="translate(1011.3608605521063 544.9352603016368) rotate(0 33.050621032714844 14.327465287908808)"><text x="0" y="20.08137534753314" font-family="Virgil, Segoe UI Emoji" font-size="22.923944460654265px" fill="#1971c2" text-anchor="start" style="white-space: pre;" direction="ltr" dominant-baseline="alphabetic">0.5%</text></g><g stroke-linecap="round"><g transform="translate(333.278669084821 714.9305670324366) rotate(0 41.6748046875 -66.20849609375)"><path d="M0 0 C28.64 -45.51, 57.29 -91.02, 83.35 -132.42 M0 0 C29.61 -47.04, 59.22 -94.08, 83.35 -132.42" stroke="#2f9e44" stroke-width="1" fill="none"></path></g><g transform="translate(333.278669084821 714.9305670324366) rotate(0 41.6748046875 -66.20849609375)"><path d="M83.35 -132.42 L81.47 -117.53 L70.74 -124.29 L83.35 -132.42" stroke="none" stroke-width="0" fill="#2f9e44" fill-rule="evenodd"></path><path d="M83.35 -132.42 C82.7 -127.3, 82.06 -122.19, 81.47 -117.53 M83.35 -132.42 C82.68 -127.13, 82.02 -121.84, 81.47 -117.53 M81.47 -117.53 C78.77 -119.24, 76.06 -120.94, 70.74 -124.29 M81.47 -117.53 C77.35 -120.13, 73.23 -122.72, 70.74 -124.29 M70.74 -124.29 C75.02 -127.05, 79.3 -129.8, 83.35 -132.42 M70.74 -124.29 C74.82 -126.92, 78.9 -129.55, 83.35 -132.42 M83.35 -132.42 C83.35 -132.42, 83.35 -132.42, 83.35 -132.42 M83.35 -132.42 C83.35 -132.42, 83.35 -132.42, 83.35 -132.42" stroke="#2f9e44" stroke-width="1" fill="none"></path></g></g><mask></mask><g transform="translate(318.581403459821 733.0702154699366) rotate(0 203.40786743164062 10)"><text x="0" y="14.016" font-family="Virgil, Segoe UI Emoji" font-size="16px" fill="#2f9e44" text-anchor="start" style="white-space: pre;" direction="ltr" dominant-baseline="alphabetic">Each row is clickable which will open up a side panel</text></g><g stroke-linecap="round" transform="translate(246.349958147321 533.6854498449366) rotate(0 423.14453125000006 25.95703125)"><path d="M0 0 C230.84 0, 461.67 0, 846.29 0 M846.29 0 C846.29 16.72, 846.29 33.43, 846.29 51.91 M846.29 51.91 C661.78 51.91, 477.28 51.91, 0 51.91 M0 51.91 C0 34.29, 0 16.67, 0 0" stroke="#1971c2" stroke-width="1.5" fill="none" stroke-dasharray="8 9"></path></g><g stroke-linecap="round" transform="translate(818.45947265625 210.4939040860072) rotate(0 315.439453125 348.75732421875)"><path d="M0 0 L630.88 0 L630.88 697.51 L0 697.51" stroke="none" stroke-width="0" fill="#ffffff"></path><path d="M0 0 C150.41 0, 300.83 0, 630.88 0 M0 0 C158.19 0, 316.38 0, 630.88 0 M630.88 0 C630.88 225.65, 630.88 451.3, 630.88 697.51 M630.88 0 C630.88 170.4, 630.88 340.81, 630.88 697.51 M630.88 697.51 C402.16 697.51, 173.43 697.51, 0 697.51 M630.88 697.51 C501.1 697.51, 371.33 697.51, 0 697.51 M0 697.51 C0 469.23, 0 240.95, 0 0 M0 697.51 C0 514.61, 0 331.7, 0 0" stroke="#1e1e1e" stroke-width="1" fill="none"></path></g><g stroke-linecap="round"><g transform="translate(266.4582170758931 187.1931228360072) rotate(0 564.818638392857 0)"><path d="M0 0 C341.01 0, 682.01 0, 1129.64 0 M0 0 C335.9 0, 671.81 0, 1129.64 0" stroke="#1e1e1e" stroke-width="2" fill="none"></path></g></g><mask></mask><g stroke-linecap="round"><g transform="translate(848.6494268046999 341.7182149620412) rotate(0 283.7239228394549 0)"><path d="M0 0 C143.01 0, 286.03 0, 567.45 0 M0 0 C217.98 0, 435.96 0, 567.45 0" stroke="#1e1e1e" stroke-width="1" fill="none"></path></g></g><mask></mask><g transform="translate(983.3227349808035 297.35305393081217) rotate(0 64.5144176140733 14.170282250773198)"><text x="0" y="19.86106760268364" font-family="Virgil, Segoe UI Emoji" font-size="22.672451601237032px" fill="#1e1e1e" text-anchor="start" style="white-space: pre;" direction="ltr" dominant-baseline="alphabetic">p99 latency</text></g><g transform="translate(831.5889382460487 366.35594129888887) rotate(0 58.01249694824219 14.170282250773198)"><text x="0" y="19.86106760268364" font-family="Virgil, Segoe UI Emoji" font-size="22.672451601237032px" fill="#1971c2" text-anchor="start" style="white-space: pre;" direction="ltr" dominant-baseline="alphabetic">Partition 1</text></g><g transform="translate(829.5812680302115 440.4939170396274) rotate(0 63.01123046875 14.170282250773198)"><text x="0" y="19.86106760268364" font-family="Virgil, Segoe UI Emoji" font-size="22.672451601237032px" fill="#1971c2" text-anchor="start" style="white-space: pre;" direction="ltr" dominant-baseline="alphabetic">Partition 2</text></g><g transform="translate(834.2410326749593 516.1705135149259) rotate(0 62.65984344482422 14.170282250773198)"><text x="0" y="19.86106760268364" font-family="Virgil, Segoe UI Emoji" font-size="22.672451601237032px" fill="#1971c2" text-anchor="start" style="white-space: pre;" direction="ltr" dominant-baseline="alphabetic">Partition 3</text></g><g transform="translate(995.3621146262908 363.3356735741818) rotate(0 37.993193046437796 14.291760223184383)"><text x="0" y="20.031331128815133" font-family="Virgil, Segoe UI Emoji" font-size="22.866816357094898px" fill="#1971c2" text-anchor="start" style="white-space: pre;" direction="ltr" dominant-baseline="alphabetic">100 ms</text></g><g transform="translate(1024.2038358188793 397.2902347684958) rotate(0 12.799822228938524 9.87641255266658)"><text x="0" y="13.84277983381746" font-family="Virgil, Segoe UI Emoji" font-size="15.802260084266504px" fill="#e03131" text-anchor="start" style="white-space: pre;" direction="ltr" dominant-baseline="alphabetic">3%</text></g><g stroke-linecap="round"><g transform="translate(1057.1140324240423 413.24629289236145) rotate(0 0.16677386838921393 -5.954377797475445)"><path d="M0 0 C0.11 -4.04, 0.23 -8.08, 0.33 -11.91 M0 0 C0.11 -3.85, 0.22 -7.7, 0.33 -11.91" stroke="#e03131" stroke-width="1" fill="none"></path></g><g transform="translate(1057.1140324240423 413.24629289236145) rotate(0 0.16677386838921393 -5.954377797475445)"><path d="M2.21 -6.26 C1.58 -8.17, 0.94 -10.09, 0.33 -11.91 M2.21 -6.26 C1.61 -8.08, 1 -9.91, 0.33 -11.91" stroke="#e03131" stroke-width="1" fill="none"></path></g><g transform="translate(1057.1140324240423 413.24629289236145) rotate(0 0.16677386838921393 -5.954377797475445)"><path d="M-1.86 -6.37 C-1.12 -8.25, -0.37 -10.13, 0.33 -11.91 M-1.86 -6.37 C-1.15 -8.16, -0.44 -9.95, 0.33 -11.91" stroke="#e03131" stroke-width="1" fill="none"></path></g></g><mask></mask><g transform="translate(1162.0673807944067 363.3356735741818) rotate(0 32.459432036559065 14.291760223184383)"><text x="0" y="20.031331128815133" font-family="Virgil, Segoe UI Emoji" font-size="22.866816357094898px" fill="#1971c2" text-anchor="start" style="white-space: pre;" direction="ltr" dominant-baseline="alphabetic"> 20%</text></g><g transform="translate(1190.9091019869952 397.2902347684958) rotate(0 13.036618918366344 9.87641255266658)"><text x="0" y="13.84277983381746" font-family="Virgil, Segoe UI Emoji" font-size="15.802260084266504px" fill="#e03131" text-anchor="start" style="white-space: pre;" direction="ltr" dominant-baseline="alphabetic">2%</text></g><g stroke-linecap="round"><g transform="translate(1222.4655403836946 415.19453889301894) rotate(0 0.34375926192797124 -8.051854903523235)"><path d="M0 0 C0.25 -5.84, 0.5 -11.68, 0.69 -16.1 M0 0 C0.14 -3.31, 0.28 -6.63, 0.69 -16.1" stroke="#e03131" stroke-width="1" fill="none"></path></g><g transform="translate(1222.4655403836946 415.19453889301894) rotate(0 0.34375926192797124 -8.051854903523235)"><path d="M3.12 -8.42 C2.24 -11.21, 1.36 -13.99, 0.69 -16.1 M3.12 -8.42 C2.62 -10, 2.12 -11.58, 0.69 -16.1" stroke="#e03131" stroke-width="1" fill="none"></path></g><g transform="translate(1222.4655403836946 415.19453889301894) rotate(0 0.34375926192797124 -8.051854903523235)"><path d="M-2.39 -8.66 C-1.27 -11.36, -0.16 -14.06, 0.69 -16.1 M-2.39 -8.66 C-1.76 -10.19, -1.12 -11.72, 0.69 -16.1" stroke="#e03131" stroke-width="1" fill="none"></path></g></g><mask></mask><g transform="translate(1286.2397449463092 363.3356735741818) rotate(0 67.05977630615234 14.291760223184383)"><text x="0" y="20.031331128815133" font-family="Virgil, Segoe UI Emoji" font-size="22.866816357094898px" fill="#1e1e1e" text-anchor="start" style="white-space: pre;" direction="ltr" dominant-baseline="alphabetic">  100 msg/s</text></g><g transform="translate(995.3621146262908 521.4107841769192) rotate(0 34.053997396358795 14.170282250773198)"><text x="0" y="19.86106760268364" font-family="Virgil, Segoe UI Emoji" font-size="22.672451601237032px" fill="#1971c2" text-anchor="start" style="white-space: pre;" direction="ltr" dominant-baseline="alphabetic">40 ms</text></g><g transform="translate(1174.7262663544916 520.7573371838926) rotate(0 32.5413115751154 14.574224983798558)"><text x="0" y="20.427233737292035" font-family="Virgil, Segoe UI Emoji" font-size="23.31875997407767px" fill="#1971c2" text-anchor="start" style="white-space: pre;" direction="ltr" dominant-baseline="alphabetic"> 24%</text></g><g transform="translate(1204.1380201914249 555.3829820550709) rotate(0 13.29427685444216 10.071611636883745)"><text x="0" y="14.116370870256183" font-family="Virgil, Segoe UI Emoji" font-size="16.114578619013905px" fill="#e03131" text-anchor="start" style="white-space: pre;" direction="ltr" dominant-baseline="alphabetic">2%</text></g><g stroke-linecap="round"><g transform="translate(1237.6589792453779 567.9793420402038) rotate(0 0.3514412795574344 -6.6684267480175095)"><path d="M0 0 C0.2 -3.84, 0.41 -7.68, 0.7 -13.34 M0 0 C0.28 -5.24, 0.55 -10.48, 0.7 -13.34" stroke="#e03131" stroke-width="1" fill="none"></path></g><g transform="translate(1237.6589792453779 567.9793420402038) rotate(0 0.3514412795574344 -6.6684267480175095)"><path d="M2.65 -6.95 C2.09 -8.79, 1.53 -10.63, 0.7 -13.34 M2.65 -6.95 C1.89 -9.46, 1.12 -11.97, 0.7 -13.34" stroke="#e03131" stroke-width="1" fill="none"></path></g><g transform="translate(1237.6589792453779 567.9793420402038) rotate(0 0.3514412795574344 -6.6684267480175095)"><path d="M-1.91 -7.19 C-1.16 -8.96, -0.4 -10.73, 0.7 -13.34 M-1.91 -7.19 C-0.88 -9.61, 0.14 -12.02, 0.7 -13.34" stroke="#e03131" stroke-width="1" fill="none"></path></g></g><mask></mask><g transform="translate(1286.7987424068406 521.8447534992465) rotate(0 68.55403137207031 14.170282250773198)"><text x="0" y="19.86106760268364" font-family="Virgil, Segoe UI Emoji" font-size="22.672451601237032px" fill="#1e1e1e" text-anchor="start" style="white-space: pre;" direction="ltr" dominant-baseline="alphabetic">   40 msg/s</text></g><g transform="translate(1158.3661113373946 298.6581998795282) rotate(0 62.0657973385438 14.170282250773198)"><text x="0" y="19.86106760268364" font-family="Virgil, Segoe UI Emoji" font-size="22.672451601237032px" fill="#1e1e1e" text-anchor="start" style="white-space: pre;" direction="ltr" dominant-baseline="alphabetic">Error Rate</text></g><g transform="translate(1308.587059809608 297.6093722933847) rotate(0 62.013755798339844 14.170282250773198)"><text x="0" y="19.86106760268364" font-family="Virgil, Segoe UI Emoji" font-size="22.672451601237032px" fill="#1e1e1e" text-anchor="start" style="white-space: pre;" direction="ltr" dominant-baseline="alphabetic">Throughput</text></g><g stroke-linecap="round"><g transform="translate(1094.566732557431 656.4780522815463) rotate(0 -14.35535892743735 -53.480926345854414)"><path d="M0.56 -0.45 C-4.47 -18.03, -24.39 -89.14, -29.27 -106.51 M-0.61 -1.74 C-5.33 -19.12, -22.11 -88.11, -26.93 -105.6" stroke="#2f9e44" stroke-width="1" fill="none"></path></g><g transform="translate(1094.566732557431 656.4780522815463) rotate(0 -14.35535892743735 -53.480926345854414)"><path d="M-25.07 -104.59 L-16.62 -92.74 L-30.29 -91.83 L-25.33 -106.62" stroke="none" stroke-width="0" fill="#2f9e44" fill-rule="evenodd"></path><path d="M-26.93 -105.6 C-24.02 -102.18, -21.36 -97.12, -17.4 -94.02 M-26.93 -105.6 C-23.98 -100.88, -20.66 -96.95, -17.4 -94.02 M-17.4 -94.02 C-20.13 -94.71, -21.44 -93.6, -29.68 -90.85 M-17.4 -94.02 C-19.76 -93.85, -22.85 -92.15, -29.68 -90.85 M-29.68 -90.85 C-29.21 -95.5, -26.23 -101.85, -26.93 -105.6 M-29.68 -90.85 C-28.91 -96.06, -28.24 -101.77, -26.93 -105.6 M-26.93 -105.6 C-26.93 -105.6, -26.93 -105.6, -26.93 -105.6 M-26.93 -105.6 C-26.93 -105.6, -26.93 -105.6, -26.93 -105.6" stroke="#2f9e44" stroke-width="1" fill="none"></path></g></g><mask></mask><g transform="translate(1041.2024512853432 663.0603082109756) rotate(0 90.48750145899908 70.10197417563404)"><text x="0" y="16.37582116742809" font-family="Virgil, Segoe UI Emoji" font-size="18.693859780169053px" fill="#2f9e44" text-anchor="start" style="white-space: pre;" direction="ltr" dominant-baseline="alphabetic">Click these to see </text><text x="0" y="39.743145892639404" font-family="Virgil, Segoe UI Emoji" font-size="18.693859780169053px" fill="#2f9e44" text-anchor="start" style="white-space: pre;" direction="ltr" dominant-baseline="alphabetic">high latency spans </text><text x="0" y="63.11047061785072" font-family="Virgil, Segoe UI Emoji" font-size="18.693859780169053px" fill="#2f9e44" text-anchor="start" style="white-space: pre;" direction="ltr" dominant-baseline="alphabetic">in trace filter page</text><text x="0" y="86.47779534306203" font-family="Virgil, Segoe UI Emoji" font-size="18.693859780169053px" fill="#2f9e44" text-anchor="start" style="white-space: pre;" direction="ltr" dominant-baseline="alphabetic">for that topic, </text><text x="0" y="109.84512006827335" font-family="Virgil, Segoe UI Emoji" font-size="18.693859780169053px" fill="#2f9e44" text-anchor="start" style="white-space: pre;" direction="ltr" dominant-baseline="alphabetic">partition and </text><text x="0" y="133.21244479348468" font-family="Virgil, Segoe UI Emoji" font-size="18.693859780169053px" fill="#2f9e44" text-anchor="start" style="white-space: pre;" direction="ltr" dominant-baseline="alphabetic">consumer service</text></g><g stroke-linecap="round"><g transform="translate(1279.9296568437649 649.0119788010779) rotate(0 -19.455017455611483 -35.061812395589186)"><path d="M-0.15 0.65 C-6.49 -10.95, -32.42 -59.05, -38.76 -70.77 M-1.69 -0.06 C-7.61 -11.35, -30.37 -57.38, -36.62 -69.29" stroke="#2f9e44" stroke-width="1" fill="none"></path></g><g transform="translate(1279.9296568437649 649.0119788010779) rotate(0 -19.455017455611483 -35.061812395589186)"><path d="M-37.24 -70.27 L-23.21 -61.06 L-37.92 -52.62 L-37.07 -70.64" stroke="none" stroke-width="0" fill="#2f9e44" fill-rule="evenodd"></path><path d="M-36.62 -69.29 C-33.06 -68.41, -31.15 -65.47, -24.81 -60.04 M-36.62 -69.29 C-32.8 -65.98, -28.28 -62.35, -24.81 -60.04 M-24.81 -60.04 C-28.23 -58.49, -29.23 -57.54, -36.11 -54.3 M-24.81 -60.04 C-26.93 -58.67, -29.52 -57.61, -36.11 -54.3 M-36.11 -54.3 C-35.7 -59.11, -36.63 -65.2, -36.62 -69.29 M-36.11 -54.3 C-36.55 -58.25, -36.3 -62.55, -36.62 -69.29 M-36.62 -69.29 C-36.62 -69.29, -36.62 -69.29, -36.62 -69.29 M-36.62 -69.29 C-36.62 -69.29, -36.62 -69.29, -36.62 -69.29" stroke="#2f9e44" stroke-width="1" fill="none"></path></g></g><mask></mask><g transform="translate(1267.7034053638927 674.9579605159261) rotate(0 79.6396270439941 81.78563653823949)"><text x="0" y="16.37582116742809" font-family="Virgil, Segoe UI Emoji" font-size="18.693859780169053px" fill="#2f9e44" text-anchor="start" style="white-space: pre;" direction="ltr" dominant-baseline="alphabetic">Click these to </text><text x="0" y="39.743145892639404" font-family="Virgil, Segoe UI Emoji" font-size="18.693859780169053px" fill="#2f9e44" text-anchor="start" style="white-space: pre;" direction="ltr" dominant-baseline="alphabetic">see spans with </text><text x="0" y="63.11047061785072" font-family="Virgil, Segoe UI Emoji" font-size="18.693859780169053px" fill="#2f9e44" text-anchor="start" style="white-space: pre;" direction="ltr" dominant-baseline="alphabetic">erros in trace </text><text x="0" y="86.47779534306203" font-family="Virgil, Segoe UI Emoji" font-size="18.693859780169053px" fill="#2f9e44" text-anchor="start" style="white-space: pre;" direction="ltr" dominant-baseline="alphabetic">filter page for </text><text x="0" y="109.84512006827335" font-family="Virgil, Segoe UI Emoji" font-size="18.693859780169053px" fill="#2f9e44" text-anchor="start" style="white-space: pre;" direction="ltr" dominant-baseline="alphabetic">that topic, </text><text x="0" y="133.21244479348468" font-family="Virgil, Segoe UI Emoji" font-size="18.693859780169053px" fill="#2f9e44" text-anchor="start" style="white-space: pre;" direction="ltr" dominant-baseline="alphabetic">partition and </text><text x="0" y="156.57976951869597" font-family="Virgil, Segoe UI Emoji" font-size="18.693859780169053px" fill="#2f9e44" text-anchor="start" style="white-space: pre;" direction="ltr" dominant-baseline="alphabetic">consumer service</text></g><g transform="translate(995.3621146262908 441.0686687944635) rotate(0 30.595827765136733 14.514159039072183)"><text x="0" y="20.343045309163433" font-family="Virgil, Segoe UI Emoji" font-size="23.222654462515333px" fill="#1971c2" text-anchor="start" style="white-space: pre;" direction="ltr" dominant-baseline="alphabetic">10 ms</text></g><g transform="translate(1024.6526513980125 475.5516081651276) rotate(0 12.999004503398396 10.030102680588698)"><text x="0" y="14.058191917112971" font-family="Virgil, Segoe UI Emoji" font-size="16.04816428894175px" fill="#e03131" text-anchor="start" style="white-space: pre;" direction="ltr" dominant-baseline="alphabetic">3%</text></g><g stroke-linecap="round"><g transform="translate(1055.1785142789727 489.60465531911177) rotate(0 0.5129420554766284 -6.56249714382011)"><path d="M0 0 C0.26 -3.29, 0.51 -6.58, 1.03 -13.12 M0 0 C0.41 -5.2, 0.81 -10.41, 1.03 -13.12" stroke="#e03131" stroke-width="1" fill="none"></path></g><g transform="translate(1055.1785142789727 489.60465531911177) rotate(0 0.5129420554766284 -6.56249714382011)"><path d="M2.79 -6.78 C2.35 -8.37, 1.91 -9.96, 1.03 -13.12 M2.79 -6.78 C2.09 -9.3, 1.39 -11.81, 1.03 -13.12" stroke="#e03131" stroke-width="1" fill="none"></path></g><g transform="translate(1055.1785142789727 489.60465531911177) rotate(0 0.5129420554766284 -6.56249714382011)"><path d="M-1.7 -7.13 C-1.02 -8.64, -0.33 -10.14, 1.03 -13.12 M-1.7 -7.13 C-0.62 -9.51, 0.46 -11.88, 1.03 -13.12" stroke="#e03131" stroke-width="1" fill="none"></path></g></g><mask></mask><g transform="translate(1163.0839779405023 448.48261313838975) rotate(0 33.417147810772576 14.413889550955446)"><text x="0" y="20.20250759461905" font-family="Virgil, Segoe UI Emoji" font-size="23.062223281528595px" fill="#1971c2" text-anchor="start" style="white-space: pre;" direction="ltr" dominant-baseline="alphabetic">  10%</text></g><g transform="translate(1192.172164226683 482.7273308752592) rotate(0 9.636033547398029 9.960810807815733)"><text x="0" y="13.961072428234509" font-family="Virgil, Segoe UI Emoji" font-size="15.937297292505148px" fill="#e03131" text-anchor="start" style="white-space: pre;" direction="ltr" dominant-baseline="alphabetic">1%</text></g><g stroke-linecap="round"><g transform="translate(1219.5682920665104 497.1872811985595) rotate(0 0.0029522108447963546 -6.1213425487733275)"><path d="M0 0 C0 -2.45, 0 -4.9, 0.01 -12.24 M0 0 C0 -2.73, 0 -5.46, 0.01 -12.24" stroke="#e03131" stroke-width="1" fill="none"></path></g><g transform="translate(1219.5682920665104 497.1872811985595) rotate(0 0.0029522108447963546 -6.1213425487733275)"><path d="M2.1 -6.49 C1.68 -7.64, 1.26 -8.79, 0.01 -12.24 M2.1 -6.49 C1.63 -7.77, 1.16 -9.06, 0.01 -12.24" stroke="#e03131" stroke-width="1" fill="none"></path></g><g transform="translate(1219.5682920665104 497.1872811985595) rotate(0 0.0029522108447963546 -6.1213425487733275)"><path d="M-2.09 -6.49 C-1.67 -7.64, -1.25 -8.8, 0.01 -12.24 M-2.09 -6.49 C-1.62 -7.77, -1.15 -9.06, 0.01 -12.24" stroke="#e03131" stroke-width="1" fill="none"></path></g></g><mask></mask><g transform="translate(1291.625436821952 447.33313355153587) rotate(0 65.68639373779297 14.413889550955446)"><text x="0" y="20.20250759461905" font-family="Virgil, Segoe UI Emoji" font-size="23.062223281528595px" fill="#1e1e1e" text-anchor="start" style="white-space: pre;" direction="ltr" dominant-baseline="alphabetic">  28 msg/s</text></g><g transform="translate(1334.3970959231842 476.7229291625117) rotate(0 9.636033547398029 9.960810807815733)"><text x="0" y="13.961072428234509" font-family="Virgil, Segoe UI Emoji" font-size="15.937297292505148px" fill="#1e1e1e" text-anchor="start" style="white-space: pre;" direction="ltr" dominant-baseline="alphabetic">1%</text></g><g stroke-linecap="round"><g transform="translate(1361.7932237630112 491.182879485812) rotate(0 0.0029522108447963546 -6.121342548772191)"><path d="M0 0 C0 -3.93, 0 -7.86, 0.01 -12.24 M0 0 C0 -3.22, 0 -6.44, 0.01 -12.24" stroke="#1e1e1e" stroke-width="1" fill="none"></path></g><g transform="translate(1361.7932237630112 491.182879485812) rotate(0 0.0029522108447963546 -6.121342548772191)"><path d="M2.1 -6.49 C1.43 -8.34, 0.75 -10.19, 0.01 -12.24 M2.1 -6.49 C1.55 -8, 1 -9.52, 0.01 -12.24" stroke="#1e1e1e" stroke-width="1" fill="none"></path></g><g transform="translate(1361.7932237630112 491.182879485812) rotate(0 0.0029522108447963546 -6.121342548772191)"><path d="M-2.09 -6.49 C-1.42 -8.34, -0.74 -10.19, 0.01 -12.24 M-2.09 -6.49 C-1.54 -8, -0.99 -9.52, 0.01 -12.24" stroke="#1e1e1e" stroke-width="1" fill="none"></path></g></g><mask></mask><g stroke-linecap="round"><g transform="translate(971.84814453125 300.0935134610072) rotate(0 0 172.50244140625)"><path d="M0 0 C0 78.87, 0 157.74, 0 345" stroke="#1e1e1e" stroke-width="1.5" fill="none" stroke-dasharray="8 9"></path></g></g><mask></mask><g transform="translate(832.02880859375 232.7692947110072) rotate(0 213.83987426757812 10)"><text x="0" y="14.016" font-family="Virgil, Segoe UI Emoji" font-size="16px" fill="#1e1e1e" text-anchor="start" style="white-space: pre;" direction="ltr" dominant-baseline="alphabetic">Metrics for Topic T3 , Consumer Service - CService 3</text></g></svg>