<svg version="1.1" xmlns="http://www.w3.org/2000/svg" viewBox="0 0 1461.0205078125 923.1557769220149" width="1461.0205078125" height="923.1557769220149">
  <!-- svg-source:excalidraw -->
  
  <defs>
    <style class="style-fonts">
      @font-face {
        font-family: "Virgil";
        src: url("https://excalidraw.com/Virgil.woff2");
      }
      @font-face {
        font-family: "Cascadia";
        src: url("https://excalidraw.com/Cascadia.woff2");
      }
      @font-face {
        font-family: "Assistant";
        src: url("https://app.excalidraw.com//dist/excalidraw-assets/Assistant-Regular.woff2");
      }
    </style>
    
  </defs>
  <rect x="0" y="0" width="1461.0205078125" height="923.1557769220149" fill="#ffffff"></rect><g transform="translate(270.67229798693586 266.20332100293217) rotate(0 35.21116260114982 14.327465287908808)"><text x="0" y="20.081375347533132" font-family="Virgil, Segoe UI Emoji" font-size="22.923944460654262px" fill="#1e1e1e" text-anchor="start" style="white-space: pre;" direction="ltr" dominant-baseline="alphabetic">Topic </text></g><g stroke-linecap="round"><g transform="translate(260.57794744318187 306.71199043804336) rotate(0 436.78248972706956 0)"><path d="M0 0 C145.59 0, 727.97 0, 873.56 0 M0 0 C145.59 0, 727.97 0, 873.56 0" stroke="#1e1e1e" stroke-width="2" fill="none"></path></g></g><mask></mask><g transform="translate(380.0189700163661 235.7678159944553) rotate(0 50.263526916503906 28.654930575817843)"><text x="0" y="20.08137534753314" font-family="Virgil, Segoe UI Emoji" font-size="22.92394446065427px" fill="#1e1e1e" text-anchor="start" style="white-space: pre;" direction="ltr" dominant-baseline="alphabetic">Consumer</text><text x="0" y="48.736305923350976" font-family="Virgil, Segoe UI Emoji" font-size="22.92394446065427px" fill="#1e1e1e" text-anchor="start" style="white-space: pre;" direction="ltr" dominant-baseline="alphabetic">Service</text></g><g stroke-linecap="round"><g transform="translate(352.51644699067856 270.9506624922151) rotate(0 -2.842170943040401e-14 199.9940657542113)"><path d="M0 0 C0 66.66, 0 333.32, 0 399.99" stroke="#1e1e1e" stroke-width="2.5" fill="none" stroke-dasharray="1.5 8"></path></g></g><mask></mask><g stroke-linecap="round"><g transform="translate(515.8433211156967 269.89152678946994) rotate(0 -5.684341886080802e-14 199.9940657542113)"><path d="M0 0 C0 66.66, 0 333.32, 0 399.99" stroke="#1e1e1e" stroke-width="2.5" fill="none" stroke-dasharray="1.5 8"></path></g></g><mask></mask><g transform="translate(848.0135996572704 268.392666903409) rotate(0 81.77834336079172 14.327465287908808)"><text x="0" y="20.08137534753314" font-family="Virgil, Segoe UI Emoji" font-size="22.923944460654265px" fill="#1e1e1e" text-anchor="start" style="white-space: pre;" direction="ltr" dominant-baseline="alphabetic">p99 latency</text></g><g stroke-linecap="round"><g transform="translate(682.9853959749033 268.5348086298218) rotate(0 -5.684341886080802e-14 199.9940657542113)"><path d="M0 0 C0 66.66, 0 333.32, 0 399.99" stroke="#1e1e1e" stroke-width="2.5" fill="none" stroke-dasharray="1.5 8"></path></g></g><mask></mask><g transform="translate(536.9914327701761 231.8243843961436) rotate(0 50.515647888183594 28.654930575817843)"><text x="0" y="20.081375347533132" font-family="Virgil, Segoe UI Emoji" font-size="22.923944460654262px" fill="#1e1e1e" text-anchor="start" style="white-space: pre;" direction="ltr" dominant-baseline="alphabetic">Ingestion</text><text x="0" y="48.73630592335096" font-family="Virgil, Segoe UI Emoji" font-size="22.923944460654262px" fill="#1e1e1e" text-anchor="start" style="white-space: pre;" direction="ltr" dominant-baseline="alphabetic">Rate</text></g><g stroke-linecap="round"><g transform="translate(822.9231506778068 268.21303573887326) rotate(0 -5.684341886080802e-14 199.9940657542113)"><path d="M0 0 C0 66.66, 0 333.32, 0 399.99" stroke="#1e1e1e" stroke-width="2.5" fill="none" stroke-dasharray="1.5 8"></path></g></g><mask></mask><g transform="translate(264.3336256818942 339.2328135696798) rotate(0 12.321617961403973 14.327465287908808)"><text x="0" y="20.08137534753314" font-family="Virgil, Segoe UI Emoji" font-size="22.923944460654265px" fill="#1e1e1e" text-anchor="start" style="white-space: pre;" direction="ltr" dominant-baseline="alphabetic">T1</text></g><g transform="translate(371.1372354563337 339.2328135696798) rotate(0 54.15991973876953 14.327465287908808)"><text x="0" y="20.08137534753314" font-family="Virgil, Segoe UI Emoji" font-size="22.923944460654265px" fill="#1e1e1e" text-anchor="start" style="white-space: pre;" direction="ltr" dominant-baseline="alphabetic">Cservice 1</text></g><g transform="translate(852.5310446712913 339.34474689224135) rotate(0 32.357125219549005 14.327465287908808)"><text x="0" y="20.08137534753314" font-family="Virgil, Segoe UI Emoji" font-size="22.92394446065427px" fill="#1e1e1e" text-anchor="start" style="white-space: pre;" direction="ltr" dominant-baseline="alphabetic">100ms</text></g><g transform="translate(540.4252764003373 339.34474689224135) rotate(0 51.86792755126953 14.327465287908808)"><text x="0" y="20.08137534753314" font-family="Virgil, Segoe UI Emoji" font-size="22.923944460654265px" fill="#1e1e1e" text-anchor="start" style="white-space: pre;" direction="ltr" dominant-baseline="alphabetic">50 msg/s</text></g><g transform="translate(263.80837456582265 411.9451050546877) rotate(0 12.321617961403973 14.327465287908808)"><text x="0" y="20.08137534753314" font-family="Virgil, Segoe UI Emoji" font-size="22.923944460654265px" fill="#1e1e1e" text-anchor="start" style="white-space: pre;" direction="ltr" dominant-baseline="alphabetic">T1</text></g><g transform="translate(370.61198434026215 411.9451050546877) rotate(0 59.21377563476565 14.327465287908808)"><text x="0" y="20.08137534753314" font-family="Virgil, Segoe UI Emoji" font-size="22.923944460654265px" fill="#1e1e1e" text-anchor="start" style="white-space: pre;" direction="ltr" dominant-baseline="alphabetic">Cservice 2</text></g><g transform="translate(857.0057935552197 411.9451050546877) rotate(0 24.471291473208623 14.327465287908808)"><text x="0" y="20.08137534753314" font-family="Virgil, Segoe UI Emoji" font-size="22.923944460654265px" fill="#1e1e1e" text-anchor="start" style="white-space: pre;" direction="ltr" dominant-baseline="alphabetic">10ms</text></g><g transform="translate(539.9000252842658 411.9451050546877) rotate(0 52.945167541503906 14.327465287908808)"><text x="0" y="20.08137534753314" font-family="Virgil, Segoe UI Emoji" font-size="22.923944460654265px" fill="#1e1e1e" text-anchor="start" style="white-space: pre;" direction="ltr" dominant-baseline="alphabetic">20 msg/s</text></g><g transform="translate(263.80710540437485 477.23468250350106) rotate(0 17.376347540082406 14.327465287908808)"><text x="0" y="20.08137534753314" font-family="Virgil, Segoe UI Emoji" font-size="22.923944460654265px" fill="#1e1e1e" text-anchor="start" style="white-space: pre;" direction="ltr" dominant-baseline="alphabetic">T2</text></g><g transform="translate(370.6107151788144 477.39093250350106) rotate(0 54.904815673828125 14.327465287908808)"><text x="0" y="20.08137534753314" font-family="Virgil, Segoe UI Emoji" font-size="22.923944460654265px" fill="#1e1e1e" text-anchor="start" style="white-space: pre;" direction="ltr" dominant-baseline="alphabetic">CService 1</text></g><g transform="translate(857.004524393772 477.3873188524485) rotate(0 28.700753279741548 14.327465287908808)"><text x="0" y="20.08137534753314" font-family="Virgil, Segoe UI Emoji" font-size="22.92394446065427px" fill="#1e1e1e" text-anchor="start" style="white-space: pre;" direction="ltr" dominant-baseline="alphabetic">40ms</text></g><g transform="translate(544.898756122818 477.23468250350106) rotate(0 60.474388122558594 14.327465287908808)"><text x="0" y="20.08137534753314" font-family="Virgil, Segoe UI Emoji" font-size="22.923944460654265px" fill="#1e1e1e" text-anchor="start" style="white-space: pre;" direction="ltr" dominant-baseline="alphabetic">300 msg/s</text></g><g stroke-linecap="round" transform="translate(10.094006147541506 13.155776922014866) rotate(0 720 450)"><path d="M0 0 C292.74 0.94, 584.24 1.09, 1440 0 M0 0 C357.87 0.75, 715.76 1.23, 1440 0 M1440 0 C1439.8 356.6, 1440.37 713.53, 1440 900 M1440 0 C1436.29 232.14, 1436.42 463.99, 1440 900 M1440 900 C1094.81 897.18, 750.88 897.6, 0 900 M1440 900 C1068.95 895.82, 697.26 895.8, 0 900 M0 900 C0.84 582.07, 0.58 264.51, 0 0 M0 900 C-0.68 582.13, -1.2 265.33, 0 0" stroke="#000000" stroke-width="1" fill="none"></path></g><g stroke-linecap="round"><g transform="translate(217.96875 10) rotate(0 -2.842170943040401e-14 451.39404296875)"><path d="M0 0 C0 150.46, 0 752.32, 0 902.79 M0 0 C0 150.46, 0 752.32, 0 902.79" stroke="#1e1e1e" stroke-width="1" fill="none"></path></g></g><mask></mask><g stroke-linecap="round"><g transform="translate(10 84.5361328125) rotate(0 720.51025390625 0)"><path d="M0 0 C240.17 0, 1200.85 0, 1441.02 0 M0 0 C240.17 0, 1200.85 0, 1441.02 0" stroke="#1e1e1e" stroke-width="1" fill="none"></path></g></g><mask></mask><g stroke-linecap="round"><g transform="translate(266.99239676339243 187.77585163065123) rotate(0 564.8186383928569 0)"><path d="M0 0 C344.92 0, 689.85 0, 1129.64 0 M0 0 C420.27 0, 840.53 0, 1129.64 0" stroke="#1e1e1e" stroke-width="2" fill="none"></path></g></g><mask></mask><g stroke-linecap="round" transform="translate(279.2412806919639 140.46070096100811) rotate(0 249.8967633928571 22.5)"><path d="M0 0 C103.95 0, 207.91 0, 499.79 0 M0 0 C148.76 0, 297.52 0, 499.79 0 M499.79 0 C499.79 9.15, 499.79 18.29, 499.79 45 M499.79 0 C499.79 17.96, 499.79 35.93, 499.79 45 M499.79 45 C330.44 45, 161.09 45, 0 45 M499.79 45 C362.7 45, 225.61 45, 0 45 M0 45 C0 30.28, 0 15.55, 0 0 M0 45 C0 33.31, 0 21.63, 0 0" stroke="#1e1e1e" stroke-width="1" fill="none"></path></g><g transform="translate(461.882070268903 145.46070096100811) rotate(0 67.25597381591797 17.5)"><text x="67.25597381591797" y="24.528" font-family="Virgil, Segoe UI Emoji" font-size="28px" fill="#1e1e1e" text-anchor="middle" style="white-space: pre;" direction="ltr" dominant-baseline="alphabetic">Producers</text></g><g stroke-linecap="round" transform="translate(871.0904715401781 140.44605252350811) rotate(0 248.57700892857156 22.5)"><path d="M0 0 L497.15 0 L497.15 45 L0 45" stroke="none" stroke-width="0" fill="#a5d8ff"></path><path d="M0 0 C131.95 0, 263.91 0, 497.15 0 M0 0 C177.55 0, 355.11 0, 497.15 0 M497.15 0 C497.15 12.47, 497.15 24.93, 497.15 45 M497.15 0 C497.15 14.74, 497.15 29.48, 497.15 45 M497.15 45 C352 45, 206.86 45, 0 45 M497.15 45 C369.2 45, 241.25 45, 0 45 M0 45 C0 34.03, 0 23.07, 0 0 M0 45 C0 30.39, 0 15.77, 0 0" stroke="#1971c2" stroke-width="2" fill="none"></path></g><g transform="translate(1050.6615066528316 145.44605252350811) rotate(0 69.00597381591797 17.5)"><text x="69.00597381591797" y="24.528" font-family="Virgil, Segoe UI Emoji" font-size="28px" fill="#1971c2" text-anchor="middle" style="white-space: pre;" direction="ltr" dominant-baseline="alphabetic">Consumers</text></g><g stroke-linecap="round"><g transform="translate(1165.738207779003 69.97241971100811) rotate(0 -35.37620878720725 28.35344587053578)"><path d="M0 0 C-16.77 13.44, -33.53 26.88, -70.75 56.71 M0 0 C-15.77 12.64, -31.54 25.28, -70.75 56.71" stroke="#2f9e44" stroke-width="1" fill="none"></path></g><g transform="translate(1165.738207779003 69.97241971100811) rotate(0 -35.37620878720725 28.35344587053578)"><path d="M-70.75 56.71 L-64.11 43.26 L-56.18 53.15 L-70.75 56.71" stroke="none" stroke-width="0" fill="#2f9e44" fill-rule="evenodd"></path><path d="M-70.75 56.71 C-69.18 53.52, -67.6 50.33, -64.11 43.26 M-70.75 56.71 C-69.27 53.71, -67.79 50.71, -64.11 43.26 M-64.11 43.26 C-62.09 45.77, -60.08 48.29, -56.18 53.15 M-64.11 43.26 C-62.27 45.55, -60.44 47.84, -56.18 53.15 M-56.18 53.15 C-60.31 54.16, -64.43 55.16, -70.75 56.71 M-56.18 53.15 C-60.77 54.27, -65.36 55.39, -70.75 56.71 M-70.75 56.71 C-70.75 56.71, -70.75 56.71, -70.75 56.71 M-70.75 56.71 C-70.75 56.71, -70.75 56.71, -70.75 56.71" stroke="#2f9e44" stroke-width="1" fill="none"></path></g></g><mask></mask><g transform="translate(1148.8115931919633 23.228558103865453) rotate(0 119.9039306640625 20)"><text x="0" y="14.016" font-family="Virgil, Segoe UI Emoji" font-size="16px" fill="#2f9e44" text-anchor="start" style="white-space: pre;" direction="ltr" dominant-baseline="alphabetic">At a time, either producer or </text><text x="0" y="34.016" font-family="Virgil, Segoe UI Emoji" font-size="16px" fill="#2f9e44" text-anchor="start" style="white-space: pre;" direction="ltr" dominant-baseline="alphabetic">consumer tab is selected</text></g><g transform="translate(701.3033196585515 341.174390807028) rotate(0 45.725372314453125 14.327465287908808)"><text x="0" y="20.08137534753314" font-family="Virgil, Segoe UI Emoji" font-size="22.923944460654265px" fill="#1e1e1e" text-anchor="start" style="white-space: pre;" direction="ltr" dominant-baseline="alphabetic">50 mb/s</text></g><g transform="translate(701.9575936453679 412.649000182028) rotate(0 48.785194396972656 14.327465287908808)"><text x="0" y="20.08137534753314" font-family="Virgil, Segoe UI Emoji" font-size="22.923944460654265px" fill="#1e1e1e" text-anchor="start" style="white-space: pre;" direction="ltr" dominant-baseline="alphabetic">5.3 mb/s</text></g><g transform="translate(701.2268731253483 476.516187682028) rotate(0 49.942649841308594 14.327465287908808)"><text x="0" y="20.08137534753314" font-family="Virgil, Segoe UI Emoji" font-size="22.923944460654265px" fill="#1e1e1e" text-anchor="start" style="white-space: pre;" direction="ltr" dominant-baseline="alphabetic">0.2 mb/s</text></g><g transform="translate(702.9014489310124 542.292554869528) rotate(0 45.16383361816406 14.327465287908808)"><text x="0" y="20.08137534753314" font-family="Virgil, Segoe UI Emoji" font-size="22.923944460654265px" fill="#1971c2" text-anchor="start" style="white-space: pre;" direction="ltr" dominant-baseline="alphabetic">1.2 mb/s</text></g><g transform="translate(703.8177086966373 236.10962083161894) rotate(0 28.157203674316406 28.654930575817843)"><text x="0" y="20.081375347533132" font-family="Virgil, Segoe UI Emoji" font-size="22.923944460654262px" fill="#1e1e1e" text-anchor="start" style="white-space: pre;" direction="ltr" dominant-baseline="alphabetic">Byte</text><text x="0" y="48.73630592335096" font-family="Virgil, Segoe UI Emoji" font-size="22.923944460654262px" fill="#1e1e1e" text-anchor="start" style="white-space: pre;" direction="ltr" dominant-baseline="alphabetic">Rate</text></g><g stroke-linecap="round"><g transform="translate(988.547223772321 266.3281028407255) rotate(0 -5.684341886080802e-14 199.9940657542113)"><path d="M0 0 C0 66.66, 0 333.32, 0 399.99" stroke="#1e1e1e" stroke-width="2.5" fill="none" stroke-dasharray="1.5 8"></path></g></g><mask></mask><g transform="translate(1016.0394341605046 238.08227708161894) rotate(0 28.85626220703125 28.654930575817843)"><text x="0" y="20.081375347533132" font-family="Virgil, Segoe UI Emoji" font-size="22.923944460654262px" fill="#1e1e1e" text-anchor="start" style="white-space: pre;" direction="ltr" dominant-baseline="alphabetic">Error</text><text x="0" y="48.73630592335096" font-family="Virgil, Segoe UI Emoji" font-size="22.923944460654262px" fill="#1e1e1e" text-anchor="start" style="white-space: pre;" direction="ltr" dominant-baseline="alphabetic">Rate</text></g><g transform="translate(1011.3608605521061 339.34474689224135) rotate(0 33.050621032714844 14.327465287908808)"><text x="0" y="20.08137534753314" font-family="Virgil, Segoe UI Emoji" font-size="22.923944460654265px" fill="#1e1e1e" text-anchor="start" style="white-space: pre;" direction="ltr" dominant-baseline="alphabetic">10.2%</text></g><g transform="translate(1011.3608605521061 411.9451050546877) rotate(0 33.050621032714844 14.327465287908808)"><text x="0" y="20.08137534753314" font-family="Virgil, Segoe UI Emoji" font-size="22.923944460654265px" fill="#1e1e1e" text-anchor="start" style="white-space: pre;" direction="ltr" dominant-baseline="alphabetic">0.2%</text></g><g transform="translate(1011.3608605521061 477.39093250350106) rotate(0 33.050621032714844 14.327465287908808)"><text x="0" y="20.08137534753314" font-family="Virgil, Segoe UI Emoji" font-size="22.923944460654265px" fill="#1e1e1e" text-anchor="start" style="white-space: pre;" direction="ltr" dominant-baseline="alphabetic">22%</text></g><g transform="translate(265.7557627926095 544.7875067651894) rotate(0 17.02102482687991 14.327465287908808)"><text x="0" y="20.08137534753314" font-family="Virgil, Segoe UI Emoji" font-size="22.923944460654265px" fill="#1971c2" text-anchor="start" style="white-space: pre;" direction="ltr" dominant-baseline="alphabetic">T3</text></g><g transform="translate(367.5593725670491 544.7875067651894) rotate(0 59.603416442871094 14.327465287908808)"><text x="0" y="20.08137534753314" font-family="Virgil, Segoe UI Emoji" font-size="22.923944460654265px" fill="#1971c2" text-anchor="start" style="white-space: pre;" direction="ltr" dominant-baseline="alphabetic">CService 3</text></g><g transform="translate(863.9531817820066 544.9401431141378) rotate(0 28.700753279741548 14.327465287908808)"><text x="0" y="20.08137534753314" font-family="Virgil, Segoe UI Emoji" font-size="22.92394446065427px" fill="#1971c2" text-anchor="start" style="white-space: pre;" direction="ltr" dominant-baseline="alphabetic">40ms</text></g><g transform="translate(541.8474135110527 544.7875067651894) rotate(0 60.474388122558594 14.327465287908808)"><text x="0" y="20.08137534753314" font-family="Virgil, Segoe UI Emoji" font-size="22.923944460654265px" fill="#1971c2" text-anchor="start" style="white-space: pre;" direction="ltr" dominant-baseline="alphabetic">300 msg/s</text></g><g transform="translate(1011.3608605521061 544.9401431141378) rotate(0 33.050621032714844 14.327465287908808)"><text x="0" y="20.08137534753314" font-family="Virgil, Segoe UI Emoji" font-size="22.923944460654265px" fill="#1971c2" text-anchor="start" style="white-space: pre;" direction="ltr" dominant-baseline="alphabetic">0.5%</text></g><g stroke-linecap="round"><g transform="translate(333.278669084821 714.9354498449366) rotate(0 41.6748046875 -66.20849609375)"><path d="M0 0 C27.27 -43.33, 54.54 -86.65, 83.35 -132.42 M0 0 C21.65 -34.39, 43.29 -68.77, 83.35 -132.42" stroke="#2f9e44" stroke-width="1" fill="none"></path></g><g transform="translate(333.278669084821 714.9354498449366) rotate(0 41.6748046875 -66.20849609375)"><path d="M83.35 -132.42 L81.47 -117.53 L70.74 -124.29 L83.35 -132.42" stroke="none" stroke-width="0" fill="#2f9e44" fill-rule="evenodd"></path><path d="M83.35 -132.42 C82.74 -127.55, 82.12 -122.68, 81.47 -117.53 M83.35 -132.42 C82.86 -128.55, 82.37 -124.69, 81.47 -117.53 M81.47 -117.53 C78.81 -119.21, 76.15 -120.89, 70.74 -124.29 M81.47 -117.53 C77.79 -119.85, 74.11 -122.17, 70.74 -124.29 M70.74 -124.29 C73.42 -126.01, 76.09 -127.74, 83.35 -132.42 M70.74 -124.29 C74.54 -126.74, 78.34 -129.19, 83.35 -132.42 M83.35 -132.42 C83.35 -132.42, 83.35 -132.42, 83.35 -132.42 M83.35 -132.42 C83.35 -132.42, 83.35 -132.42, 83.35 -132.42" stroke="#2f9e44" stroke-width="1" fill="none"></path></g></g><mask></mask><g transform="translate(318.581403459821 733.0702154699366) rotate(0 203.40786743164062 10)"><text x="0" y="14.016" font-family="Virgil, Segoe UI Emoji" font-size="16px" fill="#2f9e44" text-anchor="start" style="white-space: pre;" direction="ltr" dominant-baseline="alphabetic">Each row is clickable which will open up a side panel</text></g><g stroke-linecap="round" transform="translate(246.349958147321 533.6903326574366) rotate(0 423.14453125 25.95703125)"><path d="M0 0 C206.25 0, 412.49 0, 846.29 0 M846.29 0 C846.29 16.86, 846.29 33.72, 846.29 51.91 M846.29 51.91 C585.38 51.91, 324.48 51.91, 0 51.91 M0 51.91 C0 37.18, 0 22.44, 0 0" stroke="#1971c2" stroke-width="1.5" fill="none" stroke-dasharray="8 9"></path></g></svg>