<svg version="1.1" xmlns="http://www.w3.org/2000/svg" viewBox="0 0 1461.0205078125 923.1557769220149" width="1461.0205078125" height="923.1557769220149">
  <!-- svg-source:excalidraw -->
  
  <defs>
    <style class="style-fonts">
      @font-face {
        font-family: "Virgil";
        src: url("https://excalidraw.com/Virgil.woff2");
      }
      @font-face {
        font-family: "Cascadia";
        src: url("https://excalidraw.com/Cascadia.woff2");
      }
      @font-face {
        font-family: "Assistant";
        src: url("https://app.excalidraw.com//dist/excalidraw-assets/Assistant-Regular.woff2");
      }
    </style>
    
  </defs>
  <rect x="0" y="0" width="1461.0205078125" height="923.1557769220149" fill="#ffffff"></rect><g transform="translate(270.67229798693586 266.3546881904324) rotate(0 35.21116260114982 14.327465287908922)"><text x="0" y="20.081375347533132" font-family="Virgil, Segoe UI Emoji" font-size="22.923944460654262px" fill="#1e1e1e" text-anchor="start" style="white-space: pre;" direction="ltr" dominant-baseline="alphabetic">Topic </text></g><g stroke-linecap="round"><g transform="translate(260.57794744318187 306.8633576255436) rotate(0 436.7824897270696 0)"><path d="M0 0 C145.59 0, 727.97 0, 873.56 0 M0 0 C145.59 0, 727.97 0, 873.56 0" stroke="#1e1e1e" stroke-width="2" fill="none"></path></g></g><mask></mask><g transform="translate(380.0189700163661 235.9191831819552) rotate(0 54.56102752685547 28.654930575817843)"><text x="0" y="20.08137534753314" font-family="Virgil, Segoe UI Emoji" font-size="22.92394446065427px" fill="#1e1e1e" text-anchor="start" style="white-space: pre;" direction="ltr" dominant-baseline="alphabetic">Producer </text><text x="0" y="48.736305923350976" font-family="Virgil, Segoe UI Emoji" font-size="22.92394446065427px" fill="#1e1e1e" text-anchor="start" style="white-space: pre;" direction="ltr" dominant-baseline="alphabetic">Service</text></g><g stroke-linecap="round"><g transform="translate(352.51644699067856 271.10202967971486) rotate(0 -2.842170943040401e-14 199.99406575421142)"><path d="M0 0 C0 66.66, 0 333.32, 0 399.99" stroke="#1e1e1e" stroke-width="2.5" fill="none" stroke-dasharray="1.5 8"></path></g></g><mask></mask><g stroke-linecap="round"><g transform="translate(515.8433211156967 270.04289397697016) rotate(0 -5.684341886080802e-14 199.99406575421142)"><path d="M0 0 C0 66.66, 0 333.32, 0 399.99" stroke="#1e1e1e" stroke-width="2.5" fill="none" stroke-dasharray="1.5 8"></path></g></g><mask></mask><g transform="translate(848.0135996572704 268.544034090909) rotate(0 81.77834336079167 14.327465287908922)"><text x="0" y="20.08137534753314" font-family="Virgil, Segoe UI Emoji" font-size="22.923944460654265px" fill="#1e1e1e" text-anchor="start" style="white-space: pre;" direction="ltr" dominant-baseline="alphabetic">p99 latency</text></g><g stroke-linecap="round"><g transform="translate(682.9853959749033 268.68617581732155) rotate(0 -5.684341886080802e-14 199.99406575421142)"><path d="M0 0 C0 66.66, 0 333.32, 0 399.99" stroke="#1e1e1e" stroke-width="2.5" fill="none" stroke-dasharray="1.5 8"></path></g></g><mask></mask><g transform="translate(536.9914327701761 231.97575158364384) rotate(0 50.515647888183594 28.65493057581783)"><text x="0" y="20.081375347533132" font-family="Virgil, Segoe UI Emoji" font-size="22.923944460654262px" fill="#1e1e1e" text-anchor="start" style="white-space: pre;" direction="ltr" dominant-baseline="alphabetic">Ingestion</text><text x="0" y="48.73630592335096" font-family="Virgil, Segoe UI Emoji" font-size="22.923944460654262px" fill="#1e1e1e" text-anchor="start" style="white-space: pre;" direction="ltr" dominant-baseline="alphabetic">Rate</text></g><g stroke-linecap="round"><g transform="translate(822.9231506778068 268.36440292637326) rotate(0 -5.684341886080802e-14 199.99406575421142)"><path d="M0 0 C0 66.66, 0 333.32, 0 399.99" stroke="#1e1e1e" stroke-width="2.5" fill="none" stroke-dasharray="1.5 8"></path></g></g><mask></mask><g transform="translate(264.3336256818942 339.3841807571796) rotate(0 12.321617961403973 14.327465287908922)"><text x="0" y="20.08137534753314" font-family="Virgil, Segoe UI Emoji" font-size="22.923944460654265px" fill="#1e1e1e" text-anchor="start" style="white-space: pre;" direction="ltr" dominant-baseline="alphabetic">T1</text></g><g transform="translate(371.1372354563337 339.3841807571796) rotate(0 54.35474395751953 14.327465287908922)"><text x="0" y="20.08137534753314" font-family="Virgil, Segoe UI Emoji" font-size="22.923944460654265px" fill="#1e1e1e" text-anchor="start" style="white-space: pre;" direction="ltr" dominant-baseline="alphabetic">Pservice 1</text></g><g transform="translate(852.5310446712913 339.49611407974135) rotate(0 32.357125219549005 14.327465287908922)"><text x="0" y="20.08137534753314" font-family="Virgil, Segoe UI Emoji" font-size="22.92394446065427px" fill="#1e1e1e" text-anchor="start" style="white-space: pre;" direction="ltr" dominant-baseline="alphabetic">100ms</text></g><g transform="translate(540.4252764003373 339.49611407974135) rotate(0 51.86792755126953 14.327465287908922)"><text x="0" y="20.08137534753314" font-family="Virgil, Segoe UI Emoji" font-size="22.923944460654265px" fill="#1e1e1e" text-anchor="start" style="white-space: pre;" direction="ltr" dominant-baseline="alphabetic">50 msg/s</text></g><g transform="translate(263.80837456582265 412.0964722421877) rotate(0 12.321617961403973 14.327465287908922)"><text x="0" y="20.08137534753314" font-family="Virgil, Segoe UI Emoji" font-size="22.923944460654265px" fill="#1e1e1e" text-anchor="start" style="white-space: pre;" direction="ltr" dominant-baseline="alphabetic">T1</text></g><g transform="translate(370.61198434026215 412.0964722421877) rotate(0 59.4085998535156 14.327465287908922)"><text x="0" y="20.08137534753314" font-family="Virgil, Segoe UI Emoji" font-size="22.923944460654265px" fill="#1e1e1e" text-anchor="start" style="white-space: pre;" direction="ltr" dominant-baseline="alphabetic">Pservice 2</text></g><g transform="translate(857.0057935552197 412.0964722421877) rotate(0 24.471291473208623 14.327465287908922)"><text x="0" y="20.08137534753314" font-family="Virgil, Segoe UI Emoji" font-size="22.923944460654265px" fill="#1e1e1e" text-anchor="start" style="white-space: pre;" direction="ltr" dominant-baseline="alphabetic">10ms</text></g><g transform="translate(539.9000252842658 412.0964722421877) rotate(0 52.945167541503906 14.327465287908922)"><text x="0" y="20.08137534753314" font-family="Virgil, Segoe UI Emoji" font-size="22.923944460654265px" fill="#1e1e1e" text-anchor="start" style="white-space: pre;" direction="ltr" dominant-baseline="alphabetic">20 msg/s</text></g><g transform="translate(263.80710540437485 477.38604969100084) rotate(0 17.376347540082406 14.327465287908922)"><text x="0" y="20.08137534753314" font-family="Virgil, Segoe UI Emoji" font-size="22.923944460654265px" fill="#1e1e1e" text-anchor="start" style="white-space: pre;" direction="ltr" dominant-baseline="alphabetic">T2</text></g><g transform="translate(370.6107151788144 477.54229969100084) rotate(0 55.099639892578125 14.327465287908922)"><text x="0" y="20.08137534753314" font-family="Virgil, Segoe UI Emoji" font-size="22.923944460654265px" fill="#1e1e1e" text-anchor="start" style="white-space: pre;" direction="ltr" dominant-baseline="alphabetic">PService 1</text></g><g transform="translate(857.004524393772 477.5386860399485) rotate(0 28.700753279741548 14.327465287908922)"><text x="0" y="20.08137534753314" font-family="Virgil, Segoe UI Emoji" font-size="22.92394446065427px" fill="#1e1e1e" text-anchor="start" style="white-space: pre;" direction="ltr" dominant-baseline="alphabetic">40ms</text></g><g transform="translate(544.898756122818 477.38604969100084) rotate(0 60.474388122558594 14.327465287908922)"><text x="0" y="20.08137534753314" font-family="Virgil, Segoe UI Emoji" font-size="22.923944460654265px" fill="#1e1e1e" text-anchor="start" style="white-space: pre;" direction="ltr" dominant-baseline="alphabetic">300 msg/s</text></g><g stroke-linecap="round" transform="translate(10.094006147541506 13.155776922014866) rotate(0 720 450)"><path d="M0 0 C549.92 3.21, 1099.51 2.78, 1440 0 M0 0 C489.11 0.56, 978.51 0.56, 1440 0 M1440 0 C1443.22 198.35, 1443.69 395.21, 1440 900 M1440 0 C1437.71 190.63, 1437.25 381.39, 1440 900 M1440 900 C955.21 902.16, 469.68 903.23, 0 900 M1440 900 C906.54 896.73, 372.19 896.42, 0 900 M0 900 C-0.83 674.99, -0.74 448.52, 0 0 M0 900 C-2.47 557.96, -2.55 215.02, 0 0" stroke="#000000" stroke-width="1" fill="none"></path></g><g stroke-linecap="round"><g transform="translate(217.96875 10) rotate(0 -2.842170943040401e-14 451.39404296875)"><path d="M0 0 C0 150.46, 0 752.32, 0 902.79 M0 0 C0 150.46, 0 752.32, 0 902.79" stroke="#1e1e1e" stroke-width="1" fill="none"></path></g></g><mask></mask><g stroke-linecap="round"><g transform="translate(10 84.5361328125) rotate(0 720.51025390625 0)"><path d="M0 0 C240.17 0, 1200.85 0, 1441.02 0 M0 0 C240.17 0, 1200.85 0, 1441.02 0" stroke="#1e1e1e" stroke-width="1" fill="none"></path></g></g><mask></mask><g stroke-linecap="round"><g transform="translate(266.99239676339243 187.92721881815106) rotate(0 564.818638392857 0)"><path d="M0 0 C430.04 0, 860.09 0, 1129.64 0 M0 0 C415.44 0, 830.87 0, 1129.64 0" stroke="#1e1e1e" stroke-width="2" fill="none"></path></g></g><mask></mask><g stroke-linecap="round" transform="translate(279.2412806919639 140.61206814850823) rotate(0 249.89676339285717 22.5)"><path d="M0 0 L499.79 0 L499.79 45 L0 45" stroke="none" stroke-width="0" fill="#a5d8ff"></path><path d="M0 0 C153.2 0, 306.4 0, 499.79 0 M0 0 C146.71 0, 293.42 0, 499.79 0 M499.79 0 C499.79 14.89, 499.79 29.78, 499.79 45 M499.79 0 C499.79 15.46, 499.79 30.92, 499.79 45 M499.79 45 C357.67 45, 215.55 45, 0 45 M499.79 45 C394.5 45, 289.21 45, 0 45 M0 45 C0 33.78, 0 22.56, 0 0 M0 45 C0 34.08, 0 23.15, 0 0" stroke="#1971c2" stroke-width="4" fill="none"></path></g><g transform="translate(461.882070268903 145.61206814850823) rotate(0 67.25597381591797 17.5)"><text x="67.25597381591797" y="24.528" font-family="Virgil, Segoe UI Emoji" font-size="28px" fill="#1971c2" text-anchor="middle" style="white-space: pre;" direction="ltr" dominant-baseline="alphabetic">Producers</text></g><g stroke-linecap="round" transform="translate(871.0904715401781 140.59741971100829) rotate(0 248.5770089285715 22.5)"><path d="M0 0 L497.15 0 L497.15 45 L0 45" stroke="none" stroke-width="0" fill="#ffffff"></path><path d="M0 0 C162.88 0, 325.76 0, 497.15 0 M0 0 C165.96 0, 331.92 0, 497.15 0 M497.15 0 C497.15 17.32, 497.15 34.63, 497.15 45 M497.15 0 C497.15 14.44, 497.15 28.88, 497.15 45 M497.15 45 C355.59 45, 214.03 45, 0 45 M497.15 45 C377.67 45, 258.18 45, 0 45 M0 45 C0 27.66, 0 10.32, 0 0 M0 45 C0 35.39, 0 25.79, 0 0" stroke="#1e1e1e" stroke-width="2" fill="none"></path></g><g transform="translate(1050.6615066528316 145.59741971100829) rotate(0 69.00597381591797 17.5)"><text x="69.00597381591797" y="24.528" font-family="Virgil, Segoe UI Emoji" font-size="28px" fill="#1e1e1e" text-anchor="middle" style="white-space: pre;" direction="ltr" dominant-baseline="alphabetic">Consumers</text></g><g transform="translate(1148.8115931919633 23.228558103865396) rotate(0 119.9039306640625 20)"><text x="0" y="14.016" font-family="Virgil, Segoe UI Emoji" font-size="16px" fill="#2f9e44" text-anchor="start" style="white-space: pre;" direction="ltr" dominant-baseline="alphabetic">At a time, either producer or </text><text x="0" y="34.016" font-family="Virgil, Segoe UI Emoji" font-size="16px" fill="#2f9e44" text-anchor="start" style="white-space: pre;" direction="ltr" dominant-baseline="alphabetic">consumer tab is selected</text></g><g transform="translate(701.3033196585515 341.3257579945279) rotate(0 45.725372314453125 14.327465287908922)"><text x="0" y="20.08137534753314" font-family="Virgil, Segoe UI Emoji" font-size="22.923944460654265px" fill="#1e1e1e" text-anchor="start" style="white-space: pre;" direction="ltr" dominant-baseline="alphabetic">50 mb/s</text></g><g transform="translate(701.9575936453679 412.8003673695279) rotate(0 48.785194396972656 14.327465287908922)"><text x="0" y="20.08137534753314" font-family="Virgil, Segoe UI Emoji" font-size="22.923944460654265px" fill="#1e1e1e" text-anchor="start" style="white-space: pre;" direction="ltr" dominant-baseline="alphabetic">5.3 mb/s</text></g><g transform="translate(701.2268731253483 476.6675548695279) rotate(0 49.942649841308594 14.327465287908922)"><text x="0" y="20.08137534753314" font-family="Virgil, Segoe UI Emoji" font-size="22.923944460654265px" fill="#1e1e1e" text-anchor="start" style="white-space: pre;" direction="ltr" dominant-baseline="alphabetic">0.2 mb/s</text></g><g transform="translate(702.9014489310124 542.443922057028) rotate(0 45.16383361816406 14.327465287908922)"><text x="0" y="20.08137534753314" font-family="Virgil, Segoe UI Emoji" font-size="22.923944460654265px" fill="#1971c2" text-anchor="start" style="white-space: pre;" direction="ltr" dominant-baseline="alphabetic">1.2 mb/s</text></g><g transform="translate(703.8177086966373 236.260988019119) rotate(0 28.157203674316406 28.65493057581783)"><text x="0" y="20.081375347533132" font-family="Virgil, Segoe UI Emoji" font-size="22.923944460654262px" fill="#1e1e1e" text-anchor="start" style="white-space: pre;" direction="ltr" dominant-baseline="alphabetic">Byte</text><text x="0" y="48.73630592335096" font-family="Virgil, Segoe UI Emoji" font-size="22.923944460654262px" fill="#1e1e1e" text-anchor="start" style="white-space: pre;" direction="ltr" dominant-baseline="alphabetic">Rate</text></g><g stroke-linecap="round"><g transform="translate(988.5472237723209 266.4794700282254) rotate(0 -5.684341886080802e-14 199.9940657542114)"><path d="M0 0 C0 66.66, 0 333.32, 0 399.99" stroke="#1e1e1e" stroke-width="2.5" fill="none" stroke-dasharray="1.5 8"></path></g></g><mask></mask><g transform="translate(1016.0394341605047 238.233644269119) rotate(0 28.85626220703125 28.65493057581783)"><text x="0" y="20.081375347533132" font-family="Virgil, Segoe UI Emoji" font-size="22.923944460654262px" fill="#1e1e1e" text-anchor="start" style="white-space: pre;" direction="ltr" dominant-baseline="alphabetic">Error</text><text x="0" y="48.73630592335096" font-family="Virgil, Segoe UI Emoji" font-size="22.923944460654262px" fill="#1e1e1e" text-anchor="start" style="white-space: pre;" direction="ltr" dominant-baseline="alphabetic">Rate</text></g><g transform="translate(1011.3608605521063 339.49611407974135) rotate(0 33.050621032714844 14.327465287908922)"><text x="0" y="20.08137534753314" font-family="Virgil, Segoe UI Emoji" font-size="22.923944460654265px" fill="#1e1e1e" text-anchor="start" style="white-space: pre;" direction="ltr" dominant-baseline="alphabetic">10.2%</text></g><g transform="translate(1011.3608605521063 412.0964722421877) rotate(0 33.050621032714844 14.327465287908922)"><text x="0" y="20.08137534753314" font-family="Virgil, Segoe UI Emoji" font-size="22.923944460654265px" fill="#1e1e1e" text-anchor="start" style="white-space: pre;" direction="ltr" dominant-baseline="alphabetic">0.2%</text></g><g transform="translate(1011.3608605521063 477.54229969100084) rotate(0 33.050621032714844 14.327465287908922)"><text x="0" y="20.08137534753314" font-family="Virgil, Segoe UI Emoji" font-size="22.923944460654265px" fill="#1e1e1e" text-anchor="start" style="white-space: pre;" direction="ltr" dominant-baseline="alphabetic">22%</text></g><g transform="translate(265.7557627926095 544.9388739526894) rotate(0 17.02102482687991 14.327465287908922)"><text x="0" y="20.08137534753314" font-family="Virgil, Segoe UI Emoji" font-size="22.923944460654265px" fill="#1971c2" text-anchor="start" style="white-space: pre;" direction="ltr" dominant-baseline="alphabetic">T3</text></g><g transform="translate(367.5593725670491 544.9388739526894) rotate(0 59.798240661621094 14.327465287908922)"><text x="0" y="20.08137534753314" font-family="Virgil, Segoe UI Emoji" font-size="22.923944460654265px" fill="#1971c2" text-anchor="start" style="white-space: pre;" direction="ltr" dominant-baseline="alphabetic">PService 3</text></g><g transform="translate(863.9531817820066 545.0915103016375) rotate(0 28.700753279741548 14.327465287908922)"><text x="0" y="20.08137534753314" font-family="Virgil, Segoe UI Emoji" font-size="22.92394446065427px" fill="#1971c2" text-anchor="start" style="white-space: pre;" direction="ltr" dominant-baseline="alphabetic">40ms</text></g><g transform="translate(541.8474135110527 544.9388739526894) rotate(0 60.474388122558594 14.327465287908922)"><text x="0" y="20.08137534753314" font-family="Virgil, Segoe UI Emoji" font-size="22.923944460654265px" fill="#1971c2" text-anchor="start" style="white-space: pre;" direction="ltr" dominant-baseline="alphabetic">300 msg/s</text></g><g transform="translate(1011.3608605521063 545.0915103016375) rotate(0 33.050621032714844 14.327465287908922)"><text x="0" y="20.08137534753314" font-family="Virgil, Segoe UI Emoji" font-size="22.923944460654265px" fill="#1971c2" text-anchor="start" style="white-space: pre;" direction="ltr" dominant-baseline="alphabetic">0.5%</text></g><g stroke-linecap="round"><g transform="translate(333.278669084821 715.0868170324368) rotate(0 41.6748046875 -66.20849609374997)"><path d="M0 0 C27.4 -43.54, 54.81 -87.07, 83.35 -132.42 M0 0 C28.05 -44.56, 56.1 -89.13, 83.35 -132.42" stroke="#2f9e44" stroke-width="1" fill="none"></path></g><g transform="translate(333.278669084821 715.0868170324368) rotate(0 41.6748046875 -66.20849609374997)"><path d="M83.35 -132.42 L81.47 -117.53 L70.74 -124.29 L83.35 -132.42" stroke="none" stroke-width="0" fill="#2f9e44" fill-rule="evenodd"></path><path d="M83.35 -132.42 C82.73 -127.52, 82.12 -122.63, 81.47 -117.53 M83.35 -132.42 C82.72 -127.41, 82.09 -122.4, 81.47 -117.53 M81.47 -117.53 C79.29 -118.91, 77.12 -120.28, 70.74 -124.29 M81.47 -117.53 C78.98 -119.1, 76.49 -120.67, 70.74 -124.29 M70.74 -124.29 C74.68 -126.83, 78.62 -129.37, 83.35 -132.42 M70.74 -124.29 C74.04 -126.41, 77.33 -128.54, 83.35 -132.42 M83.35 -132.42 C83.35 -132.42, 83.35 -132.42, 83.35 -132.42 M83.35 -132.42 C83.35 -132.42, 83.35 -132.42, 83.35 -132.42" stroke="#2f9e44" stroke-width="1" fill="none"></path></g></g><mask></mask><g transform="translate(318.581403459821 733.0702154699368) rotate(0 203.40786743164062 10)"><text x="0" y="14.016" font-family="Virgil, Segoe UI Emoji" font-size="16px" fill="#2f9e44" text-anchor="start" style="white-space: pre;" direction="ltr" dominant-baseline="alphabetic">Each row is clickable which will open up a side panel</text></g><g stroke-linecap="round" transform="translate(246.349958147321 533.8416998449368) rotate(0 423.14453125000006 25.95703125)"><path d="M0 0 C237.15 0, 474.3 0, 846.29 0 M846.29 0 C846.29 12.15, 846.29 24.3, 846.29 51.91 M846.29 51.91 C581.79 51.91, 317.28 51.91, 0 51.91 M0 51.91 C0 38.86, 0 25.8, 0 0" stroke="#1971c2" stroke-width="1.5" fill="none" stroke-dasharray="8 9"></path></g></svg>