<svg viewBox="0 0 1000 500" xmlns="http://www.w3.org/2000/svg">
  <!-- Background -->
  <rect width="1000" height="500" fill="#ffffff"/>
  
  <!-- Title -->
  <text x="500" y="40" text-anchor="middle" font-size="24" font-weight="bold" fill="#2d3436">OpenTelemetry Collector Architecture</text>

  <!-- Data Sources -->
  <rect x="50" y="100" width="120" height="60" rx="5" fill="#74b9ff" stroke="#0984e3" stroke-width="2"/>
  <text x="110" y="135" text-anchor="middle" font-size="14" fill="#2d3436">Applications</text>
  
  <rect x="50" y="180" width="120" height="60" rx="5" fill="#74b9ff" stroke="#0984e3" stroke-width="2"/>
  <text x="110" y="215" text-anchor="middle" font-size="14" fill="#2d3436">Services</text>
  
  <rect x="50" y="260" width="120" height="60" rx="5" fill="#74b9ff" stroke="#0984e3" stroke-width="2"/>
  <text x="110" y="295" text-anchor="middle" font-size="14" fill="#2d3436">Other Sources</text>

  <!-- Receivers -->
  <rect x="250" y="150" width="120" height="120" rx="5" fill="#81ecec" stroke="#00cec9" stroke-width="2"/>
  <text x="310" y="185" text-anchor="middle" font-size="14" font-weight="bold" fill="#2d3436">Receivers</text>
  <text x="310" y="210" text-anchor="middle" font-size="12" fill="#2d3436">OTLP</text>
  <text x="310" y="230" text-anchor="middle" font-size="12" fill="#2d3436">Jaeger</text>
  <text x="310" y="250" text-anchor="middle" font-size="12" fill="#2d3436">Prometheus</text>

  <!-- Processors -->
  <rect x="450" y="150" width="120" height="120" rx="5" fill="#a8e6cf" stroke="#3b7d59" stroke-width="2"/>
  <text x="510" y="185" text-anchor="middle" font-size="14" font-weight="bold" fill="#2d3436">Processors</text>
  <text x="510" y="210" text-anchor="middle" font-size="12" fill="#2d3436">Batch</text>
  <text x="510" y="230" text-anchor="middle" font-size="12" fill="#2d3436">Filter</text>
  <text x="510" y="250" text-anchor="middle" font-size="12" fill="#2d3436">Transform</text>

  <!-- Exporters -->
  <rect x="650" y="150" width="120" height="120" rx="5" fill="#ffd3b6" stroke="#ff9f43" stroke-width="2"/>
  <text x="710" y="185" text-anchor="middle" font-size="14" font-weight="bold" fill="#2d3436">Exporters</text>
  <text x="710" y="210" text-anchor="middle" font-size="12" fill="#2d3436">OTLP</text>
  <text x="710" y="230" text-anchor="middle" font-size="12" fill="#2d3436">Prometheus</text>
  <text x="710" y="250" text-anchor="middle" font-size="12" fill="#2d3436">Storage</text>

  <!-- Backend Systems -->
  <rect x="850" y="80" width="120" height="60" rx="5" fill="#fab1a0" stroke="#e17055" stroke-width="2"/>
  <text x="910" y="110" text-anchor="middle" font-size="14" fill="#2d3436">Prometheus</text>
  <text x="910" y="130" text-anchor="middle" font-size="12" fill="#2d3436">Metrics</text>

  <rect x="850" y="160" width="120" height="60" rx="5" fill="#fab1a0" stroke="#e17055" stroke-width="2"/>
  <text x="910" y="190" text-anchor="middle" font-size="14" fill="#2d3436">Jaeger</text>
  <text x="910" y="210" text-anchor="middle" font-size="12" fill="#2d3436">Traces</text>

  <rect x="850" y="240" width="120" height="60" rx="5" fill="#fab1a0" stroke="#e17055" stroke-width="2"/>
  <text x="910" y="270" text-anchor="middle" font-size="14" fill="#2d3436">Elasticsearch</text>
  <text x="910" y="290" text-anchor="middle" font-size="12" fill="#2d3436">Logs</text>

  <rect x="850" y="320" width="120" height="60" rx="5" fill="#fab1a0" stroke="#e17055" stroke-width="2"/>
  <text x="910" y="350" text-anchor="middle" font-size="14" fill="#2d3436">Cloud Storage</text>
  <text x="910" y="370" text-anchor="middle" font-size="12" fill="#2d3436">Archive</text>

  <!-- Arrows -->
  <!-- Sources to Receivers -->
  <path d="M 170 130 L 250 180" stroke="#2d3436" stroke-width="2" fill="none" marker-end="url(#arrowhead)"/>
  <path d="M 170 210 L 250 210" stroke="#2d3436" stroke-width="2" fill="none" marker-end="url(#arrowhead)"/>
  <path d="M 170 290 L 250 240" stroke="#2d3436" stroke-width="2" fill="none" marker-end="url(#arrowhead)"/>
  
  <!-- Pipeline Arrows -->
  <path d="M 370 210 L 450 210" stroke="#2d3436" stroke-width="2" fill="none" marker-end="url(#arrowhead)"/>
  <path d="M 570 210 L 650 210" stroke="#2d3436" stroke-width="2" fill="none" marker-end="url(#arrowhead)"/>

  <!-- Exporters to Backend Systems -->
  <path d="M 770 180 L 850 110" stroke="#2d3436" stroke-width="2" fill="none" marker-end="url(#arrowhead)"/>
  <path d="M 770 210 L 850 190" stroke="#2d3436" stroke-width="2" fill="none" marker-end="url(#arrowhead)"/>
  <path d="M 770 230 L 850 270" stroke="#2d3436" stroke-width="2" fill="none" marker-end="url(#arrowhead)"/>
  <path d="M 770 250 L 850 350" stroke="#2d3436" stroke-width="2" fill="none" marker-end="url(#arrowhead)"/>

  <!-- Arrowhead definition -->
  <defs>
    <marker id="arrowhead" markerWidth="10" markerHeight="7" refX="9" refY="3.5" orient="auto">
      <polygon points="0 0, 10 3.5, 0 7" fill="#2d3436"/>
    </marker>
  </defs>

  <!-- Legend -->
  <rect x="50" y="450" width="900" height="30" rx="5" fill="#f8f9fa" stroke="#dee2e6" stroke-width="1"/>
  <text x="500" y="470" text-anchor="middle" font-size="12" fill="#2d3436">
    Data Flow: Sources → Receivers → Processors → Exporters → Backend Systems (Metrics, Traces, Logs, Storage)
  </text>
</svg>
