<svg width="170" height="32" viewBox="0 0 170 32" fill="none" xmlns="http://www.w3.org/2000/svg">
<rect width="170" height="32" rx="16" fill="#4E74F8"/>
<path d="M20.4148 21H17.1186V10.8182H20.5192C21.5168 10.8182 22.3736 11.022 23.0895 11.4297C23.8054 11.834 24.3539 12.4157 24.7351 13.1747C25.1196 13.9304 25.3118 14.8369 25.3118 15.8942C25.3118 16.9548 25.1179 17.8662 24.7301 18.6286C24.3456 19.3909 23.7888 19.9775 23.0597 20.3885C22.3305 20.7962 21.4489 21 20.4148 21ZM18.6548 19.6577H20.3303C21.1058 19.6577 21.7505 19.5118 22.2642 19.2202C22.7779 18.9252 23.1624 18.4993 23.4176 17.9425C23.6728 17.3823 23.8004 16.6996 23.8004 15.8942C23.8004 15.0954 23.6728 14.4176 23.4176 13.8608C23.1657 13.304 22.7895 12.8814 22.2891 12.593C21.7886 12.3047 21.1671 12.1605 20.4247 12.1605H18.6548V19.6577ZM29.3251 21.169C28.8412 21.169 28.4037 21.0795 28.0126 20.9006C27.6215 20.7183 27.3116 20.4548 27.0829 20.1101C26.8575 19.7654 26.7449 19.3428 26.7449 18.8423C26.7449 18.4115 26.8277 18.0568 26.9934 17.7784C27.1592 17.5 27.3829 17.2796 27.6646 17.1172C27.9463 16.9548 28.2612 16.8321 28.6092 16.7493C28.9572 16.6664 29.3118 16.6035 29.6731 16.5604C30.1305 16.5073 30.5017 16.4643 30.7868 16.4311C31.0718 16.3946 31.2789 16.3366 31.4082 16.2571C31.5375 16.1776 31.6021 16.0483 31.6021 15.8693V15.8345C31.6021 15.4003 31.4795 15.0639 31.2342 14.8253C30.9922 14.5866 30.631 14.4673 30.1504 14.4673C29.6499 14.4673 29.2555 14.5784 28.9672 14.8004C28.6821 15.0192 28.4849 15.2628 28.3755 15.5312L26.9785 15.2131C27.1442 14.7491 27.3862 14.3745 27.7044 14.0895C28.0259 13.8011 28.3954 13.5923 28.813 13.4631C29.2306 13.3305 29.6698 13.2642 30.1305 13.2642C30.4354 13.2642 30.7586 13.3007 31.1 13.3736C31.4447 13.4432 31.7662 13.5724 32.0645 13.7614C32.3661 13.9503 32.613 14.2204 32.8052 14.5717C32.9975 14.9197 33.0936 15.3722 33.0936 15.929V21H31.6419V19.956H31.5822C31.4861 20.1482 31.3419 20.3371 31.1497 20.5227C30.9574 20.7083 30.7105 20.8625 30.4089 20.9851C30.1073 21.1077 29.746 21.169 29.3251 21.169ZM29.6483 19.9759C30.0592 19.9759 30.4106 19.8946 30.7022 19.7322C30.9972 19.5698 31.2209 19.3577 31.3734 19.0959C31.5292 18.8307 31.6071 18.5473 31.6071 18.2457V17.2614C31.554 17.3144 31.4513 17.3641 31.2988 17.4105C31.1497 17.4536 30.979 17.4917 30.7868 17.5249C30.5945 17.5547 30.4073 17.5829 30.225 17.6094C30.0427 17.6326 29.8902 17.6525 29.7676 17.669C29.4792 17.7055 29.2157 17.7668 28.9771 17.853C28.7418 17.9392 28.5529 18.0634 28.4103 18.2259C28.2711 18.3849 28.2015 18.5971 28.2015 18.8622C28.2015 19.2301 28.3374 19.5085 28.6092 19.6974C28.881 19.883 29.2273 19.9759 29.6483 19.9759ZM40.7958 15.228L39.4485 15.4666C39.3922 15.2943 39.3027 15.1302 39.18 14.9744C39.0607 14.8187 38.8983 14.6911 38.6928 14.5916C38.4873 14.4922 38.2305 14.4425 37.9222 14.4425C37.5013 14.4425 37.15 14.5369 36.8683 14.7259C36.5865 14.9115 36.4457 15.1518 36.4457 15.4467C36.4457 15.7019 36.5401 15.9074 36.729 16.0632C36.918 16.219 37.2229 16.3466 37.6438 16.446L38.8569 16.7244C39.5595 16.8868 40.0832 17.1371 40.4279 17.4751C40.7726 17.8132 40.945 18.2524 40.945 18.7926C40.945 19.25 40.8124 19.6577 40.5472 20.0156C40.2854 20.3703 39.9192 20.6487 39.4485 20.8509C38.9812 21.053 38.4393 21.1541 37.8228 21.1541C36.9677 21.1541 36.27 20.9718 35.7298 20.6072C35.1895 20.2393 34.8581 19.7173 34.7354 19.0412L36.1722 18.8224C36.2617 19.197 36.4457 19.4804 36.7241 19.6726C37.0025 19.8615 37.3654 19.956 37.8129 19.956C38.3001 19.956 38.6895 19.8549 38.9812 19.6527C39.2728 19.4472 39.4187 19.197 39.4187 18.902C39.4187 18.6634 39.3292 18.4628 39.1502 18.3004C38.9746 18.138 38.7044 18.0154 38.3398 17.9325L37.0472 17.6491C36.3346 17.4867 35.8076 17.2282 35.4663 16.8736C35.1282 16.5189 34.9592 16.0698 34.9592 15.5263C34.9592 15.0755 35.0851 14.6811 35.337 14.343C35.5889 14.005 35.9369 13.7415 36.381 13.5526C36.8252 13.3603 37.3339 13.2642 37.9073 13.2642C38.7326 13.2642 39.3822 13.4432 39.8562 13.8011C40.3301 14.1558 40.6433 14.6314 40.7958 15.228ZM44.0659 16.4659V21H42.5794V10.8182H44.046V14.6065H44.1404C44.3194 14.1955 44.5929 13.8691 44.9608 13.6271C45.3287 13.3852 45.8092 13.2642 46.4025 13.2642C46.9262 13.2642 47.3836 13.3719 47.7747 13.5874C48.1691 13.8028 48.474 14.1243 48.6895 14.5518C48.9082 14.9761 49.0176 15.5064 49.0176 16.1428V21H47.5311V16.3217C47.5311 15.7616 47.3869 15.3274 47.0985 15.0192C46.8102 14.7076 46.4092 14.5518 45.8954 14.5518C45.5441 14.5518 45.2292 14.6264 44.9508 14.7756C44.6757 14.9247 44.4586 15.1435 44.2995 15.4318C44.1438 15.7169 44.0659 16.0616 44.0659 16.4659ZM51.1206 21V10.8182H52.6071V14.6016H52.6966C52.7827 14.4425 52.907 14.2585 53.0694 14.0497C53.2318 13.8409 53.4572 13.6586 53.7456 13.5028C54.0339 13.3438 54.4151 13.2642 54.889 13.2642C55.5055 13.2642 56.0557 13.42 56.5396 13.7315C57.0235 14.0431 57.403 14.4922 57.6781 15.0788C57.9565 15.6655 58.0957 16.3714 58.0957 17.1967C58.0957 18.022 57.9582 18.7296 57.6831 19.3196C57.408 19.9062 57.0301 20.3587 56.5495 20.6768C56.069 20.9917 55.5204 21.1491 54.9039 21.1491C54.4399 21.1491 54.0604 21.0713 53.7654 20.9155C53.4738 20.7597 53.2451 20.5774 53.0794 20.3686C52.9136 20.1598 52.786 19.9742 52.6966 19.8118H52.5723V21H51.1206ZM52.5772 17.1818C52.5772 17.7187 52.6551 18.1894 52.8109 18.5938C52.9667 18.9981 53.1921 19.3146 53.487 19.5433C53.782 19.7687 54.1433 19.8814 54.5708 19.8814C55.015 19.8814 55.3862 19.7637 55.6845 19.5284C55.9828 19.2898 56.2082 18.9666 56.3606 18.5589C56.5164 18.1513 56.5943 17.6922 56.5943 17.1818C56.5943 16.678 56.5181 16.2256 56.3656 15.8246C56.2164 15.4235 55.9911 15.107 55.6895 14.875C55.3912 14.643 55.0183 14.527 54.5708 14.527C54.14 14.527 53.7754 14.638 53.4771 14.8601C53.1821 15.0821 52.9584 15.392 52.8059 15.7898C52.6535 16.1875 52.5772 16.6515 52.5772 17.1818ZM62.9815 21.1541C62.2656 21.1541 61.6409 20.9901 61.1072 20.6619C60.5736 20.3338 60.1593 19.8748 59.8643 19.2848C59.5694 18.6948 59.4219 18.0054 59.4219 17.2166C59.4219 16.4245 59.5694 15.7318 59.8643 15.1385C60.1593 14.5452 60.5736 14.0845 61.1072 13.7564C61.6409 13.4283 62.2656 13.2642 62.9815 13.2642C63.6974 13.2642 64.3222 13.4283 64.8558 13.7564C65.3894 14.0845 65.8037 14.5452 66.0987 15.1385C66.3937 15.7318 66.5412 16.4245 66.5412 17.2166C66.5412 18.0054 66.3937 18.6948 66.0987 19.2848C65.8037 19.8748 65.3894 20.3338 64.8558 20.6619C64.3222 20.9901 63.6974 21.1541 62.9815 21.1541ZM62.9865 19.9062C63.4505 19.9062 63.835 19.7836 64.1399 19.5384C64.4448 19.2931 64.6702 18.9666 64.8161 18.5589C64.9652 18.1513 65.0398 17.7022 65.0398 17.2116C65.0398 16.7244 64.9652 16.277 64.8161 15.8693C64.6702 15.4583 64.4448 15.1286 64.1399 14.88C63.835 14.6314 63.4505 14.5071 62.9865 14.5071C62.5192 14.5071 62.1314 14.6314 61.8232 14.88C61.5182 15.1286 61.2912 15.4583 61.142 15.8693C60.9962 16.277 60.9233 16.7244 60.9233 17.2116C60.9233 17.7022 60.9962 18.1513 61.142 18.5589C61.2912 18.9666 61.5182 19.2931 61.8232 19.5384C62.1314 19.7836 62.5192 19.9062 62.9865 19.9062ZM70.4228 21.169C69.9389 21.169 69.5014 21.0795 69.1103 20.9006C68.7192 20.7183 68.4093 20.4548 68.1806 20.1101C67.9552 19.7654 67.8425 19.3428 67.8425 18.8423C67.8425 18.4115 67.9254 18.0568 68.0911 17.7784C68.2568 17.5 68.4805 17.2796 68.7623 17.1172C69.044 16.9548 69.3588 16.8321 69.7069 16.7493C70.0549 16.6664 70.4095 16.6035 70.7708 16.5604C71.2282 16.5073 71.5994 16.4643 71.8844 16.4311C72.1694 16.3946 72.3766 16.3366 72.5059 16.2571C72.6351 16.1776 72.6998 16.0483 72.6998 15.8693V15.8345C72.6998 15.4003 72.5771 15.0639 72.3319 14.8253C72.0899 14.5866 71.7286 14.4673 71.248 14.4673C70.7476 14.4673 70.3532 14.5784 70.0648 14.8004C69.7798 15.0192 69.5826 15.2628 69.4732 15.5312L68.0762 15.2131C68.2419 14.7491 68.4838 14.3745 68.802 14.0895C69.1235 13.8011 69.4931 13.5923 69.9107 13.4631C70.3283 13.3305 70.7675 13.2642 71.2282 13.2642C71.5331 13.2642 71.8562 13.3007 72.1976 13.3736C72.5423 13.4432 72.8638 13.5724 73.1621 13.7614C73.4637 13.9503 73.7106 14.2204 73.9029 14.5717C74.0951 14.9197 74.1912 15.3722 74.1912 15.929V21H72.7395V19.956H72.6799C72.5837 20.1482 72.4396 20.3371 72.2473 20.5227C72.0551 20.7083 71.8082 20.8625 71.5066 20.9851C71.205 21.1077 70.8437 21.169 70.4228 21.169ZM70.7459 19.9759C71.1569 19.9759 71.5082 19.8946 71.7999 19.7322C72.0949 19.5698 72.3186 19.3577 72.4711 19.0959C72.6268 18.8307 72.7047 18.5473 72.7047 18.2457V17.2614C72.6517 17.3144 72.5489 17.3641 72.3965 17.4105C72.2473 17.4536 72.0766 17.4917 71.8844 17.5249C71.6922 17.5547 71.5049 17.5829 71.3226 17.6094C71.1403 17.6326 70.9879 17.6525 70.8652 17.669C70.5769 17.7055 70.3134 17.7668 70.0748 17.853C69.8394 17.9392 69.6505 18.0634 69.508 18.2259C69.3688 18.3849 69.2992 18.5971 69.2992 18.8622C69.2992 19.2301 69.4351 19.5085 69.7069 19.6974C69.9786 19.883 70.325 19.9759 70.7459 19.9759ZM76.1712 21V13.3636H77.608V14.5767H77.6875C77.8267 14.1657 78.072 13.8426 78.4233 13.6072C78.7779 13.3686 79.179 13.2493 79.6264 13.2493C79.7192 13.2493 79.8286 13.2526 79.9545 13.2592C80.0838 13.2659 80.1849 13.2741 80.2578 13.2841V14.706C80.1982 14.6894 80.0921 14.6712 79.9396 14.6513C79.7872 14.6281 79.6347 14.6165 79.4822 14.6165C79.1309 14.6165 78.8177 14.6911 78.5426 14.8402C78.2708 14.986 78.0554 15.1899 77.8963 15.4517C77.7372 15.7102 77.6577 16.0052 77.6577 16.3366V21H76.1712ZM84.1294 21.1491C83.513 21.1491 82.9628 20.9917 82.4789 20.6768C81.9983 20.3587 81.6204 19.9062 81.3453 19.3196C81.0736 18.7296 80.9377 18.022 80.9377 17.1967C80.9377 16.3714 81.0752 15.6655 81.3503 15.0788C81.6287 14.4922 82.0099 14.0431 82.4938 13.7315C82.9777 13.42 83.5262 13.2642 84.1394 13.2642C84.6133 13.2642 84.9945 13.3438 85.2828 13.5028C85.5745 13.6586 85.7999 13.8409 85.959 14.0497C86.1214 14.2585 86.2473 14.4425 86.3368 14.6016H86.4263V10.8182H87.9128V21H86.4611V19.8118H86.3368C86.2473 19.9742 86.1181 20.1598 85.949 20.3686C85.7833 20.5774 85.5546 20.7597 85.263 20.9155C84.9713 21.0713 84.5935 21.1491 84.1294 21.1491ZM84.4576 19.8814C84.8851 19.8814 85.2464 19.7687 85.5414 19.5433C85.8397 19.3146 86.065 18.9981 86.2175 18.5938C86.3733 18.1894 86.4512 17.7187 86.4512 17.1818C86.4512 16.6515 86.3749 16.1875 86.2225 15.7898C86.07 15.392 85.8463 15.0821 85.5513 14.8601C85.2563 14.638 84.8917 14.527 84.4576 14.527C84.0101 14.527 83.6373 14.643 83.339 14.875C83.0407 15.107 82.8153 15.4235 82.6628 15.8246C82.5137 16.2256 82.4391 16.678 82.4391 17.1818C82.4391 17.6922 82.5153 18.1513 82.6678 18.5589C82.8203 18.9666 83.0456 19.2898 83.3439 19.5284C83.6455 19.7637 84.0167 19.8814 84.4576 19.8814ZM93.8588 21V10.8182H100.242V12.1406H95.3951V15.2429H99.9093V16.5604H95.3951V19.6776H100.302V21H93.8588ZM103.348 13.3636L105.034 16.3366L106.734 13.3636H108.36L105.978 17.1818L108.38 21H106.754L105.034 18.1463L103.319 21H101.688L104.064 17.1818L101.718 13.3636H103.348ZM112.095 21.169C111.611 21.169 111.173 21.0795 110.782 20.9006C110.391 20.7183 110.081 20.4548 109.852 20.1101C109.627 19.7654 109.514 19.3428 109.514 18.8423C109.514 18.4115 109.597 18.0568 109.763 17.7784C109.929 17.5 110.152 17.2796 110.434 17.1172C110.716 16.9548 111.031 16.8321 111.379 16.7493C111.727 16.6664 112.081 16.6035 112.443 16.5604C112.9 16.5073 113.271 16.4643 113.556 16.4311C113.841 16.3946 114.048 16.3366 114.178 16.2571C114.307 16.1776 114.372 16.0483 114.372 15.8693V15.8345C114.372 15.4003 114.249 15.0639 114.004 14.8253C113.762 14.5866 113.401 14.4673 112.92 14.4673C112.419 14.4673 112.025 14.5784 111.737 14.8004C111.452 15.0192 111.254 15.2628 111.145 15.5312L109.748 15.2131C109.914 14.7491 110.156 14.3745 110.474 14.0895C110.795 13.8011 111.165 13.5923 111.583 13.4631C112 13.3305 112.439 13.2642 112.9 13.2642C113.205 13.2642 113.528 13.3007 113.869 13.3736C114.214 13.4432 114.536 13.5724 114.834 13.7614C115.136 13.9503 115.383 14.2204 115.575 14.5717C115.767 14.9197 115.863 15.3722 115.863 15.929V21H114.411V19.956H114.352C114.256 20.1482 114.111 20.3371 113.919 20.5227C113.727 20.7083 113.48 20.8625 113.178 20.9851C112.877 21.1077 112.516 21.169 112.095 21.169ZM112.418 19.9759C112.829 19.9759 113.18 19.8946 113.472 19.7322C113.767 19.5698 113.99 19.3577 114.143 19.0959C114.299 18.8307 114.377 18.5473 114.377 18.2457V17.2614C114.324 17.3144 114.221 17.3641 114.068 17.4105C113.919 17.4536 113.749 17.4917 113.556 17.5249C113.364 17.5547 113.177 17.5829 112.994 17.6094C112.812 17.6326 112.66 17.6525 112.537 17.669C112.249 17.7055 111.985 17.7668 111.747 17.853C111.511 17.9392 111.322 18.0634 111.18 18.2259C111.041 18.3849 110.971 18.5971 110.971 18.8622C110.971 19.2301 111.107 19.5085 111.379 19.6974C111.651 19.883 111.997 19.9759 112.418 19.9759ZM117.843 21V13.3636H119.27V14.6065H119.364C119.523 14.1856 119.784 13.8575 120.145 13.6222C120.506 13.3835 120.939 13.2642 121.442 13.2642C121.953 13.2642 122.38 13.3835 122.725 13.6222C123.073 13.8608 123.33 14.1889 123.496 14.6065H123.575C123.758 14.1989 124.048 13.8741 124.445 13.6321C124.843 13.3868 125.317 13.2642 125.867 13.2642C126.56 13.2642 127.125 13.4813 127.562 13.9155C128.003 14.3497 128.224 15.0043 128.224 15.8793V21H126.737V16.0185C126.737 15.5014 126.596 15.1269 126.315 14.8949C126.033 14.6629 125.696 14.5469 125.305 14.5469C124.821 14.5469 124.445 14.696 124.177 14.9943C123.908 15.2893 123.774 15.6688 123.774 16.1328V21H122.293V15.924C122.293 15.5097 122.163 15.1766 121.905 14.9247C121.646 14.6728 121.31 14.5469 120.896 14.5469C120.614 14.5469 120.354 14.6214 120.115 14.7706C119.88 14.9164 119.689 15.1203 119.543 15.3821C119.401 15.6439 119.33 15.9472 119.33 16.2919V21H117.843ZM130.216 23.8636V13.3636H131.668V14.6016H131.792C131.878 14.4425 132.003 14.2585 132.165 14.0497C132.327 13.8409 132.553 13.6586 132.841 13.5028C133.129 13.3438 133.511 13.2642 133.985 13.2642C134.601 13.2642 135.151 13.42 135.635 13.7315C136.119 14.0431 136.499 14.4922 136.774 15.0788C137.052 15.6655 137.191 16.3714 137.191 17.1967C137.191 18.022 137.054 18.7296 136.779 19.3196C136.503 19.9062 136.126 20.3587 135.645 20.6768C135.164 20.9917 134.616 21.1491 133.999 21.1491C133.535 21.1491 133.156 21.0713 132.861 20.9155C132.569 20.7597 132.341 20.5774 132.175 20.3686C132.009 20.1598 131.882 19.9742 131.792 19.8118H131.703V23.8636H130.216ZM131.673 17.1818C131.673 17.7187 131.751 18.1894 131.906 18.5938C132.062 18.9981 132.288 19.3146 132.583 19.5433C132.878 19.7687 133.239 19.8814 133.666 19.8814C134.11 19.8814 134.482 19.7637 134.78 19.5284C135.078 19.2898 135.304 18.9666 135.456 18.5589C135.612 18.1513 135.69 17.6922 135.69 17.1818C135.69 16.678 135.614 16.2256 135.461 15.8246C135.312 15.4235 135.087 15.107 134.785 14.875C134.487 14.643 134.114 14.527 133.666 14.527C133.235 14.527 132.871 14.638 132.573 14.8601C132.278 15.0821 132.054 15.392 131.901 15.7898C131.749 16.1875 131.673 16.6515 131.673 17.1818ZM140.343 10.8182V21H138.857V10.8182H140.343ZM145.634 21.1541C144.882 21.1541 144.234 20.9934 143.69 20.6719C143.15 20.3471 142.732 19.8913 142.438 19.3047C142.146 18.7147 142 18.0237 142 17.2315C142 16.4493 142.146 15.7599 142.438 15.1634C142.732 14.5668 143.143 14.1011 143.67 13.7663C144.201 13.4316 144.821 13.2642 145.53 13.2642C145.961 13.2642 146.378 13.3355 146.783 13.478C147.187 13.6205 147.55 13.8442 147.871 14.1491C148.193 14.4541 148.446 14.8501 148.632 15.3374C148.818 15.8213 148.911 16.4096 148.911 17.1023V17.6293H142.84V16.5156H147.454C147.454 16.1245 147.374 15.7782 147.215 15.4766C147.056 15.1716 146.832 14.9313 146.544 14.7557C146.259 14.58 145.924 14.4922 145.54 14.4922C145.122 14.4922 144.758 14.5949 144.446 14.8004C144.138 15.0026 143.899 15.2678 143.73 15.5959C143.564 15.9207 143.482 16.2737 143.482 16.6548V17.5249C143.482 18.0353 143.571 18.4695 143.75 18.8274C143.932 19.1854 144.186 19.4588 144.511 19.6477C144.835 19.8333 145.215 19.9261 145.649 19.9261C145.931 19.9261 146.188 19.8864 146.42 19.8068C146.652 19.724 146.852 19.6013 147.021 19.4389C147.19 19.2765 147.32 19.076 147.409 18.8374L148.816 19.0909C148.703 19.5052 148.501 19.8681 148.21 20.1797C147.921 20.4879 147.558 20.7282 147.121 20.9006C146.687 21.0696 146.191 21.1541 145.634 21.1541ZM156.282 15.228L154.935 15.4666C154.878 15.2943 154.789 15.1302 154.666 14.9744C154.547 14.8187 154.385 14.6911 154.179 14.5916C153.974 14.4922 153.717 14.4425 153.409 14.4425C152.988 14.4425 152.636 14.5369 152.355 14.7259C152.073 14.9115 151.932 15.1518 151.932 15.4467C151.932 15.7019 152.026 15.9074 152.215 16.0632C152.404 16.219 152.709 16.3466 153.13 16.446L154.343 16.7244C155.046 16.8868 155.57 17.1371 155.914 17.4751C156.259 17.8132 156.431 18.2524 156.431 18.7926C156.431 19.25 156.299 19.6577 156.034 20.0156C155.772 20.3703 155.405 20.6487 154.935 20.8509C154.468 21.053 153.926 21.1541 153.309 21.1541C152.454 21.1541 151.756 20.9718 151.216 20.6072C150.676 20.2393 150.344 19.7173 150.222 19.0412L151.659 18.8224C151.748 19.197 151.932 19.4804 152.21 19.6726C152.489 19.8615 152.852 19.956 153.299 19.956C153.786 19.956 154.176 19.8549 154.468 19.6527C154.759 19.4472 154.905 19.197 154.905 18.902C154.905 18.6634 154.816 18.4628 154.637 18.3004C154.461 18.138 154.191 18.0154 153.826 17.9325L152.534 17.6491C151.821 17.4867 151.294 17.2282 150.953 16.8736C150.615 16.5189 150.445 16.0698 150.445 15.5263C150.445 15.0755 150.571 14.6811 150.823 14.343C151.075 14.005 151.423 13.7415 151.867 13.5526C152.311 13.3603 152.82 13.2642 153.394 13.2642C154.219 13.2642 154.869 13.4432 155.343 13.8011C155.816 14.1558 156.13 14.6314 156.282 15.228Z" fill="white"/>
</svg>
