<svg width="182" height="32" viewBox="0 0 182 32" fill="none" xmlns="http://www.w3.org/2000/svg">
<rect width="182" height="32" rx="16" fill="#4E74F8"/>
<path d="M22.6719 13.4929C22.6188 13.0223 22.4001 12.6577 22.0156 12.3991C21.6312 12.1373 21.1473 12.0064 20.5639 12.0064C20.1463 12.0064 19.785 12.0727 19.4801 12.2053C19.1752 12.3345 18.9382 12.5135 18.7692 12.7422C18.6035 12.9676 18.5206 13.2244 18.5206 13.5128C18.5206 13.7547 18.5769 13.9635 18.6896 14.1392C18.8056 14.3149 18.9564 14.4624 19.142 14.5817C19.331 14.6977 19.5331 14.7955 19.7486 14.875C19.964 14.9512 20.1712 15.0142 20.37 15.0639L21.3643 15.3224C21.6892 15.402 22.0223 15.5097 22.3636 15.6456C22.705 15.7815 23.0215 15.9605 23.3132 16.1825C23.6049 16.4046 23.8402 16.6797 24.0192 17.0078C24.2015 17.3359 24.2926 17.7287 24.2926 18.1861C24.2926 18.7628 24.1435 19.2749 23.8452 19.7223C23.5502 20.1697 23.121 20.5227 22.5575 20.7812C21.9974 21.0398 21.3196 21.169 20.5241 21.169C19.7618 21.169 19.1023 21.0481 18.5455 20.8061C17.9886 20.5642 17.5528 20.2211 17.2379 19.777C16.9231 19.3295 16.7491 18.7992 16.7159 18.1861H18.2571C18.2869 18.554 18.4063 18.8606 18.6151 19.1058C18.8272 19.3478 19.0973 19.5284 19.4254 19.6477C19.7569 19.7637 20.1198 19.8217 20.5142 19.8217C20.9484 19.8217 21.3345 19.7538 21.6726 19.6179C22.014 19.4787 22.2824 19.2865 22.478 19.0412C22.6735 18.7926 22.7713 18.5026 22.7713 18.1712C22.7713 17.8696 22.6851 17.6226 22.5128 17.4304C22.3438 17.2382 22.1134 17.0791 21.8217 16.9531C21.5334 16.8272 21.2069 16.7161 20.8423 16.62L19.6392 16.2919C18.8239 16.0698 18.1776 15.7434 17.7003 15.3125C17.2263 14.8816 16.9893 14.3116 16.9893 13.6023C16.9893 13.0156 17.1484 12.5036 17.4666 12.0661C17.7848 11.6286 18.2157 11.2888 18.7592 11.0469C19.3028 10.8016 19.916 10.679 20.5987 10.679C21.2881 10.679 21.8963 10.8 22.4233 11.0419C22.9536 11.2839 23.3712 11.617 23.6761 12.0412C23.9811 12.4621 24.1402 12.946 24.1534 13.4929H22.6719ZM26.0091 21V13.3636H27.4956V21H26.0091ZM26.7598 12.1854C26.5012 12.1854 26.2792 12.0992 26.0936 11.9268C25.9113 11.7512 25.8201 11.5424 25.8201 11.3004C25.8201 11.0552 25.9113 10.8464 26.0936 10.674C26.2792 10.4983 26.5012 10.4105 26.7598 10.4105C27.0183 10.4105 27.2387 10.4983 27.421 10.674C27.6066 10.8464 27.6994 11.0552 27.6994 11.3004C27.6994 11.5424 27.6066 11.7512 27.421 11.9268C27.2387 12.0992 27.0183 12.1854 26.7598 12.1854ZM32.6971 24.0227C32.0906 24.0227 31.5685 23.9432 31.131 23.7841C30.6969 23.625 30.3422 23.4145 30.0671 23.1527C29.792 22.8909 29.5865 22.6042 29.4506 22.2926L30.7283 21.7656C30.8178 21.9115 30.9371 22.0656 31.0863 22.228C31.2388 22.3937 31.4442 22.5346 31.7028 22.6506C31.9646 22.7666 32.301 22.8246 32.712 22.8246C33.2754 22.8246 33.7411 22.687 34.109 22.4119C34.4769 22.1402 34.6609 21.706 34.6609 21.1094V19.608H34.5664C34.4769 19.7704 34.3477 19.951 34.1786 20.1499C34.0129 20.3487 33.7842 20.5211 33.4925 20.6669C33.2009 20.8127 32.8214 20.8857 32.354 20.8857C31.7508 20.8857 31.2073 20.7448 30.7234 20.4631C30.2428 20.178 29.8616 19.7588 29.5799 19.2053C29.3015 18.6484 29.1623 17.964 29.1623 17.152C29.1623 16.34 29.2998 15.6439 29.5749 15.0639C29.8533 14.4839 30.2345 14.0398 30.7184 13.7315C31.2023 13.42 31.7508 13.2642 32.364 13.2642C32.8379 13.2642 33.2208 13.3438 33.5124 13.5028C33.8041 13.6586 34.0311 13.8409 34.1935 14.0497C34.3593 14.2585 34.4869 14.4425 34.5763 14.6016H34.6857V13.3636H36.1424V21.169C36.1424 21.8253 35.9899 22.3639 35.685 22.7848C35.3801 23.2057 34.9674 23.5173 34.4471 23.7195C33.93 23.9216 33.3467 24.0227 32.6971 24.0227ZM32.6822 19.6527C33.1097 19.6527 33.471 19.5533 33.766 19.3544C34.0643 19.1522 34.2897 18.8639 34.4421 18.4893C34.5979 18.1115 34.6758 17.6591 34.6758 17.1321C34.6758 16.6184 34.5996 16.166 34.4471 15.7749C34.2946 15.3838 34.0709 15.0788 33.7759 14.8601C33.4809 14.638 33.1164 14.527 32.6822 14.527C32.2347 14.527 31.8619 14.643 31.5636 14.875C31.2653 15.1037 31.0399 15.4152 30.8874 15.8097C30.7383 16.2041 30.6637 16.6449 30.6637 17.1321C30.6637 17.6326 30.7399 18.0717 30.8924 18.4496C31.0449 18.8274 31.2702 19.1224 31.5685 19.3345C31.8701 19.5466 32.2414 19.6527 32.6822 19.6527ZM46.4734 10.8182V21H45.0614L39.886 13.5327H39.7915V21H38.2553V10.8182H39.6772L44.8576 18.2955H44.9521V10.8182H46.4734ZM51.8116 21.1541C51.0957 21.1541 50.4709 20.9901 49.9373 20.6619C49.4037 20.3338 48.9894 19.8748 48.6944 19.2848C48.3994 18.6948 48.252 18.0054 48.252 17.2166C48.252 16.4245 48.3994 15.7318 48.6944 15.1385C48.9894 14.5452 49.4037 14.0845 49.9373 13.7564C50.4709 13.4283 51.0957 13.2642 51.8116 13.2642C52.5275 13.2642 53.1523 13.4283 53.6859 13.7564C54.2195 14.0845 54.6338 14.5452 54.9288 15.1385C55.2238 15.7318 55.3713 16.4245 55.3713 17.2166C55.3713 18.0054 55.2238 18.6948 54.9288 19.2848C54.6338 19.8748 54.2195 20.3338 53.6859 20.6619C53.1523 20.9901 52.5275 21.1541 51.8116 21.1541ZM51.8166 19.9062C52.2806 19.9062 52.6651 19.7836 52.97 19.5384C53.2749 19.2931 53.5003 18.9666 53.6461 18.5589C53.7953 18.1513 53.8699 17.7022 53.8699 17.2116C53.8699 16.7244 53.7953 16.277 53.6461 15.8693C53.5003 15.4583 53.2749 15.1286 52.97 14.88C52.6651 14.6314 52.2806 14.5071 51.8166 14.5071C51.3493 14.5071 50.9615 14.6314 50.6532 14.88C50.3483 15.1286 50.1213 15.4583 49.9721 15.8693C49.8263 16.277 49.7534 16.7244 49.7534 17.2116C49.7534 17.7022 49.8263 18.1513 49.9721 18.5589C50.1213 18.9666 50.3483 19.2931 50.6532 19.5384C50.9615 19.7836 51.3493 19.9062 51.8166 19.9062ZM56.8714 21V19.9808L61.0078 14.7259V14.6562H57.0057V13.3636H62.8622V14.4474L58.8849 19.6378V19.7074H63.0014V21H56.8714ZM71.8757 21H68.5795V10.8182H71.9801C72.9777 10.8182 73.8345 11.022 74.5504 11.4297C75.2663 11.834 75.8149 12.4157 76.196 13.1747C76.5805 13.9304 76.7727 14.8369 76.7727 15.8942C76.7727 16.9548 76.5788 17.8662 76.1911 18.6286C75.8066 19.3909 75.2498 19.9775 74.5206 20.3885C73.7914 20.7962 72.9098 21 71.8757 21ZM70.1158 19.6577H71.7912C72.5668 19.6577 73.2114 19.5118 73.7251 19.2202C74.2389 18.9252 74.6233 18.4993 74.8786 17.9425C75.1338 17.3823 75.2614 16.6996 75.2614 15.8942C75.2614 15.0954 75.1338 14.4176 74.8786 13.8608C74.6267 13.304 74.2505 12.8814 73.75 12.593C73.2495 12.3047 72.6281 12.1605 71.8857 12.1605H70.1158V19.6577ZM81.7804 21.1541C81.0645 21.1541 80.4397 20.9901 79.9061 20.6619C79.3725 20.3338 78.9582 19.8748 78.6632 19.2848C78.3682 18.6948 78.2207 18.0054 78.2207 17.2166C78.2207 16.4245 78.3682 15.7318 78.6632 15.1385C78.9582 14.5452 79.3725 14.0845 79.9061 13.7564C80.4397 13.4283 81.0645 13.2642 81.7804 13.2642C82.4963 13.2642 83.121 13.4283 83.6547 13.7564C84.1883 14.0845 84.6026 14.5452 84.8975 15.1385C85.1925 15.7318 85.34 16.4245 85.34 17.2166C85.34 18.0054 85.1925 18.6948 84.8975 19.2848C84.6026 19.8748 84.1883 20.3338 83.6547 20.6619C83.121 20.9901 82.4963 21.1541 81.7804 21.1541ZM81.7853 19.9062C82.2493 19.9062 82.6338 19.7836 82.9387 19.5384C83.2437 19.2931 83.469 18.9666 83.6149 18.5589C83.764 18.1513 83.8386 17.7022 83.8386 17.2116C83.8386 16.7244 83.764 16.277 83.6149 15.8693C83.469 15.4583 83.2437 15.1286 82.9387 14.88C82.6338 14.6314 82.2493 14.5071 81.7853 14.5071C81.318 14.5071 80.9302 14.6314 80.622 14.88C80.3171 15.1286 80.09 15.4583 79.9409 15.8693C79.795 16.277 79.7221 16.7244 79.7221 17.2116C79.7221 17.7022 79.795 18.1513 79.9409 18.5589C80.09 18.9666 80.3171 19.2931 80.622 19.5384C80.9302 19.7836 81.318 19.9062 81.7853 19.9062ZM90.2159 21.1541C89.4768 21.1541 88.8404 20.9867 88.3068 20.652C87.7765 20.3139 87.3688 19.8482 87.0838 19.255C86.7988 18.6617 86.6562 17.9822 86.6562 17.2166C86.6562 16.4411 86.8021 15.7566 87.0938 15.1634C87.3854 14.5668 87.7964 14.1011 88.3267 13.7663C88.857 13.4316 89.4818 13.2642 90.201 13.2642C90.781 13.2642 91.2981 13.3719 91.7521 13.5874C92.2062 13.7995 92.5724 14.0978 92.8509 14.4822C93.1326 14.8667 93.3 15.3158 93.353 15.8295H91.9062C91.8267 15.4716 91.6444 15.1634 91.3594 14.9048C91.0777 14.6463 90.6998 14.517 90.2259 14.517C89.8116 14.517 89.4486 14.6264 89.1371 14.8452C88.8288 15.0606 88.5885 15.3688 88.4162 15.7699C88.2438 16.1676 88.1577 16.6383 88.1577 17.1818C88.1577 17.7386 88.2422 18.2192 88.4112 18.6236C88.5803 19.0279 88.8189 19.3411 89.1271 19.5632C89.4387 19.7853 89.8049 19.8963 90.2259 19.8963C90.5076 19.8963 90.7628 19.8449 90.9915 19.7422C91.2235 19.6361 91.4174 19.4853 91.5732 19.2898C91.7322 19.0942 91.8433 18.8589 91.9062 18.5838H93.353C93.3 19.0777 93.1392 19.5185 92.8707 19.9062C92.6023 20.294 92.2427 20.599 91.7919 20.821C91.3445 21.0431 90.8191 21.1541 90.2159 21.1541ZM99.78 17.8331V13.3636H101.271V21H99.8098V19.6776H99.7303C99.5546 20.0852 99.2729 20.425 98.8851 20.6967C98.5007 20.9652 98.0217 21.0994 97.4483 21.0994C96.9578 21.0994 96.5236 20.9917 96.1458 20.7763C95.7712 20.5575 95.4763 20.2344 95.2608 19.8068C95.0487 19.3793 94.9426 18.8506 94.9426 18.2209V13.3636H96.4292V18.0419C96.4292 18.5623 96.5733 18.9766 96.8617 19.2848C97.15 19.593 97.5246 19.7472 97.9853 19.7472C98.2637 19.7472 98.5404 19.6776 98.8155 19.5384C99.0939 19.3991 99.3243 19.1887 99.5066 18.907C99.6922 18.6252 99.7833 18.2673 99.78 17.8331ZM103.269 21V13.3636H104.696V14.6065H104.79C104.949 14.1856 105.209 13.8575 105.571 13.6222C105.932 13.3835 106.364 13.2642 106.868 13.2642C107.379 13.2642 107.806 13.3835 108.151 13.6222C108.499 13.8608 108.756 14.1889 108.922 14.6065H109.001C109.183 14.1989 109.473 13.8741 109.871 13.6321C110.269 13.3868 110.743 13.2642 111.293 13.2642C111.986 13.2642 112.551 13.4813 112.988 13.9155C113.429 14.3497 113.65 15.0043 113.65 15.8793V21H112.163V16.0185C112.163 15.5014 112.022 15.1269 111.74 14.8949C111.459 14.6629 111.122 14.5469 110.731 14.5469C110.247 14.5469 109.871 14.696 109.603 14.9943C109.334 15.2893 109.2 15.6688 109.2 16.1328V21H107.718V15.924C107.718 15.5097 107.589 15.1766 107.331 14.9247C107.072 14.6728 106.736 14.5469 106.321 14.5469C106.04 14.5469 105.779 14.6214 105.541 14.7706C105.306 14.9164 105.115 15.1203 104.969 15.3821C104.827 15.6439 104.755 15.9472 104.755 16.2919V21H103.269ZM118.933 21.1541C118.181 21.1541 117.533 20.9934 116.989 20.6719C116.449 20.3471 116.031 19.8913 115.736 19.3047C115.445 18.7147 115.299 18.0237 115.299 17.2315C115.299 16.4493 115.445 15.7599 115.736 15.1634C116.031 14.5668 116.442 14.1011 116.969 13.7663C117.5 13.4316 118.119 13.2642 118.829 13.2642C119.26 13.2642 119.677 13.3355 120.081 13.478C120.486 13.6205 120.849 13.8442 121.17 14.1491C121.492 14.4541 121.745 14.8501 121.931 15.3374C122.117 15.8213 122.209 16.4096 122.209 17.1023V17.6293H116.139V16.5156H120.753C120.753 16.1245 120.673 15.7782 120.514 15.4766C120.355 15.1716 120.131 14.9313 119.843 14.7557C119.558 14.58 119.223 14.4922 118.839 14.4922C118.421 14.4922 118.056 14.5949 117.745 14.8004C117.437 15.0026 117.198 15.2678 117.029 15.5959C116.863 15.9207 116.78 16.2737 116.78 16.6548V17.5249C116.78 18.0353 116.87 18.4695 117.049 18.8274C117.231 19.1854 117.485 19.4588 117.809 19.6477C118.134 19.8333 118.514 19.9261 118.948 19.9261C119.23 19.9261 119.487 19.8864 119.719 19.8068C119.951 19.724 120.151 19.6013 120.32 19.4389C120.489 19.2765 120.618 19.076 120.708 18.8374L122.115 19.0909C122.002 19.5052 121.8 19.8681 121.508 20.1797C121.22 20.4879 120.857 20.7282 120.42 20.9006C119.985 21.0696 119.49 21.1541 118.933 21.1541ZM125.345 16.4659V21H123.859V13.3636H125.286V14.6065H125.38C125.556 14.2022 125.831 13.8774 126.205 13.6321C126.583 13.3868 127.059 13.2642 127.632 13.2642C128.152 13.2642 128.608 13.3736 128.999 13.5923C129.39 13.8078 129.694 14.1293 129.909 14.5568C130.125 14.9844 130.232 15.513 130.232 16.1428V21H128.746V16.3217C128.746 15.7682 128.602 15.3357 128.313 15.0241C128.025 14.7093 127.629 14.5518 127.125 14.5518C126.78 14.5518 126.474 14.6264 126.205 14.7756C125.94 14.9247 125.73 15.1435 125.574 15.4318C125.421 15.7169 125.345 16.0616 125.345 16.4659ZM135.79 13.3636V14.5568H131.619V13.3636H135.79ZM132.738 11.5341H134.224V18.7578C134.224 19.0462 134.268 19.2633 134.354 19.4091C134.44 19.5516 134.551 19.6494 134.687 19.7024C134.826 19.7521 134.977 19.777 135.139 19.777C135.259 19.777 135.363 19.7687 135.452 19.7521C135.542 19.7356 135.612 19.7223 135.661 19.7124L135.93 20.9403C135.844 20.9735 135.721 21.0066 135.562 21.0398C135.403 21.0762 135.204 21.0961 134.965 21.0994C134.574 21.1061 134.21 21.0365 133.871 20.8906C133.533 20.7448 133.26 20.5194 133.051 20.2145C132.842 19.9096 132.738 19.5268 132.738 19.0661V11.5341ZM139.657 21.169C139.173 21.169 138.736 21.0795 138.345 20.9006C137.954 20.7183 137.644 20.4548 137.415 20.1101C137.19 19.7654 137.077 19.3428 137.077 18.8423C137.077 18.4115 137.16 18.0568 137.325 17.7784C137.491 17.5 137.715 17.2796 137.997 17.1172C138.278 16.9548 138.593 16.8321 138.941 16.7493C139.289 16.6664 139.644 16.6035 140.005 16.5604C140.463 16.5073 140.834 16.4643 141.119 16.4311C141.404 16.3946 141.611 16.3366 141.74 16.2571C141.869 16.1776 141.934 16.0483 141.934 15.8693V15.8345C141.934 15.4003 141.811 15.0639 141.566 14.8253C141.324 14.5866 140.963 14.4673 140.482 14.4673C139.982 14.4673 139.588 14.5784 139.299 14.8004C139.014 15.0192 138.817 15.2628 138.708 15.5312L137.311 15.2131C137.476 14.7491 137.718 14.3745 138.036 14.0895C138.358 13.8011 138.727 13.5923 139.145 13.4631C139.563 13.3305 140.002 13.2642 140.463 13.2642C140.767 13.2642 141.091 13.3007 141.432 13.3736C141.777 13.4432 142.098 13.5724 142.396 13.7614C142.698 13.9503 142.945 14.2204 143.137 14.5717C143.329 14.9197 143.426 15.3722 143.426 15.929V21H141.974V19.956H141.914C141.818 20.1482 141.674 20.3371 141.482 20.5227C141.289 20.7083 141.043 20.8625 140.741 20.9851C140.439 21.1077 140.078 21.169 139.657 21.169ZM139.98 19.9759C140.391 19.9759 140.743 19.8946 141.034 19.7322C141.329 19.5698 141.553 19.3577 141.705 19.0959C141.861 18.8307 141.939 18.5473 141.939 18.2457V17.2614C141.886 17.3144 141.783 17.3641 141.631 17.4105C141.482 17.4536 141.311 17.4917 141.119 17.5249C140.927 17.5547 140.739 17.5829 140.557 17.6094C140.375 17.6326 140.222 17.6525 140.1 17.669C139.811 17.7055 139.548 17.7668 139.309 17.853C139.074 17.9392 138.885 18.0634 138.742 18.2259C138.603 18.3849 138.534 18.5971 138.534 18.8622C138.534 19.2301 138.669 19.5085 138.941 19.6974C139.213 19.883 139.559 19.9759 139.98 19.9759ZM148.97 13.3636V14.5568H144.799V13.3636H148.97ZM145.918 11.5341H147.404V18.7578C147.404 19.0462 147.447 19.2633 147.533 19.4091C147.62 19.5516 147.731 19.6494 147.866 19.7024C148.006 19.7521 148.156 19.777 148.319 19.777C148.438 19.777 148.543 19.7687 148.632 19.7521C148.722 19.7356 148.791 19.7223 148.841 19.7124L149.109 20.9403C149.023 20.9735 148.901 21.0066 148.741 21.0398C148.582 21.0762 148.384 21.0961 148.145 21.0994C147.754 21.1061 147.389 21.0365 147.051 20.8906C146.713 20.7448 146.44 20.5194 146.231 20.2145C146.022 19.9096 145.918 19.5268 145.918 19.0661V11.5341ZM150.615 21V13.3636H152.101V21H150.615ZM151.365 12.1854C151.107 12.1854 150.885 12.0992 150.699 11.9268C150.517 11.7512 150.426 11.5424 150.426 11.3004C150.426 11.0552 150.517 10.8464 150.699 10.674C150.885 10.4983 151.107 10.4105 151.365 10.4105C151.624 10.4105 151.844 10.4983 152.026 10.674C152.212 10.8464 152.305 11.0552 152.305 11.3004C152.305 11.5424 152.212 11.7512 152.026 11.9268C151.844 12.0992 151.624 12.1854 151.365 12.1854ZM157.317 21.1541C156.602 21.1541 155.977 20.9901 155.443 20.6619C154.91 20.3338 154.495 19.8748 154.2 19.2848C153.905 18.6948 153.758 18.0054 153.758 17.2166C153.758 16.4245 153.905 15.7318 154.2 15.1385C154.495 14.5452 154.91 14.0845 155.443 13.7564C155.977 13.4283 156.602 13.2642 157.317 13.2642C158.033 13.2642 158.658 13.4283 159.192 13.7564C159.725 14.0845 160.14 14.5452 160.435 15.1385C160.73 15.7318 160.877 16.4245 160.877 17.2166C160.877 18.0054 160.73 18.6948 160.435 19.2848C160.14 19.8748 159.725 20.3338 159.192 20.6619C158.658 20.9901 158.033 21.1541 157.317 21.1541ZM157.322 19.9062C157.786 19.9062 158.171 19.7836 158.476 19.5384C158.781 19.2931 159.006 18.9666 159.152 18.5589C159.301 18.1513 159.376 17.7022 159.376 17.2116C159.376 16.7244 159.301 16.277 159.152 15.8693C159.006 15.4583 158.781 15.1286 158.476 14.88C158.171 14.6314 157.786 14.5071 157.322 14.5071C156.855 14.5071 156.467 14.6314 156.159 14.88C155.854 15.1286 155.627 15.4583 155.478 15.8693C155.332 16.277 155.259 16.7244 155.259 17.2116C155.259 17.7022 155.332 18.1513 155.478 18.5589C155.627 18.9666 155.854 19.2931 156.159 19.5384C156.467 19.7836 156.855 19.9062 157.322 19.9062ZM164.023 16.4659V21H162.536V13.3636H163.963V14.6065H164.058C164.233 14.2022 164.508 13.8774 164.883 13.6321C165.261 13.3868 165.736 13.2642 166.31 13.2642C166.83 13.2642 167.286 13.3736 167.677 13.5923C168.068 13.8078 168.371 14.1293 168.587 14.5568C168.802 14.9844 168.91 15.513 168.91 16.1428V21H167.423V16.3217C167.423 15.7682 167.279 15.3357 166.991 15.0241C166.703 14.7093 166.307 14.5518 165.803 14.5518C165.458 14.5518 165.151 14.6264 164.883 14.7756C164.618 14.9247 164.407 15.1435 164.252 15.4318C164.099 15.7169 164.023 16.0616 164.023 16.4659Z" fill="white"/>
</svg>
