<svg width="256" height="256" viewBox="0 0 256 256" fill="none" xmlns="http://www.w3.org/2000/svg">
<path opacity="0.9" d="M128.357 255.786C57.0474 255.786 0 199.834 0 129.893C0 60.652 57.0474 4 128.357 4H208.936C235.32 4 256 24.9822 256 50.1609V129.893C256 199.834 198.953 255.786 128.357 255.786Z" fill="#002B76"/>
<path d="M127.35 75.3931C74.0867 75.3931 44.0849 119.499 42.8335 121.376C39.7488 126.001 39.7488 131.983 42.8359 136.611C44.0849 138.485 74.0867 182.591 127.35 182.591C180.612 182.591 210.614 138.485 211.866 136.607C214.951 131.983 214.951 126.001 211.863 121.373C210.614 119.499 180.612 75.3931 127.35 75.3931ZM50.2059 131.695C49.1107 130.053 49.1107 127.931 50.2059 126.289C51.2122 124.779 72.573 93.4023 110.764 85.8757C93.4574 92.5562 81.1431 109.358 81.1431 128.992C81.1431 148.626 93.4574 165.428 110.764 172.108C72.573 164.581 51.2122 133.205 50.2059 131.695ZM106.057 128.992C106.057 131.438 104.074 133.421 101.627 133.421C99.1802 133.421 97.1971 131.438 97.1971 128.992C97.1971 112.366 110.723 98.8397 127.349 98.8397C129.796 98.8397 131.779 100.823 131.779 103.269C131.779 105.716 129.796 107.699 127.349 107.699C115.608 107.699 106.057 117.25 106.057 128.992ZM127.35 139.761C121.411 139.761 116.58 134.93 116.58 128.992C116.58 123.054 121.411 118.222 127.35 118.222C133.288 118.222 138.119 123.053 138.119 128.992C138.119 134.93 133.288 139.761 127.35 139.761ZM204.493 131.695C203.487 133.205 182.126 164.581 143.936 172.108C161.242 165.427 173.556 148.626 173.556 128.992C173.556 109.358 161.242 92.5564 143.936 85.8759C182.126 93.4028 203.487 124.779 204.493 126.289C205.589 127.931 205.589 130.053 204.493 131.695Z" fill="#F9F2F9"/>
</svg>
