<svg width="180" height="180" viewBox="0 0 180 180" fill="none" xmlns="http://www.w3.org/2000/svg">
<g clip-path="url(#clip0_43_54)">
<path opacity="0.4" d="M0 3H181L132.371 172H48.6294L0 3Z" fill="url(#paint0_linear_43_54)"/>
<path d="M40.5 173C40.5 172.724 40.7239 172.5 41 172.5H139C139.276 172.5 139.5 172.724 139.5 173V179C139.5 179.276 139.276 179.5 139 179.5H41C40.7239 179.5 40.5 179.276 40.5 179V173Z" fill="#1B1B1D" fill-opacity="0.9" stroke="#FF6B00"/>
<path d="M125.644 14.8745L125.644 14.8746L166.11 55.3244C167.942 57.1571 167.942 60.1733 166.11 62.0061L155.75 72.3661C153.917 74.1989 150.901 74.1989 149.068 72.3661L108.618 31.9163C106.785 30.0836 106.785 27.0673 108.618 25.2346L118.978 14.8745C120.811 13.0418 123.811 13.0418 125.644 14.8745ZM14.5916 143.22L14.5933 143.218C16.0317 141.766 18.402 141.763 19.8584 143.22L22.8296 146.191C23.0336 146.395 23.3642 146.395 23.5682 146.191L34.447 135.312C36.0911 133.668 38.7772 133.668 40.4213 135.312L45.6878 140.579C47.3319 142.223 47.3319 144.909 45.6878 146.553L34.809 157.432C34.6051 157.636 34.605 157.966 34.809 158.17L37.7802 161.142L37.7819 161.143C39.232 162.58 39.2236 164.951 37.7785 166.41C36.3401 167.862 33.9697 167.865 32.5134 166.408L14.5916 148.487L14.5899 148.485C13.1376 147.047 13.1352 144.676 14.5916 143.22ZM95.3497 121.274C88.9422 114.866 88.9422 104.477 95.3497 98.0694C101.757 91.6619 112.147 91.6619 118.554 98.0694C124.962 104.477 124.962 114.866 118.554 121.274C112.147 127.681 101.757 127.681 95.3497 121.274ZM100.679 115.96C104.145 119.425 109.759 119.425 113.224 115.96L112.871 103.768L113.224 103.415C113.224 103.415 113.224 103.414 113.224 103.414C109.758 99.9497 104.144 99.95 100.679 103.415C97.2142 106.88 97.2142 112.495 100.679 115.96Z" fill="url(#paint1_linear_43_54)" stroke="#FF6B00"/>
<path d="M101.198 44.6183L101.2 44.617C103.048 42.7546 106.093 42.7546 107.941 44.617L107.943 44.6183L136.366 73.0417C138.215 74.8901 138.215 77.9378 136.366 79.7863L127.687 88.4655C126.331 89.821 124.096 89.8293 122.472 88.6426C114.294 82.6673 103.445 82.0246 94.6898 86.7043C93.1192 87.5438 91.1937 87.3892 89.9895 86.185L78.1829 74.3783C76.3344 72.5299 76.3344 69.4822 78.1829 67.6337L101.198 44.6183ZM41.2703 116.51L41.2704 116.51L70.8727 86.8918C72.6425 85.1219 75.5487 85.1219 77.3186 86.8918L83.3231 92.8963C84.5218 94.095 84.681 96.0092 83.8532 97.5763C80.4147 104.086 79.9055 111.725 82.3175 118.559C82.8305 120.013 82.5652 121.625 81.5205 122.672L64.4903 139.73L64.49 139.73C62.7202 141.5 59.8142 141.5 58.0444 139.73L41.2703 122.956C39.5004 121.186 39.5004 118.28 41.2703 116.51Z" fill="url(#paint2_linear_43_54)" stroke="#FF6B00"/>
<rect y="0.707107" width="21.0086" height="21.0086" rx="0.5" transform="matrix(-0.707107 0.707107 0.707107 0.707107 156.734 97.3057)" fill="#1B1B1D" fill-opacity="0.9" stroke="#FF6B00"/>
<rect y="0.707107" width="13.8383" height="13.8383" rx="0.5" transform="matrix(-0.707107 0.707107 0.707107 0.707107 138.309 126.222)" fill="#1B1B1D" fill-opacity="0.9" stroke="#FF6B00"/>
<rect y="0.707107" width="13.8383" height="13.8383" rx="0.5" transform="matrix(-0.707107 0.707107 0.707107 0.707107 29.9917 23.2071)" fill="#1B1B1D" fill-opacity="0.9" stroke="#FF6B00"/>
</g>
<defs>
<linearGradient id="paint0_linear_43_54" x1="89.5" y1="6.5" x2="90.5" y2="172" gradientUnits="userSpaceOnUse">
<stop stop-color="#FF6C01" stop-opacity="0"/>
<stop offset="1" stop-color="#FF740F"/>
</linearGradient>
<linearGradient id="paint1_linear_43_54" x1="115.732" y1="62.5961" x2="15.6329" y2="152.358" gradientUnits="userSpaceOnUse">
<stop stop-color="#FF6B00"/>
<stop offset="1" stop-color="#FFB27A"/>
</linearGradient>
<linearGradient id="paint2_linear_43_54" x1="104.939" y1="74.3456" x2="41.1114" y2="131.572" gradientUnits="userSpaceOnUse">
<stop stop-color="#FF6B00"/>
<stop offset="1" stop-color="#FFB27A"/>
</linearGradient>
<clipPath id="clip0_43_54">
<rect width="180" height="180" fill="white"/>
</clipPath>
</defs>
</svg>
