<svg width="180" height="180" viewBox="0 0 180 180" fill="none" xmlns="http://www.w3.org/2000/svg">
<g clip-path="url(#clip0_43_53)">
<path d="M14.5 14C14.5 12.067 16.067 10.5 18 10.5H107C108.933 10.5 110.5 12.067 110.5 14V73C110.5 74.933 108.933 76.5 107 76.5H18C16.067 76.5 14.5 74.933 14.5 73V14Z" fill="#1B1B1D" fill-opacity="0.9" stroke="#FF6B00"/>
<rect x="49.5" y="40.5" width="25" height="6" rx="0.9" fill="url(#paint0_linear_43_53)" stroke="#FF6B00"/>
<rect x="49.5" y="53.5" width="25" height="6" rx="0.9" fill="url(#paint1_linear_43_53)" stroke="#FF6B00"/>
<rect x="49.5" y="64.5" width="25" height="6" rx="0.9" fill="url(#paint2_linear_43_53)" stroke="#FF6B00"/>
<path d="M33 28V39C33 41.2091 34.7909 43 37 43H50" stroke="#FF6B00"/>
<path d="M33 31V52C33 54.2091 34.7909 56 37 56H50" stroke="#FF6B00"/>
<path d="M33 32V64C33 66.2091 34.7909 68 37 68H50" stroke="#FF6B00"/>
<rect x="23.5" y="19.5" width="48" height="13" rx="1.5" fill="url(#paint3_linear_43_53)" stroke="#FF6B00"/>
<path d="M104.5 38C104.5 36.067 106.067 34.5 108 34.5H178C179.933 34.5 181.5 36.067 181.5 38V124C181.5 125.933 179.933 127.5 178 127.5H108C106.067 127.5 104.5 125.933 104.5 124V38Z" fill="url(#paint4_linear_43_53)" stroke="#FF6B00"/>
<rect x="114.1" y="44.1" width="36.4477" height="4.06136" rx="0.9" fill="#1B1B1D" fill-opacity="0.9" stroke="#FF6B00" stroke-width="0.2"/>
<rect x="114.1" y="55.3612" width="13.4364" height="4.06136" rx="0.9" fill="#1B1B1D" fill-opacity="0.9" stroke="#FF6B00" stroke-width="0.2"/>
<rect x="131.145" y="55.3612" width="27.925" height="4.06136" rx="0.9" fill="#1B1B1D" fill-opacity="0.9" stroke="#FF6B00" stroke-width="0.2"/>
<rect x="114.1" y="66.6229" width="36.4477" height="4.06136" rx="0.9" fill="#1B1B1D" fill-opacity="0.9" stroke="#FF6B00" stroke-width="0.2"/>
<rect x="114.1" y="77.8842" width="41.8" height="3.8" rx="0.9" fill="#1B1B1D" fill-opacity="0.9" stroke="#FF6B00" stroke-width="0.2"/>
<rect x="114.1" y="88.8842" width="36.4477" height="4.06136" rx="0.9" fill="#1B1B1D" fill-opacity="0.9" stroke="#FF6B00" stroke-width="0.2"/>
<rect x="114.1" y="100.145" width="36.8" height="3.8" rx="0.9" fill="#1B1B1D" fill-opacity="0.9" stroke="#FF6B00" stroke-width="0.2"/>
<rect x="114.1" y="111.145" width="56.8" height="3.8" rx="0.9" fill="#1B1B1D" fill-opacity="0.9" stroke="#FF6B00" stroke-width="0.2"/>
<path d="M24.5 115C24.5 113.067 26.067 111.5 28 111.5H106C107.933 111.5 109.5 113.067 109.5 115V166C109.5 167.933 107.933 169.5 106 169.5H28C26.067 169.5 24.5 167.933 24.5 166V115Z" fill="url(#paint5_linear_43_53)" stroke="#FF6B00"/>
<path d="M35 155L49.9061 139.968C50.2771 139.594 50.8747 139.572 51.2723 139.917L62.18 149.4C62.5246 149.7 63.0283 149.728 63.404 149.469L70.6628 144.46C70.7265 144.416 70.795 144.38 70.8671 144.352L83.6027 139.38C83.7328 139.329 83.8508 139.252 83.9491 139.153L96 127M96 127H82.9586M96 127V139.303" stroke="#1B1B1D" stroke-width="4" stroke-linecap="round" stroke-linejoin="round"/>
<rect x="29.1" y="116.1" width="22.8" height="8.8" rx="0.9" fill="#1B1B1D" fill-opacity="0.9" stroke="#FF6B00" stroke-width="0.2"/>
<mask id="path-21-inside-1_43_53" fill="white">
<path fill-rule="evenodd" clip-rule="evenodd" d="M49.3334 85.8224C49.5597 86.081 49.376 86.4858 49.0323 86.4858H47.571C47.3501 86.4858 47.171 86.6649 47.171 86.8858V101.6C47.171 101.821 47.3501 102 47.571 102H49.0322C49.3759 102 49.5596 102.405 49.3333 102.664L45.4148 107.142C45.2554 107.324 44.9721 107.324 44.8127 107.142L40.8942 102.664C40.6679 102.405 40.8516 102 41.1952 102H42.6567C42.8776 102 43.0567 101.821 43.0567 101.6V86.8858C43.0567 86.6649 42.8776 86.4858 42.6567 86.4858H41.1953C40.8517 86.4858 40.668 86.081 40.8943 85.8224L44.8128 81.3441C44.9722 81.162 45.2555 81.162 45.4149 81.3441L49.3334 85.8224Z"/>
</mask>
<path fill-rule="evenodd" clip-rule="evenodd" d="M49.3334 85.8224C49.5597 86.081 49.376 86.4858 49.0323 86.4858H47.571C47.3501 86.4858 47.171 86.6649 47.171 86.8858V101.6C47.171 101.821 47.3501 102 47.571 102H49.0322C49.3759 102 49.5596 102.405 49.3333 102.664L45.4148 107.142C45.2554 107.324 44.9721 107.324 44.8127 107.142L40.8942 102.664C40.6679 102.405 40.8516 102 41.1952 102H42.6567C42.8776 102 43.0567 101.821 43.0567 101.6V86.8858C43.0567 86.6649 42.8776 86.4858 42.6567 86.4858H41.1953C40.8517 86.4858 40.668 86.081 40.8943 85.8224L44.8128 81.3441C44.9722 81.162 45.2555 81.162 45.4149 81.3441L49.3334 85.8224Z" fill="url(#paint6_linear_43_53)"/>
<path d="M44.8128 81.3441L44.0602 80.6856L44.8128 81.3441ZM45.4149 81.3441L46.1674 80.6856L45.4149 81.3441ZM40.8943 85.8224L41.6469 86.4809L40.8943 85.8224ZM40.8942 102.664L41.6468 102.005L40.8942 102.664ZM45.4148 107.142L44.6622 106.483L45.4148 107.142ZM44.8127 107.142L45.5653 106.483L44.8127 107.142ZM49.3333 102.664L48.5807 102.005L49.3333 102.664ZM49.3334 85.8224L50.0859 85.1639L49.3334 85.8224ZM47.571 85.4858H49.0323V87.4858H47.571V85.4858ZM46.171 101.6V86.8858H48.171V101.6H46.171ZM47.571 101H49.0322V103H47.571V101ZM50.0858 103.322L46.1673 107.8L44.6622 106.483L48.5807 102.005L50.0858 103.322ZM44.0601 107.8L40.1416 103.322L41.6468 102.005L45.5653 106.483L44.0601 107.8ZM41.1952 101H42.6567V103H41.1952V101ZM44.0567 86.8858V101.6H42.0567V86.8858H44.0567ZM41.1953 85.4858H42.6567V87.4858H41.1953V85.4858ZM45.5654 82.0026L41.6469 86.4809L40.1417 85.1639L44.0602 80.6856L45.5654 82.0026ZM48.5808 86.4809L44.6623 82.0026L46.1674 80.6856L50.0859 85.1639L48.5808 86.4809ZM44.0602 80.6856C44.618 80.0482 45.6097 80.0482 46.1674 80.6856L44.6623 82.0026C44.9013 82.2758 45.3263 82.2758 45.5654 82.0026L44.0602 80.6856ZM41.1953 87.4858C39.9925 87.4858 39.3497 86.0691 40.1417 85.1639L41.6469 86.4809C41.9863 86.0929 41.7108 85.4858 41.1953 85.4858V87.4858ZM42.0567 86.8858C42.0567 87.2172 42.3253 87.4858 42.6567 87.4858V85.4858C43.4299 85.4858 44.0567 86.1126 44.0567 86.8858H42.0567ZM42.6567 101C42.3253 101 42.0567 101.269 42.0567 101.6H44.0567C44.0567 102.373 43.4299 103 42.6567 103V101ZM40.1416 103.322C39.3496 102.417 39.9924 101 41.1952 101V103C41.7107 103 41.9862 102.393 41.6468 102.005L40.1416 103.322ZM46.1673 107.8C45.6096 108.438 44.6179 108.438 44.0601 107.8L45.5653 106.483C45.3262 106.21 44.9012 106.21 44.6622 106.483L46.1673 107.8ZM49.0322 101C50.2351 101 50.8779 102.417 50.0858 103.322L48.5807 102.005C48.2412 102.393 48.5167 103 49.0322 103V101ZM48.171 101.6C48.171 101.269 47.9023 101 47.571 101V103C46.7978 103 46.171 102.373 46.171 101.6H48.171ZM49.0323 85.4858C48.5168 85.4858 48.2413 86.093 48.5808 86.4809L50.0859 85.1639C50.878 86.0691 50.2352 87.4858 49.0323 87.4858V85.4858ZM47.571 87.4858C47.9023 87.4858 48.171 87.2172 48.171 86.8858H46.171C46.171 86.1126 46.7978 85.4858 47.571 85.4858V87.4858Z" fill="#FF6B00" mask="url(#path-21-inside-1_43_53)"/>
<mask id="path-23-inside-2_43_53" fill="white">
<path fill-rule="evenodd" clip-rule="evenodd" d="M125.17 26.857C124.943 26.5984 125.127 26.1936 125.471 26.1936H126.742C126.963 26.1936 127.142 26.0145 127.142 25.7936V18.2576C127.142 18.0367 126.963 17.8576 126.742 17.8576L119.206 17.8576C118.985 17.8576 118.806 18.0367 118.806 18.2576V19.2541C118.806 19.5978 118.402 19.7815 118.143 19.5551L114.344 16.2311C114.162 16.0718 114.162 15.7884 114.344 15.6291L118.143 12.305C118.402 12.0787 118.806 12.2624 118.806 12.6061V13.953C118.806 14.1739 118.985 14.353 119.206 14.353H127.142H130.247C130.468 14.353 130.647 14.5321 130.647 14.753V17.8576V25.7936C130.647 26.0145 130.826 26.1936 131.047 26.1936H132.119C132.462 26.1936 132.646 26.5984 132.42 26.857L129.096 30.6559C128.936 30.838 128.653 30.838 128.494 30.6559L125.17 26.857Z"/>
</mask>
<path fill-rule="evenodd" clip-rule="evenodd" d="M125.17 26.857C124.943 26.5984 125.127 26.1936 125.471 26.1936H126.742C126.963 26.1936 127.142 26.0145 127.142 25.7936V18.2576C127.142 18.0367 126.963 17.8576 126.742 17.8576L119.206 17.8576C118.985 17.8576 118.806 18.0367 118.806 18.2576V19.2541C118.806 19.5978 118.402 19.7815 118.143 19.5551L114.344 16.2311C114.162 16.0718 114.162 15.7884 114.344 15.6291L118.143 12.305C118.402 12.0787 118.806 12.2624 118.806 12.6061V13.953C118.806 14.1739 118.985 14.353 119.206 14.353H127.142H130.247C130.468 14.353 130.647 14.5321 130.647 14.753V17.8576V25.7936C130.647 26.0145 130.826 26.1936 131.047 26.1936H132.119C132.462 26.1936 132.646 26.5984 132.42 26.857L129.096 30.6559C128.936 30.838 128.653 30.838 128.494 30.6559L125.17 26.857Z" fill="url(#paint7_linear_43_53)"/>
<path d="M128.494 30.6559L129.246 29.9974L128.494 30.6559ZM118.143 12.305L117.484 11.5525L118.143 12.305ZM114.344 15.6291L115.003 16.3816L114.344 15.6291ZM118.143 19.5551L118.802 18.8026L118.143 19.5551ZM119.206 17.8576V16.8576V17.8576ZM126.742 17.8576V18.8576V17.8576ZM132.42 26.857L133.172 27.5155L132.42 26.857ZM126.742 27.1936H125.471V25.1936H126.742V27.1936ZM128.142 18.2576V25.7936H126.142V18.2576H128.142ZM119.206 16.8576L126.742 16.8576V18.8576L119.206 18.8576V16.8576ZM119.806 18.2576V19.2541H117.806V18.2576H119.806ZM117.484 20.3077L113.686 16.9837L115.003 15.4785L118.802 18.8026L117.484 20.3077ZM113.686 14.8765L117.484 11.5525L118.802 13.0576L115.003 16.3816L113.686 14.8765ZM119.806 12.6061V13.953H117.806V12.6061H119.806ZM127.142 15.353H119.206V13.353H127.142V15.353ZM130.247 15.353H127.142V13.353H130.247V15.353ZM129.647 17.8576V14.753H131.647V17.8576H129.647ZM129.647 25.7936V17.8576H131.647V25.7936H129.647ZM132.119 27.1936H131.047V25.1936H132.119V27.1936ZM128.343 29.9974L131.667 26.1985L133.172 27.5155L129.848 31.3144L128.343 29.9974ZM125.922 26.1985L129.246 29.9974L127.741 31.3144L124.417 27.5155L125.922 26.1985ZM129.848 31.3144C129.291 31.9518 128.299 31.9518 127.741 31.3144L129.246 29.9974C129.007 29.7242 128.582 29.7242 128.343 29.9974L129.848 31.3144ZM130.247 13.353C131.02 13.353 131.647 13.9798 131.647 14.753H129.647C129.647 15.0844 129.916 15.353 130.247 15.353V13.353ZM119.806 13.953C119.806 13.6216 119.538 13.353 119.206 13.353V15.353C118.433 15.353 117.806 14.7262 117.806 13.953H119.806ZM117.484 11.5525C118.39 10.7604 119.806 11.4032 119.806 12.6061H117.806C117.806 13.1216 118.414 13.3971 118.802 13.0576L117.484 11.5525ZM113.686 16.9837C113.048 16.4259 113.048 15.4343 113.686 14.8765L115.003 16.3816C115.276 16.1426 115.276 15.7176 115.003 15.4785L113.686 16.9837ZM119.806 19.2541C119.806 20.4569 118.39 21.0998 117.484 20.3077L118.802 18.8026C118.414 18.4631 117.806 18.7386 117.806 19.2541H119.806ZM119.206 18.8576C119.538 18.8576 119.806 18.589 119.806 18.2576H117.806C117.806 17.4844 118.433 16.8576 119.206 16.8576V18.8576ZM126.142 18.2576C126.142 18.589 126.411 18.8576 126.742 18.8576V16.8576C127.516 16.8576 128.142 17.4844 128.142 18.2576H126.142ZM132.119 25.1936C133.322 25.1936 133.964 26.6103 133.172 27.5155L131.667 26.1985C131.328 26.5864 131.603 27.1936 132.119 27.1936V25.1936ZM125.471 27.1936C125.986 27.1936 126.262 26.5864 125.922 26.1985L124.417 27.5155C123.625 26.6103 124.268 25.1936 125.471 25.1936V27.1936ZM131.647 25.7936C131.647 25.4622 131.378 25.1936 131.047 25.1936V27.1936C130.274 27.1936 129.647 26.5668 129.647 25.7936H131.647ZM126.742 25.1936C126.411 25.1936 126.142 25.4622 126.142 25.7936H128.142C128.142 26.5668 127.516 27.1936 126.742 27.1936V25.1936Z" fill="#FF6B00" mask="url(#path-23-inside-2_43_53)"/>
<mask id="path-25-inside-3_43_53" fill="white">
<path fill-rule="evenodd" clip-rule="evenodd" d="M119.886 145C119.665 145 119.486 144.821 119.486 144.6L119.486 142.882C119.486 142.538 119.081 142.354 118.822 142.581L114.344 146.499C114.162 146.658 114.162 146.942 114.344 147.101L118.822 151.02C119.081 151.246 119.486 151.062 119.486 150.719L119.486 149.4C119.486 149.179 119.665 149 119.886 149L138.6 149C138.821 149 139 148.821 139 148.6L139 145L139 137.029C139 136.808 139.179 136.629 139.4 136.629L140.662 136.629C141.005 136.629 141.189 136.224 140.963 135.965L137.044 131.487C136.885 131.305 136.601 131.305 136.442 131.487L132.524 135.965C132.297 136.224 132.481 136.629 132.825 136.629L134.6 136.629C134.821 136.629 135 136.808 135 137.029L135 144.6C135 144.821 134.821 145 134.6 145L119.886 145Z"/>
</mask>
<path fill-rule="evenodd" clip-rule="evenodd" d="M119.886 145C119.665 145 119.486 144.821 119.486 144.6L119.486 142.882C119.486 142.538 119.081 142.354 118.822 142.581L114.344 146.499C114.162 146.658 114.162 146.942 114.344 147.101L118.822 151.02C119.081 151.246 119.486 151.062 119.486 150.719L119.486 149.4C119.486 149.179 119.665 149 119.886 149L138.6 149C138.821 149 139 148.821 139 148.6L139 145L139 137.029C139 136.808 139.179 136.629 139.4 136.629L140.662 136.629C141.005 136.629 141.189 136.224 140.963 135.965L137.044 131.487C136.885 131.305 136.601 131.305 136.442 131.487L132.524 135.965C132.297 136.224 132.481 136.629 132.825 136.629L134.6 136.629C134.821 136.629 135 136.808 135 137.029L135 144.6C135 144.821 134.821 145 134.6 145L119.886 145Z" fill="url(#paint8_linear_43_53)"/>
<path d="M139 145L140 145L139 145ZM135 144.6L134 144.6L135 144.6ZM132.524 135.965L131.771 135.307L132.524 135.965ZM137.044 131.487L136.292 132.146L137.044 131.487ZM140.963 135.965L141.715 135.307L140.963 135.965ZM139 137.029L140 137.029L139 137.029ZM139.4 136.629L139.4 137.629L139.4 136.629ZM139 148.6L138 148.6L139 148.6ZM119.486 149.4L120.486 149.4L119.486 149.4ZM118.822 151.02L118.164 151.772L118.822 151.02ZM119.486 150.719L120.486 150.719L119.486 150.719ZM114.344 146.499L115.003 147.252L114.344 146.499ZM114.344 147.101L115.003 146.349L114.344 147.101ZM135 137.029L136 137.029L135 137.029ZM118.822 142.581L118.164 141.828L118.822 142.581ZM120.486 142.882L120.486 144.6L118.486 144.6L118.486 142.882L120.486 142.882ZM113.686 145.746L118.164 141.828L119.481 143.333L115.003 147.252L113.686 145.746ZM118.164 151.772L113.686 147.854L115.003 146.349L119.481 150.267L118.164 151.772ZM120.486 149.4L120.486 150.719L118.486 150.719L118.486 149.4L120.486 149.4ZM138.6 150L119.886 150L119.886 148L138.6 148L138.6 150ZM140 145L140 148.6L138 148.6L138 145L140 145ZM140 137.029L140 145L138 145L138 137.029L140 137.029ZM140.662 137.629L139.4 137.629L139.4 135.629L140.662 135.629L140.662 137.629ZM137.797 130.829L141.715 135.307L140.21 136.624L136.292 132.146L137.797 130.829ZM131.771 135.307L135.689 130.829L137.195 132.146L133.276 136.624L131.771 135.307ZM134.6 137.629L132.825 137.629L132.825 135.629L134.6 135.629L134.6 137.629ZM134 144.6L134 137.029L136 137.029L136 144.6L134 144.6ZM119.886 144L134.6 144L134.6 146L119.886 146L119.886 144ZM136 144.6C136 145.373 135.373 146 134.6 146L134.6 144C134.269 144 134 144.269 134 144.6L136 144.6ZM133.276 136.624C133.616 136.236 133.34 135.629 132.825 135.629L132.825 137.629C131.622 137.629 130.979 136.212 131.771 135.307L133.276 136.624ZM136.292 132.146C136.531 132.419 136.956 132.419 137.195 132.146L135.689 130.829C136.247 130.191 137.239 130.191 137.797 130.829L136.292 132.146ZM140.662 135.629C140.146 135.629 139.871 136.236 140.21 136.624L141.715 135.307C142.507 136.212 141.864 137.629 140.662 137.629L140.662 135.629ZM138 137.029C138 136.256 138.627 135.629 139.4 135.629L139.4 137.629C139.731 137.629 140 137.36 140 137.029L138 137.029ZM138.6 148C138.269 148 138 148.269 138 148.6L140 148.6C140 149.373 139.373 150 138.6 150L138.6 148ZM118.486 149.4C118.486 148.627 119.113 148 119.886 148L119.886 150C120.217 150 120.486 149.731 120.486 149.4L118.486 149.4ZM119.481 150.267C119.093 149.928 118.486 150.203 118.486 150.719L120.486 150.719C120.486 151.921 119.069 152.564 118.164 151.772L119.481 150.267ZM115.003 147.252C115.276 147.013 115.276 146.588 115.003 146.349L113.686 147.854C113.048 147.296 113.048 146.304 113.686 145.746L115.003 147.252ZM120.486 144.6C120.486 144.269 120.217 144 119.886 144L119.886 146C119.113 146 118.486 145.373 118.486 144.6L120.486 144.6ZM134.6 135.629C135.373 135.629 136 136.256 136 137.029L134 137.029C134 137.36 134.269 137.629 134.6 137.629L134.6 135.629ZM118.486 142.882C118.486 143.397 119.093 143.673 119.481 143.333L118.164 141.828C119.069 141.036 120.486 141.679 120.486 142.882L118.486 142.882Z" fill="#FF6B00" mask="url(#path-25-inside-3_43_53)"/>
</g>
<defs>
<linearGradient id="paint0_linear_43_53" x1="65.9085" y1="42.5999" x2="64.4766" y2="48.7637" gradientUnits="userSpaceOnUse">
<stop stop-color="#FF6B00"/>
<stop offset="1" stop-color="#FFB27A"/>
</linearGradient>
<linearGradient id="paint1_linear_43_53" x1="65.9085" y1="55.5999" x2="64.4766" y2="61.7637" gradientUnits="userSpaceOnUse">
<stop stop-color="#FF6B00"/>
<stop offset="1" stop-color="#FFB27A"/>
</linearGradient>
<linearGradient id="paint2_linear_43_53" x1="65.9085" y1="66.5999" x2="64.4766" y2="72.7637" gradientUnits="userSpaceOnUse">
<stop stop-color="#FF6B00"/>
<stop offset="1" stop-color="#FFB27A"/>
</linearGradient>
<linearGradient id="paint3_linear_43_53" x1="55.1541" y1="23.8397" x2="51.0481" y2="38.2621" gradientUnits="userSpaceOnUse">
<stop stop-color="#FF6B00"/>
<stop offset="1" stop-color="#FFB27A"/>
</linearGradient>
<linearGradient id="paint4_linear_43_53" x1="155.703" y1="64.0776" x2="97.2087" y2="107.607" gradientUnits="userSpaceOnUse">
<stop stop-color="#FF6B00"/>
<stop offset="1" stop-color="#FFB27A"/>
</linearGradient>
<linearGradient id="paint5_linear_43_53" x1="81.0054" y1="129.879" x2="44.0122" y2="178.237" gradientUnits="userSpaceOnUse">
<stop stop-color="#FF6B00"/>
<stop offset="1" stop-color="#FFB27A"/>
</linearGradient>
<linearGradient id="paint6_linear_43_53" x1="43.707" y1="89.5496" x2="52.9561" y2="92.2981" gradientUnits="userSpaceOnUse">
<stop stop-color="#FF6B00"/>
<stop offset="1" stop-color="#FFB27A"/>
</linearGradient>
<linearGradient id="paint7_linear_43_53" x1="126.346" y1="24.845" x2="114.363" y2="14.2576" gradientUnits="userSpaceOnUse">
<stop stop-color="#FF6B00"/>
<stop offset="1" stop-color="#FFB27A"/>
</linearGradient>
<linearGradient id="paint8_linear_43_53" x1="122.8" y1="144.454" x2="133.392" y2="128.412" gradientUnits="userSpaceOnUse">
<stop stop-color="#FF6B00"/>
<stop offset="1" stop-color="#FFB27A"/>
</linearGradient>
<clipPath id="clip0_43_53">
<rect width="180" height="180" fill="white"/>
</clipPath>
</defs>
</svg>
