<svg width="32" height="32" viewBox="0 0 32 32" fill="none" xmlns="http://www.w3.org/2000/svg">
    <path fill-rule="evenodd" clip-rule="evenodd" d="M0 0H32V32H0V0ZM9.42912 7.80395L14.9217 18.0932V24.8533H17.0343V18.2175L22.5765 7.80395H20.2403L16.9597 14.3155C16.794 14.6635 16.6324 14.9989 16.4751 15.3221C16.3176 15.6452 16.1727 15.9476 16.0401 16.2292C15.9904 16.0967 15.9324 15.9517 15.8661 15.7943C15.7999 15.6369 15.7253 15.4753 15.6424 15.3096C15.6259 15.2765 15.6093 15.2392 15.5928 15.1979C15.5761 15.1564 15.5513 15.1108 15.5181 15.0611C15.4685 14.9285 15.4105 14.8001 15.3443 14.6759C15.278 14.5516 15.22 14.4315 15.1703 14.3155L11.9393 7.80395H9.42912Z" fill="#EBEBF2"/>
</svg>
