<svg width="758" height="114" viewBox="0 0 758 114" fill="none" xmlns="http://www.w3.org/2000/svg">
<path d="M52.0425 77.6409C72.6032 96.3489 97.9509 106.65 124.79 106.65C156.847 106.65 186.736 92.0039 208.937 65.8169L208.946 65.8069L208.954 65.7969C213.404 60.5018 213.404 52.7496 208.954 47.4546L208.944 47.4428L208.934 47.431C186.737 21.2903 156.851 6.60158 124.79 6.60158C97.9549 6.60158 72.6046 16.8654 52.039 35.6069L30.824 10.6261L30.7892 10.5852L30.7538 10.5449C27.3376 6.66548 22.8032 5.83238 19.3962 6.04008C17.6867 6.14428 16.1013 6.50798 14.7676 6.97908C13.5407 7.41248 12.1133 8.08248 10.9595 9.06328L10.9406 9.07928L10.9218 9.09558C5.03118 14.1874 4.33018 23.0833 9.4073 29.0236C9.4107 29.0275 9.414 29.0314 9.4174 29.0353L32.8344 56.6083L9.3986 84.2379L9.3913 84.2469C4.39883 90.1549 5.04497 99.0819 10.9218 104.156C16.8618 109.291 25.7312 108.571 30.8076 102.645L30.8158 102.635L30.824 102.625L52.0425 77.6409Z" fill="#A3E635" stroke="white" stroke-width="11.98" stroke-linecap="square"/>
<path d="M272.752 8.43206V102H256.368V8.43206H272.752ZM293.488 62.1921H267.76V48.3681H292.592C297.115 48.3681 300.571 47.2588 302.96 45.0401C305.35 42.7361 306.544 39.4934 306.544 35.3121C306.544 31.3014 305.307 28.2294 302.832 26.0961C300.358 23.9628 296.774 22.8961 292.08 22.8961H267.248V8.43206H293.488C302.79 8.43206 310.086 10.6934 315.376 15.2161C320.667 19.7388 323.312 25.9254 323.312 33.7761C323.312 39.4081 321.947 44.1441 319.216 47.9841C316.486 51.7388 312.432 54.4694 307.056 56.1761V54.3841C312.859 55.7494 317.254 58.3094 320.24 62.0641C323.227 65.8188 324.72 70.6831 324.72 76.6561C324.72 81.9471 323.526 86.5121 321.136 90.3521C318.747 94.1071 315.248 97.0081 310.64 99.0561C306.118 101.019 300.656 102 294.256 102H267.248V87.5361H293.488C298.182 87.5361 301.766 86.4271 304.24 84.2081C306.715 81.9891 307.952 78.7891 307.952 74.6081C307.952 70.6831 306.672 67.6531 304.112 65.5201C301.638 63.3014 298.096 62.1921 293.488 62.1921ZM377.119 38.5121V52.9761H371.359C365.642 52.9761 361.162 54.5121 357.919 57.5841C354.677 60.5708 353.055 65.1361 353.055 71.2801V102H337.439V38.8961H352.159L353.439 51.9521H351.903C352.757 47.7708 354.762 44.3574 357.919 41.7121C361.077 39.0668 365.173 37.7441 370.207 37.7441C371.317 37.7441 372.426 37.7868 373.535 37.8721C374.645 37.9574 375.839 38.1708 377.119 38.5121ZM404.005 103.664C397.349 103.664 392.059 101.872 388.133 98.2881C384.293 94.6191 382.373 89.8401 382.373 83.9521C382.373 78.1491 384.379 73.5411 388.389 70.1281C392.485 66.6291 398.288 64.5814 405.797 63.9841L424.741 62.4481V61.0401C424.741 58.1388 424.187 55.8348 423.077 54.1281C422.053 52.3361 420.56 51.0561 418.597 50.2881C416.635 49.4348 414.331 49.0081 411.685 49.0081C407.077 49.0081 403.536 49.9468 401.061 51.8241C398.587 53.6161 397.349 56.1761 397.349 59.5041H384.037C384.037 54.8961 385.189 50.9281 387.493 47.6001C389.883 44.1868 393.211 41.5414 397.477 39.6641C401.829 37.7868 406.821 36.8481 412.453 36.8481C418.171 36.8481 423.077 37.8721 427.173 39.9201C431.269 41.8828 434.427 44.8694 436.645 48.8801C438.864 52.8054 439.973 57.7121 439.973 63.6001V102H426.277L425.125 92.6561C423.76 95.8991 421.115 98.5441 417.189 100.592C413.349 102.64 408.955 103.664 404.005 103.664ZM408.997 91.8881C413.861 91.8881 417.701 90.5231 420.517 87.7921C423.419 85.0611 424.869 81.2641 424.869 76.4001V73.0721L411.685 74.0961C406.821 74.5231 403.365 75.5471 401.317 77.1681C399.269 78.7041 398.245 80.7521 398.245 83.3121C398.245 86.1281 399.184 88.2611 401.061 89.7121C402.939 91.1631 405.584 91.8881 408.997 91.8881ZM455.314 102V38.7681H470.93V102H455.314ZM462.994 26.0961C460.349 26.0961 458.088 25.2001 456.21 23.4081C454.418 21.5308 453.522 19.2694 453.522 16.6241C453.522 13.9788 454.418 11.7601 456.21 9.96806C458.088 8.17606 460.349 7.28006 462.994 7.28006C465.64 7.28006 467.858 8.17606 469.65 9.96806C471.528 11.7601 472.466 13.9788 472.466 16.6241C472.466 19.2694 471.528 21.5308 469.65 23.4081C467.858 25.2001 465.64 26.0961 462.994 26.0961ZM502.68 102H487.064V38.7681H501.528L502.808 46.9601C504.771 43.8028 507.544 41.3281 511.128 39.5361C514.798 37.7441 518.766 36.8481 523.032 36.8481C530.968 36.8481 536.942 39.1948 540.952 43.8881C545.048 48.5814 547.096 54.9814 547.096 63.0881V102H531.48V66.8001C531.48 61.5094 530.286 57.5841 527.896 55.0241C525.507 52.3788 522.264 51.0561 518.168 51.0561C513.304 51.0561 509.507 52.5921 506.776 55.6641C504.046 58.7361 502.68 62.8321 502.68 67.9521V102ZM556.167 38.7681H622.215V51.8241H556.167V38.7681ZM595.079 7.40807V20.7201C594.141 20.7201 593.202 20.7201 592.263 20.7201C591.41 20.7201 590.514 20.7201 589.575 20.7201C586.077 20.7201 583.73 21.6588 582.535 23.5361C581.341 25.4134 580.743 27.9308 580.743 31.0881V102H565.255V31.0881C565.255 25.2854 566.151 20.6348 567.943 17.1361C569.821 13.5521 572.381 10.9494 575.623 9.32806C578.951 7.62136 582.749 6.76807 587.015 6.76807C588.295 6.76807 589.618 6.81076 590.983 6.89606C592.349 6.98136 593.714 7.15207 595.079 7.40807ZM606.599 102V38.7681H622.215V102H606.599ZM614.407 25.8401C611.762 25.8401 609.543 24.9441 607.751 23.1521C605.959 21.3601 605.063 19.1414 605.063 16.4961C605.063 13.9361 605.959 11.7601 607.751 9.96806C609.543 8.17606 611.762 7.28006 614.407 7.28006C616.967 7.28006 619.143 8.17606 620.935 9.96806C622.727 11.7601 623.623 13.9361 623.623 16.4961C623.623 19.1414 622.727 21.3601 620.935 23.1521C619.143 24.9441 616.967 25.8401 614.407 25.8401ZM633.45 82.8001H648.298C648.384 85.5311 649.408 87.7071 651.37 89.3281C653.333 90.9491 656.064 91.7601 659.562 91.7601C663.317 91.7601 666.133 91.0771 668.01 89.7121C669.973 88.3471 670.954 86.5121 670.954 84.2081C670.954 82.6721 670.442 81.3071 669.418 80.1121C668.394 78.9171 666.474 78.0211 663.658 77.4241L652.266 74.7361C646.549 73.4561 642.282 71.4081 639.466 68.5921C636.736 65.6908 635.37 61.7228 635.37 56.6881C635.37 52.5921 636.437 49.0508 638.57 46.0641C640.789 43.0774 643.776 40.8161 647.53 39.2801C651.285 37.6588 655.594 36.8481 660.458 36.8481C665.152 36.8481 669.29 37.7014 672.874 39.4081C676.458 41.1148 679.232 43.5041 681.194 46.5761C683.242 49.6481 684.309 53.2321 684.394 57.3281H669.546C669.546 54.5974 668.693 52.4641 666.986 50.9281C665.28 49.3068 662.89 48.4961 659.818 48.4961C656.746 48.4961 654.357 49.1788 652.65 50.5441C650.944 51.9094 650.09 53.7441 650.09 56.0481C650.09 59.5468 652.821 61.9361 658.282 63.2161L669.674 65.9041C674.965 67.0991 678.933 69.0191 681.578 71.6641C684.309 74.3091 685.674 78.0641 685.674 82.9281C685.674 87.1951 684.565 90.9071 682.346 94.0641C680.128 97.1361 677.013 99.5251 673.002 101.232C668.992 102.853 664.384 103.664 659.178 103.664C651.328 103.664 645.056 101.744 640.362 97.9041C635.754 94.0641 633.45 89.0291 633.45 82.8001ZM713.18 102H697.564V6.76807H713.308V46.9601C715.271 43.8881 718.002 41.4561 721.5 39.6641C725.084 37.7868 729.18 36.8481 733.788 36.8481C741.554 36.8481 747.442 39.1948 751.452 43.8881C755.548 48.5814 757.596 54.9814 757.596 63.0881V102H741.98V66.8001C741.98 63.2161 741.426 60.2721 740.316 57.9681C739.207 55.6641 737.671 53.9574 735.708 52.8481C733.746 51.6534 731.442 51.0561 728.796 51.0561C725.554 51.0561 722.738 51.7814 720.348 53.2321C718.044 54.5974 716.252 56.5174 714.972 58.9921C713.778 61.4668 713.18 64.2828 713.18 67.4401V102Z" fill="white"/>
</svg>
