<svg width="1132" height="400" viewBox="0 0 1132 400" fill="none" xmlns="http://www.w3.org/2000/svg">
<g clip-path="url(#clip0_4213_2842)">
<path d="M565.515 22.6451C569.66 15.8768 576.538 8.79482 583.943 5.79952C596.69 -5.72205e-06 613.775 2.49402 624.175 11.671C634.239 20.7884 639.344 33.2843 636.935 47.2549C639.403 46.7997 641.895 45.2195 644.508 44.3203C660.13 39.9111 676.652 44.6923 686.668 58.0863C694.192 67.6477 696.158 82.5028 691.642 94.0535C689.4 99.8632 685.578 105.087 680.608 109.545L681.109 110.048C695.643 110.754 709.926 122.041 714.334 135.879C719.114 149.837 714.909 164.753 704.702 174.961C696.362 183.204 685.639 186.057 673.718 185.816H457.304C439.534 186.2 425.804 178.328 418.412 162.526C412.612 148.962 415.476 131.614 426.306 121.275C433.135 114.134 441.691 111.209 450.916 109.737C440.469 100.044 435.436 86.7816 438.372 72.5593C440.469 61.0344 450.294 49.3645 461.579 45.3386C471.523 41.3846 484.991 42.0792 494.097 47.446L494.421 47.0504C491.677 31.3669 498.626 17.2176 511.636 8.54306C523.235 0.696837 541.781 0.899146 553.139 9.2399C558.243 12.3656 562.448 17.7335 565.515 22.6451Z" fill="white"/>
<path d="M626.786 28.5042C631.435 37.8858 628.704 50.1783 623.851 58.6011L586.302 143.08L585.978 143.475L572.405 57.775C571.316 49.5455 580.108 46.0343 585.284 42.0803C585.021 40.8709 583.69 40.9305 582.853 40.3674L570.166 40.2348L569.781 39.8515C569.852 29.2123 575.58 19.388 585.284 14.2246C595.422 8.3666 609.702 9.95923 618.495 17.4716C622.066 20.6569 625.074 24.358 626.786 28.5042Z" fill="#645FAA"/>
<path d="M557.607 25.5685C560.676 31.2478 562.449 37.6947 561.37 44.834L546.059 142.959C546.142 143.079 545.999 143.211 545.878 143.27L541.913 135.375L503.537 49.6748C499.966 38.6399 503.274 27.1027 511.312 19.1935C519.411 10.9753 532.734 8.7465 543.326 13.204C548.934 15.625 554.289 20.0826 557.607 25.5685Z" fill="#C9234A"/>
<path d="M682.331 66.8789C687.494 75.6839 686.333 89.0082 680.592 97.1792C677.036 102.918 671.163 105.782 666.191 109.544L586.675 164.128H586.493L587.38 161.517L629.53 66.3765C635.845 55.1618 647.898 49.4826 660.646 51.1955C669.38 52.7903 678.114 58.4685 682.331 66.8789Z" fill="#0089CF"/>
<path d="M501.692 66.3765L545.555 164.118H544.85L456.418 103.17C447.419 95.5866 443.73 84.2281 446.785 72.7504C449.073 64.1477 456.213 56.1093 464.708 52.9207C478.617 47.8293 494.287 53.2444 501.692 66.3765Z" fill="#F36F21"/>
<path d="M705.406 135.878C709.815 145.187 708.078 157.935 701.776 165.853C695.524 173.438 687.159 177.584 677.346 177.319L583.056 177.38L662.045 122.424C669.763 117.452 681.492 116.551 689.915 120.577C696.419 123.13 702.543 129.504 705.406 135.878Z" fill="#0DB14B"/>
<path d="M426.187 135.878C421.792 145.187 423.516 157.935 429.83 165.853C436.084 173.438 444.422 177.584 454.248 177.319L548.538 177.38L469.548 122.424C461.832 117.452 450.104 116.551 441.692 120.577C435.184 123.13 429.063 129.504 426.187 135.878Z" fill="#FDB913"/>
<path d="M256.871 233.823C211.056 233.823 173.82 271.084 173.82 316.9C173.82 362.704 211.056 399.988 256.871 399.988C302.688 399.988 339.948 362.704 339.948 316.9C339.948 271.085 302.688 233.823 256.871 233.823ZM256.871 383.622C220.078 383.622 190.137 353.684 190.137 316.902C190.137 280.13 220.078 250.19 256.871 250.19C293.666 250.19 323.606 280.131 323.606 316.902C323.606 353.684 293.666 383.622 256.871 383.622ZM973.146 317.955C968.689 315.617 941.576 301.66 937.682 299.636C923.461 292.363 918.417 285.94 918.417 275.062C918.417 259.943 930.831 250.178 950.081 250.178C961.381 250.178 972.306 255.15 978.717 258.756C979.94 259.413 981.307 259.755 982.695 259.75C987.176 259.75 990.855 256.073 990.855 251.592C990.852 250.157 990.473 248.748 989.756 247.506C989.039 246.263 988.009 245.23 986.769 244.51C978.695 240.004 964.926 233.835 950.081 233.835C921.795 233.835 902.062 250.775 902.062 275.062C902.062 296.856 916.391 307.136 930.41 314.301C934.338 316.301 961.764 330.438 965.873 332.606C976.704 338.273 982.695 346.78 982.695 356.57C982.695 369.688 971.578 383.634 951.006 383.634C930.997 383.634 915.458 370.216 911.169 366.082L909.886 364.859L897.798 375.881L899.211 377.295C904.578 382.617 924.204 399.988 951.006 399.988C981.055 399.988 999.014 377.907 999.014 356.57C999.014 340.636 989.597 326.555 973.146 317.955ZM86.5495 250.189C104.389 250.189 121.15 257.139 133.73 269.706C136.726 272.689 142.357 272.689 145.303 269.706C146.861 268.184 147.687 266.137 147.687 263.944C147.687 261.775 146.861 259.702 145.303 258.18L144.298 257.15C128.746 242.101 108.222 233.823 86.5495 233.823C40.7569 233.823 3.49603 271.096 3.49603 316.888C3.49603 362.705 40.7569 399.989 86.5495 399.989C110.725 399.989 132.507 389.616 147.687 373.079L136.125 361.506C123.905 375.069 106.221 383.623 86.5484 383.623C49.7664 383.623 19.8258 353.672 19.8258 316.889C19.8269 280.142 49.7675 250.189 86.5495 250.189ZM649.695 250.189C667.512 250.189 684.295 257.139 696.875 269.706C699.858 272.689 705.491 272.689 708.438 269.706C709.207 268.957 709.818 268.061 710.234 267.071C710.65 266.081 710.862 265.018 710.858 263.944C710.858 261.775 709.994 259.702 708.438 258.18L707.443 257.15C691.856 242.101 671.357 233.823 649.695 233.823C603.892 233.823 566.618 271.095 566.618 316.887C566.618 362.704 603.892 399.988 649.695 399.988C673.86 399.988 695.642 389.615 710.845 373.078L699.271 361.505C687.05 375.068 669.341 383.622 649.695 383.622C612.901 383.622 582.948 353.671 582.948 316.888C582.948 280.142 612.901 250.189 649.695 250.189ZM508.978 233.823C505.911 233.823 503.49 235.8 502.171 238.352C500.829 240.903 453.289 358.497 453.278 358.497C453.278 358.497 405.737 240.902 404.406 238.352C403.077 235.799 400.658 233.823 397.591 233.823C394.008 233.823 391.313 236.459 390.366 239.779C389.42 243.121 362.595 391.121 362.595 391.121C362.497 391.614 362.449 392.116 362.451 392.619C362.451 396.691 365.77 399.988 369.819 399.988C371.529 399.991 373.187 399.398 374.508 398.312C375.828 397.225 376.729 395.713 377.055 394.034L400.286 267.407C400.286 267.407 445.108 378.135 446.414 380.769C447.732 383.394 450.176 385.443 453.291 385.443C456.405 385.443 458.839 383.394 460.144 380.769C461.462 378.134 506.283 267.407 506.283 267.407L530.424 399.077H545.426C545.426 399.077 517.162 243.119 516.216 239.779C515.255 236.459 512.559 233.823 508.978 233.823ZM804.333 233.835C801.23 233.823 798.824 235.848 797.469 238.483C796.126 241.108 735.947 389.745 735.947 389.745C735.573 390.657 735.381 391.634 735.383 392.62C735.383 396.692 738.678 400 742.752 400C745.855 400 748.515 398.059 749.607 395.315L772.968 337.844H835.711L860.634 399.077H876.555C876.555 399.077 812.505 241.106 811.188 238.482C809.88 235.847 807.448 233.823 804.333 233.835ZM779.628 321.487L804.332 260.743L829.061 321.487H779.628ZM1119.53 234.709H1027.04C1022.53 234.709 1018.88 238.376 1018.88 242.892C1018.88 247.385 1022.53 251.051 1027.04 251.051H1065.81V399.065H1080.78V251.052H1119.53C1124.04 251.052 1127.73 247.386 1127.73 242.893C1127.73 238.376 1124.04 234.709 1119.53 234.709Z" fill="white"/>
</g>
<defs>
<clipPath id="clip0_4213_2842">
<rect width="1131.22" height="400" fill="white"/>
</clipPath>
</defs>
</svg>
