<svg width="680" height="240" viewBox="0 0 680 240" fill="none" xmlns="http://www.w3.org/2000/svg">
<g clip-path="url(#clip0_4215_2958)">
<path d="M231.396 201.51L172.076 200.377L140.377 174.34C122.943 160.076 108.906 146.944 109.359 145.132C109.585 143.547 127.698 129.962 149.434 115.245L188.83 88.302H220.076C237.283 88.302 251.321 88.9812 251.321 90.1133C251.321 91.019 243.396 97.1322 233.66 103.698C224.151 110.264 206.717 122.038 195.17 130.189L173.887 144.453L207.17 172.076C225.283 187.245 240.679 199.245 240.906 199.019C241.359 198.566 246.113 175.698 251.321 148.302C256.755 120.906 261.962 96.0001 263.094 93.2831C264.906 88.0756 265.132 87.8492 290.491 89.4341C304.302 90.3397 316.076 91.2454 316.302 91.4718C317.887 92.8303 295.698 198.34 293.434 200.377C291.849 201.736 269.66 202.189 231.396 201.51Z" fill="white"/>
<path d="M358.189 201.057C357.057 199.472 355.245 194.491 354.34 190.189C353.434 185.887 347.774 164.377 341.887 142.642C336 120.906 330.566 100.302 329.661 96.9057L328.302 90.566H356.377H384.679L386.943 99.1698C388.076 103.698 390.34 114.792 391.698 123.396C393.283 132.226 395.321 140.604 396.227 142.415C397.359 144.453 403.698 137.208 417.057 118.642L436.076 91.6981L452.377 91.0189L468.453 90.3396L471.849 102.34C473.887 108.906 477.283 120.906 479.774 129.057C482.038 137.208 484.981 143.774 485.887 143.547C487.019 143.321 494.264 132.906 501.962 120.226C509.66 107.321 517.132 95.5472 518.717 93.7359C522.566 88.9811 576.227 88.9811 574.415 93.9623C572.377 98.9434 504.453 200.151 501.736 201.962C497.434 204.906 458.038 204 455.774 201.057C454.415 199.472 450.566 190.189 447.17 180.453C443.774 170.717 439.925 162.34 439.019 161.66C437.887 160.981 432.227 166.868 426.34 174.566C402.566 205.585 405.283 203.774 381.51 203.774C367.472 203.774 359.774 202.868 358.189 201.057Z" fill="white"/>
<path d="M564 199.925C564 197.66 568.981 172.528 574.642 143.774L585.283 91.6981L612 91.0189C641.66 90.3396 640.076 89.2076 636.226 108C635.094 113.887 630.792 134.717 626.943 153.962C623.321 173.208 619.245 192.226 618.34 195.849L616.755 202.642L590.264 203.321C566.038 203.774 563.774 203.547 564 199.925Z" fill="white"/>
<path d="M26.2642 199.472C29.434 196.528 94.868 151.925 99.8491 149.434C105.057 146.491 105.283 146.717 100.755 171.849C94.868 204 98.4906 201.509 58.4152 201.509C38.717 201.509 24.9057 200.604 26.2642 199.472Z" fill="white"/>
<path d="M81.736 125.208C65.4341 111.623 61.1322 106.642 61.1322 102.113C61.3586 94.868 71.5473 41.6604 73.585 38.4906C75.3964 35.5472 126.793 35.5472 126.793 38.4906C126.793 40.5284 110.038 126.566 107.547 137.66C106.868 140.377 105.51 142.642 104.377 142.642C103.245 142.642 93.0567 134.717 81.736 125.208Z" fill="white"/>
<path d="M600.906 82.868C596.83 81.0566 592.755 76.7547 590.944 72.4529C588.227 65.8868 588.453 64.0755 592.302 56.8302C598.642 45.0566 609.736 38.4906 623.095 38.4906C632.604 38.4906 635.321 39.6227 641.208 45.2831C647.095 51.3963 648 53.434 646.868 60.4529C643.698 79.4717 619.925 91.0189 600.906 82.868Z" fill="white"/>
<path d="M273.509 76.9812C267.623 70.868 266.717 68.8303 267.849 61.8114C272.151 35.7737 312 26.4907 322.642 49.1322C326.038 56.151 326.038 57.2831 322.189 65.2076C316.302 76.9812 305.434 83.7737 291.623 83.7737C282.113 83.7737 279.396 82.6416 273.509 76.9812Z" fill="white"/>
</g>
<defs>
<clipPath id="clip0_4215_2958">
<rect width="679.245" height="240" fill="white"/>
</clipPath>
</defs>
</svg>
