<svg xmlns="http://www.w3.org/2000/svg" width="167" height="28" viewBox="0 0 167 28" fill="none">
  <g clip-path="url(#clip0_3022_11791)">
    <mask id="mask0_3022_11791" style="mask-type:luminance" maskUnits="userSpaceOnUse" x="0" y="0" width="167" height="28">
      <path d="M166.49 0H0.388184V27.5568H166.49V0Z" fill="white"/>
    </mask>
    <g mask="url(#mask0_3022_11791)">
      <path fill-rule="evenodd" clip-rule="evenodd" d="M2.30753 9.02724C-0.251598 11.5027 -0.251598 15.5157 2.30753 17.9909L9.72054 25.1617C12.2796 27.6369 16.4283 27.6369 18.9872 25.1617L26.4005 17.9909C28.9594 15.5155 28.9594 11.5024 26.4005 9.02724L18.9872 1.85663C16.4281 -0.618572 12.2794 -0.618572 9.72054 1.85663L2.30753 9.02724ZM17.5971 16.6464C19.3885 14.9136 19.3885 12.1045 17.5971 10.3719C15.8059 8.63909 12.9018 8.63909 11.1107 10.3719C9.31928 12.1047 9.31928 14.9136 11.1107 16.6464C12.902 18.379 15.8057 18.379 17.5971 16.6464Z" fill="#2962FF"/>
      <path d="M39.3632 18.3001C39.3735 16.3036 40.635 15.1338 42.4488 15.1338C44.2523 15.1338 45.3155 16.2532 45.3051 18.159V27.2544H49.7459V17.3925C49.7564 13.7626 47.5463 11.5643 44.2105 11.5643C41.7817 11.5643 40.1555 12.6736 39.4257 14.4986H39.2381V6.60339H34.9224V27.2544H39.3632V18.3001ZM56.6325 27.5468C58.9988 27.5468 60.5312 26.5484 61.3128 25.1066H61.4381V27.2544H65.6495V16.8078C65.6495 13.1173 62.4181 11.5643 58.8526 11.5643C55.0166 11.5643 52.4937 13.3391 51.8787 16.1625L55.9861 16.4851C56.2885 15.4566 57.2371 14.7004 58.8317 14.7004C60.3432 14.7004 61.2089 15.4365 61.2089 16.7069V16.7676C61.2089 17.7658 60.114 17.8968 57.3306 18.159C54.1619 18.4414 51.3158 19.4698 51.3158 22.9284C51.3158 25.9938 53.5777 27.5468 56.6325 27.5468ZM57.9039 24.5821C56.5386 24.5821 55.5586 23.9672 55.5586 22.7874C55.5586 21.5772 56.5908 20.9822 58.1545 20.7706C59.1236 20.6396 60.7082 20.4177 61.2397 20.0747V21.7185C61.2397 23.3418 59.8535 24.5821 57.9039 24.5821ZM81.2426 16.1827C80.8468 13.3289 78.4701 11.5643 74.4253 11.5643C70.3283 11.5643 67.6285 13.3997 67.6389 16.3844C67.6285 18.7034 69.1405 20.2059 72.2674 20.811L75.0404 21.3453C76.4371 21.6177 77.073 22.1118 77.0939 22.888C77.073 23.8058 76.0408 24.4611 74.488 24.4611C72.9034 24.4611 71.8503 23.8058 71.5793 22.5452L67.2118 22.7671C67.6285 25.7318 70.2348 27.5568 74.4775 27.5568C78.6263 27.5568 81.5971 25.5099 81.6076 22.4546C81.5971 20.216 80.0856 18.8748 76.9795 18.2599L74.0813 17.6952C72.5906 17.3825 72.0382 16.8884 72.0486 16.1422C72.0382 15.2147 73.1221 14.6096 74.4984 14.6096C76.0408 14.6096 76.9581 15.4265 77.1774 16.4246L81.2426 16.1827ZM87.6708 18.3001C87.6812 16.3036 88.9421 15.1338 90.756 15.1338C92.5598 15.1338 93.6229 16.2532 93.6124 18.159V27.2544H98.0531V17.3925C98.0635 13.7626 95.8539 11.5643 92.5181 11.5643C90.0892 11.5643 88.4628 12.6736 87.7334 14.4986H87.5455V6.60339H83.2301V27.2544H87.6708V18.3001ZM104.815 18.3001C104.825 16.3036 106.055 15.1338 107.848 15.1338C109.631 15.1338 110.704 16.2632 110.694 18.159V27.2544H115.135V17.3925C115.135 13.7829 112.946 11.5643 109.61 11.5643C107.233 11.5643 105.513 12.6937 104.794 14.4986H104.606V11.7661H100.374V27.2544H104.815V18.3001ZM124.695 27.5568C129.553 27.5568 132.576 24.3402 132.576 19.5707C132.576 14.7709 129.553 11.5643 124.695 11.5643C119.837 11.5643 116.814 14.7709 116.814 19.5707C116.814 24.3402 119.837 27.5568 124.695 27.5568ZM124.716 24.2292C122.475 24.2292 121.328 22.2428 121.328 19.5404C121.328 16.8379 122.475 14.8417 124.716 14.8417C126.915 14.8417 128.062 16.8381 128.062 19.5404C128.062 22.2428 126.915 24.2292 124.716 24.2292ZM140.19 27.5064C142.775 27.5064 144.12 26.0645 144.735 24.7738H144.922V27.2544H149.301V6.60315H144.87V14.3676H144.735C144.14 13.1073 142.858 11.5643 140.179 11.5643C136.666 11.5643 133.695 14.2062 133.695 19.5303C133.695 24.7133 136.541 27.5064 140.19 27.5064ZM141.597 24.0882C139.418 24.0882 138.23 22.2124 138.23 19.5102C138.23 16.8279 139.397 14.9827 141.597 14.9827C143.755 14.9827 144.964 16.7473 144.964 19.5102C144.964 22.2729 143.734 24.0882 141.597 24.0882ZM159.075 27.5568C163.036 27.5568 165.704 25.6914 166.33 22.8175L162.222 22.5555C161.774 23.7351 160.628 24.3502 159.147 24.3502C156.927 24.3502 155.52 22.9284 155.52 20.6193V20.6092H166.424V19.4294C166.424 14.1659 163.129 11.5643 158.897 11.5643C154.185 11.5643 151.131 14.8011 151.131 19.5808C151.131 24.4915 154.144 27.5568 159.075 27.5568ZM155.52 17.9472C155.613 16.1827 157 14.7709 158.97 14.7709C160.899 14.7709 162.233 16.1021 162.243 17.9472H155.52Z" fill="white"/>
    </g>
  </g>
  <defs>
    <clipPath id="clip0_3022_11791">
      <rect width="166.102" height="28" fill="white" transform="translate(0.388184)"/>
    </clipPath>
  </defs>
</svg>