<svg width="1106" height="200" viewBox="0 0 1106 200" fill="none" xmlns="http://www.w3.org/2000/svg">
<g clip-path="url(#clip0_4215_2881)">
<mask id="mask0_4215_2881" style="mask-type:luminance" maskUnits="userSpaceOnUse" x="0" y="0" width="1106" height="200">
<path d="M1105.84 0H0V200H1105.84V0Z" fill="white"/>
</mask>
<g mask="url(#mask0_4215_2881)">
<path d="M194.051 70.0478C194.051 108.731 162.375 140.096 123.295 140.096H52.5378V109.36H123.295C133.72 109.36 143.719 105.219 151.09 97.8463C158.463 90.4738 162.604 80.4742 162.604 70.0478C162.604 59.6215 158.463 49.6222 151.09 42.2497C143.719 34.8772 133.72 30.7353 123.295 30.7353H52.5378V0H123.295C162.375 0 194.051 31.3644 194.051 70.0478Z" fill="url(#paint0_linear_4215_2881)"/>
<path d="M0 126.168C0 87.4848 31.6761 56.1205 70.7567 56.1205H141.513V86.8558H70.7567C60.3311 86.8558 50.3326 90.9978 42.9608 98.3703C35.5889 105.743 31.4474 115.742 31.4474 126.168C31.4474 136.595 35.5889 146.594 42.9608 153.967C50.3326 161.339 60.3311 165.481 70.7567 165.481H141.513V196.217H70.7567C31.6761 196.217 0 164.852 0 126.168Z" fill="url(#paint1_linear_4215_2881)"/>
<path d="M349.97 48.3051V158.475H323.239V113.12H281.658V158.475H254.927V48.3051H281.658V91.4625H323.239V48.3051H349.97ZM462.674 71.1865L406.915 199.761H377.604L397.996 155.393L361.833 71.1865H392.26L412.81 125.71L433.201 71.1865H462.674ZM501.563 83.1386C504.305 78.9672 508.064 75.5657 512.49 73.2561C517.522 70.6535 523.13 69.359 528.798 69.4915C535.781 69.4083 542.644 71.3123 548.591 74.9816C554.629 78.7831 559.461 84.2234 562.523 90.6682C566.007 97.4652 567.748 105.36 567.748 114.354C567.748 123.347 566.007 131.295 562.523 138.197C559.435 144.666 554.61 150.151 548.591 154.04C542.644 157.709 535.781 159.613 528.798 159.53C523.134 159.637 517.533 158.344 512.49 155.765C508.098 153.481 504.343 150.138 501.563 146.04V200H474.49V70.7465H501.563V83.1386ZM539.232 114.491C539.232 108.008 537.409 102.943 533.763 99.2968C532.083 97.4757 530.038 96.0324 527.759 95.0633C525.48 94.0938 523.021 93.6207 520.546 93.675C518.072 93.6403 515.62 94.1224 513.341 95.0904C511.066 96.0588 509.017 97.4912 507.326 99.2968C503.781 103.044 502.011 108.16 502.011 114.643C502.011 121.125 503.781 126.241 507.326 129.988C509.039 131.766 511.092 133.18 513.363 134.146C515.635 135.112 518.075 135.61 520.546 135.61C523.013 135.61 525.454 135.112 527.725 134.146C529.996 133.18 532.049 131.766 533.763 129.988C537.409 126.139 539.232 120.973 539.232 114.491ZM667.74 113.224C667.733 116.167 667.574 119.107 667.266 122.034H606.29C606.712 127.496 608.444 130.768 611.491 133.709C614.64 136.545 618.757 138.067 622.994 137.963C629.714 137.963 634.388 135.127 637.017 129.454H665.691C664.177 135.258 661.378 140.649 657.51 145.23C653.638 149.811 648.787 153.466 643.318 155.927C637.216 158.62 630.606 159.964 623.94 159.866C615.925 160.012 608.007 158.115 600.934 154.351C594.271 150.733 588.798 145.259 585.179 138.594C581.397 131.766 579.507 123.782 579.507 114.643C579.507 105.503 581.345 97.5194 585.021 90.6912C588.64 84.026 594.113 78.5526 600.776 74.9337C607.499 71.2569 615.22 69.4185 623.94 69.4185C631.83 69.2712 639.635 71.1138 646.629 74.7763C653.152 78.2576 658.52 83.5703 662.068 90.061C665.849 96.6791 667.74 104.4 667.74 113.224ZM639.691 105.932C639.691 101.475 638.173 97.9303 635.134 95.2964C631.94 92.7646 627.992 91.374 623.917 91.3465C619.842 91.319 615.876 92.6561 612.648 95.1446C609.71 97.6769 607.887 101.273 607.179 105.932H639.691ZM711.39 85.9582C714.486 81.2591 718.655 77.365 723.552 74.5989C728.475 71.7435 734.079 70.2716 739.766 70.339V98.8957H732.147C725.228 98.8957 720.038 100.368 716.58 103.313C713.122 106.153 711.39 111.202 711.39 118.459V159.322H683.665V71.2855H711.39V85.9582ZM799.085 94.0019H784.633V159.322H757.77V94.0019H748.034V71.7055H757.77V69.1932C757.77 58.4113 760.859 50.246 767.036 44.6979C773.216 39.0452 782.275 36.219 794.215 36.219C796.203 36.219 797.665 36.2713 798.61 36.376V59.1439C793.476 58.8301 789.864 59.5627 787.774 61.3424C785.68 63.122 784.633 66.3149 784.633 70.9205V71.7055H799.085V94.0019ZM809.827 115.175C809.827 106.157 811.506 98.2396 814.859 91.4234C817.981 84.9872 822.825 79.5424 828.855 75.6942C834.75 72.0188 841.571 70.1085 848.516 70.1887C854.147 70.0569 859.721 71.3559 864.719 73.9639C869.16 76.229 872.911 79.6527 875.57 83.8735V71.4471H902.467V159.217H875.57V146.791C872.821 150.995 869.028 154.41 864.561 156.701C859.567 159.308 853.992 160.607 848.361 160.476C841.469 160.542 834.697 158.632 828.855 154.97C822.844 151.034 818.007 145.545 814.859 139.084C811.506 132.163 809.827 124.193 809.827 115.175ZM875.57 115.332C875.57 108.621 873.68 103.325 869.906 99.4456C868.192 97.571 866.102 96.0821 863.77 95.0787C861.439 94.0753 858.919 93.5801 856.38 93.6256C853.819 93.5899 851.28 94.0889 848.923 95.0912C846.569 96.093 844.448 97.5763 842.701 99.4456C839.028 103.22 837.194 108.464 837.194 115.175C837.194 121.886 839.028 127.234 842.701 131.219C844.448 133.088 846.569 134.571 848.923 135.573C851.28 136.576 853.819 137.075 856.38 137.039C858.919 137.084 861.439 136.589 863.77 135.586C866.102 134.582 868.192 133.093 869.906 131.219C873.68 127.339 875.567 122.043 875.57 115.332ZM919.119 114.643C919.119 105.463 920.968 97.4441 924.659 90.5857C928.267 83.9228 933.702 78.4313 940.331 74.759C947.435 70.9793 955.386 69.0727 963.431 69.2196C974.508 69.2196 983.74 72.1213 991.126 77.9243C998.621 83.7277 1003.53 91.9047 1005.85 102.456H977.043C974.618 95.7032 969.925 92.327 962.957 92.327C960.651 92.2603 958.365 92.759 956.297 93.7797C954.226 94.8004 952.441 96.3122 951.088 98.1827C948.132 101.981 946.655 107.468 946.659 114.643C946.659 121.817 948.135 127.357 951.088 131.261C952.463 133.093 954.264 134.568 956.328 135.56C958.395 136.551 960.667 137.031 962.957 136.958C969.921 136.958 974.614 133.582 977.043 126.829H1005.85C1003.52 137.169 998.614 145.293 991.126 151.202C983.635 157.111 974.403 160.065 963.431 160.065C955.386 160.212 947.435 158.306 940.331 154.526C933.702 150.854 928.267 145.362 924.659 138.699C920.968 131.841 919.119 123.822 919.119 114.643ZM1105.84 113.22C1105.83 115.86 1105.67 118.498 1105.37 121.12H1044.23C1044.65 126.597 1046.39 130.81 1049.44 133.759C1052.6 136.603 1056.72 138.13 1060.98 138.025C1067.71 138.025 1072.4 135.181 1075.03 129.493H1103.79C1102.27 135.313 1099.46 140.718 1095.58 145.311C1091.7 149.904 1086.84 153.569 1081.35 156.036C1075.24 158.736 1068.61 160.084 1061.92 159.986C1053.89 160.133 1045.95 158.229 1038.85 154.456C1032.17 150.828 1026.69 145.34 1023.06 138.657C1019.27 131.811 1017.37 123.806 1017.37 114.642C1017.37 105.479 1019.21 97.4738 1022.9 90.6275C1026.53 83.9439 1032.01 78.4561 1038.7 74.8283C1045.44 71.1416 1053.18 69.2987 1061.92 69.2987C1069.83 69.1511 1077.66 70.9985 1084.67 74.6701C1091.21 78.162 1096.59 83.4882 1100.15 89.9955C1103.94 96.6313 1105.84 104.373 1105.84 113.22ZM1077.88 106.58C1077.88 102.036 1076.32 98.4219 1073.23 95.7364C1069.97 93.1552 1065.95 91.7375 1061.79 91.7092C1057.64 91.681 1053.59 93.0445 1050.31 95.5816C1047.31 98.1635 1045.45 101.83 1044.73 106.58H1077.88Z" fill="white"/>
</g>
</g>
<defs>
<linearGradient id="paint0_linear_4215_2881" x1="52.5378" y1="70.0478" x2="194.051" y2="70.0478" gradientUnits="userSpaceOnUse">
<stop stop-color="#2E7CBB" stop-opacity="0"/>
<stop offset="0.073" stop-color="#2A86BB" stop-opacity="0.112"/>
<stop offset="0.3082" stop-color="#1EA6BC" stop-opacity="0.4486"/>
<stop offset="0.4795" stop-color="#16BABC" stop-opacity="0.6589"/>
<stop offset="0.5678" stop-color="#13C1BC" stop-opacity="0.7392"/>
<stop offset="0.6648" stop-color="#10C9BC" stop-opacity="0.8264"/>
<stop offset="0.7958" stop-color="#0DD2BC" stop-opacity="0.9215"/>
<stop offset="0.9118" stop-color="#0BD7BC" stop-opacity="0.9795"/>
<stop offset="1" stop-color="#0AD9BC"/>
</linearGradient>
<linearGradient id="paint1_linear_4215_2881" x1="141.513" y1="126.168" x2="0" y2="126.168" gradientUnits="userSpaceOnUse">
<stop stop-color="#2E7CBB" stop-opacity="0"/>
<stop offset="0.073" stop-color="#2A86BB" stop-opacity="0.112"/>
<stop offset="0.3082" stop-color="#1EA6BC" stop-opacity="0.4486"/>
<stop offset="0.4795" stop-color="#16BABC" stop-opacity="0.6589"/>
<stop offset="0.5678" stop-color="#13C1BC" stop-opacity="0.7392"/>
<stop offset="0.6648" stop-color="#10C9BC" stop-opacity="0.8264"/>
<stop offset="0.7958" stop-color="#0DD2BC" stop-opacity="0.9215"/>
<stop offset="0.9118" stop-color="#0BD7BC" stop-opacity="0.9795"/>
<stop offset="1" stop-color="#0AD9BC"/>
</linearGradient>
<clipPath id="clip0_4215_2881">
<rect width="1105.84" height="200" fill="white"/>
</clipPath>
</defs>
</svg>
