<svg xmlns="http://www.w3.org/2000/svg" width="113" height="28" viewBox="0 0 113 28" fill="none">
  <g clip-path="url(#clip0_3022_11801)">
    <mask id="mask0_3022_11801" style="mask-type:luminance" maskUnits="userSpaceOnUse" x="0" y="0" width="113" height="28">
      <path d="M0.0249023 0.322464H112.025V27.8946H0.0249023V0.322464Z" fill="white"/>
    </mask>
    <g mask="url(#mask0_3022_11801)">
      <path fill-rule="evenodd" clip-rule="evenodd" d="M5.49082 16.0101V18.6341C2.35316 17.8841 0.0249023 15.1191 0.0249023 11.8231C0.0249023 9.92268 0.827718 8.41504 2.05557 6.93608C3.07377 5.70968 5.58794 2.46167 6.37922 0.669563C6.57142 0.234441 7.0613 0.251241 7.27254 0.485099C7.94822 1.23292 8.78118 2.86622 9.05354 4.71892C9.1091 5.09636 9.13194 5.40468 9.1501 5.64952C9.18906 6.17492 9.20634 6.40856 9.47826 6.40856C9.90566 6.40856 10.1853 5.75952 10.2467 5.08964C10.2861 4.66036 10.7113 4.51676 11.0044 4.66036C12.4145 5.3514 13.8533 8.64048 14.2012 10.2546C14.3103 10.7609 14.3814 11.2839 14.3814 11.8231C14.3814 15.1117 12.0635 17.8718 8.93642 18.6291V16.0101H5.49082ZM7.20322 14.9642C8.30586 14.9642 9.1997 14.1167 9.1997 13.0713C9.1997 11.4039 7.9723 10.2124 7.36066 9.8502C7.31934 9.8258 7.29874 9.81348 7.2425 9.81504C7.20142 9.81616 7.14058 9.84192 7.11126 9.8708C7.07114 9.91012 7.0605 9.95504 7.03922 10.0446C6.93082 10.5014 6.58954 10.8271 6.23038 11.1697C5.73534 11.642 5.20658 12.1466 5.20658 13.0713C5.20658 14.1167 6.10046 14.9642 7.20322 14.9642Z" fill="#F25533"/>
      <path d="M17.8828 16.0559C16.3669 16.0559 15.2186 16.6068 14.5984 17.4562V16.3773H11.1533V27.855H14.5984V21.5882C14.5984 19.9584 15.4712 19.2238 16.7344 19.2238C17.8368 19.2238 18.7326 19.8895 18.7326 21.3127V27.855H22.1777V20.8077C22.1777 17.7086 20.2024 16.0559 17.8828 16.0559ZM29.5962 28.1765C31.8471 28.1765 33.7992 27.0056 34.787 25.2152L31.7782 23.4936C31.4107 24.2969 30.5609 24.779 29.5503 24.779C28.0574 24.779 26.955 23.7002 26.955 22.1162C26.955 20.5322 28.0574 19.4534 29.5503 19.4534C30.5609 19.4534 31.3878 19.9353 31.7782 20.7388L34.787 18.9942C33.7992 17.2266 31.8241 16.0559 29.5962 16.0559C26.1053 16.0559 23.5099 18.6958 23.5099 22.1162C23.5099 25.5366 26.1053 28.1765 29.5962 28.1765ZM37.4367 15.3673C38.562 15.3673 39.5038 14.426 39.5038 13.3011C39.5038 12.1764 38.562 11.2352 37.4367 11.2352C36.3112 11.2352 35.3696 12.1764 35.3696 13.3011C35.3696 14.426 36.3112 15.3673 37.4367 15.3673ZM35.7141 27.855H39.1592V16.3773H35.7141V27.855ZM49.5578 11.7862V17.4562C48.8002 16.584 47.6746 16.0559 46.1358 16.0559C43.127 16.0559 40.6466 18.6958 40.6466 22.1162C40.6466 25.5366 43.127 28.1765 46.1358 28.1765C47.6746 28.1765 48.8002 27.6485 49.5578 26.7762V27.8552H53.003V11.7862H49.5578ZM46.825 24.9168C45.2402 24.9168 44.0918 23.8378 44.0918 22.1162C44.0918 20.3945 45.2402 19.3156 46.825 19.3156C48.4098 19.3156 49.5578 20.3945 49.5578 22.1162C49.5578 23.8378 48.4098 24.9168 46.825 24.9168ZM58.149 23.4936H66.3026C66.3942 23.0573 66.4402 22.5984 66.4402 22.1162C66.4402 18.6499 63.9598 16.0559 60.6066 16.0559C56.9778 16.0559 54.497 18.6958 54.497 22.1162C54.497 25.5366 56.9318 28.1765 60.859 28.1765C63.041 28.1765 64.7406 27.373 65.8662 25.8121L63.1098 24.228C62.6506 24.7331 61.8466 25.1004 60.905 25.1004C59.6418 25.1004 58.5854 24.6872 58.149 23.4936ZM58.0802 20.9225C58.4018 19.7518 59.2742 19.109 60.5834 19.109C61.617 19.109 62.6506 19.591 63.0182 20.9225H58.0802ZM74.6642 16.0559C73.1486 16.0559 72.0002 16.6068 71.3798 17.4562V16.3773H67.935V27.855H71.3798V21.5882C71.3798 19.9584 72.2526 19.2238 73.5158 19.2238C74.6182 19.2238 75.5142 19.8895 75.5142 21.3127V27.855H78.9594V20.8077C78.9594 17.7086 76.9838 16.0559 74.6642 16.0559ZM87.5954 19.6829V16.3773H85.2294V13.1635L81.7846 14.1966V16.3773H79.947V19.6829H81.7846V23.746C81.7846 26.9598 83.0938 28.3142 87.5954 27.855V24.7331C86.0794 24.8249 85.2294 24.7331 85.2294 23.746V19.6829H87.5954ZM91.263 28.1765C92.4574 28.1765 93.4446 27.1894 93.4446 25.9956C93.4446 24.802 92.4574 23.8149 91.263 23.8149C90.0686 23.8149 89.081 24.802 89.081 25.9956C89.081 27.1894 90.0686 28.1765 91.263 28.1765ZM96.7262 15.3673C97.8514 15.3673 98.793 14.426 98.793 13.3011C98.793 12.1764 97.8514 11.2352 96.7262 11.2352C95.6006 11.2352 94.659 12.1764 94.659 13.3011C94.659 14.426 95.6006 15.3673 96.7262 15.3673ZM95.0034 27.855H98.4486V16.3773H95.0034V27.855ZM106.022 28.1765C109.399 28.1765 112.109 25.5366 112.109 22.1162C112.109 18.6958 109.399 16.0559 106.022 16.0559C102.646 16.0559 99.9362 18.6958 99.9362 22.1162C99.9362 25.5366 102.646 28.1765 106.022 28.1765ZM106.022 24.8249C104.529 24.8249 103.381 23.746 103.381 22.1162C103.381 20.4862 104.529 19.4075 106.022 19.4075C107.515 19.4075 108.664 20.4862 108.664 22.1162C108.664 23.746 107.515 24.8249 106.022 24.8249ZM5.64648 27.8556H9.0916V19.0411C9.0916 19.0411 5.64648 19.6599 5.64648 22.9606V27.8556Z" fill="white"/>
    </g>
  </g>
  <defs>
    <clipPath id="clip0_3022_11801">
      <rect width="112" height="28" fill="white" transform="translate(0.0249023)"/>
    </clipPath>
  </defs>
</svg>