<svg xmlns="http://www.w3.org/2000/svg" width="130" height="28" viewBox="0 0 130 28" fill="none">
  <g clip-path="url(#clip0_3022_11808)">
    <path d="M36.6221 3.17386H42.4348L47.3655 15.1435H47.593L52.5237 3.17386H58.3362V22.5065H53.7662V10.6313H53.6047L48.9395 22.3838H46.019L41.3537 10.5652H41.1926V22.5065H36.6221V3.17386ZM60.1957 22.5065V8.00695H64.8332V22.5065H60.1957ZM62.5187 6.3173C61.8682 6.3173 61.3082 6.10335 60.8407 5.6754C60.3732 5.24115 60.1387 4.71883 60.1387 4.1084C60.1387 3.50425 60.3732 2.98821 60.8407 2.56028C61.3082 2.12605 61.8682 1.90894 62.5187 1.90894C63.1762 1.90894 63.7357 2.12605 64.1977 2.56028C64.6652 2.98821 64.8987 3.50425 64.8987 4.1084C64.8987 4.71883 64.6652 5.24115 64.1977 5.6754C63.7357 6.10335 63.1762 6.3173 62.5187 6.3173ZM71.3532 14.2372V22.5065H66.7157V8.00695H71.1252V10.669H71.2867C71.6087 9.78165 72.1587 9.08625 72.9362 8.5828C73.7142 8.0731 74.6397 7.8182 75.7142 7.8182C76.7387 7.8182 77.6267 8.0479 78.3792 8.5073C79.1377 8.9604 79.7257 9.596 80.1427 10.4142C80.5662 11.226 80.7752 12.1762 80.7687 13.265V22.5065H76.1322V14.1712C76.1382 13.3656 75.9327 12.7363 75.5157 12.2832C75.1042 11.8301 74.5322 11.6036 73.7992 11.6036C73.3122 11.6036 72.8827 11.7106 72.5097 11.9245C72.1427 12.1322 71.8587 12.4311 71.6562 12.8213C71.4607 13.2115 71.3592 13.6834 71.3532 14.2372ZM90.7927 8.00695V11.4053H81.6042V8.00695H90.7927ZM83.5292 4.53318H88.1657V17.9471C88.1657 18.2302 88.2102 18.4599 88.2987 18.6362C88.3937 18.8061 88.5297 18.9287 88.7062 19.0043C88.8832 19.0735 89.0952 19.1082 89.3417 19.1082C89.5187 19.1082 89.7052 19.0924 89.9007 19.0609C90.1032 19.0231 90.2552 18.9917 90.3567 18.9666L91.0577 22.2987C90.8367 22.3617 90.5237 22.4403 90.1192 22.5347C89.7212 22.6291 89.2442 22.6889 88.6872 22.7141C87.6002 22.7645 86.6677 22.6385 85.8902 22.3365C85.1187 22.0281 84.5277 21.5499 84.1172 20.9017C83.7127 20.2535 83.5167 19.4386 83.5292 18.4568V4.53318ZM97.0397 3.17386V22.5065H92.4032V3.17386H97.0397ZM98.9232 22.5065V8.00695H103.56V22.5065H98.9232ZM101.246 6.3173C100.595 6.3173 100.036 6.10335 99.5682 5.6754C99.1002 5.24115 98.8662 4.71883 98.8662 4.1084C98.8662 3.50425 99.1002 2.98821 99.5682 2.56028C100.036 2.12605 100.595 1.90894 101.246 1.90894C101.904 1.90894 102.463 2.12605 102.925 2.56028C103.392 2.98821 103.626 3.50425 103.626 4.1084C103.626 4.71883 103.392 5.24115 102.925 5.6754C102.463 6.10335 101.904 6.3173 101.246 6.3173ZM113.721 8.00695V11.4053H104.353V8.00695H113.721ZM106.306 22.5065V7.2707C106.306 6.15055 106.518 5.2223 106.941 4.48598C107.365 3.74339 107.953 3.1896 108.705 2.82459C109.457 2.4533 110.327 2.26765 111.313 2.26765C111.958 2.26765 112.564 2.31799 113.133 2.41869C113.709 2.51308 114.136 2.59804 114.413 2.67356L113.674 6.053C113.503 5.99635 113.295 5.94915 113.048 5.9114C112.808 5.8736 112.58 5.85475 112.366 5.85475C111.821 5.85475 111.449 5.9743 111.246 6.21345C111.044 6.4526 110.943 6.7798 110.943 7.1952V22.5065H106.306ZM117.719 27.9437C117.163 27.9437 116.638 27.8997 116.145 27.8116C115.652 27.7297 115.229 27.6196 114.874 27.4811L115.898 24.1301C116.354 24.2811 116.765 24.3692 117.131 24.3944C117.504 24.4195 117.823 24.3598 118.089 24.215C118.361 24.0765 118.569 23.828 118.715 23.4693L118.895 23.035L113.718 8.00695H118.572L121.256 18.3529H121.407L124.129 8.00695H129.012L123.522 23.8941C123.257 24.687 122.881 25.3855 122.394 25.9897C121.914 26.6001 121.291 27.0784 120.526 27.4245C119.767 27.7706 118.832 27.9437 117.719 27.9437Z" fill="white"/>
    <path d="M7.43252 10.1304C7.45197 7.4865 8.50522 4.95411 10.3688 3.07031H10.3654L3.17049 10.233H3.17392C3.14714 10.254 3.12189 10.2768 3.09837 10.3014C1.34858 12.0411 0.287701 14.3506 0.110432 16.8062C-0.0668359 19.2617 0.651399 21.6986 2.13332 23.6694L9.40032 16.435L9.47592 16.3632C8.12147 14.5676 7.40292 12.3758 7.43252 10.1304Z" fill="#0C8C5E"/>
    <path d="M24.9027 17.5425C23.5257 18.8859 21.7971 19.8172 19.9141 20.2301C18.0312 20.643 16.0695 20.5208 14.2529 19.8776C13.2843 19.5353 12.374 19.0476 11.5535 18.4314L11.478 18.5066L4.21094 25.7377C6.19152 27.2092 8.63792 27.922 11.103 27.7456C13.5681 27.5692 15.8869 26.5154 17.6357 24.7769L17.7078 24.7051L24.9027 17.5425Z" fill="#0C8C5E"/>
    <path d="M27.9874 10.2329V0.47258C27.9874 0.211583 27.7749 5.12366e-06 27.5127 5.12366e-06H17.7085C16.3585 -0.00134171 15.0216 0.262851 13.7745 0.777415C12.5274 1.29198 11.3947 2.04676 10.4414 2.99841L10.3693 3.07021C9.11285 4.34004 8.21395 5.91645 7.7627 7.64135C8.5796 7.43075 9.4191 7.3194 10.2629 7.3097C12.5183 7.28325 14.7194 7.9996 16.5236 9.3474C18.1451 10.5512 19.3724 12.206 20.0507 14.1032C20.7419 16.0422 20.8328 18.1431 20.3117 20.1341C22.0446 19.6856 23.6283 18.7906 24.9033 17.5392L24.9755 17.4708C25.9318 16.5214 26.6902 15.3933 27.2071 14.1511C27.724 12.909 27.9892 11.5774 27.9874 10.2329Z" fill="#18E299"/>
  </g>
  <defs>
    <clipPath id="clip0_3022_11808">
      <rect width="129" height="28" fill="white" transform="translate(0.0253906)"/>
    </clipPath>
  </defs>
</svg>