<svg width="1061" height="240" viewBox="0 0 1061 240" fill="none" xmlns="http://www.w3.org/2000/svg">
<path d="M644.628 158.839V82.0077H660.621H676.615V89.2831V96.6212L678.81 93.7362C681.193 90.6002 687.152 86.0844 691.667 84.0774C701.514 79.5616 716.63 79.8752 726.79 84.7046C740.4 91.1647 749.62 103.897 752.881 120.831C754.387 128.922 753.634 149.431 751.69 151.375C751.439 151.626 751.251 152.504 751.251 153.319C751.251 154.135 751 155.264 750.686 155.891C750.435 156.455 749.181 159.09 747.989 161.661C742.156 174.017 732.686 182.17 719.264 186.184C715.501 187.376 701.703 187.376 697.939 186.184C689.723 183.738 683.138 179.724 678.873 174.707L676.615 172.01V203.871V235.67H660.621H644.628V158.839ZM708.1 157.71C717.445 153.508 722.525 143.347 721.459 130.866C720.644 120.768 716.253 114.12 707.974 110.294C705.152 108.977 703.584 108.726 699.194 108.663C694.615 108.663 693.298 108.914 689.974 110.482C677.869 116.064 672.789 132.497 678.873 146.42C681.444 152.379 687.528 157.584 693.8 159.215C697.438 160.156 704.274 159.466 708.1 157.71Z" fill="white"/>
<path d="M961.987 234.855C961.987 234.416 963.869 229.963 966.127 224.945C968.385 219.99 970.643 215.098 971.082 214.032C972.838 209.892 973.967 207.384 977.667 199.293C979.8 194.652 981.932 189.885 982.434 188.819C982.935 187.69 983.751 185.746 984.253 184.554C985.131 182.547 985.131 182.171 984.253 180.164C981.618 174.142 975.158 158.588 975.158 158.212C975.158 158.086 974.406 156.33 973.528 154.323C972.65 152.316 971.646 150.121 971.395 149.431C971.144 148.741 970.454 147.173 969.953 145.982C969.451 144.79 967.946 141.278 966.691 138.142C965.374 135.068 963.806 131.243 963.116 129.675C962.426 128.107 961.611 126.288 961.36 125.598C961.109 124.908 960.419 123.34 959.918 122.148C959.416 120.957 957.534 116.441 955.715 112.113C953.896 107.786 952.078 103.333 951.576 102.266C951.074 101.137 950.321 99.2558 949.82 98.1895C946.684 90.9141 943.799 83.6387 943.799 82.886C943.799 82.1334 946.621 82.008 961.172 82.1334L978.545 82.3216L979.611 85.1439C981.179 89.2834 982.747 93.4856 987.702 107.096C990.211 113.807 992.469 119.89 992.72 120.58C993.41 122.086 996.922 131.87 999.368 138.769C1001.63 145.229 1002.63 147.173 1003.01 145.919C1003.88 143.222 1013.61 116.629 1014.04 115.563C1014.36 114.873 1015.93 110.671 1017.56 106.155C1019.12 101.702 1021.32 95.7435 1022.32 92.9838C1023.33 90.2242 1024.39 87.2137 1024.71 86.3356C1026.09 81.6944 1024.71 82.008 1043.52 82.008C1052.87 82.008 1060.46 82.1334 1060.46 82.2589C1060.46 82.447 1059.77 84.0777 1056.76 91.1023C1055.56 93.8619 1054.18 97.186 1050.11 106.782C1047.79 112.301 1045.53 117.695 1045.09 118.699C1044.65 119.765 1043.52 122.399 1042.58 124.657C1041.64 126.915 1039.95 130.866 1038.82 133.438C1037.69 136.009 1034.43 143.661 1031.61 150.372C1028.78 157.083 1026.02 163.606 1025.52 164.797C1024.96 165.989 1024.2 167.871 1023.77 168.874C1023.33 169.94 1021.51 174.268 1019.69 178.596C1017.87 182.923 1016.05 187.314 1015.61 188.317C1015.11 189.383 1012.73 195.028 1010.22 200.861C1007.77 206.756 1005.2 212.778 1004.51 214.346C1003.82 215.913 1003.01 217.732 1002.75 218.422C1002.5 219.112 1001.56 221.245 1000.75 223.126C999.87 225.008 998.364 228.645 997.361 231.092L995.542 235.67H978.796C965.311 235.67 961.987 235.482 961.987 234.855Z" fill="white"/>
<path d="M349.221 186.749C339.06 185.683 330.907 183.048 322.126 178.031C299.045 164.86 286 136.448 290.641 109.479C295.533 80.4397 315.227 60.4323 344.705 54.474C349.032 53.5959 364.461 53.5959 368.789 54.474C390.553 58.8643 406.985 70.8437 416.017 88.7814C420.031 96.8094 421.975 103.709 423.229 114.12C424.923 128.859 420.219 146.985 411.375 159.529C397.64 179.097 374.183 189.383 349.221 186.749ZM365.778 157.208C379.639 153.445 388.044 143.473 390.615 127.605C392.434 116.19 389.737 103.332 383.653 94.8652C380.706 90.7884 374.935 86.5235 369.604 84.5165C362.517 81.8196 350.851 81.8196 343.889 84.5165C335.799 87.6524 330.405 92.5445 326.767 100.196C319.993 114.434 320.934 132.309 329.213 144.664C332.224 149.18 338.057 153.821 343.262 155.766C348.782 157.835 360.573 158.588 365.778 157.208Z" fill="white"/>
<path d="M860.382 187C847.713 185.494 835.483 176.526 828.207 163.417C821.684 151.626 819.677 132.497 823.44 117.13C827.58 100.134 838.681 87.6524 854.11 82.6349C858.124 81.3178 860.006 81.0669 866.968 81.0669C875.874 81.1296 879.637 81.8822 886.222 85.2064C890.048 87.1507 897.073 93.2344 897.7 95.2414C898.641 98.252 899.268 95.8686 899.268 89.2204V82.0077H914.948H930.628V134.065V186.122H914.948H899.268V178.909C899.268 172.261 898.641 169.877 897.7 172.888C896.571 176.463 886.097 183.676 878.508 186.059C876.125 186.811 864.083 187.439 860.382 187ZM886.473 157.208C892.996 153.947 897.073 147.737 898.641 138.643C899.331 134.943 899.331 133.187 898.641 129.549C897.261 121.395 893.811 115.437 888.731 112.176C879.7 106.468 868.034 107.534 860.884 114.747C856.055 119.576 853.985 125.221 853.985 133.626C853.922 146.922 859.629 155.452 871.044 159.215C871.922 159.529 874.808 159.654 877.567 159.529C881.581 159.278 883.212 158.901 886.473 157.208Z" fill="white"/>
<path d="M470.08 185.745C461.99 183.55 454.526 178.533 449.822 172.198C446.686 167.933 445.808 166.177 443.989 160.595C441.731 153.758 441.418 148.929 441.418 115.123V82.0077H457.098H472.777V111.987C472.777 144.351 472.966 146.42 476.164 151.877C477.858 154.762 480.178 156.894 484.067 158.901C487.391 160.658 497.74 160.595 501.691 158.776C507.336 156.142 510.911 151.062 512.228 143.786C512.667 141.465 512.918 129.298 512.918 111.047V82.0077H528.598H544.277V134.065V186.122H528.598H512.918V179.222C512.918 175.02 512.667 172.323 512.291 172.323C511.977 172.323 511.663 172.574 511.663 172.888C511.663 174.017 505.768 179.285 502.255 181.355C498.492 183.55 496.234 184.491 491.091 185.871C486.952 187 474.283 186.937 470.08 185.745Z" fill="white"/>
<path d="M603.233 185.432C600.286 185.181 596.836 184.679 595.519 184.365C586.174 181.919 578.271 174.268 575.512 165.111C573.442 158.211 573.128 153.507 573.128 131.117V108.35H566.856H560.584V95.1786V82.0076H566.856H573.128L573.254 69.4638C573.379 62.5647 573.63 56.9199 573.944 56.9199C574.194 56.9199 581.282 56.9199 589.749 56.9199H605.115V69.4638V82.0076H615.464H625.812V95.1786V108.35H615.464H605.052L605.24 131.493L605.429 154.636L606.934 156.267C609.004 158.525 611.826 159.152 619.415 159.152H625.812V172.637V186.121L617.22 185.996C612.453 185.996 606.181 185.682 603.233 185.432Z" fill="white"/>
<path d="M771.948 117.13V48.1393H787.941H803.935L803.809 116.942L803.621 185.808L787.816 185.996L771.948 186.122V117.13Z" fill="white"/>
<path d="M87.3052 238.304C82.4758 234.792 82.3504 234.227 82.1622 211.523L81.9741 191.39L87.7442 184.365C92.4481 178.658 93.828 177.341 95.1451 177.341C96.3995 177.341 96.9639 176.902 97.5284 175.459C97.9047 174.393 98.971 173.327 99.849 172.95C100.853 172.574 101.48 171.884 101.48 171.132C101.48 170.442 101.856 169.501 102.358 168.999C102.86 168.497 103.361 167.368 103.487 166.49C103.738 164.421 113.961 151.689 115.403 151.626C116.47 151.626 118.539 148.804 120.107 145.354C120.484 144.476 123.306 140.775 126.379 137.138C129.39 133.437 134.721 127.04 138.17 122.838C141.557 118.698 144.693 115.249 145.07 115.249C146.01 115.249 147.892 112.928 147.892 111.736C147.892 111.172 149.648 108.601 151.843 105.966C153.976 103.395 157.174 99.5062 158.93 97.4365C161.126 94.7396 162.568 93.5479 163.76 93.4225C165.14 93.2343 165.579 92.7953 165.892 91.3527C166.081 90.3492 166.582 89.5339 166.959 89.5339C167.335 89.5339 168.025 88.9694 168.464 88.2795C168.903 87.5896 169.781 87.0251 170.471 87.0251C171.537 87.0251 171.725 86.5861 171.725 84.2655C171.725 82.0076 172.164 81.0668 174.109 78.8089C175.426 77.3036 178.687 73.2896 181.384 69.9028C184.457 66.0769 186.527 64.0072 186.778 64.5089C187.029 64.8853 187.781 65.0107 188.534 64.8225C190.102 64.3208 193.05 60.9339 193.05 59.6795C193.05 59.1778 193.677 58.8015 194.618 58.8015C197.001 58.8015 196.499 57.6725 193.991 57.4217L191.795 57.2335L193.677 55.0383C195.935 52.4041 196.186 49.7072 194.304 49.08C191.545 48.2019 190.102 45.8813 189.663 41.7419C189.036 36.1599 189.412 35.5954 193.112 35.5954C196.123 35.5954 196.186 35.5327 196.186 33.6511C196.186 31.7695 197.377 29.9506 198.632 29.9506C199.008 29.9506 199.322 29.3862 199.322 28.6963C199.322 27.7555 199.761 27.4419 201.141 27.4419C202.646 27.4419 203.022 27.1283 203.273 25.5603C203.649 23.6787 203.712 23.6787 208.102 23.6787C210.611 23.6787 212.493 23.9296 212.493 24.3059C212.493 24.6822 213.057 24.9331 213.747 24.9331C214.437 24.9331 215.001 24.4941 215.001 23.9923C215.001 23.3024 215.754 23.0515 217.824 23.0515H220.646L220.144 21.0445C219.894 19.9156 219.705 17.7204 219.705 16.1524V13.3301L222.214 13.2046C223.594 13.1419 225.037 13.0792 225.413 13.0792C225.852 13.0165 226.354 11.1976 226.605 8.68884C226.855 6.24279 227.357 3.92217 227.733 3.42042C228.173 2.91867 229.929 2.29148 231.685 2.10332C234.821 1.72701 235.009 1.78972 236.891 3.92218L238.835 6.18007L238.458 14.1454C238.27 18.5358 237.957 22.2989 237.831 22.5498C237.706 22.8007 237.267 25.0585 236.891 27.5673C235.699 35.8463 235.323 38.1669 231.12 63.5054C227.106 87.3387 226.542 90.9137 225.037 99.4435C223.469 108.161 216.632 149.807 215.942 154.448C215.754 155.828 215.315 158.4 214.939 160.093C214.312 163.48 206.221 212.025 205.719 215.6C204.841 222.06 197.879 226.575 191.795 224.757C189.224 223.941 176.68 218.861 170.784 216.227C169.405 215.6 165.202 213.843 161.377 212.275C154.415 209.453 151.279 208.136 147.265 206.38C144.38 205.125 142.31 204.247 136.665 201.864C132.902 200.233 131.836 200.045 131.209 200.672C130.832 201.111 124.121 209.265 116.344 218.735C108.63 228.206 101.354 236.799 100.288 237.865C98.5946 239.433 97.7166 239.746 94.0789 239.935C90.253 240.123 89.6885 239.997 87.3052 238.304ZM200.451 53.7839C200.952 52.7177 201.642 51.9024 202.019 51.9024C202.52 51.9024 202.771 50.1462 202.834 46.5712C202.959 42.5572 202.771 41.2401 202.144 41.2401C201.705 41.2401 200.952 40.4248 200.451 39.3585C199.51 37.2261 198.067 36.348 198.067 37.9787C198.067 38.5432 198.381 42.4318 198.757 46.5085C199.196 51.7142 199.196 54.1603 198.757 54.5993C197.816 55.5401 197.879 56.2927 198.883 55.9791C199.322 55.791 200.012 54.7875 200.451 53.7839Z" fill="#E96C79"/>
<path d="M209.357 11.4485C209.357 9.37873 209.482 9.2533 211.552 9.2533C213.622 9.2533 213.747 9.37873 213.747 11.4485C213.747 13.5182 213.622 13.6436 211.552 13.6436C209.482 13.6436 209.357 13.5182 209.357 11.4485Z" fill="#E96C79"/>
<path d="M216.381 11.0095C215.942 10.5705 215.629 9.12792 215.629 7.7481C215.691 5.36477 215.817 5.11389 218.451 3.79679C222.967 1.47617 223.406 1.72705 222.967 6.11739C222.779 8.18713 222.214 10.2569 221.712 10.8213C220.521 11.9503 217.448 12.0757 216.381 11.0095Z" fill="#E96C79"/>
<path d="M82.0367 192.958C82.0367 191.955 82.2876 191.202 82.6012 191.39C83.103 191.704 82.7894 194.902 82.2876 194.902C82.1622 194.902 82.0367 194.024 82.0367 192.958Z" fill="#E85E80"/>
<path d="M85.7999 187.062C85.7999 186.811 94.267 176.212 102.671 166.051C106.685 161.159 106.685 161.159 105.807 163.104C105.306 164.233 105.243 165.048 105.619 165.299C106.811 166.114 106.434 168.686 104.867 170.191C104.051 171.069 103.361 172.261 103.361 172.951C103.361 173.64 102.609 174.519 101.668 175.02C100.664 175.459 99.9744 176.212 100.037 176.588C100.163 177.027 99.9117 177.341 99.5354 177.341C99.2218 177.341 99.0336 177.529 99.159 177.843C99.6608 178.658 98.4064 181.104 97.4656 181.104C96.9639 181.104 96.1485 180.665 95.584 180.163C94.2669 178.846 92.699 178.972 92.699 180.414C92.699 181.48 91.5073 182.923 87.8069 186.31C86.6779 187.376 85.7999 187.69 85.7999 187.062Z" fill="#E85E80"/>
<path d="M51.6179 166.051C49.5482 165.048 47.4157 164.233 46.8513 164.233C46.3495 164.17 45.6596 163.919 45.2833 163.605C44.9697 163.354 41.4574 161.786 37.5061 160.156C33.5548 158.462 29.2899 156.706 28.0982 156.204C26.9065 155.703 25.3386 155.013 24.6486 154.762C23.9587 154.511 22.1399 153.696 20.5719 153.006C19.0039 152.316 14.8644 150.56 11.3522 149.117C3.70043 145.919 0.81535 143.347 0.188158 138.894C-0.0627192 137.326 -0.0627192 135.131 0.188158 134.002C0.627192 132.058 5.08026 126.538 6.20921 126.538C6.5228 126.538 7.83989 125.848 9.157 125.096C11.7912 123.402 10.8504 123.967 48.1684 102.391C63.5346 93.548 77.8973 85.2063 80.1552 83.8892C84.4201 81.3805 106.497 68.6485 110.26 66.4533C117.661 62.2511 171.412 31.1424 198.005 15.7135C207.099 10.4451 214.813 6.11743 215.064 6.11743C215.378 6.11743 215.629 5.86655 215.629 5.49024C215.629 5.17664 215.88 4.86305 216.193 4.86305C216.569 4.86305 218.514 3.85954 220.521 2.66788C225.287 -0.0917692 228.549 -0.656241 232.249 0.723581C237.957 2.91875 240.716 9.25339 238.897 16.0271C238.145 18.724 236.326 19.7275 236.326 17.4696C236.326 16.7797 236.012 16.0271 235.636 15.7762C235.197 15.5253 235.134 15.2117 235.573 14.9608C236.514 14.3964 236.702 9.75515 235.824 8.18717C235.385 7.43454 235.072 6.05471 235.072 5.17664C235.072 3.54594 235.009 3.48323 233.629 4.42402C232.626 5.05121 231.873 5.17664 231.12 4.80032C229.866 4.04769 228.549 6.18015 228.988 8.37533C229.113 9.2534 228.988 10.0687 228.737 10.2569C228.423 10.4451 228.172 11.5113 228.172 12.7029C228.172 14.8354 227.294 15.6507 224.786 15.7762C224.096 15.8389 223.531 16.3407 223.406 17.0306C223.343 17.6578 222.841 18.4731 222.402 18.7867C221.775 19.2257 221.775 19.4766 222.59 20.1038C225.476 22.3617 223.97 24.9332 219.768 24.9332C216.946 24.9332 216.883 24.9332 216.695 29.0099C216.569 31.3933 215.315 31.9577 214.688 29.9507C214.312 28.8845 213.308 28.3827 211.74 28.6336C211.489 28.6336 211.113 28.0064 210.862 27.1284C210.548 25.8113 210.109 25.5604 208.04 25.5604C205.907 25.5604 205.594 25.7485 205.217 27.3165C204.966 28.2573 204.59 29.1354 204.339 29.3235C204.088 29.5117 203.712 30.2643 203.461 31.017C203.085 32.2086 203.21 32.3968 204.151 32.0832C205.217 31.7696 205.217 31.7696 204.214 32.4595C203.085 33.1494 203.336 34.9683 204.59 34.9683C205.029 34.9683 205.719 35.6582 206.095 36.5362C207.099 38.6687 207.036 38.7314 205.594 38.7314C204.778 38.7314 204.339 38.2924 204.339 37.477C204.339 36.7871 204.088 36.2226 203.775 36.2226C203.461 36.2226 203.022 35.47 202.771 34.4665C202.52 33.5257 202.144 33.1494 202.019 33.5884C201.83 33.9648 201.266 34.3411 200.764 34.3411C200.2 34.3411 199.949 33.9648 200.137 33.463C200.639 32.1459 199.949 31.7696 198.945 32.7731C197.628 34.0902 197.879 34.7801 199.823 35.1564C200.952 35.4073 201.768 36.1599 202.332 37.4143C202.834 38.4805 203.587 39.3586 204.088 39.3586C204.59 39.3586 204.966 39.9231 205.029 40.613C205.217 44.0625 205.155 44.8152 204.778 46.3832C204.527 47.3239 204.59 48.7665 204.904 49.5818C205.656 51.4634 205.155 53.784 204.026 53.784C203.587 53.784 202.834 54.5994 202.395 55.6656C201.893 56.6691 200.764 57.8608 199.761 58.2371C198.82 58.6761 198.13 59.3033 198.318 59.7424C198.694 60.8086 197.44 62.502 197.001 61.4985C196.562 60.3695 194.931 60.495 194.931 61.5612C194.931 63.2546 191.795 66.2024 188.973 67.1432C187.405 67.7077 186.151 67.9586 186.151 67.7077C186.151 67.4568 185.523 68.2094 184.834 69.2757C184.081 70.4046 183.015 71.3454 182.387 71.3454C181.196 71.3454 178.373 74.6695 179.001 75.2967C179.565 75.8612 177.872 77.3664 176.241 77.7428C174.861 78.1191 174.861 78.0564 175.676 77.1156C176.116 76.5511 179.063 72.9761 182.074 69.1502C189.412 60.0559 194.931 53.5959 194.931 54.1603C194.931 54.4112 195.496 54.0976 196.186 53.4704C196.938 52.7805 197.252 52.0906 196.938 51.6516C196.625 51.2753 196.499 49.331 196.562 47.3867C196.687 45.3797 196.562 43.749 196.311 43.749C195.998 43.749 195.872 42.3691 195.935 40.613L195.998 37.477L194.053 37.6652C191.921 37.7906 191.105 38.4805 191.607 39.7976C191.795 40.2994 192.423 40.4876 193.175 40.2367C194.116 39.9858 194.367 40.1112 194.179 40.6757C193.99 41.1775 193.363 41.4911 192.799 41.4911C191.356 41.3656 191.482 43.8744 192.987 44.8152C193.614 45.1915 194.241 46.3204 194.43 47.3239C194.618 48.8919 194.492 49.0801 192.987 49.0801C191.67 49.0801 185.837 53.9095 165.704 71.659C151.592 84.0774 137.418 96.6212 134.094 99.569C128.073 104.963 80.7196 146.859 66.6705 159.152C62.5311 162.79 58.5797 166.24 57.9525 166.804C56.3846 168.247 56.1337 168.184 51.6179 166.051ZM220.96 6.24287C221.336 4.48673 221.211 4.29857 220.207 4.67489C217.698 5.61568 216.82 7.68541 218.2 9.06523C219.204 10.0687 220.333 8.81435 220.96 6.24287Z" fill="#E85E80"/>
<path d="M115.341 150.685C117.536 147.988 120.295 144.601 121.424 143.096C122.616 141.591 123.808 140.337 124.121 140.337C125.188 140.337 124.686 142.657 123.118 144.978C122.24 146.232 121.55 147.549 121.55 147.926C121.55 148.239 120.86 149.619 119.982 150.999C118.602 153.194 117.473 153.884 115.717 153.57C115.466 153.508 114.337 153.947 113.271 154.511C111.578 155.389 111.828 154.95 115.341 150.685Z" fill="#E85E80"/>
<path d="M124.059 149.807C124.059 149.368 123.87 149.18 123.557 149.305C123.306 149.494 123.118 148.804 123.118 147.8C123.055 146.609 123.369 145.981 123.996 145.981C124.686 145.981 124.749 146.169 124.184 146.734C123.682 147.236 123.682 147.8 124.121 148.616C124.498 149.305 124.623 149.995 124.435 150.246C124.247 150.434 124.059 150.246 124.059 149.807Z" fill="#E85E80"/>
<path d="M131.71 130.615C133.467 128.42 135.035 126.664 135.16 126.789C135.85 127.479 133.404 131.493 131.397 132.998C130.142 133.939 129.013 134.692 128.825 134.692C128.637 134.692 129.954 132.873 131.71 130.615Z" fill="#E85E80"/>
<path d="M138.86 122.901C138.609 122.462 149.648 108.162 152.094 105.841C152.972 105.026 152.972 105.026 152.408 106.155C152.094 106.844 151.906 108.35 152.031 109.541C152.219 111.36 152.157 111.611 150.965 111.298C150.15 111.109 149.773 111.235 149.962 111.674C150.087 112.113 150.589 112.427 151.091 112.427C151.592 112.427 152.031 113.179 152.157 114.183C152.282 115.123 152.094 115.876 151.718 115.876C151.341 115.876 151.028 115.625 151.028 115.249C151.028 114.183 149.899 114.559 148.519 116.002C147.829 116.754 147.39 117.758 147.516 118.197C147.704 118.636 147.578 119.012 147.265 119.012C146.888 119.012 146.637 118.573 146.637 118.071C146.637 117.569 146.387 117.13 146.01 117.13C145.383 117.13 143.815 119.702 144.003 120.455C144.066 120.705 143.752 120.894 143.251 120.894C142.812 120.894 141.683 121.458 140.805 122.148C139.927 122.838 139.048 123.214 138.86 122.901Z" fill="#E85E80"/>
<path d="M155.732 110.482C154.54 109.604 154.54 109.479 155.606 108.726C156.171 108.287 157.363 108.036 158.241 108.162C159.683 108.475 159.683 108.538 158.742 109.98C157.613 111.737 157.425 111.737 155.732 110.482Z" fill="#E85E80"/>
<path d="M161.063 98.3147C160.373 96.9976 160.31 96.9976 158.993 98.1265C157.174 99.6318 157.739 98.9419 166.08 88.6559C173.795 79.1853 174.234 78.9971 173.732 85.6454C173.544 88.3423 173.293 88.9068 172.29 88.9068C171.663 88.9068 170.659 89.5967 170.095 90.4748C169.53 91.3528 168.84 91.9173 168.589 91.7291C168.338 91.541 167.899 92.4191 167.648 93.6734C167.272 95.8686 167.147 95.9313 165.202 95.6177C163.321 95.3041 163.195 95.4296 163.384 96.684C163.572 97.4366 163.258 98.4401 162.756 98.8791C161.941 99.5063 161.627 99.4436 161.063 98.3147Z" fill="#E85E80"/>
<path d="M209.357 37.477C209.357 36.6617 209.796 36.2227 210.611 36.2227C211.426 36.2227 211.866 36.6617 211.866 37.477C211.866 38.2924 211.426 38.7314 210.611 38.7314C209.796 38.7314 209.357 38.2924 209.357 37.477Z" fill="#E85E80"/>
<path d="M211.489 31.9577C211.74 31.5187 211.615 31.2051 211.301 31.2051C210.925 31.2051 210.611 30.9542 210.611 30.5779C210.611 29.6371 211.677 29.8252 212.054 30.8915C212.304 31.3932 212.116 31.9577 211.74 32.2086C211.301 32.4594 211.238 32.3967 211.489 31.9577Z" fill="#E85E80"/>
<path d="M232.563 22.4245C232.563 21.7346 231.998 20.6683 231.371 20.1039C229.803 18.7868 230.681 16.5289 232.563 17.0933C233.19 17.2815 233.88 17.1561 234.131 16.7797C235.134 15.149 235.573 16.4034 234.695 18.7868C234.194 20.2293 233.943 21.9227 234.194 22.5499C234.382 23.3025 234.194 23.6789 233.566 23.6789C233.002 23.6789 232.563 23.1144 232.563 22.4245Z" fill="#E85E80"/>
</svg>
