<svg width="881" height="240" viewBox="0 0 881 240" fill="none" xmlns="http://www.w3.org/2000/svg">
<mask id="mask0_4215_2904" style="mask-type:luminance" maskUnits="userSpaceOnUse" x="5" y="0" width="871" height="240">
<path d="M875.374 0H5.37366V240H875.374V0Z" fill="white"/>
</mask>
<g mask="url(#mask0_4215_2904)">
<path d="M410.216 126.954C415.604 117.849 418.394 107.399 418.275 96.7742C418.309 89.3291 416.961 81.9445 414.301 75.0075C411.741 68.2708 407.874 62.1266 402.93 56.9409C397.86 51.6844 391.824 47.4917 385.164 44.6009C377.833 41.4538 369.939 39.8874 361.982 40.0009H297.059V197.081H332.819V153.548H349.594L376.967 197.081H418.524L387.617 147.494C397.018 143.126 404.897 135.965 410.216 126.954ZM380.305 107.101C379.195 110.269 377.511 113.197 375.341 115.734C373.158 118.244 370.49 120.27 367.504 121.688C364.328 123.2 360.859 123.965 357.352 123.928H332.845V69.6209H357.352C360.859 69.5856 364.329 70.3534 367.504 71.8675C370.49 73.2824 373.157 75.3065 375.341 77.8142C377.514 80.362 379.198 83.3018 380.305 86.4809C382.671 93.1598 382.671 100.469 380.305 107.148V107.101Z" fill="white"/>
<path d="M508.368 104.407C506.92 101.853 505.137 99.5118 503.069 97.4465C500.803 95.1595 498.242 93.197 495.455 91.6132C492.492 89.9294 489.341 88.6112 486.071 87.6865C482.769 86.7259 479.353 86.2346 475.919 86.2265C468.664 86.142 461.476 87.6354 454.835 90.6065C448.612 93.3892 443.015 97.4366 438.388 102.5C433.713 107.703 430.109 113.805 427.791 120.447C422.798 135.054 422.798 150.946 427.791 165.553C430.108 172.197 433.711 178.302 438.388 183.507C443.017 188.567 448.614 192.614 454.835 195.4C461.476 198.369 468.665 199.86 475.919 199.773C479.353 199.764 482.768 199.275 486.071 198.32C489.326 197.396 492.472 196.115 495.455 194.5C498.233 192.993 500.794 191.106 503.069 188.893C505.192 186.835 506.981 184.448 508.368 181.82V197.08H542.141V88.9199H508.368V104.407ZM506.492 153.66C505.322 156.884 503.562 159.854 501.305 162.413C499.064 164.905 496.363 166.926 493.357 168.36C490.091 169.837 486.556 170.6 482.982 170.6C479.408 170.6 475.873 169.837 472.607 168.36C469.598 166.929 466.897 164.908 464.659 162.413C462.398 159.858 460.637 156.887 459.472 153.66C458.212 150.25 457.577 146.635 457.596 142.993C457.546 135.898 460.059 129.03 464.659 123.693C466.875 121.144 469.579 119.082 472.607 117.633C475.873 116.156 479.408 115.393 482.982 115.393C486.556 115.393 490.091 116.156 493.357 117.633C496.382 119.085 499.086 121.147 501.305 123.693C505.906 129.032 508.42 135.902 508.368 143C508.384 146.639 507.748 150.252 506.492 153.66Z" fill="white"/>
<path d="M690.194 171.387C688.262 171.403 686.335 171.179 684.456 170.72C682.716 170.284 681.118 169.395 679.819 168.14C678.343 166.612 677.279 164.722 676.73 162.653C675.992 160.267 675.622 157.058 675.622 153.027V114.5H699.887V88.9202H675.622V56.8335H642.072V88.9202H604.515V56.8335H570.958V88.9202H554.183V114.5H570.958V160.727C570.958 169.709 572.173 176.778 574.604 181.933C577.035 187.089 580.126 190.905 583.877 193.38C587.57 195.826 591.757 197.398 596.127 197.98C600.296 198.557 604.498 198.856 608.705 198.874C613.707 198.874 618.079 198.689 621.821 198.32C625.579 197.94 628.7 197.534 631.205 197.08V170.827C629.319 171.227 627.394 171.415 625.467 171.387H619.06C617.128 171.403 615.201 171.179 613.322 170.72C611.582 170.284 609.984 169.395 608.685 168.14C607.211 166.61 606.148 164.721 605.597 162.653C604.862 160.267 604.495 157.058 604.495 153.027V114.5H642.052V160.727C642.052 169.709 643.268 176.778 645.698 181.933C648.129 187.089 651.218 190.905 654.965 193.38C658.659 195.824 662.845 197.396 667.215 197.98C671.386 198.557 675.59 198.856 679.8 198.874C684.797 198.874 689.184 198.687 692.915 198.32C696.647 197.954 699.795 197.534 702.293 197.08V170.827C700.407 171.228 698.482 171.415 696.555 171.387H690.194Z" fill="white"/>
<path d="M752.038 40H718.265V197.08H752.038V40Z" fill="white"/>
<path d="M871.51 116.519C868.946 110.56 865.187 105.211 860.473 100.813C855.438 96.1684 849.599 92.5153 843.252 90.0392C836.554 87.3459 829.012 86.0014 820.627 86.0059C811.354 86.0059 803.224 87.5014 796.238 90.4925C789.56 93.2545 783.533 97.4212 778.551 102.719C773.749 107.912 770.064 114.065 767.731 120.786C765.273 127.922 764.053 135.438 764.124 142.999C764.031 150.831 765.301 158.617 767.875 165.999C770.245 172.752 774.009 178.912 778.912 184.066C783.983 189.296 790.131 193.319 796.914 195.846C804.049 198.615 812.253 199.999 821.525 199.999C828.511 200.095 835.469 199.11 842.163 197.079C847.858 195.342 853.228 192.652 858.053 189.119C862.371 185.933 866.045 181.932 868.874 177.333C871.553 172.958 873.318 168.07 874.061 162.973H840.95C839.741 166.453 837.554 169.496 834.661 171.726C831.64 174.121 827.187 175.317 821.302 175.313C816.887 175.313 813.208 174.677 810.265 173.406C807.512 172.276 805.056 170.509 803.091 168.246C801.226 166.035 799.869 163.43 799.117 160.619C798.287 157.574 797.805 154.443 797.681 151.286H874.297C874.841 148.399 875.174 145.476 875.294 142.539C875.364 139.993 875.401 137.599 875.405 135.359C875.41 128.872 874.084 122.455 871.51 116.519ZM797.668 131.553C797.668 124.224 799.803 118.615 804.075 114.726C808.346 110.837 813.789 108.893 820.404 108.893C826.879 108.893 832.14 110.91 836.189 114.946C840.237 118.981 842.262 124.517 842.262 131.553H797.668Z" fill="white"/>
<path d="M123.416 237.006C186.983 237.006 238.514 184.621 238.514 120C238.514 55.3788 186.983 2.99316 123.416 2.99316C59.8491 2.99316 8.31799 55.3788 8.31799 120C8.31799 184.621 59.8491 237.006 123.416 237.006Z" fill="#FF8000"/>
<path d="M214.337 126.201C215.177 102.041 209.747 88.1141 203.845 80.1541C199.011 73.6608 191.45 69.6541 176.708 69.8074L138.219 70.7008L126.415 59.7741C122.854 56.4705 118.612 54.0165 113.999 52.591C109.386 51.1655 104.518 50.8044 99.7504 51.5341C27.4886 62.6141 30.1577 144.001 30.1577 144.001C30.1577 144.001 22.1505 144.001 11.4479 148.387C19.4683 171.334 26.8394 198.554 74.8893 226.741C75.7221 222.467 86.3066 191.567 86.3066 191.567C86.3066 191.567 96.8583 159.614 121.457 171.054C142.141 180.674 164.274 180.474 173.108 179.987C179.13 179.655 184.867 177.274 189.397 173.227C195.328 167.99 200.392 161.818 204.395 154.947C204.395 154.947 149.578 143.887 123.838 116.554C148.994 138.761 214.337 126.201 214.337 126.201Z" fill="#00CE84"/>
<path d="M195.357 98.5331C197.823 97.3464 196.092 88.3464 194.931 85.8664C194.669 85.2461 194.287 84.6857 193.807 84.2187C193.328 83.7518 192.761 83.3878 192.14 83.1486C191.519 82.9093 190.857 82.7996 190.193 82.8261C189.529 82.8526 188.878 83.0147 188.277 83.3028C187.677 83.5908 187.139 83.9988 186.697 84.5026C186.255 85.0063 185.918 85.5955 185.704 86.2348C185.491 86.8741 185.407 87.5506 185.456 88.2238C185.506 88.897 185.688 89.5531 185.992 90.1531C187.153 92.6664 192.885 99.7198 195.357 98.5331Z" fill="black"/>
<path d="M119.244 78.5137C119.027 71.267 115.132 65.507 110.535 65.647C105.938 65.787 102.39 71.7737 102.6 79.0204C102.81 86.267 106.718 92.027 111.309 91.887C115.899 91.747 119.48 85.7604 119.244 78.5137Z" fill="black"/>
<path d="M114.098 78.3565C115.3 78.3199 116.225 76.6254 116.164 74.5718C116.104 72.5182 115.08 70.8832 113.878 70.9199C112.677 70.9566 111.751 72.6511 111.812 74.7047C111.873 76.7582 112.896 78.3932 114.098 78.3565Z" fill="white"/>
<path d="M123.417 0C58.3288 0 5.37366 53.8333 5.37366 120C5.37366 186.167 58.3288 240 123.417 240C188.504 240 241.459 186.167 241.459 120C241.459 53.8333 188.504 0 123.417 0ZM16.0893 153.067C22.1373 160.407 27.4411 168.35 31.9201 176.773C32.707 178.26 34.7138 178.34 34.8712 176.833C35.8614 165.859 35.2604 154.797 33.0874 144C33.0874 143.96 33.0874 143.927 33.0874 143.887C33.091 136.936 33.7387 130.001 35.022 123.173C41.7545 123.483 48.4302 124.575 54.9187 126.427C55.2249 126.521 55.5534 126.51 55.8521 126.393C56.1508 126.276 56.4026 126.061 56.5676 125.783C56.7326 125.504 56.8013 125.177 56.7627 124.854C56.7242 124.531 56.5807 124.231 56.3549 124C50.8423 118.699 44.7133 114.103 38.1042 110.313C38.8453 107.86 39.6847 105.36 40.6618 102.84C41.7832 99.9467 43.0292 97.2067 44.3539 94.56C51.6556 97.0673 58.6112 100.515 65.0507 104.82C65.2952 104.99 65.5862 105.078 65.8825 105.071C66.1789 105.064 66.4654 104.961 66.7014 104.779C66.9374 104.597 67.1108 104.344 67.1971 104.055C67.2834 103.767 67.2781 103.458 67.182 103.173C64.1132 94.5462 59.8563 86.4051 54.5384 78.9933C57.4929 75.4706 60.7884 72.2589 64.3753 69.4067C71.1992 72.5032 77.5986 76.4877 83.4129 81.26C83.6194 81.4266 83.8705 81.526 84.1334 81.5454C84.3963 81.5647 84.6589 81.5031 84.8868 81.3685C85.1148 81.2339 85.2975 81.0327 85.4113 80.7909C85.5251 80.5492 85.5645 80.2782 85.5245 80.0133C84.1605 73.2768 82.1145 66.7018 79.4191 60.3933C86.058 57.5301 93.0317 55.5471 100.168 54.4933C104.507 53.818 108.938 54.1401 113.137 55.4357C117.336 56.7313 121.196 58.9676 124.433 61.98L136.237 72.9133C136.794 73.4329 137.528 73.7125 138.283 73.6933L176.733 72.8C192.517 72.6333 198.256 77.6067 201.495 81.96C208.342 91.1533 211.771 105.54 211.463 123.667C199.81 125.58 147.707 132.887 126.21 114.667C127.523 111.209 128.041 107.492 127.725 103.8C127.618 103.022 127.213 102.318 126.6 101.841C125.986 101.363 125.212 101.15 124.445 101.247C123.678 101.344 122.98 101.744 122.5 102.36C122.021 102.976 121.799 103.759 121.882 104.54C121.935 104.993 123.043 115.64 113.134 120.973C112.792 121.157 112.489 121.408 112.242 121.711C111.996 122.013 111.81 122.363 111.696 122.738C111.582 123.114 111.542 123.509 111.579 123.901C111.615 124.292 111.727 124.672 111.907 125.02C112.088 125.368 112.335 125.676 112.633 125.926C112.931 126.177 113.274 126.366 113.644 126.481C114.013 126.597 114.402 126.638 114.787 126.601C115.172 126.564 115.546 126.451 115.888 126.267C118.721 124.774 121.206 122.68 123.174 120.127C145.74 142.7 186.504 153.84 199.666 156.96C196.168 162.118 192.06 166.82 187.435 170.96C183.397 174.551 178.292 176.664 172.935 176.96C164.581 177.42 143.471 175.44 122.387 168.18C114.281 165.393 107.389 165.393 101.297 168.18C95.204 170.967 90.1479 176.533 85.9902 184.953C85.9443 185.047 85.7737 185.407 85.5114 185.973C85.3999 186.2 85.295 186.433 85.1901 186.64C80.0395 197.877 75.7723 209.511 72.4284 221.433C59.0168 214.448 47.1203 204.798 37.443 193.055C27.7658 181.311 20.5046 167.714 16.0893 153.067ZM123.417 234C107.702 234.008 92.1628 230.639 77.819 224.113C80.8628 213.065 84.7211 202.266 89.3609 191.807C89.5249 191.4 89.7085 190.987 89.8856 190.573C90.7053 188.747 91.1971 187.66 91.2431 187.62C96.2402 177.273 104.359 168.287 120.518 173.893C142.546 181.48 164.135 183.48 173.27 182.98C179.95 182.606 186.314 179.965 191.344 175.48C197.541 170.013 202.825 163.56 206.991 156.373C207.206 155.965 207.325 155.512 207.338 155.049C207.35 154.586 207.256 154.126 207.063 153.707C207.052 153.685 207.039 153.665 207.024 153.647V153.607L204.925 149.987C203.251 147.093 202.775 143.642 203.603 140.391C204.43 137.141 206.493 134.358 209.338 132.653L215.195 129.14V129.053C215.761 128.872 216.259 128.519 216.623 128.043C216.987 127.567 217.201 126.989 217.234 126.387C217.962 105.427 214.231 89.2867 206.138 78.4267C200.144 70.22 191.029 66.6667 176.628 66.8133L139.326 67.68L128.414 57.56C124.532 53.9452 119.903 51.2619 114.866 49.7077C109.829 48.1536 104.513 47.7682 99.3093 48.58C60.6176 54.5133 43.0292 80.2733 35.1138 100.84C30.2521 113.737 27.58 127.38 27.2115 141.187C22.7064 142.031 18.2794 143.259 13.9776 144.86C12.1828 136.699 11.2767 128.362 11.2758 120C11.2758 57.1333 61.575 6 123.417 6C185.258 6 235.557 57.1333 235.557 120C235.557 182.867 185.258 234 123.417 234Z" fill="black"/>
<path d="M144.402 128.14L145.478 131.213C146.225 133.34 148.258 133.96 150.022 132.586L153.4 129.96C150.366 129.544 147.361 128.936 144.402 128.14Z" fill="white"/>
<path d="M188.519 132.553L191.352 135.52C192.199 136.392 193.351 136.891 194.557 136.907C195.764 136.923 196.928 136.456 197.798 135.606L201.143 132.273C197.352 132.46 193.083 132.56 188.519 132.553Z" fill="white"/>
<path d="M170.462 137.047L163.064 140.141C169.478 142.547 175.787 144.614 181.663 146.361L179.426 140.841C179.084 139.993 178.58 139.222 177.943 138.572C177.307 137.922 176.551 137.406 175.718 137.054C174.885 136.702 173.992 136.52 173.091 136.519C172.189 136.517 171.295 136.697 170.462 137.047Z" fill="white"/>
</g>
</svg>
