<svg width="662" height="460" viewBox="0 0 662 460" fill="none" xmlns="http://www.w3.org/2000/svg">
<path d="M276.122 50.1688C297.325 28.1031 326.794 14.375 359.425 14.375C402.837 14.375 440.644 38.5969 460.841 74.4625C478.378 66.6281 497.784 62.2437 518.125 62.2437C596.397 62.2437 659.791 126.212 659.791 205.203C659.791 284.194 596.325 348.162 518.125 348.162C508.566 348.162 499.222 347.228 490.238 345.359C472.484 376.984 438.631 398.403 399.819 398.403C383.575 398.403 368.194 394.666 354.538 387.981C336.569 430.316 294.594 460 245.791 460C196.988 460 151.563 427.8 134.888 382.663C127.628 384.172 120.081 385.034 112.319 385.034C51.7281 385.034 2.63751 335.441 2.63751 274.203C2.63751 233.163 24.7031 197.369 57.4781 178.178C50.7219 162.653 46.9844 145.475 46.9844 127.506C46.9844 57.0687 104.125 0 174.634 0C216.034 0 252.834 19.6938 276.122 50.1688Z" fill="#0D9DDA"/>
<path d="M97.8719 238.553C97.4406 239.631 98.0156 239.847 98.1594 240.062C99.3812 240.925 100.675 241.572 101.897 242.362C108.581 245.884 114.906 246.962 121.519 246.962C135.031 246.962 143.369 239.775 143.369 228.275V228.059C143.369 217.422 133.881 213.541 125.041 210.737L123.891 210.378C117.206 208.222 111.456 206.353 111.456 201.897V201.681C111.456 197.944 114.834 195.141 120.081 195.141C125.903 195.141 132.803 197.081 137.187 199.525C137.187 199.525 138.481 200.387 138.984 199.094C139.272 198.375 141.5 192.337 141.716 191.691C142.003 190.972 141.5 190.469 141.069 190.181C135.966 187.091 128.994 185.006 121.734 185.006H120.369C108.006 185.006 99.3812 192.481 99.3812 203.119V203.334C99.3812 214.619 108.869 218.212 117.781 220.8L119.219 221.231C125.687 223.244 131.294 224.969 131.294 229.497V229.712C131.294 233.881 127.628 236.972 121.806 236.972C119.506 236.972 112.247 236.972 104.412 231.941C103.478 231.366 102.903 231.006 102.184 230.575C101.825 230.359 100.819 229.928 100.387 231.15L97.7281 238.553H97.8719Z" fill="white"/>
<path d="M295.169 238.553C294.737 239.631 295.312 239.847 295.456 240.062C296.678 240.925 297.972 241.572 299.194 242.362C305.878 245.884 312.203 246.962 318.816 246.962C332.328 246.962 340.666 239.775 340.666 228.275V228.059C340.666 217.422 331.25 213.541 322.337 210.737L321.187 210.378C314.503 208.222 308.753 206.353 308.753 201.897V201.681C308.753 197.944 312.131 195.141 317.378 195.141C323.2 195.141 330.1 197.081 334.484 199.525C334.484 199.525 335.778 200.387 336.281 199.094C336.569 198.375 338.797 192.337 339.013 191.691C339.3 190.972 338.797 190.469 338.366 190.181C333.263 187.091 326.291 185.006 319.031 185.006H317.666C305.303 185.006 296.678 192.481 296.678 203.119V203.334C296.678 214.619 306.166 218.212 315.078 220.8L316.516 221.231C322.984 223.244 328.591 224.969 328.591 229.497V229.712C328.591 233.881 324.925 236.972 319.103 236.972C316.803 236.972 309.544 236.972 301.709 231.941C300.775 231.366 300.2 231.006 299.481 230.575C299.266 230.431 298.116 230 297.684 231.15L295.025 238.553H295.169Z" fill="white"/>
<path d="M441.147 203.838C440.069 200.1 438.344 196.794 436.044 194.062C433.744 191.331 430.869 189.103 427.419 187.522C423.969 185.941 419.944 185.078 415.344 185.078C410.744 185.078 406.719 185.869 403.269 187.522C399.819 189.103 396.944 191.331 394.644 194.062C392.344 196.794 390.619 200.1 389.541 203.838C388.463 207.575 387.888 211.6 387.888 215.913C387.888 220.225 388.463 224.322 389.541 227.987C390.619 231.725 392.344 235.031 394.644 237.763C396.944 240.494 399.891 242.722 403.269 244.303C406.719 245.884 410.744 246.675 415.344 246.675C419.944 246.675 423.969 245.884 427.419 244.303C430.869 242.722 433.744 240.566 436.044 237.763C438.344 235.031 440.069 231.725 441.147 227.987C442.225 224.25 442.8 220.225 442.8 215.913C442.8 211.6 442.225 207.503 441.147 203.838ZM429.863 215.913C429.863 222.453 428.641 227.556 426.269 231.222C423.897 234.816 420.303 236.541 415.344 236.541C410.384 236.541 406.791 234.816 404.419 231.222C402.047 227.556 400.825 222.453 400.825 215.913C400.825 209.372 402.047 204.269 404.347 200.675C406.719 197.081 410.241 195.356 415.272 195.356C420.303 195.356 423.825 197.081 426.197 200.675C428.569 204.269 429.791 209.372 429.791 215.913" fill="white"/>
<path fill-rule="evenodd" clip-rule="evenodd" d="M533.578 234.816C533.219 233.738 532.141 234.169 532.141 234.169C530.487 234.816 528.762 235.391 526.894 235.678C525.025 235.966 522.941 236.109 520.712 236.109C515.25 236.109 510.937 234.456 507.847 231.294C504.756 228.059 502.959 222.884 503.031 215.913C503.031 209.516 504.612 204.772 507.344 201.106C510.075 197.441 514.244 195.644 519.85 195.644C524.522 195.644 528.044 196.147 531.781 197.369C531.781 197.369 532.644 197.728 533.075 196.578C534.081 193.847 534.8 191.906 535.878 188.888C536.166 188.025 535.447 187.666 535.159 187.594C533.722 187.019 530.272 186.084 527.684 185.725C525.241 185.366 522.438 185.15 519.275 185.15C514.531 185.15 510.362 185.941 506.697 187.594C503.103 189.175 500.084 191.403 497.641 194.134C495.197 196.866 493.4 200.172 492.178 203.909C490.956 207.647 490.309 211.672 490.309 216.056C490.309 225.4 492.825 232.947 497.784 238.481C502.744 244.016 510.219 246.819 519.994 246.819C525.744 246.819 531.637 245.669 535.95 243.944C535.95 243.944 536.741 243.584 536.381 242.578L533.65 234.959L533.578 234.816Z" fill="white"/>
<path fill-rule="evenodd" clip-rule="evenodd" d="M591.15 201.753C590.216 198.159 587.844 194.494 586.263 192.841C583.819 190.181 581.447 188.384 579.003 187.306C575.913 185.941 572.175 185.078 568.078 185.078C563.334 185.078 559.022 185.869 555.5 187.522C551.978 189.175 549.031 191.403 546.731 194.206C544.431 197.009 542.706 200.316 541.556 204.125C540.478 207.862 539.903 211.959 539.903 216.272C539.903 220.584 540.478 224.753 541.628 228.419C542.778 232.156 544.647 235.391 547.163 238.122C549.678 240.853 552.913 243.009 556.722 244.447C560.531 245.956 565.203 246.675 570.522 246.675C581.519 246.675 587.341 244.159 589.713 242.866C590.144 242.65 590.503 242.219 590.072 241.069L587.556 234.097C587.197 233.091 586.119 233.45 586.119 233.45C583.388 234.456 579.506 236.253 570.45 236.253C564.556 236.253 560.172 234.528 557.441 231.797C554.638 228.994 553.272 224.897 552.984 219.147H591.078C591.078 219.147 592.084 219.147 592.156 218.213C592.156 217.781 593.45 210.378 591.006 201.825L591.15 201.753ZM553.272 209.731C553.775 206.138 554.781 203.119 556.363 200.747C558.663 197.153 562.256 195.212 567.287 195.212C572.319 195.212 575.553 197.153 577.925 200.747C579.506 203.119 580.153 206.209 580.441 209.731H553.272Z" fill="white"/>
<path fill-rule="evenodd" clip-rule="evenodd" d="M286.113 201.753C285.178 198.159 282.806 194.494 281.225 192.841C278.781 190.181 276.409 188.384 273.966 187.306C270.875 185.941 267.137 185.078 263.041 185.078C258.297 185.078 253.984 185.869 250.462 187.522C246.941 189.175 243.994 191.403 241.694 194.206C239.394 197.009 237.669 200.316 236.519 204.125C235.441 207.862 234.866 211.959 234.866 216.272C234.866 220.584 235.441 224.753 236.591 228.419C237.741 232.156 239.609 235.391 242.125 238.122C244.641 240.853 247.875 243.009 251.684 244.447C255.494 245.956 260.166 246.675 265.484 246.675C276.481 246.675 282.303 244.159 284.675 242.866C285.106 242.65 285.466 242.219 284.963 241.069L282.447 234.097C282.087 233.091 281.009 233.45 281.009 233.45C278.278 234.456 274.397 236.253 265.341 236.253C259.447 236.253 255.063 234.528 252.331 231.797C249.528 228.994 248.163 224.897 247.875 219.147H285.969C285.969 219.147 286.975 219.147 287.047 218.213C287.047 217.781 288.341 210.378 285.897 201.825L286.113 201.753ZM248.234 209.731C248.738 206.138 249.744 203.119 251.325 200.747C253.697 197.153 257.219 195.212 262.25 195.212C267.281 195.212 270.516 197.153 272.959 200.747C274.541 203.119 275.188 206.209 275.475 209.731H248.306H248.234Z" fill="white"/>
<path d="M181.031 207.863C179.45 207.719 177.509 207.719 175.066 207.719C171.831 207.719 168.669 208.15 165.65 208.941C162.703 209.731 159.972 210.953 157.672 212.606C155.372 214.259 153.503 216.344 152.138 218.859C150.772 221.375 150.125 224.322 150.125 227.628C150.125 230.934 150.7 233.953 151.85 236.325C153 238.697 154.653 240.709 156.809 242.291C158.894 243.8 161.553 244.95 164.572 245.669C167.591 246.316 170.969 246.675 174.634 246.675C178.516 246.675 182.469 246.316 186.206 245.741C189.944 245.094 194.544 244.159 195.766 243.872C197.059 243.584 198.425 243.225 198.425 243.225C199.359 243.009 199.288 242.003 199.288 242.003V207.144C199.288 199.525 197.203 193.847 193.178 190.325C189.153 186.803 183.331 185.078 175.713 185.078C172.838 185.078 168.238 185.437 165.506 186.012C165.506 186.012 157.169 187.594 153.791 190.325C153.791 190.325 153.072 190.756 153.431 191.834L156.163 199.094C156.522 200.028 157.384 199.741 157.384 199.741C157.384 199.741 157.672 199.597 158.031 199.453C165.363 195.5 174.634 195.572 174.634 195.572C178.731 195.572 181.894 196.434 184.05 198.016C186.134 199.597 187.212 202.041 187.212 207.072V208.653C183.978 208.15 180.959 207.934 180.959 207.934L181.031 207.863ZM165.866 234.6C164.356 233.378 164.141 233.091 163.638 232.372C162.919 231.222 162.488 229.569 162.488 227.412C162.488 224.034 163.566 221.663 165.866 220.009C165.866 220.009 169.172 217.134 176.934 217.278C182.397 217.278 187.284 218.141 187.284 218.141V235.462C187.284 235.462 182.469 236.469 177.006 236.828C169.244 237.259 165.794 234.6 165.866 234.6Z" fill="white"/>
<path fill-rule="evenodd" clip-rule="evenodd" d="M488.225 188.241C488.512 187.378 487.938 186.947 487.65 186.875C487.003 186.659 483.769 185.941 481.253 185.797C476.438 185.509 473.778 186.3 471.406 187.378C469.034 188.456 466.447 190.181 464.938 192.122V187.45C464.938 186.803 464.506 186.3 463.859 186.3H454.084C453.438 186.3 453.006 186.803 453.006 187.45V244.303C453.006 244.95 453.509 245.453 454.156 245.453H464.147C464.794 245.453 465.297 244.95 465.297 244.303V215.912C465.297 212.103 465.728 208.294 466.591 205.922C467.381 203.55 468.531 201.681 469.897 200.316C471.263 198.95 472.844 198.016 474.569 197.512C476.366 196.937 478.306 196.794 479.672 196.794C481.684 196.794 483.841 197.297 483.841 197.297C484.559 197.369 484.991 196.937 485.206 196.291C485.853 194.566 487.722 189.319 488.081 188.312L488.225 188.241Z" fill="white"/>
<path fill-rule="evenodd" clip-rule="evenodd" d="M394.284 161.934C393.063 161.575 391.984 161.287 390.547 161.072C389.109 160.784 387.312 160.641 385.372 160.641C378.472 160.641 373.081 162.581 369.272 166.462C365.463 170.272 362.875 176.094 361.653 183.712L361.222 186.3H352.597C352.597 186.3 351.519 186.3 351.303 187.378L349.866 195.284C349.794 196.075 350.081 196.506 351.087 196.506H359.497L350.944 244.159C350.297 247.969 349.506 251.131 348.644 253.575C347.781 255.947 346.991 257.672 345.984 258.966C344.978 260.187 344.116 261.122 342.534 261.625C341.241 262.056 339.731 262.272 338.078 262.272C337.144 262.272 335.922 262.128 334.988 261.912C334.053 261.769 333.622 261.553 332.903 261.266C332.903 261.266 331.897 260.906 331.538 261.912C331.25 262.703 328.95 268.884 328.734 269.675C328.447 270.394 328.878 271.041 329.309 271.184C330.459 271.616 331.25 271.831 332.759 272.191C334.844 272.694 336.641 272.694 338.366 272.694C341.888 272.694 345.05 272.191 347.709 271.256C350.369 270.322 352.669 268.597 354.753 266.369C356.981 263.925 358.347 261.337 359.712 257.816C361.006 254.366 362.156 250.053 363.091 245.022L371.644 196.434H384.222C384.222 196.434 385.3 196.434 385.516 195.356L386.953 187.45C387.025 186.659 386.738 186.228 385.731 186.228H373.584C373.584 186.228 374.231 181.7 375.597 177.603C376.172 175.878 377.322 174.512 378.256 173.506C379.191 172.572 380.269 171.925 381.419 171.494C382.641 171.134 384.006 170.919 385.516 170.919C386.666 170.919 387.816 171.062 388.678 171.206C389.828 171.422 390.331 171.566 390.619 171.709C391.841 172.069 392.056 171.709 392.272 171.134L395.219 163.156C395.506 162.294 394.787 161.934 394.5 161.863L394.284 161.934Z" fill="white"/>
<path fill-rule="evenodd" clip-rule="evenodd" d="M224.156 244.303C224.156 244.95 223.725 245.453 223.078 245.453H212.944C212.297 245.453 211.866 244.95 211.866 244.303V163.012C211.866 162.366 212.297 161.862 212.944 161.862H223.078C223.725 161.862 224.156 162.366 224.156 163.012V244.303Z" fill="white"/>
</svg>
