<svg xmlns="http://www.w3.org/2000/svg" width="135" height="28" viewBox="0 0 135 28" fill="none">
  <g clip-path="url(#clip0_3022_11779)">
    <mask id="mask0_3022_11779" style="mask-type:luminance" maskUnits="userSpaceOnUse" x="0" y="0" width="135" height="28">
      <path d="M134.388 0H0.656738V27.7944H134.388V0Z" fill="white"/>
    </mask>
    <g mask="url(#mask0_3022_11779)">
      <path d="M0.779785 13.8911C0.779785 3.54574 4.14878 0.0973358 14.256 0.0973358C24.3631 0.0973358 27.7321 3.54574 27.7321 13.8911C27.7321 24.2365 24.3631 27.6849 14.256 27.6849C4.14878 27.6849 0.779785 24.2365 0.779785 13.8911Z" fill="#FFC158"/>
      <path fill-rule="evenodd" clip-rule="evenodd" d="M14.413 6.95762L9.13808 15.2144C8.97075 15.4763 9.15434 15.8238 9.46008 15.8238H12.177H13.578H14.296L13.4002 20.8294C13.3245 21.2522 13.8708 21.4756 14.1006 21.1159L19.3755 12.8591C19.5429 12.5972 19.3593 12.2498 19.0535 12.2498H15.7996H14.9356H14.2176L15.1134 7.2441C15.1891 6.82138 14.6428 6.59793 14.413 6.95762Z" fill="black"/>
      <path d="M43.9467 6.41171C36.4823 6.41171 34.6162 8.05711 34.0421 11.3185C33.4964 14.5799 34.8746 15.9315 41.248 15.9315C44.9802 15.9315 46.0425 15.9315 45.8704 16.8717C45.6982 17.8413 44.6358 17.8413 41.9658 17.8413C39.2959 17.8413 38.2335 17.8413 38.4345 16.7541H32.8649C32.2047 20.5738 33.8697 21.6608 41.3342 21.6608C48.7987 21.6608 50.8368 20.5738 51.4971 16.7541C52.0713 13.4927 50.4352 12.1118 44.0328 12.1118C40.3006 12.1118 39.2385 12.0824 39.4106 11.1716C39.583 10.202 40.6451 10.202 43.3153 10.202C45.4395 10.202 47.0476 10.202 46.8462 11.2891H52.1578C52.7316 7.93955 51.411 6.41171 43.9467 6.41171Z" fill="white"/>
      <path d="M68.5509 6.94124L67.3227 14.0223C66.8546 16.7547 64.7488 17.8419 62.5844 17.8419C60.42 17.8419 58.6949 16.7547 59.1918 14.0223L60.42 6.94124H54.454L53.1965 14.0223C52.2311 19.4579 55.0975 21.6616 59.9817 21.6616C63.7838 21.6616 66.2403 20.0162 66.2403 20.0162L66.5913 21.1033H72.002L74.4877 6.94124H68.5509Z" fill="white"/>
      <path d="M87.9373 6.41168C84.1351 6.41168 82.2341 8.05704 82.2341 8.05704L82.4388 6.96993H76.4723L72.8457 27.6842H78.8122L80.1575 20.0449C80.1575 20.0449 81.5027 21.6902 85.3049 21.6902C90.189 21.6902 94.2544 20.0449 95.3076 14.051C96.331 8.0277 92.8214 6.41168 87.9373 6.41168ZM89.3118 14.0216C88.8437 16.7541 86.7379 17.8413 84.5739 17.8413C82.4096 17.8413 80.684 16.7541 81.1809 14.0216C81.649 11.2891 83.7548 10.202 85.9192 10.202C88.0836 10.202 89.7799 11.2891 89.3118 14.0216Z" fill="white"/>
      <path d="M107.725 6.41171C101.232 6.41171 97.3421 8.46846 96.3767 13.9041C95.4117 19.3398 98.5703 21.6608 105.063 21.6608C109.625 21.6608 112.111 20.8383 114.451 18.7227L110.971 16.4602C110.21 16.9305 109.391 17.8413 105.736 17.8413C103.279 17.8413 102.168 16.9011 102.226 14.9912H116.206C116.293 14.6387 116.381 14.2861 116.44 13.9041C117.376 8.43904 114.217 6.41171 107.725 6.41171ZM102.811 12.2587C103.513 10.7309 104.595 10.202 107.052 10.202C109.479 10.202 110.415 10.7014 110.561 12.2587H102.811Z" fill="white"/>
      <path d="M124.848 8.02773L125.052 6.94058H119.086L116.6 21.1027H122.566C122.566 21.1027 122.946 18.9283 123.619 15.1088C124.292 11.2891 127.099 10.7602 129.264 10.7602C131.399 10.7602 132.101 10.9953 133.505 11.3185L134.265 6.96996C133.505 6.73492 131.691 6.41171 130.024 6.41171C126.222 6.41171 124.848 8.02773 124.848 8.02773Z" fill="white"/>
    </g>
  </g>
  <defs>
    <clipPath id="clip0_3022_11779">
      <rect width="133.731" height="28" fill="white" transform="translate(0.656738)"/>
    </clipPath>
  </defs>
</svg>