<svg width="762" height="200" viewBox="0 0 762 200" fill="none" xmlns="http://www.w3.org/2000/svg">
<path d="M86.9212 199.165C78.3482 197.895 69.537 195.275 61.9165 191.624C57.7887 189.639 54.2166 187.734 53.9785 187.496C53.7403 187.178 51.6765 185.511 49.3744 183.765C46.993 182.019 43.4209 178.288 41.2777 175.509C37.7849 170.826 31.9902 160.268 31.3552 157.252C31.1964 156.538 30.6407 154.712 30.1644 153.204C27.3861 144.472 26.8305 137.407 26.6717 109.862L26.5923 86.1274L13.3359 85.8893L0 85.7305V61.5196V37.3087H13.0977C20.3213 37.3087 26.2748 37.0705 26.2748 36.753C26.3542 36.3561 26.4336 28.1006 26.513 18.2574L26.6717 0.396901L55.0104 0.15877L83.3491 0V18.6543V37.3087H109.148H134.946V61.5196V85.7305H109.068H83.2697L83.5873 109.386C83.746 122.325 84.0636 133.756 84.3017 134.708C85.6512 139.392 91.6047 146.853 93.9861 146.853C94.7005 146.853 95.2561 147.171 95.2561 147.568C95.2561 148.838 105.099 150.187 111.212 149.711C117.562 149.235 120.102 148.838 125.024 147.488C126.77 147.091 128.199 146.774 128.199 146.853C128.199 147.012 129.707 146.298 131.612 145.345L134.946 143.678V168.683C134.946 191.862 134.867 193.767 133.597 194.164C132.803 194.402 130.898 195.116 129.39 195.751C127.881 196.386 125.897 197.021 125.024 197.101C124.151 197.26 122.563 197.656 121.452 197.895C116.848 199.085 113.355 199.403 102.797 199.562C96.685 199.72 89.5408 199.482 86.9212 199.165Z" fill="#8539FF"/>
<path d="M220.677 199.562C205.674 197.18 199.482 195.434 190.433 190.909C187.178 189.242 184.4 187.655 184.162 187.337C183.924 187.02 182.892 186.305 181.939 185.829C177.256 183.368 169 175.113 164.555 168.603C156.22 156.3 151.378 143.122 149.552 127.405C149.314 125.024 148.917 41.6746 149.235 37.9437C149.235 37.5468 161.856 37.3087 177.335 37.3087H205.436L205.356 73.5854C205.356 110.735 205.833 121.769 207.579 124.627C207.817 125.024 208.214 126.135 208.373 127.088C209.087 130.739 213.215 136.375 218.057 140.503C222.582 144.234 232.901 145.424 240.204 143.043C243.618 141.932 251.635 134.787 251.635 132.882C251.635 132.327 251.873 131.771 252.27 131.612C253.064 131.295 255.445 124.151 256.398 119.07C256.953 116.451 257.271 100.813 257.271 80.0946C257.271 61.1227 257.43 43.6591 257.747 41.4365L258.224 37.3087H286.324H314.425L314.107 81.9997C313.948 106.528 313.551 127.881 313.234 129.39C311.488 138.598 309.979 144.393 308.312 149.393C306.328 155.029 302.994 162.174 301.565 163.841C301.089 164.317 299.66 166.54 298.231 168.762C295.215 173.446 288.547 180.431 283.069 184.559C279.021 187.575 263.542 195.672 263.542 194.799C263.542 194.561 262.589 194.878 261.478 195.672C260.367 196.386 259.255 196.783 259.017 196.625C258.859 196.386 257.509 196.545 256.16 196.942C252.984 197.974 250.444 198.45 246.872 198.927C243.776 199.324 222.502 199.879 220.677 199.562Z" fill="#8539FF"/>
<path d="M592.89 199.72C592.731 199.562 590.985 199.244 589 199.006C587.016 198.768 584.396 198.371 583.047 198.053C578.76 197.101 565.583 192.576 565.345 191.941C565.186 191.544 564.393 191.306 563.519 191.306C562.726 191.306 562.011 190.989 562.011 190.512C562.011 190.115 561.535 189.719 560.9 189.719C559.868 189.719 550.263 183.844 549.31 182.574C549.072 182.336 547.247 180.828 545.183 179.32C540.976 176.144 535.498 170.032 531.053 163.523C527.957 158.998 520.416 144.472 521.13 144.472C521.369 144.472 521.051 143.44 520.337 142.09C519.622 140.82 519.305 139.709 519.464 139.709C519.702 139.709 519.464 138.518 519.067 137.169C515.177 124.468 515.971 104.147 520.734 90.8902C521.686 88.2707 522.639 85.3336 522.877 84.3811C523.115 83.3491 523.591 82.5553 523.988 82.5553C524.385 82.5553 524.703 81.8409 524.703 80.9677C524.703 80.0945 525.099 79.3801 525.496 79.3801C525.973 79.3801 526.29 78.8245 526.29 78.1894C526.29 76.9987 528.672 73.1885 530.894 70.8071C531.371 70.2514 531.847 69.4576 531.847 69.0607C531.847 67.7112 546.691 53.1053 550.501 50.7239C560.265 44.4529 564.313 42.5477 574.712 38.8963C577.332 37.9437 582.412 36.6736 585.825 36.118C587.334 35.8798 589.715 35.4829 590.985 35.2448C596.303 34.2922 611.941 34.7685 619.244 36.118C623.69 36.9911 632.025 39.3725 634.882 40.5633C643.614 44.4529 645.599 45.4054 646.392 46.1199C646.948 46.5168 649.171 48.025 651.314 49.4538C665.999 58.8207 680.446 78.0307 684.654 93.6685C688.226 106.925 688.464 108.671 688.543 121.61C688.702 131.93 688.543 132.485 687.035 132.882C686.162 133.12 658.934 133.359 626.468 133.359C594.081 133.359 567.568 133.438 567.488 133.517C566.695 135.581 573.521 147.647 575.427 147.647C575.744 147.647 576.855 148.361 577.808 149.155C579.713 150.822 588.048 153.601 593.208 154.394C597.018 154.95 607.258 154.95 611.862 154.394C619.879 153.521 626.389 150.028 630.358 144.551L632.818 141.297H659.411C684.415 141.297 686.003 141.376 685.447 142.725C685.13 143.44 684.336 145.504 683.701 147.25C682.193 151.457 677.192 161.142 675.842 162.57C675.207 163.126 674.731 163.92 674.731 164.317C674.731 164.714 674.255 165.508 673.699 166.063C673.143 166.619 671.318 168.842 669.73 170.905C668.142 173.049 664.729 176.383 662.268 178.447C659.728 180.431 657.506 182.336 657.267 182.654C656.474 183.765 641.788 192.179 639.804 192.656C638.692 192.894 636.47 193.767 634.882 194.64C633.215 195.434 631.866 195.91 631.866 195.672C631.866 195.434 631.231 195.593 630.516 195.99C629.723 196.386 628.056 196.863 626.706 197.101C621.467 198.053 619.482 198.53 618.371 198.927C616.942 199.482 593.446 200.197 592.89 199.72ZM634.882 99.0664C635.12 97.8757 630.119 90.6521 628.373 89.5408C627.897 89.3026 626.627 88.2707 625.595 87.3975C624.563 86.445 623.213 85.7305 622.658 85.7305C622.102 85.7305 621.308 85.2543 620.991 84.6986C620.673 84.1429 617.895 82.8729 614.799 81.8409C608.766 79.8564 596.7 79.3801 591.62 80.8883C590.191 81.2852 589 81.5234 589 81.2852C589 81.1265 586.54 82.1584 583.523 83.6666C575.426 87.7944 569.155 94.7005 569.155 99.4633C569.155 100.178 577.173 100.416 601.939 100.336C630.596 100.257 634.644 100.098 634.882 99.0664Z" fill="#8539FF"/>
<path d="M330.459 150.267C330.618 125.421 331.015 104.305 331.253 103.194C331.571 102.083 332.047 99.9395 332.285 98.4313C333 94.2242 335.778 84.9367 337.366 81.3646C338.159 79.6182 339.271 76.9987 339.826 75.6492C340.461 74.2204 341.176 73.0297 341.414 73.0297C341.731 73.0297 342.366 71.9977 342.922 70.6483C343.478 69.3782 344.192 68.2669 344.51 68.2669C344.827 68.2669 345.542 67.3143 346.018 66.1236C347.129 63.4247 357.846 52.7877 362.767 49.4538C366.816 46.6755 379.437 40.2457 379.437 40.8807C379.437 41.1189 380.151 40.9601 381.104 40.4838C381.977 40.0075 383.485 39.3725 384.438 39.1344C385.391 38.9756 387.454 38.4993 388.963 38.1024C390.471 37.7055 392.614 37.2292 393.725 36.9911C404.442 34.4509 426.351 34.6097 438.813 37.3086C443.259 38.2612 455.086 42.2302 455.642 42.9446C455.88 43.1828 456.991 43.659 458.182 43.8972C459.373 44.2147 460.802 44.9291 461.357 45.4848C461.913 46.0404 464.215 47.4693 466.358 48.7394C471.359 51.597 481.917 61.8371 485.489 67.2349C489.617 73.7441 494.3 83.4285 495.65 88.5088C495.729 88.9851 496.046 90.017 496.364 90.8902C496.602 91.7634 497.078 93.4304 497.316 94.7004C498.19 99.4632 498.507 100.892 499.063 103.035C499.301 104.226 499.698 125.421 499.857 150.267L500.174 195.275H471.994H443.735L443.656 159.395C443.656 117.879 443.417 113.434 441.274 109.386C440.877 108.592 440.718 107.957 440.957 107.957C441.671 107.957 438.099 101.368 435.876 98.6694C433.019 95.1767 428.256 92.0809 423.493 90.7314C417.857 89.0645 408.014 89.6995 402.933 92.1603C394.043 96.3674 388.169 106.528 386.978 119.864C386.899 120.975 386.74 138.36 386.74 158.601L386.581 195.275H358.322H330.142L330.459 150.267Z" fill="#8539FF"/>
<path d="M718.787 198.927C713.151 197.18 708.706 194.402 704.419 190.195C691.242 176.938 691.321 155.664 704.578 142.567C720.057 127.326 745.221 130.501 757.207 149.155C762.764 157.728 763.478 170.588 758.953 180.51C756.254 186.464 749.904 193.37 744.744 195.99C737.282 199.8 725.693 201.149 718.787 198.927Z" fill="#ED7338"/>
</svg>
