<svg width="1330" height="240" viewBox="0 0 1330 240" fill="none" xmlns="http://www.w3.org/2000/svg">
<g clip-path="url(#clip0_4215_2923)">
<mask id="mask0_4215_2923" style="mask-type:luminance" maskUnits="userSpaceOnUse" x="0" y="60" width="1330" height="120">
<path d="M1329.23 60.6169H0V179.383H1329.23V60.6169Z" fill="white"/>
</mask>
<g mask="url(#mask0_4215_2923)">
<path d="M98.9716 177.317L78.8459 98.4712L58.8727 177.317H32.88L0 62.5048H27.3703L47.4964 145.483L69.3567 62.5048H88.4625L110.17 145.483L130.117 62.5048H157.666L124.965 177.317H98.9716Z" fill="white"/>
<path d="M147.871 135.663C147.871 111.558 165.599 92.1201 190.903 92.1201C216.207 92.1201 232.558 110.716 232.558 137.907V142.728H170.778C172.155 153.238 180.598 162.013 194.704 162.013C201.77 162.013 211.565 158.926 216.896 153.748L226.539 167.854C218.274 175.43 205.188 179.384 192.281 179.384C166.977 179.384 147.871 162.344 147.871 135.663ZM190.903 109.491C177.308 109.491 171.441 119.643 170.42 127.908H211.386C210.877 120.001 205.366 109.491 190.903 109.491Z" fill="white"/>
<path d="M243.222 177.317V62.5048H265.082V104.848C271.612 96.4049 280.923 92.1197 290.718 92.1197C311.89 92.1197 327.552 108.649 327.552 135.841C327.552 163.032 311.711 179.383 290.718 179.383C280.744 179.383 271.612 174.919 265.082 166.654V177.317H243.222ZM283.831 159.946C296.56 159.946 305.003 150.304 305.003 135.841C305.003 121.377 296.56 111.583 283.831 111.583C276.765 111.583 268.679 115.715 265.082 121.225V150.661C268.704 155.992 276.791 159.946 283.831 159.946Z" fill="white"/>
<path d="M331.683 166.477L341.147 151.146C347.167 156.834 359.564 162.497 369.895 162.497C379.359 162.497 383.849 158.722 383.849 153.544C383.849 139.77 334.438 150.968 334.438 118.266C334.438 104.313 346.657 92.095 368.517 92.095C382.623 92.095 393.822 96.916 402.085 103.446L393.312 118.419C388.313 113.088 378.849 108.777 368.696 108.777C360.788 108.777 355.61 112.399 355.61 117.042C355.61 129.439 404.839 119.108 404.839 152.677C404.839 167.829 391.935 179.358 368.874 179.358C354.411 179.358 340.484 174.537 331.683 166.451" fill="white"/>
<path d="M423.615 156.656V113.292H409.839V94.1866H423.615V71.459H445.654V94.1866H462.513V113.292H445.654V150.815C445.654 155.967 448.409 159.947 453.227 159.947C456.495 159.947 459.607 158.748 460.804 157.523L465.449 174.053C462.181 176.986 456.314 179.384 447.209 179.384C431.878 179.384 423.641 171.477 423.641 156.656" fill="white"/>
<path d="M525.67 177.319V168.723C519.984 175.431 510.188 179.385 499.348 179.385C486.085 179.385 470.422 170.431 470.422 151.836C470.422 133.241 486.085 124.976 499.348 124.976C510.366 124.976 520.187 128.598 525.67 135.128V123.93C525.67 115.487 518.452 109.977 507.434 109.977C498.48 109.977 490.217 113.242 483.175 119.798L474.912 105.156C485.062 96.2026 498.148 92.0702 511.233 92.0702C530.16 92.0702 547.558 99.6461 547.558 123.573V177.268H525.696L525.67 177.319ZM525.67 157.346V147.015C522.048 142.194 515.162 139.796 508.121 139.796C499.525 139.796 492.462 144.26 492.462 152.371C492.462 160.483 499.525 164.59 508.121 164.59C515.188 164.59 522.074 162.167 525.67 157.371" fill="white"/>
<path d="M616.737 177.317V166.808C611.047 173.185 601.074 179.383 587.479 179.383C569.239 179.383 560.618 169.41 560.618 153.212V94.1859H582.48V144.616C582.48 156.145 588.498 159.946 597.81 159.946C606.251 159.946 612.96 155.304 616.737 150.483V94.1859H638.596V177.317H616.737Z" fill="white"/>
<path d="M655.126 177.318V94.1863H676.984V105.538C682.829 98.1401 693.157 92.1201 703.488 92.1201V113.471C701.933 113.113 699.866 112.96 697.469 112.96C690.251 112.96 680.607 117.093 676.984 122.424V177.343H655.126V177.318Z" fill="white"/>
<path d="M761.826 177.319V168.723C756.14 175.431 746.345 179.385 735.504 179.385C722.238 179.385 706.575 170.431 706.575 151.836C706.575 133.241 722.238 124.976 735.504 124.976C746.522 124.976 756.317 128.598 761.826 135.128V123.93C761.826 115.487 754.608 109.977 743.59 109.977C734.636 109.977 726.369 113.242 719.332 119.798L711.065 105.156C721.218 96.2026 734.304 92.0702 747.389 92.0702C766.316 92.0702 783.714 99.6461 783.714 123.573V177.268H761.852L761.826 177.319ZM761.826 157.346V147.015C758.204 142.194 751.318 139.796 744.277 139.796C735.681 139.796 728.614 144.26 728.614 152.371C728.614 160.483 735.681 164.59 744.277 164.59C751.344 164.59 758.23 162.167 761.826 157.371" fill="white"/>
<path d="M856.335 177.318V127.066C856.335 115.537 850.316 111.583 841.004 111.583C832.409 111.583 825.7 116.404 822.077 121.403V177.343H800.215V94.1863H822.077V105.027C827.409 98.6503 837.559 92.1201 851.158 92.1201C869.394 92.1201 878.171 102.451 878.171 118.623V177.318H856.309H856.335Z" fill="white"/>
<path d="M902.455 156.656V113.292H888.679V94.1866H902.455V71.459H924.495V94.1866H941.354V113.292H924.495V150.815C924.495 155.967 927.249 159.947 932.068 159.947C935.335 159.947 938.444 158.748 939.644 157.523L944.289 174.053C941.022 176.986 935.154 179.384 926.049 179.384C910.719 179.384 902.481 171.477 902.481 156.656" fill="white"/>
<path d="M951.685 161.145L958.062 153.748C965.461 162.344 977.498 170.456 993.877 170.456C1017.44 170.456 1024.18 157.37 1024.18 147.549C1024.18 113.828 955.333 131.377 955.333 91.2528C955.333 72.4785 972.192 60.6173 993.035 60.6173C1010.25 60.6173 1022.98 66.6372 1031.93 76.7896L1025.41 84.0084C1017.14 74.0348 1005.43 69.5453 992.525 69.5453C977.195 69.5453 965.664 78.3201 965.664 90.717C965.664 120.154 1034.51 103.981 1034.51 146.835C1034.51 161.63 1024.69 179.358 993.722 179.358C974.795 179.358 960.509 171.782 951.737 161.12" fill="white"/>
<path d="M1054.46 161.299V102.094H1040.68V94.1866H1054.46V71.459H1063.59V94.1866H1080.45V102.094H1063.59V159.921C1063.59 166.63 1066.34 171.272 1072.18 171.272C1076.14 171.272 1079.58 169.385 1081.5 167.319L1084.94 174.206C1081.67 177.318 1077.69 179.359 1070.83 179.359C1059.81 179.359 1054.48 172.65 1054.48 161.273" fill="white"/>
<path d="M1086.65 135.663C1086.65 111.404 1102.31 92.1201 1126.57 92.1201C1150.83 92.1201 1166.67 111.404 1166.67 135.663C1166.67 159.921 1151.18 179.384 1126.57 179.384C1101.95 179.384 1086.65 159.921 1086.65 135.663ZM1157.05 135.663C1157.05 117.246 1146.21 100.206 1126.59 100.206C1106.98 100.206 1096.29 117.246 1096.29 135.663C1096.29 154.08 1107.31 171.298 1126.59 171.298C1145.88 171.298 1157.05 154.258 1157.05 135.663Z" fill="white"/>
<path d="M1177.69 177.316V94.1856H1186.64V108.47C1193.7 99.185 1203.17 92.4509 1214.7 92.4509V102.271C1213.14 101.94 1211.94 101.94 1210.24 101.94C1201.79 101.94 1190.44 109.516 1186.64 116.735V177.316H1177.69Z" fill="white"/>
<path d="M1215.39 135.663C1215.39 111.558 1232.43 92.1201 1255.49 92.1201C1280.79 92.1201 1294.74 112.246 1294.74 136.173V138.596H1225.21C1226.08 156.681 1238.12 171.655 1257.73 171.655C1268.24 171.655 1277.86 167.701 1284.92 160.125L1289.57 165.966C1281.3 174.563 1270.82 179.384 1257.04 179.384C1232.79 179.384 1215.39 161.298 1215.39 135.663ZM1255.34 99.8747C1235.72 99.8747 1225.9 117.093 1225.21 131.556H1285.61C1285.44 117.45 1276.15 99.8747 1255.31 99.8747" fill="white"/>
<path d="M1329.23 103.217C1329.23 110.768 1323.32 116.685 1315.61 116.685C1307.91 116.685 1301.91 110.768 1301.91 103.217C1301.91 95.6669 1307.99 89.9272 1315.61 89.9272C1323.24 89.9272 1329.23 95.8453 1329.23 103.217ZM1305.3 103.217C1305.3 109.135 1309.69 113.829 1315.69 113.829C1321.68 113.829 1325.82 109.135 1325.82 103.294C1325.82 97.4522 1321.5 92.5802 1315.58 92.5802C1309.67 92.5802 1305.28 97.3757 1305.28 103.191L1305.3 103.217ZM1313.49 110.181H1310.41V96.8913C1311.63 96.6362 1313.31 96.4829 1315.51 96.4829C1318.03 96.4829 1319.15 96.8913 1320.13 97.4522C1320.86 98.0134 1321.43 99.0849 1321.43 100.36C1321.43 101.814 1320.3 102.962 1318.67 103.447V103.6C1319.97 104.084 1320.69 105.054 1321.09 106.839C1321.5 108.854 1321.73 109.671 1322.06 110.156H1318.75C1318.34 109.671 1318.11 108.446 1317.7 106.916C1317.45 105.462 1316.65 104.799 1314.95 104.799H1313.49V110.156V110.181ZM1313.57 102.631H1315.02C1316.73 102.631 1318.11 102.069 1318.11 100.692C1318.11 99.4674 1317.22 98.6511 1315.28 98.6511C1314.46 98.6511 1313.9 98.7279 1313.57 98.8043V102.605V102.631Z" fill="white"/>
</g>
</g>
<defs>
<clipPath id="clip0_4215_2923">
<rect width="1329.23" height="240" fill="white"/>
</clipPath>
</defs>
</svg>
