<svg xmlns="http://www.w3.org/2000/svg" width="104" height="28" viewBox="0 0 104 28" fill="none">
  <g clip-path="url(#clip0_3022_11798)">
    <path fill-rule="evenodd" clip-rule="evenodd" d="M71.8528 0.0350502C71.4955 0.0228947 71.1394 0.0827106 70.8054 0.210947C70.4717 0.339184 70.1669 0.533217 69.9098 0.781526C69.6562 1.03221 69.457 1.33292 69.3257 1.66454C69.1944 1.99616 69.1333 2.35146 69.1463 2.70793C69.1337 3.0667 69.1948 3.42426 69.3261 3.7583C69.4578 4.09238 69.657 4.39573 69.9106 4.64946C70.1649 4.9032 70.4682 5.10188 70.8022 5.23308C71.1366 5.36433 71.4943 5.42526 71.8528 5.41213C72.2093 5.42561 72.565 5.36468 72.8967 5.23324C73.228 5.10184 73.5289 4.90276 73.7793 4.64879C74.0277 4.39214 74.2218 4.08792 74.3495 3.75439C74.4777 3.42084 74.5369 3.0649 74.5235 2.70793C74.5396 2.35308 74.482 1.9987 74.3539 1.66742C74.2257 1.33614 74.0297 1.03525 73.7789 0.783951C73.5277 0.532653 73.2268 0.336469 72.8959 0.207935C72.5646 0.0794003 72.2101 0.0213441 71.8556 0.0374605L71.8528 0.0350502ZM84.0608 6.20954C85.7499 6.20796 87.1491 6.53706 88.258 7.19683C89.3445 7.83259 90.2133 8.78195 90.7504 9.92032C91.3242 11.17 91.6086 12.5332 91.5814 13.908V14.9315C91.5814 15.2445 91.5573 15.6322 91.5116 16.0945H80.3021C80.4299 17.0842 80.7189 17.8476 81.1784 18.3822C81.8129 19.1223 82.776 19.4923 84.0683 19.4923C85.1552 19.4923 85.9297 19.2611 86.3919 18.7988C86.8513 18.3355 87.183 17.7615 87.3553 17.1324L91.4489 18.2786C91.1827 19.2461 90.7422 20.1568 90.1486 20.966C89.5251 21.7902 88.7013 22.4411 87.7548 22.8564C86.7484 23.3186 85.4947 23.5497 83.9934 23.5497C82.2582 23.5483 80.7611 23.1839 79.5027 22.4565C78.2522 21.7398 77.2395 20.6724 76.5887 19.3863C75.8781 17.9431 75.5271 16.3494 75.5654 14.7412C75.5654 12.0811 76.3166 9.99419 77.8196 8.48034C79.3221 6.96648 81.4028 6.20954 84.0608 6.20954ZM87.2011 12.9713C86.9428 11.0754 85.85 10.1274 83.924 10.1274C82.6991 10.1258 81.7743 10.495 81.15 11.2351C80.7568 11.7425 80.4946 12.3387 80.3865 12.9713H87.2011ZM42.7951 6.27654C41.108 6.27654 39.733 6.53098 38.6701 7.03991C37.6802 7.48342 36.8462 8.21414 36.2765 9.13731C35.7317 10.0666 35.3894 11.1005 35.2725 12.1714L39.7104 12.7951C39.871 11.8496 40.1923 11.1793 40.6738 10.7844C41.2212 10.3714 41.896 10.1627 42.581 10.1944C43.4813 10.1944 44.1348 10.4352 44.541 10.9168C44.9432 11.3984 45.1479 12.0655 45.1479 12.9444V13.3827H40.8809C38.7087 13.3827 37.1483 13.8643 36.1996 14.8275C35.2508 15.7907 34.7773 17.0622 34.7789 18.6419C34.7789 20.26 35.2524 21.4641 36.1996 22.2538C37.1466 23.0438 38.3379 23.4363 39.7732 23.4313C41.5533 23.4313 42.9229 22.819 43.8812 21.5941C44.4471 20.8413 44.8513 19.9797 45.0682 19.0632H45.2295L45.8416 23.0846H49.8629V12.9011C49.8629 10.7964 49.3081 9.16622 48.1987 8.01037C47.0894 6.85448 45.2883 6.27654 42.7951 6.27654ZM44.2014 18.8296C43.5633 19.3618 42.7277 19.6267 41.6873 19.6267C40.83 19.6267 40.2345 19.4766 39.9007 19.1764C39.7381 19.0344 39.6085 18.8583 39.5216 18.6606C39.4346 18.4629 39.3922 18.2485 39.3975 18.0326C39.3878 17.829 39.42 17.6256 39.4916 17.4347C39.5632 17.2439 39.6729 17.0696 39.814 16.9225C39.9667 16.7794 40.1465 16.6687 40.3433 16.5971C40.5397 16.5255 40.7487 16.4944 40.9578 16.5059H45.155V16.7828C45.1637 17.1743 45.082 17.5624 44.9168 17.9173C44.7512 18.2722 44.5067 18.5844 44.2014 18.8296ZM24.568 19.0734L24.5537 19.0276L33.6705 10.6814V6.65994H19.044V10.6814H27.7804L27.7948 10.7199L18.7671 19.0734V23.0949H33.8173V19.0734H24.568ZM69.4267 6.65994H74.1776V23.0972H69.4267V6.65994ZM102.227 6.65994C100.885 6.65994 99.8272 7.1335 99.0534 8.08068C98.4978 8.76136 98.0758 9.76711 97.7867 11.0979H97.6471L97.026 6.65994H92.9684V23.0949H97.7197V14.6667C97.7197 13.6039 97.9681 12.7892 98.4658 12.2225C98.9635 11.6558 99.8816 11.3725 101.22 11.3725H103.024V6.65994H102.227ZM58.1387 7.7338C59.1215 6.71764 60.4217 6.20954 62.0398 6.20954C64.0274 6.20954 65.5244 6.96727 66.5308 8.4827C67.5373 9.99817 68.0405 12.0956 68.0405 14.7749C68.0405 17.549 67.5203 19.7106 66.4804 21.2597C65.44 22.809 63.9253 23.5836 61.9361 23.5836C60.9569 23.6096 59.9883 23.3761 59.1286 22.9068C58.2992 22.4093 57.6402 21.6721 57.238 20.7926C56.9797 20.2526 56.7762 19.6879 56.6315 19.107H56.4579V27.8193H51.7066V6.66704H55.7646L56.3858 11.105H56.5376C56.8779 9.61047 57.4115 8.48672 58.1387 7.7338ZM59.9209 19.3237C61.1008 19.3237 61.9676 18.9224 62.5213 18.1197H62.526C63.0817 17.3218 63.3578 16.2173 63.3546 14.8062C63.3546 13.4417 63.0825 12.3781 62.5383 11.6155C61.994 10.853 61.1217 10.4718 59.9209 10.4718C58.8356 10.4637 57.9861 10.8217 57.3733 11.5457C56.7596 12.2698 56.4532 13.3133 56.4532 14.6762V14.9892C56.4516 16.3313 56.758 17.3884 57.3733 18.1606C57.6749 18.5429 58.063 18.8479 58.5063 19.0501C58.9491 19.2524 59.4342 19.3461 59.9209 19.3237Z" fill="white"/>
    <path d="M16.927 19.0732H0.489746V23.0995H16.927V19.0732Z" fill="#FF4F00"/>
  </g>
  <defs>
    <clipPath id="clip0_3022_11798">
      <rect width="102.535" height="28" fill="white" transform="translate(0.489746)"/>
    </clipPath>
  </defs>
</svg>