<svg width="450" height="72" viewBox="0 0 450 72" fill="none" xmlns="http://www.w3.org/2000/svg">
<path d="M33.1901 48.3097C45.3347 59.36 60.3068 65.4445 76.1598 65.4445C95.0949 65.4445 112.749 56.7935 125.863 41.3257L125.868 41.3198L125.873 41.3139C128.501 38.1862 128.501 33.6072 125.873 30.4796L125.867 30.4726L125.861 30.4657C112.75 15.0252 95.0973 6.34899 76.1598 6.34899C60.3092 6.34899 45.3355 12.4115 33.1881 23.4815L20.657 8.72614L20.6365 8.70198L20.6155 8.67818C18.5977 6.38673 15.9194 5.89465 13.907 6.01733C12.8972 6.07888 11.9608 6.2937 11.173 6.57197C10.4483 6.82796 9.60517 7.22371 8.92366 7.80304L8.91249 7.81249L8.90139 7.82212C5.42198 10.8297 5.00792 16.0842 8.00682 19.593C8.00883 19.5953 8.01078 19.5976 8.01279 19.5999L21.8445 35.8864L8.00168 52.2064L7.99737 52.2117C5.04847 55.7014 5.43012 60.9743 8.90139 63.9714C12.41 67.0044 17.6489 66.5792 20.6473 63.0789L20.6522 63.0729L20.657 63.067L33.1901 48.3097Z" fill="#A3E635" stroke="white" stroke-width="11.98" stroke-linecap="square"/>
<path d="M163.558 7.43014V62.6979H153.881V7.43014H163.558ZM175.807 39.1845H160.61V31.0191H175.277C177.949 31.0191 179.99 30.3639 181.401 29.0534C182.813 27.6925 183.518 25.7771 183.518 23.3073C183.518 20.9383 182.788 19.1238 181.326 17.8637C179.864 16.6037 177.747 15.9736 174.975 15.9736H160.307V7.43014H175.807C181.301 7.43014 185.61 8.76582 188.735 11.4372C191.86 14.1087 193.423 17.7629 193.423 22.4001C193.423 25.7267 192.616 28.5241 191.003 30.7923C189.391 33.0101 186.996 34.623 183.821 35.6311V34.5726C187.248 35.379 189.844 36.8911 191.608 39.1089C193.372 41.3267 194.254 44.1999 194.254 47.728C194.254 50.8532 193.549 53.5496 192.137 55.8178C190.726 58.0358 188.659 59.7493 185.938 60.959C183.267 62.1185 180.04 62.6979 176.26 62.6979H160.307V54.1545H175.807C178.579 54.1545 180.696 53.4994 182.157 52.1887C183.619 50.878 184.35 48.9879 184.35 46.5183C184.35 44.1999 183.594 42.4102 182.082 41.1503C180.62 39.8398 178.528 39.1845 175.807 39.1845ZM225.205 25.1975V33.7409H221.803C218.426 33.7409 215.779 34.6482 213.864 36.4627C211.949 38.2269 210.991 40.9235 210.991 44.5525V62.6979H201.767V25.4243H210.462L211.218 33.1361H210.31C210.815 30.6663 211.999 28.6501 213.864 27.0876C215.729 25.5251 218.149 24.7438 221.122 24.7438C221.778 24.7438 222.433 24.7691 223.088 24.8195C223.743 24.8698 224.449 24.9959 225.205 25.1975ZM241.086 63.6808C237.154 63.6808 234.029 62.6223 231.71 60.5053C229.442 58.3382 228.308 55.5154 228.308 52.0375C228.308 48.6099 229.493 45.888 231.862 43.8721C234.281 41.8053 237.709 40.5958 242.144 40.243L253.334 39.3357V38.5041C253.334 36.7904 253.006 35.4295 252.351 34.4214C251.746 33.3629 250.864 32.6068 249.705 32.1532C248.546 31.6492 247.185 31.3972 245.622 31.3972C242.9 31.3972 240.809 31.9516 239.347 33.0605C237.885 34.119 237.154 35.6311 237.154 37.5968H229.291C229.291 34.875 229.972 32.5312 231.332 30.5655C232.744 28.5494 234.71 26.9868 237.23 25.8779C239.8 24.7691 242.749 24.2146 246.076 24.2146C249.453 24.2146 252.351 24.8195 254.77 26.0291C257.19 27.1884 259.055 28.9525 260.365 31.3215C261.676 33.6401 262.331 36.5383 262.331 40.0162V62.6979H254.241L253.56 57.1787C252.754 59.0942 251.192 60.6566 248.873 61.8662C246.605 63.0759 244.009 63.6808 241.086 63.6808ZM244.034 56.7251C246.907 56.7251 249.175 55.9188 250.839 54.3057C252.553 52.6926 253.409 50.4498 253.409 47.5768V45.611L245.622 46.2159C242.749 46.4681 240.708 47.0729 239.498 48.0304C238.288 48.9377 237.683 50.1474 237.683 51.6595C237.683 53.3228 238.238 54.5827 239.347 55.4398C240.456 56.2968 242.018 56.7251 244.034 56.7251ZM271.392 62.6979V25.3487H280.616V62.6979H271.392ZM275.929 17.8637C274.366 17.8637 273.031 17.3345 271.921 16.276C270.863 15.1671 270.334 13.8314 270.334 12.2689C270.334 10.7064 270.863 9.39589 271.921 8.33741C273.031 7.27893 274.366 6.74969 275.929 6.74969C277.491 6.74969 278.802 7.27893 279.86 8.33741C280.969 9.39589 281.523 10.7064 281.523 12.2689C281.523 13.8314 280.969 15.1671 279.86 16.276C278.802 17.3345 277.491 17.8637 275.929 17.8637ZM299.37 62.6979H290.146V25.3487H298.689L299.445 30.1875C300.605 28.3225 302.243 26.8608 304.36 25.8023C306.528 24.7438 308.871 24.2146 311.391 24.2146C316.079 24.2146 319.607 25.6007 321.976 28.3729C324.395 31.1451 325.605 34.9254 325.605 39.7138V62.6979H316.381V41.9063C316.381 38.7813 315.676 36.4627 314.264 34.9506C312.853 33.3881 310.938 32.6068 308.518 32.6068C305.645 32.6068 303.402 33.5141 301.789 35.3286C300.177 37.1432 299.37 39.5626 299.37 42.5868V62.6979ZM330.963 25.3487H369.976V33.0605H330.963V25.3487ZM353.947 6.82529V14.6883C353.393 14.6883 352.838 14.6883 352.284 14.6883C351.78 14.6883 351.251 14.6883 350.696 14.6883C348.63 14.6883 347.244 15.2427 346.538 16.3516C345.833 17.4605 345.479 18.9474 345.479 20.8123V62.6979H336.331V20.8123C336.331 17.3849 336.86 14.6379 337.919 12.5713C339.028 10.4544 340.54 8.91703 342.455 7.95938C344.421 6.95128 346.664 6.44727 349.184 6.44727C349.94 6.44727 350.721 6.47249 351.528 6.52287C352.335 6.57325 353.141 6.67408 353.947 6.82529ZM360.752 62.6979V25.3487H369.976V62.6979H360.752ZM365.364 17.7125C363.801 17.7125 362.491 17.1833 361.432 16.1248C360.374 15.0663 359.844 13.7558 359.844 12.1933C359.844 10.6812 360.374 9.39589 361.432 8.33741C362.491 7.27893 363.801 6.74969 365.364 6.74969C366.876 6.74969 368.161 7.27893 369.22 8.33741C370.278 9.39589 370.807 10.6812 370.807 12.1933C370.807 13.7558 370.278 15.0663 369.22 16.1248C368.161 17.1833 366.876 17.7125 365.364 17.7125ZM376.612 51.3571H385.382C385.433 52.9702 386.038 54.2555 387.197 55.2129C388.356 56.1704 389.969 56.6495 392.035 56.6495C394.253 56.6495 395.917 56.246 397.025 55.4398C398.185 54.6335 398.764 53.5496 398.764 52.1887C398.764 51.2815 398.462 50.4752 397.857 49.7693C397.252 49.0635 396.118 48.5343 394.455 48.1816L387.726 46.5939C384.349 45.8378 381.829 44.6282 380.165 42.9648C378.553 41.2511 377.746 38.9073 377.746 35.9335C377.746 33.5141 378.376 31.4224 379.636 29.6582C380.947 27.8941 382.711 26.5584 384.928 25.6511C387.146 24.6935 389.692 24.2146 392.565 24.2146C395.337 24.2146 397.781 24.7186 399.898 25.7267C402.015 26.7348 403.654 28.1461 404.813 29.9606C406.022 31.7752 406.653 33.8921 406.703 36.3115H397.933C397.933 34.6986 397.429 33.4385 396.42 32.5312C395.413 31.5736 394.001 31.0947 392.187 31.0947C390.372 31.0947 388.961 31.498 387.953 32.3044C386.945 33.1109 386.44 34.1946 386.44 35.5555C386.44 37.622 388.054 39.0333 391.279 39.7894L398.008 41.3771C401.133 42.083 403.477 43.217 405.039 44.7794C406.653 46.3417 407.459 48.5597 407.459 51.4327C407.459 53.9531 406.804 56.1456 405.493 58.0104C404.183 59.8249 402.343 61.236 399.974 62.2443C397.605 63.2018 394.883 63.6808 391.808 63.6808C387.172 63.6808 383.467 62.5467 380.694 60.2785C377.973 58.0104 376.612 55.0363 376.612 51.3571ZM423.706 62.6979H414.482V6.44727H423.781V30.1875C424.941 28.3729 426.554 26.9364 428.62 25.8779C430.737 24.7691 433.157 24.2146 435.878 24.2146C440.466 24.2146 443.943 25.6007 446.312 28.3729C448.731 31.1451 449.941 34.9254 449.941 39.7138V62.6979H440.717V41.9063C440.717 39.7894 440.39 38.0505 439.734 36.6896C439.079 35.3286 438.172 34.3206 437.012 33.6653C435.854 32.9596 434.493 32.6068 432.93 32.6068C431.015 32.6068 429.351 33.0353 427.94 33.8921C426.579 34.6986 425.52 35.8327 424.764 37.2944C424.059 38.7561 423.706 40.4195 423.706 42.2844V62.6979Z" fill="white"/>
</svg>
