<svg width="859" height="151" viewBox="0 0 859 151" fill="none" xmlns="http://www.w3.org/2000/svg">
<path d="M115.8 105.4L133.6 123.4C127.333 131.4 119.067 137.867 108.8 142.8C98.6667 147.733 87.5333 150.2 75.4 150.2C64.3333 150.2 54.2 148.4 45 144.8C35.8 141.067 27.8 135.867 21 129.2C14.3333 122.4 9.13333 114.467 5.4 105.4C1.8 96.3333 1.49012e-07 86.3333 1.49012e-07 75.4C1.49012e-07 64.7333 1.86667 54.8667 5.6 45.8C9.46667 36.6 14.8 28.6667 21.6 22C28.4 15.2 36.4 9.99999 45.6 6.4C54.9333 2.66667 65.0667 0.799999 76 0.799999C88.1333 0.799999 99.2 3.26667 109.2 8.2C119.2 13.1333 127.333 19.6 133.6 27.6L115.8 45.6C111.4 39.2 105.733 34.1333 98.8 30.4C92 26.5333 84.4 24.6 76 24.6C66.9333 24.6 58.8 26.8 51.6 31.2C44.5333 35.6 38.9333 41.6 34.8 49.2C30.6667 56.8 28.6 65.5333 28.6 75.4C28.6 85.2667 30.6667 94.0667 34.8 101.8C38.9333 109.4 44.5333 115.4 51.6 119.8C58.8 124.2 66.9333 126.4 76 126.4C84.4 126.4 92 124.533 98.8 120.8C105.733 116.933 111.4 111.8 115.8 105.4ZM255.191 147H154.591V3.99999H255.191V26.8H181.591V124.2H255.191V147ZM251.391 86H179.591V63.2H251.391V86ZM278.419 147V3.99999H328.419C343.752 3.99999 357.152 7.06666 368.619 13.2C380.219 19.2 389.219 27.6 395.619 38.4C402.152 49.0667 405.419 61.4 405.419 75.4C405.419 89.4 402.152 101.8 395.619 112.6C389.219 123.267 380.219 131.667 368.619 137.8C357.152 143.933 343.752 147 328.419 147H278.419ZM305.419 124H328.419C338.419 124 347.019 122 354.219 118C361.552 114 367.152 108.4 371.019 101.2C375.019 93.8667 377.019 85.2667 377.019 75.4C377.019 65.5333 375.019 57 371.019 49.8C367.152 42.4667 361.552 36.8667 354.219 33C347.019 29 338.419 27 328.419 27H305.419V124ZM523.848 115.6H439.048V92.8H523.848V115.6ZM553.048 147H524.048L477.248 23H485.248L438.448 147H410.448L466.848 3.99999H496.648L553.048 147ZM599.345 147H572.945V3.99999H601.345L680.345 121.2H669.945V3.99999H696.345V147H667.945L589.145 29.8H599.345V147ZM829.708 115.6H744.908V92.8H829.708V115.6ZM858.908 147H829.908L783.108 23H791.108L744.308 147H716.308L772.708 3.99999H802.508L858.908 147Z" fill="white"/>
</svg>
