<svg width="895" height="160" viewBox="0 0 895 160" fill="none" xmlns="http://www.w3.org/2000/svg">
<rect x="702" y="30" width="160" height="100" rx="4" fill="#E6E6E6"/>
<path d="M740.448 81.48C737.056 81.48 734.224 80.824 731.952 79.512C729.712 78.168 728.16 76.216 727.296 73.656L734.88 70.392C735.04 71.544 735.328 72.472 735.744 73.176C736.192 73.848 736.784 74.344 737.52 74.664C738.256 74.952 739.12 75.096 740.112 75.096C741.008 75.096 741.76 74.952 742.368 74.664C743.008 74.344 743.504 73.896 743.856 73.32C744.208 72.744 744.384 72.056 744.384 71.256C744.384 70.424 744.208 69.752 743.856 69.24C743.536 68.728 743.056 68.36 742.416 68.136C741.808 67.912 741.056 67.8 740.16 67.8C739.744 67.8 739.36 67.816 739.008 67.848C738.656 67.848 738.256 67.88 737.808 67.944V62.568C738.064 62.6 738.32 62.632 738.576 62.664C738.832 62.664 739.136 62.664 739.488 62.664C740.992 62.664 742.064 62.36 742.704 61.752C743.376 61.112 743.712 60.12 743.712 58.776C743.712 57.624 743.376 56.744 742.704 56.136C742.064 55.528 741.152 55.224 739.968 55.224C738.72 55.224 737.696 55.56 736.896 56.232C736.096 56.872 735.584 57.976 735.36 59.544L728.112 57.048C728.464 55.288 729.216 53.8 730.368 52.584C731.52 51.368 732.96 50.44 734.688 49.8C736.448 49.16 738.384 48.84 740.496 48.84C742.928 48.84 744.976 49.192 746.64 49.896C748.304 50.6 749.568 51.608 750.432 52.92C751.296 54.232 751.728 55.768 751.728 57.528C751.728 58.904 751.504 60.056 751.056 60.984C750.64 61.912 750.096 62.664 749.424 63.24C748.784 63.816 748.128 64.248 747.456 64.536C746.784 64.792 746.224 64.952 745.776 65.016V65.16C746.352 65.16 747.008 65.272 747.744 65.496C748.48 65.72 749.2 66.088 749.904 66.6C750.608 67.08 751.184 67.752 751.632 68.616C752.112 69.48 752.352 70.552 752.352 71.832C752.352 73.816 751.824 75.528 750.768 76.968C749.744 78.408 748.336 79.528 746.544 80.328C744.752 81.096 742.72 81.48 740.448 81.48ZM769.189 81.48C764.869 81.48 761.589 80.104 759.349 77.352C757.141 74.6 756.037 70.536 756.037 65.16C756.037 59.784 757.141 55.72 759.349 52.968C761.589 50.216 764.869 48.84 769.189 48.84C773.509 48.84 776.773 50.216 778.981 52.968C781.221 55.72 782.341 59.784 782.341 65.16C782.341 70.536 781.221 74.6 778.981 77.352C776.773 80.104 773.509 81.48 769.189 81.48ZM769.189 75.048C770.373 75.048 771.333 74.728 772.069 74.088C772.805 73.416 773.333 72.36 773.653 70.92C774.005 69.448 774.181 67.528 774.181 65.16C774.181 62.792 774.005 60.888 773.653 59.448C773.333 57.976 772.805 56.92 772.069 56.28C771.333 55.608 770.373 55.272 769.189 55.272C768.037 55.272 767.077 55.608 766.309 56.28C765.573 56.92 765.029 57.976 764.677 59.448C764.357 60.888 764.197 62.792 764.197 65.16C764.197 67.528 764.357 69.448 764.677 70.92C765.029 72.36 765.573 73.416 766.309 74.088C767.077 74.728 768.037 75.048 769.189 75.048ZM816.16 49.32L801.28 67.128L800.752 65.88L793.216 75.048L791.632 68.376L806.992 49.32H816.16ZM795.664 49.32V81H787.408V49.32H795.664ZM803.968 59.784L816.736 81H807.376L797.776 64.392L803.968 59.784Z" fill="#F25733"/>
<path d="M738.133 109.594C738.346 109.594 738.565 109.576 738.789 109.539C739.013 109.503 739.195 109.458 739.336 109.406V110.414C739.185 110.482 738.974 110.539 738.703 110.586C738.438 110.633 738.177 110.656 737.922 110.656C737.469 110.656 737.057 110.578 736.688 110.422C736.318 110.26 736.021 109.99 735.797 109.609C735.578 109.229 735.469 108.703 735.469 108.031V102.953H734.25V102.32L735.477 101.812L735.992 99.9531H736.773V101.938H739.281V102.953H736.773V107.992C736.773 108.529 736.896 108.93 737.141 109.195C737.391 109.461 737.721 109.594 738.133 109.594ZM742.367 101.938V110.5H741.07V101.938H742.367ZM741.734 98.7344C741.948 98.7344 742.13 98.8047 742.281 98.9453C742.438 99.0807 742.516 99.2943 742.516 99.5859C742.516 99.8724 742.438 100.086 742.281 100.227C742.13 100.367 741.948 100.438 741.734 100.438C741.51 100.438 741.323 100.367 741.172 100.227C741.026 100.086 740.953 99.8724 740.953 99.5859C740.953 99.2943 741.026 99.0807 741.172 98.9453C741.323 98.8047 741.51 98.7344 741.734 98.7344ZM754.414 101.781C755.357 101.781 756.068 102.029 756.547 102.523C757.026 103.013 757.266 103.802 757.266 104.891V110.5H755.984V104.953C755.984 104.26 755.833 103.742 755.531 103.398C755.234 103.049 754.792 102.875 754.203 102.875C753.375 102.875 752.773 103.115 752.398 103.594C752.023 104.073 751.836 104.779 751.836 105.711V110.5H750.547V104.953C750.547 104.49 750.479 104.104 750.344 103.797C750.214 103.49 750.016 103.26 749.75 103.109C749.49 102.953 749.159 102.875 748.758 102.875C748.19 102.875 747.734 102.992 747.391 103.227C747.047 103.461 746.797 103.81 746.641 104.273C746.49 104.732 746.414 105.297 746.414 105.969V110.5H745.117V101.938H746.164L746.359 103.148H746.43C746.602 102.852 746.818 102.602 747.078 102.398C747.339 102.195 747.63 102.042 747.953 101.938C748.276 101.833 748.62 101.781 748.984 101.781C749.635 101.781 750.18 101.904 750.617 102.148C751.06 102.388 751.38 102.755 751.578 103.25H751.648C751.93 102.755 752.315 102.388 752.805 102.148C753.294 101.904 753.831 101.781 754.414 101.781ZM763.227 101.781C763.956 101.781 764.581 101.943 765.102 102.266C765.622 102.589 766.021 103.042 766.297 103.625C766.573 104.203 766.711 104.88 766.711 105.656V106.461H760.797C760.812 107.466 761.062 108.232 761.547 108.758C762.031 109.284 762.714 109.547 763.594 109.547C764.135 109.547 764.615 109.497 765.031 109.398C765.448 109.299 765.88 109.154 766.328 108.961V110.102C765.896 110.294 765.466 110.435 765.039 110.523C764.617 110.612 764.117 110.656 763.539 110.656C762.716 110.656 761.997 110.49 761.383 110.156C760.773 109.818 760.299 109.323 759.961 108.672C759.622 108.021 759.453 107.224 759.453 106.281C759.453 105.359 759.607 104.562 759.914 103.891C760.227 103.214 760.664 102.693 761.227 102.328C761.794 101.964 762.461 101.781 763.227 101.781ZM763.211 102.844C762.518 102.844 761.966 103.07 761.555 103.523C761.143 103.977 760.898 104.609 760.82 105.422H765.352C765.346 104.911 765.266 104.464 765.109 104.078C764.958 103.688 764.727 103.385 764.414 103.172C764.102 102.953 763.701 102.844 763.211 102.844ZM774.453 108.156C774.453 108.703 774.315 109.164 774.039 109.539C773.768 109.909 773.378 110.188 772.867 110.375C772.362 110.562 771.758 110.656 771.055 110.656C770.456 110.656 769.938 110.609 769.5 110.516C769.062 110.422 768.68 110.289 768.352 110.117V108.922C768.701 109.094 769.117 109.25 769.602 109.391C770.086 109.531 770.581 109.602 771.086 109.602C771.826 109.602 772.362 109.482 772.695 109.242C773.029 109.003 773.195 108.677 773.195 108.266C773.195 108.031 773.128 107.826 772.992 107.648C772.862 107.466 772.641 107.292 772.328 107.125C772.016 106.953 771.583 106.766 771.031 106.562C770.484 106.354 770.01 106.148 769.609 105.945C769.214 105.737 768.906 105.484 768.688 105.188C768.474 104.891 768.367 104.505 768.367 104.031C768.367 103.307 768.659 102.753 769.242 102.367C769.831 101.977 770.602 101.781 771.555 101.781C772.07 101.781 772.552 101.833 773 101.938C773.453 102.036 773.875 102.172 774.266 102.344L773.828 103.383C773.474 103.232 773.096 103.104 772.695 103C772.294 102.896 771.885 102.844 771.469 102.844C770.87 102.844 770.409 102.943 770.086 103.141C769.768 103.339 769.609 103.609 769.609 103.953C769.609 104.219 769.682 104.438 769.828 104.609C769.979 104.781 770.219 104.943 770.547 105.094C770.875 105.245 771.307 105.422 771.844 105.625C772.38 105.823 772.844 106.029 773.234 106.242C773.625 106.451 773.924 106.706 774.133 107.008C774.346 107.305 774.453 107.688 774.453 108.156ZM779.836 101.781C780.565 101.781 781.19 101.943 781.711 102.266C782.232 102.589 782.63 103.042 782.906 103.625C783.182 104.203 783.32 104.88 783.32 105.656V106.461H777.406C777.422 107.466 777.672 108.232 778.156 108.758C778.641 109.284 779.323 109.547 780.203 109.547C780.745 109.547 781.224 109.497 781.641 109.398C782.057 109.299 782.49 109.154 782.938 108.961V110.102C782.505 110.294 782.076 110.435 781.648 110.523C781.227 110.612 780.727 110.656 780.148 110.656C779.326 110.656 778.607 110.49 777.992 110.156C777.383 109.818 776.909 109.323 776.57 108.672C776.232 108.021 776.062 107.224 776.062 106.281C776.062 105.359 776.216 104.562 776.523 103.891C776.836 103.214 777.273 102.693 777.836 102.328C778.404 101.964 779.07 101.781 779.836 101.781ZM779.82 102.844C779.128 102.844 778.576 103.07 778.164 103.523C777.753 103.977 777.508 104.609 777.43 105.422H781.961C781.956 104.911 781.875 104.464 781.719 104.078C781.568 103.688 781.336 103.385 781.023 103.172C780.711 102.953 780.31 102.844 779.82 102.844ZM789.414 101.781C789.586 101.781 789.766 101.792 789.953 101.812C790.141 101.828 790.307 101.852 790.453 101.883L790.289 103.086C790.148 103.049 789.992 103.021 789.82 103C789.648 102.979 789.487 102.969 789.336 102.969C788.992 102.969 788.667 103.039 788.359 103.18C788.057 103.315 787.792 103.513 787.562 103.773C787.333 104.029 787.154 104.339 787.023 104.703C786.893 105.062 786.828 105.464 786.828 105.906V110.5H785.523V101.938H786.602L786.742 103.516H786.797C786.974 103.198 787.188 102.909 787.438 102.648C787.688 102.383 787.977 102.172 788.305 102.016C788.638 101.859 789.008 101.781 789.414 101.781ZM793.367 101.938V110.5H792.07V101.938H793.367ZM792.734 98.7344C792.948 98.7344 793.13 98.8047 793.281 98.9453C793.438 99.0807 793.516 99.2943 793.516 99.5859C793.516 99.8724 793.438 100.086 793.281 100.227C793.13 100.367 792.948 100.438 792.734 100.438C792.51 100.438 792.323 100.367 792.172 100.227C792.026 100.086 791.953 99.8724 791.953 99.5859C791.953 99.2943 792.026 99.0807 792.172 98.9453C792.323 98.8047 792.51 98.7344 792.734 98.7344ZM799.414 101.781C800.143 101.781 800.768 101.943 801.289 102.266C801.81 102.589 802.208 103.042 802.484 103.625C802.76 104.203 802.898 104.88 802.898 105.656V106.461H796.984C797 107.466 797.25 108.232 797.734 108.758C798.219 109.284 798.901 109.547 799.781 109.547C800.323 109.547 800.802 109.497 801.219 109.398C801.635 109.299 802.068 109.154 802.516 108.961V110.102C802.083 110.294 801.654 110.435 801.227 110.523C800.805 110.612 800.305 110.656 799.727 110.656C798.904 110.656 798.185 110.49 797.57 110.156C796.961 109.818 796.487 109.323 796.148 108.672C795.81 108.021 795.641 107.224 795.641 106.281C795.641 105.359 795.794 104.562 796.102 103.891C796.414 103.214 796.852 102.693 797.414 102.328C797.982 101.964 798.648 101.781 799.414 101.781ZM799.398 102.844C798.706 102.844 798.154 103.07 797.742 103.523C797.331 103.977 797.086 104.609 797.008 105.422H801.539C801.534 104.911 801.453 104.464 801.297 104.078C801.146 103.688 800.914 103.385 800.602 103.172C800.289 102.953 799.888 102.844 799.398 102.844ZM810.641 108.156C810.641 108.703 810.503 109.164 810.227 109.539C809.956 109.909 809.565 110.188 809.055 110.375C808.549 110.562 807.945 110.656 807.242 110.656C806.643 110.656 806.125 110.609 805.688 110.516C805.25 110.422 804.867 110.289 804.539 110.117V108.922C804.888 109.094 805.305 109.25 805.789 109.391C806.273 109.531 806.768 109.602 807.273 109.602C808.013 109.602 808.549 109.482 808.883 109.242C809.216 109.003 809.383 108.677 809.383 108.266C809.383 108.031 809.315 107.826 809.18 107.648C809.049 107.466 808.828 107.292 808.516 107.125C808.203 106.953 807.771 106.766 807.219 106.562C806.672 106.354 806.198 106.148 805.797 105.945C805.401 105.737 805.094 105.484 804.875 105.188C804.661 104.891 804.555 104.505 804.555 104.031C804.555 103.307 804.846 102.753 805.43 102.367C806.018 101.977 806.789 101.781 807.742 101.781C808.258 101.781 808.74 101.833 809.188 101.938C809.641 102.036 810.062 102.172 810.453 102.344L810.016 103.383C809.661 103.232 809.284 103.104 808.883 103C808.482 102.896 808.073 102.844 807.656 102.844C807.057 102.844 806.596 102.943 806.273 103.141C805.956 103.339 805.797 103.609 805.797 103.953C805.797 104.219 805.87 104.438 806.016 104.609C806.167 104.781 806.406 104.943 806.734 105.094C807.062 105.245 807.495 105.422 808.031 105.625C808.568 105.823 809.031 106.029 809.422 106.242C809.812 106.451 810.112 106.706 810.32 107.008C810.534 107.305 810.641 107.688 810.641 108.156Z" fill="#132742"/>
<rect x="31" y="30" width="160" height="100" rx="4" fill="#E6E6E6"/>
<path d="M82.448 79.73C79.056 79.73 76.224 79.074 73.952 77.762C71.712 76.418 70.16 74.466 69.296 71.906L76.88 68.642C77.04 69.794 77.328 70.722 77.744 71.426C78.192 72.098 78.784 72.594 79.52 72.914C80.256 73.202 81.12 73.346 82.112 73.346C83.008 73.346 83.76 73.202 84.368 72.914C85.008 72.594 85.504 72.146 85.856 71.57C86.208 70.994 86.384 70.306 86.384 69.506C86.384 68.674 86.208 68.002 85.856 67.49C85.536 66.978 85.056 66.61 84.416 66.386C83.808 66.162 83.056 66.05 82.16 66.05C81.744 66.05 81.36 66.066 81.008 66.098C80.656 66.098 80.256 66.13 79.808 66.194V60.818C80.064 60.85 80.32 60.882 80.576 60.914C80.832 60.914 81.136 60.914 81.488 60.914C82.992 60.914 84.064 60.61 84.704 60.002C85.376 59.362 85.712 58.37 85.712 57.026C85.712 55.874 85.376 54.994 84.704 54.386C84.064 53.778 83.152 53.474 81.968 53.474C80.72 53.474 79.696 53.81 78.896 54.482C78.096 55.122 77.584 56.226 77.36 57.794L70.112 55.298C70.464 53.538 71.216 52.05 72.368 50.834C73.52 49.618 74.96 48.69 76.688 48.05C78.448 47.41 80.384 47.09 82.496 47.09C84.928 47.09 86.976 47.442 88.64 48.146C90.304 48.85 91.568 49.858 92.432 51.17C93.296 52.482 93.728 54.018 93.728 55.778C93.728 57.154 93.504 58.306 93.056 59.234C92.64 60.162 92.096 60.914 91.424 61.49C90.784 62.066 90.128 62.498 89.456 62.786C88.784 63.042 88.224 63.202 87.776 63.266V63.41C88.352 63.41 89.008 63.522 89.744 63.746C90.48 63.97 91.2 64.338 91.904 64.85C92.608 65.33 93.184 66.002 93.632 66.866C94.112 67.73 94.352 68.802 94.352 70.082C94.352 72.066 93.824 73.778 92.768 75.218C91.744 76.658 90.336 77.778 88.544 78.578C86.752 79.346 84.72 79.73 82.448 79.73ZM111.189 79.73C106.869 79.73 103.589 78.354 101.349 75.602C99.1411 72.85 98.0371 68.786 98.0371 63.41C98.0371 58.034 99.1411 53.97 101.349 51.218C103.589 48.466 106.869 47.09 111.189 47.09C115.509 47.09 118.773 48.466 120.981 51.218C123.221 53.97 124.341 58.034 124.341 63.41C124.341 68.786 123.221 72.85 120.981 75.602C118.773 78.354 115.509 79.73 111.189 79.73ZM111.189 73.298C112.373 73.298 113.333 72.978 114.069 72.338C114.805 71.666 115.333 70.61 115.653 69.17C116.005 67.698 116.181 65.778 116.181 63.41C116.181 61.042 116.005 59.138 115.653 57.698C115.333 56.226 114.805 55.17 114.069 54.53C113.333 53.858 112.373 53.522 111.189 53.522C110.037 53.522 109.077 53.858 108.309 54.53C107.573 55.17 107.029 56.226 106.677 57.698C106.357 59.138 106.197 61.042 106.197 63.41C106.197 65.778 106.357 67.698 106.677 69.17C107.029 70.61 107.573 71.666 108.309 72.338C109.077 72.978 110.037 73.298 111.189 73.298ZM143.664 50.978V76.37H137.184V50.978H143.664ZM152.448 60.722V66.578H128.352V60.722H152.448Z" fill="#F25733"/>
<path d="M85.9062 108.156C85.9062 108.703 85.7682 109.164 85.4922 109.539C85.2214 109.909 84.8307 110.188 84.3203 110.375C83.8151 110.562 83.2109 110.656 82.5078 110.656C81.9089 110.656 81.3906 110.609 80.9531 110.516C80.5156 110.422 80.1328 110.289 79.8047 110.117V108.922C80.1536 109.094 80.5703 109.25 81.0547 109.391C81.5391 109.531 82.0339 109.602 82.5391 109.602C83.2786 109.602 83.8151 109.482 84.1484 109.242C84.4818 109.003 84.6484 108.677 84.6484 108.266C84.6484 108.031 84.5807 107.826 84.4453 107.648C84.3151 107.466 84.0938 107.292 83.7812 107.125C83.4688 106.953 83.0365 106.766 82.4844 106.562C81.9375 106.354 81.4635 106.148 81.0625 105.945C80.6667 105.737 80.3594 105.484 80.1406 105.188C79.9271 104.891 79.8203 104.505 79.8203 104.031C79.8203 103.307 80.112 102.753 80.6953 102.367C81.2839 101.977 82.0547 101.781 83.0078 101.781C83.5234 101.781 84.0052 101.833 84.4531 101.938C84.9062 102.036 85.3281 102.172 85.7188 102.344L85.2812 103.383C84.9271 103.232 84.5495 103.104 84.1484 103C83.7474 102.896 83.3385 102.844 82.9219 102.844C82.3229 102.844 81.862 102.943 81.5391 103.141C81.2214 103.339 81.0625 103.609 81.0625 103.953C81.0625 104.219 81.1354 104.438 81.2812 104.609C81.4323 104.781 81.6719 104.943 82 105.094C82.3281 105.245 82.7604 105.422 83.2969 105.625C83.8333 105.823 84.2969 106.029 84.6875 106.242C85.0781 106.451 85.3776 106.706 85.5859 107.008C85.7995 107.305 85.9062 107.688 85.9062 108.156ZM91.2891 101.781C92.0182 101.781 92.6432 101.943 93.1641 102.266C93.6849 102.589 94.0833 103.042 94.3594 103.625C94.6354 104.203 94.7734 104.88 94.7734 105.656V106.461H88.8594C88.875 107.466 89.125 108.232 89.6094 108.758C90.0938 109.284 90.776 109.547 91.6562 109.547C92.1979 109.547 92.6771 109.497 93.0938 109.398C93.5104 109.299 93.9427 109.154 94.3906 108.961V110.102C93.9583 110.294 93.5286 110.435 93.1016 110.523C92.6797 110.612 92.1797 110.656 91.6016 110.656C90.7786 110.656 90.0599 110.49 89.4453 110.156C88.8359 109.818 88.362 109.323 88.0234 108.672C87.6849 108.021 87.5156 107.224 87.5156 106.281C87.5156 105.359 87.6693 104.562 87.9766 103.891C88.2891 103.214 88.7266 102.693 89.2891 102.328C89.8568 101.964 90.5234 101.781 91.2891 101.781ZM91.2734 102.844C90.5807 102.844 90.0286 103.07 89.6172 103.523C89.2057 103.977 88.9609 104.609 88.8828 105.422H93.4141C93.4089 104.911 93.3281 104.464 93.1719 104.078C93.0208 103.688 92.7891 103.385 92.4766 103.172C92.1641 102.953 91.763 102.844 91.2734 102.844ZM100.867 101.781C101.039 101.781 101.219 101.792 101.406 101.812C101.594 101.828 101.76 101.852 101.906 101.883L101.742 103.086C101.602 103.049 101.445 103.021 101.273 103C101.102 102.979 100.94 102.969 100.789 102.969C100.445 102.969 100.12 103.039 99.8125 103.18C99.5104 103.315 99.2448 103.513 99.0156 103.773C98.7865 104.029 98.6068 104.339 98.4766 104.703C98.3464 105.062 98.2812 105.464 98.2812 105.906V110.5H96.9766V101.938H98.0547L98.1953 103.516H98.25C98.4271 103.198 98.6406 102.909 98.8906 102.648C99.1406 102.383 99.4297 102.172 99.7578 102.016C100.091 101.859 100.461 101.781 100.867 101.781ZM105.406 110.5L102.156 101.938H103.547L105.43 107.117C105.56 107.471 105.693 107.862 105.828 108.289C105.964 108.716 106.057 109.06 106.109 109.32H106.164C106.227 109.06 106.331 108.716 106.477 108.289C106.622 107.857 106.755 107.466 106.875 107.117L108.758 101.938H110.148L106.891 110.5H105.406ZM112.82 101.938V110.5H111.523V101.938H112.82ZM112.188 98.7344C112.401 98.7344 112.583 98.8047 112.734 98.9453C112.891 99.0807 112.969 99.2943 112.969 99.5859C112.969 99.8724 112.891 100.086 112.734 100.227C112.583 100.367 112.401 100.438 112.188 100.438C111.964 100.438 111.776 100.367 111.625 100.227C111.479 100.086 111.406 99.8724 111.406 99.5859C111.406 99.2943 111.479 99.0807 111.625 98.9453C111.776 98.8047 111.964 98.7344 112.188 98.7344ZM119 110.656C118.229 110.656 117.549 110.497 116.961 110.18C116.372 109.862 115.914 109.378 115.586 108.727C115.258 108.076 115.094 107.255 115.094 106.266C115.094 105.229 115.266 104.383 115.609 103.727C115.958 103.065 116.438 102.576 117.047 102.258C117.656 101.94 118.349 101.781 119.125 101.781C119.552 101.781 119.964 101.826 120.359 101.914C120.76 101.997 121.089 102.104 121.344 102.234L120.953 103.32C120.693 103.216 120.391 103.122 120.047 103.039C119.708 102.956 119.391 102.914 119.094 102.914C118.5 102.914 118.005 103.042 117.609 103.297C117.219 103.552 116.924 103.927 116.727 104.422C116.534 104.917 116.438 105.526 116.438 106.25C116.438 106.943 116.531 107.534 116.719 108.023C116.911 108.513 117.195 108.888 117.57 109.148C117.951 109.404 118.424 109.531 118.992 109.531C119.445 109.531 119.854 109.484 120.219 109.391C120.583 109.292 120.914 109.177 121.211 109.047V110.203C120.924 110.349 120.604 110.461 120.25 110.539C119.901 110.617 119.484 110.656 119 110.656ZM126.539 101.781C127.268 101.781 127.893 101.943 128.414 102.266C128.935 102.589 129.333 103.042 129.609 103.625C129.885 104.203 130.023 104.88 130.023 105.656V106.461H124.109C124.125 107.466 124.375 108.232 124.859 108.758C125.344 109.284 126.026 109.547 126.906 109.547C127.448 109.547 127.927 109.497 128.344 109.398C128.76 109.299 129.193 109.154 129.641 108.961V110.102C129.208 110.294 128.779 110.435 128.352 110.523C127.93 110.612 127.43 110.656 126.852 110.656C126.029 110.656 125.31 110.49 124.695 110.156C124.086 109.818 123.612 109.323 123.273 108.672C122.935 108.021 122.766 107.224 122.766 106.281C122.766 105.359 122.919 104.562 123.227 103.891C123.539 103.214 123.977 102.693 124.539 102.328C125.107 101.964 125.773 101.781 126.539 101.781ZM126.523 102.844C125.831 102.844 125.279 103.07 124.867 103.523C124.456 103.977 124.211 104.609 124.133 105.422H128.664C128.659 104.911 128.578 104.464 128.422 104.078C128.271 103.688 128.039 103.385 127.727 103.172C127.414 102.953 127.013 102.844 126.523 102.844ZM137.766 108.156C137.766 108.703 137.628 109.164 137.352 109.539C137.081 109.909 136.69 110.188 136.18 110.375C135.674 110.562 135.07 110.656 134.367 110.656C133.768 110.656 133.25 110.609 132.812 110.516C132.375 110.422 131.992 110.289 131.664 110.117V108.922C132.013 109.094 132.43 109.25 132.914 109.391C133.398 109.531 133.893 109.602 134.398 109.602C135.138 109.602 135.674 109.482 136.008 109.242C136.341 109.003 136.508 108.677 136.508 108.266C136.508 108.031 136.44 107.826 136.305 107.648C136.174 107.466 135.953 107.292 135.641 107.125C135.328 106.953 134.896 106.766 134.344 106.562C133.797 106.354 133.323 106.148 132.922 105.945C132.526 105.737 132.219 105.484 132 105.188C131.786 104.891 131.68 104.505 131.68 104.031C131.68 103.307 131.971 102.753 132.555 102.367C133.143 101.977 133.914 101.781 134.867 101.781C135.383 101.781 135.865 101.833 136.312 101.938C136.766 102.036 137.188 102.172 137.578 102.344L137.141 103.383C136.786 103.232 136.409 103.104 136.008 103C135.607 102.896 135.198 102.844 134.781 102.844C134.182 102.844 133.721 102.943 133.398 103.141C133.081 103.339 132.922 103.609 132.922 103.953C132.922 104.219 132.995 104.438 133.141 104.609C133.292 104.781 133.531 104.943 133.859 105.094C134.188 105.245 134.62 105.422 135.156 105.625C135.693 105.823 136.156 106.029 136.547 106.242C136.938 106.451 137.237 106.706 137.445 107.008C137.659 107.305 137.766 107.688 137.766 108.156Z" fill="#132742"/>
<rect x="366" y="30" width="160" height="100" rx="4" fill="#E6E6E6"/>
<path d="M398.168 80V61.76C398.168 60.928 398.168 60.08 398.168 59.216C398.2 58.32 398.216 57.408 398.216 56.48C397.16 57.44 395.992 58.288 394.712 59.024C393.432 59.728 392.088 60.208 390.68 60.464L389.912 53.648C390.744 53.584 391.624 53.376 392.552 53.024C393.512 52.672 394.456 52.24 395.384 51.728C396.312 51.216 397.144 50.672 397.88 50.096C398.616 49.488 399.176 48.896 399.56 48.32H406.136V80H398.168ZM424.408 80.48C420.088 80.48 416.808 79.104 414.568 76.352C412.36 73.6 411.256 69.536 411.256 64.16C411.256 58.784 412.36 54.72 414.568 51.968C416.808 49.216 420.088 47.84 424.408 47.84C428.728 47.84 431.992 49.216 434.2 51.968C436.44 54.72 437.56 58.784 437.56 64.16C437.56 69.536 436.44 73.6 434.2 76.352C431.992 79.104 428.728 80.48 424.408 80.48ZM424.408 74.048C425.592 74.048 426.552 73.728 427.288 73.088C428.024 72.416 428.552 71.36 428.872 69.92C429.224 68.448 429.4 66.528 429.4 64.16C429.4 61.792 429.224 59.888 428.872 58.448C428.552 56.976 428.024 55.92 427.288 55.28C426.552 54.608 425.592 54.272 424.408 54.272C423.256 54.272 422.296 54.608 421.528 55.28C420.792 55.92 420.248 56.976 419.896 58.448C419.576 59.888 419.416 61.792 419.416 64.16C419.416 66.528 419.576 68.448 419.896 69.92C420.248 71.36 420.792 72.416 421.528 73.088C422.296 73.728 423.256 74.048 424.408 74.048ZM454.579 80.48C450.259 80.48 446.979 79.104 444.739 76.352C442.531 73.6 441.427 69.536 441.427 64.16C441.427 58.784 442.531 54.72 444.739 51.968C446.979 49.216 450.259 47.84 454.579 47.84C458.899 47.84 462.163 49.216 464.371 51.968C466.611 54.72 467.731 58.784 467.731 64.16C467.731 69.536 466.611 73.6 464.371 76.352C462.163 79.104 458.899 80.48 454.579 80.48ZM454.579 74.048C455.763 74.048 456.723 73.728 457.459 73.088C458.195 72.416 458.723 71.36 459.043 69.92C459.395 68.448 459.571 66.528 459.571 64.16C459.571 61.792 459.395 59.888 459.043 58.448C458.723 56.976 458.195 55.92 457.459 55.28C456.723 54.608 455.763 54.272 454.579 54.272C453.427 54.272 452.467 54.608 451.699 55.28C450.963 55.92 450.419 56.976 450.067 58.448C449.747 59.888 449.587 61.792 449.587 64.16C449.587 66.528 449.747 68.448 450.067 69.92C450.419 71.36 450.963 72.416 451.699 73.088C452.467 73.728 453.427 74.048 454.579 74.048ZM501.549 48.32L486.669 66.128L486.141 64.88L478.605 74.048L477.021 67.376L492.381 48.32H501.549ZM481.053 48.32V80H472.797V48.32H481.053ZM489.357 58.784L502.125 80H492.765L483.165 63.392L489.357 58.784Z" fill="#F25733"/>
<path d="M414.906 108.156C414.906 108.703 414.768 109.164 414.492 109.539C414.221 109.909 413.831 110.188 413.32 110.375C412.815 110.562 412.211 110.656 411.508 110.656C410.909 110.656 410.391 110.609 409.953 110.516C409.516 110.422 409.133 110.289 408.805 110.117V108.922C409.154 109.094 409.57 109.25 410.055 109.391C410.539 109.531 411.034 109.602 411.539 109.602C412.279 109.602 412.815 109.482 413.148 109.242C413.482 109.003 413.648 108.677 413.648 108.266C413.648 108.031 413.581 107.826 413.445 107.648C413.315 107.466 413.094 107.292 412.781 107.125C412.469 106.953 412.036 106.766 411.484 106.562C410.938 106.354 410.464 106.148 410.062 105.945C409.667 105.737 409.359 105.484 409.141 105.188C408.927 104.891 408.82 104.505 408.82 104.031C408.82 103.307 409.112 102.753 409.695 102.367C410.284 101.977 411.055 101.781 412.008 101.781C412.523 101.781 413.005 101.833 413.453 101.938C413.906 102.036 414.328 102.172 414.719 102.344L414.281 103.383C413.927 103.232 413.549 103.104 413.148 103C412.747 102.896 412.339 102.844 411.922 102.844C411.323 102.844 410.862 102.943 410.539 103.141C410.221 103.339 410.062 103.609 410.062 103.953C410.062 104.219 410.135 104.438 410.281 104.609C410.432 104.781 410.672 104.943 411 105.094C411.328 105.245 411.76 105.422 412.297 105.625C412.833 105.823 413.297 106.029 413.688 106.242C414.078 106.451 414.378 106.706 414.586 107.008C414.799 107.305 414.906 107.688 414.906 108.156ZM421.016 101.781C422.083 101.781 422.935 102.148 423.57 102.883C424.206 103.617 424.523 104.721 424.523 106.195C424.523 107.169 424.378 107.987 424.086 108.648C423.794 109.31 423.383 109.81 422.852 110.148C422.326 110.487 421.703 110.656 420.984 110.656C420.531 110.656 420.133 110.596 419.789 110.477C419.445 110.357 419.151 110.195 418.906 109.992C418.661 109.789 418.458 109.568 418.297 109.328H418.203C418.219 109.531 418.237 109.776 418.258 110.062C418.284 110.349 418.297 110.599 418.297 110.812V114.328H416.992V101.938H418.062L418.234 103.203H418.297C418.464 102.943 418.667 102.706 418.906 102.492C419.146 102.273 419.438 102.102 419.781 101.977C420.13 101.846 420.542 101.781 421.016 101.781ZM420.789 102.875C420.195 102.875 419.716 102.99 419.352 103.219C418.992 103.448 418.729 103.792 418.562 104.25C418.396 104.703 418.307 105.273 418.297 105.961V106.211C418.297 106.935 418.375 107.547 418.531 108.047C418.693 108.547 418.956 108.927 419.32 109.188C419.69 109.448 420.185 109.578 420.805 109.578C421.336 109.578 421.779 109.435 422.133 109.148C422.487 108.862 422.75 108.464 422.922 107.953C423.099 107.438 423.188 106.846 423.188 106.18C423.188 105.169 422.99 104.367 422.594 103.773C422.203 103.174 421.602 102.875 420.789 102.875ZM429.992 101.797C431.013 101.797 431.771 102.026 432.266 102.484C432.76 102.943 433.008 103.674 433.008 104.68V110.5H432.062L431.812 109.234H431.75C431.51 109.547 431.26 109.81 431 110.023C430.74 110.232 430.438 110.391 430.094 110.5C429.755 110.604 429.339 110.656 428.844 110.656C428.323 110.656 427.859 110.565 427.453 110.383C427.052 110.201 426.734 109.924 426.5 109.555C426.271 109.185 426.156 108.716 426.156 108.148C426.156 107.294 426.495 106.638 427.172 106.18C427.849 105.721 428.88 105.471 430.266 105.43L431.742 105.367V104.844C431.742 104.104 431.583 103.586 431.266 103.289C430.948 102.992 430.5 102.844 429.922 102.844C429.474 102.844 429.047 102.909 428.641 103.039C428.234 103.169 427.849 103.323 427.484 103.5L427.086 102.516C427.471 102.318 427.914 102.148 428.414 102.008C428.914 101.867 429.44 101.797 429.992 101.797ZM431.727 106.281L430.422 106.336C429.354 106.378 428.602 106.552 428.164 106.859C427.727 107.167 427.508 107.602 427.508 108.164C427.508 108.654 427.656 109.016 427.953 109.25C428.25 109.484 428.643 109.602 429.133 109.602C429.893 109.602 430.516 109.391 431 108.969C431.484 108.547 431.727 107.914 431.727 107.07V106.281ZM439.734 101.781C440.75 101.781 441.518 102.031 442.039 102.531C442.56 103.026 442.82 103.823 442.82 104.922V110.5H441.539V105.008C441.539 104.294 441.375 103.76 441.047 103.406C440.724 103.052 440.227 102.875 439.555 102.875C438.607 102.875 437.94 103.143 437.555 103.68C437.169 104.216 436.977 104.995 436.977 106.016V110.5H435.68V101.938H436.727L436.922 103.172H436.992C437.174 102.87 437.406 102.617 437.688 102.414C437.969 102.206 438.284 102.049 438.633 101.945C438.982 101.836 439.349 101.781 439.734 101.781ZM451.031 108.156C451.031 108.703 450.893 109.164 450.617 109.539C450.346 109.909 449.956 110.188 449.445 110.375C448.94 110.562 448.336 110.656 447.633 110.656C447.034 110.656 446.516 110.609 446.078 110.516C445.641 110.422 445.258 110.289 444.93 110.117V108.922C445.279 109.094 445.695 109.25 446.18 109.391C446.664 109.531 447.159 109.602 447.664 109.602C448.404 109.602 448.94 109.482 449.273 109.242C449.607 109.003 449.773 108.677 449.773 108.266C449.773 108.031 449.706 107.826 449.57 107.648C449.44 107.466 449.219 107.292 448.906 107.125C448.594 106.953 448.161 106.766 447.609 106.562C447.062 106.354 446.589 106.148 446.188 105.945C445.792 105.737 445.484 105.484 445.266 105.188C445.052 104.891 444.945 104.505 444.945 104.031C444.945 103.307 445.237 102.753 445.82 102.367C446.409 101.977 447.18 101.781 448.133 101.781C448.648 101.781 449.13 101.833 449.578 101.938C450.031 102.036 450.453 102.172 450.844 102.344L450.406 103.383C450.052 103.232 449.674 103.104 449.273 103C448.872 102.896 448.464 102.844 448.047 102.844C447.448 102.844 446.987 102.943 446.664 103.141C446.346 103.339 446.188 103.609 446.188 103.953C446.188 104.219 446.26 104.438 446.406 104.609C446.557 104.781 446.797 104.943 447.125 105.094C447.453 105.245 447.885 105.422 448.422 105.625C448.958 105.823 449.422 106.029 449.812 106.242C450.203 106.451 450.503 106.706 450.711 107.008C450.924 107.305 451.031 107.688 451.031 108.156ZM457.445 99.0781L453.195 110.5H451.914L456.172 99.0781H457.445ZM468.289 101.781C469.232 101.781 469.943 102.029 470.422 102.523C470.901 103.013 471.141 103.802 471.141 104.891V110.5H469.859V104.953C469.859 104.26 469.708 103.742 469.406 103.398C469.109 103.049 468.667 102.875 468.078 102.875C467.25 102.875 466.648 103.115 466.273 103.594C465.898 104.073 465.711 104.779 465.711 105.711V110.5H464.422V104.953C464.422 104.49 464.354 104.104 464.219 103.797C464.089 103.49 463.891 103.26 463.625 103.109C463.365 102.953 463.034 102.875 462.633 102.875C462.065 102.875 461.609 102.992 461.266 103.227C460.922 103.461 460.672 103.81 460.516 104.273C460.365 104.732 460.289 105.297 460.289 105.969V110.5H458.992V101.938H460.039L460.234 103.148H460.305C460.477 102.852 460.693 102.602 460.953 102.398C461.214 102.195 461.505 102.042 461.828 101.938C462.151 101.833 462.495 101.781 462.859 101.781C463.51 101.781 464.055 101.904 464.492 102.148C464.935 102.388 465.255 102.755 465.453 103.25H465.523C465.805 102.755 466.19 102.388 466.68 102.148C467.169 101.904 467.706 101.781 468.289 101.781ZM475.102 101.938V110.5H473.805V101.938H475.102ZM474.469 98.7344C474.682 98.7344 474.865 98.8047 475.016 98.9453C475.172 99.0807 475.25 99.2943 475.25 99.5859C475.25 99.8724 475.172 100.086 475.016 100.227C474.865 100.367 474.682 100.438 474.469 100.438C474.245 100.438 474.057 100.367 473.906 100.227C473.76 100.086 473.688 99.8724 473.688 99.5859C473.688 99.2943 473.76 99.0807 473.906 98.9453C474.057 98.8047 474.245 98.7344 474.469 98.7344ZM481.906 101.781C482.922 101.781 483.69 102.031 484.211 102.531C484.732 103.026 484.992 103.823 484.992 104.922V110.5H483.711V105.008C483.711 104.294 483.547 103.76 483.219 103.406C482.896 103.052 482.398 102.875 481.727 102.875C480.779 102.875 480.112 103.143 479.727 103.68C479.341 104.216 479.148 104.995 479.148 106.016V110.5H477.852V101.938H478.898L479.094 103.172H479.164C479.346 102.87 479.578 102.617 479.859 102.414C480.141 102.206 480.456 102.049 480.805 101.945C481.154 101.836 481.521 101.781 481.906 101.781Z" fill="#132742"/>
</svg>
