<svg width="442" height="80" viewBox="0 0 442 80" fill="none" xmlns="http://www.w3.org/2000/svg">
<path d="M15.9305 37.4887C24.6751 40.1725 30.3892 47.4453 39.9994 47.4453C49.7829 47.4453 56.8823 38.0947 62.0771 37.4887C66.7523 36.8826 74.025 38.6141 79.999 41.4713V17.8352C80.0855 7.96525 72.1202 0 62.2502 0H17.8353C7.96525 0 0 7.96525 0 17.8352V40.1725C4.32895 38.0947 10.7358 35.8436 15.9305 37.4887Z" fill="#20C58B"/>
<path d="M62.0771 37.4893C56.8823 38.1821 49.7829 47.446 39.9994 47.446C30.7355 47.446 24.7615 40.1734 15.9305 37.4893C10.7358 35.8443 4.32895 38.0954 0 40.1734V62.1644C0 72.0344 7.96525 79.9997 17.8353 79.9997H62.2502C72.1202 79.9997 80.0855 72.0344 80.0855 62.1644V41.3853C74.1115 38.6148 66.7523 36.8833 62.0771 37.4893Z" fill="#5858E0"/>
<path d="M17.489 63.2898C14.3721 63.2898 11.8613 60.779 11.8613 57.6621V22.4245C11.8613 19.3077 14.3721 16.7969 17.489 16.7969C20.6058 16.7969 23.1166 19.3077 23.1166 22.4245V57.5756C23.1166 60.6924 20.6058 63.2898 17.489 63.2898Z" fill="white"/>
<path d="M40.0005 55.3239C36.8838 55.3239 34.373 52.8132 34.373 49.6964V30.3892C34.373 27.2724 36.8838 24.7617 40.0005 24.7617C43.1173 24.7617 45.6283 27.2724 45.6283 30.3892V49.7829C45.6283 52.8132 43.1173 55.3239 40.0005 55.3239Z" fill="white"/>
<path d="M62.5095 63.2898C59.3928 63.2898 56.8818 60.779 56.8818 57.6621V22.4245C56.8818 19.3077 59.3928 16.7969 62.5095 16.7969C65.6263 16.7969 68.1373 19.3077 68.1373 22.4245V57.5756C68.1373 60.6924 65.6263 63.2898 62.5095 63.2898Z" fill="white"/>
<path d="M153.418 24.7612C156.102 27.5317 157.401 31.601 157.401 36.8823V58.7002H151.167V37.4883C151.167 33.7655 150.301 30.995 148.483 29.0036C146.665 27.0123 144.241 26.06 141.037 26.06C137.747 26.06 135.15 27.1854 133.159 29.3499C131.168 31.5144 130.215 34.7178 130.215 38.8736V58.7868H123.981V37.4883C123.981 33.7655 123.029 30.995 121.211 29.0036C119.393 27.0123 116.968 26.06 113.852 26.06C110.562 26.06 107.878 27.1854 105.886 29.3499C103.895 31.5144 102.943 34.7178 102.943 38.8736V58.7868H96.709V21.2115H102.943V29.7828C103.895 26.8392 105.453 24.5881 107.791 22.943C110.129 21.3846 112.813 20.6055 115.93 20.6055C119.133 20.6055 121.903 21.3846 124.241 23.0297C126.579 24.6747 128.224 27.0123 129.263 30.2158C130.302 27.1854 132.033 24.8479 134.544 23.1163C136.968 21.4713 139.825 20.6055 142.856 20.6055C147.271 20.6055 150.734 21.9907 153.418 24.7612Z" fill="white"/>
<path d="M191.685 23.4628C194.196 25.281 196.014 27.7052 196.966 30.7355V21.2119H203.2V58.7003H196.966V49.1768C195.927 52.207 194.196 54.6312 191.685 56.4494C189.174 58.2676 186.057 59.2199 182.421 59.2199C179.131 59.2199 176.101 58.4407 173.503 56.8823C170.906 55.3237 168.828 53.0728 167.356 50.2156C165.885 47.3587 165.105 43.8954 165.105 39.9994C165.105 36.1032 165.885 32.6402 167.356 29.783C168.828 26.8394 170.906 24.6749 173.503 23.1165C176.101 21.5581 179.045 20.7789 182.421 20.7789C186.144 20.6923 189.174 21.6446 191.685 23.4628ZM175.062 29.9561C172.724 32.3804 171.599 35.757 171.599 39.9994C171.599 44.2417 172.724 47.6182 175.062 50.0425C177.4 52.4668 180.43 53.6789 184.239 53.6789C186.664 53.6789 188.914 53.0728 190.819 51.9474C192.724 50.8217 194.282 49.1768 195.408 47.0989C196.534 45.0209 197.053 42.5968 197.053 39.9128C197.053 37.1422 196.534 34.8046 195.408 32.6402C194.282 30.5622 192.811 28.9173 190.819 27.7917C188.914 26.6662 186.664 26.1468 184.239 26.1468C180.43 26.2333 177.313 27.4454 175.062 29.9561Z" fill="white"/>
<path d="M213.244 7.44616C214.022 6.75353 215.061 6.40723 216.359 6.40723C217.659 6.40723 218.697 6.75353 219.476 7.44616C220.255 8.13879 220.602 9.09116 220.602 10.2167C220.602 11.3422 220.255 12.2946 219.476 12.9872C218.697 13.6798 217.659 14.0262 216.359 14.0262C215.061 14.0262 214.022 13.6798 213.244 12.9872C212.463 12.2946 212.117 11.3422 212.117 10.2167C212.031 9.09116 212.463 8.13879 213.244 7.44616ZM219.39 21.2122V58.7009H213.156V21.2122H219.39Z" fill="white"/>
<path d="M235.581 8.13867V58.7008H229.347V8.13867H235.581Z" fill="white"/>
<path d="M302.248 24.7612C304.931 27.5317 306.229 31.601 306.229 36.8823V58.7002H299.997V37.4883C299.997 33.7655 299.13 30.995 297.313 29.0036C295.494 27.0123 293.07 26.06 289.867 26.06C286.576 26.06 283.98 27.1854 281.989 29.3499C279.996 31.5144 279.043 34.7178 279.043 38.8736V58.7868H272.811V37.4883C272.811 33.7655 271.859 30.995 270.039 29.0036C268.222 27.0123 265.798 26.06 262.681 26.06C259.392 26.06 256.706 27.1854 254.715 29.3499C252.724 31.5144 251.772 34.7178 251.772 38.8736V58.7868H245.537V21.2115H251.772V29.7828C252.724 26.8392 254.282 24.5881 256.62 22.943C258.958 21.3846 261.642 20.6055 264.759 20.6055C267.963 20.6055 270.732 21.3846 273.071 23.0297C275.407 24.6747 277.052 27.0123 278.091 30.2158C279.131 27.1854 280.863 24.8479 283.373 23.1163C285.797 21.4713 288.655 20.6055 291.684 20.6055C296.101 20.6055 299.564 21.9907 302.248 24.7612Z" fill="white"/>
<path d="M342.592 23.029C345.45 24.5874 347.701 26.8385 349.258 29.6957C350.904 32.6393 351.682 36.0159 351.682 39.9119C351.682 43.8081 350.904 47.2711 349.258 50.1283C347.615 52.9853 345.45 55.2364 342.592 56.7948C339.735 58.3532 336.532 59.1324 332.895 59.1324C329.259 59.1324 326.056 58.3532 323.198 56.7948C320.341 55.2364 318.09 52.9853 316.445 50.1283C314.801 47.2711 314.021 43.8081 314.021 39.9119C314.021 36.0159 314.801 32.5527 316.445 29.6957C318.09 26.752 320.341 24.5874 323.198 23.029C326.056 21.4706 329.259 20.6914 332.895 20.6914C336.532 20.6914 339.735 21.4706 342.592 23.029ZM326.749 27.7044C324.844 28.7431 323.372 30.2151 322.16 32.2931C321.034 34.3708 320.429 36.9682 320.429 39.9986C320.429 43.0287 321.034 45.5396 322.16 47.6174C323.286 49.6954 324.844 51.2538 326.749 52.2061C328.654 53.2451 330.731 53.678 332.895 53.678C335.146 53.678 337.225 53.1584 339.042 52.2061C340.947 51.1671 342.419 49.6954 343.631 47.6174C344.843 45.5396 345.362 43.0287 345.362 39.9986C345.362 36.9682 344.757 34.3708 343.631 32.2931C342.507 30.2151 340.947 28.6567 339.042 27.7044C337.139 26.6654 335.06 26.2324 332.895 26.2324C330.731 26.2324 328.654 26.6654 326.749 27.7044Z" fill="white"/>
<path d="M384.496 23.4632C387.008 25.2812 388.825 27.7055 389.778 30.7358V8.13867H396.012V58.7008H389.778V49.1771C388.739 52.2074 387.008 54.6315 384.496 56.4496C381.986 58.2678 378.869 59.2202 375.232 59.2202C371.943 59.2202 368.912 58.441 366.316 56.8826C363.718 55.3242 361.639 53.0731 360.168 50.2161C358.696 47.3589 357.917 43.8959 357.917 39.9997C357.917 36.1037 358.696 32.6404 360.168 29.7835C361.639 26.8398 363.718 24.6751 366.316 23.1167C368.912 21.5584 371.855 20.7792 375.232 20.7792C378.869 20.6926 381.986 21.645 384.496 23.4632ZM367.788 29.9566C365.449 32.3808 364.323 35.7574 364.323 39.9997C364.323 44.2421 365.449 47.6187 367.788 50.043C370.124 52.467 373.155 53.6791 376.964 53.6791C379.388 53.6791 381.64 53.0731 383.545 51.9476C385.448 50.8221 387.008 49.1771 388.132 47.0991C389.259 45.0213 389.778 42.5971 389.778 39.9132C389.778 37.1427 389.259 34.8049 388.132 32.6404C387.008 30.5626 385.536 28.9176 383.545 27.7921C381.64 26.6665 379.388 26.1471 376.964 26.1471C373.155 26.2337 370.124 27.4459 367.788 29.9566Z" fill="white"/>
<path d="M432.633 23.029C435.491 24.5874 437.741 26.8385 439.301 29.6957C440.947 32.6393 441.725 36.0159 441.725 39.9119C441.725 43.8081 440.947 47.2711 439.301 50.1283C437.656 52.9853 435.491 55.2364 432.633 56.7948C429.778 58.3532 426.575 59.1324 422.938 59.1324C419.302 59.1324 416.097 58.3532 413.241 56.7948C410.384 55.2364 408.133 52.9853 406.488 50.1283C404.842 47.2711 404.063 43.8081 404.063 39.9119C404.063 36.0159 404.842 32.5527 406.488 29.6957C408.133 26.752 410.384 24.5874 413.241 23.029C416.097 21.4706 419.302 20.6914 422.938 20.6914C426.575 20.6914 429.778 21.4706 432.633 23.029ZM416.79 27.7044C414.885 28.7431 413.413 30.2151 412.201 32.2931C411.077 34.3708 410.47 36.9682 410.47 39.9986C410.47 43.0287 411.077 45.5396 412.201 47.6174C413.327 49.6954 414.885 51.2538 416.79 52.2061C418.695 53.2451 420.774 53.678 422.938 53.678C425.189 53.678 427.266 53.1584 429.085 52.2061C430.99 51.1671 432.462 49.6954 433.674 47.6174C434.798 45.5396 435.405 43.0287 435.405 39.9986C435.405 36.9682 434.798 34.3708 433.674 32.2931C432.547 30.2151 430.99 28.6567 429.085 27.7044C427.18 26.6654 425.101 26.2324 422.938 26.2324C420.686 26.2324 418.695 26.6654 416.79 27.7044Z" fill="white"/>
</svg>
